<?xml version="1.0" encoding="utf-8" standalone="no"?>
<!DOCTYPE svg PUBLIC "-//W3C//DTD SVG 1.1//EN"
  "http://www.w3.org/Graphics/SVG/1.1/DTD/svg11.dtd">
<svg height="289.351353pt" version="1.1" viewBox="0 0 363.825229 289.351353" width="363.825229pt" xmlns="http://www.w3.org/2000/svg" xmlns:xlink="http://www.w3.org/1999/xlink">
 <metadata>
  <rdf:RDF xmlns:cc="http://creativecommons.org/ns#" xmlns:dc="http://purl.org/dc/elements/1.1/" xmlns:rdf="http://www.w3.org/1999/02/22-rdf-syntax-ns#">
   <cc:Work>
    <dc:type rdf:resource="http://purl.org/dc/dcmitype/StillImage"/>
    <dc:date>2021-04-01T20:36:32.338080</dc:date>
    <dc:format>image/svg+xml</dc:format>
    <dc:creator>
     <cc:Agent>
      <dc:title>Matplotlib v3.4.0, https://matplotlib.org/</dc:title>
     </cc:Agent>
    </dc:creator>
   </cc:Work>
  </rdf:RDF>
 </metadata>
 <defs>
  <style type="text/css">*{stroke-linecap:butt;stroke-linejoin:round;}</style>
 </defs>
 <g id="figure_1">
  <g id="patch_1">
   <path d="M 0 289.351353 
L 363.825229 289.351353 
L 363.825229 0 
L 0 0 
z
" style="fill:none;"/>
  </g>
  <g id="axes_1">
   <g id="patch_2">
    <path d="M 32.037012 253.44 
L 356.625229 253.44 
L 356.625229 36 
L 32.037012 36 
z
" style="fill:#ffffff;"/>
   </g>
   <g id="matplotlib.axis_1">
    <g id="xtick_1">
     <g id="line2d_1">
      <path clip-path="url(#pa02b4488b3)" d="M 46.791022 253.44 
L 46.791022 36 
" style="fill:none;stroke:#b0b0b0;stroke-linecap:square;stroke-width:0.8;"/>
     </g>
     <g id="line2d_2">
      <defs>
       <path d="M 0 0 
L 0 3.5 
" id="m0c51827c02" style="stroke:#000000;stroke-width:0.8;"/>
      </defs>
      <g>
       <use style="stroke:#000000;stroke-width:0.8;" x="46.791022" xlink:href="#m0c51827c02" y="253.44"/>
      </g>
     </g>
     <g id="text_1">
      <!-- $\mathdefault{0}$ -->
      <g transform="translate(44.300354 267.358498)scale(0.1 -0.1)">
       <defs>
        <path d="M 2688 2025 
C 2688 2416 2682 3080 2413 3591 
C 2176 4039 1798 4198 1466 4198 
C 1158 4198 768 4058 525 3597 
C 269 3118 243 2524 243 2025 
C 243 1661 250 1106 448 619 
C 723 -39 1216 -128 1466 -128 
C 1760 -128 2208 -7 2470 600 
C 2662 1042 2688 1559 2688 2025 
z
M 1466 -26 
C 1056 -26 813 325 723 812 
C 653 1188 653 1738 653 2096 
C 653 2588 653 2997 736 3387 
C 858 3929 1216 4096 1466 4096 
C 1728 4096 2067 3923 2189 3400 
C 2272 3036 2278 2607 2278 2096 
C 2278 1680 2278 1169 2202 792 
C 2067 95 1690 -26 1466 -26 
z
" id="CMR17-30" transform="scale(0.015625)"/>
       </defs>
       <use transform="scale(0.996264)" xlink:href="#CMR17-30"/>
      </g>
     </g>
    </g>
    <g id="xtick_2">
     <g id="line2d_3">
      <path clip-path="url(#pa02b4488b3)" d="M 91.235463 253.44 
L 91.235463 36 
" style="fill:none;stroke:#b0b0b0;stroke-linecap:square;stroke-width:0.8;"/>
     </g>
     <g id="line2d_4">
      <g>
       <use style="stroke:#000000;stroke-width:0.8;" x="91.235463" xlink:href="#m0c51827c02" y="253.44"/>
      </g>
     </g>
     <g id="text_2">
      <!-- $\mathdefault{1}$ -->
      <g transform="translate(88.744795 267.358498)scale(0.1 -0.1)">
       <defs>
        <path d="M 1702 4058 
C 1702 4192 1696 4192 1606 4192 
C 1357 3916 979 3827 621 3827 
C 602 3827 570 3827 563 3808 
C 557 3795 557 3782 557 3648 
C 755 3648 1088 3686 1344 3839 
L 1344 461 
C 1344 236 1331 160 781 160 
L 589 160 
L 589 0 
C 896 0 1216 0 1523 0 
C 1830 0 2150 0 2458 0 
L 2458 160 
L 2266 160 
C 1715 160 1702 230 1702 458 
L 1702 4058 
z
" id="CMR17-31" transform="scale(0.015625)"/>
       </defs>
       <use transform="scale(0.996264)" xlink:href="#CMR17-31"/>
      </g>
     </g>
    </g>
    <g id="xtick_3">
     <g id="line2d_5">
      <path clip-path="url(#pa02b4488b3)" d="M 135.679903 253.44 
L 135.679903 36 
" style="fill:none;stroke:#b0b0b0;stroke-linecap:square;stroke-width:0.8;"/>
     </g>
     <g id="line2d_6">
      <g>
       <use style="stroke:#000000;stroke-width:0.8;" x="135.679903" xlink:href="#m0c51827c02" y="253.44"/>
      </g>
     </g>
     <g id="text_3">
      <!-- $\mathdefault{2}$ -->
      <g transform="translate(133.189236 267.358498)scale(0.1 -0.1)">
       <defs>
        <path d="M 2669 989 
L 2554 989 
C 2490 536 2438 459 2413 420 
C 2381 369 1920 369 1830 369 
L 602 369 
C 832 619 1280 1072 1824 1597 
C 2214 1967 2669 2402 2669 3035 
C 2669 3790 2067 4224 1395 4224 
C 691 4224 262 3604 262 3030 
C 262 2780 448 2748 525 2748 
C 589 2748 781 2787 781 3010 
C 781 3207 614 3264 525 3264 
C 486 3264 448 3258 422 3245 
C 544 3790 915 4058 1306 4058 
C 1862 4058 2227 3617 2227 3035 
C 2227 2479 1901 2000 1536 1584 
L 262 146 
L 262 0 
L 2515 0 
L 2669 989 
z
" id="CMR17-32" transform="scale(0.015625)"/>
       </defs>
       <use transform="scale(0.996264)" xlink:href="#CMR17-32"/>
      </g>
     </g>
    </g>
    <g id="xtick_4">
     <g id="line2d_7">
      <path clip-path="url(#pa02b4488b3)" d="M 180.124344 253.44 
L 180.124344 36 
" style="fill:none;stroke:#b0b0b0;stroke-linecap:square;stroke-width:0.8;"/>
     </g>
     <g id="line2d_8">
      <g>
       <use style="stroke:#000000;stroke-width:0.8;" x="180.124344" xlink:href="#m0c51827c02" y="253.44"/>
      </g>
     </g>
     <g id="text_4">
      <!-- $\mathdefault{3}$ -->
      <g transform="translate(177.633676 267.358498)scale(0.1 -0.1)">
       <defs>
        <path d="M 1414 2157 
C 1984 2157 2234 1662 2234 1090 
C 2234 320 1824 25 1453 25 
C 1114 25 563 194 390 693 
C 422 680 454 680 486 680 
C 640 680 755 782 755 948 
C 755 1133 614 1216 486 1216 
C 378 1216 211 1165 211 926 
C 211 335 787 -128 1466 -128 
C 2176 -128 2720 430 2720 1085 
C 2720 1707 2208 2157 1600 2227 
C 2086 2328 2554 2756 2554 3329 
C 2554 3820 2048 4179 1472 4179 
C 890 4179 378 3829 378 3329 
C 378 3110 544 3072 627 3072 
C 762 3072 877 3155 877 3321 
C 877 3486 762 3569 627 3569 
C 602 3569 570 3569 544 3557 
C 730 3959 1235 4032 1459 4032 
C 1683 4032 2106 3925 2106 3320 
C 2106 3143 2080 2828 1862 2550 
C 1670 2304 1453 2304 1242 2284 
C 1210 2284 1062 2269 1037 2269 
C 992 2263 966 2257 966 2208 
C 966 2163 973 2157 1101 2157 
L 1414 2157 
z
" id="CMR17-33" transform="scale(0.015625)"/>
       </defs>
       <use transform="scale(0.996264)" xlink:href="#CMR17-33"/>
      </g>
     </g>
    </g>
    <g id="xtick_5">
     <g id="line2d_9">
      <path clip-path="url(#pa02b4488b3)" d="M 224.568785 253.44 
L 224.568785 36 
" style="fill:none;stroke:#b0b0b0;stroke-linecap:square;stroke-width:0.8;"/>
     </g>
     <g id="line2d_10">
      <g>
       <use style="stroke:#000000;stroke-width:0.8;" x="224.568785" xlink:href="#m0c51827c02" y="253.44"/>
      </g>
     </g>
     <g id="text_5">
      <!-- $\mathdefault{4}$ -->
      <g transform="translate(222.078117 267.358498)scale(0.1 -0.1)">
       <defs>
        <path d="M 2150 4122 
C 2150 4256 2144 4256 2029 4256 
L 128 1254 
L 128 1088 
L 1779 1088 
L 1779 457 
C 1779 224 1766 160 1318 160 
L 1197 160 
L 1197 0 
C 1402 0 1747 0 1965 0 
C 2182 0 2528 0 2733 0 
L 2733 160 
L 2611 160 
C 2163 160 2150 224 2150 457 
L 2150 1088 
L 2803 1088 
L 2803 1254 
L 2150 1254 
L 2150 4122 
z
M 1798 3703 
L 1798 1254 
L 256 1254 
L 1798 3703 
z
" id="CMR17-34" transform="scale(0.015625)"/>
       </defs>
       <use transform="scale(0.996264)" xlink:href="#CMR17-34"/>
      </g>
     </g>
    </g>
    <g id="xtick_6">
     <g id="line2d_11">
      <path clip-path="url(#pa02b4488b3)" d="M 269.013225 253.44 
L 269.013225 36 
" style="fill:none;stroke:#b0b0b0;stroke-linecap:square;stroke-width:0.8;"/>
     </g>
     <g id="line2d_12">
      <g>
       <use style="stroke:#000000;stroke-width:0.8;" x="269.013225" xlink:href="#m0c51827c02" y="253.44"/>
      </g>
     </g>
     <g id="text_6">
      <!-- $\mathdefault{5}$ -->
      <g transform="translate(266.522558 267.358498)scale(0.1 -0.1)">
       <defs>
        <path d="M 730 3692 
C 794 3666 1056 3584 1325 3584 
C 1920 3584 2246 3911 2432 4100 
C 2432 4157 2432 4192 2394 4192 
C 2387 4192 2374 4192 2323 4163 
C 2099 4058 1837 3973 1517 3973 
C 1325 3973 1037 3999 723 4139 
C 653 4171 640 4171 634 4171 
C 602 4171 595 4164 595 4037 
L 595 2203 
C 595 2089 595 2057 659 2057 
C 691 2057 704 2070 736 2114 
C 941 2401 1222 2522 1542 2522 
C 1766 2522 2246 2382 2246 1289 
C 2246 1085 2246 715 2054 421 
C 1894 159 1645 25 1370 25 
C 947 25 518 320 403 814 
C 429 807 480 795 506 795 
C 589 795 749 840 749 1038 
C 749 1210 627 1280 506 1280 
C 358 1280 262 1190 262 1011 
C 262 454 704 -128 1382 -128 
C 2042 -128 2669 440 2669 1264 
C 2669 2030 2170 2624 1549 2624 
C 1222 2624 947 2503 730 2274 
L 730 3692 
z
" id="CMR17-35" transform="scale(0.015625)"/>
       </defs>
       <use transform="scale(0.996264)" xlink:href="#CMR17-35"/>
      </g>
     </g>
    </g>
    <g id="xtick_7">
     <g id="line2d_13">
      <path clip-path="url(#pa02b4488b3)" d="M 313.457666 253.44 
L 313.457666 36 
" style="fill:none;stroke:#b0b0b0;stroke-linecap:square;stroke-width:0.8;"/>
     </g>
     <g id="line2d_14">
      <g>
       <use style="stroke:#000000;stroke-width:0.8;" x="313.457666" xlink:href="#m0c51827c02" y="253.44"/>
      </g>
     </g>
     <g id="text_7">
      <!-- $\mathdefault{6}$ -->
      <g transform="translate(310.966998 267.358498)scale(0.1 -0.1)">
       <defs>
        <path d="M 678 2176 
C 678 3690 1395 4032 1811 4032 
C 1946 4032 2272 4009 2400 3776 
C 2298 3776 2106 3776 2106 3553 
C 2106 3381 2246 3323 2336 3323 
C 2394 3323 2566 3348 2566 3560 
C 2566 3954 2246 4179 1805 4179 
C 1043 4179 243 3390 243 1984 
C 243 253 966 -128 1478 -128 
C 2099 -128 2688 427 2688 1283 
C 2688 2081 2170 2662 1517 2662 
C 1126 2662 838 2407 678 1960 
L 678 2176 
z
M 1478 25 
C 691 25 691 1200 691 1436 
C 691 1896 909 2560 1504 2560 
C 1613 2560 1926 2560 2138 2120 
C 2253 1870 2253 1609 2253 1289 
C 2253 944 2253 690 2118 434 
C 1978 171 1773 25 1478 25 
z
" id="CMR17-36" transform="scale(0.015625)"/>
       </defs>
       <use transform="scale(0.996264)" xlink:href="#CMR17-36"/>
      </g>
     </g>
    </g>
    <g id="text_8">
     <!-- $x$ -->
     <g transform="translate(191.484161 280.214175)scale(0.1 -0.1)">
      <defs>
       <path d="M 3034 2606 
C 2829 2567 2752 2414 2752 2293 
C 2752 2139 2874 2088 2963 2088 
C 3155 2088 3290 2254 3290 2427 
C 3290 2695 2982 2816 2714 2816 
C 2323 2816 2106 2433 2048 2312 
C 1901 2816 1504 2816 1389 2816 
C 736 2816 390 1980 390 1839 
C 390 1814 416 1782 461 1782 
C 512 1782 525 1820 538 1846 
C 755 2555 1184 2689 1370 2689 
C 1658 2689 1715 2420 1715 2267 
C 1715 2127 1677 1980 1600 1673 
L 1382 798 
C 1286 415 1101 64 762 64 
C 730 64 570 64 435 147 
C 666 192 717 383 717 460 
C 717 588 621 664 499 664 
C 346 664 179 530 179 326 
C 179 57 480 -64 755 -64 
C 1062 -64 1280 179 1414 441 
C 1517 64 1837 -64 2074 -64 
C 2726 -64 3072 773 3072 913 
C 3072 945 3046 971 3008 971 
C 2950 971 2944 939 2925 888 
C 2752 326 2381 64 2093 64 
C 1869 64 1747 230 1747 492 
C 1747 632 1773 734 1875 1156 
L 2099 2024 
C 2195 2408 2413 2689 2707 2689 
C 2720 2689 2899 2689 3034 2606 
z
" id="CMMI12-78" transform="scale(0.015625)"/>
      </defs>
      <use transform="scale(0.996264)" xlink:href="#CMMI12-78"/>
     </g>
    </g>
   </g>
   <g id="matplotlib.axis_2">
    <g id="ytick_1">
     <g id="line2d_15">
      <path clip-path="url(#pa02b4488b3)" d="M 32.037012 243.556364 
L 356.625229 243.556364 
" style="fill:none;stroke:#b0b0b0;stroke-linecap:square;stroke-width:0.8;"/>
     </g>
     <g id="line2d_16">
      <defs>
       <path d="M 0 0 
L -3.5 0 
" id="m50fa51c774" style="stroke:#000000;stroke-width:0.8;"/>
      </defs>
      <g>
       <use style="stroke:#000000;stroke-width:0.8;" x="32.037012" xlink:href="#m50fa51c774" y="243.556364"/>
      </g>
     </g>
     <g id="text_9">
      <!-- $\mathdefault{0}$ -->
      <g transform="translate(20.055677 247.015613)scale(0.1 -0.1)">
       <use transform="scale(0.996264)" xlink:href="#CMR17-30"/>
      </g>
     </g>
    </g>
    <g id="ytick_2">
     <g id="line2d_17">
      <path clip-path="url(#pa02b4488b3)" d="M 32.037012 199.111923 
L 356.625229 199.111923 
" style="fill:none;stroke:#b0b0b0;stroke-linecap:square;stroke-width:0.8;"/>
     </g>
     <g id="line2d_18">
      <g>
       <use style="stroke:#000000;stroke-width:0.8;" x="32.037012" xlink:href="#m50fa51c774" y="199.111923"/>
      </g>
     </g>
     <g id="text_10">
      <!-- $\mathdefault{1}$ -->
      <g transform="translate(20.055677 202.571172)scale(0.1 -0.1)">
       <use transform="scale(0.996264)" xlink:href="#CMR17-31"/>
      </g>
     </g>
    </g>
    <g id="ytick_3">
     <g id="line2d_19">
      <path clip-path="url(#pa02b4488b3)" d="M 32.037012 154.667482 
L 356.625229 154.667482 
" style="fill:none;stroke:#b0b0b0;stroke-linecap:square;stroke-width:0.8;"/>
     </g>
     <g id="line2d_20">
      <g>
       <use style="stroke:#000000;stroke-width:0.8;" x="32.037012" xlink:href="#m50fa51c774" y="154.667482"/>
      </g>
     </g>
     <g id="text_11">
      <!-- $\mathdefault{2}$ -->
      <g transform="translate(20.055677 158.126731)scale(0.1 -0.1)">
       <use transform="scale(0.996264)" xlink:href="#CMR17-32"/>
      </g>
     </g>
    </g>
    <g id="ytick_4">
     <g id="line2d_21">
      <path clip-path="url(#pa02b4488b3)" d="M 32.037012 110.223042 
L 356.625229 110.223042 
" style="fill:none;stroke:#b0b0b0;stroke-linecap:square;stroke-width:0.8;"/>
     </g>
     <g id="line2d_22">
      <g>
       <use style="stroke:#000000;stroke-width:0.8;" x="32.037012" xlink:href="#m50fa51c774" y="110.223042"/>
      </g>
     </g>
     <g id="text_12">
      <!-- $\mathdefault{3}$ -->
      <g transform="translate(20.055677 113.682291)scale(0.1 -0.1)">
       <use transform="scale(0.996264)" xlink:href="#CMR17-33"/>
      </g>
     </g>
    </g>
    <g id="ytick_5">
     <g id="line2d_23">
      <path clip-path="url(#pa02b4488b3)" d="M 32.037012 65.778601 
L 356.625229 65.778601 
" style="fill:none;stroke:#b0b0b0;stroke-linecap:square;stroke-width:0.8;"/>
     </g>
     <g id="line2d_24">
      <g>
       <use style="stroke:#000000;stroke-width:0.8;" x="32.037012" xlink:href="#m50fa51c774" y="65.778601"/>
      </g>
     </g>
     <g id="text_13">
      <!-- $\mathdefault{4}$ -->
      <g transform="translate(20.055677 69.23785)scale(0.1 -0.1)">
       <use transform="scale(0.996264)" xlink:href="#CMR17-34"/>
      </g>
     </g>
    </g>
    <g id="text_14">
     <!-- $y$ -->
     <g transform="translate(14.118498 147.16225)rotate(-90)scale(0.1 -0.1)">
      <defs>
       <path d="M 1683 -700 
C 1510 -939 1261 -1152 947 -1152 
C 870 -1152 563 -1152 467 -889 
C 486 -895 518 -895 531 -895 
C 723 -895 851 -729 851 -582 
C 851 -435 730 -384 634 -384 
C 531 -384 307 -458 307 -759 
C 307 -1071 582 -1286 947 -1286 
C 1587 -1286 2234 -700 2413 6 
L 3040 2485 
C 3046 2517 3059 2556 3059 2594 
C 3059 2689 2982 2753 2886 2753 
C 2829 2753 2694 2727 2643 2535 
L 2170 658 
C 2138 543 2138 530 2086 460 
C 1958 281 1747 64 1440 64 
C 1082 64 1050 415 1050 588 
C 1050 952 1222 1443 1395 1903 
C 1466 2088 1504 2178 1504 2305 
C 1504 2574 1312 2816 998 2816 
C 410 2816 173 1890 173 1839 
C 173 1814 198 1782 243 1782 
C 301 1782 307 1807 333 1897 
C 486 2433 730 2689 979 2689 
C 1037 2689 1146 2689 1146 2478 
C 1146 2312 1075 2127 979 1884 
C 666 1047 666 837 666 683 
C 666 77 1101 -64 1421 -64 
C 1606 -64 1837 -6 2061 230 
L 2067 224 
C 1971 -147 1907 -392 1683 -700 
z
" id="CMMI12-79" transform="scale(0.015625)"/>
      </defs>
      <use transform="scale(0.996264)" xlink:href="#CMMI12-79"/>
     </g>
    </g>
   </g>
   <g id="line2d_25">
    <path clip-path="url(#pa02b4488b3)" d="M 46.791022 154.667482 
L 54.357181 141.956977 
L 61.92334 130.035403 
L 69.489499 118.902761 
L 77.055657 108.559052 
L 84.621816 99.004274 
L 92.187975 90.238428 
L 99.754134 82.261514 
L 107.320293 75.073533 
L 114.886452 68.674483 
L 122.452611 63.064365 
L 130.01877 58.243179 
L 137.584929 54.210926 
L 145.151088 50.967604 
L 152.717246 48.513214 
L 160.283405 46.847756 
L 167.849564 45.97123 
L 175.415723 45.883636 
L 182.981882 46.584974 
L 190.548041 48.075245 
L 198.1142 50.354447 
L 205.680359 53.422581 
L 213.246518 57.279647 
L 220.812677 61.925645 
L 228.378836 67.360575 
L 235.944994 73.584437 
L 243.511153 80.597231 
L 251.077312 88.398957 
L 258.643471 96.989615 
L 266.20963 106.369205 
L 273.775789 116.537727 
L 281.341948 127.495181 
L 288.908107 139.241567 
L 296.474266 151.776885 
L 304.040425 165.101134 
L 311.606583 179.214316 
L 319.172742 194.11643 
L 326.738901 209.807476 
L 334.30506 226.287454 
L 341.871219 243.556364 
" style="fill:none;stroke:#1f77b4;stroke-linecap:square;stroke-width:1.5;"/>
   </g>
   <g id="line2d_26">
    <path clip-path="url(#pa02b4488b3)" d="M 258.791004 110.223042 
L 279.235447 110.223042 
" style="fill:none;stroke:#ff7f0e;stroke-linecap:square;stroke-width:1.5;"/>
   </g>
   <g id="patch_3">
    <path d="M 32.037012 253.44 
L 32.037012 36 
" style="fill:none;stroke:#000000;stroke-linecap:square;stroke-linejoin:miter;stroke-width:0.8;"/>
   </g>
   <g id="patch_4">
    <path d="M 356.625229 253.44 
L 356.625229 36 
" style="fill:none;stroke:#000000;stroke-linecap:square;stroke-linejoin:miter;stroke-width:0.8;"/>
   </g>
   <g id="patch_5">
    <path d="M 32.037012 253.44 
L 356.625229 253.44 
" style="fill:none;stroke:#000000;stroke-linecap:square;stroke-linejoin:miter;stroke-width:0.8;"/>
   </g>
   <g id="patch_6">
    <path d="M 32.037012 36 
L 356.625229 36 
" style="fill:none;stroke:#000000;stroke-linecap:square;stroke-linejoin:miter;stroke-width:0.8;"/>
   </g>
   <g id="text_15">
    <!-- Trayectoria -->
    <g transform="translate(165.391335 30)scale(0.12 -0.12)">
     <defs>
      <path d="M 3981 4326 
L 288 4326 
L 179 2918 
L 294 2918 
C 378 3976 467 4160 1453 4160 
C 1568 4160 1754 4160 1805 4154 
C 1926 4135 1926 4058 1926 3912 
L 1926 459 
C 1926 230 1907 160 1376 160 
L 1197 160 
L 1197 0 
C 1504 0 1824 0 2138 0 
C 2451 0 2771 0 3078 0 
L 3078 160 
L 2899 160 
C 2368 160 2349 230 2349 459 
L 2349 3912 
C 2349 4052 2349 4129 2464 4154 
C 2515 4160 2701 4160 2816 4160 
C 3795 4160 3891 3976 3974 2918 
L 4090 2918 
L 3981 4326 
z
" id="CMR17-54" transform="scale(0.015625)"/>
      <path d="M 960 1497 
C 960 2112 1222 2688 1702 2688 
C 1747 2688 1792 2682 1837 2662 
C 1837 2662 1696 2617 1696 2452 
C 1696 2298 1818 2234 1914 2234 
C 1990 2234 2131 2279 2131 2458 
C 2131 2663 1926 2790 1709 2790 
C 1222 2790 1011 2317 947 2093 
L 941 2093 
L 941 2790 
L 198 2720 
L 198 2554 
C 576 2554 634 2515 634 2208 
L 634 428 
C 634 184 608 153 198 153 
L 198 -13 
C 352 0 646 0 813 0 
C 998 0 1325 0 1498 -13 
L 1498 153 
C 1037 153 960 153 960 440 
L 960 1497 
z
" id="CMR17-72" transform="scale(0.015625)"/>
      <path d="M 2304 1653 
C 2304 2072 2304 2294 2035 2543 
C 1798 2752 1523 2816 1306 2816 
C 800 2816 435 2407 435 1971 
C 435 1728 627 1728 666 1728 
C 749 1728 896 1778 896 1954 
C 896 2112 774 2181 666 2181 
C 640 2181 608 2174 589 2168 
C 723 2592 1069 2714 1293 2714 
C 1613 2714 1965 2429 1965 1885 
L 1965 1600 
C 1587 1600 1133 1549 774 1357 
C 371 1133 256 813 256 570 
C 256 77 832 -64 1171 -64 
C 1523 -64 1850 139 1990 511 
C 2003 233 2182 -18 2464 -18 
C 2598 -18 2938 70 2938 567 
L 2938 920 
L 2822 920 
L 2822 562 
C 2822 178 2650 128 2566 128 
C 2304 128 2304 458 2304 738 
L 2304 1653 
z
M 1965 870 
C 1965 317 1568 38 1216 38 
C 896 38 646 275 646 570 
C 646 761 730 1100 1101 1305 
C 1408 1478 1760 1504 1965 1504 
L 1965 870 
z
" id="CMR17-61" transform="scale(0.015625)"/>
      <path d="M 2496 2197 
C 2656 2586 2944 2586 3034 2586 
L 3034 2752 
C 2912 2752 2752 2752 2630 2752 
C 2496 2752 2285 2752 2157 2758 
L 2157 2592 
C 2400 2573 2406 2394 2406 2343 
C 2406 2280 2394 2248 2362 2171 
L 1664 449 
L 902 2306 
C 870 2382 870 2426 870 2433 
C 870 2573 1018 2586 1171 2586 
L 1171 2758 
C 1018 2752 742 2752 582 2752 
C 410 2752 205 2752 64 2758 
L 64 2586 
C 410 2586 448 2554 531 2350 
L 1485 15 
C 1197 -738 1030 -1178 627 -1178 
C 557 -1178 397 -1159 282 -1044 
C 429 -1031 493 -942 493 -833 
C 493 -725 416 -629 288 -629 
C 147 -629 77 -725 77 -840 
C 77 -1095 339 -1280 627 -1280 
C 998 -1280 1229 -922 1357 -604 
L 2496 2197 
z
" id="CMR17-79" transform="scale(0.015625)"/>
      <path d="M 2438 1472 
C 2464 1498 2464 1511 2464 1576 
C 2464 2238 2118 2816 1389 2816 
C 710 2816 173 2169 173 1383 
C 173 551 781 -64 1459 -64 
C 2176 -64 2458 607 2458 740 
C 2458 784 2419 784 2406 784 
C 2362 784 2355 771 2330 696 
C 2189 265 1837 51 1504 51 
C 1229 51 954 203 781 480 
C 582 803 582 1176 582 1472 
L 2438 1472 
z
M 589 1568 
C 634 2505 1126 2714 1382 2714 
C 1818 2714 2112 2297 2118 1568 
L 589 1568 
z
" id="CMR17-65" transform="scale(0.015625)"/>
      <path d="M 2234 2240 
C 2112 2240 1933 2240 1933 2017 
C 1933 1838 2080 1787 2163 1787 
C 2208 1787 2394 1807 2394 2024 
C 2394 2467 1958 2803 1466 2803 
C 787 2803 211 2178 211 1363 
C 211 516 813 -64 1466 -64 
C 2259 -64 2458 677 2458 748 
C 2458 774 2451 793 2406 793 
C 2362 793 2355 787 2330 703 
C 2163 180 1798 51 1523 51 
C 1114 51 621 427 621 1369 
C 621 2338 1094 2688 1472 2688 
C 1722 2688 2093 2573 2234 2240 
z
" id="CMR17-63" transform="scale(0.015625)"/>
      <path d="M 966 2560 
L 1862 2560 
L 1862 2725 
L 966 2725 
L 966 3904 
L 851 3904 
C 838 3245 614 2668 70 2668 
L 70 2560 
L 627 2560 
L 627 771 
C 627 650 627 -64 1370 -64 
C 1747 -64 1965 306 1965 777 
L 1965 1140 
L 1850 1140 
L 1850 783 
C 1850 344 1677 51 1408 51 
C 1222 51 966 178 966 758 
L 966 2560 
z
" id="CMR17-74" transform="scale(0.015625)"/>
      <path d="M 2758 1356 
C 2758 2176 2163 2816 1466 2816 
C 768 2816 173 2176 173 1356 
C 173 551 768 -64 1466 -64 
C 2163 -64 2758 551 2758 1356 
z
M 1466 51 
C 1165 51 909 230 762 480 
C 602 767 582 1126 582 1408 
C 582 1677 595 2010 762 2298 
C 890 2509 1139 2714 1466 2714 
C 1754 2714 1997 2554 2150 2330 
C 2349 2029 2349 1607 2349 1408 
C 2349 1158 2336 775 2163 467 
C 1984 173 1709 51 1466 51 
z
" id="CMR17-6f" transform="scale(0.015625)"/>
      <path d="M 992 3909 
C 992 4049 877 4170 730 4170 
C 589 4170 467 4056 467 3909 
C 467 3769 582 3648 730 3648 
C 870 3648 992 3763 992 3909 
z
M 243 2706 
L 243 2541 
C 602 2541 653 2502 653 2197 
L 653 427 
C 653 184 627 153 218 153 
L 218 -13 
C 371 0 646 0 806 0 
C 960 0 1222 0 1370 -13 
L 1370 153 
C 992 153 979 191 979 420 
L 979 2776 
L 243 2706 
z
" id="CMR17-69" transform="scale(0.015625)"/>
     </defs>
     <use transform="scale(0.996264)" xlink:href="#CMR17-54"/>
     <use transform="translate(58.702625 0)scale(0.996264)" xlink:href="#CMR17-72"/>
     <use transform="translate(93.983393 0)scale(0.996264)" xlink:href="#CMR17-61"/>
     <use transform="translate(137.071416 0)scale(0.996264)" xlink:href="#CMR17-79"/>
     <use transform="translate(182.761878 0)scale(0.996264)" xlink:href="#CMR17-65"/>
     <use transform="translate(223.247539 0)scale(0.996264)" xlink:href="#CMR17-63"/>
     <use transform="translate(263.733199 0)scale(0.996264)" xlink:href="#CMR17-74"/>
     <use transform="translate(299.013967 0)scale(0.996264)" xlink:href="#CMR17-6f"/>
     <use transform="translate(344.704444 0)scale(0.996264)" xlink:href="#CMR17-72"/>
     <use transform="translate(379.985212 0)scale(0.996264)" xlink:href="#CMR17-69"/>
     <use transform="translate(404.85627 0)scale(0.996264)" xlink:href="#CMR17-61"/>
    </g>
   </g>
  </g>
  <g id="text_16">
   <!-- ¡Es una cesta! -->
   <g transform="translate(153.342722 15.50218)scale(0.12 -0.12)">
    <defs>
     <path d="M 1062 2949 
C 1062 3089 947 3210 800 3210 
C 659 3210 538 3096 538 2949 
C 538 2809 653 2688 800 2688 
C 941 2688 1062 2803 1062 2949 
z
M 864 2021 
C 858 2103 858 2135 800 2135 
C 742 2135 742 2103 736 2020 
L 538 -1057 
C 538 -1242 691 -1312 800 -1312 
C 909 -1312 1062 -1242 1062 -1058 
L 1056 -1000 
L 864 2021 
z
" id="CMR17-3c" transform="scale(0.015625)"/>
     <path d="M 3885 1615 
L 3770 1615 
C 3629 676 3546 166 2419 166 
L 1530 166 
C 1274 166 1261 197 1261 414 
L 1261 2176 
L 1862 2176 
C 2464 2176 2522 1960 2522 1430 
L 2637 1430 
L 2637 3081 
L 2522 3081 
C 2522 2557 2464 2342 1862 2342 
L 1261 2342 
L 1261 3913 
C 1261 4128 1274 4160 1530 4160 
L 2406 4160 
C 3398 4160 3514 3769 3603 2929 
L 3718 2929 
L 3565 4325 
L 326 4325 
L 326 4160 
C 768 4160 838 4160 838 3874 
L 838 451 
C 838 166 768 166 326 166 
L 326 0 
L 3654 0 
L 3885 1615 
z
" id="CMR17-45" transform="scale(0.015625)"/>
     <path d="M 1978 2697 
C 1978 2813 1971 2819 1933 2819 
C 1907 2819 1901 2813 1824 2717 
C 1805 2691 1747 2626 1728 2601 
C 1523 2819 1235 2819 1126 2819 
C 416 2819 160 2447 160 2076 
C 160 1498 813 1365 998 1325 
C 1402 1243 1542 1217 1677 1101 
C 1760 1025 1901 884 1901 654 
C 1901 384 1747 38 1158 38 
C 602 38 403 460 288 1021 
C 269 1110 269 1117 218 1117 
C 166 1117 160 1110 160 983 
L 160 63 
C 160 -51 166 -58 205 -58 
C 237 -58 243 -51 275 0 
C 314 57 410 211 448 276 
C 576 103 800 -64 1158 -64 
C 1792 -64 2131 283 2131 784 
C 2131 1112 1958 1285 1875 1362 
C 1683 1561 1459 1606 1190 1657 
C 838 1735 390 1825 390 2217 
C 390 2383 480 2737 1126 2737 
C 1811 2737 1850 2094 1862 1888 
C 1869 1856 1901 1849 1920 1849 
C 1978 1849 1978 1869 1978 1978 
L 1978 2697 
z
" id="CMR17-73" transform="scale(0.015625)"/>
     <path d="M 1882 2693 
L 1882 2528 
C 2259 2528 2317 2489 2317 2186 
L 2317 1032 
C 2317 500 2029 38 1555 38 
C 1030 38 986 348 986 678 
L 986 2763 
L 211 2693 
L 211 2528 
C 467 2528 640 2528 646 2274 
L 646 1058 
C 646 633 646 361 813 183 
C 896 101 1056 -64 1517 -64 
C 2061 -64 2272 377 2323 506 
L 2330 506 
L 2330 -63 
L 3091 -63 
L 3091 128 
C 2714 128 2656 166 2656 473 
L 2656 2763 
L 1882 2693 
z
" id="CMR17-75" transform="scale(0.015625)"/>
     <path d="M 2656 1933 
C 2656 2259 2592 2790 1837 2790 
C 1331 2790 1069 2400 973 2144 
L 966 2144 
L 966 2790 
L 211 2720 
L 211 2554 
C 589 2554 646 2515 646 2208 
L 646 428 
C 646 184 621 153 211 153 
L 211 -13 
C 365 0 646 0 813 0 
C 979 0 1267 0 1421 -13 
L 1421 153 
C 1011 153 986 178 986 428 
L 986 1658 
C 986 2247 1344 2688 1792 2688 
C 2266 2688 2317 2266 2317 1958 
L 2317 428 
C 2317 184 2291 153 1882 153 
L 1882 -13 
C 2035 0 2317 0 2483 0 
C 2650 0 2938 0 3091 -13 
L 3091 153 
C 2682 153 2656 178 2656 428 
L 2656 1933 
z
" id="CMR17-6e" transform="scale(0.015625)"/>
     <path d="M 1062 4259 
C 1062 4442 909 4512 800 4512 
C 691 4512 538 4442 538 4259 
L 736 1202 
C 742 1119 742 1088 800 1088 
C 858 1088 858 1119 864 1201 
L 1062 4259 
z
M 1062 261 
C 1062 401 947 522 800 522 
C 659 522 538 408 538 261 
C 538 121 653 0 800 0 
C 941 0 1062 115 1062 261 
z
" id="CMR17-21" transform="scale(0.015625)"/>
    </defs>
    <use transform="scale(0.996264)" xlink:href="#CMR17-3c"/>
    <use transform="translate(24.871058 0)scale(0.996264)" xlink:href="#CMR17-45"/>
    <use transform="translate(87.457359 0)scale(0.996264)" xlink:href="#CMR17-73"/>
    <use transform="translate(153.334663 0)scale(0.996264)" xlink:href="#CMR17-75"/>
    <use transform="translate(204.230033 0)scale(0.996264)" xlink:href="#CMR17-6e"/>
    <use transform="translate(255.125403 0)scale(0.996264)" xlink:href="#CMR17-61"/>
    <use transform="translate(330.891846 0)scale(0.996264)" xlink:href="#CMR17-63"/>
    <use transform="translate(371.377506 0)scale(0.996264)" xlink:href="#CMR17-65"/>
    <use transform="translate(411.863167 0)scale(0.996264)" xlink:href="#CMR17-73"/>
    <use transform="translate(447.664505 0)scale(0.996264)" xlink:href="#CMR17-74"/>
    <use transform="translate(482.945272 0)scale(0.996264)" xlink:href="#CMR17-61"/>
    <use transform="translate(528.635749 0)scale(0.996264)" xlink:href="#CMR17-21"/>
   </g>
  </g>
 </g>
 <defs>
  <clipPath id="pa02b4488b3">
   <rect height="217.44" width="324.588217" x="32.037012" y="36"/>
  </clipPath>
 </defs>
</svg>
