<?xml version="1.0" encoding="utf-8" standalone="no"?>
<!DOCTYPE svg PUBLIC "-//W3C//DTD SVG 1.1//EN"
  "http://www.w3.org/Graphics/SVG/1.1/DTD/svg11.dtd">
<!-- Created with matplotlib (https://matplotlib.org/) -->
<svg height="360.92711pt" version="1.1" viewBox="0 0 892.994985 360.92711" width="892.994985pt" xmlns="http://www.w3.org/2000/svg" xmlns:xlink="http://www.w3.org/1999/xlink">
 <metadata>
  <rdf:RDF xmlns:cc="http://creativecommons.org/ns#" xmlns:dc="http://purl.org/dc/elements/1.1/" xmlns:rdf="http://www.w3.org/1999/02/22-rdf-syntax-ns#">
   <cc:Work>
    <dc:type rdf:resource="http://purl.org/dc/dcmitype/StillImage"/>
    <dc:date>2021-04-19T18:50:48.395337</dc:date>
    <dc:format>image/svg+xml</dc:format>
    <dc:creator>
     <cc:Agent>
      <dc:title>Matplotlib v3.3.4, https://matplotlib.org/</dc:title>
     </cc:Agent>
    </dc:creator>
   </cc:Work>
  </rdf:RDF>
 </metadata>
 <defs>
  <style type="text/css">*{stroke-linecap:butt;stroke-linejoin:round;}</style>
 </defs>
 <g id="figure_1">
  <g id="patch_1">
   <path d="M 0 360.92711 
L 892.994985 360.92711 
L 892.994985 0 
L 0 0 
z
" style="fill:none;"/>
  </g>
  <g id="axes_1">
   <g id="patch_2">
    <path d="M 48.794985 333.36 
L 885.794985 333.36 
L 885.794985 7.2 
L 48.794985 7.2 
z
" style="fill:#ffffff;"/>
   </g>
   <g id="matplotlib.axis_1">
    <g id="xtick_1">
     <g id="line2d_1">
      <path clip-path="url(#p4e417ce774)" d="M 86.84044 333.36 
L 86.84044 7.2 
" style="fill:none;stroke:#666666;stroke-linecap:square;stroke-opacity:0.3;stroke-width:0.8;"/>
     </g>
     <g id="line2d_2">
      <defs>
       <path d="M 0 0 
L 0 3.5 
" id="m211e18552d" style="stroke:#000000;stroke-width:0.8;"/>
      </defs>
      <g>
       <use style="stroke:#000000;stroke-width:0.8;" x="86.84044" xlink:href="#m211e18552d" y="333.36"/>
      </g>
     </g>
     <g id="text_1">
      <!-- $\mathdefault{10^{0}}$ -->
      <g transform="translate(76.60381 350.491866)scale(0.15 -0.15)">
       <defs>
        <path d="M 29.09375 68 
L 11.09375 59 
L 11.09375 57.59375 
C 12.296875 58.09375 13.40625 58.484375 13.796875 58.6875 
C 15.59375 59.390625 17.296875 59.78125 18.296875 59.78125 
C 20.40625 59.78125 21.296875 58.296875 21.296875 55.078125 
L 21.296875 9.359375 
C 21.296875 6.03125 20.5 3.71875 18.90625 2.796875 
C 17.40625 1.890625 16 1.59375 11.796875 1.5 
L 11.796875 0 
L 39.40625 0 
L 39.40625 1.5 
C 31.5 1.59375 29.90625 2.609375 29.90625 7.453125 
L 29.90625 67.796875 
z
" id="Nimbus_Roman_No9_L_Regular-49"/>
        <path d="M 25.40625 68 
C 19.90625 68 15.703125 66.296875 12 62.796875 
C 6.203125 57.203125 2.40625 45.6875 2.40625 34 
C 2.40625 23.09375 5.703125 11.390625 10.40625 5.796875 
C 14.09375 1.390625 19.203125 -1 25 -1 
C 30.09375 -1 34.40625 0.6875 38 4.1875 
C 43.796875 9.6875 47.59375 21.296875 47.59375 33.390625 
C 47.59375 53.890625 38.5 68 25.40625 68 
z
M 25.09375 65.390625 
C 33.5 65.390625 38 54.09375 38 33.1875 
C 38 12.296875 33.59375 1.59375 25 1.59375 
C 16.40625 1.59375 12 12.296875 12 33.09375 
C 12 54.296875 16.5 65.390625 25.09375 65.390625 
z
" id="Nimbus_Roman_No9_L_Regular-48"/>
       </defs>
       <use transform="scale(0.996264)" xlink:href="#Nimbus_Roman_No9_L_Regular-49"/>
       <use transform="translate(49.8132 0)scale(0.996264)" xlink:href="#Nimbus_Roman_No9_L_Regular-48"/>
       <use transform="translate(99.626401 36.163231)scale(0.737241)" xlink:href="#Nimbus_Roman_No9_L_Regular-48"/>
      </g>
     </g>
    </g>
    <g id="xtick_2">
     <g id="line2d_3">
      <path clip-path="url(#p4e417ce774)" d="M 324.68351 333.36 
L 324.68351 7.2 
" style="fill:none;stroke:#666666;stroke-linecap:square;stroke-opacity:0.3;stroke-width:0.8;"/>
     </g>
     <g id="line2d_4">
      <g>
       <use style="stroke:#000000;stroke-width:0.8;" x="324.68351" xlink:href="#m211e18552d" y="333.36"/>
      </g>
     </g>
     <g id="text_2">
      <!-- $\mathdefault{10^{1}}$ -->
      <g transform="translate(314.44688 350.491866)scale(0.15 -0.15)">
       <use transform="scale(0.996264)" xlink:href="#Nimbus_Roman_No9_L_Regular-49"/>
       <use transform="translate(49.8132 0)scale(0.996264)" xlink:href="#Nimbus_Roman_No9_L_Regular-48"/>
       <use transform="translate(99.626401 36.163231)scale(0.737241)" xlink:href="#Nimbus_Roman_No9_L_Regular-49"/>
      </g>
     </g>
    </g>
    <g id="xtick_3">
     <g id="line2d_5">
      <path clip-path="url(#p4e417ce774)" d="M 562.52658 333.36 
L 562.52658 7.2 
" style="fill:none;stroke:#666666;stroke-linecap:square;stroke-opacity:0.3;stroke-width:0.8;"/>
     </g>
     <g id="line2d_6">
      <g>
       <use style="stroke:#000000;stroke-width:0.8;" x="562.52658" xlink:href="#m211e18552d" y="333.36"/>
      </g>
     </g>
     <g id="text_3">
      <!-- $\mathdefault{10^{2}}$ -->
      <g transform="translate(552.28995 350.491866)scale(0.15 -0.15)">
       <defs>
        <path d="M 47.5 13.734375 
L 46.203125 14.25 
C 42.5 8.5 41.203125 7.59375 36.703125 7.59375 
L 12.796875 7.59375 
L 29.59375 25.328125 
C 38.5 34.703125 42.40625 42.359375 42.40625 50.21875 
C 42.40625 60.28125 34.296875 68 23.90625 68 
C 18.40625 68 13.203125 65.796875 9.5 61.796875 
C 6.296875 58.375 4.796875 55.15625 3.09375 48 
L 5.203125 47.484375 
C 9.203125 57.359375 12.796875 60.59375 19.703125 60.59375 
C 28.09375 60.59375 33.796875 54.84375 33.796875 46.390625 
C 33.796875 38.53125 29.203125 29.15625 20.796875 20.1875 
L 3 1.1875 
L 3 0 
L 42 0 
z
" id="Nimbus_Roman_No9_L_Regular-50"/>
       </defs>
       <use transform="scale(0.996264)" xlink:href="#Nimbus_Roman_No9_L_Regular-49"/>
       <use transform="translate(49.8132 0)scale(0.996264)" xlink:href="#Nimbus_Roman_No9_L_Regular-48"/>
       <use transform="translate(99.626401 36.163231)scale(0.737241)" xlink:href="#Nimbus_Roman_No9_L_Regular-50"/>
      </g>
     </g>
    </g>
    <g id="xtick_4">
     <g id="line2d_7">
      <path clip-path="url(#p4e417ce774)" d="M 800.36965 333.36 
L 800.36965 7.2 
" style="fill:none;stroke:#666666;stroke-linecap:square;stroke-opacity:0.3;stroke-width:0.8;"/>
     </g>
     <g id="line2d_8">
      <g>
       <use style="stroke:#000000;stroke-width:0.8;" x="800.36965" xlink:href="#m211e18552d" y="333.36"/>
      </g>
     </g>
     <g id="text_4">
      <!-- $\mathdefault{10^{3}}$ -->
      <g transform="translate(790.13302 350.491866)scale(0.15 -0.15)">
       <defs>
        <path d="M 15.296875 33.390625 
C 21.203125 33.390625 23.5 33.1875 25.90625 32.296875 
C 32.09375 30.09375 36 24.390625 36 17.5 
C 36 9.09375 30.296875 2.59375 22.90625 2.59375 
C 20.203125 2.59375 18.203125 3.296875 14.5 5.6875 
C 11.5 7.5 9.796875 8.1875 8.09375 8.1875 
C 5.796875 8.1875 4.296875 6.796875 4.296875 4.6875 
C 4.296875 1.1875 8.59375 -1 15.59375 -1 
C 23.296875 -1 31.203125 1.59375 35.90625 5.6875 
C 40.59375 9.796875 43.203125 15.59375 43.203125 22.296875 
C 43.203125 27.390625 41.59375 32.09375 38.703125 35.1875 
C 36.703125 37.390625 34.796875 38.59375 30.40625 40.5 
C 37.296875 45.1875 39.796875 48.890625 39.796875 54.296875 
C 39.796875 62.390625 33.40625 68 24.203125 68 
C 19.203125 68 14.796875 66.296875 11.203125 63.09375 
C 8.203125 60.390625 6.703125 57.796875 4.5 51.796875 
L 6 51.390625 
C 10.09375 58.703125 14.59375 61.984375 20.90625 61.984375 
C 27.40625 61.984375 31.90625 57.59375 31.90625 51.296875 
C 31.90625 47.6875 30.40625 44.09375 27.90625 41.59375 
C 24.90625 38.59375 22.09375 37.09375 15.296875 34.6875 
z
" id="Nimbus_Roman_No9_L_Regular-51"/>
       </defs>
       <use transform="scale(0.996264)" xlink:href="#Nimbus_Roman_No9_L_Regular-49"/>
       <use transform="translate(49.8132 0)scale(0.996264)" xlink:href="#Nimbus_Roman_No9_L_Regular-48"/>
       <use transform="translate(99.626401 36.163231)scale(0.737241)" xlink:href="#Nimbus_Roman_No9_L_Regular-51"/>
      </g>
     </g>
    </g>
    <g id="xtick_5">
     <g id="line2d_9">
      <defs>
       <path d="M 0 0 
L 0 2 
" id="m07247d4ce0" style="stroke:#000000;stroke-width:0.6;"/>
      </defs>
      <g>
       <use style="stroke:#000000;stroke-width:0.6;" x="49.998082" xlink:href="#m07247d4ce0" y="333.36"/>
      </g>
     </g>
    </g>
    <g id="xtick_6">
     <g id="line2d_10">
      <g>
       <use style="stroke:#000000;stroke-width:0.6;" x="63.791065" xlink:href="#m07247d4ce0" y="333.36"/>
      </g>
     </g>
    </g>
    <g id="xtick_7">
     <g id="line2d_11">
      <g>
       <use style="stroke:#000000;stroke-width:0.6;" x="75.957338" xlink:href="#m07247d4ce0" y="333.36"/>
      </g>
     </g>
    </g>
    <g id="xtick_8">
     <g id="line2d_12">
      <g>
       <use style="stroke:#000000;stroke-width:0.6;" x="158.438338" xlink:href="#m07247d4ce0" y="333.36"/>
      </g>
     </g>
    </g>
    <g id="xtick_9">
     <g id="line2d_13">
      <g>
       <use style="stroke:#000000;stroke-width:0.6;" x="200.320424" xlink:href="#m07247d4ce0" y="333.36"/>
      </g>
     </g>
    </g>
    <g id="xtick_10">
     <g id="line2d_14">
      <g>
       <use style="stroke:#000000;stroke-width:0.6;" x="230.036236" xlink:href="#m07247d4ce0" y="333.36"/>
      </g>
     </g>
    </g>
    <g id="xtick_11">
     <g id="line2d_15">
      <g>
       <use style="stroke:#000000;stroke-width:0.6;" x="253.085611" xlink:href="#m07247d4ce0" y="333.36"/>
      </g>
     </g>
    </g>
    <g id="xtick_12">
     <g id="line2d_16">
      <g>
       <use style="stroke:#000000;stroke-width:0.6;" x="271.918322" xlink:href="#m07247d4ce0" y="333.36"/>
      </g>
     </g>
    </g>
    <g id="xtick_13">
     <g id="line2d_17">
      <g>
       <use style="stroke:#000000;stroke-width:0.6;" x="287.841152" xlink:href="#m07247d4ce0" y="333.36"/>
      </g>
     </g>
    </g>
    <g id="xtick_14">
     <g id="line2d_18">
      <g>
       <use style="stroke:#000000;stroke-width:0.6;" x="301.634135" xlink:href="#m07247d4ce0" y="333.36"/>
      </g>
     </g>
    </g>
    <g id="xtick_15">
     <g id="line2d_19">
      <g>
       <use style="stroke:#000000;stroke-width:0.6;" x="313.800408" xlink:href="#m07247d4ce0" y="333.36"/>
      </g>
     </g>
    </g>
    <g id="xtick_16">
     <g id="line2d_20">
      <g>
       <use style="stroke:#000000;stroke-width:0.6;" x="396.281408" xlink:href="#m07247d4ce0" y="333.36"/>
      </g>
     </g>
    </g>
    <g id="xtick_17">
     <g id="line2d_21">
      <g>
       <use style="stroke:#000000;stroke-width:0.6;" x="438.163494" xlink:href="#m07247d4ce0" y="333.36"/>
      </g>
     </g>
    </g>
    <g id="xtick_18">
     <g id="line2d_22">
      <g>
       <use style="stroke:#000000;stroke-width:0.6;" x="467.879306" xlink:href="#m07247d4ce0" y="333.36"/>
      </g>
     </g>
    </g>
    <g id="xtick_19">
     <g id="line2d_23">
      <g>
       <use style="stroke:#000000;stroke-width:0.6;" x="490.928681" xlink:href="#m07247d4ce0" y="333.36"/>
      </g>
     </g>
    </g>
    <g id="xtick_20">
     <g id="line2d_24">
      <g>
       <use style="stroke:#000000;stroke-width:0.6;" x="509.761392" xlink:href="#m07247d4ce0" y="333.36"/>
      </g>
     </g>
    </g>
    <g id="xtick_21">
     <g id="line2d_25">
      <g>
       <use style="stroke:#000000;stroke-width:0.6;" x="525.684222" xlink:href="#m07247d4ce0" y="333.36"/>
      </g>
     </g>
    </g>
    <g id="xtick_22">
     <g id="line2d_26">
      <g>
       <use style="stroke:#000000;stroke-width:0.6;" x="539.477205" xlink:href="#m07247d4ce0" y="333.36"/>
      </g>
     </g>
    </g>
    <g id="xtick_23">
     <g id="line2d_27">
      <g>
       <use style="stroke:#000000;stroke-width:0.6;" x="551.643478" xlink:href="#m07247d4ce0" y="333.36"/>
      </g>
     </g>
    </g>
    <g id="xtick_24">
     <g id="line2d_28">
      <g>
       <use style="stroke:#000000;stroke-width:0.6;" x="634.124478" xlink:href="#m07247d4ce0" y="333.36"/>
      </g>
     </g>
    </g>
    <g id="xtick_25">
     <g id="line2d_29">
      <g>
       <use style="stroke:#000000;stroke-width:0.6;" x="676.006564" xlink:href="#m07247d4ce0" y="333.36"/>
      </g>
     </g>
    </g>
    <g id="xtick_26">
     <g id="line2d_30">
      <g>
       <use style="stroke:#000000;stroke-width:0.6;" x="705.722376" xlink:href="#m07247d4ce0" y="333.36"/>
      </g>
     </g>
    </g>
    <g id="xtick_27">
     <g id="line2d_31">
      <g>
       <use style="stroke:#000000;stroke-width:0.6;" x="728.771751" xlink:href="#m07247d4ce0" y="333.36"/>
      </g>
     </g>
    </g>
    <g id="xtick_28">
     <g id="line2d_32">
      <g>
       <use style="stroke:#000000;stroke-width:0.6;" x="747.604462" xlink:href="#m07247d4ce0" y="333.36"/>
      </g>
     </g>
    </g>
    <g id="xtick_29">
     <g id="line2d_33">
      <g>
       <use style="stroke:#000000;stroke-width:0.6;" x="763.527292" xlink:href="#m07247d4ce0" y="333.36"/>
      </g>
     </g>
    </g>
    <g id="xtick_30">
     <g id="line2d_34">
      <g>
       <use style="stroke:#000000;stroke-width:0.6;" x="777.320275" xlink:href="#m07247d4ce0" y="333.36"/>
      </g>
     </g>
    </g>
    <g id="xtick_31">
     <g id="line2d_35">
      <g>
       <use style="stroke:#000000;stroke-width:0.6;" x="789.486548" xlink:href="#m07247d4ce0" y="333.36"/>
      </g>
     </g>
    </g>
    <g id="xtick_32">
     <g id="line2d_36">
      <g>
       <use style="stroke:#000000;stroke-width:0.6;" x="871.967548" xlink:href="#m07247d4ce0" y="333.36"/>
      </g>
     </g>
    </g>
   </g>
   <g id="matplotlib.axis_2">
    <g id="ytick_1">
     <g id="line2d_37">
      <path clip-path="url(#p4e417ce774)" d="M 48.794985 277.46799 
L 885.794985 277.46799 
" style="fill:none;stroke:#666666;stroke-linecap:square;stroke-opacity:0.3;stroke-width:0.8;"/>
     </g>
     <g id="line2d_38">
      <defs>
       <path d="M 0 0 
L -3.5 0 
" id="m013137cdfd" style="stroke:#000000;stroke-width:0.8;"/>
      </defs>
      <g>
       <use style="stroke:#000000;stroke-width:0.8;" x="48.794985" xlink:href="#m013137cdfd" y="277.46799"/>
      </g>
     </g>
     <g id="text_5">
      <!-- $\mathdefault{10^{-15}}$ -->
      <g transform="translate(7.2 282.533924)scale(0.15 -0.15)">
       <defs>
        <path d="M 65.90625 23 
C 67.59375 23 69.40625 23 69.40625 25 
C 69.40625 27 67.59375 27 65.90625 27 
L 11.796875 27 
C 10.09375 27 8.296875 27 8.296875 25 
C 8.296875 23 10.09375 23 11.796875 23 
z
" id="CMSY10-0"/>
        <path d="M 18.09375 58.09375 
L 37.703125 58.09375 
C 39.296875 58.09375 39.703125 58.296875 40 58.984375 
L 43.796875 67.890625 
L 42.90625 68.59375 
C 41.40625 66.5 40.40625 66 38.296875 66 
L 17.40625 66 
L 6.5 42.453125 
C 6.40625 42.265625 6.40625 42.15625 6.40625 41.96875 
C 6.40625 41.46875 6.796875 41.171875 7.59375 41.171875 
C 10.796875 41.171875 14.796875 40.484375 18.90625 39.1875 
C 30.40625 35.53125 35.703125 29.40625 35.703125 19.609375 
C 35.703125 10.109375 29.59375 2.6875 21.796875 2.6875 
C 19.796875 2.6875 18.09375 3.390625 15.09375 5.5625 
C 11.90625 7.84375 9.59375 8.828125 7.5 8.828125 
C 4.59375 8.828125 3.203125 7.640625 3.203125 5.171875 
C 3.203125 1.390625 7.90625 -1 15.40625 -1 
C 23.796875 -1 31 1.6875 36 6.75 
C 40.59375 11.203125 42.703125 16.84375 42.703125 24.359375 
C 42.703125 31.484375 40.796875 36.03125 35.796875 40.96875 
C 31.40625 45.328125 25.703125 47.609375 13.90625 49.6875 
z
" id="Nimbus_Roman_No9_L_Regular-53"/>
       </defs>
       <use transform="scale(0.996264)" xlink:href="#Nimbus_Roman_No9_L_Regular-49"/>
       <use transform="translate(49.8132 0)scale(0.996264)" xlink:href="#Nimbus_Roman_No9_L_Regular-48"/>
       <use transform="translate(99.626401 36.163231)scale(0.737241)" xlink:href="#CMSY10-0"/>
       <use transform="translate(156.909271 36.163231)scale(0.737241)" xlink:href="#Nimbus_Roman_No9_L_Regular-49"/>
       <use transform="translate(193.771313 36.163231)scale(0.737241)" xlink:href="#Nimbus_Roman_No9_L_Regular-53"/>
      </g>
     </g>
    </g>
    <g id="ytick_2">
     <g id="line2d_39">
      <path clip-path="url(#p4e417ce774)" d="M 48.794985 214.632797 
L 885.794985 214.632797 
" style="fill:none;stroke:#666666;stroke-linecap:square;stroke-opacity:0.3;stroke-width:0.8;"/>
     </g>
     <g id="line2d_40">
      <g>
       <use style="stroke:#000000;stroke-width:0.8;" x="48.794985" xlink:href="#m013137cdfd" y="214.632797"/>
      </g>
     </g>
     <g id="text_6">
      <!-- $\mathdefault{10^{-14}}$ -->
      <g transform="translate(7.2 219.69873)scale(0.15 -0.15)">
       <defs>
        <path d="M 47.203125 23.390625 
L 37 23.390625 
L 37 68 
L 32.59375 68 
L 1.203125 23.390625 
L 1.203125 17 
L 29.296875 17 
L 29.296875 0 
L 37 0 
L 37 17 
L 47.203125 17 
z
M 29.203125 23.390625 
L 5.203125 23.390625 
L 29.203125 57.765625 
z
" id="Nimbus_Roman_No9_L_Regular-52"/>
       </defs>
       <use transform="scale(0.996264)" xlink:href="#Nimbus_Roman_No9_L_Regular-49"/>
       <use transform="translate(49.8132 0)scale(0.996264)" xlink:href="#Nimbus_Roman_No9_L_Regular-48"/>
       <use transform="translate(99.626401 36.163231)scale(0.737241)" xlink:href="#CMSY10-0"/>
       <use transform="translate(156.909271 36.163231)scale(0.737241)" xlink:href="#Nimbus_Roman_No9_L_Regular-49"/>
       <use transform="translate(193.771313 36.163231)scale(0.737241)" xlink:href="#Nimbus_Roman_No9_L_Regular-52"/>
      </g>
     </g>
    </g>
    <g id="ytick_3">
     <g id="line2d_41">
      <path clip-path="url(#p4e417ce774)" d="M 48.794985 151.797603 
L 885.794985 151.797603 
" style="fill:none;stroke:#666666;stroke-linecap:square;stroke-opacity:0.3;stroke-width:0.8;"/>
     </g>
     <g id="line2d_42">
      <g>
       <use style="stroke:#000000;stroke-width:0.8;" x="48.794985" xlink:href="#m013137cdfd" y="151.797603"/>
      </g>
     </g>
     <g id="text_7">
      <!-- $\mathdefault{10^{-13}}$ -->
      <g transform="translate(7.2 156.863536)scale(0.15 -0.15)">
       <use transform="scale(0.996264)" xlink:href="#Nimbus_Roman_No9_L_Regular-49"/>
       <use transform="translate(49.8132 0)scale(0.996264)" xlink:href="#Nimbus_Roman_No9_L_Regular-48"/>
       <use transform="translate(99.626401 36.163231)scale(0.737241)" xlink:href="#CMSY10-0"/>
       <use transform="translate(156.909271 36.163231)scale(0.737241)" xlink:href="#Nimbus_Roman_No9_L_Regular-49"/>
       <use transform="translate(193.771313 36.163231)scale(0.737241)" xlink:href="#Nimbus_Roman_No9_L_Regular-51"/>
      </g>
     </g>
    </g>
    <g id="ytick_4">
     <g id="line2d_43">
      <path clip-path="url(#p4e417ce774)" d="M 48.794985 88.96241 
L 885.794985 88.96241 
" style="fill:none;stroke:#666666;stroke-linecap:square;stroke-opacity:0.3;stroke-width:0.8;"/>
     </g>
     <g id="line2d_44">
      <g>
       <use style="stroke:#000000;stroke-width:0.8;" x="48.794985" xlink:href="#m013137cdfd" y="88.96241"/>
      </g>
     </g>
     <g id="text_8">
      <!-- $\mathdefault{10^{-12}}$ -->
      <g transform="translate(7.2 94.028343)scale(0.15 -0.15)">
       <use transform="scale(0.996264)" xlink:href="#Nimbus_Roman_No9_L_Regular-49"/>
       <use transform="translate(49.8132 0)scale(0.996264)" xlink:href="#Nimbus_Roman_No9_L_Regular-48"/>
       <use transform="translate(99.626401 36.163231)scale(0.737241)" xlink:href="#CMSY10-0"/>
       <use transform="translate(156.909271 36.163231)scale(0.737241)" xlink:href="#Nimbus_Roman_No9_L_Regular-49"/>
       <use transform="translate(193.771313 36.163231)scale(0.737241)" xlink:href="#Nimbus_Roman_No9_L_Regular-50"/>
      </g>
     </g>
    </g>
    <g id="ytick_5">
     <g id="line2d_45">
      <path clip-path="url(#p4e417ce774)" d="M 48.794985 26.127216 
L 885.794985 26.127216 
" style="fill:none;stroke:#666666;stroke-linecap:square;stroke-opacity:0.3;stroke-width:0.8;"/>
     </g>
     <g id="line2d_46">
      <g>
       <use style="stroke:#000000;stroke-width:0.8;" x="48.794985" xlink:href="#m013137cdfd" y="26.127216"/>
      </g>
     </g>
     <g id="text_9">
      <!-- $\mathdefault{10^{-11}}$ -->
      <g transform="translate(7.2 31.193149)scale(0.15 -0.15)">
       <use transform="scale(0.996264)" xlink:href="#Nimbus_Roman_No9_L_Regular-49"/>
       <use transform="translate(49.8132 0)scale(0.996264)" xlink:href="#Nimbus_Roman_No9_L_Regular-48"/>
       <use transform="translate(99.626401 36.163231)scale(0.737241)" xlink:href="#CMSY10-0"/>
       <use transform="translate(156.909271 36.163231)scale(0.737241)" xlink:href="#Nimbus_Roman_No9_L_Regular-49"/>
       <use transform="translate(193.771313 36.163231)scale(0.737241)" xlink:href="#Nimbus_Roman_No9_L_Regular-49"/>
      </g>
     </g>
    </g>
    <g id="ytick_6">
     <g id="line2d_47">
      <defs>
       <path d="M 0 0 
L -2 0 
" id="m0c8d888aee" style="stroke:#000000;stroke-width:0.6;"/>
      </defs>
      <g>
       <use style="stroke:#000000;stroke-width:0.6;" x="48.794985" xlink:href="#m0c8d888aee" y="321.387906"/>
      </g>
     </g>
    </g>
    <g id="ytick_7">
     <g id="line2d_48">
      <g>
       <use style="stroke:#000000;stroke-width:0.6;" x="48.794985" xlink:href="#m0c8d888aee" y="310.323178"/>
      </g>
     </g>
    </g>
    <g id="ytick_8">
     <g id="line2d_49">
      <g>
       <use style="stroke:#000000;stroke-width:0.6;" x="48.794985" xlink:href="#m0c8d888aee" y="302.472628"/>
      </g>
     </g>
    </g>
    <g id="ytick_9">
     <g id="line2d_50">
      <g>
       <use style="stroke:#000000;stroke-width:0.6;" x="48.794985" xlink:href="#m0c8d888aee" y="296.383269"/>
      </g>
     </g>
    </g>
    <g id="ytick_10">
     <g id="line2d_51">
      <g>
       <use style="stroke:#000000;stroke-width:0.6;" x="48.794985" xlink:href="#m0c8d888aee" y="291.4079"/>
      </g>
     </g>
    </g>
    <g id="ytick_11">
     <g id="line2d_52">
      <g>
       <use style="stroke:#000000;stroke-width:0.6;" x="48.794985" xlink:href="#m0c8d888aee" y="287.201285"/>
      </g>
     </g>
    </g>
    <g id="ytick_12">
     <g id="line2d_53">
      <g>
       <use style="stroke:#000000;stroke-width:0.6;" x="48.794985" xlink:href="#m0c8d888aee" y="283.55735"/>
      </g>
     </g>
    </g>
    <g id="ytick_13">
     <g id="line2d_54">
      <g>
       <use style="stroke:#000000;stroke-width:0.6;" x="48.794985" xlink:href="#m0c8d888aee" y="280.343171"/>
      </g>
     </g>
    </g>
    <g id="ytick_14">
     <g id="line2d_55">
      <g>
       <use style="stroke:#000000;stroke-width:0.6;" x="48.794985" xlink:href="#m0c8d888aee" y="258.552712"/>
      </g>
     </g>
    </g>
    <g id="ytick_15">
     <g id="line2d_56">
      <g>
       <use style="stroke:#000000;stroke-width:0.6;" x="48.794985" xlink:href="#m0c8d888aee" y="247.487984"/>
      </g>
     </g>
    </g>
    <g id="ytick_16">
     <g id="line2d_57">
      <g>
       <use style="stroke:#000000;stroke-width:0.6;" x="48.794985" xlink:href="#m0c8d888aee" y="239.637434"/>
      </g>
     </g>
    </g>
    <g id="ytick_17">
     <g id="line2d_58">
      <g>
       <use style="stroke:#000000;stroke-width:0.6;" x="48.794985" xlink:href="#m0c8d888aee" y="233.548075"/>
      </g>
     </g>
    </g>
    <g id="ytick_18">
     <g id="line2d_59">
      <g>
       <use style="stroke:#000000;stroke-width:0.6;" x="48.794985" xlink:href="#m0c8d888aee" y="228.572706"/>
      </g>
     </g>
    </g>
    <g id="ytick_19">
     <g id="line2d_60">
      <g>
       <use style="stroke:#000000;stroke-width:0.6;" x="48.794985" xlink:href="#m0c8d888aee" y="224.366092"/>
      </g>
     </g>
    </g>
    <g id="ytick_20">
     <g id="line2d_61">
      <g>
       <use style="stroke:#000000;stroke-width:0.6;" x="48.794985" xlink:href="#m0c8d888aee" y="220.722156"/>
      </g>
     </g>
    </g>
    <g id="ytick_21">
     <g id="line2d_62">
      <g>
       <use style="stroke:#000000;stroke-width:0.6;" x="48.794985" xlink:href="#m0c8d888aee" y="217.507978"/>
      </g>
     </g>
    </g>
    <g id="ytick_22">
     <g id="line2d_63">
      <g>
       <use style="stroke:#000000;stroke-width:0.6;" x="48.794985" xlink:href="#m0c8d888aee" y="195.717519"/>
      </g>
     </g>
    </g>
    <g id="ytick_23">
     <g id="line2d_64">
      <g>
       <use style="stroke:#000000;stroke-width:0.6;" x="48.794985" xlink:href="#m0c8d888aee" y="184.65279"/>
      </g>
     </g>
    </g>
    <g id="ytick_24">
     <g id="line2d_65">
      <g>
       <use style="stroke:#000000;stroke-width:0.6;" x="48.794985" xlink:href="#m0c8d888aee" y="176.802241"/>
      </g>
     </g>
    </g>
    <g id="ytick_25">
     <g id="line2d_66">
      <g>
       <use style="stroke:#000000;stroke-width:0.6;" x="48.794985" xlink:href="#m0c8d888aee" y="170.712881"/>
      </g>
     </g>
    </g>
    <g id="ytick_26">
     <g id="line2d_67">
      <g>
       <use style="stroke:#000000;stroke-width:0.6;" x="48.794985" xlink:href="#m0c8d888aee" y="165.737512"/>
      </g>
     </g>
    </g>
    <g id="ytick_27">
     <g id="line2d_68">
      <g>
       <use style="stroke:#000000;stroke-width:0.6;" x="48.794985" xlink:href="#m0c8d888aee" y="161.530898"/>
      </g>
     </g>
    </g>
    <g id="ytick_28">
     <g id="line2d_69">
      <g>
       <use style="stroke:#000000;stroke-width:0.6;" x="48.794985" xlink:href="#m0c8d888aee" y="157.886963"/>
      </g>
     </g>
    </g>
    <g id="ytick_29">
     <g id="line2d_70">
      <g>
       <use style="stroke:#000000;stroke-width:0.6;" x="48.794985" xlink:href="#m0c8d888aee" y="154.672784"/>
      </g>
     </g>
    </g>
    <g id="ytick_30">
     <g id="line2d_71">
      <g>
       <use style="stroke:#000000;stroke-width:0.6;" x="48.794985" xlink:href="#m0c8d888aee" y="132.882325"/>
      </g>
     </g>
    </g>
    <g id="ytick_31">
     <g id="line2d_72">
      <g>
       <use style="stroke:#000000;stroke-width:0.6;" x="48.794985" xlink:href="#m0c8d888aee" y="121.817597"/>
      </g>
     </g>
    </g>
    <g id="ytick_32">
     <g id="line2d_73">
      <g>
       <use style="stroke:#000000;stroke-width:0.6;" x="48.794985" xlink:href="#m0c8d888aee" y="113.967047"/>
      </g>
     </g>
    </g>
    <g id="ytick_33">
     <g id="line2d_74">
      <g>
       <use style="stroke:#000000;stroke-width:0.6;" x="48.794985" xlink:href="#m0c8d888aee" y="107.877688"/>
      </g>
     </g>
    </g>
    <g id="ytick_34">
     <g id="line2d_75">
      <g>
       <use style="stroke:#000000;stroke-width:0.6;" x="48.794985" xlink:href="#m0c8d888aee" y="102.902319"/>
      </g>
     </g>
    </g>
    <g id="ytick_35">
     <g id="line2d_76">
      <g>
       <use style="stroke:#000000;stroke-width:0.6;" x="48.794985" xlink:href="#m0c8d888aee" y="98.695704"/>
      </g>
     </g>
    </g>
    <g id="ytick_36">
     <g id="line2d_77">
      <g>
       <use style="stroke:#000000;stroke-width:0.6;" x="48.794985" xlink:href="#m0c8d888aee" y="95.051769"/>
      </g>
     </g>
    </g>
    <g id="ytick_37">
     <g id="line2d_78">
      <g>
       <use style="stroke:#000000;stroke-width:0.6;" x="48.794985" xlink:href="#m0c8d888aee" y="91.83759"/>
      </g>
     </g>
    </g>
    <g id="ytick_38">
     <g id="line2d_79">
      <g>
       <use style="stroke:#000000;stroke-width:0.6;" x="48.794985" xlink:href="#m0c8d888aee" y="70.047132"/>
      </g>
     </g>
    </g>
    <g id="ytick_39">
     <g id="line2d_80">
      <g>
       <use style="stroke:#000000;stroke-width:0.6;" x="48.794985" xlink:href="#m0c8d888aee" y="58.982403"/>
      </g>
     </g>
    </g>
    <g id="ytick_40">
     <g id="line2d_81">
      <g>
       <use style="stroke:#000000;stroke-width:0.6;" x="48.794985" xlink:href="#m0c8d888aee" y="51.131854"/>
      </g>
     </g>
    </g>
    <g id="ytick_41">
     <g id="line2d_82">
      <g>
       <use style="stroke:#000000;stroke-width:0.6;" x="48.794985" xlink:href="#m0c8d888aee" y="45.042494"/>
      </g>
     </g>
    </g>
    <g id="ytick_42">
     <g id="line2d_83">
      <g>
       <use style="stroke:#000000;stroke-width:0.6;" x="48.794985" xlink:href="#m0c8d888aee" y="40.067125"/>
      </g>
     </g>
    </g>
    <g id="ytick_43">
     <g id="line2d_84">
      <g>
       <use style="stroke:#000000;stroke-width:0.6;" x="48.794985" xlink:href="#m0c8d888aee" y="35.860511"/>
      </g>
     </g>
    </g>
    <g id="ytick_44">
     <g id="line2d_85">
      <g>
       <use style="stroke:#000000;stroke-width:0.6;" x="48.794985" xlink:href="#m0c8d888aee" y="32.216576"/>
      </g>
     </g>
    </g>
    <g id="ytick_45">
     <g id="line2d_86">
      <g>
       <use style="stroke:#000000;stroke-width:0.6;" x="48.794985" xlink:href="#m0c8d888aee" y="29.002397"/>
      </g>
     </g>
    </g>
    <g id="ytick_46">
     <g id="line2d_87">
      <g>
       <use style="stroke:#000000;stroke-width:0.6;" x="48.794985" xlink:href="#m0c8d888aee" y="7.211938"/>
      </g>
     </g>
    </g>
   </g>
   <g id="line2d_88">
    <path clip-path="url(#p4e417ce774)" d="M 158.388108 361.92711 
L 158.438338 318.534545 
L 158.467721 361.92711 
M 230.010078 361.92711 
L 230.036236 307.469817 
L 253.085611 299.619267 
L 271.918322 288.554539 
L 287.841152 318.534545 
L 313.800408 318.534545 
L 324.68351 299.619267 
L 343.51622 299.619267 
L 351.784146 293.529908 
L 359.43905 284.347925 
L 385.398306 284.347925 
L 390.983122 293.529908 
L 396.281408 284.347925 
L 406.126371 284.347925 
L 410.717969 280.703989 
L 415.114119 274.61463 
L 423.382045 274.61463 
L 427.280392 280.703989 
L 431.036949 274.61463 
L 434.661669 274.61463 
L 438.163494 280.703989 
L 441.550483 284.347925 
L 444.829931 280.703989 
L 448.008457 284.347925 
L 451.092087 280.703989 
L 454.086324 280.703989 
L 456.996204 274.61463 
L 459.826352 267.454977 
L 462.58102 267.454977 
L 465.26413 269.639261 
L 467.879306 269.639261 
L 470.429903 263.549902 
L 472.919034 260.134327 
L 475.349592 260.134327 
L 477.72427 263.549902 
L 480.045579 260.134327 
L 482.315867 260.134327 
L 484.537328 263.549902 
L 486.712017 260.134327 
L 488.841864 260.134327 
L 490.928681 263.549902 
L 492.974173 263.549902 
L 494.979943 260.134327 
L 498.87829 260.134327 
L 500.773645 267.454977 
L 502.634847 263.549902 
L 504.463106 260.134327 
L 506.259567 263.549902 
L 511.468769 263.549902 
L 513.148382 260.134327 
L 518.029318 260.134327 
L 519.606355 258.574533 
L 521.159677 255.699352 
L 524.197953 255.699352 
L 525.684222 258.574533 
L 527.149409 255.699352 
L 528.594103 255.699352 
L 530.018869 254.367918 
L 531.42425 254.367918 
L 532.810767 255.699352 
L 535.529185 255.699352 
L 536.862029 254.367918 
L 538.177893 254.367918 
L 539.477205 255.699352 
L 540.760376 254.367918 
L 542.027802 255.699352 
L 543.279865 254.367918 
L 544.516933 249.609992 
L 545.73936 248.539699 
L 548.141653 244.634624 
L 549.322168 248.539699 
L 550.489344 251.885391 
L 551.643478 249.609992 
L 553.913765 249.609992 
L 555.030467 251.885391 
L 557.228294 251.885391 
L 558.309915 254.367918 
L 560.439763 254.367918 
L 561.488441 251.885391 
L 566.577841 251.885391 
L 567.566308 249.609992 
L 568.545404 248.539699 
L 569.515308 251.885391 
L 570.476188 249.609992 
L 571.428213 251.885391 
L 572.371543 249.609992 
L 573.306336 249.609992 
L 574.232745 248.539699 
L 575.15092 246.517368 
L 579.623217 246.517368 
L 580.494901 248.539699 
L 581.35929 249.609992 
L 583.066667 249.609992 
L 583.909887 246.517368 
L 584.74628 244.634624 
L 585.575955 243.739823 
L 589.627216 243.739823 
L 590.418745 242.033706 
L 591.204254 241.219049 
L 592.757575 241.219049 
L 593.525563 239.659255 
L 595.795851 239.659255 
L 596.541659 238.183815 
L 597.28212 237.474971 
L 598.017312 237.474971 
L 598.747307 236.110238 
L 599.47218 236.110238 
L 600.192001 237.474971 
L 600.906841 236.110238 
L 601.616768 236.110238 
L 602.321848 234.810517 
L 603.717734 237.474971 
L 604.408665 238.183815 
L 605.095006 237.474971 
L 607.127084 237.474971 
L 607.795655 238.183815 
L 608.459927 238.183815 
L 609.119955 237.474971 
L 609.775791 237.474971 
L 610.42749 238.183815 
L 611.075103 238.183815 
L 611.718681 239.659255 
L 612.358274 237.474971 
L 612.993931 237.474971 
L 613.6257 236.110238 
L 614.253629 237.474971 
L 614.877763 238.183815 
L 615.498149 238.183815 
L 616.114831 237.474971 
L 618.545389 237.474971 
L 619.144196 238.183815 
L 619.739551 238.183815 
L 620.920066 241.219049 
L 621.505303 239.659255 
L 622.087242 241.219049 
L 622.665921 239.659255 
L 623.241376 241.219049 
L 624.948753 241.219049 
L 626.071524 238.183815 
L 626.628366 237.474971 
L 627.182222 237.474971 
L 627.733124 236.110238 
L 628.281104 234.183156 
L 628.826192 234.183156 
L 629.368419 234.810517 
L 629.907814 234.183156 
L 630.444407 232.970113 
L 630.978227 234.183156 
L 631.509302 232.970113 
L 632.037661 232.383231 
L 632.563331 232.383231 
L 633.086339 231.246026 
L 633.606713 231.246026 
L 634.124478 229.624421 
L 635.152287 229.624421 
L 635.662381 230.154321 
L 636.169969 232.383231 
L 636.675075 232.970113 
L 637.677937 232.970113 
L 638.17574 234.183156 
L 638.671155 234.183156 
L 639.164206 232.383231 
L 639.654915 232.383231 
L 640.143303 231.246026 
L 640.629393 232.383231 
L 641.113206 232.970113 
L 641.594764 232.970113 
L 642.074087 234.810517 
L 643.026111 234.810517 
L 643.498853 236.110238 
L 645.830644 236.110238 
L 646.290751 238.183815 
L 646.748818 239.659255 
L 647.204863 238.183815 
L 648.110956 238.183815 
L 648.561039 237.474971 
L 649.009169 237.474971 
L 649.455364 236.110238 
L 650.342013 236.110238 
L 650.782499 234.810517 
L 651.221115 234.183156 
L 651.657877 232.970113 
L 652.092799 232.970113 
L 652.525898 232.383231 
L 652.957189 232.383231 
L 653.386686 232.970113 
L 653.814405 232.383231 
L 654.24036 232.970113 
L 654.664565 234.183156 
L 655.507786 234.183156 
L 655.926829 234.810517 
L 656.344179 234.183156 
L 656.759849 234.810517 
L 657.173853 234.810517 
L 657.586205 234.183156 
L 659.219344 234.183156 
L 659.623626 232.970113 
L 660.026332 232.383231 
L 660.427474 232.383231 
L 660.827065 231.246026 
L 661.225115 231.246026 
L 661.621637 230.154321 
L 662.016643 231.246026 
L 662.410144 231.246026 
L 662.802152 229.624421 
L 663.192678 230.154321 
L 663.581733 230.154321 
L 663.969328 228.594526 
L 664.740181 228.594526 
L 665.123462 227.60209 
L 665.885782 227.60209 
L 666.642518 229.624421 
L 667.018816 228.594526 
L 667.393749 228.594526 
L 667.767326 227.60209 
L 668.139557 228.594526 
L 668.510452 228.594526 
L 668.880019 227.60209 
L 669.248268 227.119087 
L 669.61521 228.594526 
L 669.980853 228.594526 
L 670.345205 227.60209 
L 670.708278 228.594526 
L 671.070078 228.594526 
L 671.430616 229.624421 
L 671.789899 229.624421 
L 672.147938 230.154321 
L 672.504739 231.246026 
L 672.860312 231.246026 
L 673.214666 230.154321 
L 673.567808 229.624421 
L 673.919747 229.624421 
L 674.27049 228.594526 
L 674.968425 228.594526 
L 675.315632 229.624421 
L 676.006564 229.624421 
L 676.350304 230.154321 
L 676.692905 229.624421 
L 677.374715 229.624421 
L 677.71394 230.154321 
L 678.389067 230.154321 
L 678.724982 231.246026 
L 679.059809 231.246026 
L 679.393554 232.970113 
L 679.726224 232.383231 
L 680.057826 232.383231 
L 680.717853 230.154321 
L 681.37369 232.383231 
L 682.025388 230.154321 
L 682.349703 231.246026 
L 682.673001 230.154321 
L 682.995292 231.246026 
L 683.316579 230.154321 
L 683.636871 230.154321 
L 683.956172 231.246026 
L 684.27449 230.154321 
L 684.591829 229.624421 
L 685.223599 229.624421 
L 685.53804 227.60209 
L 685.851527 228.594526 
L 686.164066 227.60209 
L 686.78632 229.624421 
L 687.096047 230.154321 
L 688.019695 230.154321 
L 688.325752 229.624421 
L 688.935157 227.60209 
L 689.238517 227.60209 
L 689.540988 227.119087 
L 690.143287 227.119087 
L 690.443124 227.60209 
L 690.742094 227.60209 
L 691.040201 227.119087 
L 691.33745 227.119087 
L 691.633846 226.177995 
L 691.929394 227.119087 
L 692.224098 227.119087 
L 692.517965 227.60209 
L 692.810997 228.594526 
L 693.103201 227.60209 
L 693.394581 227.119087 
L 693.68514 227.60209 
L 694.263819 227.60209 
L 694.551948 228.594526 
L 695.411541 228.594526 
L 695.69649 227.60209 
L 695.980655 227.60209 
L 696.264041 228.594526 
L 696.546651 228.594526 
L 696.82849 227.119087 
L 697.109562 227.119087 
L 697.389872 227.60209 
L 697.669422 227.119087 
L 697.948218 227.119087 
L 698.226264 226.177995 
L 699.605376 226.177995 
L 699.879002 225.719345 
L 700.151906 223.958155 
L 700.966317 223.958155 
L 701.236367 224.824545 
L 701.505712 224.824545 
L 701.774357 225.719345 
L 702.042305 224.824545 
L 702.576125 224.824545 
L 702.842004 223.958155 
L 703.107201 223.958155 
L 703.371718 223.535062 
L 703.635559 222.70806 
L 703.898729 223.535062 
L 704.161229 222.70806 
L 704.423065 222.70806 
L 704.684238 221.905385 
L 704.944752 221.905385 
L 705.204611 222.70806 
L 705.463818 222.70806 
L 705.722376 221.905385 
L 705.980289 221.512731 
L 706.49419 221.512731 
L 707.005547 219.629986 
L 707.26028 219.629986 
L 707.514386 220.367571 
L 707.767868 220.743977 
L 708.020729 221.512731 
L 708.272974 221.905385 
L 708.524603 221.512731 
L 708.775621 221.905385 
L 709.773638 224.824545 
L 710.021643 224.824545 
L 710.269054 223.958155 
L 710.515873 223.958155 
L 710.762104 223.535062 
L 711.00775 222.70806 
L 711.252813 222.70806 
L 711.497296 223.535062 
L 711.984532 221.905385 
L 712.227291 223.535062 
L 712.469481 222.70806 
L 712.711104 223.535062 
L 712.952164 222.70806 
L 713.192662 222.70806 
L 713.432602 223.535062 
L 714.62401 223.535062 
L 714.860651 222.70806 
L 715.096752 223.535062 
L 715.332314 224.824545 
L 715.56734 224.824545 
L 715.801832 223.958155 
L 716.035794 223.535062 
L 716.269227 223.958155 
L 716.502133 223.958155 
L 716.966376 225.719345 
L 717.197718 223.958155 
L 717.428542 223.535062 
L 717.658852 223.535062 
L 718.117937 221.905385 
L 718.57499 221.905385 
L 718.802761 221.512731 
L 719.483075 221.512731 
L 719.708854 220.743977 
L 720.158937 220.743977 
L 720.383245 221.512731 
L 720.607068 221.512731 
L 720.830406 221.905385 
L 721.053263 221.512731 
L 721.275639 221.512731 
L 721.497538 221.905385 
L 721.939911 221.905385 
L 722.160389 222.70806 
L 722.380398 221.905385 
L 722.599939 223.535062 
L 722.819014 223.958155 
L 723.255775 223.958155 
L 723.690698 225.719345 
L 724.984584 225.719345 
L 725.198665 224.824545 
L 725.412303 224.824545 
L 725.6255 223.958155 
L 726.050579 223.958155 
L 726.262464 223.535062 
L 726.684934 223.535062 
L 727.105684 221.512731 
L 727.315418 221.512731 
L 727.524727 221.905385 
L 727.942077 223.535062 
L 728.357747 221.905385 
L 728.564957 221.905385 
L 728.771751 221.512731 
L 728.978133 221.905385 
L 729.184103 222.70806 
L 729.389663 222.70806 
L 729.594815 221.905385 
L 730.207837 221.905385 
L 730.411372 222.70806 
L 730.614507 222.70806 
L 730.817243 221.905385 
L 731.423074 221.905385 
L 731.624231 222.70806 
L 731.824996 221.905385 
L 732.025373 221.905385 
L 732.225361 221.512731 
L 732.823013 221.512731 
L 733.021465 220.743977 
L 733.417227 220.743977 
L 733.614541 220.367571 
L 733.811479 220.743977 
L 734.40005 220.743977 
L 734.790576 221.905385 
L 734.985287 221.905385 
L 735.179631 222.70806 
L 735.37361 221.905385 
L 735.567226 222.70806 
L 735.760479 221.905385 
L 735.953372 221.905385 
L 736.145905 222.70806 
L 736.33808 222.70806 
L 736.912468 220.367571 
L 737.293627 220.367571 
L 737.48368 220.743977 
L 737.673385 220.743977 
L 737.862741 220.367571 
L 738.051751 220.367571 
L 738.240416 219.629986 
L 738.428737 220.743977 
L 738.616715 220.743977 
L 738.804351 220.367571 
L 738.991648 218.911814 
L 739.178605 218.559693 
L 739.551508 218.559693 
L 739.737456 217.868796 
L 740.10835 217.868796 
L 740.293299 218.911814 
L 740.662206 217.19496 
L 740.846167 216.86418 
L 741.029801 216.86418 
L 741.213108 216.214412 
L 741.396091 216.214412 
L 741.578751 215.895239 
L 742.306176 215.895239 
L 742.487235 215.267878 
L 742.848403 215.267878 
L 743.028514 214.654617 
L 743.566972 216.214412 
L 743.745836 215.895239 
L 743.924391 215.267878 
L 744.102638 215.895239 
L 744.280577 215.895239 
L 744.458211 216.214412 
L 744.635539 216.86418 
L 744.812564 215.895239 
L 745.341826 215.895239 
L 745.517645 214.654617 
L 746.217946 214.654617 
L 746.392281 215.267878 
L 746.566323 215.267878 
L 747.086697 216.86418 
L 747.948203 216.86418 
L 748.119645 217.19496 
L 748.290803 217.868796 
L 748.632271 216.86418 
L 748.802583 216.86418 
L 748.972614 217.19496 
L 749.311839 217.19496 
L 749.649953 218.559693 
L 749.986965 218.559693 
L 750.155059 217.868796 
L 750.32288 218.559693 
L 750.490429 217.868796 
L 750.657707 217.868796 
L 750.824714 217.19496 
L 750.991452 217.19496 
L 751.157921 217.868796 
L 751.324122 217.868796 
L 751.655724 218.911814 
L 751.821127 218.911814 
L 751.986265 219.629986 
L 752.480101 219.629986 
L 752.64419 218.911814 
L 752.808019 218.911814 
L 752.971588 218.559693 
L 753.460747 218.559693 
L 753.623287 218.911814 
L 753.785571 218.559693 
L 753.947601 218.559693 
L 754.432171 216.86418 
L 754.914478 216.86418 
L 755.074748 216.214412 
L 755.234769 216.214412 
L 755.554071 217.19496 
L 755.713352 216.86418 
L 755.872388 217.19496 
L 756.348033 217.19496 
L 756.506095 216.86418 
L 756.663916 216.86418 
L 756.821497 217.19496 
L 757.449425 217.19496 
L 757.605813 216.86418 
L 757.761964 217.19496 
L 757.917879 217.868796 
L 758.384219 217.868796 
L 758.539198 217.19496 
L 758.693946 217.868796 
L 759.002747 217.868796 
L 759.156802 218.559693 
L 759.310628 218.559693 
L 759.464225 218.911814 
L 759.617594 218.911814 
L 759.770735 220.367571 
L 759.92365 220.367571 
L 760.076339 220.743977 
L 760.381041 221.905385 
L 760.533055 221.512731 
L 760.684847 220.743977 
L 760.836415 221.512731 
L 760.987762 221.512731 
L 761.138887 220.743977 
L 761.289791 221.512731 
L 761.440475 221.512731 
L 761.59094 221.905385 
L 761.741185 222.70806 
L 761.891213 221.905385 
L 762.041023 222.70806 
L 762.190616 221.905385 
L 762.339992 221.905385 
L 762.489153 221.512731 
L 762.638099 220.367571 
L 762.786831 220.367571 
L 763.231744 218.559693 
L 763.379624 218.559693 
L 763.969034 215.895239 
L 764.262483 215.895239 
L 764.408896 214.654617 
L 764.555101 215.267878 
L 764.701099 215.267878 
L 764.992479 216.86418 
L 765.137861 216.214412 
L 765.572783 216.214412 
L 765.717352 215.895239 
L 765.861718 215.267878 
L 766.005882 215.895239 
L 766.149846 215.895239 
L 766.293609 216.214412 
L 766.437173 215.895239 
L 766.723703 215.895239 
L 766.86667 216.214412 
L 767.00944 216.86418 
L 767.294389 216.86418 
L 767.436569 217.19496 
L 767.578554 217.19496 
L 767.720344 217.868796 
L 767.861939 217.19496 
L 768.003341 217.868796 
L 768.144549 217.868796 
L 768.285565 218.559693 
L 768.56702 218.559693 
L 768.707461 218.911814 
L 768.84771 217.868796 
L 768.98777 218.559693 
L 769.12764 217.868796 
L 769.267321 218.559693 
L 769.406813 218.559693 
L 769.546117 217.19496 
L 769.685233 217.19496 
L 769.824163 216.86418 
L 769.962905 217.19496 
L 770.101462 216.86418 
L 770.239833 216.214412 
L 770.378019 216.214412 
L 770.653837 214.654617 
L 770.791471 214.654617 
L 770.928921 215.267878 
L 771.066189 215.267878 
L 771.203274 214.654617 
L 771.613443 216.214412 
L 771.749804 216.214412 
L 771.885986 215.895239 
L 772.021989 216.214412 
L 772.157812 215.895239 
L 772.564215 215.895239 
L 772.699328 216.214412 
L 772.834265 216.86418 
L 773.372255 216.86418 
L 773.506316 217.19496 
L 773.640204 216.86418 
L 774.040827 216.86418 
L 774.174024 216.214412 
L 774.572586 216.214412 
L 774.705099 215.895239 
L 775.365126 213.179178 
L 775.496627 213.179178 
L 775.627961 212.893427 
L 775.759128 212.893427 
L 775.890128 212.330748 
L 776.412475 212.330748 
L 776.542651 212.893427 
L 776.672662 212.330748 
L 776.80251 212.893427 
L 777.191077 212.893427 
L 777.320275 212.330748 
L 777.449312 212.330748 
L 777.578187 212.0537 
L 777.706903 211.507902 
L 777.963853 212.330748 
L 778.092089 212.0537 
L 778.220165 212.330748 
L 778.348084 212.893427 
L 778.475844 212.330748 
L 778.603446 212.330748 
L 778.730891 213.179178 
L 778.858178 213.179178 
L 778.985309 213.759816 
L 779.112284 213.759816 
L 779.239103 213.179178 
L 779.492274 213.179178 
L 779.618628 213.759816 
L 779.744827 213.179178 
L 780.623929 213.179178 
L 780.748907 212.330748 
L 780.998409 212.330748 
L 781.122935 212.893427 
L 781.495613 212.893427 
L 781.619541 212.330748 
L 781.743321 212.330748 
L 781.866952 212.893427 
L 781.990436 212.893427 
L 782.113772 213.179178 
L 782.236961 213.179178 
L 782.605648 214.654617 
L 782.728252 213.759816 
L 782.973025 214.654617 
L 783.217219 214.654617 
L 783.3391 215.267878 
L 783.460837 215.267878 
L 783.58243 214.654617 
L 783.703881 215.267878 
L 783.82519 215.267878 
L 783.946355 214.654617 
L 784.067379 214.654617 
L 784.188262 213.759816 
L 784.550062 213.759816 
L 784.670381 213.179178 
L 784.79056 213.179178 
L 785.0305 212.893427 
L 785.269883 213.179178 
L 785.389367 213.179178 
L 785.508713 213.759816 
L 785.627922 213.759816 
L 785.984723 212.330748 
L 786.103384 212.0537 
L 786.340296 212.330748 
L 786.69465 211.507902 
L 786.812498 212.0537 
L 787.165238 210.709143 
L 787.399731 210.972807 
L 787.516778 210.972807 
L 787.750474 210.709143 
L 787.867125 210.972807 
L 788.100031 212.330748 
L 788.216288 212.893427 
L 788.448409 212.893427 
L 788.911093 213.759816 
L 789.25675 213.759816 
L 789.371713 214.353078 
L 789.486548 213.759816 
L 789.715835 213.759816 
L 789.944615 214.654617 
L 790.058815 214.654617 
L 790.172889 214.353078 
L 790.286837 213.179178 
L 790.400659 213.759816 
L 790.514357 213.759816 
L 790.627929 213.179178 
L 790.967898 214.654617 
L 791.193924 214.654617 
L 791.532039 213.759816 
L 791.756836 214.353078 
L 791.869051 214.353078 
L 791.981144 214.654617 
L 792.428304 213.759816 
L 792.762409 213.759816 
L 792.984547 212.893427 
L 793.31686 213.759816 
L 793.53781 212.893427 
L 793.648107 212.893427 
L 793.86835 212.330748 
L 794.088125 212.330748 
L 794.197837 212.0537 
L 794.744656 213.179178 
L 794.962576 212.893427 
L 795.505373 212.893427 
L 795.61359 212.330748 
L 795.829687 212.893427 
L 796.045332 212.0537 
L 796.152985 212.330748 
L 796.367957 212.0537 
L 796.475276 212.330748 
L 796.582483 212.0537 
L 796.796563 212.893427 
L 796.903438 212.330748 
L 797.116855 212.893427 
L 797.436156 211.507902 
L 797.542371 211.507902 
L 797.754474 212.330748 
L 797.860362 212.330748 
L 798.071813 212.893427 
L 798.282833 212.330748 
L 798.493422 212.0537 
L 798.703583 212.330748 
L 798.913317 212.330748 
L 799.122625 212.893427 
L 799.539975 210.709143 
L 799.64405 210.709143 
L 799.748019 210.189337 
L 799.955646 210.709143 
L 800.059302 210.709143 
L 800.162855 210.189337 
L 800.36965 210.972807 
L 800.576031 210.709143 
L 800.782001 210.709143 
L 801.090188 209.679248 
L 801.192713 209.679248 
L 801.601799 208.931558 
L 801.805736 209.427735 
L 801.907553 209.427735 
L 802.009271 209.679248 
L 802.212405 209.427735 
L 802.51636 210.189337 
L 802.718501 209.679248 
L 803.422895 209.679248 
L 803.723314 210.972807 
L 803.923109 210.189337 
L 804.022861 210.709143 
L 804.122518 210.189337 
L 804.321543 210.709143 
L 804.420912 210.709143 
L 804.718446 208.931558 
L 804.916327 209.427735 
L 805.507706 209.427735 
L 805.704083 209.679248 
L 805.802131 209.679248 
L 805.900086 210.189337 
L 805.997949 209.427735 
L 806.193396 209.679248 
L 806.583185 209.679248 
L 806.777529 209.427735 
L 806.971509 209.679248 
L 807.068362 209.427735 
L 807.261796 209.679248 
L 807.647582 209.679248 
L 808.319258 208.203809 
L 808.510367 208.203809 
L 808.701122 207.729206 
L 808.891525 207.032428 
L 809.081579 207.494965 
L 809.176474 207.494965 
L 809.271283 207.729206 
L 809.46064 207.494965 
L 809.64965 207.494965 
L 809.838314 207.729206 
L 810.026635 207.729206 
L 810.120667 207.494965 
L 810.308474 208.203809 
L 810.683067 206.577602 
L 810.776504 206.577602 
L 810.869856 206.353 
L 811.056307 206.577602 
L 811.149406 207.494965 
L 811.335354 206.577602 
L 811.428202 207.032428 
L 811.520968 206.353 
L 811.706248 207.032428 
L 811.983548 205.472634 
L 812.075815 205.256909 
L 812.168001 205.909267 
L 812.352126 205.472634 
L 812.444065 205.472634 
L 812.535923 205.256909 
L 812.99399 206.577602 
L 813.08536 207.032428 
L 813.267858 206.577602 
L 813.813426 206.577602 
L 813.994643 206.353 
L 814.446301 206.353 
L 814.626413 207.494965 
L 814.716351 207.494965 
L 814.895992 208.203809 
L 815.075322 209.427735 
L 815.343734 208.444242 
L 815.43305 208.444242 
L 815.611451 208.203809 
L 815.789544 208.444242 
L 815.967331 207.729206 
L 816.144812 208.203809 
L 816.410463 208.931558 
L 816.498861 208.444242 
L 816.675432 209.679248 
L 816.763605 209.679248 
L 816.939724 210.189337 
L 817.027671 210.189337 
L 817.115543 209.679248 
L 817.291064 210.189337 
L 817.553787 210.189337 
L 817.728566 209.427735 
L 817.815844 209.427735 
L 817.903049 208.931558 
L 818.077237 209.679248 
L 818.251133 208.931558 
L 818.337971 208.931558 
L 818.511429 208.203809 
L 818.598048 208.203809 
L 818.684595 208.444242 
L 818.857472 207.494965 
L 819.03006 208.203809 
L 819.202361 207.729206 
L 819.374374 207.494965 
L 819.460273 207.729206 
L 819.546101 207.032428 
L 819.631858 207.494965 
L 819.803158 207.032428 
L 819.888701 207.494965 
L 820.230169 205.909267 
L 820.31536 205.909267 
L 820.400481 205.256909 
L 820.570512 205.472634 
L 820.655423 205.472634 
L 820.740264 205.909267 
L 820.909737 205.472634 
L 821.416495 205.472634 
L 821.500713 205.909267 
L 821.668945 205.472634 
L 821.836902 205.256909 
L 821.920779 205.256909 
L 822.088328 204.83051 
L 822.172 204.619784 
L 822.339143 204.83051 
L 822.422613 204.83051 
L 822.58935 205.256909 
L 822.672618 205.256909 
L 822.838953 204.619784 
L 822.92202 204.619784 
L 823.005021 204.20315 
L 823.170821 205.256909 
L 823.336357 204.83051 
L 823.584163 204.20315 
L 823.749038 204.83051 
L 823.91365 204.20315 
L 824.160077 203.188573 
L 824.242088 203.188573 
L 824.405917 203.589889 
L 824.487734 203.589889 
L 824.651174 202.597453 
L 824.732797 202.793074 
L 824.814355 203.188573 
L 824.89585 202.793074 
L 824.97728 203.188573 
L 825.221185 202.210369 
L 825.383469 202.018866 
L 825.545499 202.018866 
L 825.707275 202.210369 
L 826.030069 200.714708 
L 826.11061 200.714708 
L 826.271504 200.174315 
L 826.432148 200.174315 
L 826.672646 199.470044 
L 826.752688 199.819907 
L 826.912586 199.470044 
L 827.072236 199.470044 
L 827.151969 200.174315 
L 827.231641 199.819907 
L 827.390799 200.174315 
L 827.549713 199.819907 
L 827.708383 199.819907 
L 827.866809 200.174315 
L 828.182934 200.174315 
L 828.498095 201.639847 
L 828.733837 201.639847 
L 828.812298 201.266019 
L 829.047324 202.210369 
L 829.203711 202.210369 
L 829.281816 202.597453 
L 829.359862 202.210369 
L 829.515778 202.793074 
L 829.90454 201.639847 
L 830.059636 201.266019 
L 830.137097 201.081008 
L 830.291844 201.266019 
L 830.369131 201.266019 
L 830.44636 201.639847 
L 830.677702 200.714708 
L 830.7547 201.081008 
L 830.908526 200.174315 
L 830.985353 200.174315 
L 831.062123 200.353259 
L 831.521548 199.470044 
L 831.674237 199.819907 
L 831.750497 199.470044 
L 831.902848 199.819907 
L 832.054974 199.819907 
L 832.206877 199.470044 
L 832.358557 199.470044 
L 832.434314 199.29678 
L 832.58566 199.470044 
L 832.736785 198.953518 
L 832.887689 199.29678 
L 833.339084 199.29678 
L 833.414125 199.470044 
L 833.489111 199.29678 
L 833.638921 199.819907 
L 833.86323 199.819907 
L 834.012498 199.470044 
L 834.087052 199.470044 
L 834.235998 199.29678 
L 834.31039 199.29678 
L 834.384729 199.470044 
L 834.533247 198.953518 
L 834.607425 199.470044 
L 834.681551 199.29678 
L 834.755623 199.29678 
L 834.977522 198.783492 
L 835.051383 198.783492 
L 835.198946 198.953518 
L 835.272648 198.953518 
L 835.419895 198.783492 
L 835.566933 198.953518 
L 835.713762 198.953518 
L 835.933614 199.470044 
L 836.006794 199.470044 
L 836.298998 200.353259 
L 836.37192 200.353259 
L 836.44479 200.174315 
L 836.880937 201.081008 
L 836.953449 201.081008 
L 837.025911 201.266019 
L 837.170682 200.714708 
L 837.387458 200.714708 
L 837.531723 201.266019 
L 837.747744 200.714708 
L 838.106778 202.018866 
L 838.178435 202.018866 
L 838.464568 201.081008 
L 838.535978 201.081008 
L 838.749911 200.353259 
L 838.821124 200.353259 
L 838.963402 200.714708 
L 839.105484 200.714708 
L 839.247371 201.081008 
L 839.389064 200.714708 
L 839.530563 201.081008 
L 839.81298 200.174315 
L 839.883463 200.174315 
L 839.953899 199.470044 
L 840.024287 199.819907 
L 840.235163 199.29678 
L 840.305359 199.29678 
L 840.445609 198.953518 
L 840.585668 198.953518 
L 840.865219 199.819907 
L 841.004711 199.819907 
L 841.144015 199.470044 
L 841.213597 199.470044 
L 841.283132 199.29678 
L 841.35262 199.470044 
L 841.422061 198.953518 
L 841.630105 199.470044 
L 841.906847 199.470044 
L 841.975917 198.953518 
L 842.113918 199.29678 
L 842.251736 199.29678 
L 842.320575 198.953518 
L 842.458117 199.29678 
L 842.595476 199.29678 
L 842.801173 199.819907 
L 843.074799 198.953518 
L 843.211341 198.783492 
L 843.347703 199.29678 
L 843.483885 199.29678 
L 843.687821 198.783492 
L 843.823556 198.783492 
L 844.162114 199.819907 
L 844.229692 199.470044 
L 844.432163 200.174315 
L 844.499566 199.819907 
L 844.634238 200.174315 
L 844.768736 200.174315 
L 844.835919 199.819907 
L 844.903058 200.174315 
L 845.104215 199.470044 
L 845.505357 201.081008 
L 845.771922 201.081008 
L 845.838456 201.266019 
L 846.104164 200.714708 
L 846.236762 201.081008 
L 846.36919 200.353259 
L 846.633538 201.266019 
L 846.69952 201.266019 
L 846.831356 201.639847 
L 846.897211 201.639847 
L 847.160213 202.597453 
L 847.225859 202.793074 
L 847.488027 202.210369 
L 847.553465 202.210369 
L 847.684217 202.018866 
L 847.74953 202.018866 
L 847.74953 202.018866 
" style="fill:none;stroke:#0000ff;stroke-linecap:square;stroke-width:1.5;"/>
   </g>
   <g id="line2d_89">
    <path clip-path="url(#p4e417ce774)" d="M 158.388108 361.92711 
L 158.438338 318.534545 
L 200.320424 299.619267 
L 230.036236 318.534545 
L 230.052407 361.92711 
M 271.895992 361.92711 
L 271.918322 288.554539 
L 301.634135 288.554539 
L 313.800408 269.639261 
L 324.68351 265.432647 
L 334.528473 235.45264 
L 343.51622 230.694714 
L 351.784146 226.644484 
L 359.43905 219.268537 
L 366.565595 219.268537 
L 373.232033 234.183156 
L 379.494189 258.574533 
L 385.398306 258.574533 
L 390.983122 232.970113 
L 396.281408 255.699352 
L 401.321136 238.911565 
L 406.126371 222.303771 
L 410.717969 214.654617 
L 415.114119 225.719345 
L 419.330783 226.644484 
L 423.382045 231.808705 
L 427.280392 214.054835 
L 431.036949 221.512731 
L 434.661669 236.784074 
L 438.163494 248.539699 
L 441.550483 230.694714 
L 444.829931 224.824545 
L 448.008457 225.719345 
L 451.092087 228.093797 
L 454.086324 293.529908 
L 456.996204 255.699352 
L 459.826352 210.972807 
L 462.58102 212.610637 
L 465.26413 240.428009 
L 467.879306 238.183815 
L 470.429903 240.428009 
L 472.919034 210.189337 
L 475.349592 217.868796 
L 477.72427 213.179178 
L 480.045579 196.821763 
L 482.315867 267.454977 
L 484.537328 231.808705 
L 486.712017 230.694714 
L 488.841864 267.454977 
L 490.928681 214.353078 
L 492.974173 189.050198 
L 494.979943 175.564916 
L 496.947506 192.190322 
L 498.87829 212.0537 
L 500.773645 203.388493 
L 502.634847 219.996287 
L 504.463106 193.555055 
L 506.259567 196.664478 
L 508.025319 190.263241 
L 509.761392 192.057529 
L 511.468769 185.081916 
L 513.148382 195.4378 
L 514.80112 184.979519 
L 516.42783 184.979519 
L 518.029318 190.890601 
L 519.606355 201.266019 
L 521.159677 227.60209 
L 522.689985 239.659255 
L 524.197953 207.032428 
L 525.684222 185.495394 
L 527.149409 174.500191 
L 528.594103 156.041203 
L 530.018869 152.901848 
L 531.42425 154.193875 
L 532.810767 152.650624 
L 534.178919 147.664838 
L 535.529185 147.847723 
L 536.862029 159.468578 
L 538.177893 172.423218 
L 539.477205 165.40786 
L 540.760376 156.254399 
L 542.027802 154.493209 
L 543.279865 154.426406 
L 544.516933 153.669701 
L 545.73936 152.185724 
L 546.94749 147.586832 
L 548.141653 143.584993 
L 549.322168 144.335174 
L 550.489344 145.488567 
L 551.643478 143.991624 
L 552.784859 144.988275 
L 553.913765 144.220176 
L 556.135226 144.358232 
L 557.228294 145.998203 
L 558.309915 139.471433 
L 559.380328 138.78584 
L 560.439763 141.931928 
L 561.488441 139.069413 
L 562.52658 141.285388 
L 563.554389 140.613562 
L 564.572071 141.347291 
L 565.579825 141.347291 
L 566.577841 141.763607 
L 567.566308 142.35733 
L 568.545404 144.613163 
L 569.515308 145.225366 
L 570.476188 145.344688 
L 571.428213 148.190653 
L 572.371543 147.97911 
L 573.306336 142.594159 
L 574.232745 149.63514 
L 575.15092 154.493209 
L 576.061004 155.724499 
L 576.96314 147.97911 
L 578.744114 141.141491 
L 579.623217 136.63485 
L 580.494901 141.388638 
L 581.35929 138.338163 
L 582.216506 134.608795 
L 583.066667 132.363752 
L 583.909887 132.707767 
L 584.74628 132.009345 
L 585.575955 129.730425 
L 586.399018 130.622077 
L 587.215575 133.117223 
L 588.025728 134.351804 
L 588.829576 132.722823 
L 589.627216 132.038703 
L 590.418745 130.705871 
L 591.204254 128.272039 
L 591.983834 122.785475 
L 592.757575 123.517184 
L 593.525563 129.542132 
L 594.287884 131.980017 
L 595.044619 129.15618 
L 595.795851 136.63485 
L 596.541659 157.197995 
L 597.28212 167.426353 
L 598.017312 223.118428 
L 598.747307 222.70806 
L 599.47218 213.467953 
L 600.192001 193.836388 
L 600.906841 188.579686 
L 601.616768 227.119087 
L 602.321848 189.528964 
L 603.022149 234.183156 
L 603.717734 195.739339 
L 604.408665 231.808705 
L 605.095006 207.965476 
L 605.776817 172.878587 
L 606.454157 180.554766 
L 607.127084 207.262716 
L 607.795655 165.50782 
L 608.459927 148.484229 
L 609.119955 161.901464 
L 609.775791 144.358232 
L 610.42749 148.645703 
L 611.075103 160.952936 
L 611.718681 167.105931 
L 612.358274 208.686812 
L 612.993931 179.198513 
L 613.6257 223.958155 
L 614.253629 198.279682 
L 614.877763 217.868796 
L 615.498149 184.979519 
L 616.114831 176.522522 
L 616.727853 227.60209 
L 617.337259 245.559762 
L 617.94309 245.559762 
L 618.545389 194.698216 
L 619.144196 192.728053 
L 619.739551 230.694714 
L 620.331495 198.953518 
L 620.920066 154.160818 
L 621.505303 156.940723 
L 622.665921 130.165752 
L 623.813643 140.63368 
L 624.382757 154.160818 
L 624.948753 154.226973 
L 625.511664 150.286594 
L 626.071524 161.294053 
L 626.628366 230.694714 
L 627.182222 205.042877 
L 627.733124 236.110238 
L 628.281104 208.444242 
L 628.826192 163.903553 
L 629.368419 153.347132 
L 629.907814 150.895296 
L 630.444407 135.779326 
L 630.978227 135.212522 
L 631.509302 132.557662 
L 632.037661 132.393495 
L 632.563331 134.351804 
L 633.086339 132.75296 
L 633.606713 136.22085 
L 634.639661 150.286594 
L 635.152287 173.542585 
L 635.662381 178.464236 
L 636.169969 200.897244 
L 636.675075 207.262716 
L 637.177723 191.14564 
L 638.17574 152.807368 
L 638.671155 168.299675 
L 639.164206 210.709143 
L 639.654915 201.081008 
L 640.143303 185.287872 
L 640.629393 222.70806 
L 641.113206 186.557356 
L 641.594764 204.619784 
L 642.074087 182.537015 
L 642.551196 261.788711 
L 643.026111 160.118346 
L 643.498853 158.755617 
L 643.969441 177.437322 
L 644.437895 181.259036 
L 644.904235 173.677346 
L 645.368478 183.682175 
L 645.830644 148.190653 
L 647.658903 128.542038 
L 648.110956 133.301194 
L 648.561039 126.766315 
L 649.009169 123.2498 
L 649.455364 125.076346 
L 649.89964 129.328518 
L 650.342013 123.939605 
L 651.221115 129.063831 
L 651.657877 132.813333 
L 652.092799 127.378476 
L 652.525898 127.677263 
L 652.957189 126.717931 
L 653.386686 126.742112 
L 653.814405 124.692147 
L 654.24036 118.334809 
L 654.664565 123.722162 
L 655.087036 120.306588 
L 655.507786 117.946472 
L 655.926829 122.328919 
L 656.344179 119.385908 
L 656.759849 120.536876 
L 657.173853 119.701821 
L 657.586205 114.095198 
L 657.996917 112.904001 
L 658.406002 111.332876 
L 658.813474 112.527795 
L 659.219344 109.886409 
L 659.623626 110.22769 
L 660.026332 110.240902 
L 660.427474 112.59974 
L 660.827065 112.976946 
L 661.225115 109.38236 
L 661.621637 111.154651 
L 662.016643 120.363978 
L 663.192678 107.335344 
L 663.581733 112.001211 
L 663.969328 114.742033 
L 664.355474 106.620103 
L 664.740181 111.250474 
L 665.123462 111.291644 
L 665.505325 120.383135 
L 665.885782 113.898055 
L 666.264843 104.027603 
L 666.642518 103.985539 
L 667.018816 107.948065 
L 667.393749 104.763602 
L 667.767326 107.814741 
L 668.139557 100.442931 
L 668.510452 101.863566 
L 669.61521 114.820068 
L 669.980853 111.100046 
L 670.345205 111.90272 
L 670.708278 112.427388 
L 671.070078 115.356711 
L 671.430616 106.805901 
L 671.789899 103.891132 
L 672.147938 104.709597 
L 672.504739 104.4198 
L 673.214666 99.437314 
L 673.567808 99.44621 
L 673.919747 97.889876 
L 674.27049 97.381966 
L 674.620047 98.553419 
L 674.968425 98.934968 
L 675.661676 98.083864 
L 676.006564 97.90669 
L 676.350304 95.663603 
L 677.034373 100.498358 
L 677.374715 101.343577 
L 678.052055 107.145918 
L 678.389067 114.263131 
L 678.724982 113.687329 
L 679.059809 106.724459 
L 679.393554 113.717333 
L 679.726224 115.468518 
L 680.057826 113.507992 
L 680.388366 118.175275 
L 680.717853 115.08707 
L 681.37369 112.298835 
L 682.025388 105.50889 
L 682.349703 111.888679 
L 682.673001 112.128367 
L 682.995292 123.592523 
L 683.316579 113.702327 
L 683.636871 122.062683 
L 683.956172 120.154135 
L 684.27449 122.267249 
L 684.591829 116.495951 
L 684.908197 118.764847 
L 685.223599 117.85898 
L 685.53804 112.991559 
L 685.851527 117.374137 
L 686.164066 111.456949 
L 686.475662 113.702327 
L 686.78632 109.12744 
L 687.096047 115.293026 
L 687.404849 116.165572 
L 687.712729 112.831249 
L 688.325752 126.215004 
L 688.630904 115.213628 
L 689.238517 118.069436 
L 689.540988 118.406013 
L 689.842577 135.982219 
L 690.143287 136.084234 
L 690.443124 139.413637 
L 690.742094 121.239635 
L 691.040201 133.270446 
L 691.33745 131.342666 
L 691.633846 134.851942 
L 691.929394 123.484959 
L 692.224098 134.144767 
L 692.517965 134.176517 
L 692.810997 137.625998 
L 693.103201 146.642659 
L 693.394581 149.888208 
L 693.68514 213.467953 
L 694.263819 140.075929 
L 694.551948 142.63744 
L 694.839274 246.517368 
L 695.125804 142.594159 
L 695.411541 176.522522 
L 695.69649 193.978149 
L 695.980655 179.198513 
L 696.264041 141.347291 
L 696.546651 143.742408 
L 696.82849 144.335174 
L 697.109562 165.557937 
L 697.389872 172.747704 
L 697.669422 151.940978 
L 697.948218 151.940978 
L 698.226264 152.557008 
L 698.503564 164.18831 
L 698.78012 168.078711 
L 699.055939 251.885391 
L 699.331023 219.268537 
L 699.605376 253.098434 
L 700.151906 153.669701 
L 700.42409 299.619267 
L 700.966317 162.165979 
L 701.236367 217.19496 
L 701.505712 174.292142 
L 701.774357 162.165979 
L 702.042305 208.686812 
L 702.30956 198.279682 
L 702.576125 194.2639 
L 702.842004 144.659771 
L 703.107201 154.426406 
L 703.371718 307.469817 
L 703.635559 152.933414 
L 703.898729 177.128969 
L 704.161229 179.868214 
L 704.423065 143.810151 
L 704.684238 175.637397 
L 705.463818 125.674611 
L 705.722376 133.860669 
L 705.980289 130.248154 
L 706.49419 167.105931 
L 706.750185 165.457794 
L 707.005547 144.520185 
L 707.26028 167.750583 
L 707.514386 168.133784 
L 707.767868 199.644415 
L 708.020729 190.263241 
L 708.272974 139.490725 
L 708.524603 153.123582 
L 708.775621 151.219642 
L 709.026031 159.548958 
L 709.275835 157.383257 
L 709.773638 124.692147 
L 710.021643 141.03917 
L 710.269054 139.645556 
L 710.515873 136.084234 
L 710.762104 118.548981 
L 711.00775 127.652239 
L 711.252813 126.143908 
L 711.497296 115.709659 
L 711.741201 114.432103 
L 711.984532 111.319125 
L 712.227291 113.123425 
L 712.711104 100.767858 
L 712.952164 99.949082 
L 713.192662 100.85204 
L 713.432602 106.138318 
L 713.671985 107.960218 
L 713.910815 116.363319 
L 714.149094 118.602788 
L 714.386825 112.773188 
L 714.62401 113.56764 
L 714.860651 111.832587 
L 715.096752 103.964532 
L 715.332314 108.937801 
L 715.56734 110.896243 
L 716.035794 104.9807 
L 716.269227 103.198402 
L 716.502133 110.22769 
L 716.734515 113.56764 
L 716.966376 106.320853 
L 717.197718 104.601906 
L 717.428542 112.029417 
L 718.117937 116.446138 
L 718.346716 116.629231 
L 718.57499 122.995553 
L 718.802761 116.880898 
L 719.03003 118.069436 
L 719.256801 123.420623 
L 719.483075 122.123892 
L 719.708854 114.726452 
L 719.934141 111.664998 
L 720.383245 99.786432 
L 720.607068 101.980477 
L 721.275639 87.240101 
L 721.497538 88.065965 
L 721.718961 90.117178 
L 721.939911 90.250249 
L 722.160389 91.758527 
L 722.380398 94.348035 
L 722.819014 92.875315 
L 723.037625 92.980421 
L 723.255775 97.31605 
L 723.473465 93.655661 
L 723.690698 92.680194 
L 723.907474 95.881356 
L 724.123797 96.907647 
L 724.339667 100.158333 
L 724.984584 103.703291 
L 725.198665 104.785235 
L 725.412303 104.774416 
L 725.6255 102.522823 
L 725.838258 97.722304 
L 726.050579 97.291373 
L 726.473915 103.975034 
L 726.684934 99.517484 
L 726.895524 100.609553 
L 727.105684 98.066941 
L 727.733613 104.709597 
L 727.942077 107.454406 
L 728.150121 99.083825 
L 728.357747 98.117743 
L 728.564957 100.711881 
L 728.771751 100.814594 
L 728.978133 104.4198 
L 729.184103 98.262197 
L 729.389663 98.544809 
L 729.594815 95.493722 
L 729.79956 98.760875 
L 730.614507 88.366657 
L 730.817243 91.266221 
L 731.019582 89.903096 
L 731.221525 91.160934 
L 731.624231 91.003762 
L 731.824996 92.500251 
L 732.225361 91.114999 
L 732.424963 93.419205 
L 732.62418 91.003762 
L 733.021465 97.78921 
L 733.417227 107.347226 
L 733.811479 92.603919 
L 734.204233 84.939228 
L 734.595498 85.044004 
L 734.790576 80.628982 
L 734.985287 81.138229 
L 735.179631 85.967514 
L 735.37361 83.762356 
L 735.567226 86.560299 
L 735.760479 87.18895 
L 735.953372 95.764486 
L 736.33808 102.99498 
L 736.72136 124.224897 
L 736.912468 119.256882 
L 737.103224 133.362795 
L 737.48368 105.732023 
L 737.673385 102.463132 
L 737.862741 113.418764 
L 738.051751 132.453078 
L 738.240416 122.246723 
L 738.428737 100.964689 
L 738.616715 108.253519 
L 738.804351 103.259726 
L 738.991648 103.025397 
L 739.178605 91.187218 
L 739.365225 92.51405 
L 739.551508 91.859411 
L 739.737456 99.375122 
L 739.923069 87.890623 
L 740.293299 95.975213 
L 740.662206 104.666469 
L 740.846167 104.04866 
L 741.213108 92.212056 
L 741.578751 100.814594 
L 741.943104 117.684831 
L 742.124799 125.791181 
L 742.306176 119.534118 
L 742.667977 122.890312 
L 742.848403 121.458028 
L 743.028514 118.370387 
L 743.208312 119.201772 
L 743.387798 140.835671 
L 743.566972 208.203809 
L 743.745836 185.081916 
L 743.924391 138.654507 
L 744.102638 134.754423 
L 744.280577 186.127599 
L 744.458211 148.45741 
L 744.635539 195.4378 
L 744.812564 128.658575 
L 744.989286 123.463497 
L 745.165706 130.944695 
L 745.341826 132.512791 
L 745.693166 97.460448 
L 745.868389 90.336138 
L 746.043315 90.221679 
L 746.392281 86.624185 
L 746.566323 91.026627 
L 746.740073 98.270718 
L 746.91353 116.181996 
L 747.086697 121.180376 
L 747.259574 121.768759 
L 747.432162 128.361742 
L 747.776475 167.968896 
L 747.948203 158.677537 
L 748.119645 122.04231 
L 748.461678 163.809291 
L 748.632271 127.777591 
L 748.802583 137.303472 
L 748.972614 186.557356 
L 749.142365 184.573727 
L 749.311839 146.919963 
L 749.649953 135.644897 
L 749.818597 114.293775 
L 749.986965 114.77322 
L 750.155059 101.205621 
L 750.32288 100.419869 
L 750.490429 109.267351 
L 750.657707 124.424168 
L 750.824714 115.261239 
L 750.991452 136.63485 
L 751.324122 112.867601 
L 751.490056 114.439809 
L 751.655724 129.784462 
L 751.821127 111.031942 
L 751.986265 124.413059 
L 752.315751 92.205232 
L 752.971588 86.671501 
L 753.134899 87.85278 
L 753.297951 85.049254 
L 753.785571 90.805319 
L 753.947601 86.97403 
L 754.109377 87.55479 
L 754.2709 87.474342 
L 754.432171 86.621404 
L 754.753959 78.477001 
L 754.914478 75.166485 
L 755.074748 76.676769 
L 755.394543 70.132701 
L 755.554071 69.396595 
L 755.713352 65.177094 
L 755.872388 67.771549 
L 756.03118 67.018322 
L 756.189728 63.962618 
L 757.135938 72.849963 
L 757.449425 68.589204 
L 757.605813 67.610363 
L 757.761964 65.59209 
L 757.917879 66.870949 
L 758.07356 64.451812 
L 758.229006 66.166807 
L 758.539198 62.160475 
L 758.693946 59.575137 
L 759.156802 64.855843 
L 759.464225 65.465006 
L 759.617594 63.262601 
L 759.770735 65.894844 
L 759.92365 65.750811 
L 760.076339 65.044356 
L 760.228802 67.756223 
L 760.381041 66.28137 
L 760.684847 68.609316 
L 760.987762 70.188984 
L 761.138887 70.421427 
L 761.289791 67.779912 
L 761.440475 71.165576 
L 761.59094 71.531003 
L 761.741185 71.330207 
L 762.041023 68.160345 
L 762.190616 68.821391 
L 762.339992 71.338147 
L 762.489153 71.69625 
L 762.638099 72.690951 
L 762.935348 65.556087 
L 763.083653 65.943024 
L 763.231744 64.527191 
L 763.379624 66.317022 
L 763.67475 63.741702 
L 763.821997 63.365577 
L 763.969034 61.553442 
L 764.115863 61.16889 
L 764.408896 62.774355 
L 764.555101 61.113146 
L 764.701099 61.028109 
L 764.992479 59.507105 
L 765.137861 59.555535 
L 765.283039 60.507359 
L 765.428013 60.402901 
L 765.717352 57.865018 
L 765.861718 59.887572 
L 766.005882 59.67854 
L 766.293609 55.336547 
L 766.437173 56.142691 
L 766.580537 55.367491 
L 766.723703 55.917917 
L 766.86667 55.530744 
L 767.294389 56.089957 
L 767.436569 57.343657 
L 767.578554 55.230721 
L 767.720344 55.364837 
L 767.861939 54.990612 
L 768.003341 55.128811 
L 768.144549 54.618868 
L 768.285565 53.099842 
L 768.707461 54.448132 
L 768.98777 56.666435 
L 769.12764 57.25251 
L 769.267321 56.494421 
L 769.406813 56.955555 
L 769.546117 55.727229 
L 769.685233 56.778921 
L 770.378019 66.509288 
L 770.51602 66.885786 
L 770.653837 68.72164 
L 770.791471 67.946313 
L 770.928921 71.099372 
L 771.066189 71.149799 
L 771.203274 72.122788 
L 771.476901 67.851102 
L 771.613443 66.268178 
L 771.749804 67.063097 
L 771.885986 65.215138 
L 772.021989 65.491914 
L 772.157812 64.840818 
L 772.564215 66.111673 
L 772.699328 66.432219 
L 772.969026 69.944918 
L 773.10361 69.559789 
L 773.23802 66.989867 
L 773.506316 67.958939 
L 773.773917 65.187233 
L 773.907458 64.743357 
L 774.040827 65.132776 
L 774.307049 61.586752 
L 774.439903 62.128723 
L 774.572586 60.680915 
L 774.705099 61.054246 
L 774.969616 60.141386 
L 775.101621 62.434154 
L 775.233458 62.751156 
L 775.365126 64.688533 
L 775.496627 64.709702 
L 775.627961 63.989297 
L 775.890128 64.738369 
L 776.020963 64.042733 
L 776.412475 59.979595 
L 776.542651 62.083429 
L 776.672662 62.218402 
L 776.932194 58.620841 
L 777.061717 59.090269 
L 777.191077 58.988057 
L 777.320275 56.736103 
L 777.449312 57.702646 
L 777.578187 55.04913 
L 777.835458 54.667108 
L 777.963853 52.420486 
L 778.092089 52.210083 
L 778.220165 50.36324 
L 778.348084 51.369807 
L 778.603446 49.068229 
L 778.730891 49.010705 
L 778.858178 48.404997 
L 779.112284 48.554135 
L 779.239103 48.211717 
L 779.618628 46.175147 
L 779.744827 47.147261 
L 779.996763 45.518647 
L 780.122502 44.19711 
L 780.4988 44.766974 
L 780.873734 43.60784 
L 780.998409 44.378057 
L 781.122935 44.410009 
L 781.247311 43.889846 
L 781.371537 45.251734 
L 781.495613 45.251734 
L 781.619541 44.872753 
L 781.743321 45.392535 
L 781.866952 44.306006 
L 782.113772 46.827122 
L 782.236961 46.680028 
L 782.360003 45.568637 
L 782.482899 46.441723 
L 782.605648 46.21054 
L 782.728252 46.256113 
L 782.850711 46.115209 
L 782.973025 45.59274 
L 783.095194 46.849772 
L 783.3391 45.68688 
L 783.58243 48.351589 
L 784.067379 44.260629 
L 784.429603 46.465971 
L 784.550062 46.248513 
L 784.670381 46.286538 
L 784.79056 45.910523 
L 784.9106 46.801259 
L 785.0305 46.639524 
L 785.389367 43.701134 
L 785.508713 44.178318 
L 785.627922 44.082796 
L 785.865926 44.870946 
L 785.984723 44.681928 
L 786.221908 46.062321 
L 786.340296 45.780724 
L 786.458549 47.4765 
L 786.576667 47.53486 
L 786.930212 45.709845 
L 787.047792 45.996355 
L 787.165238 46.99323 
L 787.282551 46.393929 
L 787.399731 46.390109 
L 787.633692 47.296902 
L 787.750474 47.217385 
L 787.867125 45.778234 
L 787.983644 46.203584 
L 788.216288 45.341028 
L 788.448409 44.722621 
L 788.68001 43.509708 
L 788.911093 45.796915 
L 789.02644 46.018954 
L 789.25675 47.259415 
L 789.486548 46.243447 
L 789.715835 45.616863 
L 789.944615 44.652643 
L 790.058815 44.60609 
L 790.286837 46.052887 
L 790.514357 43.699404 
L 790.627929 45.086154 
L 790.854699 44.005102 
L 791.080973 44.966855 
L 791.193924 44.569738 
L 791.306752 45.859279 
L 791.644498 44.376874 
L 791.756836 43.884038 
L 791.981144 42.003655 
L 792.204966 43.386825 
L 792.316696 42.878911 
L 792.428304 43.196451 
L 792.539793 42.458436 
L 792.651161 42.669808 
L 792.762409 44.147808 
L 793.095437 42.189679 
L 793.31686 43.121237 
L 793.53781 43.61359 
L 793.648107 42.970865 
L 793.758288 43.150054 
L 793.86835 43.975368 
L 793.978296 43.474788 
L 794.088125 43.660207 
L 794.307433 45.261506 
L 794.416912 45.597686 
L 794.526276 44.429554 
L 794.635524 44.59655 
L 794.744656 45.035827 
L 794.853674 44.825823 
L 795.071364 45.521113 
L 795.180037 45.268837 
L 795.288596 46.129078 
L 795.397041 45.793801 
L 795.505373 46.251046 
L 795.721695 47.817809 
L 796.045332 45.875517 
L 796.260527 46.764446 
L 796.475276 44.839051 
L 796.582483 44.96625 
L 796.689579 45.560608 
L 796.796563 44.070514 
L 796.903438 44.117333 
L 797.010201 43.448483 
L 797.223399 41.539802 
L 797.436156 42.267292 
L 797.542371 42.146051 
L 797.648477 42.230644 
L 797.860362 39.902101 
L 798.071813 40.637678 
L 798.282833 41.035003 
L 798.493422 39.342239 
L 798.913317 42.635945 
L 799.018024 42.51582 
L 799.122625 41.687293 
L 799.331511 42.440253 
L 799.435796 41.113068 
L 799.539975 42.274956 
L 799.748019 40.254189 
L 799.955646 40.468053 
L 800.162855 39.787407 
L 800.36965 41.743614 
L 800.576031 41.003108 
L 800.679068 40.855621 
L 800.782001 42.425384 
L 800.884833 42.094333 
L 800.987562 43.561887 
L 801.192713 43.267899 
L 801.295137 43.98003 
L 801.397459 43.906696 
L 801.499679 43.592322 
L 801.601799 43.678645 
L 801.703818 42.987158 
L 801.805736 44.25533 
L 801.907553 42.664809 
L 802.009271 43.048482 
L 802.110888 42.72096 
L 802.313823 41.054891 
L 802.415141 40.458831 
L 802.51636 40.603669 
L 802.920247 37.042835 
L 803.222129 35.394221 
L 803.422895 32.338639 
L 803.623271 36.224058 
L 803.723314 36.001275 
L 803.823259 36.915225 
L 803.923109 36.637277 
L 804.122518 35.378483 
L 804.222078 35.938266 
L 804.420912 35.130848 
L 804.520185 35.668756 
L 804.718446 35.300352 
L 804.916327 37.935934 
L 805.310956 35.78936 
L 805.409378 36.543479 
L 805.605941 33.638935 
L 805.704083 36.103267 
L 805.802131 35.063929 
L 805.900086 35.143914 
L 805.997949 35.36913 
L 806.095719 34.837039 
L 806.193396 35.518745 
L 806.290981 33.837547 
L 806.388475 34.6083 
L 806.485876 34.425775 
L 806.680403 37.180583 
L 806.777529 39.193656 
L 806.874565 37.685368 
L 806.971509 38.526512 
L 807.068362 38.171858 
L 807.261796 35.873669 
L 807.358378 36.456193 
L 807.55127 34.527805 
L 807.647582 34.76834 
L 807.743803 33.088358 
L 807.935978 35.122 
L 808.127796 33.700446 
L 808.223572 35.377207 
L 808.319258 33.566419 
L 808.510367 34.774995 
L 808.605788 36.005191 
L 808.701122 35.493539 
L 809.176474 27.783094 
L 809.271283 28.127134 
L 809.366005 28.963306 
L 809.46064 28.802763 
L 809.555188 28.417515 
L 809.64965 28.613607 
L 809.838314 27.547501 
L 810.026635 28.326726 
L 810.120667 27.178197 
L 810.308474 28.973392 
L 810.40225 29.750382 
L 810.49594 28.931726 
L 810.589546 30.00762 
L 810.683067 29.654022 
L 810.869856 32.298726 
L 811.056307 28.887107 
L 811.149406 30.026837 
L 811.242422 28.868006 
L 811.335354 29.195902 
L 811.428202 30.287413 
L 811.520968 29.107221 
L 811.613649 29.583436 
L 811.891197 27.872089 
L 812.352126 32.619297 
L 812.444065 32.444216 
L 812.627699 33.87857 
L 812.902539 30.853231 
L 813.176649 30.431407 
L 813.358986 30.030682 
L 813.813426 28.648144 
L 813.904074 28.997615 
L 813.994643 29.940296 
L 814.085133 29.399055 
L 814.175544 29.927756 
L 814.265875 31.900895 
L 814.356127 30.787384 
L 814.446301 31.82538 
L 814.626413 29.804756 
L 814.716351 30.048865 
L 815.075322 27.510186 
L 815.16487 28.628878 
L 815.254341 27.23714 
L 815.522289 29.463344 
L 815.611451 28.748347 
L 815.700536 28.902531 
L 815.878476 28.232311 
L 816.410463 33.064127 
L 816.498861 32.187277 
L 816.675432 29.854028 
L 816.939724 32.500028 
L 817.115543 30.818669 
L 817.203341 30.414031 
L 817.378713 27.642775 
L 817.466287 27.81466 
L 817.641213 28.902866 
L 817.815844 27.452559 
L 817.903049 28.364189 
L 818.077237 27.463374 
L 818.164222 28.516873 
L 818.424736 27.281984 
L 818.511429 27.576879 
L 818.77107 24.628249 
L 818.857472 25.355657 
L 819.202361 22.285552 
L 819.374374 23.625409 
L 819.803158 27.262711 
L 819.888701 26.244107 
L 819.974174 27.813049 
L 820.059576 27.592219 
L 820.230169 27.38712 
L 820.400481 26.552546 
L 820.655423 28.6977 
L 820.740264 28.373399 
L 820.909737 26.13782 
L 820.99437 26.35417 
L 821.078933 26.138123 
L 821.163427 25.566761 
L 821.247852 26.741529 
L 821.332208 25.724226 
L 821.416495 26.700348 
L 821.668945 24.923209 
L 821.752958 25.37746 
L 822.255605 22.025455 
L 822.339143 22.319524 
L 822.58935 24.349498 
L 822.755819 25.726316 
L 822.838953 25.686042 
L 822.92202 25.095367 
L 823.005021 26.411358 
L 823.087954 26.139335 
L 823.170821 24.814426 
L 823.253622 24.925238 
L 823.336357 25.040868 
L 823.831376 28.873031 
L 823.995857 27.672256 
L 824.405917 25.708111 
L 824.569486 28.852267 
L 824.651174 27.463692 
L 824.732797 28.171507 
L 824.814355 27.568574 
L 824.97728 30.635428 
L 825.058646 29.539112 
L 825.139947 28.875377 
L 825.464516 31.273263 
L 825.626419 30.223267 
L 825.868798 33.194527 
L 825.949465 31.669405 
L 826.030069 32.011178 
L 826.191088 33.815452 
L 826.432148 30.310005 
L 826.512376 28.94516 
L 826.592542 29.317204 
L 826.672646 30.544801 
L 826.752688 29.387786 
L 826.832668 29.611993 
L 826.912586 30.357369 
L 826.992442 28.476558 
L 827.072236 30.00343 
L 827.151969 29.586531 
L 827.231641 28.732343 
L 827.31125 28.929376 
L 827.470287 29.526413 
L 827.629078 27.894383 
L 827.708383 29.263792 
L 827.866809 26.540855 
L 828.182934 30.265544 
L 828.261815 30.292 
L 828.419395 32.722496 
L 828.498095 31.477065 
L 828.655316 33.817058 
L 828.733837 33.754483 
L 828.812298 34.796632 
L 829.203711 30.447374 
L 829.281816 30.196877 
L 829.43785 30.469034 
L 829.515778 30.290589 
L 829.826904 34.482091 
L 829.90454 35.280854 
L 829.982117 33.668076 
L 830.214499 36.548361 
L 830.291844 36.481863 
L 830.44636 39.436811 
L 830.523532 38.905184 
L 830.600645 40.010728 
L 830.677702 39.288204 
L 830.7547 39.902603 
L 830.831642 41.808661 
L 830.908526 41.384624 
L 830.985353 42.053029 
L 831.062123 40.20035 
L 831.215492 42.853734 
L 831.597921 47.203608 
L 831.674237 46.060434 
L 831.750497 46.493435 
L 831.8267 48.761667 
L 831.902848 48.585854 
L 831.978939 46.222559 
L 832.054974 46.317632 
L 832.130954 49.187169 
L 832.206877 46.199159 
L 832.282745 46.581123 
L 832.434314 45.657117 
L 832.510015 49.49501 
L 832.58566 49.369752 
L 832.66125 50.253005 
L 832.812265 47.587357 
L 832.963059 50.483536 
L 833.188838 49.338527 
L 833.263988 50.122038 
L 833.339084 47.923329 
L 833.414125 48.162761 
L 833.638921 58.746702 
L 833.713745 57.496248 
L 833.788514 58.737693 
L 833.86323 64.348352 
L 833.937891 60.673393 
L 834.161552 70.384594 
L 834.235998 66.569233 
L 834.31039 70.426035 
L 834.607425 56.359238 
L 834.681551 55.645784 
L 834.755623 56.279546 
L 834.829643 60.090855 
L 834.903609 55.682449 
L 834.977522 57.662204 
L 835.198946 50.273548 
L 835.272648 50.58654 
L 835.49344 54.556112 
L 835.566933 51.462415 
L 835.640373 51.607698 
L 835.713762 51.307989 
L 835.933614 44.588802 
L 836.006794 43.87707 
L 836.44479 50.781754 
L 836.517609 50.792225 
L 836.590377 50.995704 
L 836.808374 46.868554 
L 836.880937 46.77994 
L 836.953449 46.495352 
L 837.170682 40.794359 
L 837.31525 39.134546 
L 837.459616 36.396098 
L 837.531723 37.062277 
L 837.675788 40.055613 
L 837.819651 37.464608 
L 837.891508 37.643752 
L 837.963314 37.5515 
L 838.106778 39.173124 
L 838.321601 36.678723 
L 838.749911 40.588224 
L 838.821124 40.13244 
L 838.963402 36.470353 
L 839.034467 36.481863 
L 839.176452 38.891639 
L 839.247371 38.348135 
L 839.389064 39.007964 
L 839.459838 37.291649 
L 839.530563 38.579536 
L 839.601239 38.330598 
L 839.671868 38.278055 
L 839.81298 36.396981 
L 840.094627 40.447052 
L 840.235163 37.493082 
L 840.305359 37.717316 
L 840.375508 37.349181 
L 840.445609 35.244439 
L 840.515662 36.065303 
L 840.585668 35.752692 
L 840.655627 36.058762 
L 840.725538 35.855488 
L 841.074387 41.136689 
L 841.144015 40.844189 
L 841.213597 41.269344 
L 841.283132 41.156651 
L 841.491456 36.177166 
L 841.560804 38.72865 
L 841.630105 38.527944 
L 841.69936 37.600816 
L 841.768569 38.025279 
L 841.975917 40.379038 
L 842.044941 39.045391 
L 842.113918 40.429649 
L 842.18285 40.154214 
L 842.320575 40.546053 
L 842.595476 37.008055 
L 842.664087 36.946734 
L 842.869647 32.969362 
L 843.074799 31.024529 
L 843.143093 31.196908 
L 843.483885 35.510198 
L 843.619887 38.444076 
L 843.687821 37.941071 
L 843.755711 35.25248 
L 843.823556 35.582934 
L 843.891356 35.326654 
L 843.959112 33.885816 
L 844.026824 36.196877 
L 844.094491 36.054403 
L 844.162114 35.657154 
L 844.229692 34.426596 
L 844.297227 34.565752 
L 844.634238 38.997766 
L 844.903058 35.917006 
L 844.970154 36.256535 
L 845.104215 40.148642 
L 845.17118 39.413137 
L 845.238102 38.330124 
L 845.971395 50.997212 
L 846.104164 45.658356 
L 846.170484 46.863372 
L 846.236762 47.016019 
L 846.435341 54.091253 
L 846.501449 53.401073 
L 846.567515 53.734814 
L 846.633538 49.325055 
L 846.69952 49.888015 
L 846.765459 49.870652 
L 846.963025 57.085252 
L 847.291463 48.180429 
L 847.553465 46.432158 
L 847.618861 45.060676 
L 847.74953 47.734087 
L 847.74953 47.734087 
" style="fill:none;stroke:#008000;stroke-linecap:square;stroke-width:1.5;"/>
   </g>
   <g id="patch_3">
    <path d="M 48.794985 333.36 
L 48.794985 7.2 
" style="fill:none;stroke:#000000;stroke-linecap:square;stroke-linejoin:miter;stroke-width:0.8;"/>
   </g>
   <g id="patch_4">
    <path d="M 885.794985 333.36 
L 885.794985 7.2 
" style="fill:none;stroke:#000000;stroke-linecap:square;stroke-linejoin:miter;stroke-width:0.8;"/>
   </g>
   <g id="patch_5">
    <path d="M 48.794985 333.36 
L 885.794985 333.36 
" style="fill:none;stroke:#000000;stroke-linecap:square;stroke-linejoin:miter;stroke-width:0.8;"/>
   </g>
   <g id="patch_6">
    <path d="M 48.794985 7.2 
L 885.794985 7.2 
" style="fill:none;stroke:#000000;stroke-linecap:square;stroke-linejoin:miter;stroke-width:0.8;"/>
   </g>
   <g id="legend_1">
    <g id="patch_7">
     <path d="M 57.194985 62.294209 
L 153.620948 62.294209 
Q 156.020948 62.294209 156.020948 59.894209 
L 156.020948 15.6 
Q 156.020948 13.2 153.620948 13.2 
L 57.194985 13.2 
Q 54.794985 13.2 54.794985 15.6 
L 54.794985 59.894209 
Q 54.794985 62.294209 57.194985 62.294209 
z
" style="fill:#ffffff;opacity:0.8;stroke:#cccccc;stroke-linejoin:miter;"/>
    </g>
    <g id="line2d_90">
     <path d="M 59.594985 26.878884 
L 83.594985 26.878884 
" style="fill:none;stroke:#0000ff;stroke-linecap:square;stroke-width:1.5;"/>
    </g>
    <g id="line2d_91"/>
    <g id="text_10">
     <!-- Error in $S_N^{(1)}$ -->
     <g transform="translate(93.194985 31.078884)scale(0.12 -0.12)">
      <defs>
       <path d="M 59.703125 16.984375 
L 56.90625 16.984375 
C 51.90625 6.109375 47.59375 3.6875 33.296875 3.6875 
L 30.59375 3.6875 
C 25.703125 3.6875 21.5 4.203125 20.796875 4.90625 
C 20.296875 5.203125 20.09375 6.3125 20.09375 8.015625 
L 20.09375 32.890625 
L 35.5 32.890625 
C 43.703125 32.890625 45.203125 31.578125 46.5 23.234375 
L 48.796875 23.234375 
L 48.796875 46.34375 
L 46.5 46.34375 
C 45.796875 42.3125 45.40625 40.828125 44.296875 39.453125 
C 43 37.78125 40.203125 37 35.5 37 
L 20.09375 37 
L 20.09375 58.84375 
C 20.09375 61.59375 20.703125 62.1875 23.40625 62.1875 
L 36.90625 62.1875 
C 48.203125 62.1875 50.40625 60.71875 52.09375 51.859375 
L 54.59375 51.859375 
L 54.296875 66 
L 1.203125 66 
L 1.203125 64.09375 
C 8.59375 63.5 9.90625 62.109375 9.90625 55.125 
L 9.90625 10.859375 
C 9.90625 3.890625 8.5 2.390625 1.203125 1.890625 
L 1.203125 0 
L 55.203125 0 
z
" id="Nimbus_Roman_No9_L_Regular-69"/>
       <path d="M 0.703125 39 
C 2.09375 39.296875 3 39.390625 4.203125 39.390625 
C 6.703125 39.390625 7.59375 37.796875 7.59375 33.390625 
L 7.59375 8.390625 
C 7.59375 3.390625 6.90625 2.6875 0.5 1.5 
L 0.5 0 
L 24.5 0 
L 24.5 1.5 
C 17.703125 1.796875 16 3.296875 16 9 
L 16 31.5 
C 16 34.6875 20.296875 39.6875 23 39.6875 
C 23.59375 39.6875 24.5 39.1875 25.59375 38.1875 
C 27.203125 36.796875 28.296875 36.1875 29.59375 36.1875 
C 32 36.1875 33.5 37.890625 33.5 40.6875 
C 33.5 43.984375 31.40625 46 28 46 
C 23.796875 46 20.90625 43.6875 16 36.59375 
L 16 45.796875 
L 15.5 46 
C 10.203125 43.796875 6.59375 42.5 0.703125 40.59375 
z
" id="Nimbus_Roman_No9_L_Regular-114"/>
       <path d="M 25 46 
C 12 46 2.90625 36.390625 2.90625 22.59375 
C 2.90625 9.09375 12.203125 -1 24.796875 -1 
C 37.40625 -1 47 9.59375 47 23.390625 
C 47 36.5 37.796875 46 25 46 
z
M 23.703125 43.1875 
C 32.09375 43.1875 38 33.59375 38 19.890625 
C 38 8.59375 33.5 1.796875 26 1.796875 
C 22.09375 1.796875 18.40625 4.1875 16.296875 8.1875 
C 13.5 13.390625 11.90625 20.390625 11.90625 27.5 
C 11.90625 37 16.59375 43.1875 23.703125 43.1875 
z
" id="Nimbus_Roman_No9_L_Regular-111"/>
       <path d="M 17.5 46 
L 2 40.5 
L 2 39 
L 2.796875 39.09375 
C 4 39.296875 5.296875 39.390625 6.203125 39.390625 
C 8.59375 39.390625 9.5 37.796875 9.5 33.390625 
L 9.5 10.1875 
C 9.5 3 8.5 1.890625 1.59375 1.5 
L 1.59375 0 
L 25.296875 0 
L 25.296875 1.5 
C 18.703125 2 17.90625 3 17.90625 10.1875 
L 17.90625 45.6875 
z
M 12.796875 68 
C 10.09375 68 7.796875 65.6875 7.796875 62.890625 
C 7.796875 60.09375 10 57.796875 12.796875 57.796875 
C 15.703125 57.796875 18 59.984375 18 62.890625 
C 18 65.6875 15.703125 68 12.796875 68 
z
" id="Nimbus_Roman_No9_L_Regular-105"/>
       <path d="M 1.59375 39.796875 
C 2.203125 40.09375 3.203125 40.1875 4.296875 40.1875 
C 7.09375 40.1875 8 38.6875 8 33.796875 
L 8 9 
C 8 3.296875 6.90625 1.890625 1.796875 1.5 
L 1.796875 0 
L 23 0 
L 23 1.5 
C 17.90625 1.890625 16.40625 3.09375 16.40625 6.6875 
L 16.40625 34.796875 
C 21.203125 39.296875 23.40625 40.484375 26.703125 40.484375 
C 31.59375 40.484375 34 37.390625 34 30.796875 
L 34 9.890625 
C 34 3.59375 32.703125 1.890625 27.703125 1.5 
L 27.703125 0 
L 48.5 0 
L 48.5 1.5 
C 43.59375 2 42.40625 3.1875 42.40625 8.09375 
L 42.40625 31 
C 42.40625 40.390625 38 46 30.59375 46 
C 26 46 22.90625 44.296875 16.09375 37.890625 
L 16.09375 45.796875 
L 15.40625 46 
C 10.5 44.1875 7.09375 43.09375 1.59375 41.484375 
z
" id="Nimbus_Roman_No9_L_Regular-110"/>
       <path d="M 46.796875 47.09375 
L 50.796875 67 
L 48.5 67 
C 47.09375 64.890625 46.203125 64.390625 44 64.390625 
C 42.796875 64.390625 41.703125 64.6875 39.40625 65.484375 
C 37.203125 66.484375 34 67 30.90625 67 
C 20.5 67 13.09375 60.046875 13.09375 50.15625 
C 13.09375 44.703125 14.59375 41.78125 20.59375 35.3125 
C 21.5 34.40625 22.796875 33 24.5 31.078125 
C 26.296875 29.15625 27.703125 27.640625 28.40625 26.828125 
C 33.09375 21.890625 34.40625 19.265625 34.40625 14.921875 
C 34.40625 7.34375 28.796875 1.5 21.5 1.5 
C 13.203125 1.5 6.90625 8.65625 6.90625 18.25 
C 6.90625 19.0625 7 19.875 7.09375 20.578125 
L 5.09375 20.78125 
L 1.703125 -1.703125 
L 3.5 -1.703125 
C 4.203125 0.59375 5.296875 1.59375 7.296875 1.59375 
C 8.40625 1.59375 9.90625 1.1875 12.5 0.296875 
C 17.09375 -1.40625 19.796875 -2 22.90625 -2 
C 34.40625 -2 43.09375 6.75 43.09375 18.15625 
C 43.09375 24.71875 40.796875 28.65625 31.796875 37.84375 
C 22.796875 47.03125 21.90625 48.4375 21.90625 53.390625 
C 21.90625 59.75 26.09375 63.6875 32.90625 63.6875 
C 36.59375 63.6875 39.703125 62.375 41.796875 59.953125 
C 44 57.421875 44.796875 54 45 47.328125 
z
" id="Nimbus_Roman_No9_L_Regular_Italic-83"/>
       <path d="M 33.09375 -24 
C 33.09375 -23.703125 33.09375 -23.5 31.40625 -21.8125 
C 18.90625 -9.203125 15.703125 9.6875 15.703125 25 
C 15.703125 42.390625 19.5 59.796875 31.796875 72.296875 
C 33.09375 73.5 33.09375 73.6875 33.09375 74 
C 33.09375 74.6875 32.703125 75 32.09375 75 
C 31.09375 75 22.09375 68.203125 16.203125 55.5 
C 11.09375 44.5 9.90625 33.390625 9.90625 25 
C 9.90625 17.1875 11 5.09375 16.5 -6.203125 
C 22.5 -18.5 31.09375 -25 32.09375 -25 
C 32.703125 -25 33.09375 -24.703125 33.09375 -24 
z
" id="CMR10-40"/>
       <path d="M 28.90625 25 
C 28.90625 32.796875 27.796875 44.890625 22.296875 56.203125 
C 16.296875 68.5 7.703125 75 6.703125 75 
C 6.09375 75 5.703125 74.59375 5.703125 74 
C 5.703125 73.6875 5.703125 73.5 7.59375 71.703125 
C 17.40625 61.796875 23.09375 45.890625 23.09375 25 
C 23.09375 7.890625 19.40625 -9.703125 7 -22.3125 
C 5.703125 -23.5 5.703125 -23.703125 5.703125 -24 
C 5.703125 -24.609375 6.09375 -25 6.703125 -25 
C 7.703125 -25 16.703125 -18.203125 22.59375 -5.5 
C 27.703125 5.5 28.90625 16.59375 28.90625 25 
z
" id="CMR10-41"/>
       <path d="M 72.703125 65 
L 52.796875 65 
L 52.796875 63.390625 
C 58.5 62.890625 59.796875 61.890625 59.796875 58.265625 
C 59.796875 57.0625 59.59375 55.859375 58.90625 53.859375 
C 58.796875 53.5625 58.703125 53.15625 58.703125 53.0625 
L 48.5 14.9375 
L 27.703125 65 
L 11.59375 65 
L 11.59375 63.390625 
C 16.296875 62.984375 18.40625 61.6875 20.203125 57.765625 
L 8.296875 15.9375 
C 4.5 3.109375 3.703125 1.890625 -2 1.09375 
L -2 -0.5 
L 17.796875 -0.5 
L 17.796875 1.09375 
C 12.703125 1.5 10.796875 2.59375 10.796875 5.40625 
C 10.796875 6.71875 11.09375 8.71875 11.703125 10.828125 
L 23.09375 53.15625 
L 46.09375 -2 
L 47.90625 -2 
L 62.296875 48.4375 
C 66 61.390625 66.40625 61.984375 72.703125 63.390625 
z
" id="Nimbus_Roman_No9_L_Regular_Italic-78"/>
      </defs>
      <use transform="scale(0.996264)" xlink:href="#Nimbus_Roman_No9_L_Regular-69"/>
      <use transform="translate(60.871631 0)scale(0.996264)" xlink:href="#Nimbus_Roman_No9_L_Regular-114"/>
      <use transform="translate(94.04686 0)scale(0.996264)" xlink:href="#Nimbus_Roman_No9_L_Regular-114"/>
      <use transform="translate(127.22209 0)scale(0.996264)" xlink:href="#Nimbus_Roman_No9_L_Regular-111"/>
      <use transform="translate(177.035291 0)scale(0.996264)" xlink:href="#Nimbus_Roman_No9_L_Regular-114"/>
      <use transform="translate(235.117121 0)scale(0.996264)" xlink:href="#Nimbus_Roman_No9_L_Regular-105"/>
      <use transform="translate(262.81229 0)scale(0.996264)" xlink:href="#Nimbus_Roman_No9_L_Regular-110"/>
      <use transform="translate(337.532091 0)scale(0.996264)" xlink:href="#Nimbus_Roman_No9_L_Regular_Italic-83"/>
      <use transform="translate(388.141865 52.701919)scale(0.737241)" xlink:href="#CMR10-40"/>
      <use transform="translate(416.745919 52.701919)scale(0.737241)" xlink:href="#Nimbus_Roman_No9_L_Regular-49"/>
      <use transform="translate(453.607961 52.701919)scale(0.737241)" xlink:href="#CMR10-41"/>
      <use transform="translate(387.345291 -29.511935)scale(0.737241)" xlink:href="#Nimbus_Roman_No9_L_Regular_Italic-78"/>
     </g>
    </g>
    <g id="line2d_92">
     <path d="M 59.594985 49.625988 
L 83.594985 49.625988 
" style="fill:none;stroke:#008000;stroke-linecap:square;stroke-width:1.5;"/>
    </g>
    <g id="line2d_93"/>
    <g id="text_11">
     <!-- Error in $S_N^{(2)}$ -->
     <g transform="translate(93.194985 53.825988)scale(0.12 -0.12)">
      <use transform="scale(0.996264)" xlink:href="#Nimbus_Roman_No9_L_Regular-69"/>
      <use transform="translate(60.871631 0)scale(0.996264)" xlink:href="#Nimbus_Roman_No9_L_Regular-114"/>
      <use transform="translate(94.04686 0)scale(0.996264)" xlink:href="#Nimbus_Roman_No9_L_Regular-114"/>
      <use transform="translate(127.22209 0)scale(0.996264)" xlink:href="#Nimbus_Roman_No9_L_Regular-111"/>
      <use transform="translate(177.035291 0)scale(0.996264)" xlink:href="#Nimbus_Roman_No9_L_Regular-114"/>
      <use transform="translate(235.117121 0)scale(0.996264)" xlink:href="#Nimbus_Roman_No9_L_Regular-105"/>
      <use transform="translate(262.81229 0)scale(0.996264)" xlink:href="#Nimbus_Roman_No9_L_Regular-110"/>
      <use transform="translate(337.532091 0)scale(0.996264)" xlink:href="#Nimbus_Roman_No9_L_Regular_Italic-83"/>
      <use transform="translate(388.141865 52.701919)scale(0.737241)" xlink:href="#CMR10-40"/>
      <use transform="translate(416.745919 52.701919)scale(0.737241)" xlink:href="#Nimbus_Roman_No9_L_Regular-50"/>
      <use transform="translate(453.607961 52.701919)scale(0.737241)" xlink:href="#CMR10-41"/>
      <use transform="translate(387.345291 -29.511935)scale(0.737241)" xlink:href="#Nimbus_Roman_No9_L_Regular_Italic-78"/>
     </g>
    </g>
   </g>
  </g>
 </g>
 <defs>
  <clipPath id="p4e417ce774">
   <rect height="326.16" width="837" x="48.794985" y="7.2"/>
  </clipPath>
 </defs>
</svg>
