<?xml version="1.0" encoding="utf-8" standalone="no"?>
<!DOCTYPE svg PUBLIC "-//W3C//DTD SVG 1.1//EN"
  "http://www.w3.org/Graphics/SVG/1.1/DTD/svg11.dtd">
<!-- Created with matplotlib (https://matplotlib.org/) -->
<svg height="683.398125pt" version="1.1" viewBox="0 0 883.85 683.398125" width="883.85pt" xmlns="http://www.w3.org/2000/svg" xmlns:xlink="http://www.w3.org/1999/xlink">
 <metadata>
  <rdf:RDF xmlns:cc="http://creativecommons.org/ns#" xmlns:dc="http://purl.org/dc/elements/1.1/" xmlns:rdf="http://www.w3.org/1999/02/22-rdf-syntax-ns#">
   <cc:Work>
    <dc:type rdf:resource="http://purl.org/dc/dcmitype/StillImage"/>
    <dc:date>2021-04-19T16:29:14.834758</dc:date>
    <dc:format>image/svg+xml</dc:format>
    <dc:creator>
     <cc:Agent>
      <dc:title>Matplotlib v3.3.4, https://matplotlib.org/</dc:title>
     </cc:Agent>
    </dc:creator>
   </cc:Work>
  </rdf:RDF>
 </metadata>
 <defs>
  <style type="text/css">*{stroke-linecap:butt;stroke-linejoin:round;}</style>
 </defs>
 <g id="figure_1">
  <g id="patch_1">
   <path d="M -0 683.398125 
L 883.85 683.398125 
L 883.85 0 
L -0 0 
z
" style="fill:none;"/>
  </g>
  <g id="axes_1">
   <g id="patch_2">
    <path d="M 39.65 100.388571 
L 876.65 100.388571 
L 876.65 7.2 
L 39.65 7.2 
z
" style="fill:#ffffff;"/>
   </g>
   <g id="matplotlib.axis_1">
    <g id="xtick_1">
     <g id="line2d_1">
      <path clip-path="url(#p88a61921ce)" d="M 67.94021 100.388571 
L 67.94021 7.2 
" style="fill:none;stroke:#666666;stroke-linecap:square;stroke-opacity:0.3;stroke-width:0.8;"/>
     </g>
     <g id="line2d_2">
      <defs>
       <path d="M 0 0 
L 0 3.5 
" id="m01a08a2f72" style="stroke:#000000;stroke-width:0.8;"/>
      </defs>
      <g>
       <use style="stroke:#000000;stroke-width:0.8;" x="67.94021" xlink:href="#m01a08a2f72" y="100.388571"/>
      </g>
     </g>
     <g id="text_1">
      <!-- 0 -->
      <g transform="translate(64.75896 114.987009)scale(0.1 -0.1)">
       <defs>
        <path d="M 31.78125 66.40625 
Q 24.171875 66.40625 20.328125 58.90625 
Q 16.5 51.421875 16.5 36.375 
Q 16.5 21.390625 20.328125 13.890625 
Q 24.171875 6.390625 31.78125 6.390625 
Q 39.453125 6.390625 43.28125 13.890625 
Q 47.125 21.390625 47.125 36.375 
Q 47.125 51.421875 43.28125 58.90625 
Q 39.453125 66.40625 31.78125 66.40625 
z
M 31.78125 74.21875 
Q 44.046875 74.21875 50.515625 64.515625 
Q 56.984375 54.828125 56.984375 36.375 
Q 56.984375 17.96875 50.515625 8.265625 
Q 44.046875 -1.421875 31.78125 -1.421875 
Q 19.53125 -1.421875 13.0625 8.265625 
Q 6.59375 17.96875 6.59375 36.375 
Q 6.59375 54.828125 13.0625 64.515625 
Q 19.53125 74.21875 31.78125 74.21875 
z
" id="DejaVuSans-48"/>
       </defs>
       <use xlink:href="#DejaVuSans-48"/>
      </g>
     </g>
    </g>
    <g id="xtick_2">
     <g id="line2d_3">
      <path clip-path="url(#p88a61921ce)" d="M 165.492657 100.388571 
L 165.492657 7.2 
" style="fill:none;stroke:#666666;stroke-linecap:square;stroke-opacity:0.3;stroke-width:0.8;"/>
     </g>
     <g id="line2d_4">
      <g>
       <use style="stroke:#000000;stroke-width:0.8;" x="165.492657" xlink:href="#m01a08a2f72" y="100.388571"/>
      </g>
     </g>
     <g id="text_2">
      <!-- 10 -->
      <g transform="translate(159.130157 114.987009)scale(0.1 -0.1)">
       <defs>
        <path d="M 12.40625 8.296875 
L 28.515625 8.296875 
L 28.515625 63.921875 
L 10.984375 60.40625 
L 10.984375 69.390625 
L 28.421875 72.90625 
L 38.28125 72.90625 
L 38.28125 8.296875 
L 54.390625 8.296875 
L 54.390625 0 
L 12.40625 0 
z
" id="DejaVuSans-49"/>
       </defs>
       <use xlink:href="#DejaVuSans-49"/>
       <use x="63.623047" xlink:href="#DejaVuSans-48"/>
      </g>
     </g>
    </g>
    <g id="xtick_3">
     <g id="line2d_5">
      <path clip-path="url(#p88a61921ce)" d="M 263.045105 100.388571 
L 263.045105 7.2 
" style="fill:none;stroke:#666666;stroke-linecap:square;stroke-opacity:0.3;stroke-width:0.8;"/>
     </g>
     <g id="line2d_6">
      <g>
       <use style="stroke:#000000;stroke-width:0.8;" x="263.045105" xlink:href="#m01a08a2f72" y="100.388571"/>
      </g>
     </g>
     <g id="text_3">
      <!-- 20 -->
      <g transform="translate(256.682605 114.987009)scale(0.1 -0.1)">
       <defs>
        <path d="M 19.1875 8.296875 
L 53.609375 8.296875 
L 53.609375 0 
L 7.328125 0 
L 7.328125 8.296875 
Q 12.9375 14.109375 22.625 23.890625 
Q 32.328125 33.6875 34.8125 36.53125 
Q 39.546875 41.84375 41.421875 45.53125 
Q 43.3125 49.21875 43.3125 52.78125 
Q 43.3125 58.59375 39.234375 62.25 
Q 35.15625 65.921875 28.609375 65.921875 
Q 23.96875 65.921875 18.8125 64.3125 
Q 13.671875 62.703125 7.8125 59.421875 
L 7.8125 69.390625 
Q 13.765625 71.78125 18.9375 73 
Q 24.125 74.21875 28.421875 74.21875 
Q 39.75 74.21875 46.484375 68.546875 
Q 53.21875 62.890625 53.21875 53.421875 
Q 53.21875 48.921875 51.53125 44.890625 
Q 49.859375 40.875 45.40625 35.40625 
Q 44.1875 33.984375 37.640625 27.21875 
Q 31.109375 20.453125 19.1875 8.296875 
z
" id="DejaVuSans-50"/>
       </defs>
       <use xlink:href="#DejaVuSans-50"/>
       <use x="63.623047" xlink:href="#DejaVuSans-48"/>
      </g>
     </g>
    </g>
    <g id="xtick_4">
     <g id="line2d_7">
      <path clip-path="url(#p88a61921ce)" d="M 360.597552 100.388571 
L 360.597552 7.2 
" style="fill:none;stroke:#666666;stroke-linecap:square;stroke-opacity:0.3;stroke-width:0.8;"/>
     </g>
     <g id="line2d_8">
      <g>
       <use style="stroke:#000000;stroke-width:0.8;" x="360.597552" xlink:href="#m01a08a2f72" y="100.388571"/>
      </g>
     </g>
     <g id="text_4">
      <!-- 30 -->
      <g transform="translate(354.235052 114.987009)scale(0.1 -0.1)">
       <defs>
        <path d="M 40.578125 39.3125 
Q 47.65625 37.796875 51.625 33 
Q 55.609375 28.21875 55.609375 21.1875 
Q 55.609375 10.40625 48.1875 4.484375 
Q 40.765625 -1.421875 27.09375 -1.421875 
Q 22.515625 -1.421875 17.65625 -0.515625 
Q 12.796875 0.390625 7.625 2.203125 
L 7.625 11.71875 
Q 11.71875 9.328125 16.59375 8.109375 
Q 21.484375 6.890625 26.8125 6.890625 
Q 36.078125 6.890625 40.9375 10.546875 
Q 45.796875 14.203125 45.796875 21.1875 
Q 45.796875 27.640625 41.28125 31.265625 
Q 36.765625 34.90625 28.71875 34.90625 
L 20.21875 34.90625 
L 20.21875 43.015625 
L 29.109375 43.015625 
Q 36.375 43.015625 40.234375 45.921875 
Q 44.09375 48.828125 44.09375 54.296875 
Q 44.09375 59.90625 40.109375 62.90625 
Q 36.140625 65.921875 28.71875 65.921875 
Q 24.65625 65.921875 20.015625 65.03125 
Q 15.375 64.15625 9.8125 62.3125 
L 9.8125 71.09375 
Q 15.4375 72.65625 20.34375 73.4375 
Q 25.25 74.21875 29.59375 74.21875 
Q 40.828125 74.21875 47.359375 69.109375 
Q 53.90625 64.015625 53.90625 55.328125 
Q 53.90625 49.265625 50.4375 45.09375 
Q 46.96875 40.921875 40.578125 39.3125 
z
" id="DejaVuSans-51"/>
       </defs>
       <use xlink:href="#DejaVuSans-51"/>
       <use x="63.623047" xlink:href="#DejaVuSans-48"/>
      </g>
     </g>
    </g>
    <g id="xtick_5">
     <g id="line2d_9">
      <path clip-path="url(#p88a61921ce)" d="M 458.15 100.388571 
L 458.15 7.2 
" style="fill:none;stroke:#666666;stroke-linecap:square;stroke-opacity:0.3;stroke-width:0.8;"/>
     </g>
     <g id="line2d_10">
      <g>
       <use style="stroke:#000000;stroke-width:0.8;" x="458.15" xlink:href="#m01a08a2f72" y="100.388571"/>
      </g>
     </g>
     <g id="text_5">
      <!-- 40 -->
      <g transform="translate(451.7875 114.987009)scale(0.1 -0.1)">
       <defs>
        <path d="M 37.796875 64.3125 
L 12.890625 25.390625 
L 37.796875 25.390625 
z
M 35.203125 72.90625 
L 47.609375 72.90625 
L 47.609375 25.390625 
L 58.015625 25.390625 
L 58.015625 17.1875 
L 47.609375 17.1875 
L 47.609375 0 
L 37.796875 0 
L 37.796875 17.1875 
L 4.890625 17.1875 
L 4.890625 26.703125 
z
" id="DejaVuSans-52"/>
       </defs>
       <use xlink:href="#DejaVuSans-52"/>
       <use x="63.623047" xlink:href="#DejaVuSans-48"/>
      </g>
     </g>
    </g>
    <g id="xtick_6">
     <g id="line2d_11">
      <path clip-path="url(#p88a61921ce)" d="M 555.702448 100.388571 
L 555.702448 7.2 
" style="fill:none;stroke:#666666;stroke-linecap:square;stroke-opacity:0.3;stroke-width:0.8;"/>
     </g>
     <g id="line2d_12">
      <g>
       <use style="stroke:#000000;stroke-width:0.8;" x="555.702448" xlink:href="#m01a08a2f72" y="100.388571"/>
      </g>
     </g>
     <g id="text_6">
      <!-- 50 -->
      <g transform="translate(549.339948 114.987009)scale(0.1 -0.1)">
       <defs>
        <path d="M 10.796875 72.90625 
L 49.515625 72.90625 
L 49.515625 64.59375 
L 19.828125 64.59375 
L 19.828125 46.734375 
Q 21.96875 47.46875 24.109375 47.828125 
Q 26.265625 48.1875 28.421875 48.1875 
Q 40.625 48.1875 47.75 41.5 
Q 54.890625 34.8125 54.890625 23.390625 
Q 54.890625 11.625 47.5625 5.09375 
Q 40.234375 -1.421875 26.90625 -1.421875 
Q 22.3125 -1.421875 17.546875 -0.640625 
Q 12.796875 0.140625 7.71875 1.703125 
L 7.71875 11.625 
Q 12.109375 9.234375 16.796875 8.0625 
Q 21.484375 6.890625 26.703125 6.890625 
Q 35.15625 6.890625 40.078125 11.328125 
Q 45.015625 15.765625 45.015625 23.390625 
Q 45.015625 31 40.078125 35.4375 
Q 35.15625 39.890625 26.703125 39.890625 
Q 22.75 39.890625 18.8125 39.015625 
Q 14.890625 38.140625 10.796875 36.28125 
z
" id="DejaVuSans-53"/>
       </defs>
       <use xlink:href="#DejaVuSans-53"/>
       <use x="63.623047" xlink:href="#DejaVuSans-48"/>
      </g>
     </g>
    </g>
    <g id="xtick_7">
     <g id="line2d_13">
      <path clip-path="url(#p88a61921ce)" d="M 653.254895 100.388571 
L 653.254895 7.2 
" style="fill:none;stroke:#666666;stroke-linecap:square;stroke-opacity:0.3;stroke-width:0.8;"/>
     </g>
     <g id="line2d_14">
      <g>
       <use style="stroke:#000000;stroke-width:0.8;" x="653.254895" xlink:href="#m01a08a2f72" y="100.388571"/>
      </g>
     </g>
     <g id="text_7">
      <!-- 60 -->
      <g transform="translate(646.892395 114.987009)scale(0.1 -0.1)">
       <defs>
        <path d="M 33.015625 40.375 
Q 26.375 40.375 22.484375 35.828125 
Q 18.609375 31.296875 18.609375 23.390625 
Q 18.609375 15.53125 22.484375 10.953125 
Q 26.375 6.390625 33.015625 6.390625 
Q 39.65625 6.390625 43.53125 10.953125 
Q 47.40625 15.53125 47.40625 23.390625 
Q 47.40625 31.296875 43.53125 35.828125 
Q 39.65625 40.375 33.015625 40.375 
z
M 52.59375 71.296875 
L 52.59375 62.3125 
Q 48.875 64.0625 45.09375 64.984375 
Q 41.3125 65.921875 37.59375 65.921875 
Q 27.828125 65.921875 22.671875 59.328125 
Q 17.53125 52.734375 16.796875 39.40625 
Q 19.671875 43.65625 24.015625 45.921875 
Q 28.375 48.1875 33.59375 48.1875 
Q 44.578125 48.1875 50.953125 41.515625 
Q 57.328125 34.859375 57.328125 23.390625 
Q 57.328125 12.15625 50.6875 5.359375 
Q 44.046875 -1.421875 33.015625 -1.421875 
Q 20.359375 -1.421875 13.671875 8.265625 
Q 6.984375 17.96875 6.984375 36.375 
Q 6.984375 53.65625 15.1875 63.9375 
Q 23.390625 74.21875 37.203125 74.21875 
Q 40.921875 74.21875 44.703125 73.484375 
Q 48.484375 72.75 52.59375 71.296875 
z
" id="DejaVuSans-54"/>
       </defs>
       <use xlink:href="#DejaVuSans-54"/>
       <use x="63.623047" xlink:href="#DejaVuSans-48"/>
      </g>
     </g>
    </g>
    <g id="xtick_8">
     <g id="line2d_15">
      <path clip-path="url(#p88a61921ce)" d="M 750.807343 100.388571 
L 750.807343 7.2 
" style="fill:none;stroke:#666666;stroke-linecap:square;stroke-opacity:0.3;stroke-width:0.8;"/>
     </g>
     <g id="line2d_16">
      <g>
       <use style="stroke:#000000;stroke-width:0.8;" x="750.807343" xlink:href="#m01a08a2f72" y="100.388571"/>
      </g>
     </g>
     <g id="text_8">
      <!-- 70 -->
      <g transform="translate(744.444843 114.987009)scale(0.1 -0.1)">
       <defs>
        <path d="M 8.203125 72.90625 
L 55.078125 72.90625 
L 55.078125 68.703125 
L 28.609375 0 
L 18.3125 0 
L 43.21875 64.59375 
L 8.203125 64.59375 
z
" id="DejaVuSans-55"/>
       </defs>
       <use xlink:href="#DejaVuSans-55"/>
       <use x="63.623047" xlink:href="#DejaVuSans-48"/>
      </g>
     </g>
    </g>
    <g id="xtick_9">
     <g id="line2d_17">
      <path clip-path="url(#p88a61921ce)" d="M 848.35979 100.388571 
L 848.35979 7.2 
" style="fill:none;stroke:#666666;stroke-linecap:square;stroke-opacity:0.3;stroke-width:0.8;"/>
     </g>
     <g id="line2d_18">
      <g>
       <use style="stroke:#000000;stroke-width:0.8;" x="848.35979" xlink:href="#m01a08a2f72" y="100.388571"/>
      </g>
     </g>
     <g id="text_9">
      <!-- 80 -->
      <g transform="translate(841.99729 114.987009)scale(0.1 -0.1)">
       <defs>
        <path d="M 31.78125 34.625 
Q 24.75 34.625 20.71875 30.859375 
Q 16.703125 27.09375 16.703125 20.515625 
Q 16.703125 13.921875 20.71875 10.15625 
Q 24.75 6.390625 31.78125 6.390625 
Q 38.8125 6.390625 42.859375 10.171875 
Q 46.921875 13.96875 46.921875 20.515625 
Q 46.921875 27.09375 42.890625 30.859375 
Q 38.875 34.625 31.78125 34.625 
z
M 21.921875 38.8125 
Q 15.578125 40.375 12.03125 44.71875 
Q 8.5 49.078125 8.5 55.328125 
Q 8.5 64.0625 14.71875 69.140625 
Q 20.953125 74.21875 31.78125 74.21875 
Q 42.671875 74.21875 48.875 69.140625 
Q 55.078125 64.0625 55.078125 55.328125 
Q 55.078125 49.078125 51.53125 44.71875 
Q 48 40.375 41.703125 38.8125 
Q 48.828125 37.15625 52.796875 32.3125 
Q 56.78125 27.484375 56.78125 20.515625 
Q 56.78125 9.90625 50.3125 4.234375 
Q 43.84375 -1.421875 31.78125 -1.421875 
Q 19.734375 -1.421875 13.25 4.234375 
Q 6.78125 9.90625 6.78125 20.515625 
Q 6.78125 27.484375 10.78125 32.3125 
Q 14.796875 37.15625 21.921875 38.8125 
z
M 18.3125 54.390625 
Q 18.3125 48.734375 21.84375 45.5625 
Q 25.390625 42.390625 31.78125 42.390625 
Q 38.140625 42.390625 41.71875 45.5625 
Q 45.3125 48.734375 45.3125 54.390625 
Q 45.3125 60.0625 41.71875 63.234375 
Q 38.140625 66.40625 31.78125 66.40625 
Q 25.390625 66.40625 21.84375 63.234375 
Q 18.3125 60.0625 18.3125 54.390625 
z
" id="DejaVuSans-56"/>
       </defs>
       <use xlink:href="#DejaVuSans-56"/>
       <use x="63.623047" xlink:href="#DejaVuSans-48"/>
      </g>
     </g>
    </g>
   </g>
   <g id="matplotlib.axis_2">
    <g id="ytick_1">
     <g id="line2d_19">
      <path clip-path="url(#p88a61921ce)" d="M 39.65 96.152727 
L 876.65 96.152727 
" style="fill:none;stroke:#666666;stroke-linecap:square;stroke-opacity:0.3;stroke-width:0.8;"/>
     </g>
     <g id="line2d_20">
      <defs>
       <path d="M 0 0 
L -3.5 0 
" id="m7850520feb" style="stroke:#000000;stroke-width:0.8;"/>
      </defs>
      <g>
       <use style="stroke:#000000;stroke-width:0.8;" x="39.65" xlink:href="#m7850520feb" y="96.152727"/>
      </g>
     </g>
     <g id="text_10">
      <!-- 0.0 -->
      <g transform="translate(16.746875 99.951946)scale(0.1 -0.1)">
       <defs>
        <path d="M 10.6875 12.40625 
L 21 12.40625 
L 21 0 
L 10.6875 0 
z
" id="DejaVuSans-46"/>
       </defs>
       <use xlink:href="#DejaVuSans-48"/>
       <use x="63.623047" xlink:href="#DejaVuSans-46"/>
       <use x="95.410156" xlink:href="#DejaVuSans-48"/>
      </g>
     </g>
    </g>
    <g id="ytick_2">
     <g id="line2d_21">
      <path clip-path="url(#p88a61921ce)" d="M 39.65 68.217822 
L 876.65 68.217822 
" style="fill:none;stroke:#666666;stroke-linecap:square;stroke-opacity:0.3;stroke-width:0.8;"/>
     </g>
     <g id="line2d_22">
      <g>
       <use style="stroke:#000000;stroke-width:0.8;" x="39.65" xlink:href="#m7850520feb" y="68.217822"/>
      </g>
     </g>
     <g id="text_11">
      <!-- 0.2 -->
      <g transform="translate(16.746875 72.017041)scale(0.1 -0.1)">
       <use xlink:href="#DejaVuSans-48"/>
       <use x="63.623047" xlink:href="#DejaVuSans-46"/>
       <use x="95.410156" xlink:href="#DejaVuSans-50"/>
      </g>
     </g>
    </g>
    <g id="ytick_3">
     <g id="line2d_23">
      <path clip-path="url(#p88a61921ce)" d="M 39.65 40.282916 
L 876.65 40.282916 
" style="fill:none;stroke:#666666;stroke-linecap:square;stroke-opacity:0.3;stroke-width:0.8;"/>
     </g>
     <g id="line2d_24">
      <g>
       <use style="stroke:#000000;stroke-width:0.8;" x="39.65" xlink:href="#m7850520feb" y="40.282916"/>
      </g>
     </g>
     <g id="text_12">
      <!-- 0.4 -->
      <g transform="translate(16.746875 44.082135)scale(0.1 -0.1)">
       <use xlink:href="#DejaVuSans-48"/>
       <use x="63.623047" xlink:href="#DejaVuSans-46"/>
       <use x="95.410156" xlink:href="#DejaVuSans-52"/>
      </g>
     </g>
    </g>
    <g id="ytick_4">
     <g id="line2d_25">
      <path clip-path="url(#p88a61921ce)" d="M 39.65 12.348011 
L 876.65 12.348011 
" style="fill:none;stroke:#666666;stroke-linecap:square;stroke-opacity:0.3;stroke-width:0.8;"/>
     </g>
     <g id="line2d_26">
      <g>
       <use style="stroke:#000000;stroke-width:0.8;" x="39.65" xlink:href="#m7850520feb" y="12.348011"/>
      </g>
     </g>
     <g id="text_13">
      <!-- 0.6 -->
      <g transform="translate(16.746875 16.14723)scale(0.1 -0.1)">
       <use xlink:href="#DejaVuSans-48"/>
       <use x="63.623047" xlink:href="#DejaVuSans-46"/>
       <use x="95.410156" xlink:href="#DejaVuSans-54"/>
      </g>
     </g>
    </g>
   </g>
   <g id="line2d_27">
    <path clip-path="url(#p88a61921ce)" d="M 77.695455 11.435844 
L 87.450699 41.195083 
L 97.205944 81.273108 
L 106.961189 93.573031 
L 116.716434 95.822538 
L 126.471678 96.119181 
L 136.226923 96.1499 
L 145.982168 96.152524 
L 155.737413 96.152714 
L 165.492657 96.152727 
L 175.247902 96.152727 
L 185.003147 96.152727 
L 194.758392 96.152727 
L 204.513636 96.152727 
L 214.268881 96.152727 
L 224.024126 96.152727 
L 233.779371 96.152727 
L 243.534615 96.152727 
L 253.28986 96.152727 
L 263.045105 96.152727 
L 272.80035 96.152727 
L 282.555594 96.152727 
L 292.310839 96.152727 
L 302.066084 96.152727 
L 311.821329 96.152727 
L 321.576573 96.152727 
L 331.331818 96.152727 
L 341.087063 96.152727 
L 350.842308 96.152727 
L 360.597552 96.152727 
L 370.352797 96.152727 
L 380.108042 96.152727 
L 389.863287 96.152727 
L 399.618531 96.152727 
L 409.373776 96.152727 
L 419.129021 96.152727 
L 428.884266 96.152727 
L 438.63951 96.152727 
L 448.394755 96.152727 
L 458.15 96.152727 
L 467.905245 96.152727 
L 477.66049 96.152727 
L 487.415734 96.152727 
L 497.170979 96.152727 
L 506.926224 96.152727 
L 516.681469 96.152727 
L 526.436713 96.152727 
L 536.191958 96.152727 
L 545.947203 96.152727 
L 555.702448 96.152727 
L 565.457692 96.152727 
L 575.212937 96.152727 
L 584.968182 96.152727 
L 594.723427 96.152727 
L 604.478671 96.152727 
L 614.233916 96.152727 
L 623.989161 96.152727 
L 633.744406 96.152727 
L 643.49965 96.152727 
L 653.254895 96.152727 
L 663.01014 96.152727 
L 672.765385 96.152727 
L 682.520629 96.152727 
L 692.275874 96.152727 
L 702.031119 96.152727 
L 711.786364 96.152727 
L 721.541608 96.152727 
L 731.296853 96.152727 
L 741.052098 96.152727 
L 750.807343 96.152727 
L 760.562587 96.152727 
L 770.317832 96.152727 
L 780.073077 96.152727 
L 789.828322 96.152727 
L 799.583566 96.152727 
L 809.338811 96.152727 
L 819.094056 96.152727 
L 828.849301 96.152727 
L 838.604545 96.152727 
" style="fill:none;stroke:#1f77b4;stroke-linecap:square;stroke-width:1.5;"/>
   </g>
   <g id="patch_3">
    <path d="M 39.65 100.388571 
L 39.65 7.2 
" style="fill:none;stroke:#000000;stroke-linecap:square;stroke-linejoin:miter;stroke-width:0.8;"/>
   </g>
   <g id="patch_4">
    <path d="M 876.65 100.388571 
L 876.65 7.2 
" style="fill:none;stroke:#000000;stroke-linecap:square;stroke-linejoin:miter;stroke-width:0.8;"/>
   </g>
   <g id="patch_5">
    <path d="M 39.65 100.388571 
L 876.65 100.388571 
" style="fill:none;stroke:#000000;stroke-linecap:square;stroke-linejoin:miter;stroke-width:0.8;"/>
   </g>
   <g id="patch_6">
    <path d="M 39.65 7.2 
L 876.65 7.2 
" style="fill:none;stroke:#000000;stroke-linecap:square;stroke-linejoin:miter;stroke-width:0.8;"/>
   </g>
  </g>
  <g id="axes_2">
   <g id="patch_7">
    <path d="M 39.65 212.214857 
L 876.65 212.214857 
L 876.65 119.026286 
L 39.65 119.026286 
z
" style="fill:#ffffff;"/>
   </g>
   <g id="matplotlib.axis_3">
    <g id="xtick_10">
     <g id="line2d_28">
      <path clip-path="url(#pba36ce1c2a)" d="M 67.94021 212.214857 
L 67.94021 119.026286 
" style="fill:none;stroke:#666666;stroke-linecap:square;stroke-opacity:0.3;stroke-width:0.8;"/>
     </g>
     <g id="line2d_29">
      <g>
       <use style="stroke:#000000;stroke-width:0.8;" x="67.94021" xlink:href="#m01a08a2f72" y="212.214857"/>
      </g>
     </g>
     <g id="text_14">
      <!-- 0 -->
      <g transform="translate(64.75896 226.813295)scale(0.1 -0.1)">
       <use xlink:href="#DejaVuSans-48"/>
      </g>
     </g>
    </g>
    <g id="xtick_11">
     <g id="line2d_30">
      <path clip-path="url(#pba36ce1c2a)" d="M 165.492657 212.214857 
L 165.492657 119.026286 
" style="fill:none;stroke:#666666;stroke-linecap:square;stroke-opacity:0.3;stroke-width:0.8;"/>
     </g>
     <g id="line2d_31">
      <g>
       <use style="stroke:#000000;stroke-width:0.8;" x="165.492657" xlink:href="#m01a08a2f72" y="212.214857"/>
      </g>
     </g>
     <g id="text_15">
      <!-- 10 -->
      <g transform="translate(159.130157 226.813295)scale(0.1 -0.1)">
       <use xlink:href="#DejaVuSans-49"/>
       <use x="63.623047" xlink:href="#DejaVuSans-48"/>
      </g>
     </g>
    </g>
    <g id="xtick_12">
     <g id="line2d_32">
      <path clip-path="url(#pba36ce1c2a)" d="M 263.045105 212.214857 
L 263.045105 119.026286 
" style="fill:none;stroke:#666666;stroke-linecap:square;stroke-opacity:0.3;stroke-width:0.8;"/>
     </g>
     <g id="line2d_33">
      <g>
       <use style="stroke:#000000;stroke-width:0.8;" x="263.045105" xlink:href="#m01a08a2f72" y="212.214857"/>
      </g>
     </g>
     <g id="text_16">
      <!-- 20 -->
      <g transform="translate(256.682605 226.813295)scale(0.1 -0.1)">
       <use xlink:href="#DejaVuSans-50"/>
       <use x="63.623047" xlink:href="#DejaVuSans-48"/>
      </g>
     </g>
    </g>
    <g id="xtick_13">
     <g id="line2d_34">
      <path clip-path="url(#pba36ce1c2a)" d="M 360.597552 212.214857 
L 360.597552 119.026286 
" style="fill:none;stroke:#666666;stroke-linecap:square;stroke-opacity:0.3;stroke-width:0.8;"/>
     </g>
     <g id="line2d_35">
      <g>
       <use style="stroke:#000000;stroke-width:0.8;" x="360.597552" xlink:href="#m01a08a2f72" y="212.214857"/>
      </g>
     </g>
     <g id="text_17">
      <!-- 30 -->
      <g transform="translate(354.235052 226.813295)scale(0.1 -0.1)">
       <use xlink:href="#DejaVuSans-51"/>
       <use x="63.623047" xlink:href="#DejaVuSans-48"/>
      </g>
     </g>
    </g>
    <g id="xtick_14">
     <g id="line2d_36">
      <path clip-path="url(#pba36ce1c2a)" d="M 458.15 212.214857 
L 458.15 119.026286 
" style="fill:none;stroke:#666666;stroke-linecap:square;stroke-opacity:0.3;stroke-width:0.8;"/>
     </g>
     <g id="line2d_37">
      <g>
       <use style="stroke:#000000;stroke-width:0.8;" x="458.15" xlink:href="#m01a08a2f72" y="212.214857"/>
      </g>
     </g>
     <g id="text_18">
      <!-- 40 -->
      <g transform="translate(451.7875 226.813295)scale(0.1 -0.1)">
       <use xlink:href="#DejaVuSans-52"/>
       <use x="63.623047" xlink:href="#DejaVuSans-48"/>
      </g>
     </g>
    </g>
    <g id="xtick_15">
     <g id="line2d_38">
      <path clip-path="url(#pba36ce1c2a)" d="M 555.702448 212.214857 
L 555.702448 119.026286 
" style="fill:none;stroke:#666666;stroke-linecap:square;stroke-opacity:0.3;stroke-width:0.8;"/>
     </g>
     <g id="line2d_39">
      <g>
       <use style="stroke:#000000;stroke-width:0.8;" x="555.702448" xlink:href="#m01a08a2f72" y="212.214857"/>
      </g>
     </g>
     <g id="text_19">
      <!-- 50 -->
      <g transform="translate(549.339948 226.813295)scale(0.1 -0.1)">
       <use xlink:href="#DejaVuSans-53"/>
       <use x="63.623047" xlink:href="#DejaVuSans-48"/>
      </g>
     </g>
    </g>
    <g id="xtick_16">
     <g id="line2d_40">
      <path clip-path="url(#pba36ce1c2a)" d="M 653.254895 212.214857 
L 653.254895 119.026286 
" style="fill:none;stroke:#666666;stroke-linecap:square;stroke-opacity:0.3;stroke-width:0.8;"/>
     </g>
     <g id="line2d_41">
      <g>
       <use style="stroke:#000000;stroke-width:0.8;" x="653.254895" xlink:href="#m01a08a2f72" y="212.214857"/>
      </g>
     </g>
     <g id="text_20">
      <!-- 60 -->
      <g transform="translate(646.892395 226.813295)scale(0.1 -0.1)">
       <use xlink:href="#DejaVuSans-54"/>
       <use x="63.623047" xlink:href="#DejaVuSans-48"/>
      </g>
     </g>
    </g>
    <g id="xtick_17">
     <g id="line2d_42">
      <path clip-path="url(#pba36ce1c2a)" d="M 750.807343 212.214857 
L 750.807343 119.026286 
" style="fill:none;stroke:#666666;stroke-linecap:square;stroke-opacity:0.3;stroke-width:0.8;"/>
     </g>
     <g id="line2d_43">
      <g>
       <use style="stroke:#000000;stroke-width:0.8;" x="750.807343" xlink:href="#m01a08a2f72" y="212.214857"/>
      </g>
     </g>
     <g id="text_21">
      <!-- 70 -->
      <g transform="translate(744.444843 226.813295)scale(0.1 -0.1)">
       <use xlink:href="#DejaVuSans-55"/>
       <use x="63.623047" xlink:href="#DejaVuSans-48"/>
      </g>
     </g>
    </g>
    <g id="xtick_18">
     <g id="line2d_44">
      <path clip-path="url(#pba36ce1c2a)" d="M 848.35979 212.214857 
L 848.35979 119.026286 
" style="fill:none;stroke:#666666;stroke-linecap:square;stroke-opacity:0.3;stroke-width:0.8;"/>
     </g>
     <g id="line2d_45">
      <g>
       <use style="stroke:#000000;stroke-width:0.8;" x="848.35979" xlink:href="#m01a08a2f72" y="212.214857"/>
      </g>
     </g>
     <g id="text_22">
      <!-- 80 -->
      <g transform="translate(841.99729 226.813295)scale(0.1 -0.1)">
       <use xlink:href="#DejaVuSans-56"/>
       <use x="63.623047" xlink:href="#DejaVuSans-48"/>
      </g>
     </g>
    </g>
   </g>
   <g id="matplotlib.axis_4">
    <g id="ytick_5">
     <g id="line2d_46">
      <path clip-path="url(#pba36ce1c2a)" d="M 39.65 207.979013 
L 876.65 207.979013 
" style="fill:none;stroke:#666666;stroke-linecap:square;stroke-opacity:0.3;stroke-width:0.8;"/>
     </g>
     <g id="line2d_47">
      <g>
       <use style="stroke:#000000;stroke-width:0.8;" x="39.65" xlink:href="#m7850520feb" y="207.979013"/>
      </g>
     </g>
     <g id="text_23">
      <!-- 0.0 -->
      <g transform="translate(16.746875 211.778232)scale(0.1 -0.1)">
       <use xlink:href="#DejaVuSans-48"/>
       <use x="63.623047" xlink:href="#DejaVuSans-46"/>
       <use x="95.410156" xlink:href="#DejaVuSans-48"/>
      </g>
     </g>
    </g>
    <g id="ytick_6">
     <g id="line2d_48">
      <path clip-path="url(#pba36ce1c2a)" d="M 39.65 181.174986 
L 876.65 181.174986 
" style="fill:none;stroke:#666666;stroke-linecap:square;stroke-opacity:0.3;stroke-width:0.8;"/>
     </g>
     <g id="line2d_49">
      <g>
       <use style="stroke:#000000;stroke-width:0.8;" x="39.65" xlink:href="#m7850520feb" y="181.174986"/>
      </g>
     </g>
     <g id="text_24">
      <!-- 0.2 -->
      <g transform="translate(16.746875 184.974205)scale(0.1 -0.1)">
       <use xlink:href="#DejaVuSans-48"/>
       <use x="63.623047" xlink:href="#DejaVuSans-46"/>
       <use x="95.410156" xlink:href="#DejaVuSans-50"/>
      </g>
     </g>
    </g>
    <g id="ytick_7">
     <g id="line2d_50">
      <path clip-path="url(#pba36ce1c2a)" d="M 39.65 154.370959 
L 876.65 154.370959 
" style="fill:none;stroke:#666666;stroke-linecap:square;stroke-opacity:0.3;stroke-width:0.8;"/>
     </g>
     <g id="line2d_51">
      <g>
       <use style="stroke:#000000;stroke-width:0.8;" x="39.65" xlink:href="#m7850520feb" y="154.370959"/>
      </g>
     </g>
     <g id="text_25">
      <!-- 0.4 -->
      <g transform="translate(16.746875 158.170177)scale(0.1 -0.1)">
       <use xlink:href="#DejaVuSans-48"/>
       <use x="63.623047" xlink:href="#DejaVuSans-46"/>
       <use x="95.410156" xlink:href="#DejaVuSans-52"/>
      </g>
     </g>
    </g>
    <g id="ytick_8">
     <g id="line2d_52">
      <path clip-path="url(#pba36ce1c2a)" d="M 39.65 127.566932 
L 876.65 127.566932 
" style="fill:none;stroke:#666666;stroke-linecap:square;stroke-opacity:0.3;stroke-width:0.8;"/>
     </g>
     <g id="line2d_53">
      <g>
       <use style="stroke:#000000;stroke-width:0.8;" x="39.65" xlink:href="#m7850520feb" y="127.566932"/>
      </g>
     </g>
     <g id="text_26">
      <!-- 0.6 -->
      <g transform="translate(16.746875 131.36615)scale(0.1 -0.1)">
       <use xlink:href="#DejaVuSans-48"/>
       <use x="63.623047" xlink:href="#DejaVuSans-46"/>
       <use x="95.410156" xlink:href="#DejaVuSans-54"/>
      </g>
     </g>
    </g>
   </g>
   <g id="line2d_54">
    <path clip-path="url(#pba36ce1c2a)" d="M 77.695455 158.67576 
L 87.450699 123.26213 
L 97.205944 158.67576 
L 106.961189 190.272198 
L 116.716434 203.349139 
L 126.471678 207.024715 
L 136.226923 207.816477 
L 145.982168 207.95541 
L 155.737413 207.976025 
L 165.492657 207.978677 
L 175.247902 207.978979 
L 185.003147 207.97901 
L 194.758392 207.979013 
L 204.513636 207.979013 
L 214.268881 207.979013 
L 224.024126 207.979013 
L 233.779371 207.979013 
L 243.534615 207.979013 
L 253.28986 207.979013 
L 263.045105 207.979013 
L 272.80035 207.979013 
L 282.555594 207.979013 
L 292.310839 207.979013 
L 302.066084 207.979013 
L 311.821329 207.979013 
L 321.576573 207.979013 
L 331.331818 207.979013 
L 341.087063 207.979013 
L 350.842308 207.979013 
L 360.597552 207.979013 
L 370.352797 207.979013 
L 380.108042 207.979013 
L 389.863287 207.979013 
L 399.618531 207.979013 
L 409.373776 207.979013 
L 419.129021 207.979013 
L 428.884266 207.979013 
L 438.63951 207.979013 
L 448.394755 207.979013 
L 458.15 207.979013 
L 467.905245 207.979013 
L 477.66049 207.979013 
L 487.415734 207.979013 
L 497.170979 207.979013 
L 506.926224 207.979013 
L 516.681469 207.979013 
L 526.436713 207.979013 
L 536.191958 207.979013 
L 545.947203 207.979013 
L 555.702448 207.979013 
L 565.457692 207.979013 
L 575.212937 207.979013 
L 584.968182 207.979013 
L 594.723427 207.979013 
L 604.478671 207.979013 
L 614.233916 207.979013 
L 623.989161 207.979013 
L 633.744406 207.979013 
L 643.49965 207.979013 
L 653.254895 207.979013 
L 663.01014 207.979013 
L 672.765385 207.979013 
L 682.520629 207.979013 
L 692.275874 207.979013 
L 702.031119 207.979013 
L 711.786364 207.979013 
L 721.541608 207.979013 
L 731.296853 207.979013 
L 741.052098 207.979013 
L 750.807343 207.979013 
L 760.562587 207.979013 
L 770.317832 207.979013 
L 780.073077 207.979013 
L 789.828322 207.979013 
L 799.583566 207.979013 
L 809.338811 207.979013 
L 819.094056 207.979013 
L 828.849301 207.979013 
L 838.604545 207.979013 
" style="fill:none;stroke:#1f77b4;stroke-linecap:square;stroke-width:1.5;"/>
   </g>
   <g id="patch_8">
    <path d="M 39.65 212.214857 
L 39.65 119.026286 
" style="fill:none;stroke:#000000;stroke-linecap:square;stroke-linejoin:miter;stroke-width:0.8;"/>
   </g>
   <g id="patch_9">
    <path d="M 876.65 212.214857 
L 876.65 119.026286 
" style="fill:none;stroke:#000000;stroke-linecap:square;stroke-linejoin:miter;stroke-width:0.8;"/>
   </g>
   <g id="patch_10">
    <path d="M 39.65 212.214857 
L 876.65 212.214857 
" style="fill:none;stroke:#000000;stroke-linecap:square;stroke-linejoin:miter;stroke-width:0.8;"/>
   </g>
   <g id="patch_11">
    <path d="M 39.65 119.026286 
L 876.65 119.026286 
" style="fill:none;stroke:#000000;stroke-linecap:square;stroke-linejoin:miter;stroke-width:0.8;"/>
   </g>
  </g>
  <g id="axes_3">
   <g id="patch_12">
    <path d="M 39.65 324.041143 
L 876.65 324.041143 
L 876.65 230.852571 
L 39.65 230.852571 
z
" style="fill:#ffffff;"/>
   </g>
   <g id="matplotlib.axis_5">
    <g id="xtick_19">
     <g id="line2d_55">
      <path clip-path="url(#p797de22b76)" d="M 67.94021 324.041143 
L 67.94021 230.852571 
" style="fill:none;stroke:#666666;stroke-linecap:square;stroke-opacity:0.3;stroke-width:0.8;"/>
     </g>
     <g id="line2d_56">
      <g>
       <use style="stroke:#000000;stroke-width:0.8;" x="67.94021" xlink:href="#m01a08a2f72" y="324.041143"/>
      </g>
     </g>
     <g id="text_27">
      <!-- 0 -->
      <g transform="translate(64.75896 338.63958)scale(0.1 -0.1)">
       <use xlink:href="#DejaVuSans-48"/>
      </g>
     </g>
    </g>
    <g id="xtick_20">
     <g id="line2d_57">
      <path clip-path="url(#p797de22b76)" d="M 165.492657 324.041143 
L 165.492657 230.852571 
" style="fill:none;stroke:#666666;stroke-linecap:square;stroke-opacity:0.3;stroke-width:0.8;"/>
     </g>
     <g id="line2d_58">
      <g>
       <use style="stroke:#000000;stroke-width:0.8;" x="165.492657" xlink:href="#m01a08a2f72" y="324.041143"/>
      </g>
     </g>
     <g id="text_28">
      <!-- 10 -->
      <g transform="translate(159.130157 338.63958)scale(0.1 -0.1)">
       <use xlink:href="#DejaVuSans-49"/>
       <use x="63.623047" xlink:href="#DejaVuSans-48"/>
      </g>
     </g>
    </g>
    <g id="xtick_21">
     <g id="line2d_59">
      <path clip-path="url(#p797de22b76)" d="M 263.045105 324.041143 
L 263.045105 230.852571 
" style="fill:none;stroke:#666666;stroke-linecap:square;stroke-opacity:0.3;stroke-width:0.8;"/>
     </g>
     <g id="line2d_60">
      <g>
       <use style="stroke:#000000;stroke-width:0.8;" x="263.045105" xlink:href="#m01a08a2f72" y="324.041143"/>
      </g>
     </g>
     <g id="text_29">
      <!-- 20 -->
      <g transform="translate(256.682605 338.63958)scale(0.1 -0.1)">
       <use xlink:href="#DejaVuSans-50"/>
       <use x="63.623047" xlink:href="#DejaVuSans-48"/>
      </g>
     </g>
    </g>
    <g id="xtick_22">
     <g id="line2d_61">
      <path clip-path="url(#p797de22b76)" d="M 360.597552 324.041143 
L 360.597552 230.852571 
" style="fill:none;stroke:#666666;stroke-linecap:square;stroke-opacity:0.3;stroke-width:0.8;"/>
     </g>
     <g id="line2d_62">
      <g>
       <use style="stroke:#000000;stroke-width:0.8;" x="360.597552" xlink:href="#m01a08a2f72" y="324.041143"/>
      </g>
     </g>
     <g id="text_30">
      <!-- 30 -->
      <g transform="translate(354.235052 338.63958)scale(0.1 -0.1)">
       <use xlink:href="#DejaVuSans-51"/>
       <use x="63.623047" xlink:href="#DejaVuSans-48"/>
      </g>
     </g>
    </g>
    <g id="xtick_23">
     <g id="line2d_63">
      <path clip-path="url(#p797de22b76)" d="M 458.15 324.041143 
L 458.15 230.852571 
" style="fill:none;stroke:#666666;stroke-linecap:square;stroke-opacity:0.3;stroke-width:0.8;"/>
     </g>
     <g id="line2d_64">
      <g>
       <use style="stroke:#000000;stroke-width:0.8;" x="458.15" xlink:href="#m01a08a2f72" y="324.041143"/>
      </g>
     </g>
     <g id="text_31">
      <!-- 40 -->
      <g transform="translate(451.7875 338.63958)scale(0.1 -0.1)">
       <use xlink:href="#DejaVuSans-52"/>
       <use x="63.623047" xlink:href="#DejaVuSans-48"/>
      </g>
     </g>
    </g>
    <g id="xtick_24">
     <g id="line2d_65">
      <path clip-path="url(#p797de22b76)" d="M 555.702448 324.041143 
L 555.702448 230.852571 
" style="fill:none;stroke:#666666;stroke-linecap:square;stroke-opacity:0.3;stroke-width:0.8;"/>
     </g>
     <g id="line2d_66">
      <g>
       <use style="stroke:#000000;stroke-width:0.8;" x="555.702448" xlink:href="#m01a08a2f72" y="324.041143"/>
      </g>
     </g>
     <g id="text_32">
      <!-- 50 -->
      <g transform="translate(549.339948 338.63958)scale(0.1 -0.1)">
       <use xlink:href="#DejaVuSans-53"/>
       <use x="63.623047" xlink:href="#DejaVuSans-48"/>
      </g>
     </g>
    </g>
    <g id="xtick_25">
     <g id="line2d_67">
      <path clip-path="url(#p797de22b76)" d="M 653.254895 324.041143 
L 653.254895 230.852571 
" style="fill:none;stroke:#666666;stroke-linecap:square;stroke-opacity:0.3;stroke-width:0.8;"/>
     </g>
     <g id="line2d_68">
      <g>
       <use style="stroke:#000000;stroke-width:0.8;" x="653.254895" xlink:href="#m01a08a2f72" y="324.041143"/>
      </g>
     </g>
     <g id="text_33">
      <!-- 60 -->
      <g transform="translate(646.892395 338.63958)scale(0.1 -0.1)">
       <use xlink:href="#DejaVuSans-54"/>
       <use x="63.623047" xlink:href="#DejaVuSans-48"/>
      </g>
     </g>
    </g>
    <g id="xtick_26">
     <g id="line2d_69">
      <path clip-path="url(#p797de22b76)" d="M 750.807343 324.041143 
L 750.807343 230.852571 
" style="fill:none;stroke:#666666;stroke-linecap:square;stroke-opacity:0.3;stroke-width:0.8;"/>
     </g>
     <g id="line2d_70">
      <g>
       <use style="stroke:#000000;stroke-width:0.8;" x="750.807343" xlink:href="#m01a08a2f72" y="324.041143"/>
      </g>
     </g>
     <g id="text_34">
      <!-- 70 -->
      <g transform="translate(744.444843 338.63958)scale(0.1 -0.1)">
       <use xlink:href="#DejaVuSans-55"/>
       <use x="63.623047" xlink:href="#DejaVuSans-48"/>
      </g>
     </g>
    </g>
    <g id="xtick_27">
     <g id="line2d_71">
      <path clip-path="url(#p797de22b76)" d="M 848.35979 324.041143 
L 848.35979 230.852571 
" style="fill:none;stroke:#666666;stroke-linecap:square;stroke-opacity:0.3;stroke-width:0.8;"/>
     </g>
     <g id="line2d_72">
      <g>
       <use style="stroke:#000000;stroke-width:0.8;" x="848.35979" xlink:href="#m01a08a2f72" y="324.041143"/>
      </g>
     </g>
     <g id="text_35">
      <!-- 80 -->
      <g transform="translate(841.99729 338.63958)scale(0.1 -0.1)">
       <use xlink:href="#DejaVuSans-56"/>
       <use x="63.623047" xlink:href="#DejaVuSans-48"/>
      </g>
     </g>
    </g>
   </g>
   <g id="matplotlib.axis_6">
    <g id="ytick_9">
     <g id="line2d_73">
      <path clip-path="url(#p797de22b76)" d="M 39.65 319.805299 
L 876.65 319.805299 
" style="fill:none;stroke:#666666;stroke-linecap:square;stroke-opacity:0.3;stroke-width:0.8;"/>
     </g>
     <g id="line2d_74">
      <g>
       <use style="stroke:#000000;stroke-width:0.8;" x="39.65" xlink:href="#m7850520feb" y="319.805299"/>
      </g>
     </g>
     <g id="text_36">
      <!-- 0 -->
      <g transform="translate(26.2875 323.604517)scale(0.1 -0.1)">
       <use xlink:href="#DejaVuSans-48"/>
      </g>
     </g>
    </g>
    <g id="ytick_10">
     <g id="line2d_75">
      <path clip-path="url(#p797de22b76)" d="M 39.65 289.830702 
L 876.65 289.830702 
" style="fill:none;stroke:#666666;stroke-linecap:square;stroke-opacity:0.3;stroke-width:0.8;"/>
     </g>
     <g id="line2d_76">
      <g>
       <use style="stroke:#000000;stroke-width:0.8;" x="39.65" xlink:href="#m7850520feb" y="289.830702"/>
      </g>
     </g>
     <g id="text_37">
      <!-- 500 -->
      <g transform="translate(13.5625 293.629921)scale(0.1 -0.1)">
       <use xlink:href="#DejaVuSans-53"/>
       <use x="63.623047" xlink:href="#DejaVuSans-48"/>
       <use x="127.246094" xlink:href="#DejaVuSans-48"/>
      </g>
     </g>
    </g>
    <g id="ytick_11">
     <g id="line2d_77">
      <path clip-path="url(#p797de22b76)" d="M 39.65 259.856105 
L 876.65 259.856105 
" style="fill:none;stroke:#666666;stroke-linecap:square;stroke-opacity:0.3;stroke-width:0.8;"/>
     </g>
     <g id="line2d_78">
      <g>
       <use style="stroke:#000000;stroke-width:0.8;" x="39.65" xlink:href="#m7850520feb" y="259.856105"/>
      </g>
     </g>
     <g id="text_38">
      <!-- 1000 -->
      <g transform="translate(7.2 263.655324)scale(0.1 -0.1)">
       <use xlink:href="#DejaVuSans-49"/>
       <use x="63.623047" xlink:href="#DejaVuSans-48"/>
       <use x="127.246094" xlink:href="#DejaVuSans-48"/>
       <use x="190.869141" xlink:href="#DejaVuSans-48"/>
      </g>
     </g>
    </g>
   </g>
   <g id="line2d_79">
    <path clip-path="url(#p797de22b76)" d="M 77.695455 319.805296 
L 87.450699 319.745352 
L 97.205944 319.265753 
L 106.961189 317.347384 
L 116.716434 312.271681 
L 126.471678 302.360086 
L 136.226923 287.29285 
L 145.982168 269.054979 
L 155.737413 251.608806 
L 165.492657 239.318275 
L 175.247902 235.088416 
L 185.003147 239.318275 
L 194.758392 250.106953 
L 204.513636 264.34917 
L 214.268881 278.988754 
L 224.024126 291.855648 
L 233.779371 301.910819 
L 243.534615 309.047197 
L 253.28986 313.708941 
L 263.045105 316.538068 
L 272.80035 318.144325 
L 282.555594 319.00217 
L 292.310839 319.435045 
L 302.066084 319.642197 
L 311.821329 319.736507 
L 321.576573 319.777468 
L 331.331818 319.79448 
L 341.087063 319.801252 
L 350.842308 319.80384 
L 360.597552 319.804791 
L 370.352797 319.805128 
L 380.108042 319.805243 
L 389.863287 319.805281 
L 399.618531 319.805293 
L 409.373776 319.805297 
L 419.129021 319.805298 
L 428.884266 319.805299 
L 438.63951 319.805299 
L 448.394755 319.805299 
L 458.15 319.805299 
L 467.905245 319.805299 
L 477.66049 319.805299 
L 487.415734 319.805299 
L 497.170979 319.805299 
L 506.926224 319.805299 
L 516.681469 319.805299 
L 526.436713 319.805299 
L 536.191958 319.805299 
L 545.947203 319.805299 
L 555.702448 319.805299 
L 565.457692 319.805299 
L 575.212937 319.805299 
L 584.968182 319.805299 
L 594.723427 319.805299 
L 604.478671 319.805299 
L 614.233916 319.805299 
L 623.989161 319.805299 
L 633.744406 319.805299 
L 643.49965 319.805299 
L 653.254895 319.805299 
L 663.01014 319.805299 
L 672.765385 319.805299 
L 682.520629 319.805299 
L 692.275874 319.805299 
L 702.031119 319.805299 
L 711.786364 319.805299 
L 721.541608 319.805299 
L 731.296853 319.805299 
L 741.052098 319.805299 
L 750.807343 319.805299 
L 760.562587 319.805299 
L 770.317832 319.805299 
L 780.073077 319.805299 
L 789.828322 319.805299 
L 799.583566 319.805299 
L 809.338811 319.805299 
L 819.094056 319.805299 
L 828.849301 319.805299 
L 838.604545 319.805299 
" style="fill:none;stroke:#1f77b4;stroke-linecap:square;stroke-width:1.5;"/>
   </g>
   <g id="patch_13">
    <path d="M 39.65 324.041143 
L 39.65 230.852571 
" style="fill:none;stroke:#000000;stroke-linecap:square;stroke-linejoin:miter;stroke-width:0.8;"/>
   </g>
   <g id="patch_14">
    <path d="M 876.65 324.041143 
L 876.65 230.852571 
" style="fill:none;stroke:#000000;stroke-linecap:square;stroke-linejoin:miter;stroke-width:0.8;"/>
   </g>
   <g id="patch_15">
    <path d="M 39.65 324.041143 
L 876.65 324.041143 
" style="fill:none;stroke:#000000;stroke-linecap:square;stroke-linejoin:miter;stroke-width:0.8;"/>
   </g>
   <g id="patch_16">
    <path d="M 39.65 230.852571 
L 876.65 230.852571 
" style="fill:none;stroke:#000000;stroke-linecap:square;stroke-linejoin:miter;stroke-width:0.8;"/>
   </g>
  </g>
  <g id="axes_4">
   <g id="patch_17">
    <path d="M 39.65 435.867429 
L 876.65 435.867429 
L 876.65 342.678857 
L 39.65 342.678857 
z
" style="fill:#ffffff;"/>
   </g>
   <g id="matplotlib.axis_7">
    <g id="xtick_28">
     <g id="line2d_80">
      <path clip-path="url(#p935ae39b58)" d="M 67.94021 435.867429 
L 67.94021 342.678857 
" style="fill:none;stroke:#666666;stroke-linecap:square;stroke-opacity:0.3;stroke-width:0.8;"/>
     </g>
     <g id="line2d_81">
      <g>
       <use style="stroke:#000000;stroke-width:0.8;" x="67.94021" xlink:href="#m01a08a2f72" y="435.867429"/>
      </g>
     </g>
     <g id="text_39">
      <!-- 0 -->
      <g transform="translate(64.75896 450.465866)scale(0.1 -0.1)">
       <use xlink:href="#DejaVuSans-48"/>
      </g>
     </g>
    </g>
    <g id="xtick_29">
     <g id="line2d_82">
      <path clip-path="url(#p935ae39b58)" d="M 165.492657 435.867429 
L 165.492657 342.678857 
" style="fill:none;stroke:#666666;stroke-linecap:square;stroke-opacity:0.3;stroke-width:0.8;"/>
     </g>
     <g id="line2d_83">
      <g>
       <use style="stroke:#000000;stroke-width:0.8;" x="165.492657" xlink:href="#m01a08a2f72" y="435.867429"/>
      </g>
     </g>
     <g id="text_40">
      <!-- 10 -->
      <g transform="translate(159.130157 450.465866)scale(0.1 -0.1)">
       <use xlink:href="#DejaVuSans-49"/>
       <use x="63.623047" xlink:href="#DejaVuSans-48"/>
      </g>
     </g>
    </g>
    <g id="xtick_30">
     <g id="line2d_84">
      <path clip-path="url(#p935ae39b58)" d="M 263.045105 435.867429 
L 263.045105 342.678857 
" style="fill:none;stroke:#666666;stroke-linecap:square;stroke-opacity:0.3;stroke-width:0.8;"/>
     </g>
     <g id="line2d_85">
      <g>
       <use style="stroke:#000000;stroke-width:0.8;" x="263.045105" xlink:href="#m01a08a2f72" y="435.867429"/>
      </g>
     </g>
     <g id="text_41">
      <!-- 20 -->
      <g transform="translate(256.682605 450.465866)scale(0.1 -0.1)">
       <use xlink:href="#DejaVuSans-50"/>
       <use x="63.623047" xlink:href="#DejaVuSans-48"/>
      </g>
     </g>
    </g>
    <g id="xtick_31">
     <g id="line2d_86">
      <path clip-path="url(#p935ae39b58)" d="M 360.597552 435.867429 
L 360.597552 342.678857 
" style="fill:none;stroke:#666666;stroke-linecap:square;stroke-opacity:0.3;stroke-width:0.8;"/>
     </g>
     <g id="line2d_87">
      <g>
       <use style="stroke:#000000;stroke-width:0.8;" x="360.597552" xlink:href="#m01a08a2f72" y="435.867429"/>
      </g>
     </g>
     <g id="text_42">
      <!-- 30 -->
      <g transform="translate(354.235052 450.465866)scale(0.1 -0.1)">
       <use xlink:href="#DejaVuSans-51"/>
       <use x="63.623047" xlink:href="#DejaVuSans-48"/>
      </g>
     </g>
    </g>
    <g id="xtick_32">
     <g id="line2d_88">
      <path clip-path="url(#p935ae39b58)" d="M 458.15 435.867429 
L 458.15 342.678857 
" style="fill:none;stroke:#666666;stroke-linecap:square;stroke-opacity:0.3;stroke-width:0.8;"/>
     </g>
     <g id="line2d_89">
      <g>
       <use style="stroke:#000000;stroke-width:0.8;" x="458.15" xlink:href="#m01a08a2f72" y="435.867429"/>
      </g>
     </g>
     <g id="text_43">
      <!-- 40 -->
      <g transform="translate(451.7875 450.465866)scale(0.1 -0.1)">
       <use xlink:href="#DejaVuSans-52"/>
       <use x="63.623047" xlink:href="#DejaVuSans-48"/>
      </g>
     </g>
    </g>
    <g id="xtick_33">
     <g id="line2d_90">
      <path clip-path="url(#p935ae39b58)" d="M 555.702448 435.867429 
L 555.702448 342.678857 
" style="fill:none;stroke:#666666;stroke-linecap:square;stroke-opacity:0.3;stroke-width:0.8;"/>
     </g>
     <g id="line2d_91">
      <g>
       <use style="stroke:#000000;stroke-width:0.8;" x="555.702448" xlink:href="#m01a08a2f72" y="435.867429"/>
      </g>
     </g>
     <g id="text_44">
      <!-- 50 -->
      <g transform="translate(549.339948 450.465866)scale(0.1 -0.1)">
       <use xlink:href="#DejaVuSans-53"/>
       <use x="63.623047" xlink:href="#DejaVuSans-48"/>
      </g>
     </g>
    </g>
    <g id="xtick_34">
     <g id="line2d_92">
      <path clip-path="url(#p935ae39b58)" d="M 653.254895 435.867429 
L 653.254895 342.678857 
" style="fill:none;stroke:#666666;stroke-linecap:square;stroke-opacity:0.3;stroke-width:0.8;"/>
     </g>
     <g id="line2d_93">
      <g>
       <use style="stroke:#000000;stroke-width:0.8;" x="653.254895" xlink:href="#m01a08a2f72" y="435.867429"/>
      </g>
     </g>
     <g id="text_45">
      <!-- 60 -->
      <g transform="translate(646.892395 450.465866)scale(0.1 -0.1)">
       <use xlink:href="#DejaVuSans-54"/>
       <use x="63.623047" xlink:href="#DejaVuSans-48"/>
      </g>
     </g>
    </g>
    <g id="xtick_35">
     <g id="line2d_94">
      <path clip-path="url(#p935ae39b58)" d="M 750.807343 435.867429 
L 750.807343 342.678857 
" style="fill:none;stroke:#666666;stroke-linecap:square;stroke-opacity:0.3;stroke-width:0.8;"/>
     </g>
     <g id="line2d_95">
      <g>
       <use style="stroke:#000000;stroke-width:0.8;" x="750.807343" xlink:href="#m01a08a2f72" y="435.867429"/>
      </g>
     </g>
     <g id="text_46">
      <!-- 70 -->
      <g transform="translate(744.444843 450.465866)scale(0.1 -0.1)">
       <use xlink:href="#DejaVuSans-55"/>
       <use x="63.623047" xlink:href="#DejaVuSans-48"/>
      </g>
     </g>
    </g>
    <g id="xtick_36">
     <g id="line2d_96">
      <path clip-path="url(#p935ae39b58)" d="M 848.35979 435.867429 
L 848.35979 342.678857 
" style="fill:none;stroke:#666666;stroke-linecap:square;stroke-opacity:0.3;stroke-width:0.8;"/>
     </g>
     <g id="line2d_97">
      <g>
       <use style="stroke:#000000;stroke-width:0.8;" x="848.35979" xlink:href="#m01a08a2f72" y="435.867429"/>
      </g>
     </g>
     <g id="text_47">
      <!-- 80 -->
      <g transform="translate(841.99729 450.465866)scale(0.1 -0.1)">
       <use xlink:href="#DejaVuSans-56"/>
       <use x="63.623047" xlink:href="#DejaVuSans-48"/>
      </g>
     </g>
    </g>
   </g>
   <g id="matplotlib.axis_8">
    <g id="ytick_12">
     <g id="line2d_98">
      <path clip-path="url(#p935ae39b58)" d="M 39.65 431.631584 
L 876.65 431.631584 
" style="fill:none;stroke:#666666;stroke-linecap:square;stroke-opacity:0.3;stroke-width:0.8;"/>
     </g>
     <g id="line2d_99">
      <g>
       <use style="stroke:#000000;stroke-width:0.8;" x="39.65" xlink:href="#m7850520feb" y="431.631584"/>
      </g>
     </g>
     <g id="text_48">
      <!-- 0 -->
      <g transform="translate(26.2875 435.430803)scale(0.1 -0.1)">
       <use xlink:href="#DejaVuSans-48"/>
      </g>
     </g>
    </g>
    <g id="ytick_13">
     <g id="line2d_100">
      <path clip-path="url(#p935ae39b58)" d="M 39.65 392.810863 
L 876.65 392.810863 
" style="fill:none;stroke:#666666;stroke-linecap:square;stroke-opacity:0.3;stroke-width:0.8;"/>
     </g>
     <g id="line2d_101">
      <g>
       <use style="stroke:#000000;stroke-width:0.8;" x="39.65" xlink:href="#m7850520feb" y="392.810863"/>
      </g>
     </g>
     <g id="text_49">
      <!-- 1 -->
      <g transform="translate(26.2875 396.610082)scale(0.1 -0.1)">
       <use xlink:href="#DejaVuSans-49"/>
      </g>
     </g>
    </g>
    <g id="ytick_14">
     <g id="line2d_102">
      <path clip-path="url(#p935ae39b58)" d="M 39.65 353.990142 
L 876.65 353.990142 
" style="fill:none;stroke:#666666;stroke-linecap:square;stroke-opacity:0.3;stroke-width:0.8;"/>
     </g>
     <g id="line2d_103">
      <g>
       <use style="stroke:#000000;stroke-width:0.8;" x="39.65" xlink:href="#m7850520feb" y="353.990142"/>
      </g>
     </g>
     <g id="text_50">
      <!-- 2 -->
      <g transform="translate(26.2875 357.789361)scale(0.1 -0.1)">
       <use xlink:href="#DejaVuSans-50"/>
      </g>
     </g>
    </g>
    <g id="text_51">
     <!-- 1e7 -->
     <g transform="translate(39.65 339.678857)scale(0.1 -0.1)">
      <defs>
       <path d="M 56.203125 29.59375 
L 56.203125 25.203125 
L 14.890625 25.203125 
Q 15.484375 15.921875 20.484375 11.0625 
Q 25.484375 6.203125 34.421875 6.203125 
Q 39.59375 6.203125 44.453125 7.46875 
Q 49.3125 8.734375 54.109375 11.28125 
L 54.109375 2.78125 
Q 49.265625 0.734375 44.1875 -0.34375 
Q 39.109375 -1.421875 33.890625 -1.421875 
Q 20.796875 -1.421875 13.15625 6.1875 
Q 5.515625 13.8125 5.515625 26.8125 
Q 5.515625 40.234375 12.765625 48.109375 
Q 20.015625 56 32.328125 56 
Q 43.359375 56 49.78125 48.890625 
Q 56.203125 41.796875 56.203125 29.59375 
z
M 47.21875 32.234375 
Q 47.125 39.59375 43.09375 43.984375 
Q 39.0625 48.390625 32.421875 48.390625 
Q 24.90625 48.390625 20.390625 44.140625 
Q 15.875 39.890625 15.1875 32.171875 
z
" id="DejaVuSans-101"/>
      </defs>
      <use xlink:href="#DejaVuSans-49"/>
      <use x="63.623047" xlink:href="#DejaVuSans-101"/>
      <use x="125.146484" xlink:href="#DejaVuSans-55"/>
     </g>
    </g>
   </g>
   <g id="line2d_104">
    <path clip-path="url(#p935ae39b58)" d="M 77.695455 431.631584 
L 87.450699 431.631581 
L 97.205944 431.631511 
L 106.961189 431.630882 
L 116.716434 431.627111 
L 126.471678 431.610177 
L 136.226923 431.54947 
L 145.982168 431.368626 
L 155.737413 430.90862 
L 165.492657 429.889742 
L 175.247902 427.896077 
L 185.003147 424.412391 
L 194.758392 418.93314 
L 204.513636 411.133966 
L 214.268881 401.058336 
L 224.024126 389.246452 
L 233.779371 376.738876 
L 243.534615 364.926991 
L 253.28986 355.280529 
L 263.045105 349.031919 
L 272.80035 346.914701 
L 282.555594 349.031919 
L 292.310839 354.882156 
L 302.066084 363.5182 
L 311.821329 373.777305 
L 321.576573 384.512811 
L 331.331818 394.771916 
L 341.087063 403.892451 
L 350.842308 411.519753 
L 360.597552 417.564155 
L 370.352797 422.12711 
L 380.108042 425.421457 
L 389.863287 427.703259 
L 399.618531 429.223376 
L 409.373776 430.199469 
L 419.129021 430.804686 
L 428.884266 431.167618 
L 438.63951 431.378404 
L 448.394755 431.497118 
L 458.15 431.562026 
L 467.905245 431.596515 
L 477.66049 431.61434 
L 487.415734 431.62331 
L 497.170979 431.627707 
L 506.926224 431.62981 
L 516.681469 431.63079 
L 526.436713 431.631237 
L 536.191958 431.631436 
L 545.947203 431.631522 
L 555.702448 431.631559 
L 565.457692 431.631574 
L 575.212937 431.63158 
L 584.968182 431.631583 
L 594.723427 431.631584 
L 604.478671 431.631584 
L 614.233916 431.631584 
L 623.989161 431.631584 
L 633.744406 431.631584 
L 643.49965 431.631584 
L 653.254895 431.631584 
L 663.01014 431.631584 
L 672.765385 431.631584 
L 682.520629 431.631584 
L 692.275874 431.631584 
L 702.031119 431.631584 
L 711.786364 431.631584 
L 721.541608 431.631584 
L 731.296853 431.631584 
L 741.052098 431.631584 
L 750.807343 431.631584 
L 760.562587 431.631584 
L 770.317832 431.631584 
L 780.073077 431.631584 
L 789.828322 431.631584 
L 799.583566 431.631584 
L 809.338811 431.631584 
L 819.094056 431.631584 
L 828.849301 431.631584 
L 838.604545 431.631584 
" style="fill:none;stroke:#1f77b4;stroke-linecap:square;stroke-width:1.5;"/>
   </g>
   <g id="patch_18">
    <path d="M 39.65 435.867429 
L 39.65 342.678857 
" style="fill:none;stroke:#000000;stroke-linecap:square;stroke-linejoin:miter;stroke-width:0.8;"/>
   </g>
   <g id="patch_19">
    <path d="M 876.65 435.867429 
L 876.65 342.678857 
" style="fill:none;stroke:#000000;stroke-linecap:square;stroke-linejoin:miter;stroke-width:0.8;"/>
   </g>
   <g id="patch_20">
    <path d="M 39.65 435.867429 
L 876.65 435.867429 
" style="fill:none;stroke:#000000;stroke-linecap:square;stroke-linejoin:miter;stroke-width:0.8;"/>
   </g>
   <g id="patch_21">
    <path d="M 39.65 342.678857 
L 876.65 342.678857 
" style="fill:none;stroke:#000000;stroke-linecap:square;stroke-linejoin:miter;stroke-width:0.8;"/>
   </g>
  </g>
  <g id="axes_5">
   <g id="patch_22">
    <path d="M 39.65 547.693714 
L 876.65 547.693714 
L 876.65 454.505143 
L 39.65 454.505143 
z
" style="fill:#ffffff;"/>
   </g>
   <g id="matplotlib.axis_9">
    <g id="xtick_37">
     <g id="line2d_105">
      <path clip-path="url(#p18cdc48447)" d="M 67.94021 547.693714 
L 67.94021 454.505143 
" style="fill:none;stroke:#666666;stroke-linecap:square;stroke-opacity:0.3;stroke-width:0.8;"/>
     </g>
     <g id="line2d_106">
      <g>
       <use style="stroke:#000000;stroke-width:0.8;" x="67.94021" xlink:href="#m01a08a2f72" y="547.693714"/>
      </g>
     </g>
     <g id="text_52">
      <!-- 0 -->
      <g transform="translate(64.75896 562.292152)scale(0.1 -0.1)">
       <use xlink:href="#DejaVuSans-48"/>
      </g>
     </g>
    </g>
    <g id="xtick_38">
     <g id="line2d_107">
      <path clip-path="url(#p18cdc48447)" d="M 165.492657 547.693714 
L 165.492657 454.505143 
" style="fill:none;stroke:#666666;stroke-linecap:square;stroke-opacity:0.3;stroke-width:0.8;"/>
     </g>
     <g id="line2d_108">
      <g>
       <use style="stroke:#000000;stroke-width:0.8;" x="165.492657" xlink:href="#m01a08a2f72" y="547.693714"/>
      </g>
     </g>
     <g id="text_53">
      <!-- 10 -->
      <g transform="translate(159.130157 562.292152)scale(0.1 -0.1)">
       <use xlink:href="#DejaVuSans-49"/>
       <use x="63.623047" xlink:href="#DejaVuSans-48"/>
      </g>
     </g>
    </g>
    <g id="xtick_39">
     <g id="line2d_109">
      <path clip-path="url(#p18cdc48447)" d="M 263.045105 547.693714 
L 263.045105 454.505143 
" style="fill:none;stroke:#666666;stroke-linecap:square;stroke-opacity:0.3;stroke-width:0.8;"/>
     </g>
     <g id="line2d_110">
      <g>
       <use style="stroke:#000000;stroke-width:0.8;" x="263.045105" xlink:href="#m01a08a2f72" y="547.693714"/>
      </g>
     </g>
     <g id="text_54">
      <!-- 20 -->
      <g transform="translate(256.682605 562.292152)scale(0.1 -0.1)">
       <use xlink:href="#DejaVuSans-50"/>
       <use x="63.623047" xlink:href="#DejaVuSans-48"/>
      </g>
     </g>
    </g>
    <g id="xtick_40">
     <g id="line2d_111">
      <path clip-path="url(#p18cdc48447)" d="M 360.597552 547.693714 
L 360.597552 454.505143 
" style="fill:none;stroke:#666666;stroke-linecap:square;stroke-opacity:0.3;stroke-width:0.8;"/>
     </g>
     <g id="line2d_112">
      <g>
       <use style="stroke:#000000;stroke-width:0.8;" x="360.597552" xlink:href="#m01a08a2f72" y="547.693714"/>
      </g>
     </g>
     <g id="text_55">
      <!-- 30 -->
      <g transform="translate(354.235052 562.292152)scale(0.1 -0.1)">
       <use xlink:href="#DejaVuSans-51"/>
       <use x="63.623047" xlink:href="#DejaVuSans-48"/>
      </g>
     </g>
    </g>
    <g id="xtick_41">
     <g id="line2d_113">
      <path clip-path="url(#p18cdc48447)" d="M 458.15 547.693714 
L 458.15 454.505143 
" style="fill:none;stroke:#666666;stroke-linecap:square;stroke-opacity:0.3;stroke-width:0.8;"/>
     </g>
     <g id="line2d_114">
      <g>
       <use style="stroke:#000000;stroke-width:0.8;" x="458.15" xlink:href="#m01a08a2f72" y="547.693714"/>
      </g>
     </g>
     <g id="text_56">
      <!-- 40 -->
      <g transform="translate(451.7875 562.292152)scale(0.1 -0.1)">
       <use xlink:href="#DejaVuSans-52"/>
       <use x="63.623047" xlink:href="#DejaVuSans-48"/>
      </g>
     </g>
    </g>
    <g id="xtick_42">
     <g id="line2d_115">
      <path clip-path="url(#p18cdc48447)" d="M 555.702448 547.693714 
L 555.702448 454.505143 
" style="fill:none;stroke:#666666;stroke-linecap:square;stroke-opacity:0.3;stroke-width:0.8;"/>
     </g>
     <g id="line2d_116">
      <g>
       <use style="stroke:#000000;stroke-width:0.8;" x="555.702448" xlink:href="#m01a08a2f72" y="547.693714"/>
      </g>
     </g>
     <g id="text_57">
      <!-- 50 -->
      <g transform="translate(549.339948 562.292152)scale(0.1 -0.1)">
       <use xlink:href="#DejaVuSans-53"/>
       <use x="63.623047" xlink:href="#DejaVuSans-48"/>
      </g>
     </g>
    </g>
    <g id="xtick_43">
     <g id="line2d_117">
      <path clip-path="url(#p18cdc48447)" d="M 653.254895 547.693714 
L 653.254895 454.505143 
" style="fill:none;stroke:#666666;stroke-linecap:square;stroke-opacity:0.3;stroke-width:0.8;"/>
     </g>
     <g id="line2d_118">
      <g>
       <use style="stroke:#000000;stroke-width:0.8;" x="653.254895" xlink:href="#m01a08a2f72" y="547.693714"/>
      </g>
     </g>
     <g id="text_58">
      <!-- 60 -->
      <g transform="translate(646.892395 562.292152)scale(0.1 -0.1)">
       <use xlink:href="#DejaVuSans-54"/>
       <use x="63.623047" xlink:href="#DejaVuSans-48"/>
      </g>
     </g>
    </g>
    <g id="xtick_44">
     <g id="line2d_119">
      <path clip-path="url(#p18cdc48447)" d="M 750.807343 547.693714 
L 750.807343 454.505143 
" style="fill:none;stroke:#666666;stroke-linecap:square;stroke-opacity:0.3;stroke-width:0.8;"/>
     </g>
     <g id="line2d_120">
      <g>
       <use style="stroke:#000000;stroke-width:0.8;" x="750.807343" xlink:href="#m01a08a2f72" y="547.693714"/>
      </g>
     </g>
     <g id="text_59">
      <!-- 70 -->
      <g transform="translate(744.444843 562.292152)scale(0.1 -0.1)">
       <use xlink:href="#DejaVuSans-55"/>
       <use x="63.623047" xlink:href="#DejaVuSans-48"/>
      </g>
     </g>
    </g>
    <g id="xtick_45">
     <g id="line2d_121">
      <path clip-path="url(#p18cdc48447)" d="M 848.35979 547.693714 
L 848.35979 454.505143 
" style="fill:none;stroke:#666666;stroke-linecap:square;stroke-opacity:0.3;stroke-width:0.8;"/>
     </g>
     <g id="line2d_122">
      <g>
       <use style="stroke:#000000;stroke-width:0.8;" x="848.35979" xlink:href="#m01a08a2f72" y="547.693714"/>
      </g>
     </g>
     <g id="text_60">
      <!-- 80 -->
      <g transform="translate(841.99729 562.292152)scale(0.1 -0.1)">
       <use xlink:href="#DejaVuSans-56"/>
       <use x="63.623047" xlink:href="#DejaVuSans-48"/>
      </g>
     </g>
    </g>
   </g>
   <g id="matplotlib.axis_10">
    <g id="ytick_15">
     <g id="line2d_123">
      <path clip-path="url(#p18cdc48447)" d="M 39.65 543.45787 
L 876.65 543.45787 
" style="fill:none;stroke:#666666;stroke-linecap:square;stroke-opacity:0.3;stroke-width:0.8;"/>
     </g>
     <g id="line2d_124">
      <g>
       <use style="stroke:#000000;stroke-width:0.8;" x="39.65" xlink:href="#m7850520feb" y="543.45787"/>
      </g>
     </g>
     <g id="text_61">
      <!-- 0.0 -->
      <g transform="translate(16.746875 547.257089)scale(0.1 -0.1)">
       <use xlink:href="#DejaVuSans-48"/>
       <use x="63.623047" xlink:href="#DejaVuSans-46"/>
       <use x="95.410156" xlink:href="#DejaVuSans-48"/>
      </g>
     </g>
    </g>
    <g id="ytick_16">
     <g id="line2d_125">
      <path clip-path="url(#p18cdc48447)" d="M 39.65 514.593119 
L 876.65 514.593119 
" style="fill:none;stroke:#666666;stroke-linecap:square;stroke-opacity:0.3;stroke-width:0.8;"/>
     </g>
     <g id="line2d_126">
      <g>
       <use style="stroke:#000000;stroke-width:0.8;" x="39.65" xlink:href="#m7850520feb" y="514.593119"/>
      </g>
     </g>
     <g id="text_62">
      <!-- 0.5 -->
      <g transform="translate(16.746875 518.392338)scale(0.1 -0.1)">
       <use xlink:href="#DejaVuSans-48"/>
       <use x="63.623047" xlink:href="#DejaVuSans-46"/>
       <use x="95.410156" xlink:href="#DejaVuSans-53"/>
      </g>
     </g>
    </g>
    <g id="ytick_17">
     <g id="line2d_127">
      <path clip-path="url(#p18cdc48447)" d="M 39.65 485.728368 
L 876.65 485.728368 
" style="fill:none;stroke:#666666;stroke-linecap:square;stroke-opacity:0.3;stroke-width:0.8;"/>
     </g>
     <g id="line2d_128">
      <g>
       <use style="stroke:#000000;stroke-width:0.8;" x="39.65" xlink:href="#m7850520feb" y="485.728368"/>
      </g>
     </g>
     <g id="text_63">
      <!-- 1.0 -->
      <g transform="translate(16.746875 489.527587)scale(0.1 -0.1)">
       <use xlink:href="#DejaVuSans-49"/>
       <use x="63.623047" xlink:href="#DejaVuSans-46"/>
       <use x="95.410156" xlink:href="#DejaVuSans-48"/>
      </g>
     </g>
    </g>
    <g id="ytick_18">
     <g id="line2d_129">
      <path clip-path="url(#p18cdc48447)" d="M 39.65 456.863617 
L 876.65 456.863617 
" style="fill:none;stroke:#666666;stroke-linecap:square;stroke-opacity:0.3;stroke-width:0.8;"/>
     </g>
     <g id="line2d_130">
      <g>
       <use style="stroke:#000000;stroke-width:0.8;" x="39.65" xlink:href="#m7850520feb" y="456.863617"/>
      </g>
     </g>
     <g id="text_64">
      <!-- 1.5 -->
      <g transform="translate(16.746875 460.662836)scale(0.1 -0.1)">
       <use xlink:href="#DejaVuSans-49"/>
       <use x="63.623047" xlink:href="#DejaVuSans-46"/>
       <use x="95.410156" xlink:href="#DejaVuSans-53"/>
      </g>
     </g>
    </g>
    <g id="text_65">
     <!-- 1e20 -->
     <g transform="translate(39.65 451.505143)scale(0.1 -0.1)">
      <use xlink:href="#DejaVuSans-49"/>
      <use x="63.623047" xlink:href="#DejaVuSans-101"/>
      <use x="125.146484" xlink:href="#DejaVuSans-50"/>
      <use x="188.769531" xlink:href="#DejaVuSans-48"/>
     </g>
    </g>
   </g>
   <g id="line2d_131">
    <path clip-path="url(#p18cdc48447)" d="M 77.695455 543.45787 
L 87.450699 543.45787 
L 97.205944 543.45787 
L 106.961189 543.45787 
L 116.716434 543.45787 
L 126.471678 543.45787 
L 136.226923 543.45787 
L 145.982168 543.45787 
L 155.737413 543.45787 
L 165.492657 543.45787 
L 175.247902 543.45787 
L 185.003147 543.45787 
L 194.758392 543.45787 
L 204.513636 543.45787 
L 214.268881 543.457869 
L 224.024126 543.457867 
L 233.779371 543.45786 
L 243.534615 543.457838 
L 253.28986 543.457778 
L 263.045105 543.457618 
L 272.80035 543.457217 
L 282.555594 543.45626 
L 292.310839 543.454092 
L 302.066084 543.449403 
L 311.821329 543.439717 
L 321.576573 543.420564 
L 331.331818 543.384258 
L 341.087063 543.318178 
L 350.842308 543.202554 
L 360.597552 543.007816 
L 370.352797 542.691769 
L 380.108042 542.197045 
L 389.863287 541.44946 
L 399.618531 540.3581 
L 409.373776 538.817973 
L 419.129021 536.715904 
L 428.884266 533.940032 
L 438.63951 530.392647 
L 448.394755 526.005442 
L 458.15 520.755494 
L 467.905245 514.679729 
L 477.66049 507.885365 
L 487.415734 500.553977 
L 497.170979 492.937479 
L 506.926224 485.345372 
L 516.681469 478.123903 
L 526.436713 471.629099 
L 536.191958 466.196709 
L 545.947203 462.11272 
L 555.702448 459.588112 
L 565.457692 458.740987 
L 575.212937 459.588112 
L 584.968182 462.046607 
L 594.723427 465.945075 
L 604.478671 471.042309 
L 614.233916 477.050879 
L 623.989161 483.662541 
L 633.744406 490.572556 
L 643.49965 497.500515 
L 653.254895 504.206028 
L 663.01014 510.498528 
L 672.765385 516.241225 
L 682.520629 521.349935 
L 692.275874 525.787918 
L 702.031119 529.558071 
L 711.786364 532.693801 
L 721.541608 535.249733 
L 731.296853 537.293124 
L 741.052098 538.896584 
L 750.807343 540.132368 
L 760.562587 541.068308 
L 770.317832 541.765243 
L 780.073077 542.275716 
L 789.828322 542.643649 
L 799.583566 542.904711 
L 809.338811 543.087123 
L 819.094056 543.21268 
L 828.849301 543.297839 
L 838.604545 543.35477 
" style="fill:none;stroke:#1f77b4;stroke-linecap:square;stroke-width:1.5;"/>
   </g>
   <g id="patch_23">
    <path d="M 39.65 547.693714 
L 39.65 454.505143 
" style="fill:none;stroke:#000000;stroke-linecap:square;stroke-linejoin:miter;stroke-width:0.8;"/>
   </g>
   <g id="patch_24">
    <path d="M 876.65 547.693714 
L 876.65 454.505143 
" style="fill:none;stroke:#000000;stroke-linecap:square;stroke-linejoin:miter;stroke-width:0.8;"/>
   </g>
   <g id="patch_25">
    <path d="M 39.65 547.693714 
L 876.65 547.693714 
" style="fill:none;stroke:#000000;stroke-linecap:square;stroke-linejoin:miter;stroke-width:0.8;"/>
   </g>
   <g id="patch_26">
    <path d="M 39.65 454.505143 
L 876.65 454.505143 
" style="fill:none;stroke:#000000;stroke-linecap:square;stroke-linejoin:miter;stroke-width:0.8;"/>
   </g>
  </g>
  <g id="axes_6">
   <g id="patch_27">
    <path d="M 39.65 659.52 
L 876.65 659.52 
L 876.65 566.331429 
L 39.65 566.331429 
z
" style="fill:#ffffff;"/>
   </g>
   <g id="matplotlib.axis_11">
    <g id="xtick_46">
     <g id="line2d_132">
      <path clip-path="url(#p47de0d9af2)" d="M 67.94021 659.52 
L 67.94021 566.331429 
" style="fill:none;stroke:#666666;stroke-linecap:square;stroke-opacity:0.3;stroke-width:0.8;"/>
     </g>
     <g id="line2d_133">
      <g>
       <use style="stroke:#000000;stroke-width:0.8;" x="67.94021" xlink:href="#m01a08a2f72" y="659.52"/>
      </g>
     </g>
     <g id="text_66">
      <!-- 0 -->
      <g transform="translate(64.75896 674.118438)scale(0.1 -0.1)">
       <use xlink:href="#DejaVuSans-48"/>
      </g>
     </g>
    </g>
    <g id="xtick_47">
     <g id="line2d_134">
      <path clip-path="url(#p47de0d9af2)" d="M 165.492657 659.52 
L 165.492657 566.331429 
" style="fill:none;stroke:#666666;stroke-linecap:square;stroke-opacity:0.3;stroke-width:0.8;"/>
     </g>
     <g id="line2d_135">
      <g>
       <use style="stroke:#000000;stroke-width:0.8;" x="165.492657" xlink:href="#m01a08a2f72" y="659.52"/>
      </g>
     </g>
     <g id="text_67">
      <!-- 10 -->
      <g transform="translate(159.130157 674.118438)scale(0.1 -0.1)">
       <use xlink:href="#DejaVuSans-49"/>
       <use x="63.623047" xlink:href="#DejaVuSans-48"/>
      </g>
     </g>
    </g>
    <g id="xtick_48">
     <g id="line2d_136">
      <path clip-path="url(#p47de0d9af2)" d="M 263.045105 659.52 
L 263.045105 566.331429 
" style="fill:none;stroke:#666666;stroke-linecap:square;stroke-opacity:0.3;stroke-width:0.8;"/>
     </g>
     <g id="line2d_137">
      <g>
       <use style="stroke:#000000;stroke-width:0.8;" x="263.045105" xlink:href="#m01a08a2f72" y="659.52"/>
      </g>
     </g>
     <g id="text_68">
      <!-- 20 -->
      <g transform="translate(256.682605 674.118438)scale(0.1 -0.1)">
       <use xlink:href="#DejaVuSans-50"/>
       <use x="63.623047" xlink:href="#DejaVuSans-48"/>
      </g>
     </g>
    </g>
    <g id="xtick_49">
     <g id="line2d_138">
      <path clip-path="url(#p47de0d9af2)" d="M 360.597552 659.52 
L 360.597552 566.331429 
" style="fill:none;stroke:#666666;stroke-linecap:square;stroke-opacity:0.3;stroke-width:0.8;"/>
     </g>
     <g id="line2d_139">
      <g>
       <use style="stroke:#000000;stroke-width:0.8;" x="360.597552" xlink:href="#m01a08a2f72" y="659.52"/>
      </g>
     </g>
     <g id="text_69">
      <!-- 30 -->
      <g transform="translate(354.235052 674.118438)scale(0.1 -0.1)">
       <use xlink:href="#DejaVuSans-51"/>
       <use x="63.623047" xlink:href="#DejaVuSans-48"/>
      </g>
     </g>
    </g>
    <g id="xtick_50">
     <g id="line2d_140">
      <path clip-path="url(#p47de0d9af2)" d="M 458.15 659.52 
L 458.15 566.331429 
" style="fill:none;stroke:#666666;stroke-linecap:square;stroke-opacity:0.3;stroke-width:0.8;"/>
     </g>
     <g id="line2d_141">
      <g>
       <use style="stroke:#000000;stroke-width:0.8;" x="458.15" xlink:href="#m01a08a2f72" y="659.52"/>
      </g>
     </g>
     <g id="text_70">
      <!-- 40 -->
      <g transform="translate(451.7875 674.118438)scale(0.1 -0.1)">
       <use xlink:href="#DejaVuSans-52"/>
       <use x="63.623047" xlink:href="#DejaVuSans-48"/>
      </g>
     </g>
    </g>
    <g id="xtick_51">
     <g id="line2d_142">
      <path clip-path="url(#p47de0d9af2)" d="M 555.702448 659.52 
L 555.702448 566.331429 
" style="fill:none;stroke:#666666;stroke-linecap:square;stroke-opacity:0.3;stroke-width:0.8;"/>
     </g>
     <g id="line2d_143">
      <g>
       <use style="stroke:#000000;stroke-width:0.8;" x="555.702448" xlink:href="#m01a08a2f72" y="659.52"/>
      </g>
     </g>
     <g id="text_71">
      <!-- 50 -->
      <g transform="translate(549.339948 674.118438)scale(0.1 -0.1)">
       <use xlink:href="#DejaVuSans-53"/>
       <use x="63.623047" xlink:href="#DejaVuSans-48"/>
      </g>
     </g>
    </g>
    <g id="xtick_52">
     <g id="line2d_144">
      <path clip-path="url(#p47de0d9af2)" d="M 653.254895 659.52 
L 653.254895 566.331429 
" style="fill:none;stroke:#666666;stroke-linecap:square;stroke-opacity:0.3;stroke-width:0.8;"/>
     </g>
     <g id="line2d_145">
      <g>
       <use style="stroke:#000000;stroke-width:0.8;" x="653.254895" xlink:href="#m01a08a2f72" y="659.52"/>
      </g>
     </g>
     <g id="text_72">
      <!-- 60 -->
      <g transform="translate(646.892395 674.118438)scale(0.1 -0.1)">
       <use xlink:href="#DejaVuSans-54"/>
       <use x="63.623047" xlink:href="#DejaVuSans-48"/>
      </g>
     </g>
    </g>
    <g id="xtick_53">
     <g id="line2d_146">
      <path clip-path="url(#p47de0d9af2)" d="M 750.807343 659.52 
L 750.807343 566.331429 
" style="fill:none;stroke:#666666;stroke-linecap:square;stroke-opacity:0.3;stroke-width:0.8;"/>
     </g>
     <g id="line2d_147">
      <g>
       <use style="stroke:#000000;stroke-width:0.8;" x="750.807343" xlink:href="#m01a08a2f72" y="659.52"/>
      </g>
     </g>
     <g id="text_73">
      <!-- 70 -->
      <g transform="translate(744.444843 674.118438)scale(0.1 -0.1)">
       <use xlink:href="#DejaVuSans-55"/>
       <use x="63.623047" xlink:href="#DejaVuSans-48"/>
      </g>
     </g>
    </g>
    <g id="xtick_54">
     <g id="line2d_148">
      <path clip-path="url(#p47de0d9af2)" d="M 848.35979 659.52 
L 848.35979 566.331429 
" style="fill:none;stroke:#666666;stroke-linecap:square;stroke-opacity:0.3;stroke-width:0.8;"/>
     </g>
     <g id="line2d_149">
      <g>
       <use style="stroke:#000000;stroke-width:0.8;" x="848.35979" xlink:href="#m01a08a2f72" y="659.52"/>
      </g>
     </g>
     <g id="text_74">
      <!-- 80 -->
      <g transform="translate(841.99729 674.118438)scale(0.1 -0.1)">
       <use xlink:href="#DejaVuSans-56"/>
       <use x="63.623047" xlink:href="#DejaVuSans-48"/>
      </g>
     </g>
    </g>
   </g>
   <g id="matplotlib.axis_12">
    <g id="ytick_19">
     <g id="line2d_150">
      <path clip-path="url(#p47de0d9af2)" d="M 39.65 655.284156 
L 876.65 655.284156 
" style="fill:none;stroke:#666666;stroke-linecap:square;stroke-opacity:0.3;stroke-width:0.8;"/>
     </g>
     <g id="line2d_151">
      <g>
       <use style="stroke:#000000;stroke-width:0.8;" x="39.65" xlink:href="#m7850520feb" y="655.284156"/>
      </g>
     </g>
     <g id="text_75">
      <!-- 0.0 -->
      <g transform="translate(16.746875 659.083375)scale(0.1 -0.1)">
       <use xlink:href="#DejaVuSans-48"/>
       <use x="63.623047" xlink:href="#DejaVuSans-46"/>
       <use x="95.410156" xlink:href="#DejaVuSans-48"/>
      </g>
     </g>
    </g>
    <g id="ytick_20">
     <g id="line2d_152">
      <path clip-path="url(#p47de0d9af2)" d="M 39.65 620.200887 
L 876.65 620.200887 
" style="fill:none;stroke:#666666;stroke-linecap:square;stroke-opacity:0.3;stroke-width:0.8;"/>
     </g>
     <g id="line2d_153">
      <g>
       <use style="stroke:#000000;stroke-width:0.8;" x="39.65" xlink:href="#m7850520feb" y="620.200887"/>
      </g>
     </g>
     <g id="text_76">
      <!-- 0.5 -->
      <g transform="translate(16.746875 624.000106)scale(0.1 -0.1)">
       <use xlink:href="#DejaVuSans-48"/>
       <use x="63.623047" xlink:href="#DejaVuSans-46"/>
       <use x="95.410156" xlink:href="#DejaVuSans-53"/>
      </g>
     </g>
    </g>
    <g id="ytick_21">
     <g id="line2d_154">
      <path clip-path="url(#p47de0d9af2)" d="M 39.65 585.117618 
L 876.65 585.117618 
" style="fill:none;stroke:#666666;stroke-linecap:square;stroke-opacity:0.3;stroke-width:0.8;"/>
     </g>
     <g id="line2d_155">
      <g>
       <use style="stroke:#000000;stroke-width:0.8;" x="39.65" xlink:href="#m7850520feb" y="585.117618"/>
      </g>
     </g>
     <g id="text_77">
      <!-- 1.0 -->
      <g transform="translate(16.746875 588.916837)scale(0.1 -0.1)">
       <use xlink:href="#DejaVuSans-49"/>
       <use x="63.623047" xlink:href="#DejaVuSans-46"/>
       <use x="95.410156" xlink:href="#DejaVuSans-48"/>
      </g>
     </g>
    </g>
    <g id="text_78">
     <!-- 1e33 -->
     <g transform="translate(39.65 563.331429)scale(0.1 -0.1)">
      <use xlink:href="#DejaVuSans-49"/>
      <use x="63.623047" xlink:href="#DejaVuSans-101"/>
      <use x="125.146484" xlink:href="#DejaVuSans-51"/>
      <use x="188.769531" xlink:href="#DejaVuSans-51"/>
     </g>
    </g>
   </g>
   <g id="line2d_156">
    <path clip-path="url(#p47de0d9af2)" d="M 77.695455 655.284156 
L 87.450699 655.284156 
L 97.205944 655.284156 
L 106.961189 655.284156 
L 116.716434 655.284156 
L 126.471678 655.284156 
L 136.226923 655.284156 
L 145.982168 655.284156 
L 155.737413 655.284156 
L 165.492657 655.284156 
L 175.247902 655.284156 
L 185.003147 655.284156 
L 194.758392 655.284156 
L 204.513636 655.284156 
L 214.268881 655.284156 
L 224.024126 655.284156 
L 233.779371 655.284156 
L 243.534615 655.284156 
L 253.28986 655.284156 
L 263.045105 655.284156 
L 272.80035 655.284156 
L 282.555594 655.284156 
L 292.310839 655.284156 
L 302.066084 655.284156 
L 311.821329 655.284156 
L 321.576573 655.284156 
L 331.331818 655.284156 
L 341.087063 655.284156 
L 350.842308 655.284156 
L 360.597552 655.284156 
L 370.352797 655.284156 
L 380.108042 655.284156 
L 389.863287 655.284155 
L 399.618531 655.284154 
L 409.373776 655.284152 
L 419.129021 655.284147 
L 428.884266 655.284137 
L 438.63951 655.284114 
L 448.394755 655.284066 
L 458.15 655.283967 
L 467.905245 655.283773 
L 477.66049 655.283396 
L 487.415734 655.282685 
L 497.170979 655.281378 
L 506.926224 655.27903 
L 516.681469 655.274911 
L 526.436713 655.267852 
L 536.191958 655.256027 
L 545.947203 655.236655 
L 555.702448 655.205607 
L 565.457692 655.156909 
L 575.212937 655.08213 
L 584.968182 654.969676 
L 594.723427 654.804013 
L 604.478671 654.564869 
L 614.233916 654.226509 
L 623.989161 653.757171 
L 633.744406 653.11881 
L 643.49965 652.267284 
L 653.254895 651.153141 
L 663.01014 649.72312 
L 672.765385 647.922457 
L 682.520629 645.698006 
L 692.275874 643.002114 
L 702.031119 639.797066 
L 711.786364 636.059831 
L 721.541608 631.786739 
L 731.296853 626.997643 
L 741.052098 621.739111 
L 750.807343 616.086192 
L 760.562587 610.1424 
L 770.317832 604.037661 
L 780.073077 597.924171 
L 789.828322 591.970274 
L 799.583566 586.352704 
L 809.338811 581.24768 
L 819.094056 576.821509 
L 828.849301 573.22141 
L 838.604545 570.567273 
" style="fill:none;stroke:#1f77b4;stroke-linecap:square;stroke-width:1.5;"/>
   </g>
   <g id="patch_28">
    <path d="M 39.65 659.52 
L 39.65 566.331429 
" style="fill:none;stroke:#000000;stroke-linecap:square;stroke-linejoin:miter;stroke-width:0.8;"/>
   </g>
   <g id="patch_29">
    <path d="M 876.65 659.52 
L 876.65 566.331429 
" style="fill:none;stroke:#000000;stroke-linecap:square;stroke-linejoin:miter;stroke-width:0.8;"/>
   </g>
   <g id="patch_30">
    <path d="M 39.65 659.52 
L 876.65 659.52 
" style="fill:none;stroke:#000000;stroke-linecap:square;stroke-linejoin:miter;stroke-width:0.8;"/>
   </g>
   <g id="patch_31">
    <path d="M 39.65 566.331429 
L 876.65 566.331429 
" style="fill:none;stroke:#000000;stroke-linecap:square;stroke-linejoin:miter;stroke-width:0.8;"/>
   </g>
   <g id="legend_1">
    <g id="patch_32">
     <path d="M 46.65 589.009554 
L 231.7125 589.009554 
Q 233.7125 589.009554 233.7125 587.009554 
L 233.7125 573.331429 
Q 233.7125 571.331429 231.7125 571.331429 
L 46.65 571.331429 
Q 44.65 571.331429 44.65 573.331429 
L 44.65 587.009554 
Q 44.65 589.009554 46.65 589.009554 
z
" style="fill:#ffffff;opacity:0.8;stroke:#cccccc;stroke-linejoin:miter;"/>
    </g>
    <g id="line2d_157">
     <path d="M 48.65 579.429866 
L 68.65 579.429866 
" style="fill:none;stroke:#1f77b4;stroke-linecap:square;stroke-width:1.5;"/>
    </g>
    <g id="line2d_158"/>
    <g id="text_79">
     <!-- Absolute error for partial sums -->
     <g transform="translate(76.65 582.929866)scale(0.1 -0.1)">
      <defs>
       <path d="M 34.1875 63.1875 
L 20.796875 26.90625 
L 47.609375 26.90625 
z
M 28.609375 72.90625 
L 39.796875 72.90625 
L 67.578125 0 
L 57.328125 0 
L 50.6875 18.703125 
L 17.828125 18.703125 
L 11.1875 0 
L 0.78125 0 
z
" id="DejaVuSans-65"/>
       <path d="M 48.6875 27.296875 
Q 48.6875 37.203125 44.609375 42.84375 
Q 40.53125 48.484375 33.40625 48.484375 
Q 26.265625 48.484375 22.1875 42.84375 
Q 18.109375 37.203125 18.109375 27.296875 
Q 18.109375 17.390625 22.1875 11.75 
Q 26.265625 6.109375 33.40625 6.109375 
Q 40.53125 6.109375 44.609375 11.75 
Q 48.6875 17.390625 48.6875 27.296875 
z
M 18.109375 46.390625 
Q 20.953125 51.265625 25.265625 53.625 
Q 29.59375 56 35.59375 56 
Q 45.5625 56 51.78125 48.09375 
Q 58.015625 40.1875 58.015625 27.296875 
Q 58.015625 14.40625 51.78125 6.484375 
Q 45.5625 -1.421875 35.59375 -1.421875 
Q 29.59375 -1.421875 25.265625 0.953125 
Q 20.953125 3.328125 18.109375 8.203125 
L 18.109375 0 
L 9.078125 0 
L 9.078125 75.984375 
L 18.109375 75.984375 
z
" id="DejaVuSans-98"/>
       <path d="M 44.28125 53.078125 
L 44.28125 44.578125 
Q 40.484375 46.53125 36.375 47.5 
Q 32.28125 48.484375 27.875 48.484375 
Q 21.1875 48.484375 17.84375 46.4375 
Q 14.5 44.390625 14.5 40.28125 
Q 14.5 37.15625 16.890625 35.375 
Q 19.28125 33.59375 26.515625 31.984375 
L 29.59375 31.296875 
Q 39.15625 29.25 43.1875 25.515625 
Q 47.21875 21.78125 47.21875 15.09375 
Q 47.21875 7.46875 41.1875 3.015625 
Q 35.15625 -1.421875 24.609375 -1.421875 
Q 20.21875 -1.421875 15.453125 -0.5625 
Q 10.6875 0.296875 5.421875 2 
L 5.421875 11.28125 
Q 10.40625 8.6875 15.234375 7.390625 
Q 20.0625 6.109375 24.8125 6.109375 
Q 31.15625 6.109375 34.5625 8.28125 
Q 37.984375 10.453125 37.984375 14.40625 
Q 37.984375 18.0625 35.515625 20.015625 
Q 33.0625 21.96875 24.703125 23.78125 
L 21.578125 24.515625 
Q 13.234375 26.265625 9.515625 29.90625 
Q 5.8125 33.546875 5.8125 39.890625 
Q 5.8125 47.609375 11.28125 51.796875 
Q 16.75 56 26.8125 56 
Q 31.78125 56 36.171875 55.265625 
Q 40.578125 54.546875 44.28125 53.078125 
z
" id="DejaVuSans-115"/>
       <path d="M 30.609375 48.390625 
Q 23.390625 48.390625 19.1875 42.75 
Q 14.984375 37.109375 14.984375 27.296875 
Q 14.984375 17.484375 19.15625 11.84375 
Q 23.34375 6.203125 30.609375 6.203125 
Q 37.796875 6.203125 41.984375 11.859375 
Q 46.1875 17.53125 46.1875 27.296875 
Q 46.1875 37.015625 41.984375 42.703125 
Q 37.796875 48.390625 30.609375 48.390625 
z
M 30.609375 56 
Q 42.328125 56 49.015625 48.375 
Q 55.71875 40.765625 55.71875 27.296875 
Q 55.71875 13.875 49.015625 6.21875 
Q 42.328125 -1.421875 30.609375 -1.421875 
Q 18.84375 -1.421875 12.171875 6.21875 
Q 5.515625 13.875 5.515625 27.296875 
Q 5.515625 40.765625 12.171875 48.375 
Q 18.84375 56 30.609375 56 
z
" id="DejaVuSans-111"/>
       <path d="M 9.421875 75.984375 
L 18.40625 75.984375 
L 18.40625 0 
L 9.421875 0 
z
" id="DejaVuSans-108"/>
       <path d="M 8.5 21.578125 
L 8.5 54.6875 
L 17.484375 54.6875 
L 17.484375 21.921875 
Q 17.484375 14.15625 20.5 10.265625 
Q 23.53125 6.390625 29.59375 6.390625 
Q 36.859375 6.390625 41.078125 11.03125 
Q 45.3125 15.671875 45.3125 23.6875 
L 45.3125 54.6875 
L 54.296875 54.6875 
L 54.296875 0 
L 45.3125 0 
L 45.3125 8.40625 
Q 42.046875 3.421875 37.71875 1 
Q 33.40625 -1.421875 27.6875 -1.421875 
Q 18.265625 -1.421875 13.375 4.4375 
Q 8.5 10.296875 8.5 21.578125 
z
M 31.109375 56 
z
" id="DejaVuSans-117"/>
       <path d="M 18.3125 70.21875 
L 18.3125 54.6875 
L 36.8125 54.6875 
L 36.8125 47.703125 
L 18.3125 47.703125 
L 18.3125 18.015625 
Q 18.3125 11.328125 20.140625 9.421875 
Q 21.96875 7.515625 27.59375 7.515625 
L 36.8125 7.515625 
L 36.8125 0 
L 27.59375 0 
Q 17.1875 0 13.234375 3.875 
Q 9.28125 7.765625 9.28125 18.015625 
L 9.28125 47.703125 
L 2.6875 47.703125 
L 2.6875 54.6875 
L 9.28125 54.6875 
L 9.28125 70.21875 
z
" id="DejaVuSans-116"/>
       <path id="DejaVuSans-32"/>
       <path d="M 41.109375 46.296875 
Q 39.59375 47.171875 37.8125 47.578125 
Q 36.03125 48 33.890625 48 
Q 26.265625 48 22.1875 43.046875 
Q 18.109375 38.09375 18.109375 28.8125 
L 18.109375 0 
L 9.078125 0 
L 9.078125 54.6875 
L 18.109375 54.6875 
L 18.109375 46.1875 
Q 20.953125 51.171875 25.484375 53.578125 
Q 30.03125 56 36.53125 56 
Q 37.453125 56 38.578125 55.875 
Q 39.703125 55.765625 41.0625 55.515625 
z
" id="DejaVuSans-114"/>
       <path d="M 37.109375 75.984375 
L 37.109375 68.5 
L 28.515625 68.5 
Q 23.6875 68.5 21.796875 66.546875 
Q 19.921875 64.59375 19.921875 59.515625 
L 19.921875 54.6875 
L 34.71875 54.6875 
L 34.71875 47.703125 
L 19.921875 47.703125 
L 19.921875 0 
L 10.890625 0 
L 10.890625 47.703125 
L 2.296875 47.703125 
L 2.296875 54.6875 
L 10.890625 54.6875 
L 10.890625 58.5 
Q 10.890625 67.625 15.140625 71.796875 
Q 19.390625 75.984375 28.609375 75.984375 
z
" id="DejaVuSans-102"/>
       <path d="M 18.109375 8.203125 
L 18.109375 -20.796875 
L 9.078125 -20.796875 
L 9.078125 54.6875 
L 18.109375 54.6875 
L 18.109375 46.390625 
Q 20.953125 51.265625 25.265625 53.625 
Q 29.59375 56 35.59375 56 
Q 45.5625 56 51.78125 48.09375 
Q 58.015625 40.1875 58.015625 27.296875 
Q 58.015625 14.40625 51.78125 6.484375 
Q 45.5625 -1.421875 35.59375 -1.421875 
Q 29.59375 -1.421875 25.265625 0.953125 
Q 20.953125 3.328125 18.109375 8.203125 
z
M 48.6875 27.296875 
Q 48.6875 37.203125 44.609375 42.84375 
Q 40.53125 48.484375 33.40625 48.484375 
Q 26.265625 48.484375 22.1875 42.84375 
Q 18.109375 37.203125 18.109375 27.296875 
Q 18.109375 17.390625 22.1875 11.75 
Q 26.265625 6.109375 33.40625 6.109375 
Q 40.53125 6.109375 44.609375 11.75 
Q 48.6875 17.390625 48.6875 27.296875 
z
" id="DejaVuSans-112"/>
       <path d="M 34.28125 27.484375 
Q 23.390625 27.484375 19.1875 25 
Q 14.984375 22.515625 14.984375 16.5 
Q 14.984375 11.71875 18.140625 8.90625 
Q 21.296875 6.109375 26.703125 6.109375 
Q 34.1875 6.109375 38.703125 11.40625 
Q 43.21875 16.703125 43.21875 25.484375 
L 43.21875 27.484375 
z
M 52.203125 31.203125 
L 52.203125 0 
L 43.21875 0 
L 43.21875 8.296875 
Q 40.140625 3.328125 35.546875 0.953125 
Q 30.953125 -1.421875 24.3125 -1.421875 
Q 15.921875 -1.421875 10.953125 3.296875 
Q 6 8.015625 6 15.921875 
Q 6 25.140625 12.171875 29.828125 
Q 18.359375 34.515625 30.609375 34.515625 
L 43.21875 34.515625 
L 43.21875 35.40625 
Q 43.21875 41.609375 39.140625 45 
Q 35.0625 48.390625 27.6875 48.390625 
Q 23 48.390625 18.546875 47.265625 
Q 14.109375 46.140625 10.015625 43.890625 
L 10.015625 52.203125 
Q 14.9375 54.109375 19.578125 55.046875 
Q 24.21875 56 28.609375 56 
Q 40.484375 56 46.34375 49.84375 
Q 52.203125 43.703125 52.203125 31.203125 
z
" id="DejaVuSans-97"/>
       <path d="M 9.421875 54.6875 
L 18.40625 54.6875 
L 18.40625 0 
L 9.421875 0 
z
M 9.421875 75.984375 
L 18.40625 75.984375 
L 18.40625 64.59375 
L 9.421875 64.59375 
z
" id="DejaVuSans-105"/>
       <path d="M 52 44.1875 
Q 55.375 50.25 60.0625 53.125 
Q 64.75 56 71.09375 56 
Q 79.640625 56 84.28125 50.015625 
Q 88.921875 44.046875 88.921875 33.015625 
L 88.921875 0 
L 79.890625 0 
L 79.890625 32.71875 
Q 79.890625 40.578125 77.09375 44.375 
Q 74.3125 48.1875 68.609375 48.1875 
Q 61.625 48.1875 57.5625 43.546875 
Q 53.515625 38.921875 53.515625 30.90625 
L 53.515625 0 
L 44.484375 0 
L 44.484375 32.71875 
Q 44.484375 40.625 41.703125 44.40625 
Q 38.921875 48.1875 33.109375 48.1875 
Q 26.21875 48.1875 22.15625 43.53125 
Q 18.109375 38.875 18.109375 30.90625 
L 18.109375 0 
L 9.078125 0 
L 9.078125 54.6875 
L 18.109375 54.6875 
L 18.109375 46.1875 
Q 21.1875 51.21875 25.484375 53.609375 
Q 29.78125 56 35.6875 56 
Q 41.65625 56 45.828125 52.96875 
Q 50 49.953125 52 44.1875 
z
" id="DejaVuSans-109"/>
      </defs>
      <use xlink:href="#DejaVuSans-65"/>
      <use x="68.408203" xlink:href="#DejaVuSans-98"/>
      <use x="131.884766" xlink:href="#DejaVuSans-115"/>
      <use x="183.984375" xlink:href="#DejaVuSans-111"/>
      <use x="245.166016" xlink:href="#DejaVuSans-108"/>
      <use x="272.949219" xlink:href="#DejaVuSans-117"/>
      <use x="336.328125" xlink:href="#DejaVuSans-116"/>
      <use x="375.537109" xlink:href="#DejaVuSans-101"/>
      <use x="437.060547" xlink:href="#DejaVuSans-32"/>
      <use x="468.847656" xlink:href="#DejaVuSans-101"/>
      <use x="530.371094" xlink:href="#DejaVuSans-114"/>
      <use x="569.734375" xlink:href="#DejaVuSans-114"/>
      <use x="608.597656" xlink:href="#DejaVuSans-111"/>
      <use x="669.779297" xlink:href="#DejaVuSans-114"/>
      <use x="710.892578" xlink:href="#DejaVuSans-32"/>
      <use x="742.679688" xlink:href="#DejaVuSans-102"/>
      <use x="777.884766" xlink:href="#DejaVuSans-111"/>
      <use x="839.066406" xlink:href="#DejaVuSans-114"/>
      <use x="880.179688" xlink:href="#DejaVuSans-32"/>
      <use x="911.966797" xlink:href="#DejaVuSans-112"/>
      <use x="975.443359" xlink:href="#DejaVuSans-97"/>
      <use x="1036.722656" xlink:href="#DejaVuSans-114"/>
      <use x="1077.835938" xlink:href="#DejaVuSans-116"/>
      <use x="1117.044922" xlink:href="#DejaVuSans-105"/>
      <use x="1144.828125" xlink:href="#DejaVuSans-97"/>
      <use x="1206.107422" xlink:href="#DejaVuSans-108"/>
      <use x="1233.890625" xlink:href="#DejaVuSans-32"/>
      <use x="1265.677734" xlink:href="#DejaVuSans-115"/>
      <use x="1317.777344" xlink:href="#DejaVuSans-117"/>
      <use x="1381.15625" xlink:href="#DejaVuSans-109"/>
      <use x="1478.568359" xlink:href="#DejaVuSans-115"/>
     </g>
    </g>
   </g>
  </g>
 </g>
 <defs>
  <clipPath id="p88a61921ce">
   <rect height="93.188571" width="837" x="39.65" y="7.2"/>
  </clipPath>
  <clipPath id="pba36ce1c2a">
   <rect height="93.188571" width="837" x="39.65" y="119.026286"/>
  </clipPath>
  <clipPath id="p797de22b76">
   <rect height="93.188571" width="837" x="39.65" y="230.852571"/>
  </clipPath>
  <clipPath id="p935ae39b58">
   <rect height="93.188571" width="837" x="39.65" y="342.678857"/>
  </clipPath>
  <clipPath id="p18cdc48447">
   <rect height="93.188571" width="837" x="39.65" y="454.505143"/>
  </clipPath>
  <clipPath id="p47de0d9af2">
   <rect height="93.188571" width="837" x="39.65" y="566.331429"/>
  </clipPath>
 </defs>
</svg>
