<?xml version="1.0" encoding="utf-8" standalone="no"?>
<!DOCTYPE svg PUBLIC "-//W3C//DTD SVG 1.1//EN"
  "http://www.w3.org/Graphics/SVG/1.1/DTD/svg11.dtd">
<!-- Created with matplotlib (https://matplotlib.org/) -->
<svg height="263.63625pt" version="1.1" viewBox="0 0 405.932812 263.63625" width="405.932812pt" xmlns="http://www.w3.org/2000/svg" xmlns:xlink="http://www.w3.org/1999/xlink">
 <metadata>
  <rdf:RDF xmlns:cc="http://creativecommons.org/ns#" xmlns:dc="http://purl.org/dc/elements/1.1/" xmlns:rdf="http://www.w3.org/1999/02/22-rdf-syntax-ns#">
   <cc:Work>
    <dc:type rdf:resource="http://purl.org/dc/dcmitype/StillImage"/>
    <dc:date>2021-10-05T17:28:50.237087</dc:date>
    <dc:format>image/svg+xml</dc:format>
    <dc:creator>
     <cc:Agent>
      <dc:title>Matplotlib v3.3.4, https://matplotlib.org/</dc:title>
     </cc:Agent>
    </dc:creator>
   </cc:Work>
  </rdf:RDF>
 </metadata>
 <defs>
  <style type="text/css">*{stroke-linecap:butt;stroke-linejoin:round;}</style>
 </defs>
 <g id="figure_1">
  <g id="patch_1">
   <path d="M 0 263.63625 
L 405.932812 263.63625 
L 405.932812 0 
L 0 0 
z
" style="fill:none;"/>
  </g>
  <g id="axes_1">
   <g id="patch_2">
    <path d="M 63.932812 239.758125 
L 398.732813 239.758125 
L 398.732813 22.318125 
L 63.932812 22.318125 
z
" style="fill:#ffffff;"/>
   </g>
   <g id="matplotlib.axis_1">
    <g id="xtick_1">
     <g id="line2d_1">
      <path clip-path="url(#pbbe395b801)" d="M 79.150994 239.758125 
L 79.150994 22.318125 
" style="fill:none;stroke:#b0b0b0;stroke-linecap:square;stroke-width:0.8;"/>
     </g>
     <g id="line2d_2">
      <defs>
       <path d="M 0 0 
L 0 3.5 
" id="mb35429073f" style="stroke:#000000;stroke-width:0.8;"/>
      </defs>
      <g>
       <use style="stroke:#000000;stroke-width:0.8;" x="79.150994" xlink:href="#mb35429073f" y="239.758125"/>
      </g>
     </g>
     <g id="text_1">
      <!-- 0 -->
      <g transform="translate(75.969744 254.356563)scale(0.1 -0.1)">
       <defs>
        <path d="M 31.78125 66.40625 
Q 24.171875 66.40625 20.328125 58.90625 
Q 16.5 51.421875 16.5 36.375 
Q 16.5 21.390625 20.328125 13.890625 
Q 24.171875 6.390625 31.78125 6.390625 
Q 39.453125 6.390625 43.28125 13.890625 
Q 47.125 21.390625 47.125 36.375 
Q 47.125 51.421875 43.28125 58.90625 
Q 39.453125 66.40625 31.78125 66.40625 
z
M 31.78125 74.21875 
Q 44.046875 74.21875 50.515625 64.515625 
Q 56.984375 54.828125 56.984375 36.375 
Q 56.984375 17.96875 50.515625 8.265625 
Q 44.046875 -1.421875 31.78125 -1.421875 
Q 19.53125 -1.421875 13.0625 8.265625 
Q 6.59375 17.96875 6.59375 36.375 
Q 6.59375 54.828125 13.0625 64.515625 
Q 19.53125 74.21875 31.78125 74.21875 
z
" id="DejaVuSans-48"/>
       </defs>
       <use xlink:href="#DejaVuSans-48"/>
      </g>
     </g>
    </g>
    <g id="xtick_2">
     <g id="line2d_3">
      <path clip-path="url(#pbbe395b801)" d="M 134.489837 239.758125 
L 134.489837 22.318125 
" style="fill:none;stroke:#b0b0b0;stroke-linecap:square;stroke-width:0.8;"/>
     </g>
     <g id="line2d_4">
      <g>
       <use style="stroke:#000000;stroke-width:0.8;" x="134.489837" xlink:href="#mb35429073f" y="239.758125"/>
      </g>
     </g>
     <g id="text_2">
      <!-- 10 -->
      <g transform="translate(128.127337 254.356563)scale(0.1 -0.1)">
       <defs>
        <path d="M 12.40625 8.296875 
L 28.515625 8.296875 
L 28.515625 63.921875 
L 10.984375 60.40625 
L 10.984375 69.390625 
L 28.421875 72.90625 
L 38.28125 72.90625 
L 38.28125 8.296875 
L 54.390625 8.296875 
L 54.390625 0 
L 12.40625 0 
z
" id="DejaVuSans-49"/>
       </defs>
       <use xlink:href="#DejaVuSans-49"/>
       <use x="63.623047" xlink:href="#DejaVuSans-48"/>
      </g>
     </g>
    </g>
    <g id="xtick_3">
     <g id="line2d_5">
      <path clip-path="url(#pbbe395b801)" d="M 189.82868 239.758125 
L 189.82868 22.318125 
" style="fill:none;stroke:#b0b0b0;stroke-linecap:square;stroke-width:0.8;"/>
     </g>
     <g id="line2d_6">
      <g>
       <use style="stroke:#000000;stroke-width:0.8;" x="189.82868" xlink:href="#mb35429073f" y="239.758125"/>
      </g>
     </g>
     <g id="text_3">
      <!-- 20 -->
      <g transform="translate(183.46618 254.356563)scale(0.1 -0.1)">
       <defs>
        <path d="M 19.1875 8.296875 
L 53.609375 8.296875 
L 53.609375 0 
L 7.328125 0 
L 7.328125 8.296875 
Q 12.9375 14.109375 22.625 23.890625 
Q 32.328125 33.6875 34.8125 36.53125 
Q 39.546875 41.84375 41.421875 45.53125 
Q 43.3125 49.21875 43.3125 52.78125 
Q 43.3125 58.59375 39.234375 62.25 
Q 35.15625 65.921875 28.609375 65.921875 
Q 23.96875 65.921875 18.8125 64.3125 
Q 13.671875 62.703125 7.8125 59.421875 
L 7.8125 69.390625 
Q 13.765625 71.78125 18.9375 73 
Q 24.125 74.21875 28.421875 74.21875 
Q 39.75 74.21875 46.484375 68.546875 
Q 53.21875 62.890625 53.21875 53.421875 
Q 53.21875 48.921875 51.53125 44.890625 
Q 49.859375 40.875 45.40625 35.40625 
Q 44.1875 33.984375 37.640625 27.21875 
Q 31.109375 20.453125 19.1875 8.296875 
z
" id="DejaVuSans-50"/>
       </defs>
       <use xlink:href="#DejaVuSans-50"/>
       <use x="63.623047" xlink:href="#DejaVuSans-48"/>
      </g>
     </g>
    </g>
    <g id="xtick_4">
     <g id="line2d_7">
      <path clip-path="url(#pbbe395b801)" d="M 245.167523 239.758125 
L 245.167523 22.318125 
" style="fill:none;stroke:#b0b0b0;stroke-linecap:square;stroke-width:0.8;"/>
     </g>
     <g id="line2d_8">
      <g>
       <use style="stroke:#000000;stroke-width:0.8;" x="245.167523" xlink:href="#mb35429073f" y="239.758125"/>
      </g>
     </g>
     <g id="text_4">
      <!-- 30 -->
      <g transform="translate(238.805023 254.356563)scale(0.1 -0.1)">
       <defs>
        <path d="M 40.578125 39.3125 
Q 47.65625 37.796875 51.625 33 
Q 55.609375 28.21875 55.609375 21.1875 
Q 55.609375 10.40625 48.1875 4.484375 
Q 40.765625 -1.421875 27.09375 -1.421875 
Q 22.515625 -1.421875 17.65625 -0.515625 
Q 12.796875 0.390625 7.625 2.203125 
L 7.625 11.71875 
Q 11.71875 9.328125 16.59375 8.109375 
Q 21.484375 6.890625 26.8125 6.890625 
Q 36.078125 6.890625 40.9375 10.546875 
Q 45.796875 14.203125 45.796875 21.1875 
Q 45.796875 27.640625 41.28125 31.265625 
Q 36.765625 34.90625 28.71875 34.90625 
L 20.21875 34.90625 
L 20.21875 43.015625 
L 29.109375 43.015625 
Q 36.375 43.015625 40.234375 45.921875 
Q 44.09375 48.828125 44.09375 54.296875 
Q 44.09375 59.90625 40.109375 62.90625 
Q 36.140625 65.921875 28.71875 65.921875 
Q 24.65625 65.921875 20.015625 65.03125 
Q 15.375 64.15625 9.8125 62.3125 
L 9.8125 71.09375 
Q 15.4375 72.65625 20.34375 73.4375 
Q 25.25 74.21875 29.59375 74.21875 
Q 40.828125 74.21875 47.359375 69.109375 
Q 53.90625 64.015625 53.90625 55.328125 
Q 53.90625 49.265625 50.4375 45.09375 
Q 46.96875 40.921875 40.578125 39.3125 
z
" id="DejaVuSans-51"/>
       </defs>
       <use xlink:href="#DejaVuSans-51"/>
       <use x="63.623047" xlink:href="#DejaVuSans-48"/>
      </g>
     </g>
    </g>
    <g id="xtick_5">
     <g id="line2d_9">
      <path clip-path="url(#pbbe395b801)" d="M 300.506366 239.758125 
L 300.506366 22.318125 
" style="fill:none;stroke:#b0b0b0;stroke-linecap:square;stroke-width:0.8;"/>
     </g>
     <g id="line2d_10">
      <g>
       <use style="stroke:#000000;stroke-width:0.8;" x="300.506366" xlink:href="#mb35429073f" y="239.758125"/>
      </g>
     </g>
     <g id="text_5">
      <!-- 40 -->
      <g transform="translate(294.143866 254.356563)scale(0.1 -0.1)">
       <defs>
        <path d="M 37.796875 64.3125 
L 12.890625 25.390625 
L 37.796875 25.390625 
z
M 35.203125 72.90625 
L 47.609375 72.90625 
L 47.609375 25.390625 
L 58.015625 25.390625 
L 58.015625 17.1875 
L 47.609375 17.1875 
L 47.609375 0 
L 37.796875 0 
L 37.796875 17.1875 
L 4.890625 17.1875 
L 4.890625 26.703125 
z
" id="DejaVuSans-52"/>
       </defs>
       <use xlink:href="#DejaVuSans-52"/>
       <use x="63.623047" xlink:href="#DejaVuSans-48"/>
      </g>
     </g>
    </g>
    <g id="xtick_6">
     <g id="line2d_11">
      <path clip-path="url(#pbbe395b801)" d="M 355.845209 239.758125 
L 355.845209 22.318125 
" style="fill:none;stroke:#b0b0b0;stroke-linecap:square;stroke-width:0.8;"/>
     </g>
     <g id="line2d_12">
      <g>
       <use style="stroke:#000000;stroke-width:0.8;" x="355.845209" xlink:href="#mb35429073f" y="239.758125"/>
      </g>
     </g>
     <g id="text_6">
      <!-- 50 -->
      <g transform="translate(349.482709 254.356563)scale(0.1 -0.1)">
       <defs>
        <path d="M 10.796875 72.90625 
L 49.515625 72.90625 
L 49.515625 64.59375 
L 19.828125 64.59375 
L 19.828125 46.734375 
Q 21.96875 47.46875 24.109375 47.828125 
Q 26.265625 48.1875 28.421875 48.1875 
Q 40.625 48.1875 47.75 41.5 
Q 54.890625 34.8125 54.890625 23.390625 
Q 54.890625 11.625 47.5625 5.09375 
Q 40.234375 -1.421875 26.90625 -1.421875 
Q 22.3125 -1.421875 17.546875 -0.640625 
Q 12.796875 0.140625 7.71875 1.703125 
L 7.71875 11.625 
Q 12.109375 9.234375 16.796875 8.0625 
Q 21.484375 6.890625 26.703125 6.890625 
Q 35.15625 6.890625 40.078125 11.328125 
Q 45.015625 15.765625 45.015625 23.390625 
Q 45.015625 31 40.078125 35.4375 
Q 35.15625 39.890625 26.703125 39.890625 
Q 22.75 39.890625 18.8125 39.015625 
Q 14.890625 38.140625 10.796875 36.28125 
z
" id="DejaVuSans-53"/>
       </defs>
       <use xlink:href="#DejaVuSans-53"/>
       <use x="63.623047" xlink:href="#DejaVuSans-48"/>
      </g>
     </g>
    </g>
   </g>
   <g id="matplotlib.axis_2">
    <g id="ytick_1">
     <g id="line2d_13">
      <path clip-path="url(#pbbe395b801)" d="M 63.932812 229.874489 
L 398.732813 229.874489 
" style="fill:none;stroke:#b0b0b0;stroke-linecap:square;stroke-width:0.8;"/>
     </g>
     <g id="line2d_14">
      <defs>
       <path d="M 0 0 
L -3.5 0 
" id="m7c00bfb172" style="stroke:#000000;stroke-width:0.8;"/>
      </defs>
      <g>
       <use style="stroke:#000000;stroke-width:0.8;" x="63.932812" xlink:href="#m7c00bfb172" y="229.874489"/>
      </g>
     </g>
     <g id="text_7">
      <!-- −0.00100 -->
      <g transform="translate(7.2 233.673707)scale(0.1 -0.1)">
       <defs>
        <path d="M 10.59375 35.5 
L 73.1875 35.5 
L 73.1875 27.203125 
L 10.59375 27.203125 
z
" id="DejaVuSans-8722"/>
        <path d="M 10.6875 12.40625 
L 21 12.40625 
L 21 0 
L 10.6875 0 
z
" id="DejaVuSans-46"/>
       </defs>
       <use xlink:href="#DejaVuSans-8722"/>
       <use x="83.789062" xlink:href="#DejaVuSans-48"/>
       <use x="147.412109" xlink:href="#DejaVuSans-46"/>
       <use x="179.199219" xlink:href="#DejaVuSans-48"/>
       <use x="242.822266" xlink:href="#DejaVuSans-48"/>
       <use x="306.445312" xlink:href="#DejaVuSans-49"/>
       <use x="370.068359" xlink:href="#DejaVuSans-48"/>
       <use x="433.691406" xlink:href="#DejaVuSans-48"/>
      </g>
     </g>
    </g>
    <g id="ytick_2">
     <g id="line2d_15">
      <path clip-path="url(#pbbe395b801)" d="M 63.932812 205.160298 
L 398.732813 205.160298 
" style="fill:none;stroke:#b0b0b0;stroke-linecap:square;stroke-width:0.8;"/>
     </g>
     <g id="line2d_16">
      <g>
       <use style="stroke:#000000;stroke-width:0.8;" x="63.932812" xlink:href="#m7c00bfb172" y="205.160298"/>
      </g>
     </g>
     <g id="text_8">
      <!-- −0.00075 -->
      <g transform="translate(7.2 208.959516)scale(0.1 -0.1)">
       <defs>
        <path d="M 8.203125 72.90625 
L 55.078125 72.90625 
L 55.078125 68.703125 
L 28.609375 0 
L 18.3125 0 
L 43.21875 64.59375 
L 8.203125 64.59375 
z
" id="DejaVuSans-55"/>
       </defs>
       <use xlink:href="#DejaVuSans-8722"/>
       <use x="83.789062" xlink:href="#DejaVuSans-48"/>
       <use x="147.412109" xlink:href="#DejaVuSans-46"/>
       <use x="179.199219" xlink:href="#DejaVuSans-48"/>
       <use x="242.822266" xlink:href="#DejaVuSans-48"/>
       <use x="306.445312" xlink:href="#DejaVuSans-48"/>
       <use x="370.068359" xlink:href="#DejaVuSans-55"/>
       <use x="433.691406" xlink:href="#DejaVuSans-53"/>
      </g>
     </g>
    </g>
    <g id="ytick_3">
     <g id="line2d_17">
      <path clip-path="url(#pbbe395b801)" d="M 63.932812 180.446107 
L 398.732813 180.446107 
" style="fill:none;stroke:#b0b0b0;stroke-linecap:square;stroke-width:0.8;"/>
     </g>
     <g id="line2d_18">
      <g>
       <use style="stroke:#000000;stroke-width:0.8;" x="63.932812" xlink:href="#m7c00bfb172" y="180.446107"/>
      </g>
     </g>
     <g id="text_9">
      <!-- −0.00050 -->
      <g transform="translate(7.2 184.245325)scale(0.1 -0.1)">
       <use xlink:href="#DejaVuSans-8722"/>
       <use x="83.789062" xlink:href="#DejaVuSans-48"/>
       <use x="147.412109" xlink:href="#DejaVuSans-46"/>
       <use x="179.199219" xlink:href="#DejaVuSans-48"/>
       <use x="242.822266" xlink:href="#DejaVuSans-48"/>
       <use x="306.445312" xlink:href="#DejaVuSans-48"/>
       <use x="370.068359" xlink:href="#DejaVuSans-53"/>
       <use x="433.691406" xlink:href="#DejaVuSans-48"/>
      </g>
     </g>
    </g>
    <g id="ytick_4">
     <g id="line2d_19">
      <path clip-path="url(#pbbe395b801)" d="M 63.932812 155.731916 
L 398.732813 155.731916 
" style="fill:none;stroke:#b0b0b0;stroke-linecap:square;stroke-width:0.8;"/>
     </g>
     <g id="line2d_20">
      <g>
       <use style="stroke:#000000;stroke-width:0.8;" x="63.932812" xlink:href="#m7c00bfb172" y="155.731916"/>
      </g>
     </g>
     <g id="text_10">
      <!-- −0.00025 -->
      <g transform="translate(7.2 159.531134)scale(0.1 -0.1)">
       <use xlink:href="#DejaVuSans-8722"/>
       <use x="83.789062" xlink:href="#DejaVuSans-48"/>
       <use x="147.412109" xlink:href="#DejaVuSans-46"/>
       <use x="179.199219" xlink:href="#DejaVuSans-48"/>
       <use x="242.822266" xlink:href="#DejaVuSans-48"/>
       <use x="306.445312" xlink:href="#DejaVuSans-48"/>
       <use x="370.068359" xlink:href="#DejaVuSans-50"/>
       <use x="433.691406" xlink:href="#DejaVuSans-53"/>
      </g>
     </g>
    </g>
    <g id="ytick_5">
     <g id="line2d_21">
      <path clip-path="url(#pbbe395b801)" d="M 63.932812 131.017725 
L 398.732813 131.017725 
" style="fill:none;stroke:#b0b0b0;stroke-linecap:square;stroke-width:0.8;"/>
     </g>
     <g id="line2d_22">
      <g>
       <use style="stroke:#000000;stroke-width:0.8;" x="63.932812" xlink:href="#m7c00bfb172" y="131.017725"/>
      </g>
     </g>
     <g id="text_11">
      <!-- 0.00000 -->
      <g transform="translate(15.579687 134.816943)scale(0.1 -0.1)">
       <use xlink:href="#DejaVuSans-48"/>
       <use x="63.623047" xlink:href="#DejaVuSans-46"/>
       <use x="95.410156" xlink:href="#DejaVuSans-48"/>
       <use x="159.033203" xlink:href="#DejaVuSans-48"/>
       <use x="222.65625" xlink:href="#DejaVuSans-48"/>
       <use x="286.279297" xlink:href="#DejaVuSans-48"/>
       <use x="349.902344" xlink:href="#DejaVuSans-48"/>
      </g>
     </g>
    </g>
    <g id="ytick_6">
     <g id="line2d_23">
      <path clip-path="url(#pbbe395b801)" d="M 63.932812 106.303534 
L 398.732813 106.303534 
" style="fill:none;stroke:#b0b0b0;stroke-linecap:square;stroke-width:0.8;"/>
     </g>
     <g id="line2d_24">
      <g>
       <use style="stroke:#000000;stroke-width:0.8;" x="63.932812" xlink:href="#m7c00bfb172" y="106.303534"/>
      </g>
     </g>
     <g id="text_12">
      <!-- 0.00025 -->
      <g transform="translate(15.579687 110.102752)scale(0.1 -0.1)">
       <use xlink:href="#DejaVuSans-48"/>
       <use x="63.623047" xlink:href="#DejaVuSans-46"/>
       <use x="95.410156" xlink:href="#DejaVuSans-48"/>
       <use x="159.033203" xlink:href="#DejaVuSans-48"/>
       <use x="222.65625" xlink:href="#DejaVuSans-48"/>
       <use x="286.279297" xlink:href="#DejaVuSans-50"/>
       <use x="349.902344" xlink:href="#DejaVuSans-53"/>
      </g>
     </g>
    </g>
    <g id="ytick_7">
     <g id="line2d_25">
      <path clip-path="url(#pbbe395b801)" d="M 63.932812 81.589343 
L 398.732813 81.589343 
" style="fill:none;stroke:#b0b0b0;stroke-linecap:square;stroke-width:0.8;"/>
     </g>
     <g id="line2d_26">
      <g>
       <use style="stroke:#000000;stroke-width:0.8;" x="63.932812" xlink:href="#m7c00bfb172" y="81.589343"/>
      </g>
     </g>
     <g id="text_13">
      <!-- 0.00050 -->
      <g transform="translate(15.579687 85.388562)scale(0.1 -0.1)">
       <use xlink:href="#DejaVuSans-48"/>
       <use x="63.623047" xlink:href="#DejaVuSans-46"/>
       <use x="95.410156" xlink:href="#DejaVuSans-48"/>
       <use x="159.033203" xlink:href="#DejaVuSans-48"/>
       <use x="222.65625" xlink:href="#DejaVuSans-48"/>
       <use x="286.279297" xlink:href="#DejaVuSans-53"/>
       <use x="349.902344" xlink:href="#DejaVuSans-48"/>
      </g>
     </g>
    </g>
    <g id="ytick_8">
     <g id="line2d_27">
      <path clip-path="url(#pbbe395b801)" d="M 63.932812 56.875152 
L 398.732813 56.875152 
" style="fill:none;stroke:#b0b0b0;stroke-linecap:square;stroke-width:0.8;"/>
     </g>
     <g id="line2d_28">
      <g>
       <use style="stroke:#000000;stroke-width:0.8;" x="63.932812" xlink:href="#m7c00bfb172" y="56.875152"/>
      </g>
     </g>
     <g id="text_14">
      <!-- 0.00075 -->
      <g transform="translate(15.579687 60.674371)scale(0.1 -0.1)">
       <use xlink:href="#DejaVuSans-48"/>
       <use x="63.623047" xlink:href="#DejaVuSans-46"/>
       <use x="95.410156" xlink:href="#DejaVuSans-48"/>
       <use x="159.033203" xlink:href="#DejaVuSans-48"/>
       <use x="222.65625" xlink:href="#DejaVuSans-48"/>
       <use x="286.279297" xlink:href="#DejaVuSans-55"/>
       <use x="349.902344" xlink:href="#DejaVuSans-53"/>
      </g>
     </g>
    </g>
    <g id="ytick_9">
     <g id="line2d_29">
      <path clip-path="url(#pbbe395b801)" d="M 63.932812 32.160961 
L 398.732813 32.160961 
" style="fill:none;stroke:#b0b0b0;stroke-linecap:square;stroke-width:0.8;"/>
     </g>
     <g id="line2d_30">
      <g>
       <use style="stroke:#000000;stroke-width:0.8;" x="63.932812" xlink:href="#m7c00bfb172" y="32.160961"/>
      </g>
     </g>
     <g id="text_15">
      <!-- 0.00100 -->
      <g transform="translate(15.579687 35.96018)scale(0.1 -0.1)">
       <use xlink:href="#DejaVuSans-48"/>
       <use x="63.623047" xlink:href="#DejaVuSans-46"/>
       <use x="95.410156" xlink:href="#DejaVuSans-48"/>
       <use x="159.033203" xlink:href="#DejaVuSans-48"/>
       <use x="222.65625" xlink:href="#DejaVuSans-49"/>
       <use x="286.279297" xlink:href="#DejaVuSans-48"/>
       <use x="349.902344" xlink:href="#DejaVuSans-48"/>
      </g>
     </g>
    </g>
   </g>
   <g id="line2d_31">
    <path clip-path="url(#pbbe395b801)" d="M 79.150994 229.874489 
L 79.455663 229.201192 
L 79.760331 227.19062 
L 80.064999 223.87029 
L 80.674336 213.500172 
L 81.283672 198.660159 
L 82.197677 169.860252 
L 85.24436 63.384954 
L 85.853697 48.9633 
L 86.463034 39.044359 
L 86.767702 35.947749 
L 87.07237 34.151832 
L 87.377039 33.678525 
L 87.681707 34.531298 
L 87.986375 36.695403 
L 88.595712 44.808746 
L 89.205048 57.550025 
L 90.119053 83.705 
L 91.642395 137.561294 
L 92.861068 179.287601 
L 93.775073 203.828039 
L 94.38441 215.266655 
L 94.993746 222.047036 
L 95.298414 223.577121 
L 95.603083 223.841009 
L 95.907751 222.840968 
L 96.212419 220.59675 
L 96.821756 212.539409 
L 97.431093 200.155777 
L 98.345098 175.095486 
L 100.173107 114.011073 
L 101.391781 77.203729 
L 102.305785 57.384439 
L 102.915122 49.233949 
L 103.21979 46.844945 
L 103.524459 45.618211 
L 103.829127 45.562087 
L 104.133795 46.668672 
L 104.438464 48.914047 
L 105.0478 56.648331 
L 105.657137 68.275666 
L 106.571142 91.448541 
L 109.922493 186.203916 
L 110.53183 196.880137 
L 111.141166 203.785211 
L 111.445835 205.721083 
L 111.750503 206.619836 
L 112.055171 206.480075 
L 112.35984 205.314863 
L 112.664508 203.151389 
L 113.273844 196.005643 
L 113.883181 185.517865 
L 114.797186 164.976515 
L 117.843869 89.263968 
L 118.453206 79.015579 
L 119.062542 71.863997 
L 119.367211 69.551783 
L 119.671879 68.112074 
L 119.976547 67.551887 
L 120.281215 67.865748 
L 120.585884 69.036076 
L 120.890552 71.033445 
L 121.499889 77.336759 
L 122.109225 86.331456 
L 123.02323 103.572513 
L 125.765245 159.748345 
L 126.67925 172.346014 
L 127.288586 177.621338 
L 127.593255 179.236684 
L 127.897923 180.156085 
L 128.202591 180.381452 
L 128.50726 179.924538 
L 128.811928 178.80665 
L 129.421265 174.717838 
L 130.030601 168.454465 
L 130.944606 155.985223 
L 133.991289 110.219416 
L 134.600626 104.123117 
L 135.209962 99.869262 
L 135.819299 97.588699 
L 136.123967 97.19538 
L 136.428636 97.288693 
L 136.733304 97.851132 
L 137.037972 98.858704 
L 137.647309 102.083351 
L 138.256645 106.661207 
L 139.475319 118.383594 
L 141.303328 136.395045 
L 142.217333 143.060045 
L 142.82667 146.112356 
L 143.436007 147.944429 
L 143.740675 148.40193 
L 144.045343 148.56389 
L 144.350012 148.444095 
L 144.65468 148.060791 
L 145.264016 146.595984 
L 145.873353 144.385108 
L 147.092026 138.745339 
L 148.310699 133.204768 
L 149.224704 130.148543 
L 149.834041 128.885194 
L 150.443378 128.29439 
L 150.748046 128.244466 
L 151.052714 128.346563 
L 151.662051 128.950244 
L 152.271387 129.961842 
L 154.404066 133.945344 
L 155.013402 134.398989 
L 155.31807 134.409936 
L 155.622739 134.259829 
L 155.927407 133.940494 
L 156.536744 132.781427 
L 157.14608 130.949877 
L 158.060085 127.145389 
L 160.8021 114.445115 
L 161.411437 112.996959 
L 161.716105 112.643532 
L 162.020773 112.567441 
L 162.325441 112.786287 
L 162.63011 113.312976 
L 163.239446 115.316124 
L 163.848783 118.574231 
L 164.45812 122.994282 
L 165.372125 131.379646 
L 168.114139 158.742039 
L 168.723476 162.723244 
L 169.332813 165.134357 
L 169.637481 165.666334 
L 169.942149 165.715749 
L 170.246817 165.265812 
L 170.551486 164.307016 
L 171.160822 160.862881 
L 171.770159 155.462194 
L 172.684164 144.172646 
L 173.902837 125.137281 
L 175.730847 96.531697 
L 176.644852 86.388957 
L 177.254188 82.322475 
L 177.558857 81.235926 
L 177.863525 80.82313 
L 178.168193 81.104795 
L 178.472862 82.091729 
L 178.77753 83.784865 
L 179.386867 89.24145 
L 179.996203 97.275902 
L 180.910208 113.340552 
L 182.43355 146.063863 
L 183.652223 171.197121 
L 184.566228 185.576004 
L 185.175564 191.850367 
L 185.480233 193.814234 
L 185.784901 194.938961 
L 186.089569 195.195986 
L 186.394238 194.568654 
L 186.698906 193.052527 
L 187.308242 187.399211 
L 187.917579 178.452028 
L 188.831584 159.79959 
L 190.050257 128.608968 
L 191.878267 82.014888 
L 192.792272 65.227078 
L 193.401609 58.142006 
L 193.706277 56.025755 
L 194.010945 54.918135 
L 194.315613 54.845278 
L 194.620282 55.81913 
L 194.92495 57.837228 
L 195.534287 64.922836 
L 196.143623 75.791657 
L 197.057628 97.97815 
L 198.58097 143.867361 
L 199.799643 179.687611 
L 200.713648 200.752998 
L 201.322984 210.439029 
L 201.932321 215.919689 
L 202.236989 216.958801 
L 202.541658 216.828099 
L 202.846326 215.520839 
L 203.150994 213.046644 
L 203.760331 204.71715 
L 204.369668 192.236436 
L 205.283672 167.173374 
L 206.807014 116.243069 
L 208.025687 77.167839 
L 208.939692 54.561399 
L 209.549029 44.364959 
L 210.158365 38.801421 
L 210.463034 37.876947 
L 210.767702 38.221095 
L 211.07237 39.834831 
L 211.377039 42.701621 
L 211.986375 52.041213 
L 212.595712 65.767639 
L 213.509717 92.952955 
L 216.861068 205.033385 
L 217.470405 217.661654 
L 218.079741 225.635377 
L 218.38441 227.72246 
L 218.689078 228.495034 
L 218.993746 227.939592 
L 219.298414 226.060952 
L 219.603083 222.882218 
L 220.212419 212.806368 
L 220.821756 198.2455 
L 221.735761 169.764011 
L 225.087112 55.030243 
L 225.696449 42.474702 
L 226.305785 34.72385 
L 226.610454 32.793702 
L 226.915122 32.201761 
L 227.21979 32.956077 
L 227.524459 35.046005 
L 227.829127 38.44259 
L 228.438464 48.950403 
L 229.0478 63.900974 
L 229.961805 92.803146 
L 233.008488 198.985465 
L 233.617825 213.257003 
L 234.227161 223.013529 
L 234.53183 226.02747 
L 234.836498 227.741335 
L 235.141166 228.134667 
L 235.445835 227.205109 
L 235.750503 224.968749 
L 236.35984 216.728871 
L 236.969176 203.891983 
L 237.883181 177.663618 
L 239.406523 123.892004 
L 240.625196 82.400891 
L 241.539201 58.100673 
L 242.148537 46.834793 
L 242.757874 40.224849 
L 243.062542 38.775791 
L 243.367211 38.588335 
L 243.671879 39.659049 
L 243.976547 41.967086 
L 244.585884 50.127483 
L 245.19522 62.575978 
L 246.109225 87.653259 
L 247.937235 148.485111 
L 249.155908 184.96575 
L 249.765245 198.936041 
L 250.374582 209.041452 
L 250.983918 214.786251 
L 251.288586 215.935554 
L 251.593255 215.921201 
L 251.897923 214.752206 
L 252.202591 212.453477 
L 252.811928 204.643051 
L 253.421265 192.984252 
L 254.33527 169.85242 
L 257.686621 75.94037 
L 258.295957 65.457337 
L 258.905294 58.729443 
L 259.209962 56.872695 
L 259.514631 56.045128 
L 259.819299 56.246984 
L 260.123967 57.464206 
L 260.428636 59.668773 
L 261.037972 66.861472 
L 261.647309 77.34686 
L 262.561314 97.792225 
L 265.607997 172.62253 
L 266.217333 182.666907 
L 266.82667 189.633327 
L 267.131338 191.863662 
L 267.436007 193.230249 
L 267.740675 193.727195 
L 268.045343 193.361078 
L 268.350012 192.150191 
L 268.65468 190.124851 
L 269.264016 183.804655 
L 269.873353 174.84606 
L 270.787358 157.753794 
L 273.529373 102.465586 
L 274.443378 90.181448 
L 275.052714 85.083332 
L 275.357383 83.542832 
L 275.662051 82.687552 
L 275.966719 82.514631 
L 276.271387 83.011469 
L 276.576056 84.156102 
L 277.185392 88.257384 
L 277.794729 94.477974 
L 278.708734 106.785206 
L 281.755417 151.505352 
L 282.364754 157.390937 
L 282.97409 161.46343 
L 283.583427 163.602815 
L 283.888095 163.943377 
L 284.192763 163.810357 
L 284.497432 163.221813 
L 284.8021 162.202203 
L 285.411437 158.996184 
L 286.020773 154.492821 
L 287.239446 143.067592 
L 289.067456 125.727766 
L 289.981461 119.406908 
L 290.590798 116.556088 
L 291.200134 114.889145 
L 291.504803 114.497417 
L 291.809471 114.388686 
L 292.114139 114.548367 
L 292.418808 114.957621 
L 293.028144 116.431153 
L 293.637481 118.593015 
L 295.160822 125.354748 
L 296.074827 129.10204 
L 296.684164 131.045746 
L 297.2935 132.395988 
L 297.902837 133.095827 
L 298.207505 133.202321 
L 298.512174 133.154955 
L 299.12151 132.646597 
L 299.730847 131.699403 
L 302.168193 127.250293 
L 302.472862 127.027536 
L 302.77753 126.949573 
L 303.082198 127.030629 
L 303.386867 127.281345 
L 303.996203 128.314566 
L 304.60554 130.052902 
L 305.519545 133.82177 
L 307.042886 141.804868 
L 307.956891 146.286796 
L 308.566228 148.574886 
L 309.175564 150.001526 
L 309.480233 150.323007 
L 309.784901 150.353578 
L 310.089569 150.076387 
L 310.394238 149.479337 
L 311.003574 147.303962 
L 311.612911 143.840168 
L 312.526916 136.48394 
L 313.745589 123.889608 
L 315.573599 104.882787 
L 316.182935 100.178954 
L 316.792272 96.940223 
L 317.09694 95.967915 
L 317.401609 95.468282 
L 317.706277 95.464339 
L 318.010945 95.972197 
L 318.315613 97.000453 
L 318.92495 100.613568 
L 319.534287 106.214781 
L 320.448292 117.83778 
L 321.666965 137.309712 
L 323.190306 162.080953 
L 324.104311 173.657289 
L 324.713648 178.888788 
L 325.018316 180.599429 
L 325.322984 181.653146 
L 325.627653 182.020599 
L 325.932321 181.68185 
L 326.236989 180.626881 
L 326.541658 178.856068 
L 327.150994 173.219612 
L 327.760331 164.981895 
L 328.674336 148.595234 
L 330.197677 115.394157 
L 331.416351 90.029203 
L 332.330355 75.601273 
L 332.939692 69.357767 
L 333.24436 67.427844 
L 333.549029 66.348624 
L 333.853697 66.148056 
L 334.158365 66.841924 
L 334.463034 68.433614 
L 335.07237 74.260186 
L 335.681707 83.401193 
L 336.595712 102.357152 
L 337.814385 133.913379 
L 339.337727 173.88028 
L 340.251731 192.755485 
L 340.861068 201.568132 
L 341.470405 206.685744 
L 341.775073 207.736296 
L 342.079741 207.743038 
L 342.38441 206.695074 
L 342.689078 204.596018 
L 343.298414 197.333126 
L 343.907751 186.275749 
L 344.821756 163.810438 
L 346.345098 117.55737 
L 347.563771 81.611125 
L 348.477776 60.568607 
L 349.087112 50.952385 
L 349.696449 45.580103 
L 350.001117 44.607533 
L 350.305785 44.811645 
L 350.610454 46.19799 
L 350.915122 48.755721 
L 351.524459 57.260364 
L 352.133795 69.917869 
L 353.0478 95.225583 
L 354.87581 156.792537 
L 356.094483 193.913851 
L 356.70382 208.080654 
L 357.313156 218.178569 
L 357.617825 221.506172 
L 357.922493 223.612668 
L 358.227161 224.463588 
L 358.53183 224.041487 
L 358.836498 222.34655 
L 359.141166 219.396677 
L 359.750503 209.890231 
L 360.35984 196.00463 
L 361.273844 168.616664 
L 364.625196 56.472422 
L 365.234532 43.954036 
L 365.843869 36.116303 
L 366.148537 34.104326 
L 366.453206 33.410015 
L 366.757874 34.045624 
L 367.062542 36.005066 
L 367.367211 39.263956 
L 367.976547 49.493142 
L 368.585884 64.19005 
L 369.499889 92.824928 
L 372.546572 199.589931 
L 373.155908 214.180805 
L 373.765245 224.258988 
L 374.069913 227.423072 
L 374.374582 229.273582 
L 374.67925 229.785279 
L 374.983918 228.951468 
L 375.288586 226.783997 
L 375.897923 218.586851 
L 376.50726 205.646813 
L 377.421265 178.965212 
L 378.944606 123.702111 
L 380.163279 80.616478 
L 381.077284 55.136669 
L 381.686621 43.198978 
L 382.295957 36.073864 
L 382.600626 34.441566 
L 382.905294 34.127781 
L 383.209962 35.133368 
L 383.514631 37.44126 
L 383.514631 37.44126 
" style="fill:none;stroke:#000000;stroke-linecap:square;stroke-width:1.5;"/>
   </g>
   <g id="line2d_32">
    <path clip-path="url(#pbbe395b801)" d="M 79.150994 131.017725 
L 79.455663 130.943011 
L 79.760331 130.720912 
L 80.369668 129.862571 
L 80.979004 128.536423 
L 82.197677 125.116535 
L 83.111682 122.68821 
L 83.721019 121.54848 
L 84.025687 121.199654 
L 84.330355 121.027869 
L 84.635024 121.051622 
L 84.939692 121.285948 
L 85.24436 121.742096 
L 85.853697 123.342708 
L 86.463034 125.853212 
L 87.377039 131.136352 
L 88.595712 140.036105 
L 90.119053 150.97126 
L 90.72839 154.236115 
L 91.337727 156.399754 
L 91.642395 156.987937 
L 91.947063 157.212378 
L 92.251731 157.053417 
L 92.5564 156.496974 
L 92.861068 155.535159 
L 93.470405 152.395496 
L 94.079741 147.701296 
L 94.993746 138.152728 
L 96.517088 118.290162 
L 97.735761 102.849442 
L 98.649766 94.090062 
L 99.259102 90.415048 
L 99.563771 89.356669 
L 99.868439 88.860273 
L 100.173107 88.948447 
L 100.477776 89.635464 
L 100.782444 90.927091 
L 101.391781 95.302331 
L 102.001117 101.940461 
L 102.915122 115.501688 
L 104.438464 143.766987 
L 105.657137 165.9493 
L 106.571142 178.895523 
L 107.180478 184.683137 
L 107.485147 186.553629 
L 107.789815 187.685974 
L 108.094483 188.050448 
L 108.399152 187.62789 
L 108.70382 186.410066 
L 109.008488 184.400088 
L 109.617825 178.07308 
L 110.227161 168.899042 
L 111.141166 150.768983 
L 112.969176 106.969613 
L 114.187849 80.820549 
L 114.797186 71.033109 
L 115.406523 64.299363 
L 115.711191 62.228457 
L 116.015859 61.07949 
L 116.320527 60.880457 
L 116.625196 61.64634 
L 116.929864 63.378685 
L 117.539201 69.680686 
L 118.148537 79.527781 
L 119.062542 99.877012 
L 120.281215 133.622905 
L 121.804557 176.186138 
L 122.718562 196.219596 
L 123.327898 205.554536 
L 123.937235 210.967787 
L 124.241903 212.078118 
L 124.546572 212.085867 
L 124.85124 210.981133 
L 125.155908 208.769311 
L 125.765245 201.123548 
L 126.374582 189.497948 
L 127.288586 165.915836 
L 128.811928 117.47974 
L 130.030601 79.926841 
L 130.944606 57.977436 
L 131.553943 47.952354 
L 132.163279 42.345818 
L 132.467948 41.323425 
L 132.772616 41.522199 
L 133.077284 42.946719 
L 133.381953 45.584461 
L 133.991289 54.365533 
L 134.600626 67.434463 
L 135.514631 93.546878 
L 137.342641 156.970247 
L 138.561314 195.149256 
L 139.17065 209.711444 
L 139.779987 220.094592 
L 140.389324 225.697011 
L 140.693992 226.587758 
L 140.99866 226.176756 
L 141.303328 224.465231 
L 141.607997 221.472453 
L 142.217333 211.808577 
L 142.82667 197.684778 
L 143.740675 169.832896 
L 147.092026 55.959578 
L 147.701363 43.256588 
L 148.310699 35.290903 
L 148.615368 33.235561 
L 148.920036 32.510955 
L 149.224704 33.128341 
L 149.529373 35.080779 
L 149.834041 38.342608 
L 150.443378 48.602733 
L 151.052714 63.355015 
L 151.966719 92.095731 
L 155.013402 199.126786 
L 155.622739 213.743447 
L 156.232075 223.848039 
L 156.536744 227.0277 
L 156.841412 228.89664 
L 157.14608 229.430716 
L 157.450749 228.624151 
L 157.755417 226.489627 
L 158.364754 218.378604 
L 158.97409 205.555387 
L 159.888095 179.109721 
L 161.411437 124.372061 
L 162.63011 81.740576 
L 163.544115 56.544948 
L 164.153451 44.738495 
L 164.762788 37.67995 
L 165.067456 36.052605 
L 165.372125 35.722967 
L 165.676793 36.691067 
L 165.981461 38.938998 
L 166.590798 47.115336 
L 167.200134 59.768574 
L 168.114139 85.500527 
L 169.637481 137.97334 
L 170.856154 178.241093 
L 171.770159 201.702329 
L 172.379496 212.516572 
L 172.988832 218.800834 
L 173.2935 220.143288 
L 173.598169 220.265398 
L 173.902837 219.172928 
L 174.207505 216.888312 
L 174.816842 208.913457 
L 175.426179 196.833977 
L 176.340184 172.625865 
L 179.691535 72.535883 
L 180.300871 61.101929 
L 180.910208 53.638472 
L 181.214876 51.51074 
L 181.519545 50.483611 
L 181.824213 50.561368 
L 182.128881 51.732892 
L 182.43355 53.972041 
L 183.042886 61.476537 
L 183.652223 72.588437 
L 184.566228 94.500387 
L 187.612911 176.339138 
L 188.222247 187.592806 
L 188.831584 195.522738 
L 189.440921 199.776625 
L 189.745589 200.472674 
L 190.050257 200.213743 
L 190.354926 199.015733 
L 190.659594 196.907436 
L 191.26893 190.136103 
L 191.878267 180.36257 
L 192.792272 161.455032 
L 195.838955 93.337405 
L 196.448292 84.370893 
L 197.057628 78.229099 
L 197.362297 76.299643 
L 197.666965 75.152636 
L 197.971633 74.790033 
L 198.276301 75.202737 
L 198.58097 76.370823 
L 199.190306 80.842172 
L 199.799643 87.849369 
L 200.713648 102.028953 
L 204.064999 159.753352 
L 204.674336 166.187113 
L 205.283672 170.388827 
L 205.588341 171.608562 
L 205.893009 172.235158 
L 206.197677 172.275261 
L 206.502346 171.743926 
L 206.807014 170.664242 
L 207.416351 166.988853 
L 208.025687 161.571083 
L 208.939692 151.083083 
L 211.681707 117.463953 
L 212.291043 112.272607 
L 212.90038 108.535467 
L 213.509717 106.361408 
L 213.814385 105.86593 
L 214.119053 105.755027 
L 214.423722 106.013942 
L 214.72839 106.622457 
L 215.337727 108.783338 
L 215.947063 111.987902 
L 216.861068 118.091372 
L 218.993746 132.819043 
L 219.907751 137.175043 
L 220.517088 139.023746 
L 221.126424 139.986965 
L 221.431093 140.148529 
L 221.735761 140.111658 
L 222.040429 139.892302 
L 222.649766 138.985984 
L 223.563771 136.819603 
L 225.087112 132.849469 
L 225.696449 131.72483 
L 226.305785 131.093786 
L 226.610454 130.990945 
L 226.915122 131.036987 
L 227.21979 131.232173 
L 227.829127 132.050759 
L 228.438464 133.369298 
L 229.352469 135.976736 
L 230.87581 140.342346 
L 231.485147 141.447309 
L 231.789815 141.757555 
L 232.094483 141.877405 
L 232.399152 141.789084 
L 232.70382 141.478489 
L 233.008488 140.935602 
L 233.617825 139.135207 
L 234.227161 136.399913 
L 235.141166 130.761635 
L 236.664508 118.998566 
L 237.883181 110.146078 
L 238.492518 106.831716 
L 239.101854 104.675138 
L 239.406523 104.111613 
L 239.711191 103.92546 
L 240.015859 104.135748 
L 240.320527 104.755746 
L 240.625196 105.792467 
L 241.234532 109.111229 
L 241.843869 114.014295 
L 242.757874 123.904799 
L 244.281215 144.302374 
L 245.499889 160.030156 
L 246.413894 168.877186 
L 247.02323 172.542536 
L 247.327898 173.57571 
L 247.632567 174.033748 
L 247.937235 173.894752 
L 248.241903 173.145167 
L 248.546572 171.780207 
L 249.155908 167.230583 
L 249.765245 160.390426 
L 250.67925 146.500789 
L 252.202591 117.727741 
L 253.421265 95.279066 
L 254.33527 82.25687 
L 254.944606 76.483717 
L 255.249274 74.639818 
L 255.553943 73.546361 
L 255.858611 73.232472 
L 256.163279 73.716563 
L 256.467948 75.005864 
L 256.772616 77.096165 
L 257.381953 83.605223 
L 257.991289 92.980997 
L 258.905294 111.423351 
L 262.256645 187.283096 
L 262.865982 195.590656 
L 263.475319 200.544651 
L 263.779987 201.642437 
L 264.084655 201.780104 
L 264.389324 200.943796 
L 264.693992 199.13302 
L 265.303328 192.655104 
L 265.912665 182.615788 
L 266.82667 161.973225 
L 268.350012 118.93849 
L 269.873353 77.719827 
L 270.787358 59.949745 
L 271.396695 52.591458 
L 271.701363 50.456846 
L 272.006031 49.408697 
L 272.310699 49.471155 
L 272.615368 50.653113 
L 272.920036 52.94787 
L 273.529373 60.77135 
L 274.138709 72.581229 
L 275.052714 96.42742 
L 276.576056 145.185892 
L 277.794729 182.824855 
L 278.708734 204.723843 
L 279.31807 214.663847 
L 279.927407 220.150201 
L 280.232075 221.101828 
L 280.536744 220.826613 
L 280.841412 219.321268 
L 281.14608 216.599553 
L 281.755417 207.64641 
L 282.364754 194.408633 
L 283.278758 168.071214 
L 285.106768 104.402653 
L 286.325441 66.260694 
L 286.934778 51.776709 
L 287.544115 41.505566 
L 287.848783 38.145476 
L 288.153451 36.041677 
L 288.45812 35.227425 
L 288.762788 35.718176 
L 289.067456 37.511419 
L 289.372125 40.586548 
L 289.981461 50.411953 
L 290.590798 64.684672 
L 291.504803 92.716282 
L 294.856154 206.545535 
L 295.465491 219.12499 
L 296.074827 226.945393 
L 296.379496 228.922634 
L 296.684164 229.567504 
L 296.988832 228.86977 
L 297.2935 226.837682 
L 297.598169 223.498098 
L 298.207505 213.093217 
L 298.816842 198.217862 
L 299.730847 169.34968 
L 302.77753 62.510183 
L 303.386867 48.029959 
L 303.996203 38.079153 
L 304.300871 34.97991 
L 304.60554 33.191976 
L 304.910208 32.738303 
L 305.214876 33.623383 
L 305.519545 35.83321 
L 306.128881 44.080605 
L 306.738218 57.0141 
L 307.652223 83.56106 
L 309.175564 138.267068 
L 310.394238 180.700734 
L 311.308242 205.675597 
L 311.917579 217.316436 
L 312.526916 224.206523 
L 312.831584 225.751865 
L 313.136252 226.002763 
L 313.440921 224.960339 
L 313.745589 222.643845 
L 314.354926 214.351675 
L 314.964262 201.617058 
L 315.878267 175.83901 
L 317.706277 112.915327 
L 318.92495 74.928684 
L 319.838955 54.449428 
L 320.448292 46.024589 
L 320.75296 43.557298 
L 321.057628 42.294611 
L 321.362297 42.246442 
L 321.666965 43.40592 
L 321.971633 45.749455 
L 322.58097 53.814367 
L 323.190306 65.942227 
L 324.104311 90.138199 
L 327.455663 189.465887 
L 328.064999 200.709899 
L 328.674336 207.99507 
L 328.979004 210.041504 
L 329.283672 210.99423 
L 329.588341 210.850144 
L 329.893009 209.62144 
L 330.197677 207.335183 
L 330.807014 199.769451 
L 331.416351 188.643496 
L 332.330355 166.800995 
L 335.377039 85.778071 
L 335.986375 74.724947 
L 336.595712 66.98087 
L 336.90038 64.464356 
L 337.205048 62.886707 
L 337.509717 62.257623 
L 337.814385 62.573442 
L 338.119053 63.817374 
L 338.423722 65.959879 
L 339.033058 72.762385 
L 339.642395 82.515796 
L 340.5564 101.299566 
L 343.298414 163.162152 
L 344.212419 177.237558 
L 344.821756 183.198727 
L 345.126424 185.050189 
L 345.431093 186.129042 
L 345.735761 186.434389 
L 346.040429 185.976222 
L 346.345098 184.775177 
L 346.954434 180.277371 
L 347.563771 173.297646 
L 348.477776 159.25678 
L 351.524459 106.50872 
L 352.133795 99.261454 
L 352.743132 94.105867 
L 353.352469 91.22482 
L 353.657137 90.65621 
L 353.961805 90.661683 
L 354.266473 91.225463 
L 354.571142 92.323967 
L 355.180478 95.995069 
L 355.789815 101.352874 
L 356.70382 111.654704 
L 359.141166 141.344218 
L 360.055171 149.280605 
L 360.664508 152.826906 
L 361.273844 154.848666 
L 361.578513 155.285411 
L 361.883181 155.350431 
L 362.187849 155.059149 
L 362.492518 154.432278 
L 363.101854 152.277721 
L 363.711191 149.13632 
L 364.929864 141.094457 
L 366.453206 130.947744 
L 367.367211 126.380771 
L 367.976547 124.315814 
L 368.585884 123.104556 
L 368.890552 122.814763 
L 369.19522 122.724493 
L 369.499889 122.820474 
L 369.804557 123.085885 
L 370.413894 124.042644 
L 371.327898 126.176459 
L 372.85124 129.824333 
L 373.460577 130.747075 
L 374.069913 131.150966 
L 374.374582 131.134844 
L 374.67925 130.968565 
L 375.288586 130.195579 
L 375.897923 128.892019 
L 376.811928 126.218629 
L 378.33527 121.449673 
L 378.944606 120.087109 
L 379.553943 119.362118 
L 379.858611 119.294984 
L 380.163279 119.448549 
L 380.467948 119.835947 
L 381.077284 121.343229 
L 381.686621 123.831808 
L 382.295957 127.238218 
L 383.209962 133.737359 
L 383.514631 136.162432 
L 383.514631 136.162432 
" style="fill:none;stroke:#0000ff;stroke-linecap:square;stroke-width:1.5;"/>
   </g>
   <g id="patch_3">
    <path d="M 63.932812 239.758125 
L 63.932812 22.318125 
" style="fill:none;stroke:#000000;stroke-linecap:square;stroke-linejoin:miter;stroke-width:0.8;"/>
   </g>
   <g id="patch_4">
    <path d="M 398.732813 239.758125 
L 398.732813 22.318125 
" style="fill:none;stroke:#000000;stroke-linecap:square;stroke-linejoin:miter;stroke-width:0.8;"/>
   </g>
   <g id="patch_5">
    <path d="M 63.932812 239.758125 
L 398.732813 239.758125 
" style="fill:none;stroke:#000000;stroke-linecap:square;stroke-linejoin:miter;stroke-width:0.8;"/>
   </g>
   <g id="patch_6">
    <path d="M 63.932812 22.318125 
L 398.732813 22.318125 
" style="fill:none;stroke:#000000;stroke-linecap:square;stroke-linejoin:miter;stroke-width:0.8;"/>
   </g>
   <g id="text_16">
    <!-- Unknown mode -->
    <g transform="translate(184.558125 16.318125)scale(0.12 -0.12)">
     <defs>
      <path d="M 8.6875 72.90625 
L 18.609375 72.90625 
L 18.609375 28.609375 
Q 18.609375 16.890625 22.84375 11.734375 
Q 27.09375 6.59375 36.625 6.59375 
Q 46.09375 6.59375 50.34375 11.734375 
Q 54.59375 16.890625 54.59375 28.609375 
L 54.59375 72.90625 
L 64.5 72.90625 
L 64.5 27.390625 
Q 64.5 13.140625 57.4375 5.859375 
Q 50.390625 -1.421875 36.625 -1.421875 
Q 22.796875 -1.421875 15.734375 5.859375 
Q 8.6875 13.140625 8.6875 27.390625 
z
" id="DejaVuSans-85"/>
      <path d="M 54.890625 33.015625 
L 54.890625 0 
L 45.90625 0 
L 45.90625 32.71875 
Q 45.90625 40.484375 42.875 44.328125 
Q 39.84375 48.1875 33.796875 48.1875 
Q 26.515625 48.1875 22.3125 43.546875 
Q 18.109375 38.921875 18.109375 30.90625 
L 18.109375 0 
L 9.078125 0 
L 9.078125 54.6875 
L 18.109375 54.6875 
L 18.109375 46.1875 
Q 21.34375 51.125 25.703125 53.5625 
Q 30.078125 56 35.796875 56 
Q 45.21875 56 50.046875 50.171875 
Q 54.890625 44.34375 54.890625 33.015625 
z
" id="DejaVuSans-110"/>
      <path d="M 9.078125 75.984375 
L 18.109375 75.984375 
L 18.109375 31.109375 
L 44.921875 54.6875 
L 56.390625 54.6875 
L 27.390625 29.109375 
L 57.625 0 
L 45.90625 0 
L 18.109375 26.703125 
L 18.109375 0 
L 9.078125 0 
z
" id="DejaVuSans-107"/>
      <path d="M 30.609375 48.390625 
Q 23.390625 48.390625 19.1875 42.75 
Q 14.984375 37.109375 14.984375 27.296875 
Q 14.984375 17.484375 19.15625 11.84375 
Q 23.34375 6.203125 30.609375 6.203125 
Q 37.796875 6.203125 41.984375 11.859375 
Q 46.1875 17.53125 46.1875 27.296875 
Q 46.1875 37.015625 41.984375 42.703125 
Q 37.796875 48.390625 30.609375 48.390625 
z
M 30.609375 56 
Q 42.328125 56 49.015625 48.375 
Q 55.71875 40.765625 55.71875 27.296875 
Q 55.71875 13.875 49.015625 6.21875 
Q 42.328125 -1.421875 30.609375 -1.421875 
Q 18.84375 -1.421875 12.171875 6.21875 
Q 5.515625 13.875 5.515625 27.296875 
Q 5.515625 40.765625 12.171875 48.375 
Q 18.84375 56 30.609375 56 
z
" id="DejaVuSans-111"/>
      <path d="M 4.203125 54.6875 
L 13.1875 54.6875 
L 24.421875 12.015625 
L 35.59375 54.6875 
L 46.1875 54.6875 
L 57.421875 12.015625 
L 68.609375 54.6875 
L 77.59375 54.6875 
L 63.28125 0 
L 52.6875 0 
L 40.921875 44.828125 
L 29.109375 0 
L 18.5 0 
z
" id="DejaVuSans-119"/>
      <path id="DejaVuSans-32"/>
      <path d="M 52 44.1875 
Q 55.375 50.25 60.0625 53.125 
Q 64.75 56 71.09375 56 
Q 79.640625 56 84.28125 50.015625 
Q 88.921875 44.046875 88.921875 33.015625 
L 88.921875 0 
L 79.890625 0 
L 79.890625 32.71875 
Q 79.890625 40.578125 77.09375 44.375 
Q 74.3125 48.1875 68.609375 48.1875 
Q 61.625 48.1875 57.5625 43.546875 
Q 53.515625 38.921875 53.515625 30.90625 
L 53.515625 0 
L 44.484375 0 
L 44.484375 32.71875 
Q 44.484375 40.625 41.703125 44.40625 
Q 38.921875 48.1875 33.109375 48.1875 
Q 26.21875 48.1875 22.15625 43.53125 
Q 18.109375 38.875 18.109375 30.90625 
L 18.109375 0 
L 9.078125 0 
L 9.078125 54.6875 
L 18.109375 54.6875 
L 18.109375 46.1875 
Q 21.1875 51.21875 25.484375 53.609375 
Q 29.78125 56 35.6875 56 
Q 41.65625 56 45.828125 52.96875 
Q 50 49.953125 52 44.1875 
z
" id="DejaVuSans-109"/>
      <path d="M 45.40625 46.390625 
L 45.40625 75.984375 
L 54.390625 75.984375 
L 54.390625 0 
L 45.40625 0 
L 45.40625 8.203125 
Q 42.578125 3.328125 38.25 0.953125 
Q 33.9375 -1.421875 27.875 -1.421875 
Q 17.96875 -1.421875 11.734375 6.484375 
Q 5.515625 14.40625 5.515625 27.296875 
Q 5.515625 40.1875 11.734375 48.09375 
Q 17.96875 56 27.875 56 
Q 33.9375 56 38.25 53.625 
Q 42.578125 51.265625 45.40625 46.390625 
z
M 14.796875 27.296875 
Q 14.796875 17.390625 18.875 11.75 
Q 22.953125 6.109375 30.078125 6.109375 
Q 37.203125 6.109375 41.296875 11.75 
Q 45.40625 17.390625 45.40625 27.296875 
Q 45.40625 37.203125 41.296875 42.84375 
Q 37.203125 48.484375 30.078125 48.484375 
Q 22.953125 48.484375 18.875 42.84375 
Q 14.796875 37.203125 14.796875 27.296875 
z
" id="DejaVuSans-100"/>
      <path d="M 56.203125 29.59375 
L 56.203125 25.203125 
L 14.890625 25.203125 
Q 15.484375 15.921875 20.484375 11.0625 
Q 25.484375 6.203125 34.421875 6.203125 
Q 39.59375 6.203125 44.453125 7.46875 
Q 49.3125 8.734375 54.109375 11.28125 
L 54.109375 2.78125 
Q 49.265625 0.734375 44.1875 -0.34375 
Q 39.109375 -1.421875 33.890625 -1.421875 
Q 20.796875 -1.421875 13.15625 6.1875 
Q 5.515625 13.8125 5.515625 26.8125 
Q 5.515625 40.234375 12.765625 48.109375 
Q 20.015625 56 32.328125 56 
Q 43.359375 56 49.78125 48.890625 
Q 56.203125 41.796875 56.203125 29.59375 
z
M 47.21875 32.234375 
Q 47.125 39.59375 43.09375 43.984375 
Q 39.0625 48.390625 32.421875 48.390625 
Q 24.90625 48.390625 20.390625 44.140625 
Q 15.875 39.890625 15.1875 32.171875 
z
" id="DejaVuSans-101"/>
     </defs>
     <use xlink:href="#DejaVuSans-85"/>
     <use x="73.193359" xlink:href="#DejaVuSans-110"/>
     <use x="136.572266" xlink:href="#DejaVuSans-107"/>
     <use x="194.482422" xlink:href="#DejaVuSans-110"/>
     <use x="257.861328" xlink:href="#DejaVuSans-111"/>
     <use x="319.042969" xlink:href="#DejaVuSans-119"/>
     <use x="400.830078" xlink:href="#DejaVuSans-110"/>
     <use x="464.208984" xlink:href="#DejaVuSans-32"/>
     <use x="495.996094" xlink:href="#DejaVuSans-109"/>
     <use x="593.408203" xlink:href="#DejaVuSans-111"/>
     <use x="654.589844" xlink:href="#DejaVuSans-100"/>
     <use x="718.066406" xlink:href="#DejaVuSans-101"/>
    </g>
   </g>
  </g>
 </g>
 <defs>
  <clipPath id="pbbe395b801">
   <rect height="217.44" width="334.8" x="63.932812" y="22.318125"/>
  </clipPath>
 </defs>
</svg>
