<?xml version="1.0" encoding="utf-8" standalone="no"?>
<!DOCTYPE svg PUBLIC "-//W3C//DTD SVG 1.1//EN"
  "http://www.w3.org/Graphics/SVG/1.1/DTD/svg11.dtd">
<!-- Created with matplotlib (https://matplotlib.org/) -->
<svg height="357.238125pt" version="1.1" viewBox="0 0 886.3 357.238125" width="886.3pt" xmlns="http://www.w3.org/2000/svg" xmlns:xlink="http://www.w3.org/1999/xlink">
 <metadata>
  <rdf:RDF xmlns:cc="http://creativecommons.org/ns#" xmlns:dc="http://purl.org/dc/elements/1.1/" xmlns:rdf="http://www.w3.org/1999/02/22-rdf-syntax-ns#">
   <cc:Work>
    <dc:type rdf:resource="http://purl.org/dc/dcmitype/StillImage"/>
    <dc:date>2021-04-19T18:30:50.876446</dc:date>
    <dc:format>image/svg+xml</dc:format>
    <dc:creator>
     <cc:Agent>
      <dc:title>Matplotlib v3.3.4, https://matplotlib.org/</dc:title>
     </cc:Agent>
    </dc:creator>
   </cc:Work>
  </rdf:RDF>
 </metadata>
 <defs>
  <style type="text/css">*{stroke-linecap:butt;stroke-linejoin:round;}</style>
 </defs>
 <g id="figure_1">
  <g id="patch_1">
   <path d="M 0 357.238125 
L 886.3 357.238125 
L 886.3 0 
L 0 0 
z
" style="fill:none;"/>
  </g>
  <g id="axes_1">
   <g id="patch_2">
    <path d="M 42.1 333.36 
L 879.1 333.36 
L 879.1 7.2 
L 42.1 7.2 
z
" style="fill:#ffffff;"/>
   </g>
   <g id="matplotlib.axis_1">
    <g id="xtick_1">
     <g id="line2d_1">
      <path clip-path="url(#p4d57a1c6b8)" d="M 80.145455 333.36 
L 80.145455 7.2 
" style="fill:none;stroke:#666666;stroke-linecap:square;stroke-opacity:0.3;stroke-width:0.8;"/>
     </g>
     <g id="line2d_2">
      <defs>
       <path d="M 0 0 
L 0 3.5 
" id="m1b5de8426c" style="stroke:#000000;stroke-width:0.8;"/>
      </defs>
      <g>
       <use style="stroke:#000000;stroke-width:0.8;" x="80.145455" xlink:href="#m1b5de8426c" y="333.36"/>
      </g>
     </g>
     <g id="text_1">
      <!-- $\mathdefault{10^{0}}$ -->
      <g transform="translate(71.345455 347.958438)scale(0.1 -0.1)">
       <defs>
        <path d="M 12.40625 8.296875 
L 28.515625 8.296875 
L 28.515625 63.921875 
L 10.984375 60.40625 
L 10.984375 69.390625 
L 28.421875 72.90625 
L 38.28125 72.90625 
L 38.28125 8.296875 
L 54.390625 8.296875 
L 54.390625 0 
L 12.40625 0 
z
" id="DejaVuSans-49"/>
        <path d="M 31.78125 66.40625 
Q 24.171875 66.40625 20.328125 58.90625 
Q 16.5 51.421875 16.5 36.375 
Q 16.5 21.390625 20.328125 13.890625 
Q 24.171875 6.390625 31.78125 6.390625 
Q 39.453125 6.390625 43.28125 13.890625 
Q 47.125 21.390625 47.125 36.375 
Q 47.125 51.421875 43.28125 58.90625 
Q 39.453125 66.40625 31.78125 66.40625 
z
M 31.78125 74.21875 
Q 44.046875 74.21875 50.515625 64.515625 
Q 56.984375 54.828125 56.984375 36.375 
Q 56.984375 17.96875 50.515625 8.265625 
Q 44.046875 -1.421875 31.78125 -1.421875 
Q 19.53125 -1.421875 13.0625 8.265625 
Q 6.59375 17.96875 6.59375 36.375 
Q 6.59375 54.828125 13.0625 64.515625 
Q 19.53125 74.21875 31.78125 74.21875 
z
" id="DejaVuSans-48"/>
       </defs>
       <use transform="translate(0 0.765625)" xlink:href="#DejaVuSans-49"/>
       <use transform="translate(63.623047 0.765625)" xlink:href="#DejaVuSans-48"/>
       <use transform="translate(128.203125 39.046875)scale(0.7)" xlink:href="#DejaVuSans-48"/>
      </g>
     </g>
    </g>
    <g id="xtick_2">
     <g id="line2d_3">
      <path clip-path="url(#p4d57a1c6b8)" d="M 317.988525 333.36 
L 317.988525 7.2 
" style="fill:none;stroke:#666666;stroke-linecap:square;stroke-opacity:0.3;stroke-width:0.8;"/>
     </g>
     <g id="line2d_4">
      <g>
       <use style="stroke:#000000;stroke-width:0.8;" x="317.988525" xlink:href="#m1b5de8426c" y="333.36"/>
      </g>
     </g>
     <g id="text_2">
      <!-- $\mathdefault{10^{1}}$ -->
      <g transform="translate(309.188525 347.958438)scale(0.1 -0.1)">
       <use transform="translate(0 0.684375)" xlink:href="#DejaVuSans-49"/>
       <use transform="translate(63.623047 0.684375)" xlink:href="#DejaVuSans-48"/>
       <use transform="translate(128.203125 38.965625)scale(0.7)" xlink:href="#DejaVuSans-49"/>
      </g>
     </g>
    </g>
    <g id="xtick_3">
     <g id="line2d_5">
      <path clip-path="url(#p4d57a1c6b8)" d="M 555.831595 333.36 
L 555.831595 7.2 
" style="fill:none;stroke:#666666;stroke-linecap:square;stroke-opacity:0.3;stroke-width:0.8;"/>
     </g>
     <g id="line2d_6">
      <g>
       <use style="stroke:#000000;stroke-width:0.8;" x="555.831595" xlink:href="#m1b5de8426c" y="333.36"/>
      </g>
     </g>
     <g id="text_3">
      <!-- $\mathdefault{10^{2}}$ -->
      <g transform="translate(547.031595 347.958438)scale(0.1 -0.1)">
       <defs>
        <path d="M 19.1875 8.296875 
L 53.609375 8.296875 
L 53.609375 0 
L 7.328125 0 
L 7.328125 8.296875 
Q 12.9375 14.109375 22.625 23.890625 
Q 32.328125 33.6875 34.8125 36.53125 
Q 39.546875 41.84375 41.421875 45.53125 
Q 43.3125 49.21875 43.3125 52.78125 
Q 43.3125 58.59375 39.234375 62.25 
Q 35.15625 65.921875 28.609375 65.921875 
Q 23.96875 65.921875 18.8125 64.3125 
Q 13.671875 62.703125 7.8125 59.421875 
L 7.8125 69.390625 
Q 13.765625 71.78125 18.9375 73 
Q 24.125 74.21875 28.421875 74.21875 
Q 39.75 74.21875 46.484375 68.546875 
Q 53.21875 62.890625 53.21875 53.421875 
Q 53.21875 48.921875 51.53125 44.890625 
Q 49.859375 40.875 45.40625 35.40625 
Q 44.1875 33.984375 37.640625 27.21875 
Q 31.109375 20.453125 19.1875 8.296875 
z
" id="DejaVuSans-50"/>
       </defs>
       <use transform="translate(0 0.765625)" xlink:href="#DejaVuSans-49"/>
       <use transform="translate(63.623047 0.765625)" xlink:href="#DejaVuSans-48"/>
       <use transform="translate(128.203125 39.046875)scale(0.7)" xlink:href="#DejaVuSans-50"/>
      </g>
     </g>
    </g>
    <g id="xtick_4">
     <g id="line2d_7">
      <path clip-path="url(#p4d57a1c6b8)" d="M 793.674665 333.36 
L 793.674665 7.2 
" style="fill:none;stroke:#666666;stroke-linecap:square;stroke-opacity:0.3;stroke-width:0.8;"/>
     </g>
     <g id="line2d_8">
      <g>
       <use style="stroke:#000000;stroke-width:0.8;" x="793.674665" xlink:href="#m1b5de8426c" y="333.36"/>
      </g>
     </g>
     <g id="text_4">
      <!-- $\mathdefault{10^{3}}$ -->
      <g transform="translate(784.874665 347.958438)scale(0.1 -0.1)">
       <defs>
        <path d="M 40.578125 39.3125 
Q 47.65625 37.796875 51.625 33 
Q 55.609375 28.21875 55.609375 21.1875 
Q 55.609375 10.40625 48.1875 4.484375 
Q 40.765625 -1.421875 27.09375 -1.421875 
Q 22.515625 -1.421875 17.65625 -0.515625 
Q 12.796875 0.390625 7.625 2.203125 
L 7.625 11.71875 
Q 11.71875 9.328125 16.59375 8.109375 
Q 21.484375 6.890625 26.8125 6.890625 
Q 36.078125 6.890625 40.9375 10.546875 
Q 45.796875 14.203125 45.796875 21.1875 
Q 45.796875 27.640625 41.28125 31.265625 
Q 36.765625 34.90625 28.71875 34.90625 
L 20.21875 34.90625 
L 20.21875 43.015625 
L 29.109375 43.015625 
Q 36.375 43.015625 40.234375 45.921875 
Q 44.09375 48.828125 44.09375 54.296875 
Q 44.09375 59.90625 40.109375 62.90625 
Q 36.140625 65.921875 28.71875 65.921875 
Q 24.65625 65.921875 20.015625 65.03125 
Q 15.375 64.15625 9.8125 62.3125 
L 9.8125 71.09375 
Q 15.4375 72.65625 20.34375 73.4375 
Q 25.25 74.21875 29.59375 74.21875 
Q 40.828125 74.21875 47.359375 69.109375 
Q 53.90625 64.015625 53.90625 55.328125 
Q 53.90625 49.265625 50.4375 45.09375 
Q 46.96875 40.921875 40.578125 39.3125 
z
" id="DejaVuSans-51"/>
       </defs>
       <use transform="translate(0 0.765625)" xlink:href="#DejaVuSans-49"/>
       <use transform="translate(63.623047 0.765625)" xlink:href="#DejaVuSans-48"/>
       <use transform="translate(128.203125 39.046875)scale(0.7)" xlink:href="#DejaVuSans-51"/>
      </g>
     </g>
    </g>
    <g id="xtick_5">
     <g id="line2d_9">
      <defs>
       <path d="M 0 0 
L 0 2 
" id="mef7d2248d7" style="stroke:#000000;stroke-width:0.6;"/>
      </defs>
      <g>
       <use style="stroke:#000000;stroke-width:0.6;" x="43.303097" xlink:href="#mef7d2248d7" y="333.36"/>
      </g>
     </g>
    </g>
    <g id="xtick_6">
     <g id="line2d_10">
      <g>
       <use style="stroke:#000000;stroke-width:0.6;" x="57.09608" xlink:href="#mef7d2248d7" y="333.36"/>
      </g>
     </g>
    </g>
    <g id="xtick_7">
     <g id="line2d_11">
      <g>
       <use style="stroke:#000000;stroke-width:0.6;" x="69.262353" xlink:href="#mef7d2248d7" y="333.36"/>
      </g>
     </g>
    </g>
    <g id="xtick_8">
     <g id="line2d_12">
      <g>
       <use style="stroke:#000000;stroke-width:0.6;" x="151.743353" xlink:href="#mef7d2248d7" y="333.36"/>
      </g>
     </g>
    </g>
    <g id="xtick_9">
     <g id="line2d_13">
      <g>
       <use style="stroke:#000000;stroke-width:0.6;" x="193.625439" xlink:href="#mef7d2248d7" y="333.36"/>
      </g>
     </g>
    </g>
    <g id="xtick_10">
     <g id="line2d_14">
      <g>
       <use style="stroke:#000000;stroke-width:0.6;" x="223.341251" xlink:href="#mef7d2248d7" y="333.36"/>
      </g>
     </g>
    </g>
    <g id="xtick_11">
     <g id="line2d_15">
      <g>
       <use style="stroke:#000000;stroke-width:0.6;" x="246.390626" xlink:href="#mef7d2248d7" y="333.36"/>
      </g>
     </g>
    </g>
    <g id="xtick_12">
     <g id="line2d_16">
      <g>
       <use style="stroke:#000000;stroke-width:0.6;" x="265.223337" xlink:href="#mef7d2248d7" y="333.36"/>
      </g>
     </g>
    </g>
    <g id="xtick_13">
     <g id="line2d_17">
      <g>
       <use style="stroke:#000000;stroke-width:0.6;" x="281.146167" xlink:href="#mef7d2248d7" y="333.36"/>
      </g>
     </g>
    </g>
    <g id="xtick_14">
     <g id="line2d_18">
      <g>
       <use style="stroke:#000000;stroke-width:0.6;" x="294.93915" xlink:href="#mef7d2248d7" y="333.36"/>
      </g>
     </g>
    </g>
    <g id="xtick_15">
     <g id="line2d_19">
      <g>
       <use style="stroke:#000000;stroke-width:0.6;" x="307.105423" xlink:href="#mef7d2248d7" y="333.36"/>
      </g>
     </g>
    </g>
    <g id="xtick_16">
     <g id="line2d_20">
      <g>
       <use style="stroke:#000000;stroke-width:0.6;" x="389.586423" xlink:href="#mef7d2248d7" y="333.36"/>
      </g>
     </g>
    </g>
    <g id="xtick_17">
     <g id="line2d_21">
      <g>
       <use style="stroke:#000000;stroke-width:0.6;" x="431.468509" xlink:href="#mef7d2248d7" y="333.36"/>
      </g>
     </g>
    </g>
    <g id="xtick_18">
     <g id="line2d_22">
      <g>
       <use style="stroke:#000000;stroke-width:0.6;" x="461.184321" xlink:href="#mef7d2248d7" y="333.36"/>
      </g>
     </g>
    </g>
    <g id="xtick_19">
     <g id="line2d_23">
      <g>
       <use style="stroke:#000000;stroke-width:0.6;" x="484.233696" xlink:href="#mef7d2248d7" y="333.36"/>
      </g>
     </g>
    </g>
    <g id="xtick_20">
     <g id="line2d_24">
      <g>
       <use style="stroke:#000000;stroke-width:0.6;" x="503.066407" xlink:href="#mef7d2248d7" y="333.36"/>
      </g>
     </g>
    </g>
    <g id="xtick_21">
     <g id="line2d_25">
      <g>
       <use style="stroke:#000000;stroke-width:0.6;" x="518.989237" xlink:href="#mef7d2248d7" y="333.36"/>
      </g>
     </g>
    </g>
    <g id="xtick_22">
     <g id="line2d_26">
      <g>
       <use style="stroke:#000000;stroke-width:0.6;" x="532.78222" xlink:href="#mef7d2248d7" y="333.36"/>
      </g>
     </g>
    </g>
    <g id="xtick_23">
     <g id="line2d_27">
      <g>
       <use style="stroke:#000000;stroke-width:0.6;" x="544.948493" xlink:href="#mef7d2248d7" y="333.36"/>
      </g>
     </g>
    </g>
    <g id="xtick_24">
     <g id="line2d_28">
      <g>
       <use style="stroke:#000000;stroke-width:0.6;" x="627.429493" xlink:href="#mef7d2248d7" y="333.36"/>
      </g>
     </g>
    </g>
    <g id="xtick_25">
     <g id="line2d_29">
      <g>
       <use style="stroke:#000000;stroke-width:0.6;" x="669.311579" xlink:href="#mef7d2248d7" y="333.36"/>
      </g>
     </g>
    </g>
    <g id="xtick_26">
     <g id="line2d_30">
      <g>
       <use style="stroke:#000000;stroke-width:0.6;" x="699.027391" xlink:href="#mef7d2248d7" y="333.36"/>
      </g>
     </g>
    </g>
    <g id="xtick_27">
     <g id="line2d_31">
      <g>
       <use style="stroke:#000000;stroke-width:0.6;" x="722.076767" xlink:href="#mef7d2248d7" y="333.36"/>
      </g>
     </g>
    </g>
    <g id="xtick_28">
     <g id="line2d_32">
      <g>
       <use style="stroke:#000000;stroke-width:0.6;" x="740.909477" xlink:href="#mef7d2248d7" y="333.36"/>
      </g>
     </g>
    </g>
    <g id="xtick_29">
     <g id="line2d_33">
      <g>
       <use style="stroke:#000000;stroke-width:0.6;" x="756.832307" xlink:href="#mef7d2248d7" y="333.36"/>
      </g>
     </g>
    </g>
    <g id="xtick_30">
     <g id="line2d_34">
      <g>
       <use style="stroke:#000000;stroke-width:0.6;" x="770.62529" xlink:href="#mef7d2248d7" y="333.36"/>
      </g>
     </g>
    </g>
    <g id="xtick_31">
     <g id="line2d_35">
      <g>
       <use style="stroke:#000000;stroke-width:0.6;" x="782.791563" xlink:href="#mef7d2248d7" y="333.36"/>
      </g>
     </g>
    </g>
    <g id="xtick_32">
     <g id="line2d_36">
      <g>
       <use style="stroke:#000000;stroke-width:0.6;" x="865.272563" xlink:href="#mef7d2248d7" y="333.36"/>
      </g>
     </g>
    </g>
   </g>
   <g id="matplotlib.axis_2">
    <g id="ytick_1">
     <g id="line2d_37">
      <path clip-path="url(#p4d57a1c6b8)" d="M 42.1 277.46799 
L 879.1 277.46799 
" style="fill:none;stroke:#666666;stroke-linecap:square;stroke-opacity:0.3;stroke-width:0.8;"/>
     </g>
     <g id="line2d_38">
      <defs>
       <path d="M 0 0 
L -3.5 0 
" id="m01633bff2b" style="stroke:#000000;stroke-width:0.8;"/>
      </defs>
      <g>
       <use style="stroke:#000000;stroke-width:0.8;" x="42.1" xlink:href="#m01633bff2b" y="277.46799"/>
      </g>
     </g>
     <g id="text_5">
      <!-- $\mathdefault{10^{-15}}$ -->
      <g transform="translate(7.2 281.267209)scale(0.1 -0.1)">
       <defs>
        <path d="M 10.59375 35.5 
L 73.1875 35.5 
L 73.1875 27.203125 
L 10.59375 27.203125 
z
" id="DejaVuSans-8722"/>
        <path d="M 10.796875 72.90625 
L 49.515625 72.90625 
L 49.515625 64.59375 
L 19.828125 64.59375 
L 19.828125 46.734375 
Q 21.96875 47.46875 24.109375 47.828125 
Q 26.265625 48.1875 28.421875 48.1875 
Q 40.625 48.1875 47.75 41.5 
Q 54.890625 34.8125 54.890625 23.390625 
Q 54.890625 11.625 47.5625 5.09375 
Q 40.234375 -1.421875 26.90625 -1.421875 
Q 22.3125 -1.421875 17.546875 -0.640625 
Q 12.796875 0.140625 7.71875 1.703125 
L 7.71875 11.625 
Q 12.109375 9.234375 16.796875 8.0625 
Q 21.484375 6.890625 26.703125 6.890625 
Q 35.15625 6.890625 40.078125 11.328125 
Q 45.015625 15.765625 45.015625 23.390625 
Q 45.015625 31 40.078125 35.4375 
Q 35.15625 39.890625 26.703125 39.890625 
Q 22.75 39.890625 18.8125 39.015625 
Q 14.890625 38.140625 10.796875 36.28125 
z
" id="DejaVuSans-53"/>
       </defs>
       <use transform="translate(0 0.684375)" xlink:href="#DejaVuSans-49"/>
       <use transform="translate(63.623047 0.684375)" xlink:href="#DejaVuSans-48"/>
       <use transform="translate(128.203125 38.965625)scale(0.7)" xlink:href="#DejaVuSans-8722"/>
       <use transform="translate(186.855469 38.965625)scale(0.7)" xlink:href="#DejaVuSans-49"/>
       <use transform="translate(231.391602 38.965625)scale(0.7)" xlink:href="#DejaVuSans-53"/>
      </g>
     </g>
    </g>
    <g id="ytick_2">
     <g id="line2d_39">
      <path clip-path="url(#p4d57a1c6b8)" d="M 42.1 214.632797 
L 879.1 214.632797 
" style="fill:none;stroke:#666666;stroke-linecap:square;stroke-opacity:0.3;stroke-width:0.8;"/>
     </g>
     <g id="line2d_40">
      <g>
       <use style="stroke:#000000;stroke-width:0.8;" x="42.1" xlink:href="#m01633bff2b" y="214.632797"/>
      </g>
     </g>
     <g id="text_6">
      <!-- $\mathdefault{10^{-14}}$ -->
      <g transform="translate(7.2 218.432016)scale(0.1 -0.1)">
       <defs>
        <path d="M 37.796875 64.3125 
L 12.890625 25.390625 
L 37.796875 25.390625 
z
M 35.203125 72.90625 
L 47.609375 72.90625 
L 47.609375 25.390625 
L 58.015625 25.390625 
L 58.015625 17.1875 
L 47.609375 17.1875 
L 47.609375 0 
L 37.796875 0 
L 37.796875 17.1875 
L 4.890625 17.1875 
L 4.890625 26.703125 
z
" id="DejaVuSans-52"/>
       </defs>
       <use transform="translate(0 0.684375)" xlink:href="#DejaVuSans-49"/>
       <use transform="translate(63.623047 0.684375)" xlink:href="#DejaVuSans-48"/>
       <use transform="translate(128.203125 38.965625)scale(0.7)" xlink:href="#DejaVuSans-8722"/>
       <use transform="translate(186.855469 38.965625)scale(0.7)" xlink:href="#DejaVuSans-49"/>
       <use transform="translate(231.391602 38.965625)scale(0.7)" xlink:href="#DejaVuSans-52"/>
      </g>
     </g>
    </g>
    <g id="ytick_3">
     <g id="line2d_41">
      <path clip-path="url(#p4d57a1c6b8)" d="M 42.1 151.797603 
L 879.1 151.797603 
" style="fill:none;stroke:#666666;stroke-linecap:square;stroke-opacity:0.3;stroke-width:0.8;"/>
     </g>
     <g id="line2d_42">
      <g>
       <use style="stroke:#000000;stroke-width:0.8;" x="42.1" xlink:href="#m01633bff2b" y="151.797603"/>
      </g>
     </g>
     <g id="text_7">
      <!-- $\mathdefault{10^{-13}}$ -->
      <g transform="translate(7.2 155.596822)scale(0.1 -0.1)">
       <use transform="translate(0 0.765625)" xlink:href="#DejaVuSans-49"/>
       <use transform="translate(63.623047 0.765625)" xlink:href="#DejaVuSans-48"/>
       <use transform="translate(128.203125 39.046875)scale(0.7)" xlink:href="#DejaVuSans-8722"/>
       <use transform="translate(186.855469 39.046875)scale(0.7)" xlink:href="#DejaVuSans-49"/>
       <use transform="translate(231.391602 39.046875)scale(0.7)" xlink:href="#DejaVuSans-51"/>
      </g>
     </g>
    </g>
    <g id="ytick_4">
     <g id="line2d_43">
      <path clip-path="url(#p4d57a1c6b8)" d="M 42.1 88.96241 
L 879.1 88.96241 
" style="fill:none;stroke:#666666;stroke-linecap:square;stroke-opacity:0.3;stroke-width:0.8;"/>
     </g>
     <g id="line2d_44">
      <g>
       <use style="stroke:#000000;stroke-width:0.8;" x="42.1" xlink:href="#m01633bff2b" y="88.96241"/>
      </g>
     </g>
     <g id="text_8">
      <!-- $\mathdefault{10^{-12}}$ -->
      <g transform="translate(7.2 92.761628)scale(0.1 -0.1)">
       <use transform="translate(0 0.765625)" xlink:href="#DejaVuSans-49"/>
       <use transform="translate(63.623047 0.765625)" xlink:href="#DejaVuSans-48"/>
       <use transform="translate(128.203125 39.046875)scale(0.7)" xlink:href="#DejaVuSans-8722"/>
       <use transform="translate(186.855469 39.046875)scale(0.7)" xlink:href="#DejaVuSans-49"/>
       <use transform="translate(231.391602 39.046875)scale(0.7)" xlink:href="#DejaVuSans-50"/>
      </g>
     </g>
    </g>
    <g id="ytick_5">
     <g id="line2d_45">
      <path clip-path="url(#p4d57a1c6b8)" d="M 42.1 26.127216 
L 879.1 26.127216 
" style="fill:none;stroke:#666666;stroke-linecap:square;stroke-opacity:0.3;stroke-width:0.8;"/>
     </g>
     <g id="line2d_46">
      <g>
       <use style="stroke:#000000;stroke-width:0.8;" x="42.1" xlink:href="#m01633bff2b" y="26.127216"/>
      </g>
     </g>
     <g id="text_9">
      <!-- $\mathdefault{10^{-11}}$ -->
      <g transform="translate(7.2 29.926435)scale(0.1 -0.1)">
       <use transform="translate(0 0.684375)" xlink:href="#DejaVuSans-49"/>
       <use transform="translate(63.623047 0.684375)" xlink:href="#DejaVuSans-48"/>
       <use transform="translate(128.203125 38.965625)scale(0.7)" xlink:href="#DejaVuSans-8722"/>
       <use transform="translate(186.855469 38.965625)scale(0.7)" xlink:href="#DejaVuSans-49"/>
       <use transform="translate(231.391602 38.965625)scale(0.7)" xlink:href="#DejaVuSans-49"/>
      </g>
     </g>
    </g>
    <g id="ytick_6">
     <g id="line2d_47">
      <defs>
       <path d="M 0 0 
L -2 0 
" id="mdaf17e41f8" style="stroke:#000000;stroke-width:0.6;"/>
      </defs>
      <g>
       <use style="stroke:#000000;stroke-width:0.6;" x="42.1" xlink:href="#mdaf17e41f8" y="321.387906"/>
      </g>
     </g>
    </g>
    <g id="ytick_7">
     <g id="line2d_48">
      <g>
       <use style="stroke:#000000;stroke-width:0.6;" x="42.1" xlink:href="#mdaf17e41f8" y="310.323178"/>
      </g>
     </g>
    </g>
    <g id="ytick_8">
     <g id="line2d_49">
      <g>
       <use style="stroke:#000000;stroke-width:0.6;" x="42.1" xlink:href="#mdaf17e41f8" y="302.472628"/>
      </g>
     </g>
    </g>
    <g id="ytick_9">
     <g id="line2d_50">
      <g>
       <use style="stroke:#000000;stroke-width:0.6;" x="42.1" xlink:href="#mdaf17e41f8" y="296.383269"/>
      </g>
     </g>
    </g>
    <g id="ytick_10">
     <g id="line2d_51">
      <g>
       <use style="stroke:#000000;stroke-width:0.6;" x="42.1" xlink:href="#mdaf17e41f8" y="291.4079"/>
      </g>
     </g>
    </g>
    <g id="ytick_11">
     <g id="line2d_52">
      <g>
       <use style="stroke:#000000;stroke-width:0.6;" x="42.1" xlink:href="#mdaf17e41f8" y="287.201285"/>
      </g>
     </g>
    </g>
    <g id="ytick_12">
     <g id="line2d_53">
      <g>
       <use style="stroke:#000000;stroke-width:0.6;" x="42.1" xlink:href="#mdaf17e41f8" y="283.55735"/>
      </g>
     </g>
    </g>
    <g id="ytick_13">
     <g id="line2d_54">
      <g>
       <use style="stroke:#000000;stroke-width:0.6;" x="42.1" xlink:href="#mdaf17e41f8" y="280.343171"/>
      </g>
     </g>
    </g>
    <g id="ytick_14">
     <g id="line2d_55">
      <g>
       <use style="stroke:#000000;stroke-width:0.6;" x="42.1" xlink:href="#mdaf17e41f8" y="258.552712"/>
      </g>
     </g>
    </g>
    <g id="ytick_15">
     <g id="line2d_56">
      <g>
       <use style="stroke:#000000;stroke-width:0.6;" x="42.1" xlink:href="#mdaf17e41f8" y="247.487984"/>
      </g>
     </g>
    </g>
    <g id="ytick_16">
     <g id="line2d_57">
      <g>
       <use style="stroke:#000000;stroke-width:0.6;" x="42.1" xlink:href="#mdaf17e41f8" y="239.637434"/>
      </g>
     </g>
    </g>
    <g id="ytick_17">
     <g id="line2d_58">
      <g>
       <use style="stroke:#000000;stroke-width:0.6;" x="42.1" xlink:href="#mdaf17e41f8" y="233.548075"/>
      </g>
     </g>
    </g>
    <g id="ytick_18">
     <g id="line2d_59">
      <g>
       <use style="stroke:#000000;stroke-width:0.6;" x="42.1" xlink:href="#mdaf17e41f8" y="228.572706"/>
      </g>
     </g>
    </g>
    <g id="ytick_19">
     <g id="line2d_60">
      <g>
       <use style="stroke:#000000;stroke-width:0.6;" x="42.1" xlink:href="#mdaf17e41f8" y="224.366092"/>
      </g>
     </g>
    </g>
    <g id="ytick_20">
     <g id="line2d_61">
      <g>
       <use style="stroke:#000000;stroke-width:0.6;" x="42.1" xlink:href="#mdaf17e41f8" y="220.722156"/>
      </g>
     </g>
    </g>
    <g id="ytick_21">
     <g id="line2d_62">
      <g>
       <use style="stroke:#000000;stroke-width:0.6;" x="42.1" xlink:href="#mdaf17e41f8" y="217.507978"/>
      </g>
     </g>
    </g>
    <g id="ytick_22">
     <g id="line2d_63">
      <g>
       <use style="stroke:#000000;stroke-width:0.6;" x="42.1" xlink:href="#mdaf17e41f8" y="195.717519"/>
      </g>
     </g>
    </g>
    <g id="ytick_23">
     <g id="line2d_64">
      <g>
       <use style="stroke:#000000;stroke-width:0.6;" x="42.1" xlink:href="#mdaf17e41f8" y="184.65279"/>
      </g>
     </g>
    </g>
    <g id="ytick_24">
     <g id="line2d_65">
      <g>
       <use style="stroke:#000000;stroke-width:0.6;" x="42.1" xlink:href="#mdaf17e41f8" y="176.802241"/>
      </g>
     </g>
    </g>
    <g id="ytick_25">
     <g id="line2d_66">
      <g>
       <use style="stroke:#000000;stroke-width:0.6;" x="42.1" xlink:href="#mdaf17e41f8" y="170.712881"/>
      </g>
     </g>
    </g>
    <g id="ytick_26">
     <g id="line2d_67">
      <g>
       <use style="stroke:#000000;stroke-width:0.6;" x="42.1" xlink:href="#mdaf17e41f8" y="165.737512"/>
      </g>
     </g>
    </g>
    <g id="ytick_27">
     <g id="line2d_68">
      <g>
       <use style="stroke:#000000;stroke-width:0.6;" x="42.1" xlink:href="#mdaf17e41f8" y="161.530898"/>
      </g>
     </g>
    </g>
    <g id="ytick_28">
     <g id="line2d_69">
      <g>
       <use style="stroke:#000000;stroke-width:0.6;" x="42.1" xlink:href="#mdaf17e41f8" y="157.886963"/>
      </g>
     </g>
    </g>
    <g id="ytick_29">
     <g id="line2d_70">
      <g>
       <use style="stroke:#000000;stroke-width:0.6;" x="42.1" xlink:href="#mdaf17e41f8" y="154.672784"/>
      </g>
     </g>
    </g>
    <g id="ytick_30">
     <g id="line2d_71">
      <g>
       <use style="stroke:#000000;stroke-width:0.6;" x="42.1" xlink:href="#mdaf17e41f8" y="132.882325"/>
      </g>
     </g>
    </g>
    <g id="ytick_31">
     <g id="line2d_72">
      <g>
       <use style="stroke:#000000;stroke-width:0.6;" x="42.1" xlink:href="#mdaf17e41f8" y="121.817597"/>
      </g>
     </g>
    </g>
    <g id="ytick_32">
     <g id="line2d_73">
      <g>
       <use style="stroke:#000000;stroke-width:0.6;" x="42.1" xlink:href="#mdaf17e41f8" y="113.967047"/>
      </g>
     </g>
    </g>
    <g id="ytick_33">
     <g id="line2d_74">
      <g>
       <use style="stroke:#000000;stroke-width:0.6;" x="42.1" xlink:href="#mdaf17e41f8" y="107.877688"/>
      </g>
     </g>
    </g>
    <g id="ytick_34">
     <g id="line2d_75">
      <g>
       <use style="stroke:#000000;stroke-width:0.6;" x="42.1" xlink:href="#mdaf17e41f8" y="102.902319"/>
      </g>
     </g>
    </g>
    <g id="ytick_35">
     <g id="line2d_76">
      <g>
       <use style="stroke:#000000;stroke-width:0.6;" x="42.1" xlink:href="#mdaf17e41f8" y="98.695704"/>
      </g>
     </g>
    </g>
    <g id="ytick_36">
     <g id="line2d_77">
      <g>
       <use style="stroke:#000000;stroke-width:0.6;" x="42.1" xlink:href="#mdaf17e41f8" y="95.051769"/>
      </g>
     </g>
    </g>
    <g id="ytick_37">
     <g id="line2d_78">
      <g>
       <use style="stroke:#000000;stroke-width:0.6;" x="42.1" xlink:href="#mdaf17e41f8" y="91.83759"/>
      </g>
     </g>
    </g>
    <g id="ytick_38">
     <g id="line2d_79">
      <g>
       <use style="stroke:#000000;stroke-width:0.6;" x="42.1" xlink:href="#mdaf17e41f8" y="70.047132"/>
      </g>
     </g>
    </g>
    <g id="ytick_39">
     <g id="line2d_80">
      <g>
       <use style="stroke:#000000;stroke-width:0.6;" x="42.1" xlink:href="#mdaf17e41f8" y="58.982403"/>
      </g>
     </g>
    </g>
    <g id="ytick_40">
     <g id="line2d_81">
      <g>
       <use style="stroke:#000000;stroke-width:0.6;" x="42.1" xlink:href="#mdaf17e41f8" y="51.131854"/>
      </g>
     </g>
    </g>
    <g id="ytick_41">
     <g id="line2d_82">
      <g>
       <use style="stroke:#000000;stroke-width:0.6;" x="42.1" xlink:href="#mdaf17e41f8" y="45.042494"/>
      </g>
     </g>
    </g>
    <g id="ytick_42">
     <g id="line2d_83">
      <g>
       <use style="stroke:#000000;stroke-width:0.6;" x="42.1" xlink:href="#mdaf17e41f8" y="40.067125"/>
      </g>
     </g>
    </g>
    <g id="ytick_43">
     <g id="line2d_84">
      <g>
       <use style="stroke:#000000;stroke-width:0.6;" x="42.1" xlink:href="#mdaf17e41f8" y="35.860511"/>
      </g>
     </g>
    </g>
    <g id="ytick_44">
     <g id="line2d_85">
      <g>
       <use style="stroke:#000000;stroke-width:0.6;" x="42.1" xlink:href="#mdaf17e41f8" y="32.216576"/>
      </g>
     </g>
    </g>
    <g id="ytick_45">
     <g id="line2d_86">
      <g>
       <use style="stroke:#000000;stroke-width:0.6;" x="42.1" xlink:href="#mdaf17e41f8" y="29.002397"/>
      </g>
     </g>
    </g>
    <g id="ytick_46">
     <g id="line2d_87">
      <g>
       <use style="stroke:#000000;stroke-width:0.6;" x="42.1" xlink:href="#mdaf17e41f8" y="7.211938"/>
      </g>
     </g>
    </g>
   </g>
   <g id="line2d_88">
    <path clip-path="url(#p4d57a1c6b8)" d="M 151.697393 358.238125 
L 151.743353 318.534545 
L 151.770238 358.238125 
M 223.316865 358.238125 
L 223.341251 307.469817 
L 246.390626 299.619267 
L 265.223337 288.554539 
L 281.146167 318.534545 
L 307.105423 318.534545 
L 317.988525 299.619267 
L 336.821235 299.619267 
L 345.089161 293.529908 
L 352.744065 284.347925 
L 378.703321 284.347925 
L 384.288137 293.529908 
L 389.586423 284.347925 
L 399.431386 284.347925 
L 404.022984 280.703989 
L 408.419134 274.61463 
L 416.68706 274.61463 
L 420.585407 280.703989 
L 424.341964 274.61463 
L 427.966684 274.61463 
L 431.468509 280.703989 
L 434.855498 284.347925 
L 438.134946 280.703989 
L 441.313472 284.347925 
L 444.397102 280.703989 
L 447.391339 280.703989 
L 450.301219 274.61463 
L 453.131367 267.454977 
L 455.886035 267.454977 
L 458.569145 269.639261 
L 461.184321 269.639261 
L 463.734918 263.549902 
L 466.224049 260.134327 
L 468.654607 260.134327 
L 471.029285 263.549902 
L 473.350594 260.134327 
L 475.620882 260.134327 
L 477.842343 263.549902 
L 480.017032 260.134327 
L 482.146879 260.134327 
L 484.233696 263.549902 
L 486.279188 263.549902 
L 488.284958 260.134327 
L 492.183305 260.134327 
L 494.07866 267.454977 
L 495.939862 263.549902 
L 497.768121 260.134327 
L 499.564582 263.549902 
L 504.773784 263.549902 
L 506.453397 260.134327 
L 511.334333 260.134327 
L 512.91137 258.574533 
L 514.464692 255.699352 
L 517.502968 255.699352 
L 518.989237 258.574533 
L 520.454424 255.699352 
L 521.899118 255.699352 
L 523.323884 254.367918 
L 524.729266 254.367918 
L 526.115782 255.699352 
L 528.8342 255.699352 
L 530.167044 254.367918 
L 531.482908 254.367918 
L 532.78222 255.699352 
L 534.065391 254.367918 
L 535.332817 255.699352 
L 536.58488 254.367918 
L 537.821948 249.609992 
L 539.044375 248.539699 
L 541.446668 244.634624 
L 542.627183 248.539699 
L 543.794359 251.885391 
L 544.948493 249.609992 
L 547.21878 249.609992 
L 548.335482 251.885391 
L 550.533309 251.885391 
L 551.61493 254.367918 
L 553.744778 254.367918 
L 554.793456 251.885391 
L 559.882856 251.885391 
L 560.871323 249.609992 
L 561.850419 248.539699 
L 562.820323 251.885391 
L 563.781203 249.609992 
L 564.733228 251.885391 
L 565.676558 249.609992 
L 566.611351 249.609992 
L 567.53776 248.539699 
L 568.455935 246.517368 
L 572.928232 246.517368 
L 573.799916 248.539699 
L 574.664305 249.609992 
L 576.371682 249.609992 
L 577.214902 246.517368 
L 578.051295 244.634624 
L 578.88097 243.739823 
L 582.932231 243.739823 
L 583.72376 242.033706 
L 584.509269 241.219049 
L 586.06259 241.219049 
L 586.830578 239.659255 
L 589.100866 239.659255 
L 589.846674 238.183815 
L 590.587135 237.474971 
L 591.322327 237.474971 
L 592.052322 236.110238 
L 592.777195 236.110238 
L 593.497016 237.474971 
L 594.211856 236.110238 
L 594.921783 236.110238 
L 595.626863 234.810517 
L 597.022749 237.474971 
L 597.71368 238.183815 
L 598.400021 237.474971 
L 600.432099 237.474971 
L 601.10067 238.183815 
L 601.764942 238.183815 
L 602.42497 237.474971 
L 603.080806 237.474971 
L 603.732505 238.183815 
L 604.380118 238.183815 
L 605.023696 239.659255 
L 605.663289 237.474971 
L 606.298946 237.474971 
L 606.930715 236.110238 
L 607.558644 237.474971 
L 608.182778 238.183815 
L 608.803164 238.183815 
L 609.419846 237.474971 
L 611.850404 237.474971 
L 612.449211 238.183815 
L 613.044566 238.183815 
L 614.225081 241.219049 
L 614.810318 239.659255 
L 615.392257 241.219049 
L 615.970936 239.659255 
L 616.546391 241.219049 
L 618.253768 241.219049 
L 619.376539 238.183815 
L 619.933381 237.474971 
L 620.487237 237.474971 
L 621.038139 236.110238 
L 621.586119 234.183156 
L 622.131207 234.183156 
L 622.673434 234.810517 
L 623.212829 234.183156 
L 623.749422 232.970113 
L 624.283242 234.183156 
L 624.814317 232.970113 
L 625.342676 232.383231 
L 625.868346 232.383231 
L 626.391354 231.246026 
L 626.911728 231.246026 
L 627.429493 229.624421 
L 628.457302 229.624421 
L 628.967396 230.154321 
L 629.474984 232.383231 
L 629.98009 232.970113 
L 630.982952 232.970113 
L 631.480755 234.183156 
L 631.97617 234.183156 
L 632.469221 232.383231 
L 632.95993 232.383231 
L 633.448318 231.246026 
L 633.934408 232.383231 
L 634.418221 232.970113 
L 634.899779 232.970113 
L 635.379102 234.810517 
L 636.331126 234.810517 
L 636.803868 236.110238 
L 639.135659 236.110238 
L 639.595766 238.183815 
L 640.053833 239.659255 
L 640.509878 238.183815 
L 641.415971 238.183815 
L 641.866054 237.474971 
L 642.314184 237.474971 
L 642.760379 236.110238 
L 643.647028 236.110238 
L 644.087514 234.810517 
L 644.52613 234.183156 
L 644.962892 232.970113 
L 645.397814 232.970113 
L 645.830913 232.383231 
L 646.262204 232.383231 
L 646.691701 232.970113 
L 647.11942 232.383231 
L 647.545375 232.970113 
L 647.96958 234.183156 
L 648.812801 234.183156 
L 649.231844 234.810517 
L 649.649194 234.183156 
L 650.064864 234.810517 
L 650.478868 234.810517 
L 650.89122 234.183156 
L 652.524359 234.183156 
L 652.928641 232.970113 
L 653.331347 232.383231 
L 653.732489 232.383231 
L 654.13208 231.246026 
L 654.53013 231.246026 
L 654.926652 230.154321 
L 655.321658 231.246026 
L 655.715159 231.246026 
L 656.107167 229.624421 
L 656.497693 230.154321 
L 656.886748 230.154321 
L 657.274343 228.594526 
L 658.045196 228.594526 
L 658.428477 227.60209 
L 659.190797 227.60209 
L 659.947533 229.624421 
L 660.323831 228.594526 
L 660.698764 228.594526 
L 661.072341 227.60209 
L 661.444572 228.594526 
L 661.815467 228.594526 
L 662.185034 227.60209 
L 662.553283 227.119087 
L 662.920225 228.594526 
L 663.285868 228.594526 
L 663.65022 227.60209 
L 664.013293 228.594526 
L 664.375093 228.594526 
L 664.735631 229.624421 
L 665.094914 229.624421 
L 665.452953 230.154321 
L 665.809754 231.246026 
L 666.165327 231.246026 
L 666.519681 230.154321 
L 666.872823 229.624421 
L 667.224762 229.624421 
L 667.575505 228.594526 
L 668.27344 228.594526 
L 668.620647 229.624421 
L 669.311579 229.624421 
L 669.655319 230.154321 
L 669.99792 229.624421 
L 670.67973 229.624421 
L 671.018955 230.154321 
L 671.694082 230.154321 
L 672.029997 231.246026 
L 672.364824 231.246026 
L 672.698569 232.970113 
L 673.031239 232.383231 
L 673.362841 232.383231 
L 674.022868 230.154321 
L 674.678705 232.383231 
L 675.330403 230.154321 
L 675.654718 231.246026 
L 675.978016 230.154321 
L 676.300307 231.246026 
L 676.621594 230.154321 
L 676.941886 230.154321 
L 677.261187 231.246026 
L 677.579505 230.154321 
L 677.896844 229.624421 
L 678.528614 229.624421 
L 678.843055 227.60209 
L 679.156542 228.594526 
L 679.469081 227.60209 
L 680.091335 229.624421 
L 680.401062 230.154321 
L 681.32471 230.154321 
L 681.630767 229.624421 
L 682.240172 227.60209 
L 682.543532 227.60209 
L 682.846003 227.119087 
L 683.448302 227.119087 
L 683.748139 227.60209 
L 684.047109 227.60209 
L 684.345216 227.119087 
L 684.642465 227.119087 
L 684.938861 226.177995 
L 685.234409 227.119087 
L 685.529113 227.119087 
L 685.82298 227.60209 
L 686.116012 228.594526 
L 686.408216 227.60209 
L 686.699596 227.119087 
L 686.990155 227.60209 
L 687.568834 227.60209 
L 687.856963 228.594526 
L 688.716556 228.594526 
L 689.001505 227.60209 
L 689.28567 227.60209 
L 689.569056 228.594526 
L 689.851666 228.594526 
L 690.133505 227.119087 
L 690.414577 227.119087 
L 690.694887 227.60209 
L 690.974437 227.119087 
L 691.253233 227.119087 
L 691.531279 226.177995 
L 692.910391 226.177995 
L 693.184017 225.719345 
L 693.456921 223.958155 
L 694.271332 223.958155 
L 694.541382 224.824545 
L 694.810727 224.824545 
L 695.079372 225.719345 
L 695.34732 224.824545 
L 695.88114 224.824545 
L 696.147019 223.958155 
L 696.412216 223.958155 
L 696.676733 223.535062 
L 696.940574 222.70806 
L 697.203744 223.535062 
L 697.466244 222.70806 
L 697.72808 222.70806 
L 697.989253 221.905385 
L 698.249767 221.905385 
L 698.509626 222.70806 
L 698.768833 222.70806 
L 699.027391 221.905385 
L 699.285304 221.512731 
L 699.799205 221.512731 
L 700.310562 219.629986 
L 700.565295 219.629986 
L 700.819401 220.367571 
L 701.072883 220.743977 
L 701.325744 221.512731 
L 701.577989 221.905385 
L 701.829618 221.512731 
L 702.080636 221.905385 
L 703.078653 224.824545 
L 703.326658 224.824545 
L 703.574069 223.958155 
L 703.820888 223.958155 
L 704.067119 223.535062 
L 704.312765 222.70806 
L 704.557828 222.70806 
L 704.802311 223.535062 
L 705.289547 221.905385 
L 705.532306 223.535062 
L 705.774496 222.70806 
L 706.016119 223.535062 
L 706.257179 222.70806 
L 706.497677 222.70806 
L 706.737617 223.535062 
L 707.929025 223.535062 
L 708.165666 222.70806 
L 708.401767 223.535062 
L 708.637329 224.824545 
L 708.872355 224.824545 
L 709.106847 223.958155 
L 709.340809 223.535062 
L 709.574242 223.958155 
L 709.807148 223.958155 
L 710.271391 225.719345 
L 710.502733 223.958155 
L 710.733557 223.535062 
L 710.963867 223.535062 
L 711.422952 221.905385 
L 711.880005 221.905385 
L 712.107776 221.512731 
L 712.78809 221.512731 
L 713.013869 220.743977 
L 713.463952 220.743977 
L 713.68826 221.512731 
L 713.912083 221.512731 
L 714.135421 221.905385 
L 714.358278 221.512731 
L 714.580654 221.512731 
L 714.802553 221.905385 
L 715.244926 221.905385 
L 715.465404 222.70806 
L 715.685413 221.905385 
L 715.904954 223.535062 
L 716.124029 223.958155 
L 716.56079 223.958155 
L 716.995713 225.719345 
L 718.289599 225.719345 
L 718.50368 224.824545 
L 718.717318 224.824545 
L 718.930515 223.958155 
L 719.355594 223.958155 
L 719.567479 223.535062 
L 719.989949 223.535062 
L 720.410699 221.512731 
L 720.620433 221.512731 
L 720.829742 221.905385 
L 721.247092 223.535062 
L 721.662762 221.905385 
L 721.869972 221.905385 
L 722.076767 221.512731 
L 722.283148 221.905385 
L 722.489118 222.70806 
L 722.694678 222.70806 
L 722.89983 221.905385 
L 723.512852 221.905385 
L 723.716387 222.70806 
L 723.919522 222.70806 
L 724.122258 221.905385 
L 724.728089 221.905385 
L 724.929246 222.70806 
L 725.130011 221.905385 
L 725.330388 221.905385 
L 725.530376 221.512731 
L 726.128028 221.512731 
L 726.32648 220.743977 
L 726.722242 220.743977 
L 726.919556 220.367571 
L 727.116494 220.743977 
L 727.705065 220.743977 
L 728.095591 221.905385 
L 728.290302 221.905385 
L 728.484646 222.70806 
L 728.678625 221.905385 
L 728.872241 222.70806 
L 729.065494 221.905385 
L 729.258387 221.905385 
L 729.45092 222.70806 
L 729.643095 222.70806 
L 730.217483 220.367571 
L 730.598642 220.367571 
L 730.788695 220.743977 
L 730.9784 220.743977 
L 731.167756 220.367571 
L 731.356766 220.367571 
L 731.545431 219.629986 
L 731.733752 220.743977 
L 731.92173 220.743977 
L 732.109366 220.367571 
L 732.296663 218.911814 
L 732.48362 218.559693 
L 732.856523 218.559693 
L 733.042471 217.868796 
L 733.413365 217.868796 
L 733.598314 218.911814 
L 733.967221 217.19496 
L 734.151182 216.86418 
L 734.334816 216.86418 
L 734.518123 216.214412 
L 734.701106 216.214412 
L 734.883766 215.895239 
L 735.611191 215.895239 
L 735.79225 215.267878 
L 736.153418 215.267878 
L 736.333529 214.654617 
L 736.871987 216.214412 
L 737.050851 215.895239 
L 737.229406 215.267878 
L 737.407653 215.895239 
L 737.585592 215.895239 
L 737.763226 216.214412 
L 737.940555 216.86418 
L 738.117579 215.895239 
L 738.646841 215.895239 
L 738.82266 214.654617 
L 739.522961 214.654617 
L 739.697296 215.267878 
L 739.871338 215.267878 
L 740.391712 216.86418 
L 741.253218 216.86418 
L 741.42466 217.19496 
L 741.595818 217.868796 
L 741.937286 216.86418 
L 742.107598 216.86418 
L 742.277629 217.19496 
L 742.616854 217.19496 
L 742.954968 218.559693 
L 743.29198 218.559693 
L 743.460074 217.868796 
L 743.627895 218.559693 
L 743.795444 217.868796 
L 743.962722 217.868796 
L 744.129729 217.19496 
L 744.296467 217.19496 
L 744.462936 217.868796 
L 744.629137 217.868796 
L 744.960739 218.911814 
L 745.126142 218.911814 
L 745.29128 219.629986 
L 745.785116 219.629986 
L 745.949205 218.911814 
L 746.113034 218.911814 
L 746.276603 218.559693 
L 746.765762 218.559693 
L 746.928302 218.911814 
L 747.090586 218.559693 
L 747.252616 218.559693 
L 747.737186 216.86418 
L 748.219493 216.86418 
L 748.379763 216.214412 
L 748.539784 216.214412 
L 748.859086 217.19496 
L 749.018367 216.86418 
L 749.177403 217.19496 
L 749.653048 217.19496 
L 749.81111 216.86418 
L 749.968931 216.86418 
L 750.126512 217.19496 
L 750.75444 217.19496 
L 750.910828 216.86418 
L 751.066979 217.19496 
L 751.222894 217.868796 
L 751.689234 217.868796 
L 751.844213 217.19496 
L 751.998961 217.868796 
L 752.307762 217.868796 
L 752.461817 218.559693 
L 752.615643 218.559693 
L 752.76924 218.911814 
L 752.922609 218.911814 
L 753.07575 220.367571 
L 753.228665 220.367571 
L 753.381354 220.743977 
L 753.686056 221.905385 
L 753.83807 221.512731 
L 753.989862 220.743977 
L 754.14143 221.512731 
L 754.292777 221.512731 
L 754.443902 220.743977 
L 754.594806 221.512731 
L 754.74549 221.512731 
L 754.895955 221.905385 
L 755.0462 222.70806 
L 755.196228 221.905385 
L 755.346038 222.70806 
L 755.495631 221.905385 
L 755.645007 221.905385 
L 755.794168 221.512731 
L 755.943114 220.367571 
L 756.091846 220.367571 
L 756.536759 218.559693 
L 756.684639 218.559693 
L 757.27405 215.895239 
L 757.567498 215.895239 
L 757.713911 214.654617 
L 757.860116 215.267878 
L 758.006114 215.267878 
L 758.297494 216.86418 
L 758.442876 216.214412 
L 758.877798 216.214412 
L 759.022367 215.895239 
L 759.166733 215.267878 
L 759.310897 215.895239 
L 759.454861 215.895239 
L 759.598624 216.214412 
L 759.742188 215.895239 
L 760.028718 215.895239 
L 760.171685 216.214412 
L 760.314455 216.86418 
L 760.599404 216.86418 
L 760.741584 217.19496 
L 760.883569 217.19496 
L 761.025359 217.868796 
L 761.166954 217.19496 
L 761.308356 217.868796 
L 761.449564 217.868796 
L 761.59058 218.559693 
L 761.872035 218.559693 
L 762.012476 218.911814 
L 762.152725 217.868796 
L 762.292785 218.559693 
L 762.432655 217.868796 
L 762.572336 218.559693 
L 762.711828 218.559693 
L 762.851132 217.19496 
L 762.990248 217.19496 
L 763.129178 216.86418 
L 763.26792 217.19496 
L 763.406477 216.86418 
L 763.544848 216.214412 
L 763.683034 216.214412 
L 763.958852 214.654617 
L 764.096486 214.654617 
L 764.233936 215.267878 
L 764.371204 215.267878 
L 764.508289 214.654617 
L 764.918458 216.214412 
L 765.054819 216.214412 
L 765.191001 215.895239 
L 765.327004 216.214412 
L 765.462827 215.895239 
L 765.86923 215.895239 
L 766.004343 216.214412 
L 766.13928 216.86418 
L 766.67727 216.86418 
L 766.811331 217.19496 
L 766.945219 216.86418 
L 767.345842 216.86418 
L 767.479039 216.214412 
L 767.877601 216.214412 
L 768.010114 215.895239 
L 768.670141 213.179178 
L 768.801642 213.179178 
L 768.932976 212.893427 
L 769.064143 212.893427 
L 769.195143 212.330748 
L 769.71749 212.330748 
L 769.847666 212.893427 
L 769.977677 212.330748 
L 770.107525 212.893427 
L 770.496092 212.893427 
L 770.62529 212.330748 
L 770.754327 212.330748 
L 770.883202 212.0537 
L 771.011918 211.507902 
L 771.268868 212.330748 
L 771.397104 212.0537 
L 771.52518 212.330748 
L 771.653099 212.893427 
L 771.780859 212.330748 
L 771.908461 212.330748 
L 772.035906 213.179178 
L 772.163193 213.179178 
L 772.290324 213.759816 
L 772.417299 213.759816 
L 772.544118 213.179178 
L 772.797289 213.179178 
L 772.923643 213.759816 
L 773.049842 213.179178 
L 773.928944 213.179178 
L 774.053922 212.330748 
L 774.303424 212.330748 
L 774.42795 212.893427 
L 774.800628 212.893427 
L 774.924556 212.330748 
L 775.048336 212.330748 
L 775.171967 212.893427 
L 775.295451 212.893427 
L 775.418787 213.179178 
L 775.541976 213.179178 
L 775.910663 214.654617 
L 776.033267 213.759816 
L 776.27804 214.654617 
L 776.522234 214.654617 
L 776.644115 215.267878 
L 776.765852 215.267878 
L 776.887445 214.654617 
L 777.008896 215.267878 
L 777.130205 215.267878 
L 777.25137 214.654617 
L 777.372394 214.654617 
L 777.493277 213.759816 
L 777.855077 213.759816 
L 777.975396 213.179178 
L 778.095575 213.179178 
L 778.335515 212.893427 
L 778.574898 213.179178 
L 778.694382 213.179178 
L 778.813728 213.759816 
L 778.932937 213.759816 
L 779.289738 212.330748 
L 779.408399 212.0537 
L 779.645311 212.330748 
L 779.999665 211.507902 
L 780.117513 212.0537 
L 780.470253 210.709143 
L 780.704746 210.972807 
L 780.821793 210.972807 
L 781.055489 210.709143 
L 781.17214 210.972807 
L 781.405046 212.330748 
L 781.521303 212.893427 
L 781.753424 212.893427 
L 782.216108 213.759816 
L 782.561765 213.759816 
L 782.676728 214.353078 
L 782.791563 213.759816 
L 783.02085 213.759816 
L 783.24963 214.654617 
L 783.36383 214.654617 
L 783.477904 214.353078 
L 783.591852 213.179178 
L 783.705674 213.759816 
L 783.819372 213.759816 
L 783.932944 213.179178 
L 784.272913 214.654617 
L 784.498939 214.654617 
L 784.837054 213.759816 
L 785.061851 214.353078 
L 785.174066 214.353078 
L 785.286159 214.654617 
L 785.733319 213.759816 
L 786.067424 213.759816 
L 786.289562 212.893427 
L 786.621875 213.759816 
L 786.842825 212.893427 
L 786.953122 212.893427 
L 787.173365 212.330748 
L 787.39314 212.330748 
L 787.502852 212.0537 
L 788.049671 213.179178 
L 788.267591 212.893427 
L 788.810388 212.893427 
L 788.918605 212.330748 
L 789.134702 212.893427 
L 789.350347 212.0537 
L 789.458001 212.330748 
L 789.672972 212.0537 
L 789.780291 212.330748 
L 789.887498 212.0537 
L 790.101578 212.893427 
L 790.208453 212.330748 
L 790.42187 212.893427 
L 790.741171 211.507902 
L 790.847386 211.507902 
L 791.059489 212.330748 
L 791.165377 212.330748 
L 791.376828 212.893427 
L 791.587848 212.330748 
L 791.798437 212.0537 
L 792.008598 212.330748 
L 792.218332 212.330748 
L 792.42764 212.893427 
L 792.84499 210.709143 
L 792.949065 210.709143 
L 793.053035 210.189337 
L 793.260661 210.709143 
L 793.364317 210.709143 
L 793.46787 210.189337 
L 793.674665 210.972807 
L 793.881046 210.709143 
L 794.087016 210.709143 
L 794.395203 209.679248 
L 794.497728 209.679248 
L 794.906814 208.931558 
L 795.110751 209.427735 
L 795.212568 209.427735 
L 795.314286 209.679248 
L 795.51742 209.427735 
L 795.821375 210.189337 
L 796.023516 209.679248 
L 796.72791 209.679248 
L 797.028329 210.972807 
L 797.228124 210.189337 
L 797.327876 210.709143 
L 797.427533 210.189337 
L 797.626558 210.709143 
L 797.725927 210.709143 
L 798.023461 208.931558 
L 798.221342 209.427735 
L 798.812721 209.427735 
L 799.009098 209.679248 
L 799.107146 209.679248 
L 799.205101 210.189337 
L 799.302964 209.427735 
L 799.498411 209.679248 
L 799.8882 209.679248 
L 800.082544 209.427735 
L 800.276524 209.679248 
L 800.373377 209.427735 
L 800.566811 209.679248 
L 800.952597 209.679248 
L 801.624273 208.203809 
L 801.815382 208.203809 
L 802.006137 207.729206 
L 802.196541 207.032428 
L 802.386594 207.494965 
L 802.481489 207.494965 
L 802.576298 207.729206 
L 802.765655 207.494965 
L 802.954665 207.494965 
L 803.143329 207.729206 
L 803.33165 207.729206 
L 803.425682 207.494965 
L 803.613489 208.203809 
L 803.988082 206.577602 
L 804.081519 206.577602 
L 804.174871 206.353 
L 804.361322 206.577602 
L 804.454421 207.494965 
L 804.640369 206.577602 
L 804.733217 207.032428 
L 804.825983 206.353 
L 805.011263 207.032428 
L 805.288563 205.472634 
L 805.38083 205.256909 
L 805.473016 205.909267 
L 805.657141 205.472634 
L 805.74908 205.472634 
L 805.840938 205.256909 
L 806.299005 206.577602 
L 806.390375 207.032428 
L 806.572873 206.577602 
L 807.118441 206.577602 
L 807.299658 206.353 
L 807.751316 206.353 
L 807.931428 207.494965 
L 808.021366 207.494965 
L 808.201007 208.203809 
L 808.380337 209.427735 
L 808.648749 208.444242 
L 808.738065 208.444242 
L 808.916466 208.203809 
L 809.094559 208.444242 
L 809.272346 207.729206 
L 809.449827 208.203809 
L 809.715478 208.931558 
L 809.803876 208.444242 
L 809.980447 209.679248 
L 810.06862 209.679248 
L 810.244739 210.189337 
L 810.332686 210.189337 
L 810.420558 209.679248 
L 810.596079 210.189337 
L 810.858802 210.189337 
L 811.033581 209.427735 
L 811.120859 209.427735 
L 811.208064 208.931558 
L 811.382252 209.679248 
L 811.556148 208.931558 
L 811.642986 208.931558 
L 811.816444 208.203809 
L 811.903063 208.203809 
L 811.98961 208.444242 
L 812.162487 207.494965 
L 812.335075 208.203809 
L 812.507376 207.729206 
L 812.679389 207.494965 
L 812.765288 207.729206 
L 812.851116 207.032428 
L 812.936873 207.494965 
L 813.108173 207.032428 
L 813.193716 207.494965 
L 813.535184 205.909267 
L 813.620375 205.909267 
L 813.705496 205.256909 
L 813.875527 205.472634 
L 813.960438 205.472634 
L 814.045279 205.909267 
L 814.214752 205.472634 
L 814.72151 205.472634 
L 814.805728 205.909267 
L 814.97396 205.472634 
L 815.141917 205.256909 
L 815.225794 205.256909 
L 815.393343 204.83051 
L 815.477015 204.619784 
L 815.644158 204.83051 
L 815.727628 204.83051 
L 815.894365 205.256909 
L 815.977633 205.256909 
L 816.143968 204.619784 
L 816.227035 204.619784 
L 816.310036 204.20315 
L 816.475836 205.256909 
L 816.641372 204.83051 
L 816.889178 204.20315 
L 817.054053 204.83051 
L 817.218665 204.20315 
L 817.465092 203.188573 
L 817.547103 203.188573 
L 817.710932 203.589889 
L 817.792749 203.589889 
L 817.956189 202.597453 
L 818.037812 202.793074 
L 818.11937 203.188573 
L 818.200865 202.793074 
L 818.282295 203.188573 
L 818.5262 202.210369 
L 818.688485 202.018866 
L 818.850514 202.018866 
L 819.01229 202.210369 
L 819.335084 200.714708 
L 819.415625 200.714708 
L 819.576519 200.174315 
L 819.737163 200.174315 
L 819.977661 199.470044 
L 820.057703 199.819907 
L 820.217601 199.470044 
L 820.377251 199.470044 
L 820.456984 200.174315 
L 820.536656 199.819907 
L 820.695814 200.174315 
L 820.854728 199.819907 
L 821.013398 199.819907 
L 821.171824 200.174315 
L 821.487949 200.174315 
L 821.80311 201.639847 
L 822.038852 201.639847 
L 822.117313 201.266019 
L 822.352339 202.210369 
L 822.508726 202.210369 
L 822.586831 202.597453 
L 822.664877 202.210369 
L 822.820793 202.793074 
L 823.209555 201.639847 
L 823.364651 201.266019 
L 823.442112 201.081008 
L 823.596859 201.266019 
L 823.674146 201.266019 
L 823.751375 201.639847 
L 823.982717 200.714708 
L 824.059715 201.081008 
L 824.213541 200.174315 
L 824.290368 200.174315 
L 824.367138 200.353259 
L 824.826563 199.470044 
L 824.979252 199.819907 
L 825.055512 199.470044 
L 825.207863 199.819907 
L 825.359989 199.819907 
L 825.511892 199.470044 
L 825.663572 199.470044 
L 825.739329 199.29678 
L 825.890675 199.470044 
L 826.0418 198.953518 
L 826.192704 199.29678 
L 826.644099 199.29678 
L 826.71914 199.470044 
L 826.794126 199.29678 
L 826.943936 199.819907 
L 827.168245 199.819907 
L 827.317513 199.470044 
L 827.392067 199.470044 
L 827.541013 199.29678 
L 827.615405 199.29678 
L 827.689744 199.470044 
L 827.838262 198.953518 
L 827.91244 199.470044 
L 827.986566 199.29678 
L 828.060638 199.29678 
L 828.282537 198.783492 
L 828.356398 198.783492 
L 828.503961 198.953518 
L 828.577663 198.953518 
L 828.72491 198.783492 
L 828.871948 198.953518 
L 829.018777 198.953518 
L 829.238629 199.470044 
L 829.311809 199.470044 
L 829.604013 200.353259 
L 829.676935 200.353259 
L 829.749805 200.174315 
L 830.185952 201.081008 
L 830.258464 201.081008 
L 830.330926 201.266019 
L 830.475697 200.714708 
L 830.692473 200.714708 
L 830.836738 201.266019 
L 831.052759 200.714708 
L 831.411793 202.018866 
L 831.48345 202.018866 
L 831.769583 201.081008 
L 831.840993 201.081008 
L 832.054926 200.353259 
L 832.126139 200.353259 
L 832.268417 200.714708 
L 832.410499 200.714708 
L 832.552386 201.081008 
L 832.694079 200.714708 
L 832.835578 201.081008 
L 833.117995 200.174315 
L 833.188478 200.174315 
L 833.258914 199.470044 
L 833.329302 199.819907 
L 833.540178 199.29678 
L 833.610374 199.29678 
L 833.750624 198.953518 
L 833.890683 198.953518 
L 834.170234 199.819907 
L 834.309726 199.819907 
L 834.44903 199.470044 
L 834.518612 199.470044 
L 834.588147 199.29678 
L 834.657635 199.470044 
L 834.727076 198.953518 
L 834.93512 199.470044 
L 835.211862 199.470044 
L 835.280932 198.953518 
L 835.418933 199.29678 
L 835.556751 199.29678 
L 835.62559 198.953518 
L 835.763132 199.29678 
L 835.900491 199.29678 
L 836.106188 199.819907 
L 836.379814 198.953518 
L 836.516356 198.783492 
L 836.652718 199.29678 
L 836.7889 199.29678 
L 836.992836 198.783492 
L 837.128571 198.783492 
L 837.467129 199.819907 
L 837.534707 199.470044 
L 837.737178 200.174315 
L 837.804581 199.819907 
L 837.939253 200.174315 
L 838.073751 200.174315 
L 838.140934 199.819907 
L 838.208073 200.174315 
L 838.40923 199.470044 
L 838.810372 201.081008 
L 839.076937 201.081008 
L 839.143471 201.266019 
L 839.409179 200.714708 
L 839.541777 201.081008 
L 839.674205 200.353259 
L 839.938553 201.266019 
L 840.004535 201.266019 
L 840.136371 201.639847 
L 840.202226 201.639847 
L 840.465228 202.597453 
L 840.530874 202.793074 
L 840.793042 202.210369 
L 840.85848 202.210369 
L 840.989232 202.018866 
L 841.054545 202.018866 
L 841.054545 202.018866 
" style="fill:none;stroke:#0000ff;stroke-linecap:square;stroke-width:1.5;"/>
   </g>
   <g id="line2d_89">
    <path clip-path="url(#p4d57a1c6b8)" d="M 151.697393 358.238125 
L 151.743353 318.534545 
L 193.625439 299.619267 
L 223.341251 318.534545 
L 223.356047 358.238125 
M 265.20213 358.238125 
L 265.223337 288.554539 
L 294.93915 288.554539 
L 307.105423 269.639261 
L 317.988525 265.432647 
L 327.833488 235.45264 
L 336.821235 230.694714 
L 345.089161 226.644484 
L 352.744065 219.268537 
L 359.87061 219.268537 
L 366.537048 234.183156 
L 372.799204 258.574533 
L 378.703321 258.574533 
L 384.288137 232.970113 
L 389.586423 255.699352 
L 394.626151 238.911565 
L 399.431386 222.303771 
L 404.022984 214.654617 
L 408.419134 225.719345 
L 412.635798 226.644484 
L 416.68706 231.808705 
L 420.585407 214.054835 
L 424.341964 221.512731 
L 427.966684 236.784074 
L 431.468509 248.539699 
L 434.855498 230.694714 
L 438.134946 224.824545 
L 441.313472 225.719345 
L 444.397102 228.093797 
L 447.391339 293.529908 
L 450.301219 255.699352 
L 453.131367 210.972807 
L 455.886035 212.610637 
L 458.569145 240.428009 
L 461.184321 238.183815 
L 463.734918 240.428009 
L 466.224049 210.189337 
L 468.654607 217.868796 
L 471.029285 213.179178 
L 473.350594 196.821763 
L 475.620882 267.454977 
L 477.842343 231.808705 
L 480.017032 230.694714 
L 482.146879 267.454977 
L 484.233696 214.353078 
L 486.279188 189.050198 
L 488.284958 175.564916 
L 490.252521 192.190322 
L 492.183305 212.0537 
L 494.07866 203.388493 
L 495.939862 219.996287 
L 497.768121 193.555055 
L 499.564582 196.664478 
L 501.330334 190.263241 
L 503.066407 192.057529 
L 504.773784 185.081916 
L 506.453397 195.4378 
L 508.106135 184.979519 
L 509.732845 184.979519 
L 511.334333 190.890601 
L 512.91137 201.266019 
L 514.464692 227.60209 
L 515.995 239.659255 
L 517.502968 207.032428 
L 518.989237 185.495394 
L 520.454424 174.500191 
L 521.899118 156.041203 
L 523.323884 152.901848 
L 524.729266 154.193875 
L 526.115782 152.650624 
L 527.483934 147.664838 
L 528.8342 147.847723 
L 530.167044 159.468578 
L 531.482908 172.423218 
L 532.78222 165.40786 
L 534.065391 156.254399 
L 535.332817 154.493209 
L 536.58488 154.426406 
L 537.821948 153.669701 
L 539.044375 152.185724 
L 540.252505 147.586832 
L 541.446668 143.584993 
L 542.627183 144.335174 
L 543.794359 145.488567 
L 544.948493 143.991624 
L 546.089874 144.988275 
L 547.21878 144.220176 
L 549.440241 144.358232 
L 550.533309 145.998203 
L 551.61493 139.471433 
L 552.685343 138.78584 
L 553.744778 141.931928 
L 554.793456 139.069413 
L 555.831595 141.285388 
L 556.859404 140.613562 
L 557.877086 141.347291 
L 558.88484 141.347291 
L 559.882856 141.763607 
L 560.871323 142.35733 
L 561.850419 144.613163 
L 562.820323 145.225366 
L 563.781203 145.344688 
L 564.733228 148.190653 
L 565.676558 147.97911 
L 566.611351 142.594159 
L 567.53776 149.63514 
L 568.455935 154.493209 
L 569.366019 155.724499 
L 570.268155 147.97911 
L 572.049129 141.141491 
L 572.928232 136.63485 
L 573.799916 141.388638 
L 574.664305 138.338163 
L 575.521521 134.608795 
L 576.371682 132.363752 
L 577.214902 132.707767 
L 578.051295 132.009345 
L 578.88097 129.730425 
L 579.704033 130.622077 
L 580.52059 133.117223 
L 581.330743 134.351804 
L 582.134591 132.722823 
L 582.932231 132.038703 
L 583.72376 130.705871 
L 584.509269 128.272039 
L 585.288849 122.785475 
L 586.06259 123.517184 
L 586.830578 129.542132 
L 587.592899 131.980017 
L 588.349634 129.15618 
L 589.100866 136.63485 
L 589.846674 157.197995 
L 590.587135 167.426353 
L 591.322327 223.118428 
L 592.052322 222.70806 
L 592.777195 213.467953 
L 593.497016 193.836388 
L 594.211856 188.579686 
L 594.921783 227.119087 
L 595.626863 189.528964 
L 596.327164 234.183156 
L 597.022749 195.739339 
L 597.71368 231.808705 
L 598.400021 207.965476 
L 599.081832 172.878587 
L 599.759172 180.554766 
L 600.432099 207.262716 
L 601.10067 165.50782 
L 601.764942 148.484229 
L 602.42497 161.901464 
L 603.080806 144.358232 
L 603.732505 148.645703 
L 604.380118 160.952936 
L 605.023696 167.105931 
L 605.663289 208.686812 
L 606.298946 179.198513 
L 606.930715 223.958155 
L 607.558644 198.279682 
L 608.182778 217.868796 
L 608.803164 184.979519 
L 609.419846 176.522522 
L 610.032868 227.60209 
L 610.642274 245.559762 
L 611.248105 245.559762 
L 611.850404 194.698216 
L 612.449211 192.728053 
L 613.044566 230.694714 
L 613.63651 198.953518 
L 614.225081 154.160818 
L 614.810318 156.940723 
L 615.970936 130.165752 
L 617.118658 140.63368 
L 617.687772 154.160818 
L 618.253768 154.226973 
L 618.816679 150.286594 
L 619.376539 161.294053 
L 619.933381 230.694714 
L 620.487237 205.042877 
L 621.038139 236.110238 
L 621.586119 208.444242 
L 622.131207 163.903553 
L 622.673434 153.347132 
L 623.212829 150.895296 
L 623.749422 135.779326 
L 624.283242 135.212522 
L 624.814317 132.557662 
L 625.342676 132.393495 
L 625.868346 134.351804 
L 626.391354 132.75296 
L 626.911728 136.22085 
L 627.944676 150.286594 
L 628.457302 173.542585 
L 628.967396 178.464236 
L 629.474984 200.897244 
L 629.98009 207.262716 
L 630.482738 191.14564 
L 631.480755 152.807368 
L 631.97617 168.299675 
L 632.469221 210.709143 
L 632.95993 201.081008 
L 633.448318 185.287872 
L 633.934408 222.70806 
L 634.418221 186.557356 
L 634.899779 204.619784 
L 635.379102 182.537015 
L 635.856211 261.788711 
L 636.331126 160.118346 
L 636.803868 158.755617 
L 637.274456 177.437322 
L 637.74291 181.259036 
L 638.20925 173.677346 
L 638.673493 183.682175 
L 639.135659 148.190653 
L 640.963918 128.542038 
L 641.415971 133.301194 
L 641.866054 126.766315 
L 642.314184 123.2498 
L 642.760379 125.076346 
L 643.204655 129.328518 
L 643.647028 123.939605 
L 644.52613 129.063831 
L 644.962892 132.813333 
L 645.397814 127.378476 
L 645.830913 127.677263 
L 646.262204 126.717931 
L 646.691701 126.742112 
L 647.11942 124.692147 
L 647.545375 118.334809 
L 647.96958 123.722162 
L 648.392051 120.306588 
L 648.812801 117.946472 
L 649.231844 122.328919 
L 649.649194 119.385908 
L 650.064864 120.536876 
L 650.478868 119.701821 
L 650.89122 114.095198 
L 651.301932 112.904001 
L 651.711017 111.332876 
L 652.118489 112.527795 
L 652.524359 109.886409 
L 652.928641 110.22769 
L 653.331347 110.240902 
L 653.732489 112.59974 
L 654.13208 112.976946 
L 654.53013 109.38236 
L 654.926652 111.154651 
L 655.321658 120.363978 
L 656.497693 107.335344 
L 656.886748 112.001211 
L 657.274343 114.742033 
L 657.660489 106.620103 
L 658.045196 111.250474 
L 658.428477 111.291644 
L 658.81034 120.383135 
L 659.190797 113.898055 
L 659.569858 104.027603 
L 659.947533 103.985539 
L 660.323831 107.948065 
L 660.698764 104.763602 
L 661.072341 107.814741 
L 661.444572 100.442931 
L 661.815467 101.863566 
L 662.920225 114.820068 
L 663.285868 111.100046 
L 663.65022 111.90272 
L 664.013293 112.427388 
L 664.375093 115.356711 
L 664.735631 106.805901 
L 665.094914 103.891132 
L 665.452953 104.709597 
L 665.809754 104.4198 
L 666.519681 99.437314 
L 666.872823 99.44621 
L 667.224762 97.889876 
L 667.575505 97.381966 
L 667.925062 98.553419 
L 668.27344 98.934968 
L 668.966691 98.083864 
L 669.311579 97.90669 
L 669.655319 95.663603 
L 670.339388 100.498358 
L 670.67973 101.343577 
L 671.35707 107.145918 
L 671.694082 114.263131 
L 672.029997 113.687329 
L 672.364824 106.724459 
L 672.698569 113.717333 
L 673.031239 115.468518 
L 673.362841 113.507992 
L 673.693381 118.175275 
L 674.022868 115.08707 
L 674.678705 112.298835 
L 675.330403 105.50889 
L 675.654718 111.888679 
L 675.978016 112.128367 
L 676.300307 123.592523 
L 676.621594 113.702327 
L 676.941886 122.062683 
L 677.261187 120.154135 
L 677.579505 122.267249 
L 677.896844 116.495951 
L 678.213212 118.764847 
L 678.528614 117.85898 
L 678.843055 112.991559 
L 679.156542 117.374137 
L 679.469081 111.456949 
L 679.780677 113.702327 
L 680.091335 109.12744 
L 680.401062 115.293026 
L 680.709864 116.165572 
L 681.017744 112.831249 
L 681.630767 126.215004 
L 681.935919 115.213628 
L 682.543532 118.069436 
L 682.846003 118.406013 
L 683.147592 135.982219 
L 683.448302 136.084234 
L 683.748139 139.413637 
L 684.047109 121.239635 
L 684.345216 133.270446 
L 684.642465 131.342666 
L 684.938861 134.851942 
L 685.234409 123.484959 
L 685.529113 134.144767 
L 685.82298 134.176517 
L 686.116012 137.625998 
L 686.408216 146.642659 
L 686.699596 149.888208 
L 686.990155 213.467953 
L 687.568834 140.075929 
L 687.856963 142.63744 
L 688.144289 246.517368 
L 688.430819 142.594159 
L 688.716556 176.522522 
L 689.001505 193.978149 
L 689.28567 179.198513 
L 689.569056 141.347291 
L 689.851666 143.742408 
L 690.133505 144.335174 
L 690.414577 165.557937 
L 690.694887 172.747704 
L 690.974437 151.940978 
L 691.253233 151.940978 
L 691.531279 152.557008 
L 691.808579 164.18831 
L 692.085135 168.078711 
L 692.360954 251.885391 
L 692.636038 219.268537 
L 692.910391 253.098434 
L 693.456921 153.669701 
L 693.729105 299.619267 
L 694.271332 162.165979 
L 694.541382 217.19496 
L 694.810727 174.292142 
L 695.079372 162.165979 
L 695.34732 208.686812 
L 695.614575 198.279682 
L 695.88114 194.2639 
L 696.147019 144.659771 
L 696.412216 154.426406 
L 696.676733 307.469817 
L 696.940574 152.933414 
L 697.203744 177.128969 
L 697.466244 179.868214 
L 697.72808 143.810151 
L 697.989253 175.637397 
L 698.768833 125.674611 
L 699.027391 133.860669 
L 699.285304 130.248154 
L 699.799205 167.105931 
L 700.0552 165.457794 
L 700.310562 144.520185 
L 700.565295 167.750583 
L 700.819401 168.133784 
L 701.072883 199.644415 
L 701.325744 190.263241 
L 701.577989 139.490725 
L 701.829618 153.123582 
L 702.080636 151.219642 
L 702.331046 159.548958 
L 702.58085 157.383257 
L 703.078653 124.692147 
L 703.326658 141.03917 
L 703.574069 139.645556 
L 703.820888 136.084234 
L 704.067119 118.548981 
L 704.312765 127.652239 
L 704.557828 126.143908 
L 704.802311 115.709659 
L 705.046216 114.432103 
L 705.289547 111.319125 
L 705.532306 113.123425 
L 706.016119 100.767858 
L 706.257179 99.949082 
L 706.497677 100.85204 
L 706.737617 106.138318 
L 706.977 107.960218 
L 707.21583 116.363319 
L 707.454109 118.602788 
L 707.69184 112.773188 
L 707.929025 113.56764 
L 708.165666 111.832587 
L 708.401767 103.964532 
L 708.637329 108.937801 
L 708.872355 110.896243 
L 709.340809 104.9807 
L 709.574242 103.198402 
L 709.807148 110.22769 
L 710.03953 113.56764 
L 710.271391 106.320853 
L 710.502733 104.601906 
L 710.733557 112.029417 
L 711.422952 116.446138 
L 711.651731 116.629231 
L 711.880005 122.995553 
L 712.107776 116.880898 
L 712.335046 118.069436 
L 712.561816 123.420623 
L 712.78809 122.123892 
L 713.013869 114.726452 
L 713.239156 111.664998 
L 713.68826 99.786432 
L 713.912083 101.980477 
L 714.580654 87.240101 
L 714.802553 88.065965 
L 715.023977 90.117178 
L 715.244926 90.250249 
L 715.465404 91.758527 
L 715.685413 94.348035 
L 716.124029 92.875315 
L 716.34264 92.980421 
L 716.56079 97.31605 
L 716.77848 93.655661 
L 716.995713 92.680194 
L 717.212489 95.881356 
L 717.428812 96.907647 
L 717.644682 100.158333 
L 718.289599 103.703291 
L 718.50368 104.785235 
L 718.717318 104.774416 
L 718.930515 102.522823 
L 719.143273 97.722304 
L 719.355594 97.291373 
L 719.77893 103.975034 
L 719.989949 99.517484 
L 720.200539 100.609553 
L 720.410699 98.066941 
L 721.038628 104.709597 
L 721.247092 107.454406 
L 721.455136 99.083825 
L 721.662762 98.117743 
L 721.869972 100.711881 
L 722.076767 100.814594 
L 722.283148 104.4198 
L 722.489118 98.262197 
L 722.694678 98.544809 
L 722.89983 95.493722 
L 723.104575 98.760875 
L 723.919522 88.366657 
L 724.122258 91.266221 
L 724.324597 89.903096 
L 724.52654 91.160934 
L 724.929246 91.003762 
L 725.130011 92.500251 
L 725.530376 91.114999 
L 725.729978 93.419205 
L 725.929195 91.003762 
L 726.32648 97.78921 
L 726.722242 107.347226 
L 727.116494 92.603919 
L 727.509248 84.939228 
L 727.900513 85.044004 
L 728.095591 80.628982 
L 728.290302 81.138229 
L 728.484646 85.967514 
L 728.678625 83.762356 
L 728.872241 86.560299 
L 729.065494 87.18895 
L 729.258387 95.764486 
L 729.643095 102.99498 
L 730.026375 124.224897 
L 730.217483 119.256882 
L 730.408239 133.362795 
L 730.788695 105.732023 
L 730.9784 102.463132 
L 731.167756 113.418764 
L 731.356766 132.453078 
L 731.545431 122.246723 
L 731.733752 100.964689 
L 731.92173 108.253519 
L 732.109366 103.259726 
L 732.296663 103.025397 
L 732.48362 91.187218 
L 732.67024 92.51405 
L 732.856523 91.859411 
L 733.042471 99.375122 
L 733.228084 87.890623 
L 733.598314 95.975213 
L 733.967221 104.666469 
L 734.151182 104.04866 
L 734.518123 92.212056 
L 734.883766 100.814594 
L 735.248119 117.684831 
L 735.429814 125.791181 
L 735.611191 119.534118 
L 735.972992 122.890312 
L 736.153418 121.458028 
L 736.333529 118.370387 
L 736.513327 119.201772 
L 736.692813 140.835671 
L 736.871987 208.203809 
L 737.050851 185.081916 
L 737.229406 138.654507 
L 737.407653 134.754423 
L 737.585592 186.127599 
L 737.763226 148.45741 
L 737.940555 195.4378 
L 738.117579 128.658575 
L 738.294301 123.463497 
L 738.470721 130.944695 
L 738.646841 132.512791 
L 738.998181 97.460448 
L 739.173404 90.336138 
L 739.34833 90.221679 
L 739.697296 86.624185 
L 739.871338 91.026627 
L 740.045088 98.270718 
L 740.218545 116.181996 
L 740.391712 121.180376 
L 740.564589 121.768759 
L 740.737177 128.361742 
L 741.08149 167.968896 
L 741.253218 158.677537 
L 741.42466 122.04231 
L 741.766693 163.809291 
L 741.937286 127.777591 
L 742.107598 137.303472 
L 742.277629 186.557356 
L 742.44738 184.573727 
L 742.616854 146.919963 
L 742.954968 135.644897 
L 743.123612 114.293775 
L 743.29198 114.77322 
L 743.460074 101.205621 
L 743.627895 100.419869 
L 743.795444 109.267351 
L 743.962722 124.424168 
L 744.129729 115.261239 
L 744.296467 136.63485 
L 744.629137 112.867601 
L 744.795071 114.439809 
L 744.960739 129.784462 
L 745.126142 111.031942 
L 745.29128 124.413059 
L 745.620766 92.205232 
L 746.276603 86.671501 
L 746.439914 87.85278 
L 746.602966 85.049254 
L 747.090586 90.805319 
L 747.252616 86.97403 
L 747.414392 87.55479 
L 747.575915 87.474342 
L 747.737186 86.621404 
L 748.058974 78.477001 
L 748.219493 75.166485 
L 748.379763 76.676769 
L 748.699558 70.132701 
L 748.859086 69.396595 
L 749.018367 65.177094 
L 749.177403 67.771549 
L 749.336195 67.018322 
L 749.494743 63.962618 
L 750.440953 72.849963 
L 750.75444 68.589204 
L 750.910828 67.610363 
L 751.066979 65.59209 
L 751.222894 66.870949 
L 751.378575 64.451812 
L 751.534021 66.166807 
L 751.844213 62.160475 
L 751.998961 59.575137 
L 752.461817 64.855843 
L 752.76924 65.465006 
L 752.922609 63.262601 
L 753.07575 65.894844 
L 753.228665 65.750811 
L 753.381354 65.044356 
L 753.533817 67.756223 
L 753.686056 66.28137 
L 753.989862 68.609316 
L 754.292777 70.188984 
L 754.443902 70.421427 
L 754.594806 67.779912 
L 754.74549 71.165576 
L 754.895955 71.531003 
L 755.0462 71.330207 
L 755.346038 68.160345 
L 755.495631 68.821391 
L 755.645007 71.338147 
L 755.794168 71.69625 
L 755.943114 72.690951 
L 756.240363 65.556087 
L 756.388668 65.943024 
L 756.536759 64.527191 
L 756.684639 66.317022 
L 756.979765 63.741702 
L 757.127012 63.365577 
L 757.27405 61.553442 
L 757.420878 61.16889 
L 757.713911 62.774355 
L 757.860116 61.113146 
L 758.006114 61.028109 
L 758.297494 59.507105 
L 758.442876 59.555535 
L 758.588054 60.507359 
L 758.733028 60.402901 
L 759.022367 57.865018 
L 759.166733 59.887572 
L 759.310897 59.67854 
L 759.598624 55.336547 
L 759.742188 56.142691 
L 759.885552 55.367491 
L 760.028718 55.917917 
L 760.171685 55.530744 
L 760.599404 56.089957 
L 760.741584 57.343657 
L 760.883569 55.230721 
L 761.025359 55.364837 
L 761.166954 54.990612 
L 761.308356 55.128811 
L 761.449564 54.618868 
L 761.59058 53.099842 
L 762.012476 54.448132 
L 762.292785 56.666435 
L 762.432655 57.25251 
L 762.572336 56.494421 
L 762.711828 56.955555 
L 762.851132 55.727229 
L 762.990248 56.778921 
L 763.683034 66.509288 
L 763.821035 66.885786 
L 763.958852 68.72164 
L 764.096486 67.946313 
L 764.233936 71.099372 
L 764.371204 71.149799 
L 764.508289 72.122788 
L 764.781916 67.851102 
L 764.918458 66.268178 
L 765.054819 67.063097 
L 765.191001 65.215138 
L 765.327004 65.491914 
L 765.462827 64.840818 
L 765.86923 66.111673 
L 766.004343 66.432219 
L 766.274041 69.944918 
L 766.408625 69.559789 
L 766.543035 66.989867 
L 766.811331 67.958939 
L 767.078932 65.187233 
L 767.212473 64.743357 
L 767.345842 65.132776 
L 767.612064 61.586752 
L 767.744918 62.128723 
L 767.877601 60.680915 
L 768.010114 61.054246 
L 768.274631 60.141386 
L 768.406636 62.434154 
L 768.538473 62.751156 
L 768.670141 64.688533 
L 768.801642 64.709702 
L 768.932976 63.989297 
L 769.195143 64.738369 
L 769.325978 64.042733 
L 769.71749 59.979595 
L 769.847666 62.083429 
L 769.977677 62.218402 
L 770.237209 58.620841 
L 770.366732 59.090269 
L 770.496092 58.988057 
L 770.62529 56.736103 
L 770.754327 57.702646 
L 770.883202 55.04913 
L 771.140473 54.667108 
L 771.268868 52.420486 
L 771.397104 52.210083 
L 771.52518 50.36324 
L 771.653099 51.369807 
L 771.908461 49.068229 
L 772.035906 49.010705 
L 772.163193 48.404997 
L 772.417299 48.554135 
L 772.544118 48.211717 
L 772.923643 46.175147 
L 773.049842 47.147261 
L 773.301778 45.518647 
L 773.427517 44.19711 
L 773.803815 44.766974 
L 774.178749 43.60784 
L 774.303424 44.378057 
L 774.42795 44.410009 
L 774.552326 43.889846 
L 774.676552 45.251734 
L 774.800628 45.251734 
L 774.924556 44.872753 
L 775.048336 45.392535 
L 775.171967 44.306006 
L 775.418787 46.827122 
L 775.541976 46.680028 
L 775.665018 45.568637 
L 775.787914 46.441723 
L 775.910663 46.21054 
L 776.033267 46.256113 
L 776.155726 46.115209 
L 776.27804 45.59274 
L 776.400209 46.849772 
L 776.644115 45.68688 
L 776.887445 48.351589 
L 777.372394 44.260629 
L 777.734618 46.465971 
L 777.855077 46.248513 
L 777.975396 46.286538 
L 778.095575 45.910523 
L 778.215615 46.801259 
L 778.335515 46.639524 
L 778.694382 43.701134 
L 778.813728 44.178318 
L 778.932937 44.082796 
L 779.170941 44.870946 
L 779.289738 44.681928 
L 779.526923 46.062321 
L 779.645311 45.780724 
L 779.763564 47.4765 
L 779.881682 47.53486 
L 780.235227 45.709845 
L 780.352807 45.996355 
L 780.470253 46.99323 
L 780.587566 46.393929 
L 780.704746 46.390109 
L 780.938707 47.296902 
L 781.055489 47.217385 
L 781.17214 45.778234 
L 781.288659 46.203584 
L 781.521303 45.341028 
L 781.753424 44.722621 
L 781.985025 43.509708 
L 782.216108 45.796915 
L 782.331455 46.018954 
L 782.561765 47.259415 
L 782.791563 46.243447 
L 783.02085 45.616863 
L 783.24963 44.652643 
L 783.36383 44.60609 
L 783.591852 46.052887 
L 783.819372 43.699404 
L 783.932944 45.086154 
L 784.159714 44.005102 
L 784.385988 44.966855 
L 784.498939 44.569738 
L 784.611767 45.859279 
L 784.949513 44.376874 
L 785.061851 43.884038 
L 785.286159 42.003655 
L 785.509981 43.386825 
L 785.621711 42.878911 
L 785.733319 43.196451 
L 785.844808 42.458436 
L 785.956176 42.669808 
L 786.067424 44.147808 
L 786.400452 42.189679 
L 786.621875 43.121237 
L 786.842825 43.61359 
L 786.953122 42.970865 
L 787.063303 43.150054 
L 787.173365 43.975368 
L 787.283311 43.474788 
L 787.39314 43.660207 
L 787.612448 45.261506 
L 787.721927 45.597686 
L 787.831291 44.429554 
L 787.940539 44.59655 
L 788.049671 45.035827 
L 788.158689 44.825823 
L 788.376379 45.521113 
L 788.485052 45.268837 
L 788.593611 46.129078 
L 788.702056 45.793801 
L 788.810388 46.251046 
L 789.02671 47.817809 
L 789.350347 45.875517 
L 789.565542 46.764446 
L 789.780291 44.839051 
L 789.887498 44.96625 
L 789.994594 45.560608 
L 790.101578 44.070514 
L 790.208453 44.117333 
L 790.315216 43.448483 
L 790.528414 41.539802 
L 790.741171 42.267292 
L 790.847386 42.146051 
L 790.953492 42.230644 
L 791.165377 39.902101 
L 791.376828 40.637678 
L 791.587848 41.035003 
L 791.798437 39.342239 
L 792.218332 42.635945 
L 792.323039 42.51582 
L 792.42764 41.687293 
L 792.636526 42.440253 
L 792.740811 41.113068 
L 792.84499 42.274956 
L 793.053035 40.254189 
L 793.260661 40.468053 
L 793.46787 39.787407 
L 793.674665 41.743614 
L 793.881046 41.003108 
L 793.984083 40.855621 
L 794.087016 42.425384 
L 794.189848 42.094333 
L 794.292577 43.561887 
L 794.497728 43.267899 
L 794.600152 43.98003 
L 794.702474 43.906696 
L 794.804694 43.592322 
L 794.906814 43.678645 
L 795.008833 42.987158 
L 795.110751 44.25533 
L 795.212568 42.664809 
L 795.314286 43.048482 
L 795.415903 42.72096 
L 795.618838 41.054891 
L 795.720156 40.458831 
L 795.821375 40.603669 
L 796.225262 37.042835 
L 796.527144 35.394221 
L 796.72791 32.338639 
L 796.928286 36.224058 
L 797.028329 36.001275 
L 797.128274 36.915225 
L 797.228124 36.637277 
L 797.427533 35.378483 
L 797.527093 35.938266 
L 797.725927 35.130848 
L 797.8252 35.668756 
L 798.023461 35.300352 
L 798.221342 37.935934 
L 798.615971 35.78936 
L 798.714393 36.543479 
L 798.910956 33.638935 
L 799.009098 36.103267 
L 799.107146 35.063929 
L 799.205101 35.143914 
L 799.302964 35.36913 
L 799.400734 34.837039 
L 799.498411 35.518745 
L 799.595996 33.837547 
L 799.69349 34.6083 
L 799.790891 34.425775 
L 799.985418 37.180583 
L 800.082544 39.193656 
L 800.17958 37.685368 
L 800.276524 38.526512 
L 800.373377 38.171858 
L 800.566811 35.873669 
L 800.663393 36.456193 
L 800.856285 34.527805 
L 800.952597 34.76834 
L 801.048818 33.088358 
L 801.240993 35.122 
L 801.432811 33.700446 
L 801.528587 35.377207 
L 801.624273 33.566419 
L 801.815382 34.774995 
L 801.910803 36.005191 
L 802.006137 35.493539 
L 802.481489 27.783094 
L 802.576298 28.127134 
L 802.67102 28.963306 
L 802.765655 28.802763 
L 802.860203 28.417515 
L 802.954665 28.613607 
L 803.143329 27.547501 
L 803.33165 28.326726 
L 803.425682 27.178197 
L 803.613489 28.973392 
L 803.707265 29.750382 
L 803.800955 28.931726 
L 803.894561 30.00762 
L 803.988082 29.654022 
L 804.174871 32.298726 
L 804.361322 28.887107 
L 804.454421 30.026837 
L 804.547437 28.868006 
L 804.640369 29.195902 
L 804.733217 30.287413 
L 804.825983 29.107221 
L 804.918664 29.583436 
L 805.196212 27.872089 
L 805.657141 32.619297 
L 805.74908 32.444216 
L 805.932714 33.87857 
L 806.207554 30.853231 
L 806.481664 30.431407 
L 806.664001 30.030682 
L 807.118441 28.648144 
L 807.209089 28.997615 
L 807.299658 29.940296 
L 807.390148 29.399055 
L 807.480559 29.927756 
L 807.57089 31.900895 
L 807.661142 30.787384 
L 807.751316 31.82538 
L 807.931428 29.804756 
L 808.021366 30.048865 
L 808.380337 27.510186 
L 808.469885 28.628878 
L 808.559356 27.23714 
L 808.827304 29.463344 
L 808.916466 28.748347 
L 809.005551 28.902531 
L 809.183491 28.232311 
L 809.715478 33.064127 
L 809.803876 32.187277 
L 809.980447 29.854028 
L 810.244739 32.500028 
L 810.420558 30.818669 
L 810.508356 30.414031 
L 810.683728 27.642775 
L 810.771302 27.81466 
L 810.946228 28.902866 
L 811.120859 27.452559 
L 811.208064 28.364189 
L 811.382252 27.463374 
L 811.469237 28.516873 
L 811.729751 27.281984 
L 811.816444 27.576879 
L 812.076085 24.628249 
L 812.162487 25.355657 
L 812.507376 22.285552 
L 812.679389 23.625409 
L 813.108173 27.262711 
L 813.193716 26.244107 
L 813.279189 27.813049 
L 813.364592 27.592219 
L 813.535184 27.38712 
L 813.705496 26.552546 
L 813.960438 28.6977 
L 814.045279 28.373399 
L 814.214752 26.13782 
L 814.299385 26.35417 
L 814.383948 26.138123 
L 814.468442 25.566761 
L 814.552867 26.741529 
L 814.637223 25.724226 
L 814.72151 26.700348 
L 814.97396 24.923209 
L 815.057973 25.37746 
L 815.56062 22.025455 
L 815.644158 22.319524 
L 815.894365 24.349498 
L 816.060834 25.726316 
L 816.143968 25.686042 
L 816.227035 25.095367 
L 816.310036 26.411358 
L 816.392969 26.139335 
L 816.475836 24.814426 
L 816.558637 24.925238 
L 816.641372 25.040868 
L 817.136391 28.873031 
L 817.300872 27.672256 
L 817.710932 25.708111 
L 817.874501 28.852267 
L 817.956189 27.463692 
L 818.037812 28.171507 
L 818.11937 27.568574 
L 818.282295 30.635428 
L 818.363661 29.539112 
L 818.444962 28.875377 
L 818.769531 31.273263 
L 818.931434 30.223267 
L 819.173813 33.194527 
L 819.25448 31.669405 
L 819.335084 32.011178 
L 819.496103 33.815452 
L 819.737163 30.310005 
L 819.817391 28.94516 
L 819.897557 29.317204 
L 819.977661 30.544801 
L 820.057703 29.387786 
L 820.137683 29.611993 
L 820.217601 30.357369 
L 820.297457 28.476558 
L 820.377251 30.00343 
L 820.456984 29.586531 
L 820.536656 28.732343 
L 820.616265 28.929376 
L 820.775302 29.526413 
L 820.934093 27.894383 
L 821.013398 29.263792 
L 821.171824 26.540855 
L 821.487949 30.265544 
L 821.56683 30.292 
L 821.72441 32.722496 
L 821.80311 31.477065 
L 821.960331 33.817058 
L 822.038852 33.754483 
L 822.117313 34.796632 
L 822.508726 30.447374 
L 822.586831 30.196877 
L 822.742865 30.469034 
L 822.820793 30.290589 
L 823.131919 34.482091 
L 823.209555 35.280854 
L 823.287132 33.668076 
L 823.519514 36.548361 
L 823.596859 36.481863 
L 823.751375 39.436811 
L 823.828547 38.905184 
L 823.90566 40.010728 
L 823.982717 39.288204 
L 824.059715 39.902603 
L 824.136657 41.808661 
L 824.213541 41.384624 
L 824.290368 42.053029 
L 824.367138 40.20035 
L 824.520507 42.853734 
L 824.902936 47.203608 
L 824.979252 46.060434 
L 825.055512 46.493435 
L 825.131715 48.761667 
L 825.207863 48.585854 
L 825.283954 46.222559 
L 825.359989 46.317632 
L 825.435969 49.187169 
L 825.511892 46.199159 
L 825.58776 46.581123 
L 825.739329 45.657117 
L 825.81503 49.49501 
L 825.890675 49.369752 
L 825.966265 50.253005 
L 826.11728 47.587357 
L 826.268074 50.483536 
L 826.493853 49.338527 
L 826.569003 50.122038 
L 826.644099 47.923329 
L 826.71914 48.162761 
L 826.943936 58.746702 
L 827.01876 57.496248 
L 827.093529 58.737693 
L 827.168245 64.348352 
L 827.242906 60.673393 
L 827.466567 70.384594 
L 827.541013 66.569233 
L 827.615405 70.426035 
L 827.91244 56.359238 
L 827.986566 55.645784 
L 828.060638 56.279546 
L 828.134658 60.090855 
L 828.208624 55.682449 
L 828.282537 57.662204 
L 828.503961 50.273548 
L 828.577663 50.58654 
L 828.798455 54.556112 
L 828.871948 51.462415 
L 828.945388 51.607698 
L 829.018777 51.307989 
L 829.238629 44.588802 
L 829.311809 43.87707 
L 829.749805 50.781754 
L 829.822624 50.792225 
L 829.895392 50.995704 
L 830.113389 46.868554 
L 830.185952 46.77994 
L 830.258464 46.495352 
L 830.475697 40.794359 
L 830.620265 39.134546 
L 830.764631 36.396098 
L 830.836738 37.062277 
L 830.980803 40.055613 
L 831.124666 37.464608 
L 831.196523 37.643752 
L 831.268329 37.5515 
L 831.411793 39.173124 
L 831.626616 36.678723 
L 832.054926 40.588224 
L 832.126139 40.13244 
L 832.268417 36.470353 
L 832.339482 36.481863 
L 832.481467 38.891639 
L 832.552386 38.348135 
L 832.694079 39.007964 
L 832.764853 37.291649 
L 832.835578 38.579536 
L 832.906254 38.330598 
L 832.976883 38.278055 
L 833.117995 36.396981 
L 833.399642 40.447052 
L 833.540178 37.493082 
L 833.610374 37.717316 
L 833.680523 37.349181 
L 833.750624 35.244439 
L 833.820677 36.065303 
L 833.890683 35.752692 
L 833.960642 36.058762 
L 834.030553 35.855488 
L 834.379402 41.136689 
L 834.44903 40.844189 
L 834.518612 41.269344 
L 834.588147 41.156651 
L 834.796471 36.177166 
L 834.865819 38.72865 
L 834.93512 38.527944 
L 835.004375 37.600816 
L 835.073584 38.025279 
L 835.280932 40.379038 
L 835.349956 39.045391 
L 835.418933 40.429649 
L 835.487865 40.154214 
L 835.62559 40.546053 
L 835.900491 37.008055 
L 835.969102 36.946734 
L 836.174662 32.969362 
L 836.379814 31.024529 
L 836.448108 31.196908 
L 836.7889 35.510198 
L 836.924902 38.444076 
L 836.992836 37.941071 
L 837.060726 35.25248 
L 837.128571 35.582934 
L 837.196371 35.326654 
L 837.264127 33.885816 
L 837.331839 36.196877 
L 837.399506 36.054403 
L 837.467129 35.657154 
L 837.534707 34.426596 
L 837.602242 34.565752 
L 837.939253 38.997766 
L 838.208073 35.917006 
L 838.275169 36.256535 
L 838.40923 40.148642 
L 838.476195 39.413137 
L 838.543117 38.330124 
L 839.27641 50.997212 
L 839.409179 45.658356 
L 839.475499 46.863372 
L 839.541777 47.016019 
L 839.740356 54.091253 
L 839.806464 53.401073 
L 839.87253 53.734814 
L 839.938553 49.325055 
L 840.004535 49.888015 
L 840.070474 49.870652 
L 840.26804 57.085252 
L 840.596478 48.180429 
L 840.85848 46.432158 
L 840.923876 45.060676 
L 841.054545 47.734087 
L 841.054545 47.734087 
" style="fill:none;stroke:#008000;stroke-linecap:square;stroke-width:1.5;"/>
   </g>
   <g id="patch_3">
    <path d="M 42.1 333.36 
L 42.1 7.2 
" style="fill:none;stroke:#000000;stroke-linecap:square;stroke-linejoin:miter;stroke-width:0.8;"/>
   </g>
   <g id="patch_4">
    <path d="M 879.1 333.36 
L 879.1 7.2 
" style="fill:none;stroke:#000000;stroke-linecap:square;stroke-linejoin:miter;stroke-width:0.8;"/>
   </g>
   <g id="patch_5">
    <path d="M 42.1 333.36 
L 879.1 333.36 
" style="fill:none;stroke:#000000;stroke-linecap:square;stroke-linejoin:miter;stroke-width:0.8;"/>
   </g>
   <g id="patch_6">
    <path d="M 42.1 7.2 
L 879.1 7.2 
" style="fill:none;stroke:#000000;stroke-linecap:square;stroke-linejoin:miter;stroke-width:0.8;"/>
   </g>
  </g>
 </g>
 <defs>
  <clipPath id="p4d57a1c6b8">
   <rect height="326.16" width="837" x="42.1" y="7.2"/>
  </clipPath>
 </defs>
</svg>
