<?xml version="1.0" encoding="utf-8" standalone="no"?>
<!DOCTYPE svg PUBLIC "-//W3C//DTD SVG 1.1//EN"
  "http://www.w3.org/Graphics/SVG/1.1/DTD/svg11.dtd">
<!-- Created with matplotlib (https://matplotlib.org/) -->
<svg height="263.63625pt" version="1.1" viewBox="0 0 405.932812 263.63625" width="405.932812pt" xmlns="http://www.w3.org/2000/svg" xmlns:xlink="http://www.w3.org/1999/xlink">
 <metadata>
  <rdf:RDF xmlns:cc="http://creativecommons.org/ns#" xmlns:dc="http://purl.org/dc/elements/1.1/" xmlns:rdf="http://www.w3.org/1999/02/22-rdf-syntax-ns#">
   <cc:Work>
    <dc:type rdf:resource="http://purl.org/dc/dcmitype/StillImage"/>
    <dc:date>2021-10-05T17:25:33.231131</dc:date>
    <dc:format>image/svg+xml</dc:format>
    <dc:creator>
     <cc:Agent>
      <dc:title>Matplotlib v3.3.4, https://matplotlib.org/</dc:title>
     </cc:Agent>
    </dc:creator>
   </cc:Work>
  </rdf:RDF>
 </metadata>
 <defs>
  <style type="text/css">*{stroke-linecap:butt;stroke-linejoin:round;}</style>
 </defs>
 <g id="figure_1">
  <g id="patch_1">
   <path d="M 0 263.63625 
L 405.932812 263.63625 
L 405.932812 0 
L 0 0 
z
" style="fill:none;"/>
  </g>
  <g id="axes_1">
   <g id="patch_2">
    <path d="M 63.932812 239.758125 
L 398.732813 239.758125 
L 398.732813 22.318125 
L 63.932812 22.318125 
z
" style="fill:#ffffff;"/>
   </g>
   <g id="matplotlib.axis_1">
    <g id="xtick_1">
     <g id="line2d_1">
      <path clip-path="url(#p7339c4e794)" d="M 79.150994 239.758125 
L 79.150994 22.318125 
" style="fill:none;stroke:#b0b0b0;stroke-linecap:square;stroke-width:0.8;"/>
     </g>
     <g id="line2d_2">
      <defs>
       <path d="M 0 0 
L 0 3.5 
" id="me046aa6f40" style="stroke:#000000;stroke-width:0.8;"/>
      </defs>
      <g>
       <use style="stroke:#000000;stroke-width:0.8;" x="79.150994" xlink:href="#me046aa6f40" y="239.758125"/>
      </g>
     </g>
     <g id="text_1">
      <!-- 0.0 -->
      <g transform="translate(71.199432 254.356563)scale(0.1 -0.1)">
       <defs>
        <path d="M 31.78125 66.40625 
Q 24.171875 66.40625 20.328125 58.90625 
Q 16.5 51.421875 16.5 36.375 
Q 16.5 21.390625 20.328125 13.890625 
Q 24.171875 6.390625 31.78125 6.390625 
Q 39.453125 6.390625 43.28125 13.890625 
Q 47.125 21.390625 47.125 36.375 
Q 47.125 51.421875 43.28125 58.90625 
Q 39.453125 66.40625 31.78125 66.40625 
z
M 31.78125 74.21875 
Q 44.046875 74.21875 50.515625 64.515625 
Q 56.984375 54.828125 56.984375 36.375 
Q 56.984375 17.96875 50.515625 8.265625 
Q 44.046875 -1.421875 31.78125 -1.421875 
Q 19.53125 -1.421875 13.0625 8.265625 
Q 6.59375 17.96875 6.59375 36.375 
Q 6.59375 54.828125 13.0625 64.515625 
Q 19.53125 74.21875 31.78125 74.21875 
z
" id="DejaVuSans-48"/>
        <path d="M 10.6875 12.40625 
L 21 12.40625 
L 21 0 
L 10.6875 0 
z
" id="DejaVuSans-46"/>
       </defs>
       <use xlink:href="#DejaVuSans-48"/>
       <use x="63.623047" xlink:href="#DejaVuSans-46"/>
       <use x="95.410156" xlink:href="#DejaVuSans-48"/>
      </g>
     </g>
    </g>
    <g id="xtick_2">
     <g id="line2d_3">
      <path clip-path="url(#p7339c4e794)" d="M 117.196449 239.758125 
L 117.196449 22.318125 
" style="fill:none;stroke:#b0b0b0;stroke-linecap:square;stroke-width:0.8;"/>
     </g>
     <g id="line2d_4">
      <g>
       <use style="stroke:#000000;stroke-width:0.8;" x="117.196449" xlink:href="#me046aa6f40" y="239.758125"/>
      </g>
     </g>
     <g id="text_2">
      <!-- 2.5 -->
      <g transform="translate(109.244886 254.356563)scale(0.1 -0.1)">
       <defs>
        <path d="M 19.1875 8.296875 
L 53.609375 8.296875 
L 53.609375 0 
L 7.328125 0 
L 7.328125 8.296875 
Q 12.9375 14.109375 22.625 23.890625 
Q 32.328125 33.6875 34.8125 36.53125 
Q 39.546875 41.84375 41.421875 45.53125 
Q 43.3125 49.21875 43.3125 52.78125 
Q 43.3125 58.59375 39.234375 62.25 
Q 35.15625 65.921875 28.609375 65.921875 
Q 23.96875 65.921875 18.8125 64.3125 
Q 13.671875 62.703125 7.8125 59.421875 
L 7.8125 69.390625 
Q 13.765625 71.78125 18.9375 73 
Q 24.125 74.21875 28.421875 74.21875 
Q 39.75 74.21875 46.484375 68.546875 
Q 53.21875 62.890625 53.21875 53.421875 
Q 53.21875 48.921875 51.53125 44.890625 
Q 49.859375 40.875 45.40625 35.40625 
Q 44.1875 33.984375 37.640625 27.21875 
Q 31.109375 20.453125 19.1875 8.296875 
z
" id="DejaVuSans-50"/>
        <path d="M 10.796875 72.90625 
L 49.515625 72.90625 
L 49.515625 64.59375 
L 19.828125 64.59375 
L 19.828125 46.734375 
Q 21.96875 47.46875 24.109375 47.828125 
Q 26.265625 48.1875 28.421875 48.1875 
Q 40.625 48.1875 47.75 41.5 
Q 54.890625 34.8125 54.890625 23.390625 
Q 54.890625 11.625 47.5625 5.09375 
Q 40.234375 -1.421875 26.90625 -1.421875 
Q 22.3125 -1.421875 17.546875 -0.640625 
Q 12.796875 0.140625 7.71875 1.703125 
L 7.71875 11.625 
Q 12.109375 9.234375 16.796875 8.0625 
Q 21.484375 6.890625 26.703125 6.890625 
Q 35.15625 6.890625 40.078125 11.328125 
Q 45.015625 15.765625 45.015625 23.390625 
Q 45.015625 31 40.078125 35.4375 
Q 35.15625 39.890625 26.703125 39.890625 
Q 22.75 39.890625 18.8125 39.015625 
Q 14.890625 38.140625 10.796875 36.28125 
z
" id="DejaVuSans-53"/>
       </defs>
       <use xlink:href="#DejaVuSans-50"/>
       <use x="63.623047" xlink:href="#DejaVuSans-46"/>
       <use x="95.410156" xlink:href="#DejaVuSans-53"/>
      </g>
     </g>
    </g>
    <g id="xtick_3">
     <g id="line2d_5">
      <path clip-path="url(#p7339c4e794)" d="M 155.241903 239.758125 
L 155.241903 22.318125 
" style="fill:none;stroke:#b0b0b0;stroke-linecap:square;stroke-width:0.8;"/>
     </g>
     <g id="line2d_6">
      <g>
       <use style="stroke:#000000;stroke-width:0.8;" x="155.241903" xlink:href="#me046aa6f40" y="239.758125"/>
      </g>
     </g>
     <g id="text_3">
      <!-- 5.0 -->
      <g transform="translate(147.290341 254.356563)scale(0.1 -0.1)">
       <use xlink:href="#DejaVuSans-53"/>
       <use x="63.623047" xlink:href="#DejaVuSans-46"/>
       <use x="95.410156" xlink:href="#DejaVuSans-48"/>
      </g>
     </g>
    </g>
    <g id="xtick_4">
     <g id="line2d_7">
      <path clip-path="url(#p7339c4e794)" d="M 193.287358 239.758125 
L 193.287358 22.318125 
" style="fill:none;stroke:#b0b0b0;stroke-linecap:square;stroke-width:0.8;"/>
     </g>
     <g id="line2d_8">
      <g>
       <use style="stroke:#000000;stroke-width:0.8;" x="193.287358" xlink:href="#me046aa6f40" y="239.758125"/>
      </g>
     </g>
     <g id="text_4">
      <!-- 7.5 -->
      <g transform="translate(185.335795 254.356563)scale(0.1 -0.1)">
       <defs>
        <path d="M 8.203125 72.90625 
L 55.078125 72.90625 
L 55.078125 68.703125 
L 28.609375 0 
L 18.3125 0 
L 43.21875 64.59375 
L 8.203125 64.59375 
z
" id="DejaVuSans-55"/>
       </defs>
       <use xlink:href="#DejaVuSans-55"/>
       <use x="63.623047" xlink:href="#DejaVuSans-46"/>
       <use x="95.410156" xlink:href="#DejaVuSans-53"/>
      </g>
     </g>
    </g>
    <g id="xtick_5">
     <g id="line2d_9">
      <path clip-path="url(#p7339c4e794)" d="M 231.332812 239.758125 
L 231.332812 22.318125 
" style="fill:none;stroke:#b0b0b0;stroke-linecap:square;stroke-width:0.8;"/>
     </g>
     <g id="line2d_10">
      <g>
       <use style="stroke:#000000;stroke-width:0.8;" x="231.332812" xlink:href="#me046aa6f40" y="239.758125"/>
      </g>
     </g>
     <g id="text_5">
      <!-- 10.0 -->
      <g transform="translate(220.2 254.356563)scale(0.1 -0.1)">
       <defs>
        <path d="M 12.40625 8.296875 
L 28.515625 8.296875 
L 28.515625 63.921875 
L 10.984375 60.40625 
L 10.984375 69.390625 
L 28.421875 72.90625 
L 38.28125 72.90625 
L 38.28125 8.296875 
L 54.390625 8.296875 
L 54.390625 0 
L 12.40625 0 
z
" id="DejaVuSans-49"/>
       </defs>
       <use xlink:href="#DejaVuSans-49"/>
       <use x="63.623047" xlink:href="#DejaVuSans-48"/>
       <use x="127.246094" xlink:href="#DejaVuSans-46"/>
       <use x="159.033203" xlink:href="#DejaVuSans-48"/>
      </g>
     </g>
    </g>
    <g id="xtick_6">
     <g id="line2d_11">
      <path clip-path="url(#p7339c4e794)" d="M 269.378267 239.758125 
L 269.378267 22.318125 
" style="fill:none;stroke:#b0b0b0;stroke-linecap:square;stroke-width:0.8;"/>
     </g>
     <g id="line2d_12">
      <g>
       <use style="stroke:#000000;stroke-width:0.8;" x="269.378267" xlink:href="#me046aa6f40" y="239.758125"/>
      </g>
     </g>
     <g id="text_6">
      <!-- 12.5 -->
      <g transform="translate(258.245455 254.356563)scale(0.1 -0.1)">
       <use xlink:href="#DejaVuSans-49"/>
       <use x="63.623047" xlink:href="#DejaVuSans-50"/>
       <use x="127.246094" xlink:href="#DejaVuSans-46"/>
       <use x="159.033203" xlink:href="#DejaVuSans-53"/>
      </g>
     </g>
    </g>
    <g id="xtick_7">
     <g id="line2d_13">
      <path clip-path="url(#p7339c4e794)" d="M 307.423722 239.758125 
L 307.423722 22.318125 
" style="fill:none;stroke:#b0b0b0;stroke-linecap:square;stroke-width:0.8;"/>
     </g>
     <g id="line2d_14">
      <g>
       <use style="stroke:#000000;stroke-width:0.8;" x="307.423722" xlink:href="#me046aa6f40" y="239.758125"/>
      </g>
     </g>
     <g id="text_7">
      <!-- 15.0 -->
      <g transform="translate(296.290909 254.356563)scale(0.1 -0.1)">
       <use xlink:href="#DejaVuSans-49"/>
       <use x="63.623047" xlink:href="#DejaVuSans-53"/>
       <use x="127.246094" xlink:href="#DejaVuSans-46"/>
       <use x="159.033203" xlink:href="#DejaVuSans-48"/>
      </g>
     </g>
    </g>
    <g id="xtick_8">
     <g id="line2d_15">
      <path clip-path="url(#p7339c4e794)" d="M 345.469176 239.758125 
L 345.469176 22.318125 
" style="fill:none;stroke:#b0b0b0;stroke-linecap:square;stroke-width:0.8;"/>
     </g>
     <g id="line2d_16">
      <g>
       <use style="stroke:#000000;stroke-width:0.8;" x="345.469176" xlink:href="#me046aa6f40" y="239.758125"/>
      </g>
     </g>
     <g id="text_8">
      <!-- 17.5 -->
      <g transform="translate(334.336364 254.356563)scale(0.1 -0.1)">
       <use xlink:href="#DejaVuSans-49"/>
       <use x="63.623047" xlink:href="#DejaVuSans-55"/>
       <use x="127.246094" xlink:href="#DejaVuSans-46"/>
       <use x="159.033203" xlink:href="#DejaVuSans-53"/>
      </g>
     </g>
    </g>
    <g id="xtick_9">
     <g id="line2d_17">
      <path clip-path="url(#p7339c4e794)" d="M 383.514631 239.758125 
L 383.514631 22.318125 
" style="fill:none;stroke:#b0b0b0;stroke-linecap:square;stroke-width:0.8;"/>
     </g>
     <g id="line2d_18">
      <g>
       <use style="stroke:#000000;stroke-width:0.8;" x="383.514631" xlink:href="#me046aa6f40" y="239.758125"/>
      </g>
     </g>
     <g id="text_9">
      <!-- 20.0 -->
      <g transform="translate(372.381818 254.356563)scale(0.1 -0.1)">
       <use xlink:href="#DejaVuSans-50"/>
       <use x="63.623047" xlink:href="#DejaVuSans-48"/>
       <use x="127.246094" xlink:href="#DejaVuSans-46"/>
       <use x="159.033203" xlink:href="#DejaVuSans-48"/>
      </g>
     </g>
    </g>
   </g>
   <g id="matplotlib.axis_2">
    <g id="ytick_1">
     <g id="line2d_19">
      <path clip-path="url(#p7339c4e794)" d="M 63.932812 229.874489 
L 398.732813 229.874489 
" style="fill:none;stroke:#b0b0b0;stroke-linecap:square;stroke-width:0.8;"/>
     </g>
     <g id="line2d_20">
      <defs>
       <path d="M 0 0 
L -3.5 0 
" id="mbf66e40db1" style="stroke:#000000;stroke-width:0.8;"/>
      </defs>
      <g>
       <use style="stroke:#000000;stroke-width:0.8;" x="63.932812" xlink:href="#mbf66e40db1" y="229.874489"/>
      </g>
     </g>
     <g id="text_10">
      <!-- −0.00100 -->
      <g transform="translate(7.2 233.673707)scale(0.1 -0.1)">
       <defs>
        <path d="M 10.59375 35.5 
L 73.1875 35.5 
L 73.1875 27.203125 
L 10.59375 27.203125 
z
" id="DejaVuSans-8722"/>
       </defs>
       <use xlink:href="#DejaVuSans-8722"/>
       <use x="83.789062" xlink:href="#DejaVuSans-48"/>
       <use x="147.412109" xlink:href="#DejaVuSans-46"/>
       <use x="179.199219" xlink:href="#DejaVuSans-48"/>
       <use x="242.822266" xlink:href="#DejaVuSans-48"/>
       <use x="306.445312" xlink:href="#DejaVuSans-49"/>
       <use x="370.068359" xlink:href="#DejaVuSans-48"/>
       <use x="433.691406" xlink:href="#DejaVuSans-48"/>
      </g>
     </g>
    </g>
    <g id="ytick_2">
     <g id="line2d_21">
      <path clip-path="url(#p7339c4e794)" d="M 63.932812 203.282144 
L 398.732813 203.282144 
" style="fill:none;stroke:#b0b0b0;stroke-linecap:square;stroke-width:0.8;"/>
     </g>
     <g id="line2d_22">
      <g>
       <use style="stroke:#000000;stroke-width:0.8;" x="63.932812" xlink:href="#mbf66e40db1" y="203.282144"/>
      </g>
     </g>
     <g id="text_11">
      <!-- −0.00075 -->
      <g transform="translate(7.2 207.081363)scale(0.1 -0.1)">
       <use xlink:href="#DejaVuSans-8722"/>
       <use x="83.789062" xlink:href="#DejaVuSans-48"/>
       <use x="147.412109" xlink:href="#DejaVuSans-46"/>
       <use x="179.199219" xlink:href="#DejaVuSans-48"/>
       <use x="242.822266" xlink:href="#DejaVuSans-48"/>
       <use x="306.445312" xlink:href="#DejaVuSans-48"/>
       <use x="370.068359" xlink:href="#DejaVuSans-55"/>
       <use x="433.691406" xlink:href="#DejaVuSans-53"/>
      </g>
     </g>
    </g>
    <g id="ytick_3">
     <g id="line2d_23">
      <path clip-path="url(#p7339c4e794)" d="M 63.932812 176.689799 
L 398.732813 176.689799 
" style="fill:none;stroke:#b0b0b0;stroke-linecap:square;stroke-width:0.8;"/>
     </g>
     <g id="line2d_24">
      <g>
       <use style="stroke:#000000;stroke-width:0.8;" x="63.932812" xlink:href="#mbf66e40db1" y="176.689799"/>
      </g>
     </g>
     <g id="text_12">
      <!-- −0.00050 -->
      <g transform="translate(7.2 180.489018)scale(0.1 -0.1)">
       <use xlink:href="#DejaVuSans-8722"/>
       <use x="83.789062" xlink:href="#DejaVuSans-48"/>
       <use x="147.412109" xlink:href="#DejaVuSans-46"/>
       <use x="179.199219" xlink:href="#DejaVuSans-48"/>
       <use x="242.822266" xlink:href="#DejaVuSans-48"/>
       <use x="306.445312" xlink:href="#DejaVuSans-48"/>
       <use x="370.068359" xlink:href="#DejaVuSans-53"/>
       <use x="433.691406" xlink:href="#DejaVuSans-48"/>
      </g>
     </g>
    </g>
    <g id="ytick_4">
     <g id="line2d_25">
      <path clip-path="url(#p7339c4e794)" d="M 63.932812 150.097455 
L 398.732813 150.097455 
" style="fill:none;stroke:#b0b0b0;stroke-linecap:square;stroke-width:0.8;"/>
     </g>
     <g id="line2d_26">
      <g>
       <use style="stroke:#000000;stroke-width:0.8;" x="63.932812" xlink:href="#mbf66e40db1" y="150.097455"/>
      </g>
     </g>
     <g id="text_13">
      <!-- −0.00025 -->
      <g transform="translate(7.2 153.896674)scale(0.1 -0.1)">
       <use xlink:href="#DejaVuSans-8722"/>
       <use x="83.789062" xlink:href="#DejaVuSans-48"/>
       <use x="147.412109" xlink:href="#DejaVuSans-46"/>
       <use x="179.199219" xlink:href="#DejaVuSans-48"/>
       <use x="242.822266" xlink:href="#DejaVuSans-48"/>
       <use x="306.445312" xlink:href="#DejaVuSans-48"/>
       <use x="370.068359" xlink:href="#DejaVuSans-50"/>
       <use x="433.691406" xlink:href="#DejaVuSans-53"/>
      </g>
     </g>
    </g>
    <g id="ytick_5">
     <g id="line2d_27">
      <path clip-path="url(#p7339c4e794)" d="M 63.932812 123.50511 
L 398.732813 123.50511 
" style="fill:none;stroke:#b0b0b0;stroke-linecap:square;stroke-width:0.8;"/>
     </g>
     <g id="line2d_28">
      <g>
       <use style="stroke:#000000;stroke-width:0.8;" x="63.932812" xlink:href="#mbf66e40db1" y="123.50511"/>
      </g>
     </g>
     <g id="text_14">
      <!-- 0.00000 -->
      <g transform="translate(15.579687 127.304329)scale(0.1 -0.1)">
       <use xlink:href="#DejaVuSans-48"/>
       <use x="63.623047" xlink:href="#DejaVuSans-46"/>
       <use x="95.410156" xlink:href="#DejaVuSans-48"/>
       <use x="159.033203" xlink:href="#DejaVuSans-48"/>
       <use x="222.65625" xlink:href="#DejaVuSans-48"/>
       <use x="286.279297" xlink:href="#DejaVuSans-48"/>
       <use x="349.902344" xlink:href="#DejaVuSans-48"/>
      </g>
     </g>
    </g>
    <g id="ytick_6">
     <g id="line2d_29">
      <path clip-path="url(#p7339c4e794)" d="M 63.932812 96.912766 
L 398.732813 96.912766 
" style="fill:none;stroke:#b0b0b0;stroke-linecap:square;stroke-width:0.8;"/>
     </g>
     <g id="line2d_30">
      <g>
       <use style="stroke:#000000;stroke-width:0.8;" x="63.932812" xlink:href="#mbf66e40db1" y="96.912766"/>
      </g>
     </g>
     <g id="text_15">
      <!-- 0.00025 -->
      <g transform="translate(15.579687 100.711984)scale(0.1 -0.1)">
       <use xlink:href="#DejaVuSans-48"/>
       <use x="63.623047" xlink:href="#DejaVuSans-46"/>
       <use x="95.410156" xlink:href="#DejaVuSans-48"/>
       <use x="159.033203" xlink:href="#DejaVuSans-48"/>
       <use x="222.65625" xlink:href="#DejaVuSans-48"/>
       <use x="286.279297" xlink:href="#DejaVuSans-50"/>
       <use x="349.902344" xlink:href="#DejaVuSans-53"/>
      </g>
     </g>
    </g>
    <g id="ytick_7">
     <g id="line2d_31">
      <path clip-path="url(#p7339c4e794)" d="M 63.932812 70.320421 
L 398.732813 70.320421 
" style="fill:none;stroke:#b0b0b0;stroke-linecap:square;stroke-width:0.8;"/>
     </g>
     <g id="line2d_32">
      <g>
       <use style="stroke:#000000;stroke-width:0.8;" x="63.932812" xlink:href="#mbf66e40db1" y="70.320421"/>
      </g>
     </g>
     <g id="text_16">
      <!-- 0.00050 -->
      <g transform="translate(15.579687 74.11964)scale(0.1 -0.1)">
       <use xlink:href="#DejaVuSans-48"/>
       <use x="63.623047" xlink:href="#DejaVuSans-46"/>
       <use x="95.410156" xlink:href="#DejaVuSans-48"/>
       <use x="159.033203" xlink:href="#DejaVuSans-48"/>
       <use x="222.65625" xlink:href="#DejaVuSans-48"/>
       <use x="286.279297" xlink:href="#DejaVuSans-53"/>
       <use x="349.902344" xlink:href="#DejaVuSans-48"/>
      </g>
     </g>
    </g>
    <g id="ytick_8">
     <g id="line2d_33">
      <path clip-path="url(#p7339c4e794)" d="M 63.932812 43.728076 
L 398.732813 43.728076 
" style="fill:none;stroke:#b0b0b0;stroke-linecap:square;stroke-width:0.8;"/>
     </g>
     <g id="line2d_34">
      <g>
       <use style="stroke:#000000;stroke-width:0.8;" x="63.932812" xlink:href="#mbf66e40db1" y="43.728076"/>
      </g>
     </g>
     <g id="text_17">
      <!-- 0.00075 -->
      <g transform="translate(15.579687 47.527295)scale(0.1 -0.1)">
       <use xlink:href="#DejaVuSans-48"/>
       <use x="63.623047" xlink:href="#DejaVuSans-46"/>
       <use x="95.410156" xlink:href="#DejaVuSans-48"/>
       <use x="159.033203" xlink:href="#DejaVuSans-48"/>
       <use x="222.65625" xlink:href="#DejaVuSans-48"/>
       <use x="286.279297" xlink:href="#DejaVuSans-55"/>
       <use x="349.902344" xlink:href="#DejaVuSans-53"/>
      </g>
     </g>
    </g>
   </g>
   <g id="line2d_35">
    <path clip-path="url(#p7339c4e794)" d="M 79.150994 229.874489 
L 79.455663 229.73598 
L 79.760331 229.321003 
L 80.369668 227.668431 
L 80.979004 224.940345 
L 81.588341 221.17566 
L 82.502346 213.706613 
L 83.416351 204.269049 
L 84.635024 189.150013 
L 86.463034 162.802545 
L 90.119053 108.917573 
L 91.337727 94.022913 
L 92.5564 81.915061 
L 93.470405 74.958789 
L 94.38441 69.962286 
L 94.993746 67.744753 
L 95.603083 66.413436 
L 95.907751 66.074318 
L 96.212419 65.947895 
L 96.517088 66.029376 
L 96.821756 66.313244 
L 97.431093 67.46156 
L 98.040429 69.332305 
L 98.649766 71.853629 
L 99.563771 76.674539 
L 100.782444 84.551746 
L 105.0478 113.855622 
L 105.961805 118.30442 
L 106.87581 121.516543 
L 107.485147 122.886709 
L 108.094483 123.599607 
L 108.399152 123.703056 
L 108.70382 123.636121 
L 109.008488 123.398613 
L 109.617825 122.415557 
L 110.227161 120.770073 
L 110.836498 118.492215 
L 111.750503 113.988126 
L 112.664508 108.360404 
L 114.187849 97.195912 
L 117.539201 71.551729 
L 118.453206 66.041356 
L 119.367211 61.801258 
L 119.976547 59.82117 
L 120.585884 58.602822 
L 120.890552 58.298391 
L 121.19522 58.205763 
L 121.499889 58.330355 
L 121.804557 58.676705 
L 122.413894 60.04865 
L 123.02323 62.340371 
L 123.632567 65.555704 
L 124.546572 72.081669 
L 125.460577 80.555455 
L 126.67925 94.571321 
L 128.202591 115.580085 
L 130.639938 153.438272 
L 132.772616 185.549326 
L 133.991289 201.334718 
L 135.209962 214.167331 
L 136.123967 221.432593 
L 136.733304 225.02614 
L 137.342641 227.563525 
L 137.951977 229.013534 
L 138.256645 229.32526 
L 138.561314 229.360482 
L 138.865982 229.119797 
L 139.17065 228.604801 
L 139.779987 226.76259 
L 140.389324 223.865501 
L 140.99866 219.960143 
L 141.912665 212.348381 
L 142.82667 202.868225 
L 144.045343 187.876217 
L 145.873353 162.158624 
L 148.920036 118.747917 
L 150.443378 100.543382 
L 151.662051 88.968205 
L 152.576056 82.347515 
L 153.490061 77.622331 
L 154.099397 75.54596 
L 154.708734 74.321489 
L 155.013402 74.022112 
L 155.31807 73.92617 
L 155.622739 74.028657 
L 155.927407 74.323717 
L 156.536744 75.464514 
L 157.14608 77.286723 
L 158.060085 81.136076 
L 158.97409 86.068773 
L 160.497432 95.816359 
L 162.934778 111.814852 
L 164.153451 118.312369 
L 165.067456 121.968767 
L 165.676793 123.703266 
L 166.286129 124.816919 
L 166.590798 125.12925 
L 166.895466 125.274045 
L 167.200134 125.248992 
L 167.504803 125.052651 
L 168.114139 124.144657 
L 168.723476 122.556184 
L 169.332812 120.307486 
L 170.246817 115.774727 
L 171.160822 110.006315 
L 172.379496 100.798869 
L 174.816842 79.892155 
L 176.340184 67.530934 
L 177.558857 59.395644 
L 178.472862 54.833898 
L 179.082198 52.686326 
L 179.691535 51.337503 
L 179.996203 50.981468 
L 180.300871 50.846122 
L 180.60554 50.936783 
L 180.910208 51.257888 
L 181.214876 51.812963 
L 181.824213 53.634526 
L 182.43355 56.411235 
L 183.042886 60.137605 
L 183.956891 67.45841 
L 184.870896 76.732844 
L 186.089569 91.773344 
L 187.612911 113.904965 
L 192.792272 193.64457 
L 194.010945 207.883907 
L 194.92495 216.322836 
L 195.838955 222.570419 
L 196.448292 225.432203 
L 197.057628 227.213098 
L 197.362297 227.692845 
L 197.666965 227.897892 
L 197.971633 227.828804 
L 198.276301 227.48714 
L 198.58097 226.875441 
L 199.190306 224.856901 
L 199.799643 221.812548 
L 200.713648 215.444253 
L 201.627653 207.130372 
L 202.846326 193.54071 
L 204.369668 173.723484 
L 208.330355 120.16889 
L 209.549029 106.617524 
L 210.767702 95.702313 
L 211.681707 89.515447 
L 212.291043 86.405792 
L 212.90038 84.123712 
L 213.509717 82.666054 
L 213.814385 82.241429 
L 214.119053 82.01518 
L 214.423722 81.98291 
L 214.72839 82.139385 
L 215.033058 82.478562 
L 215.642395 83.677007 
L 216.251731 85.515011 
L 217.165736 89.307048 
L 218.38441 95.839154 
L 222.649766 121.053967 
L 223.563771 124.754842 
L 224.173107 126.56083 
L 224.782444 127.769438 
L 225.391781 128.335699 
L 225.696449 128.367454 
L 226.001117 128.227719 
L 226.305785 127.914659 
L 226.915122 126.765629 
L 227.524459 124.923449 
L 228.133795 122.405367 
L 229.0478 117.43293 
L 229.961805 111.174667 
L 231.180478 101.224809 
L 233.313156 81.384393 
L 235.141166 64.793608 
L 236.35984 55.492288 
L 237.273844 50.02368 
L 237.883181 47.264791 
L 238.492518 45.305342 
L 239.101854 44.209662 
L 239.406523 44.002394 
L 239.711191 44.029363 
L 240.015859 44.29489 
L 240.320527 44.802345 
L 240.929864 46.552033 
L 241.539201 49.286786 
L 242.148537 52.999647 
L 243.062542 60.34987 
L 243.976547 69.708328 
L 245.19522 84.935628 
L 246.718562 107.402227 
L 252.202591 192.838682 
L 253.421265 206.789388 
L 254.33527 214.932108 
L 255.249274 220.841506 
L 255.858611 223.467545 
L 256.467948 225.013993 
L 256.772616 225.379586 
L 257.077284 225.473923 
L 257.381953 225.298606 
L 257.686621 224.8562 
L 258.295957 223.185245 
L 258.905294 220.500567 
L 259.514631 216.856017 
L 260.428636 209.740419 
L 261.342641 200.897615 
L 262.561314 186.99514 
L 264.693992 159.386698 
L 267.131338 128.323642 
L 268.350012 115.061058 
L 269.568685 104.236404 
L 270.48269 98.004131 
L 271.396695 93.522539 
L 272.006031 91.530936 
L 272.615368 90.331509 
L 272.920036 90.022947 
L 273.224704 89.903666 
L 273.529373 89.969012 
L 273.834041 90.213435 
L 274.443378 91.213524 
L 275.052714 92.844604 
L 275.966719 96.317829 
L 276.880724 100.774096 
L 278.404066 109.524535 
L 280.536744 121.900307 
L 281.755417 127.58686 
L 282.669422 130.656323 
L 283.278758 132.001453 
L 283.888095 132.720918 
L 284.192763 132.832579 
L 284.497432 132.773285 
L 284.8021 132.539922 
L 285.411437 131.542953 
L 286.020773 129.834385 
L 286.63011 127.42112 
L 287.544115 122.530116 
L 288.45812 116.234452 
L 289.676793 106.002482 
L 291.504803 88.042541 
L 294.246817 60.680052 
L 295.465491 50.629809 
L 296.379496 44.679847 
L 296.988832 41.63912 
L 297.598169 39.429095 
L 298.207505 38.113815 
L 298.512174 37.808191 
L 298.816842 37.744342 
L 299.12151 37.92646 
L 299.426179 38.35781 
L 300.035515 39.976656 
L 300.644852 42.60813 
L 301.254188 46.244062 
L 302.168193 53.525319 
L 303.082198 62.866238 
L 304.300871 78.141746 
L 305.824213 100.768264 
L 311.308242 187.478668 
L 312.526916 201.843278 
L 313.440921 210.329757 
L 314.354926 216.613522 
L 314.964262 219.507131 
L 315.573599 221.336235 
L 315.878267 221.848981 
L 316.182935 222.094441 
L 316.487604 222.074219 
L 316.792272 221.790952 
L 317.09694 221.248313 
L 317.706277 219.403776 
L 318.315613 216.587461 
L 319.229618 210.67724 
L 320.143623 202.977344 
L 321.362297 190.471009 
L 323.190306 168.669479 
L 326.236989 131.933711 
L 327.455663 119.622201 
L 328.674336 109.70181 
L 329.588341 104.101011 
L 330.197677 101.307116 
L 330.807014 99.282177 
L 331.416351 98.024377 
L 331.721019 97.678664 
L 332.025687 97.517576 
L 332.330355 97.536916 
L 332.635024 97.731669 
L 333.24436 98.623353 
L 333.853697 100.136971 
L 334.463034 102.205531 
L 335.377039 106.178218 
L 336.595712 112.632427 
L 339.642395 129.650143 
L 340.5564 133.628835 
L 341.470405 136.552107 
L 342.079741 137.795126 
L 342.689078 138.405496 
L 342.993746 138.458964 
L 343.298414 138.338508 
L 343.603083 138.040607 
L 344.212419 136.902691 
L 344.821756 135.034395 
L 345.431093 132.439287 
L 346.345098 127.226806 
L 347.259102 120.542141 
L 348.477776 109.67163 
L 350.001117 93.823342 
L 353.657137 54.669185 
L 354.87581 44.392733 
L 355.789815 38.467403 
L 356.399152 35.527662 
L 357.008488 33.479694 
L 357.617825 32.380953 
L 357.922493 32.201761 
L 358.227161 32.27516 
L 358.53183 32.604333 
L 358.836498 33.191511 
L 359.445835 35.144061 
L 360.055171 38.131399 
L 360.664508 42.136516 
L 361.578513 49.977391 
L 362.492518 59.859474 
L 363.711191 75.78214 
L 365.234532 99.024031 
L 370.413894 181.532867 
L 371.632567 196.198289 
L 372.546572 204.951676 
L 373.460577 211.54059 
L 374.069913 214.660166 
L 374.67925 216.734165 
L 374.983918 217.376679 
L 375.288586 217.756878 
L 375.593255 217.876487 
L 375.897923 217.738184 
L 376.202591 217.345609 
L 376.811928 215.816756 
L 377.421265 213.337075 
L 378.030601 209.96723 
L 378.944606 203.406894 
L 380.163279 192.317736 
L 381.686621 175.853466 
L 383.514631 154.614247 
L 383.514631 154.614247 
" style="fill:none;stroke:#000000;stroke-linecap:square;stroke-width:1.5;"/>
   </g>
   <g id="line2d_36">
    <path clip-path="url(#p7339c4e794)" d="M 79.150994 123.50511 
L 79.455663 123.419888 
L 79.760331 123.16471 
L 80.369668 122.150545 
L 80.979004 120.483643 
L 81.588341 118.198683 
L 82.502346 113.720559 
L 83.721019 106.133617 
L 85.549029 92.651972 
L 87.681707 76.944751 
L 88.90038 69.61321 
L 89.814385 65.503359 
L 90.423722 63.58542 
L 91.033058 62.409835 
L 91.337727 62.119641 
L 91.642395 62.036588 
L 91.947063 62.166164 
L 92.251731 62.513071 
L 92.861068 63.873131 
L 93.470405 66.136331 
L 94.079741 69.307438 
L 94.993746 75.73994 
L 95.907751 84.090952 
L 97.126424 97.903667 
L 98.649766 118.607408 
L 101.087112 155.896038 
L 103.21979 187.460391 
L 104.438464 202.922173 
L 105.657137 215.425456 
L 106.571142 222.440284 
L 107.180478 225.865263 
L 107.789815 228.232711 
L 108.399152 229.51126 
L 108.70382 229.736673 
L 109.008488 229.68521 
L 109.313156 229.357381 
L 109.617825 228.754691 
L 110.227161 226.735678 
L 110.836498 223.659721 
L 111.445835 219.573415 
L 112.35984 211.686404 
L 113.273844 201.926532 
L 114.492518 186.556328 
L 116.320527 160.267188 
L 119.367211 115.941481 
L 120.890552 97.330906 
L 122.109225 85.473328 
L 123.02323 78.672345 
L 123.937235 73.798764 
L 124.546572 71.643198 
L 125.155908 70.356609 
L 125.460577 70.033037 
L 125.765245 69.91755 
L 126.069913 70.005275 
L 126.374582 70.290506 
L 126.983918 71.426683 
L 127.593255 73.264972 
L 128.50726 77.178151 
L 129.421265 82.223151 
L 130.944606 92.265544 
L 133.686621 110.880159 
L 134.905294 117.444882 
L 135.819299 121.093948 
L 136.428636 122.803285 
L 137.037972 123.880687 
L 137.342641 124.172223 
L 137.647309 124.295263 
L 137.951977 124.248097 
L 138.256645 124.029888 
L 138.865982 123.08148 
L 139.475319 121.461493 
L 140.084655 119.19498 
L 140.99866 114.671436 
L 141.912665 108.968115 
L 143.131338 99.955577 
L 147.396695 66.306697 
L 148.310699 61.005728 
L 149.224704 57.11703 
L 149.834041 55.442169 
L 150.443378 54.578951 
L 150.748046 54.46871 
L 151.052714 54.58015 
L 151.357383 54.917767 
L 151.966719 56.285103 
L 152.576056 58.588647 
L 153.185392 61.831373 
L 154.099397 68.42561 
L 155.013402 76.997217 
L 156.232075 91.183108 
L 157.755417 112.456484 
L 160.192763 150.824037 
L 162.325441 183.43598 
L 163.544115 199.522814 
L 164.762788 212.665944 
L 165.676793 220.170091 
L 166.286129 223.925923 
L 166.895466 226.628128 
L 167.504803 228.245722 
L 167.809471 228.642345 
L 168.114139 228.763254 
L 168.418808 228.609004 
L 168.723476 228.181136 
L 169.332812 226.515587 
L 169.942149 223.798358 
L 170.551486 220.076155 
L 171.465491 212.7452 
L 172.379496 203.552551 
L 173.598169 188.953111 
L 175.426179 163.836244 
L 178.472862 121.405763 
L 179.996203 103.645506 
L 181.214876 92.385002 
L 182.128881 85.969209 
L 183.042886 81.417105 
L 183.652223 79.436253 
L 184.261559 78.289917 
L 184.566228 78.022868 
L 184.870896 77.954514 
L 185.175564 78.079745 
L 185.480233 78.392641 
L 186.089569 79.553837 
L 186.698906 81.37563 
L 187.612911 85.184079 
L 188.526916 90.026604 
L 190.050257 99.514371 
L 192.487604 114.827702 
L 193.706277 120.873767 
L 194.620282 124.152658 
L 195.229618 125.620058 
L 195.838955 126.4563 
L 196.143623 126.626674 
L 196.448292 126.627657 
L 196.75296 126.457165 
L 197.057628 126.114002 
L 197.666965 124.909318 
L 198.276301 123.02173 
L 198.885638 120.473519 
L 199.799643 115.495052 
L 200.713648 109.291004 
L 201.932321 99.528936 
L 206.807014 58.259747 
L 207.721019 53.010231 
L 208.330355 50.376156 
L 208.939692 48.524605 
L 209.549029 47.520076 
L 209.853697 47.352211 
L 210.158365 47.414548 
L 210.463034 47.711434 
L 210.767702 48.246338 
L 211.377039 50.039439 
L 211.986375 52.802849 
L 212.595712 56.530362 
L 213.509717 63.87803 
L 214.423722 73.206963 
L 215.642395 88.357801 
L 217.165736 110.678203 
L 222.649766 195.259431 
L 223.868439 208.964416 
L 224.782444 216.909543 
L 225.696449 222.609181 
L 226.305785 225.088194 
L 226.915122 226.481627 
L 227.21979 226.768409 
L 227.524459 226.782382 
L 227.829127 226.525094 
L 228.133795 225.99912 
L 228.743132 224.156105 
L 229.352469 221.292777 
L 229.961805 217.463016 
L 230.87581 210.05721 
L 232.094483 197.529601 
L 233.617825 178.751882 
L 238.492518 115.722296 
L 239.711191 103.815107 
L 240.625196 96.728478 
L 241.539201 91.388415 
L 242.148537 88.836893 
L 242.757874 87.097543 
L 243.367211 86.158598 
L 243.671879 85.98169 
L 243.976547 85.99406 
L 244.281215 86.190336 
L 244.890552 87.109149 
L 245.499889 88.679761 
L 246.109225 90.832701 
L 247.02323 94.978286 
L 248.241903 101.739253 
L 251.593255 121.405097 
L 252.50726 125.486323 
L 253.421265 128.470254 
L 254.030601 129.740962 
L 254.639938 130.377308 
L 254.944606 130.445604 
L 255.249274 130.342575 
L 255.553943 130.06577 
L 256.163279 128.985232 
L 256.772616 127.201878 
L 257.381953 124.727843 
L 258.295957 119.782997 
L 259.209962 113.492429 
L 260.428636 103.383344 
L 262.256645 85.907589 
L 264.693992 62.61198 
L 265.912665 52.943483 
L 266.82667 47.240999 
L 267.436007 44.34634 
L 268.045343 42.267242 
L 268.65468 41.067861 
L 268.959348 40.814638 
L 269.264016 40.799515 
L 269.568685 41.026762 
L 269.873353 41.499692 
L 270.48269 43.19129 
L 271.092026 45.882095 
L 271.701363 49.564527 
L 272.615368 56.893022 
L 273.529373 66.255859 
L 274.748046 81.525283 
L 276.271387 104.094424 
L 281.755417 190.240706 
L 282.97409 204.411137 
L 283.888095 212.734314 
L 284.8021 218.838562 
L 285.411437 221.602935 
L 286.020773 223.294869 
L 286.325441 223.735949 
L 286.63011 223.90764 
L 286.934778 223.811567 
L 287.239446 223.450324 
L 287.544115 222.827468 
L 288.153451 220.815854 
L 288.762788 217.823613 
L 289.676793 211.632905 
L 290.590798 203.633028 
L 291.809471 190.698417 
L 293.637481 168.203166 
L 296.684164 130.23825 
L 297.902837 117.44012 
L 299.12151 107.054977 
L 300.035515 101.128076 
L 300.94952 96.924935 
L 301.558857 95.10136 
L 302.168193 94.053993 
L 302.472862 93.815154 
L 302.77753 93.761147 
L 303.082198 93.887118 
L 303.386867 94.1874 
L 303.996203 95.284358 
L 304.60554 96.991637 
L 305.519545 100.538607 
L 306.738218 106.664892 
L 311.003574 129.906819 
L 311.917579 133.082893 
L 312.526916 134.517208 
L 313.136252 135.335395 
L 313.440921 135.498493 
L 313.745589 135.491208 
L 314.050257 135.309805 
L 314.354926 134.951388 
L 314.964262 133.696372 
L 315.573599 131.720666 
L 316.182935 129.033125 
L 317.09694 123.721426 
L 318.010945 116.99996 
L 319.229618 106.203053 
L 321.057628 87.429719 
L 323.799643 58.999517 
L 325.018316 48.554465 
L 325.932321 42.344794 
L 326.846326 37.863309 
L 327.455663 35.959455 
L 328.064999 34.991698 
L 328.369668 34.873112 
L 328.674336 35.003911 
L 328.979004 35.387332 
L 329.588341 36.920191 
L 330.197677 39.478419 
L 330.807014 43.053331 
L 331.721019 50.264752 
L 332.635024 59.55995 
L 333.853697 74.808392 
L 335.377039 97.449074 
L 338.423722 147.902398 
L 340.251731 176.19847 
L 341.470405 192.234404 
L 342.38441 202.207534 
L 343.298414 210.12938 
L 344.212419 215.812453 
L 344.821756 218.298743 
L 345.431093 219.724609 
L 345.735761 220.039811 
L 346.040429 220.09179 
L 346.345098 219.883202 
L 346.649766 219.417649 
L 347.259102 217.734663 
L 347.868439 215.08987 
L 348.477776 211.543988 
L 349.391781 204.69911 
L 350.610454 193.193648 
L 352.133795 176.155882 
L 356.094483 130.26098 
L 357.313156 118.997525 
L 358.227161 112.164923 
L 359.141166 106.908684 
L 359.750503 104.331446 
L 360.35984 102.51069 
L 360.969176 101.442971 
L 361.273844 101.186503 
L 361.578513 101.110558 
L 361.883181 101.210764 
L 362.187849 101.481932 
L 362.797186 102.512417 
L 363.406523 104.145092 
L 364.320527 107.571655 
L 365.234532 111.928316 
L 366.757874 120.409125 
L 368.890552 132.210861 
L 369.804557 136.31127 
L 370.718562 139.399376 
L 371.327898 140.770054 
L 371.937235 141.517254 
L 372.241903 141.641085 
L 372.546572 141.591467 
L 372.85124 141.364228 
L 373.460577 140.364438 
L 374.069913 138.625595 
L 374.67925 136.14582 
L 375.593255 131.06825 
L 376.50726 124.457428 
L 377.725933 113.56353 
L 379.249274 97.448387 
L 383.514631 50.512628 
L 383.514631 50.512628 
" style="fill:none;stroke:#0000ff;stroke-linecap:square;stroke-width:1.5;"/>
   </g>
   <g id="patch_3">
    <path d="M 63.932812 239.758125 
L 63.932812 22.318125 
" style="fill:none;stroke:#000000;stroke-linecap:square;stroke-linejoin:miter;stroke-width:0.8;"/>
   </g>
   <g id="patch_4">
    <path d="M 398.732813 239.758125 
L 398.732813 22.318125 
" style="fill:none;stroke:#000000;stroke-linecap:square;stroke-linejoin:miter;stroke-width:0.8;"/>
   </g>
   <g id="patch_5">
    <path d="M 63.932812 239.758125 
L 398.732813 239.758125 
" style="fill:none;stroke:#000000;stroke-linecap:square;stroke-linejoin:miter;stroke-width:0.8;"/>
   </g>
   <g id="patch_6">
    <path d="M 63.932812 22.318125 
L 398.732813 22.318125 
" style="fill:none;stroke:#000000;stroke-linecap:square;stroke-linejoin:miter;stroke-width:0.8;"/>
   </g>
   <g id="text_18">
    <!-- Unknown mode -->
    <g transform="translate(184.558125 16.318125)scale(0.12 -0.12)">
     <defs>
      <path d="M 8.6875 72.90625 
L 18.609375 72.90625 
L 18.609375 28.609375 
Q 18.609375 16.890625 22.84375 11.734375 
Q 27.09375 6.59375 36.625 6.59375 
Q 46.09375 6.59375 50.34375 11.734375 
Q 54.59375 16.890625 54.59375 28.609375 
L 54.59375 72.90625 
L 64.5 72.90625 
L 64.5 27.390625 
Q 64.5 13.140625 57.4375 5.859375 
Q 50.390625 -1.421875 36.625 -1.421875 
Q 22.796875 -1.421875 15.734375 5.859375 
Q 8.6875 13.140625 8.6875 27.390625 
z
" id="DejaVuSans-85"/>
      <path d="M 54.890625 33.015625 
L 54.890625 0 
L 45.90625 0 
L 45.90625 32.71875 
Q 45.90625 40.484375 42.875 44.328125 
Q 39.84375 48.1875 33.796875 48.1875 
Q 26.515625 48.1875 22.3125 43.546875 
Q 18.109375 38.921875 18.109375 30.90625 
L 18.109375 0 
L 9.078125 0 
L 9.078125 54.6875 
L 18.109375 54.6875 
L 18.109375 46.1875 
Q 21.34375 51.125 25.703125 53.5625 
Q 30.078125 56 35.796875 56 
Q 45.21875 56 50.046875 50.171875 
Q 54.890625 44.34375 54.890625 33.015625 
z
" id="DejaVuSans-110"/>
      <path d="M 9.078125 75.984375 
L 18.109375 75.984375 
L 18.109375 31.109375 
L 44.921875 54.6875 
L 56.390625 54.6875 
L 27.390625 29.109375 
L 57.625 0 
L 45.90625 0 
L 18.109375 26.703125 
L 18.109375 0 
L 9.078125 0 
z
" id="DejaVuSans-107"/>
      <path d="M 30.609375 48.390625 
Q 23.390625 48.390625 19.1875 42.75 
Q 14.984375 37.109375 14.984375 27.296875 
Q 14.984375 17.484375 19.15625 11.84375 
Q 23.34375 6.203125 30.609375 6.203125 
Q 37.796875 6.203125 41.984375 11.859375 
Q 46.1875 17.53125 46.1875 27.296875 
Q 46.1875 37.015625 41.984375 42.703125 
Q 37.796875 48.390625 30.609375 48.390625 
z
M 30.609375 56 
Q 42.328125 56 49.015625 48.375 
Q 55.71875 40.765625 55.71875 27.296875 
Q 55.71875 13.875 49.015625 6.21875 
Q 42.328125 -1.421875 30.609375 -1.421875 
Q 18.84375 -1.421875 12.171875 6.21875 
Q 5.515625 13.875 5.515625 27.296875 
Q 5.515625 40.765625 12.171875 48.375 
Q 18.84375 56 30.609375 56 
z
" id="DejaVuSans-111"/>
      <path d="M 4.203125 54.6875 
L 13.1875 54.6875 
L 24.421875 12.015625 
L 35.59375 54.6875 
L 46.1875 54.6875 
L 57.421875 12.015625 
L 68.609375 54.6875 
L 77.59375 54.6875 
L 63.28125 0 
L 52.6875 0 
L 40.921875 44.828125 
L 29.109375 0 
L 18.5 0 
z
" id="DejaVuSans-119"/>
      <path id="DejaVuSans-32"/>
      <path d="M 52 44.1875 
Q 55.375 50.25 60.0625 53.125 
Q 64.75 56 71.09375 56 
Q 79.640625 56 84.28125 50.015625 
Q 88.921875 44.046875 88.921875 33.015625 
L 88.921875 0 
L 79.890625 0 
L 79.890625 32.71875 
Q 79.890625 40.578125 77.09375 44.375 
Q 74.3125 48.1875 68.609375 48.1875 
Q 61.625 48.1875 57.5625 43.546875 
Q 53.515625 38.921875 53.515625 30.90625 
L 53.515625 0 
L 44.484375 0 
L 44.484375 32.71875 
Q 44.484375 40.625 41.703125 44.40625 
Q 38.921875 48.1875 33.109375 48.1875 
Q 26.21875 48.1875 22.15625 43.53125 
Q 18.109375 38.875 18.109375 30.90625 
L 18.109375 0 
L 9.078125 0 
L 9.078125 54.6875 
L 18.109375 54.6875 
L 18.109375 46.1875 
Q 21.1875 51.21875 25.484375 53.609375 
Q 29.78125 56 35.6875 56 
Q 41.65625 56 45.828125 52.96875 
Q 50 49.953125 52 44.1875 
z
" id="DejaVuSans-109"/>
      <path d="M 45.40625 46.390625 
L 45.40625 75.984375 
L 54.390625 75.984375 
L 54.390625 0 
L 45.40625 0 
L 45.40625 8.203125 
Q 42.578125 3.328125 38.25 0.953125 
Q 33.9375 -1.421875 27.875 -1.421875 
Q 17.96875 -1.421875 11.734375 6.484375 
Q 5.515625 14.40625 5.515625 27.296875 
Q 5.515625 40.1875 11.734375 48.09375 
Q 17.96875 56 27.875 56 
Q 33.9375 56 38.25 53.625 
Q 42.578125 51.265625 45.40625 46.390625 
z
M 14.796875 27.296875 
Q 14.796875 17.390625 18.875 11.75 
Q 22.953125 6.109375 30.078125 6.109375 
Q 37.203125 6.109375 41.296875 11.75 
Q 45.40625 17.390625 45.40625 27.296875 
Q 45.40625 37.203125 41.296875 42.84375 
Q 37.203125 48.484375 30.078125 48.484375 
Q 22.953125 48.484375 18.875 42.84375 
Q 14.796875 37.203125 14.796875 27.296875 
z
" id="DejaVuSans-100"/>
      <path d="M 56.203125 29.59375 
L 56.203125 25.203125 
L 14.890625 25.203125 
Q 15.484375 15.921875 20.484375 11.0625 
Q 25.484375 6.203125 34.421875 6.203125 
Q 39.59375 6.203125 44.453125 7.46875 
Q 49.3125 8.734375 54.109375 11.28125 
L 54.109375 2.78125 
Q 49.265625 0.734375 44.1875 -0.34375 
Q 39.109375 -1.421875 33.890625 -1.421875 
Q 20.796875 -1.421875 13.15625 6.1875 
Q 5.515625 13.8125 5.515625 26.8125 
Q 5.515625 40.234375 12.765625 48.109375 
Q 20.015625 56 32.328125 56 
Q 43.359375 56 49.78125 48.890625 
Q 56.203125 41.796875 56.203125 29.59375 
z
M 47.21875 32.234375 
Q 47.125 39.59375 43.09375 43.984375 
Q 39.0625 48.390625 32.421875 48.390625 
Q 24.90625 48.390625 20.390625 44.140625 
Q 15.875 39.890625 15.1875 32.171875 
z
" id="DejaVuSans-101"/>
     </defs>
     <use xlink:href="#DejaVuSans-85"/>
     <use x="73.193359" xlink:href="#DejaVuSans-110"/>
     <use x="136.572266" xlink:href="#DejaVuSans-107"/>
     <use x="194.482422" xlink:href="#DejaVuSans-110"/>
     <use x="257.861328" xlink:href="#DejaVuSans-111"/>
     <use x="319.042969" xlink:href="#DejaVuSans-119"/>
     <use x="400.830078" xlink:href="#DejaVuSans-110"/>
     <use x="464.208984" xlink:href="#DejaVuSans-32"/>
     <use x="495.996094" xlink:href="#DejaVuSans-109"/>
     <use x="593.408203" xlink:href="#DejaVuSans-111"/>
     <use x="654.589844" xlink:href="#DejaVuSans-100"/>
     <use x="718.066406" xlink:href="#DejaVuSans-101"/>
    </g>
   </g>
  </g>
 </g>
 <defs>
  <clipPath id="p7339c4e794">
   <rect height="217.44" width="334.8" x="63.932812" y="22.318125"/>
  </clipPath>
 </defs>
</svg>
