<?xml version="1.0" encoding="utf-8" standalone="no"?>
<!DOCTYPE svg PUBLIC "-//W3C//DTD SVG 1.1//EN"
  "http://www.w3.org/Graphics/SVG/1.1/DTD/svg11.dtd">
<!-- Created with matplotlib (https://matplotlib.org/) -->
<svg height="263.63625pt" version="1.1" viewBox="0 0 386.845313 263.63625" width="386.845313pt" xmlns="http://www.w3.org/2000/svg" xmlns:xlink="http://www.w3.org/1999/xlink">
 <metadata>
  <rdf:RDF xmlns:cc="http://creativecommons.org/ns#" xmlns:dc="http://purl.org/dc/elements/1.1/" xmlns:rdf="http://www.w3.org/1999/02/22-rdf-syntax-ns#">
   <cc:Work>
    <dc:type rdf:resource="http://purl.org/dc/dcmitype/StillImage"/>
    <dc:date>2021-10-05T17:26:35.138143</dc:date>
    <dc:format>image/svg+xml</dc:format>
    <dc:creator>
     <cc:Agent>
      <dc:title>Matplotlib v3.3.4, https://matplotlib.org/</dc:title>
     </cc:Agent>
    </dc:creator>
   </cc:Work>
  </rdf:RDF>
 </metadata>
 <defs>
  <style type="text/css">*{stroke-linecap:butt;stroke-linejoin:round;}</style>
 </defs>
 <g id="figure_1">
  <g id="patch_1">
   <path d="M 0 263.63625 
L 386.845313 263.63625 
L 386.845313 0 
L 0 0 
z
" style="fill:none;"/>
  </g>
  <g id="axes_1">
   <g id="patch_2">
    <path d="M 44.845313 239.758125 
L 379.645313 239.758125 
L 379.645313 22.318125 
L 44.845313 22.318125 
z
" style="fill:#ffffff;"/>
   </g>
   <g id="matplotlib.axis_1">
    <g id="xtick_1">
     <g id="line2d_1">
      <path clip-path="url(#peed7266ab9)" d="M 60.063494 239.758125 
L 60.063494 22.318125 
" style="fill:none;stroke:#b0b0b0;stroke-linecap:square;stroke-width:0.8;"/>
     </g>
     <g id="line2d_2">
      <defs>
       <path d="M 0 0 
L 0 3.5 
" id="m7c22c0a2da" style="stroke:#000000;stroke-width:0.8;"/>
      </defs>
      <g>
       <use style="stroke:#000000;stroke-width:0.8;" x="60.063494" xlink:href="#m7c22c0a2da" y="239.758125"/>
      </g>
     </g>
     <g id="text_1">
      <!-- 0.0 -->
      <g transform="translate(52.111932 254.356563)scale(0.1 -0.1)">
       <defs>
        <path d="M 31.78125 66.40625 
Q 24.171875 66.40625 20.328125 58.90625 
Q 16.5 51.421875 16.5 36.375 
Q 16.5 21.390625 20.328125 13.890625 
Q 24.171875 6.390625 31.78125 6.390625 
Q 39.453125 6.390625 43.28125 13.890625 
Q 47.125 21.390625 47.125 36.375 
Q 47.125 51.421875 43.28125 58.90625 
Q 39.453125 66.40625 31.78125 66.40625 
z
M 31.78125 74.21875 
Q 44.046875 74.21875 50.515625 64.515625 
Q 56.984375 54.828125 56.984375 36.375 
Q 56.984375 17.96875 50.515625 8.265625 
Q 44.046875 -1.421875 31.78125 -1.421875 
Q 19.53125 -1.421875 13.0625 8.265625 
Q 6.59375 17.96875 6.59375 36.375 
Q 6.59375 54.828125 13.0625 64.515625 
Q 19.53125 74.21875 31.78125 74.21875 
z
" id="DejaVuSans-48"/>
        <path d="M 10.6875 12.40625 
L 21 12.40625 
L 21 0 
L 10.6875 0 
z
" id="DejaVuSans-46"/>
       </defs>
       <use xlink:href="#DejaVuSans-48"/>
       <use x="63.623047" xlink:href="#DejaVuSans-46"/>
       <use x="95.410156" xlink:href="#DejaVuSans-48"/>
      </g>
     </g>
    </g>
    <g id="xtick_2">
     <g id="line2d_3">
      <path clip-path="url(#peed7266ab9)" d="M 98.108949 239.758125 
L 98.108949 22.318125 
" style="fill:none;stroke:#b0b0b0;stroke-linecap:square;stroke-width:0.8;"/>
     </g>
     <g id="line2d_4">
      <g>
       <use style="stroke:#000000;stroke-width:0.8;" x="98.108949" xlink:href="#m7c22c0a2da" y="239.758125"/>
      </g>
     </g>
     <g id="text_2">
      <!-- 2.5 -->
      <g transform="translate(90.157386 254.356563)scale(0.1 -0.1)">
       <defs>
        <path d="M 19.1875 8.296875 
L 53.609375 8.296875 
L 53.609375 0 
L 7.328125 0 
L 7.328125 8.296875 
Q 12.9375 14.109375 22.625 23.890625 
Q 32.328125 33.6875 34.8125 36.53125 
Q 39.546875 41.84375 41.421875 45.53125 
Q 43.3125 49.21875 43.3125 52.78125 
Q 43.3125 58.59375 39.234375 62.25 
Q 35.15625 65.921875 28.609375 65.921875 
Q 23.96875 65.921875 18.8125 64.3125 
Q 13.671875 62.703125 7.8125 59.421875 
L 7.8125 69.390625 
Q 13.765625 71.78125 18.9375 73 
Q 24.125 74.21875 28.421875 74.21875 
Q 39.75 74.21875 46.484375 68.546875 
Q 53.21875 62.890625 53.21875 53.421875 
Q 53.21875 48.921875 51.53125 44.890625 
Q 49.859375 40.875 45.40625 35.40625 
Q 44.1875 33.984375 37.640625 27.21875 
Q 31.109375 20.453125 19.1875 8.296875 
z
" id="DejaVuSans-50"/>
        <path d="M 10.796875 72.90625 
L 49.515625 72.90625 
L 49.515625 64.59375 
L 19.828125 64.59375 
L 19.828125 46.734375 
Q 21.96875 47.46875 24.109375 47.828125 
Q 26.265625 48.1875 28.421875 48.1875 
Q 40.625 48.1875 47.75 41.5 
Q 54.890625 34.8125 54.890625 23.390625 
Q 54.890625 11.625 47.5625 5.09375 
Q 40.234375 -1.421875 26.90625 -1.421875 
Q 22.3125 -1.421875 17.546875 -0.640625 
Q 12.796875 0.140625 7.71875 1.703125 
L 7.71875 11.625 
Q 12.109375 9.234375 16.796875 8.0625 
Q 21.484375 6.890625 26.703125 6.890625 
Q 35.15625 6.890625 40.078125 11.328125 
Q 45.015625 15.765625 45.015625 23.390625 
Q 45.015625 31 40.078125 35.4375 
Q 35.15625 39.890625 26.703125 39.890625 
Q 22.75 39.890625 18.8125 39.015625 
Q 14.890625 38.140625 10.796875 36.28125 
z
" id="DejaVuSans-53"/>
       </defs>
       <use xlink:href="#DejaVuSans-50"/>
       <use x="63.623047" xlink:href="#DejaVuSans-46"/>
       <use x="95.410156" xlink:href="#DejaVuSans-53"/>
      </g>
     </g>
    </g>
    <g id="xtick_3">
     <g id="line2d_5">
      <path clip-path="url(#peed7266ab9)" d="M 136.154403 239.758125 
L 136.154403 22.318125 
" style="fill:none;stroke:#b0b0b0;stroke-linecap:square;stroke-width:0.8;"/>
     </g>
     <g id="line2d_6">
      <g>
       <use style="stroke:#000000;stroke-width:0.8;" x="136.154403" xlink:href="#m7c22c0a2da" y="239.758125"/>
      </g>
     </g>
     <g id="text_3">
      <!-- 5.0 -->
      <g transform="translate(128.202841 254.356563)scale(0.1 -0.1)">
       <use xlink:href="#DejaVuSans-53"/>
       <use x="63.623047" xlink:href="#DejaVuSans-46"/>
       <use x="95.410156" xlink:href="#DejaVuSans-48"/>
      </g>
     </g>
    </g>
    <g id="xtick_4">
     <g id="line2d_7">
      <path clip-path="url(#peed7266ab9)" d="M 174.199858 239.758125 
L 174.199858 22.318125 
" style="fill:none;stroke:#b0b0b0;stroke-linecap:square;stroke-width:0.8;"/>
     </g>
     <g id="line2d_8">
      <g>
       <use style="stroke:#000000;stroke-width:0.8;" x="174.199858" xlink:href="#m7c22c0a2da" y="239.758125"/>
      </g>
     </g>
     <g id="text_4">
      <!-- 7.5 -->
      <g transform="translate(166.248295 254.356563)scale(0.1 -0.1)">
       <defs>
        <path d="M 8.203125 72.90625 
L 55.078125 72.90625 
L 55.078125 68.703125 
L 28.609375 0 
L 18.3125 0 
L 43.21875 64.59375 
L 8.203125 64.59375 
z
" id="DejaVuSans-55"/>
       </defs>
       <use xlink:href="#DejaVuSans-55"/>
       <use x="63.623047" xlink:href="#DejaVuSans-46"/>
       <use x="95.410156" xlink:href="#DejaVuSans-53"/>
      </g>
     </g>
    </g>
    <g id="xtick_5">
     <g id="line2d_9">
      <path clip-path="url(#peed7266ab9)" d="M 212.245313 239.758125 
L 212.245313 22.318125 
" style="fill:none;stroke:#b0b0b0;stroke-linecap:square;stroke-width:0.8;"/>
     </g>
     <g id="line2d_10">
      <g>
       <use style="stroke:#000000;stroke-width:0.8;" x="212.245313" xlink:href="#m7c22c0a2da" y="239.758125"/>
      </g>
     </g>
     <g id="text_5">
      <!-- 10.0 -->
      <g transform="translate(201.1125 254.356563)scale(0.1 -0.1)">
       <defs>
        <path d="M 12.40625 8.296875 
L 28.515625 8.296875 
L 28.515625 63.921875 
L 10.984375 60.40625 
L 10.984375 69.390625 
L 28.421875 72.90625 
L 38.28125 72.90625 
L 38.28125 8.296875 
L 54.390625 8.296875 
L 54.390625 0 
L 12.40625 0 
z
" id="DejaVuSans-49"/>
       </defs>
       <use xlink:href="#DejaVuSans-49"/>
       <use x="63.623047" xlink:href="#DejaVuSans-48"/>
       <use x="127.246094" xlink:href="#DejaVuSans-46"/>
       <use x="159.033203" xlink:href="#DejaVuSans-48"/>
      </g>
     </g>
    </g>
    <g id="xtick_6">
     <g id="line2d_11">
      <path clip-path="url(#peed7266ab9)" d="M 250.290767 239.758125 
L 250.290767 22.318125 
" style="fill:none;stroke:#b0b0b0;stroke-linecap:square;stroke-width:0.8;"/>
     </g>
     <g id="line2d_12">
      <g>
       <use style="stroke:#000000;stroke-width:0.8;" x="250.290767" xlink:href="#m7c22c0a2da" y="239.758125"/>
      </g>
     </g>
     <g id="text_6">
      <!-- 12.5 -->
      <g transform="translate(239.157955 254.356563)scale(0.1 -0.1)">
       <use xlink:href="#DejaVuSans-49"/>
       <use x="63.623047" xlink:href="#DejaVuSans-50"/>
       <use x="127.246094" xlink:href="#DejaVuSans-46"/>
       <use x="159.033203" xlink:href="#DejaVuSans-53"/>
      </g>
     </g>
    </g>
    <g id="xtick_7">
     <g id="line2d_13">
      <path clip-path="url(#peed7266ab9)" d="M 288.336222 239.758125 
L 288.336222 22.318125 
" style="fill:none;stroke:#b0b0b0;stroke-linecap:square;stroke-width:0.8;"/>
     </g>
     <g id="line2d_14">
      <g>
       <use style="stroke:#000000;stroke-width:0.8;" x="288.336222" xlink:href="#m7c22c0a2da" y="239.758125"/>
      </g>
     </g>
     <g id="text_7">
      <!-- 15.0 -->
      <g transform="translate(277.203409 254.356563)scale(0.1 -0.1)">
       <use xlink:href="#DejaVuSans-49"/>
       <use x="63.623047" xlink:href="#DejaVuSans-53"/>
       <use x="127.246094" xlink:href="#DejaVuSans-46"/>
       <use x="159.033203" xlink:href="#DejaVuSans-48"/>
      </g>
     </g>
    </g>
    <g id="xtick_8">
     <g id="line2d_15">
      <path clip-path="url(#peed7266ab9)" d="M 326.381676 239.758125 
L 326.381676 22.318125 
" style="fill:none;stroke:#b0b0b0;stroke-linecap:square;stroke-width:0.8;"/>
     </g>
     <g id="line2d_16">
      <g>
       <use style="stroke:#000000;stroke-width:0.8;" x="326.381676" xlink:href="#m7c22c0a2da" y="239.758125"/>
      </g>
     </g>
     <g id="text_8">
      <!-- 17.5 -->
      <g transform="translate(315.248864 254.356563)scale(0.1 -0.1)">
       <use xlink:href="#DejaVuSans-49"/>
       <use x="63.623047" xlink:href="#DejaVuSans-55"/>
       <use x="127.246094" xlink:href="#DejaVuSans-46"/>
       <use x="159.033203" xlink:href="#DejaVuSans-53"/>
      </g>
     </g>
    </g>
    <g id="xtick_9">
     <g id="line2d_17">
      <path clip-path="url(#peed7266ab9)" d="M 364.427131 239.758125 
L 364.427131 22.318125 
" style="fill:none;stroke:#b0b0b0;stroke-linecap:square;stroke-width:0.8;"/>
     </g>
     <g id="line2d_18">
      <g>
       <use style="stroke:#000000;stroke-width:0.8;" x="364.427131" xlink:href="#m7c22c0a2da" y="239.758125"/>
      </g>
     </g>
     <g id="text_9">
      <!-- 20.0 -->
      <g transform="translate(353.294318 254.356563)scale(0.1 -0.1)">
       <use xlink:href="#DejaVuSans-50"/>
       <use x="63.623047" xlink:href="#DejaVuSans-48"/>
       <use x="127.246094" xlink:href="#DejaVuSans-46"/>
       <use x="159.033203" xlink:href="#DejaVuSans-48"/>
      </g>
     </g>
    </g>
   </g>
   <g id="matplotlib.axis_2">
    <g id="ytick_1">
     <g id="line2d_19">
      <path clip-path="url(#peed7266ab9)" d="M 44.845313 229.874489 
L 379.645313 229.874489 
" style="fill:none;stroke:#b0b0b0;stroke-linecap:square;stroke-width:0.8;"/>
     </g>
     <g id="line2d_20">
      <defs>
       <path d="M 0 0 
L -3.5 0 
" id="m7b89e54e62" style="stroke:#000000;stroke-width:0.8;"/>
      </defs>
      <g>
       <use style="stroke:#000000;stroke-width:0.8;" x="44.845313" xlink:href="#m7b89e54e62" y="229.874489"/>
      </g>
     </g>
     <g id="text_10">
      <!-- −1.00 -->
      <g transform="translate(7.2 233.673707)scale(0.1 -0.1)">
       <defs>
        <path d="M 10.59375 35.5 
L 73.1875 35.5 
L 73.1875 27.203125 
L 10.59375 27.203125 
z
" id="DejaVuSans-8722"/>
       </defs>
       <use xlink:href="#DejaVuSans-8722"/>
       <use x="83.789062" xlink:href="#DejaVuSans-49"/>
       <use x="147.412109" xlink:href="#DejaVuSans-46"/>
       <use x="179.199219" xlink:href="#DejaVuSans-48"/>
       <use x="242.822266" xlink:href="#DejaVuSans-48"/>
      </g>
     </g>
    </g>
    <g id="ytick_2">
     <g id="line2d_21">
      <path clip-path="url(#peed7266ab9)" d="M 44.845313 204.723354 
L 379.645313 204.723354 
" style="fill:none;stroke:#b0b0b0;stroke-linecap:square;stroke-width:0.8;"/>
     </g>
     <g id="line2d_22">
      <g>
       <use style="stroke:#000000;stroke-width:0.8;" x="44.845313" xlink:href="#m7b89e54e62" y="204.723354"/>
      </g>
     </g>
     <g id="text_11">
      <!-- −0.75 -->
      <g transform="translate(7.2 208.522573)scale(0.1 -0.1)">
       <use xlink:href="#DejaVuSans-8722"/>
       <use x="83.789062" xlink:href="#DejaVuSans-48"/>
       <use x="147.412109" xlink:href="#DejaVuSans-46"/>
       <use x="179.199219" xlink:href="#DejaVuSans-55"/>
       <use x="242.822266" xlink:href="#DejaVuSans-53"/>
      </g>
     </g>
    </g>
    <g id="ytick_3">
     <g id="line2d_23">
      <path clip-path="url(#peed7266ab9)" d="M 44.845313 179.57222 
L 379.645313 179.57222 
" style="fill:none;stroke:#b0b0b0;stroke-linecap:square;stroke-width:0.8;"/>
     </g>
     <g id="line2d_24">
      <g>
       <use style="stroke:#000000;stroke-width:0.8;" x="44.845313" xlink:href="#m7b89e54e62" y="179.57222"/>
      </g>
     </g>
     <g id="text_12">
      <!-- −0.50 -->
      <g transform="translate(7.2 183.371438)scale(0.1 -0.1)">
       <use xlink:href="#DejaVuSans-8722"/>
       <use x="83.789062" xlink:href="#DejaVuSans-48"/>
       <use x="147.412109" xlink:href="#DejaVuSans-46"/>
       <use x="179.199219" xlink:href="#DejaVuSans-53"/>
       <use x="242.822266" xlink:href="#DejaVuSans-48"/>
      </g>
     </g>
    </g>
    <g id="ytick_4">
     <g id="line2d_25">
      <path clip-path="url(#peed7266ab9)" d="M 44.845313 154.421085 
L 379.645313 154.421085 
" style="fill:none;stroke:#b0b0b0;stroke-linecap:square;stroke-width:0.8;"/>
     </g>
     <g id="line2d_26">
      <g>
       <use style="stroke:#000000;stroke-width:0.8;" x="44.845313" xlink:href="#m7b89e54e62" y="154.421085"/>
      </g>
     </g>
     <g id="text_13">
      <!-- −0.25 -->
      <g transform="translate(7.2 158.220304)scale(0.1 -0.1)">
       <use xlink:href="#DejaVuSans-8722"/>
       <use x="83.789062" xlink:href="#DejaVuSans-48"/>
       <use x="147.412109" xlink:href="#DejaVuSans-46"/>
       <use x="179.199219" xlink:href="#DejaVuSans-50"/>
       <use x="242.822266" xlink:href="#DejaVuSans-53"/>
      </g>
     </g>
    </g>
    <g id="ytick_5">
     <g id="line2d_27">
      <path clip-path="url(#peed7266ab9)" d="M 44.845313 129.269951 
L 379.645313 129.269951 
" style="fill:none;stroke:#b0b0b0;stroke-linecap:square;stroke-width:0.8;"/>
     </g>
     <g id="line2d_28">
      <g>
       <use style="stroke:#000000;stroke-width:0.8;" x="44.845313" xlink:href="#m7b89e54e62" y="129.269951"/>
      </g>
     </g>
     <g id="text_14">
      <!-- 0.00 -->
      <g transform="translate(15.579688 133.069169)scale(0.1 -0.1)">
       <use xlink:href="#DejaVuSans-48"/>
       <use x="63.623047" xlink:href="#DejaVuSans-46"/>
       <use x="95.410156" xlink:href="#DejaVuSans-48"/>
       <use x="159.033203" xlink:href="#DejaVuSans-48"/>
      </g>
     </g>
    </g>
    <g id="ytick_6">
     <g id="line2d_29">
      <path clip-path="url(#peed7266ab9)" d="M 44.845313 104.118816 
L 379.645313 104.118816 
" style="fill:none;stroke:#b0b0b0;stroke-linecap:square;stroke-width:0.8;"/>
     </g>
     <g id="line2d_30">
      <g>
       <use style="stroke:#000000;stroke-width:0.8;" x="44.845313" xlink:href="#m7b89e54e62" y="104.118816"/>
      </g>
     </g>
     <g id="text_15">
      <!-- 0.25 -->
      <g transform="translate(15.579688 107.918035)scale(0.1 -0.1)">
       <use xlink:href="#DejaVuSans-48"/>
       <use x="63.623047" xlink:href="#DejaVuSans-46"/>
       <use x="95.410156" xlink:href="#DejaVuSans-50"/>
       <use x="159.033203" xlink:href="#DejaVuSans-53"/>
      </g>
     </g>
    </g>
    <g id="ytick_7">
     <g id="line2d_31">
      <path clip-path="url(#peed7266ab9)" d="M 44.845313 78.967681 
L 379.645313 78.967681 
" style="fill:none;stroke:#b0b0b0;stroke-linecap:square;stroke-width:0.8;"/>
     </g>
     <g id="line2d_32">
      <g>
       <use style="stroke:#000000;stroke-width:0.8;" x="44.845313" xlink:href="#m7b89e54e62" y="78.967681"/>
      </g>
     </g>
     <g id="text_16">
      <!-- 0.50 -->
      <g transform="translate(15.579688 82.7669)scale(0.1 -0.1)">
       <use xlink:href="#DejaVuSans-48"/>
       <use x="63.623047" xlink:href="#DejaVuSans-46"/>
       <use x="95.410156" xlink:href="#DejaVuSans-53"/>
       <use x="159.033203" xlink:href="#DejaVuSans-48"/>
      </g>
     </g>
    </g>
    <g id="ytick_8">
     <g id="line2d_33">
      <path clip-path="url(#peed7266ab9)" d="M 44.845313 53.816547 
L 379.645313 53.816547 
" style="fill:none;stroke:#b0b0b0;stroke-linecap:square;stroke-width:0.8;"/>
     </g>
     <g id="line2d_34">
      <g>
       <use style="stroke:#000000;stroke-width:0.8;" x="44.845313" xlink:href="#m7b89e54e62" y="53.816547"/>
      </g>
     </g>
     <g id="text_17">
      <!-- 0.75 -->
      <g transform="translate(15.579688 57.615766)scale(0.1 -0.1)">
       <use xlink:href="#DejaVuSans-48"/>
       <use x="63.623047" xlink:href="#DejaVuSans-46"/>
       <use x="95.410156" xlink:href="#DejaVuSans-55"/>
       <use x="159.033203" xlink:href="#DejaVuSans-53"/>
      </g>
     </g>
    </g>
    <g id="ytick_9">
     <g id="line2d_35">
      <path clip-path="url(#peed7266ab9)" d="M 44.845313 28.665412 
L 379.645313 28.665412 
" style="fill:none;stroke:#b0b0b0;stroke-linecap:square;stroke-width:0.8;"/>
     </g>
     <g id="line2d_36">
      <g>
       <use style="stroke:#000000;stroke-width:0.8;" x="44.845313" xlink:href="#m7b89e54e62" y="28.665412"/>
      </g>
     </g>
     <g id="text_18">
      <!-- 1.00 -->
      <g transform="translate(15.579688 32.464631)scale(0.1 -0.1)">
       <use xlink:href="#DejaVuSans-49"/>
       <use x="63.623047" xlink:href="#DejaVuSans-46"/>
       <use x="95.410156" xlink:href="#DejaVuSans-48"/>
       <use x="159.033203" xlink:href="#DejaVuSans-48"/>
      </g>
     </g>
    </g>
   </g>
   <g id="line2d_37">
    <path clip-path="url(#peed7266ab9)" d="M 60.063494 229.874489 
L 60.368163 229.783788 
L 60.672831 229.511977 
L 61.282168 228.429119 
L 61.891504 226.63988 
L 62.500841 224.167323 
L 63.414846 219.24924 
L 64.328851 213.009486 
L 65.547524 202.949786 
L 67.070865 188.31559 
L 71.945558 139.48 
L 73.164231 129.943951 
L 74.078236 124.130949 
L 74.992241 119.626547 
L 75.601578 117.401563 
L 76.210914 115.821741 
L 76.820251 114.896337 
L 77.124919 114.679396 
L 77.429588 114.62532 
L 77.734256 114.732659 
L 78.038924 114.999385 
L 78.648261 116.000087 
L 79.257598 117.600107 
L 79.866934 119.763631 
L 80.780939 123.967621 
L 81.999612 131.076375 
L 83.522954 141.650202 
L 87.178973 167.990999 
L 88.397647 174.932843 
L 89.311652 178.961949 
L 89.920988 180.982639 
L 90.530325 182.416997 
L 91.139661 183.227516 
L 91.44433 183.389403 
L 91.748998 183.3851 
L 92.053666 183.212354 
L 92.358335 182.869478 
L 92.967671 181.669489 
L 93.577008 179.783251 
L 94.186344 177.218205 
L 95.100349 172.13681 
L 96.014354 165.661688 
L 97.233027 155.102182 
L 98.756369 139.429618 
L 101.193715 111.188655 
L 103.631062 83.439369 
L 105.154403 68.550876 
L 106.373077 58.854161 
L 107.287082 53.146664 
L 108.201086 48.922058 
L 108.810423 46.970903 
L 109.41976 45.727721 
L 109.724428 45.372944 
L 110.029096 45.19558 
L 110.333765 45.194553 
L 110.638433 45.368209 
L 110.943101 45.714322 
L 111.552438 46.912195 
L 112.161774 48.759254 
L 112.771111 51.218125 
L 113.685116 55.952428 
L 114.903789 63.923925 
L 116.427131 75.812787 
L 120.692487 110.805234 
L 121.91116 118.655617 
L 122.825165 123.317714 
L 123.73917 126.750783 
L 124.348507 128.296929 
L 124.957843 129.219623 
L 125.262512 129.442094 
L 125.56718 129.503751 
L 125.871848 129.404144 
L 126.176516 129.143405 
L 126.785853 128.141962 
L 127.39519 126.51204 
L 128.004526 124.275331 
L 128.918531 119.851481 
L 129.832536 114.270405 
L 131.051209 105.337051 
L 132.879219 89.794344 
L 136.23057 60.792161 
L 137.449244 52.113288 
L 138.363249 46.811299 
L 139.277254 42.758312 
L 139.88659 40.828079 
L 140.495927 39.558273 
L 141.105263 38.976198 
L 141.409932 38.949157 
L 141.7146 39.100225 
L 142.019268 39.43026 
L 142.628605 40.627741 
L 143.237941 42.536781 
L 143.847278 45.143271 
L 144.761283 50.307524 
L 145.675288 56.871716 
L 146.893961 67.526672 
L 148.417303 83.228144 
L 151.159317 114.727445 
L 153.291996 138.228592 
L 154.815337 152.500957 
L 156.03401 161.662338 
L 156.948015 166.972481 
L 157.86202 170.826808 
L 158.471357 172.557264 
L 159.080693 173.608643 
L 159.385362 173.880499 
L 159.69003 173.984733 
L 159.994698 173.923263 
L 160.299367 173.698573 
L 160.908703 172.772257 
L 161.51804 171.236623 
L 162.127376 169.130816 
L 163.041381 165.007597 
L 164.260055 158.009645 
L 165.783396 147.602187 
L 169.439416 121.856185 
L 170.658089 115.156657 
L 171.572094 111.307989 
L 172.18143 109.401611 
L 172.790767 108.072983 
L 173.400104 107.356101 
L 173.704772 107.235352 
L 174.00944 107.276376 
L 174.314109 107.480949 
L 174.923445 108.384965 
L 175.532782 109.950047 
L 176.142118 112.169536 
L 177.056123 116.68858 
L 177.970128 122.550922 
L 179.188801 132.219509 
L 180.712143 146.668077 
L 183.149489 172.720062 
L 185.586836 198.026226 
L 186.805509 208.849196 
L 188.024182 217.725357 
L 188.938187 222.842066 
L 189.852192 226.482172 
L 190.461529 228.039958 
L 191.070865 228.881552 
L 191.375534 229.031021 
L 191.680202 228.999304 
L 191.98487 228.786903 
L 192.594207 227.824988 
L 193.203543 226.160904 
L 193.81288 223.819324 
L 194.726885 219.11194 
L 195.64089 213.104105 
L 196.859563 203.393491 
L 198.382905 189.269354 
L 202.952929 145.139706 
L 204.171602 135.805505 
L 205.085607 130.095456 
L 205.999612 125.660424 
L 206.608949 123.466946 
L 207.218285 121.909736 
L 207.827622 121.00061 
L 208.13229 120.790239 
L 208.436959 120.74212 
L 208.741627 120.855121 
L 209.046295 121.127535 
L 209.655632 122.14093 
L 210.264969 123.757423 
L 210.874305 125.943515 
L 211.78831 130.197454 
L 213.006983 137.412646 
L 214.530325 148.199803 
L 218.491013 177.451808 
L 219.709686 184.42223 
L 220.623691 188.422286 
L 221.233027 190.401961 
L 221.842364 191.779715 
L 222.451701 192.519665 
L 222.756369 192.641566 
L 223.061037 192.594438 
L 223.365706 192.376253 
L 223.975042 191.421473 
L 224.584379 189.772556 
L 225.193715 187.434157 
L 226.10772 182.666756 
L 227.021725 176.466616 
L 228.240398 166.199072 
L 229.76374 150.74857 
L 231.896418 126.120264 
L 234.943101 90.930109 
L 236.466443 76.002057 
L 237.685116 66.295827 
L 238.599121 60.586898 
L 239.513126 56.359777 
L 240.122462 54.403493 
L 240.731799 53.150359 
L 241.036467 52.788241 
L 241.341136 52.601661 
L 241.645804 52.589325 
L 241.950472 52.749361 
L 242.255141 53.079326 
L 242.864477 54.236488 
L 243.473814 56.030273 
L 244.08315 58.421783 
L 244.997155 63.025623 
L 246.215828 70.762101 
L 247.73917 82.249417 
L 251.699858 113.408877 
L 252.918531 121.011395 
L 253.832536 125.52252 
L 254.746541 128.827203 
L 255.355878 130.296601 
L 255.965214 131.14684 
L 256.269883 131.333921 
L 256.574551 131.360324 
L 256.879219 131.225284 
L 257.183887 130.928615 
L 257.793224 129.852549 
L 258.402561 128.142236 
L 259.011897 125.816915 
L 259.925902 121.239645 
L 260.839907 115.474094 
L 262.05858 106.235593 
L 263.88659 90.085808 
L 267.54261 56.965836 
L 268.761283 47.952312 
L 269.675288 42.439264 
L 270.589293 38.205197 
L 271.198629 36.16864 
L 271.807966 34.802274 
L 272.417303 34.131794 
L 272.721971 34.063088 
L 273.026639 34.173899 
L 273.331308 34.464869 
L 273.940644 35.586933 
L 274.549981 37.422734 
L 275.159317 39.956461 
L 276.073322 45.008862 
L 276.987327 51.45332 
L 278.206 61.928347 
L 279.729342 77.35993 
L 282.776025 111.644082 
L 284.604035 131.084554 
L 286.127376 144.849077 
L 287.34605 153.587134 
L 288.260055 158.578454 
L 289.174059 162.119678 
L 289.783396 163.647773 
L 290.392733 164.504165 
L 290.697401 164.681902 
L 291.002069 164.694586 
L 291.306738 164.544372 
L 291.916074 163.766679 
L 292.525411 162.377143 
L 293.134747 160.412528 
L 294.048752 156.487107 
L 294.962757 151.550907 
L 296.18143 143.767297 
L 298.923445 124.085283 
L 300.446787 113.886081 
L 301.66546 107.111717 
L 302.579465 103.18041 
L 303.188801 101.209907 
L 303.798138 99.812485 
L 304.407475 99.02451 
L 304.712143 98.868127 
L 305.016811 98.873884 
L 305.32148 99.043883 
L 305.626148 99.379654 
L 306.235484 100.551737 
L 306.844821 102.390772 
L 307.454158 104.888101 
L 308.368163 109.826874 
L 309.282168 116.10682 
L 310.500841 126.318654 
L 312.024182 141.407464 
L 314.766197 171.761694 
L 316.898875 194.369802 
L 318.117548 205.48238 
L 319.336222 214.613399 
L 320.250227 219.904305 
L 321.164231 223.709493 
L 321.773568 225.374914 
L 322.382905 226.324146 
L 322.687573 226.527966 
L 322.992241 226.551238 
L 323.29691 226.394679 
L 323.601578 226.059588 
L 324.210914 224.861892 
L 324.820251 222.979966 
L 325.429588 220.444445 
L 326.343593 215.503226 
L 327.257598 209.345324 
L 328.476271 199.590155 
L 330.304281 182.785172 
L 333.655632 151.551064 
L 334.874305 142.056162 
L 336.092978 134.383173 
L 337.006983 130.059143 
L 337.61632 127.925659 
L 338.225656 126.420086 
L 338.834993 125.55676 
L 339.139661 125.367901 
L 339.44433 125.340794 
L 339.748998 125.474627 
L 340.053666 125.76801 
L 340.663003 126.825002 
L 341.27234 128.489325 
L 341.881676 130.729809 
L 342.795681 135.082364 
L 344.014354 142.470792 
L 345.537696 153.558353 
L 349.803052 186.114337 
L 351.021725 193.191888 
L 351.93573 197.223964 
L 352.545067 199.20436 
L 353.154403 200.568057 
L 353.76374 201.280778 
L 354.068408 201.384654 
L 354.373077 201.316852 
L 354.677745 201.07557 
L 355.287082 200.068227 
L 355.896418 198.359783 
L 356.505755 195.95673 
L 357.41976 191.086694 
L 358.333765 184.782368 
L 359.552438 174.382914 
L 361.075779 158.794335 
L 363.208457 134.050554 
L 364.427131 119.517319 
L 364.427131 119.517319 
" style="fill:none;stroke:#000000;stroke-linecap:square;stroke-width:1.5;"/>
   </g>
   <g id="line2d_38">
    <path clip-path="url(#peed7266ab9)" d="M 60.063494 129.269951 
L 60.368163 129.18933 
L 60.672831 128.947759 
L 61.282168 127.985828 
L 61.891504 126.398025 
L 62.500841 124.207254 
L 63.414846 119.861992 
L 64.328851 114.374287 
L 65.547524 105.593729 
L 67.375534 90.351698 
L 70.422217 64.460602 
L 71.64089 55.742716 
L 72.554895 50.348553 
L 73.4689 46.157435 
L 74.078236 44.11378 
L 74.687573 42.716733 
L 75.29691 41.996571 
L 75.601578 41.897385 
L 75.906246 41.974763 
L 76.210914 42.229963 
L 76.820251 43.275946 
L 77.429588 45.033724 
L 78.038924 47.492364 
L 78.952929 52.447992 
L 79.866934 58.8281 
L 81.085607 69.29118 
L 82.608949 84.86334 
L 85.046295 112.927721 
L 87.483642 140.455126 
L 89.006983 155.207094 
L 90.225656 164.822222 
L 91.139661 170.499573 
L 92.053666 174.732844 
L 92.663003 176.717114 
L 93.27234 178.01943 
L 93.881676 178.640293 
L 94.186344 178.69788 
L 94.491013 178.589494 
L 94.795681 178.317788 
L 95.405018 177.297781 
L 96.014354 175.669958 
L 96.623691 173.474652 
L 97.537696 169.224617 
L 98.756369 162.076393 
L 100.279711 151.519439 
L 103.631062 127.520499 
L 104.849735 120.435695 
L 105.76374 116.235097 
L 106.677745 113.193094 
L 107.287082 111.881853 
L 107.896418 111.183501 
L 108.201086 111.072058 
L 108.505755 111.122203 
L 108.810423 111.33555 
L 109.41976 112.255424 
L 110.029096 113.833014 
L 110.638433 116.060358 
L 111.552438 120.579669 
L 112.466443 126.42482 
L 113.685116 136.036879 
L 115.208457 150.350439 
L 117.950472 179.260572 
L 120.08315 200.71807 
L 121.301824 211.165183 
L 122.520497 219.624935 
L 123.434502 224.408116 
L 124.043838 226.775625 
L 124.653175 228.451137 
L 125.262512 229.414655 
L 125.56718 229.625672 
L 125.871848 229.655361 
L 126.176516 229.503828 
L 126.481185 229.171764 
L 127.090521 227.971717 
L 127.699858 226.072308 
L 128.309195 223.499631 
L 129.223199 218.456481 
L 130.137204 212.129682 
L 131.355878 202.026291 
L 133.183887 184.398687 
L 137.144575 145.150512 
L 138.363249 135.264795 
L 139.581922 127.311839 
L 140.495927 122.83606 
L 141.105263 120.622707 
L 141.7146 119.050014 
L 142.323937 118.12852 
L 142.628605 117.912731 
L 142.933273 117.859489 
L 143.237941 117.967503 
L 143.54261 118.234905 
L 144.151946 119.237585 
L 144.761283 120.841428 
L 145.37062 123.011775 
L 146.284625 127.233954 
L 147.503298 134.386684 
L 149.026639 145.055248 
L 152.682659 171.829231 
L 153.901332 178.97458 
L 154.815337 183.170371 
L 155.729342 186.159053 
L 156.338679 187.405013 
L 156.948015 188.012198 
L 157.252684 188.067764 
L 157.557352 187.954559 
L 157.86202 187.670727 
L 158.471357 186.586639 
L 159.080693 184.812229 
L 159.69003 182.353551 
L 160.604035 177.418506 
L 161.51804 171.069999 
L 162.736713 160.641685 
L 164.260055 145.061353 
L 166.392733 120.404508 
L 169.134747 88.737929 
L 170.658089 73.552079 
L 171.876762 63.56311 
L 172.790767 57.610465 
L 173.704772 53.123236 
L 174.314109 50.989581 
L 174.923445 49.559626 
L 175.532782 48.837887 
L 175.83745 48.741455 
L 176.142118 48.819541 
L 176.446787 49.070096 
L 177.056123 50.077589 
L 177.66546 51.736381 
L 178.274797 54.010391 
L 179.188801 58.476428 
L 180.102806 64.046393 
L 181.32148 72.821419 
L 183.454158 90.254966 
L 185.586836 107.471893 
L 186.805509 115.959371 
L 188.024182 122.797802 
L 188.938187 126.585588 
L 189.547524 128.393504 
L 190.15686 129.591758 
L 190.766197 130.159482 
L 191.070865 130.202851 
L 191.375534 130.084889 
L 191.680202 129.805568 
L 192.289539 128.765646 
L 192.898875 127.094453 
L 193.508212 124.812457 
L 194.422217 120.310615 
L 195.336222 114.636265 
L 196.554895 105.549386 
L 198.382905 89.702782 
L 201.734256 59.893571 
L 202.952929 50.847285 
L 203.866934 45.249309 
L 204.780939 40.886737 
L 205.390276 38.744563 
L 205.999612 37.259903 
L 206.608949 36.461449 
L 206.913617 36.326092 
L 207.218285 36.369002 
L 207.522954 36.59122 
L 208.13229 37.574827 
L 208.741627 39.273564 
L 209.350964 41.674772 
L 210.264969 46.543596 
L 211.178973 52.831348 
L 212.397647 63.154294 
L 213.920988 78.510811 
L 216.358335 106.109847 
L 218.795681 133.018987 
L 220.319023 147.323902 
L 221.537696 156.563072 
L 222.451701 161.956064 
L 223.365706 165.90961 
L 223.975042 167.713111 
L 224.584379 168.841478 
L 224.889047 169.152882 
L 225.193715 169.297141 
L 225.498384 169.276004 
L 225.803052 169.091792 
L 226.412389 168.246218 
L 227.021725 166.789995 
L 227.631062 164.761079 
L 228.545067 160.746078 
L 229.459072 155.731454 
L 230.677745 147.865236 
L 235.552438 114.372927 
L 236.466443 109.790459 
L 237.380448 106.289943 
L 237.989784 104.640151 
L 238.599121 103.584415 
L 238.903789 103.289334 
L 239.208457 103.153709 
L 239.513126 103.180044 
L 239.817794 103.370277 
L 240.427131 104.247318 
L 241.036467 105.788795 
L 241.645804 107.989366 
L 242.559809 112.491637 
L 243.473814 118.354824 
L 244.692487 128.058504 
L 246.215828 142.616132 
L 248.348507 165.640096 
L 251.090521 194.892972 
L 252.613863 208.595326 
L 253.832536 217.326865 
L 254.746541 222.295794 
L 255.355878 224.781222 
L 255.965214 226.571756 
L 256.574551 227.649047 
L 256.879219 227.917009 
L 257.183887 228.003965 
L 257.488556 227.910233 
L 257.793224 227.636717 
L 258.402561 226.55684 
L 259.011897 224.783074 
L 259.621234 222.343094 
L 260.535239 217.515463 
L 261.449244 211.427961 
L 262.667917 201.687144 
L 264.495927 184.70908 
L 268.151946 149.872833 
L 269.37062 140.236831 
L 270.589293 132.458833 
L 271.503298 128.07498 
L 272.112634 125.908514 
L 272.721971 124.374061 
L 273.331308 123.484701 
L 273.635976 123.283494 
L 273.940644 123.244271 
L 274.245313 123.366062 
L 274.549981 123.647317 
L 275.159317 124.679174 
L 275.768654 126.316179 
L 276.377991 128.525994 
L 277.291996 132.823894 
L 278.510669 140.118296 
L 280.03401 151.045879 
L 283.994698 180.909926 
L 285.213371 188.134023 
L 286.127376 192.338647 
L 286.736713 194.459588 
L 287.34605 195.981155 
L 287.955386 196.866203 
L 288.260055 197.060721 
L 288.564723 197.086032 
L 288.869391 196.939933 
L 289.174059 196.620795 
L 289.783396 195.459777 
L 290.392733 193.601557 
L 291.002069 191.054043 
L 291.916074 185.980308 
L 292.830079 179.49185 
L 294.048752 168.88441 
L 295.572094 153.107719 
L 298.00944 124.608301 
L 300.446787 96.494849 
L 301.970128 81.324112 
L 303.188801 71.369046 
L 304.102806 65.447358 
L 305.016811 60.989842 
L 305.626148 58.87244 
L 306.235484 57.45382 
L 306.844821 56.736697 
L 307.149489 56.639494 
L 307.454158 56.714461 
L 307.758826 56.959332 
L 308.368163 57.94691 
L 308.977499 59.573025 
L 309.586836 61.800046 
L 310.500841 66.16567 
L 311.414846 71.595622 
L 312.633519 80.116706 
L 315.070865 99.347456 
L 316.898875 113.233929 
L 318.117548 121.110107 
L 319.031553 125.918705 
L 319.945558 129.583308 
L 320.554895 131.318924 
L 321.164231 132.450035 
L 321.773568 132.953332 
L 322.078236 132.964725 
L 322.382905 132.814521 
L 322.687573 132.502375 
L 323.29691 131.393782 
L 323.906246 129.647788 
L 324.515583 127.2824 
L 325.429588 122.634219 
L 326.343593 116.781505 
L 327.562266 107.395924 
L 329.085607 93.820466 
L 333.350964 54.422351 
L 334.569637 45.453138 
L 335.483642 40.031028 
L 336.397647 35.928857 
L 337.006983 33.9986 
L 337.61632 32.749875 
L 337.920988 32.388524 
L 338.225656 32.205349 
L 338.530325 32.201761 
L 338.834993 32.378588 
L 339.139661 32.736073 
L 339.748998 33.991064 
L 340.358335 35.957008 
L 340.967671 38.614968 
L 341.881676 43.836067 
L 342.795681 50.419604 
L 344.014354 61.019437 
L 345.537696 76.487133 
L 351.021725 134.908521 
L 352.240398 144.739726 
L 353.154403 150.683231 
L 354.068408 155.254017 
L 354.677745 157.494367 
L 355.287082 159.071391 
L 355.896418 159.980174 
L 356.201086 160.184987 
L 356.505755 160.225112 
L 356.810423 160.10254 
L 357.115091 159.819829 
L 357.724428 158.786988 
L 358.333765 157.157961 
L 358.943101 154.972391 
L 359.857106 150.756071 
L 361.075779 143.685526 
L 362.599121 133.273298 
L 364.427131 120.017189 
L 364.427131 120.017189 
" style="fill:none;stroke:#0000ff;stroke-linecap:square;stroke-width:1.5;"/>
   </g>
   <g id="patch_3">
    <path d="M 44.845313 239.758125 
L 44.845313 22.318125 
" style="fill:none;stroke:#000000;stroke-linecap:square;stroke-linejoin:miter;stroke-width:0.8;"/>
   </g>
   <g id="patch_4">
    <path d="M 379.645313 239.758125 
L 379.645313 22.318125 
" style="fill:none;stroke:#000000;stroke-linecap:square;stroke-linejoin:miter;stroke-width:0.8;"/>
   </g>
   <g id="patch_5">
    <path d="M 44.845313 239.758125 
L 379.645313 239.758125 
" style="fill:none;stroke:#000000;stroke-linecap:square;stroke-linejoin:miter;stroke-width:0.8;"/>
   </g>
   <g id="patch_6">
    <path d="M 44.845313 22.318125 
L 379.645313 22.318125 
" style="fill:none;stroke:#000000;stroke-linecap:square;stroke-linejoin:miter;stroke-width:0.8;"/>
   </g>
   <g id="text_19">
    <!-- Unknown mode -->
    <g transform="translate(165.470625 16.318125)scale(0.12 -0.12)">
     <defs>
      <path d="M 8.6875 72.90625 
L 18.609375 72.90625 
L 18.609375 28.609375 
Q 18.609375 16.890625 22.84375 11.734375 
Q 27.09375 6.59375 36.625 6.59375 
Q 46.09375 6.59375 50.34375 11.734375 
Q 54.59375 16.890625 54.59375 28.609375 
L 54.59375 72.90625 
L 64.5 72.90625 
L 64.5 27.390625 
Q 64.5 13.140625 57.4375 5.859375 
Q 50.390625 -1.421875 36.625 -1.421875 
Q 22.796875 -1.421875 15.734375 5.859375 
Q 8.6875 13.140625 8.6875 27.390625 
z
" id="DejaVuSans-85"/>
      <path d="M 54.890625 33.015625 
L 54.890625 0 
L 45.90625 0 
L 45.90625 32.71875 
Q 45.90625 40.484375 42.875 44.328125 
Q 39.84375 48.1875 33.796875 48.1875 
Q 26.515625 48.1875 22.3125 43.546875 
Q 18.109375 38.921875 18.109375 30.90625 
L 18.109375 0 
L 9.078125 0 
L 9.078125 54.6875 
L 18.109375 54.6875 
L 18.109375 46.1875 
Q 21.34375 51.125 25.703125 53.5625 
Q 30.078125 56 35.796875 56 
Q 45.21875 56 50.046875 50.171875 
Q 54.890625 44.34375 54.890625 33.015625 
z
" id="DejaVuSans-110"/>
      <path d="M 9.078125 75.984375 
L 18.109375 75.984375 
L 18.109375 31.109375 
L 44.921875 54.6875 
L 56.390625 54.6875 
L 27.390625 29.109375 
L 57.625 0 
L 45.90625 0 
L 18.109375 26.703125 
L 18.109375 0 
L 9.078125 0 
z
" id="DejaVuSans-107"/>
      <path d="M 30.609375 48.390625 
Q 23.390625 48.390625 19.1875 42.75 
Q 14.984375 37.109375 14.984375 27.296875 
Q 14.984375 17.484375 19.15625 11.84375 
Q 23.34375 6.203125 30.609375 6.203125 
Q 37.796875 6.203125 41.984375 11.859375 
Q 46.1875 17.53125 46.1875 27.296875 
Q 46.1875 37.015625 41.984375 42.703125 
Q 37.796875 48.390625 30.609375 48.390625 
z
M 30.609375 56 
Q 42.328125 56 49.015625 48.375 
Q 55.71875 40.765625 55.71875 27.296875 
Q 55.71875 13.875 49.015625 6.21875 
Q 42.328125 -1.421875 30.609375 -1.421875 
Q 18.84375 -1.421875 12.171875 6.21875 
Q 5.515625 13.875 5.515625 27.296875 
Q 5.515625 40.765625 12.171875 48.375 
Q 18.84375 56 30.609375 56 
z
" id="DejaVuSans-111"/>
      <path d="M 4.203125 54.6875 
L 13.1875 54.6875 
L 24.421875 12.015625 
L 35.59375 54.6875 
L 46.1875 54.6875 
L 57.421875 12.015625 
L 68.609375 54.6875 
L 77.59375 54.6875 
L 63.28125 0 
L 52.6875 0 
L 40.921875 44.828125 
L 29.109375 0 
L 18.5 0 
z
" id="DejaVuSans-119"/>
      <path id="DejaVuSans-32"/>
      <path d="M 52 44.1875 
Q 55.375 50.25 60.0625 53.125 
Q 64.75 56 71.09375 56 
Q 79.640625 56 84.28125 50.015625 
Q 88.921875 44.046875 88.921875 33.015625 
L 88.921875 0 
L 79.890625 0 
L 79.890625 32.71875 
Q 79.890625 40.578125 77.09375 44.375 
Q 74.3125 48.1875 68.609375 48.1875 
Q 61.625 48.1875 57.5625 43.546875 
Q 53.515625 38.921875 53.515625 30.90625 
L 53.515625 0 
L 44.484375 0 
L 44.484375 32.71875 
Q 44.484375 40.625 41.703125 44.40625 
Q 38.921875 48.1875 33.109375 48.1875 
Q 26.21875 48.1875 22.15625 43.53125 
Q 18.109375 38.875 18.109375 30.90625 
L 18.109375 0 
L 9.078125 0 
L 9.078125 54.6875 
L 18.109375 54.6875 
L 18.109375 46.1875 
Q 21.1875 51.21875 25.484375 53.609375 
Q 29.78125 56 35.6875 56 
Q 41.65625 56 45.828125 52.96875 
Q 50 49.953125 52 44.1875 
z
" id="DejaVuSans-109"/>
      <path d="M 45.40625 46.390625 
L 45.40625 75.984375 
L 54.390625 75.984375 
L 54.390625 0 
L 45.40625 0 
L 45.40625 8.203125 
Q 42.578125 3.328125 38.25 0.953125 
Q 33.9375 -1.421875 27.875 -1.421875 
Q 17.96875 -1.421875 11.734375 6.484375 
Q 5.515625 14.40625 5.515625 27.296875 
Q 5.515625 40.1875 11.734375 48.09375 
Q 17.96875 56 27.875 56 
Q 33.9375 56 38.25 53.625 
Q 42.578125 51.265625 45.40625 46.390625 
z
M 14.796875 27.296875 
Q 14.796875 17.390625 18.875 11.75 
Q 22.953125 6.109375 30.078125 6.109375 
Q 37.203125 6.109375 41.296875 11.75 
Q 45.40625 17.390625 45.40625 27.296875 
Q 45.40625 37.203125 41.296875 42.84375 
Q 37.203125 48.484375 30.078125 48.484375 
Q 22.953125 48.484375 18.875 42.84375 
Q 14.796875 37.203125 14.796875 27.296875 
z
" id="DejaVuSans-100"/>
      <path d="M 56.203125 29.59375 
L 56.203125 25.203125 
L 14.890625 25.203125 
Q 15.484375 15.921875 20.484375 11.0625 
Q 25.484375 6.203125 34.421875 6.203125 
Q 39.59375 6.203125 44.453125 7.46875 
Q 49.3125 8.734375 54.109375 11.28125 
L 54.109375 2.78125 
Q 49.265625 0.734375 44.1875 -0.34375 
Q 39.109375 -1.421875 33.890625 -1.421875 
Q 20.796875 -1.421875 13.15625 6.1875 
Q 5.515625 13.8125 5.515625 26.8125 
Q 5.515625 40.234375 12.765625 48.109375 
Q 20.015625 56 32.328125 56 
Q 43.359375 56 49.78125 48.890625 
Q 56.203125 41.796875 56.203125 29.59375 
z
M 47.21875 32.234375 
Q 47.125 39.59375 43.09375 43.984375 
Q 39.0625 48.390625 32.421875 48.390625 
Q 24.90625 48.390625 20.390625 44.140625 
Q 15.875 39.890625 15.1875 32.171875 
z
" id="DejaVuSans-101"/>
     </defs>
     <use xlink:href="#DejaVuSans-85"/>
     <use x="73.193359" xlink:href="#DejaVuSans-110"/>
     <use x="136.572266" xlink:href="#DejaVuSans-107"/>
     <use x="194.482422" xlink:href="#DejaVuSans-110"/>
     <use x="257.861328" xlink:href="#DejaVuSans-111"/>
     <use x="319.042969" xlink:href="#DejaVuSans-119"/>
     <use x="400.830078" xlink:href="#DejaVuSans-110"/>
     <use x="464.208984" xlink:href="#DejaVuSans-32"/>
     <use x="495.996094" xlink:href="#DejaVuSans-109"/>
     <use x="593.408203" xlink:href="#DejaVuSans-111"/>
     <use x="654.589844" xlink:href="#DejaVuSans-100"/>
     <use x="718.066406" xlink:href="#DejaVuSans-101"/>
    </g>
   </g>
  </g>
 </g>
 <defs>
  <clipPath id="peed7266ab9">
   <rect height="217.44" width="334.8" x="44.845313" y="22.318125"/>
  </clipPath>
 </defs>
</svg>
