<?xml version="1.0" encoding="utf-8" standalone="no"?>
<!DOCTYPE svg PUBLIC "-//W3C//DTD SVG 1.1//EN"
  "http://www.w3.org/Graphics/SVG/1.1/DTD/svg11.dtd">
<!-- Created with matplotlib (https://matplotlib.org/) -->
<svg height="367.165085pt" version="1.1" viewBox="0 0 909.139323 367.165085" width="909.139323pt" xmlns="http://www.w3.org/2000/svg" xmlns:xlink="http://www.w3.org/1999/xlink">
 <metadata>
  <rdf:RDF xmlns:cc="http://creativecommons.org/ns#" xmlns:dc="http://purl.org/dc/elements/1.1/" xmlns:rdf="http://www.w3.org/1999/02/22-rdf-syntax-ns#">
   <cc:Work>
    <dc:type rdf:resource="http://purl.org/dc/dcmitype/StillImage"/>
    <dc:date>2021-04-19T18:50:20.525801</dc:date>
    <dc:format>image/svg+xml</dc:format>
    <dc:creator>
     <cc:Agent>
      <dc:title>Matplotlib v3.3.4, https://matplotlib.org/</dc:title>
     </cc:Agent>
    </dc:creator>
   </cc:Work>
  </rdf:RDF>
 </metadata>
 <defs>
  <style type="text/css">*{stroke-linecap:butt;stroke-linejoin:round;}</style>
 </defs>
 <g id="figure_1">
  <g id="patch_1">
   <path d="M 0 367.165085 
L 909.139323 367.165085 
L 909.139323 0 
L 0 0 
z
" style="fill:none;"/>
  </g>
  <g id="axes_1">
   <g id="patch_2">
    <path d="M 64.939323 333.36 
L 901.939323 333.36 
L 901.939323 7.2 
L 64.939323 7.2 
z
" style="fill:#ffffff;"/>
   </g>
   <g id="matplotlib.axis_1">
    <g id="xtick_1">
     <g id="line2d_1">
      <path clip-path="url(#pef6b276f22)" d="M 102.984778 333.36 
L 102.984778 7.2 
" style="fill:none;stroke:#666666;stroke-linecap:square;stroke-opacity:0.3;stroke-width:0.8;"/>
     </g>
     <g id="line2d_2">
      <defs>
       <path d="M 0 0 
L 0 3.5 
" id="mda1fedfbff" style="stroke:#000000;stroke-width:0.8;"/>
      </defs>
      <g>
       <use style="stroke:#000000;stroke-width:0.8;" x="102.984778" xlink:href="#mda1fedfbff" y="333.36"/>
      </g>
     </g>
     <g id="text_1">
      <!-- $\mathdefault{10^{0}}$ -->
      <g transform="translate(87.971049 355.220062)scale(0.22 -0.22)">
       <defs>
        <path d="M 29.09375 68 
L 11.09375 59 
L 11.09375 57.59375 
C 12.296875 58.09375 13.40625 58.484375 13.796875 58.6875 
C 15.59375 59.390625 17.296875 59.78125 18.296875 59.78125 
C 20.40625 59.78125 21.296875 58.296875 21.296875 55.078125 
L 21.296875 9.359375 
C 21.296875 6.03125 20.5 3.71875 18.90625 2.796875 
C 17.40625 1.890625 16 1.59375 11.796875 1.5 
L 11.796875 0 
L 39.40625 0 
L 39.40625 1.5 
C 31.5 1.59375 29.90625 2.609375 29.90625 7.453125 
L 29.90625 67.796875 
z
" id="Nimbus_Roman_No9_L_Regular-49"/>
        <path d="M 25.40625 68 
C 19.90625 68 15.703125 66.296875 12 62.796875 
C 6.203125 57.203125 2.40625 45.6875 2.40625 34 
C 2.40625 23.09375 5.703125 11.390625 10.40625 5.796875 
C 14.09375 1.390625 19.203125 -1 25 -1 
C 30.09375 -1 34.40625 0.6875 38 4.1875 
C 43.796875 9.6875 47.59375 21.296875 47.59375 33.390625 
C 47.59375 53.890625 38.5 68 25.40625 68 
z
M 25.09375 65.390625 
C 33.5 65.390625 38 54.09375 38 33.1875 
C 38 12.296875 33.59375 1.59375 25 1.59375 
C 16.40625 1.59375 12 12.296875 12 33.09375 
C 12 54.296875 16.5 65.390625 25.09375 65.390625 
z
" id="Nimbus_Roman_No9_L_Regular-48"/>
       </defs>
       <use transform="scale(0.996264)" xlink:href="#Nimbus_Roman_No9_L_Regular-49"/>
       <use transform="translate(49.8132 0)scale(0.996264)" xlink:href="#Nimbus_Roman_No9_L_Regular-48"/>
       <use transform="translate(99.626401 36.163231)scale(0.737241)" xlink:href="#Nimbus_Roman_No9_L_Regular-48"/>
      </g>
     </g>
    </g>
    <g id="xtick_2">
     <g id="line2d_3">
      <path clip-path="url(#pef6b276f22)" d="M 340.827848 333.36 
L 340.827848 7.2 
" style="fill:none;stroke:#666666;stroke-linecap:square;stroke-opacity:0.3;stroke-width:0.8;"/>
     </g>
     <g id="line2d_4">
      <g>
       <use style="stroke:#000000;stroke-width:0.8;" x="340.827848" xlink:href="#mda1fedfbff" y="333.36"/>
      </g>
     </g>
     <g id="text_2">
      <!-- $\mathdefault{10^{1}}$ -->
      <g transform="translate(325.814119 355.220062)scale(0.22 -0.22)">
       <use transform="scale(0.996264)" xlink:href="#Nimbus_Roman_No9_L_Regular-49"/>
       <use transform="translate(49.8132 0)scale(0.996264)" xlink:href="#Nimbus_Roman_No9_L_Regular-48"/>
       <use transform="translate(99.626401 36.163231)scale(0.737241)" xlink:href="#Nimbus_Roman_No9_L_Regular-49"/>
      </g>
     </g>
    </g>
    <g id="xtick_3">
     <g id="line2d_5">
      <path clip-path="url(#pef6b276f22)" d="M 578.670918 333.36 
L 578.670918 7.2 
" style="fill:none;stroke:#666666;stroke-linecap:square;stroke-opacity:0.3;stroke-width:0.8;"/>
     </g>
     <g id="line2d_6">
      <g>
       <use style="stroke:#000000;stroke-width:0.8;" x="578.670918" xlink:href="#mda1fedfbff" y="333.36"/>
      </g>
     </g>
     <g id="text_3">
      <!-- $\mathdefault{10^{2}}$ -->
      <g transform="translate(563.65719 355.220062)scale(0.22 -0.22)">
       <defs>
        <path d="M 47.5 13.734375 
L 46.203125 14.25 
C 42.5 8.5 41.203125 7.59375 36.703125 7.59375 
L 12.796875 7.59375 
L 29.59375 25.328125 
C 38.5 34.703125 42.40625 42.359375 42.40625 50.21875 
C 42.40625 60.28125 34.296875 68 23.90625 68 
C 18.40625 68 13.203125 65.796875 9.5 61.796875 
C 6.296875 58.375 4.796875 55.15625 3.09375 48 
L 5.203125 47.484375 
C 9.203125 57.359375 12.796875 60.59375 19.703125 60.59375 
C 28.09375 60.59375 33.796875 54.84375 33.796875 46.390625 
C 33.796875 38.53125 29.203125 29.15625 20.796875 20.1875 
L 3 1.1875 
L 3 0 
L 42 0 
z
" id="Nimbus_Roman_No9_L_Regular-50"/>
       </defs>
       <use transform="scale(0.996264)" xlink:href="#Nimbus_Roman_No9_L_Regular-49"/>
       <use transform="translate(49.8132 0)scale(0.996264)" xlink:href="#Nimbus_Roman_No9_L_Regular-48"/>
       <use transform="translate(99.626401 36.163231)scale(0.737241)" xlink:href="#Nimbus_Roman_No9_L_Regular-50"/>
      </g>
     </g>
    </g>
    <g id="xtick_4">
     <g id="line2d_7">
      <path clip-path="url(#pef6b276f22)" d="M 816.513988 333.36 
L 816.513988 7.2 
" style="fill:none;stroke:#666666;stroke-linecap:square;stroke-opacity:0.3;stroke-width:0.8;"/>
     </g>
     <g id="line2d_8">
      <g>
       <use style="stroke:#000000;stroke-width:0.8;" x="816.513988" xlink:href="#mda1fedfbff" y="333.36"/>
      </g>
     </g>
     <g id="text_4">
      <!-- $\mathdefault{10^{3}}$ -->
      <g transform="translate(801.50026 355.220062)scale(0.22 -0.22)">
       <defs>
        <path d="M 15.296875 33.390625 
C 21.203125 33.390625 23.5 33.1875 25.90625 32.296875 
C 32.09375 30.09375 36 24.390625 36 17.5 
C 36 9.09375 30.296875 2.59375 22.90625 2.59375 
C 20.203125 2.59375 18.203125 3.296875 14.5 5.6875 
C 11.5 7.5 9.796875 8.1875 8.09375 8.1875 
C 5.796875 8.1875 4.296875 6.796875 4.296875 4.6875 
C 4.296875 1.1875 8.59375 -1 15.59375 -1 
C 23.296875 -1 31.203125 1.59375 35.90625 5.6875 
C 40.59375 9.796875 43.203125 15.59375 43.203125 22.296875 
C 43.203125 27.390625 41.59375 32.09375 38.703125 35.1875 
C 36.703125 37.390625 34.796875 38.59375 30.40625 40.5 
C 37.296875 45.1875 39.796875 48.890625 39.796875 54.296875 
C 39.796875 62.390625 33.40625 68 24.203125 68 
C 19.203125 68 14.796875 66.296875 11.203125 63.09375 
C 8.203125 60.390625 6.703125 57.796875 4.5 51.796875 
L 6 51.390625 
C 10.09375 58.703125 14.59375 61.984375 20.90625 61.984375 
C 27.40625 61.984375 31.90625 57.59375 31.90625 51.296875 
C 31.90625 47.6875 30.40625 44.09375 27.90625 41.59375 
C 24.90625 38.59375 22.09375 37.09375 15.296875 34.6875 
z
" id="Nimbus_Roman_No9_L_Regular-51"/>
       </defs>
       <use transform="scale(0.996264)" xlink:href="#Nimbus_Roman_No9_L_Regular-49"/>
       <use transform="translate(49.8132 0)scale(0.996264)" xlink:href="#Nimbus_Roman_No9_L_Regular-48"/>
       <use transform="translate(99.626401 36.163231)scale(0.737241)" xlink:href="#Nimbus_Roman_No9_L_Regular-51"/>
      </g>
     </g>
    </g>
    <g id="xtick_5">
     <g id="line2d_9">
      <defs>
       <path d="M 0 0 
L 0 2 
" id="m2b92ae9e4f" style="stroke:#000000;stroke-width:0.6;"/>
      </defs>
      <g>
       <use style="stroke:#000000;stroke-width:0.6;" x="66.14242" xlink:href="#m2b92ae9e4f" y="333.36"/>
      </g>
     </g>
    </g>
    <g id="xtick_6">
     <g id="line2d_10">
      <g>
       <use style="stroke:#000000;stroke-width:0.6;" x="79.935403" xlink:href="#m2b92ae9e4f" y="333.36"/>
      </g>
     </g>
    </g>
    <g id="xtick_7">
     <g id="line2d_11">
      <g>
       <use style="stroke:#000000;stroke-width:0.6;" x="92.101676" xlink:href="#m2b92ae9e4f" y="333.36"/>
      </g>
     </g>
    </g>
    <g id="xtick_8">
     <g id="line2d_12">
      <g>
       <use style="stroke:#000000;stroke-width:0.6;" x="174.582676" xlink:href="#m2b92ae9e4f" y="333.36"/>
      </g>
     </g>
    </g>
    <g id="xtick_9">
     <g id="line2d_13">
      <g>
       <use style="stroke:#000000;stroke-width:0.6;" x="216.464762" xlink:href="#m2b92ae9e4f" y="333.36"/>
      </g>
     </g>
    </g>
    <g id="xtick_10">
     <g id="line2d_14">
      <g>
       <use style="stroke:#000000;stroke-width:0.6;" x="246.180575" xlink:href="#m2b92ae9e4f" y="333.36"/>
      </g>
     </g>
    </g>
    <g id="xtick_11">
     <g id="line2d_15">
      <g>
       <use style="stroke:#000000;stroke-width:0.6;" x="269.22995" xlink:href="#m2b92ae9e4f" y="333.36"/>
      </g>
     </g>
    </g>
    <g id="xtick_12">
     <g id="line2d_16">
      <g>
       <use style="stroke:#000000;stroke-width:0.6;" x="288.06266" xlink:href="#m2b92ae9e4f" y="333.36"/>
      </g>
     </g>
    </g>
    <g id="xtick_13">
     <g id="line2d_17">
      <g>
       <use style="stroke:#000000;stroke-width:0.6;" x="303.98549" xlink:href="#m2b92ae9e4f" y="333.36"/>
      </g>
     </g>
    </g>
    <g id="xtick_14">
     <g id="line2d_18">
      <g>
       <use style="stroke:#000000;stroke-width:0.6;" x="317.778473" xlink:href="#m2b92ae9e4f" y="333.36"/>
      </g>
     </g>
    </g>
    <g id="xtick_15">
     <g id="line2d_19">
      <g>
       <use style="stroke:#000000;stroke-width:0.6;" x="329.944746" xlink:href="#m2b92ae9e4f" y="333.36"/>
      </g>
     </g>
    </g>
    <g id="xtick_16">
     <g id="line2d_20">
      <g>
       <use style="stroke:#000000;stroke-width:0.6;" x="412.425746" xlink:href="#m2b92ae9e4f" y="333.36"/>
      </g>
     </g>
    </g>
    <g id="xtick_17">
     <g id="line2d_21">
      <g>
       <use style="stroke:#000000;stroke-width:0.6;" x="454.307832" xlink:href="#m2b92ae9e4f" y="333.36"/>
      </g>
     </g>
    </g>
    <g id="xtick_18">
     <g id="line2d_22">
      <g>
       <use style="stroke:#000000;stroke-width:0.6;" x="484.023645" xlink:href="#m2b92ae9e4f" y="333.36"/>
      </g>
     </g>
    </g>
    <g id="xtick_19">
     <g id="line2d_23">
      <g>
       <use style="stroke:#000000;stroke-width:0.6;" x="507.07302" xlink:href="#m2b92ae9e4f" y="333.36"/>
      </g>
     </g>
    </g>
    <g id="xtick_20">
     <g id="line2d_24">
      <g>
       <use style="stroke:#000000;stroke-width:0.6;" x="525.905731" xlink:href="#m2b92ae9e4f" y="333.36"/>
      </g>
     </g>
    </g>
    <g id="xtick_21">
     <g id="line2d_25">
      <g>
       <use style="stroke:#000000;stroke-width:0.6;" x="541.828561" xlink:href="#m2b92ae9e4f" y="333.36"/>
      </g>
     </g>
    </g>
    <g id="xtick_22">
     <g id="line2d_26">
      <g>
       <use style="stroke:#000000;stroke-width:0.6;" x="555.621543" xlink:href="#m2b92ae9e4f" y="333.36"/>
      </g>
     </g>
    </g>
    <g id="xtick_23">
     <g id="line2d_27">
      <g>
       <use style="stroke:#000000;stroke-width:0.6;" x="567.787816" xlink:href="#m2b92ae9e4f" y="333.36"/>
      </g>
     </g>
    </g>
    <g id="xtick_24">
     <g id="line2d_28">
      <g>
       <use style="stroke:#000000;stroke-width:0.6;" x="650.268817" xlink:href="#m2b92ae9e4f" y="333.36"/>
      </g>
     </g>
    </g>
    <g id="xtick_25">
     <g id="line2d_29">
      <g>
       <use style="stroke:#000000;stroke-width:0.6;" x="692.150902" xlink:href="#m2b92ae9e4f" y="333.36"/>
      </g>
     </g>
    </g>
    <g id="xtick_26">
     <g id="line2d_30">
      <g>
       <use style="stroke:#000000;stroke-width:0.6;" x="721.866715" xlink:href="#m2b92ae9e4f" y="333.36"/>
      </g>
     </g>
    </g>
    <g id="xtick_27">
     <g id="line2d_31">
      <g>
       <use style="stroke:#000000;stroke-width:0.6;" x="744.91609" xlink:href="#m2b92ae9e4f" y="333.36"/>
      </g>
     </g>
    </g>
    <g id="xtick_28">
     <g id="line2d_32">
      <g>
       <use style="stroke:#000000;stroke-width:0.6;" x="763.748801" xlink:href="#m2b92ae9e4f" y="333.36"/>
      </g>
     </g>
    </g>
    <g id="xtick_29">
     <g id="line2d_33">
      <g>
       <use style="stroke:#000000;stroke-width:0.6;" x="779.671631" xlink:href="#m2b92ae9e4f" y="333.36"/>
      </g>
     </g>
    </g>
    <g id="xtick_30">
     <g id="line2d_34">
      <g>
       <use style="stroke:#000000;stroke-width:0.6;" x="793.464613" xlink:href="#m2b92ae9e4f" y="333.36"/>
      </g>
     </g>
    </g>
    <g id="xtick_31">
     <g id="line2d_35">
      <g>
       <use style="stroke:#000000;stroke-width:0.6;" x="805.630886" xlink:href="#m2b92ae9e4f" y="333.36"/>
      </g>
     </g>
    </g>
    <g id="xtick_32">
     <g id="line2d_36">
      <g>
       <use style="stroke:#000000;stroke-width:0.6;" x="888.111887" xlink:href="#m2b92ae9e4f" y="333.36"/>
      </g>
     </g>
    </g>
   </g>
   <g id="matplotlib.axis_2">
    <g id="ytick_1">
     <g id="line2d_37">
      <path clip-path="url(#pef6b276f22)" d="M 64.939323 277.46799 
L 901.939323 277.46799 
" style="fill:none;stroke:#666666;stroke-linecap:square;stroke-opacity:0.3;stroke-width:0.8;"/>
     </g>
     <g id="line2d_38">
      <defs>
       <path d="M 0 0 
L -3.5 0 
" id="m3529b70892" style="stroke:#000000;stroke-width:0.8;"/>
      </defs>
      <g>
       <use style="stroke:#000000;stroke-width:0.8;" x="64.939323" xlink:href="#m3529b70892" y="277.46799"/>
      </g>
     </g>
     <g id="text_5">
      <!-- $\mathdefault{10^{-15}}$ -->
      <g transform="translate(7.2 284.898021)scale(0.22 -0.22)">
       <defs>
        <path d="M 65.90625 23 
C 67.59375 23 69.40625 23 69.40625 25 
C 69.40625 27 67.59375 27 65.90625 27 
L 11.796875 27 
C 10.09375 27 8.296875 27 8.296875 25 
C 8.296875 23 10.09375 23 11.796875 23 
z
" id="CMSY10-0"/>
        <path d="M 18.09375 58.09375 
L 37.703125 58.09375 
C 39.296875 58.09375 39.703125 58.296875 40 58.984375 
L 43.796875 67.890625 
L 42.90625 68.59375 
C 41.40625 66.5 40.40625 66 38.296875 66 
L 17.40625 66 
L 6.5 42.453125 
C 6.40625 42.265625 6.40625 42.15625 6.40625 41.96875 
C 6.40625 41.46875 6.796875 41.171875 7.59375 41.171875 
C 10.796875 41.171875 14.796875 40.484375 18.90625 39.1875 
C 30.40625 35.53125 35.703125 29.40625 35.703125 19.609375 
C 35.703125 10.109375 29.59375 2.6875 21.796875 2.6875 
C 19.796875 2.6875 18.09375 3.390625 15.09375 5.5625 
C 11.90625 7.84375 9.59375 8.828125 7.5 8.828125 
C 4.59375 8.828125 3.203125 7.640625 3.203125 5.171875 
C 3.203125 1.390625 7.90625 -1 15.40625 -1 
C 23.796875 -1 31 1.6875 36 6.75 
C 40.59375 11.203125 42.703125 16.84375 42.703125 24.359375 
C 42.703125 31.484375 40.796875 36.03125 35.796875 40.96875 
C 31.40625 45.328125 25.703125 47.609375 13.90625 49.6875 
z
" id="Nimbus_Roman_No9_L_Regular-53"/>
       </defs>
       <use transform="scale(0.996264)" xlink:href="#Nimbus_Roman_No9_L_Regular-49"/>
       <use transform="translate(49.8132 0)scale(0.996264)" xlink:href="#Nimbus_Roman_No9_L_Regular-48"/>
       <use transform="translate(99.626401 36.163231)scale(0.737241)" xlink:href="#CMSY10-0"/>
       <use transform="translate(156.909271 36.163231)scale(0.737241)" xlink:href="#Nimbus_Roman_No9_L_Regular-49"/>
       <use transform="translate(193.771313 36.163231)scale(0.737241)" xlink:href="#Nimbus_Roman_No9_L_Regular-53"/>
      </g>
     </g>
    </g>
    <g id="ytick_2">
     <g id="line2d_39">
      <path clip-path="url(#pef6b276f22)" d="M 64.939323 214.632797 
L 901.939323 214.632797 
" style="fill:none;stroke:#666666;stroke-linecap:square;stroke-opacity:0.3;stroke-width:0.8;"/>
     </g>
     <g id="line2d_40">
      <g>
       <use style="stroke:#000000;stroke-width:0.8;" x="64.939323" xlink:href="#m3529b70892" y="214.632797"/>
      </g>
     </g>
     <g id="text_6">
      <!-- $\mathdefault{10^{-14}}$ -->
      <g transform="translate(7.2 222.062828)scale(0.22 -0.22)">
       <defs>
        <path d="M 47.203125 23.390625 
L 37 23.390625 
L 37 68 
L 32.59375 68 
L 1.203125 23.390625 
L 1.203125 17 
L 29.296875 17 
L 29.296875 0 
L 37 0 
L 37 17 
L 47.203125 17 
z
M 29.203125 23.390625 
L 5.203125 23.390625 
L 29.203125 57.765625 
z
" id="Nimbus_Roman_No9_L_Regular-52"/>
       </defs>
       <use transform="scale(0.996264)" xlink:href="#Nimbus_Roman_No9_L_Regular-49"/>
       <use transform="translate(49.8132 0)scale(0.996264)" xlink:href="#Nimbus_Roman_No9_L_Regular-48"/>
       <use transform="translate(99.626401 36.163231)scale(0.737241)" xlink:href="#CMSY10-0"/>
       <use transform="translate(156.909271 36.163231)scale(0.737241)" xlink:href="#Nimbus_Roman_No9_L_Regular-49"/>
       <use transform="translate(193.771313 36.163231)scale(0.737241)" xlink:href="#Nimbus_Roman_No9_L_Regular-52"/>
      </g>
     </g>
    </g>
    <g id="ytick_3">
     <g id="line2d_41">
      <path clip-path="url(#pef6b276f22)" d="M 64.939323 151.797603 
L 901.939323 151.797603 
" style="fill:none;stroke:#666666;stroke-linecap:square;stroke-opacity:0.3;stroke-width:0.8;"/>
     </g>
     <g id="line2d_42">
      <g>
       <use style="stroke:#000000;stroke-width:0.8;" x="64.939323" xlink:href="#m3529b70892" y="151.797603"/>
      </g>
     </g>
     <g id="text_7">
      <!-- $\mathdefault{10^{-13}}$ -->
      <g transform="translate(7.2 159.227634)scale(0.22 -0.22)">
       <use transform="scale(0.996264)" xlink:href="#Nimbus_Roman_No9_L_Regular-49"/>
       <use transform="translate(49.8132 0)scale(0.996264)" xlink:href="#Nimbus_Roman_No9_L_Regular-48"/>
       <use transform="translate(99.626401 36.163231)scale(0.737241)" xlink:href="#CMSY10-0"/>
       <use transform="translate(156.909271 36.163231)scale(0.737241)" xlink:href="#Nimbus_Roman_No9_L_Regular-49"/>
       <use transform="translate(193.771313 36.163231)scale(0.737241)" xlink:href="#Nimbus_Roman_No9_L_Regular-51"/>
      </g>
     </g>
    </g>
    <g id="ytick_4">
     <g id="line2d_43">
      <path clip-path="url(#pef6b276f22)" d="M 64.939323 88.96241 
L 901.939323 88.96241 
" style="fill:none;stroke:#666666;stroke-linecap:square;stroke-opacity:0.3;stroke-width:0.8;"/>
     </g>
     <g id="line2d_44">
      <g>
       <use style="stroke:#000000;stroke-width:0.8;" x="64.939323" xlink:href="#m3529b70892" y="88.96241"/>
      </g>
     </g>
     <g id="text_8">
      <!-- $\mathdefault{10^{-12}}$ -->
      <g transform="translate(7.2 96.39244)scale(0.22 -0.22)">
       <use transform="scale(0.996264)" xlink:href="#Nimbus_Roman_No9_L_Regular-49"/>
       <use transform="translate(49.8132 0)scale(0.996264)" xlink:href="#Nimbus_Roman_No9_L_Regular-48"/>
       <use transform="translate(99.626401 36.163231)scale(0.737241)" xlink:href="#CMSY10-0"/>
       <use transform="translate(156.909271 36.163231)scale(0.737241)" xlink:href="#Nimbus_Roman_No9_L_Regular-49"/>
       <use transform="translate(193.771313 36.163231)scale(0.737241)" xlink:href="#Nimbus_Roman_No9_L_Regular-50"/>
      </g>
     </g>
    </g>
    <g id="ytick_5">
     <g id="line2d_45">
      <path clip-path="url(#pef6b276f22)" d="M 64.939323 26.127216 
L 901.939323 26.127216 
" style="fill:none;stroke:#666666;stroke-linecap:square;stroke-opacity:0.3;stroke-width:0.8;"/>
     </g>
     <g id="line2d_46">
      <g>
       <use style="stroke:#000000;stroke-width:0.8;" x="64.939323" xlink:href="#m3529b70892" y="26.127216"/>
      </g>
     </g>
     <g id="text_9">
      <!-- $\mathdefault{10^{-11}}$ -->
      <g transform="translate(7.2 33.557247)scale(0.22 -0.22)">
       <use transform="scale(0.996264)" xlink:href="#Nimbus_Roman_No9_L_Regular-49"/>
       <use transform="translate(49.8132 0)scale(0.996264)" xlink:href="#Nimbus_Roman_No9_L_Regular-48"/>
       <use transform="translate(99.626401 36.163231)scale(0.737241)" xlink:href="#CMSY10-0"/>
       <use transform="translate(156.909271 36.163231)scale(0.737241)" xlink:href="#Nimbus_Roman_No9_L_Regular-49"/>
       <use transform="translate(193.771313 36.163231)scale(0.737241)" xlink:href="#Nimbus_Roman_No9_L_Regular-49"/>
      </g>
     </g>
    </g>
    <g id="ytick_6">
     <g id="line2d_47">
      <defs>
       <path d="M 0 0 
L -2 0 
" id="m2c21b48a03" style="stroke:#000000;stroke-width:0.6;"/>
      </defs>
      <g>
       <use style="stroke:#000000;stroke-width:0.6;" x="64.939323" xlink:href="#m2c21b48a03" y="321.387906"/>
      </g>
     </g>
    </g>
    <g id="ytick_7">
     <g id="line2d_48">
      <g>
       <use style="stroke:#000000;stroke-width:0.6;" x="64.939323" xlink:href="#m2c21b48a03" y="310.323178"/>
      </g>
     </g>
    </g>
    <g id="ytick_8">
     <g id="line2d_49">
      <g>
       <use style="stroke:#000000;stroke-width:0.6;" x="64.939323" xlink:href="#m2c21b48a03" y="302.472628"/>
      </g>
     </g>
    </g>
    <g id="ytick_9">
     <g id="line2d_50">
      <g>
       <use style="stroke:#000000;stroke-width:0.6;" x="64.939323" xlink:href="#m2c21b48a03" y="296.383269"/>
      </g>
     </g>
    </g>
    <g id="ytick_10">
     <g id="line2d_51">
      <g>
       <use style="stroke:#000000;stroke-width:0.6;" x="64.939323" xlink:href="#m2c21b48a03" y="291.4079"/>
      </g>
     </g>
    </g>
    <g id="ytick_11">
     <g id="line2d_52">
      <g>
       <use style="stroke:#000000;stroke-width:0.6;" x="64.939323" xlink:href="#m2c21b48a03" y="287.201285"/>
      </g>
     </g>
    </g>
    <g id="ytick_12">
     <g id="line2d_53">
      <g>
       <use style="stroke:#000000;stroke-width:0.6;" x="64.939323" xlink:href="#m2c21b48a03" y="283.55735"/>
      </g>
     </g>
    </g>
    <g id="ytick_13">
     <g id="line2d_54">
      <g>
       <use style="stroke:#000000;stroke-width:0.6;" x="64.939323" xlink:href="#m2c21b48a03" y="280.343171"/>
      </g>
     </g>
    </g>
    <g id="ytick_14">
     <g id="line2d_55">
      <g>
       <use style="stroke:#000000;stroke-width:0.6;" x="64.939323" xlink:href="#m2c21b48a03" y="258.552712"/>
      </g>
     </g>
    </g>
    <g id="ytick_15">
     <g id="line2d_56">
      <g>
       <use style="stroke:#000000;stroke-width:0.6;" x="64.939323" xlink:href="#m2c21b48a03" y="247.487984"/>
      </g>
     </g>
    </g>
    <g id="ytick_16">
     <g id="line2d_57">
      <g>
       <use style="stroke:#000000;stroke-width:0.6;" x="64.939323" xlink:href="#m2c21b48a03" y="239.637434"/>
      </g>
     </g>
    </g>
    <g id="ytick_17">
     <g id="line2d_58">
      <g>
       <use style="stroke:#000000;stroke-width:0.6;" x="64.939323" xlink:href="#m2c21b48a03" y="233.548075"/>
      </g>
     </g>
    </g>
    <g id="ytick_18">
     <g id="line2d_59">
      <g>
       <use style="stroke:#000000;stroke-width:0.6;" x="64.939323" xlink:href="#m2c21b48a03" y="228.572706"/>
      </g>
     </g>
    </g>
    <g id="ytick_19">
     <g id="line2d_60">
      <g>
       <use style="stroke:#000000;stroke-width:0.6;" x="64.939323" xlink:href="#m2c21b48a03" y="224.366092"/>
      </g>
     </g>
    </g>
    <g id="ytick_20">
     <g id="line2d_61">
      <g>
       <use style="stroke:#000000;stroke-width:0.6;" x="64.939323" xlink:href="#m2c21b48a03" y="220.722156"/>
      </g>
     </g>
    </g>
    <g id="ytick_21">
     <g id="line2d_62">
      <g>
       <use style="stroke:#000000;stroke-width:0.6;" x="64.939323" xlink:href="#m2c21b48a03" y="217.507978"/>
      </g>
     </g>
    </g>
    <g id="ytick_22">
     <g id="line2d_63">
      <g>
       <use style="stroke:#000000;stroke-width:0.6;" x="64.939323" xlink:href="#m2c21b48a03" y="195.717519"/>
      </g>
     </g>
    </g>
    <g id="ytick_23">
     <g id="line2d_64">
      <g>
       <use style="stroke:#000000;stroke-width:0.6;" x="64.939323" xlink:href="#m2c21b48a03" y="184.65279"/>
      </g>
     </g>
    </g>
    <g id="ytick_24">
     <g id="line2d_65">
      <g>
       <use style="stroke:#000000;stroke-width:0.6;" x="64.939323" xlink:href="#m2c21b48a03" y="176.802241"/>
      </g>
     </g>
    </g>
    <g id="ytick_25">
     <g id="line2d_66">
      <g>
       <use style="stroke:#000000;stroke-width:0.6;" x="64.939323" xlink:href="#m2c21b48a03" y="170.712881"/>
      </g>
     </g>
    </g>
    <g id="ytick_26">
     <g id="line2d_67">
      <g>
       <use style="stroke:#000000;stroke-width:0.6;" x="64.939323" xlink:href="#m2c21b48a03" y="165.737512"/>
      </g>
     </g>
    </g>
    <g id="ytick_27">
     <g id="line2d_68">
      <g>
       <use style="stroke:#000000;stroke-width:0.6;" x="64.939323" xlink:href="#m2c21b48a03" y="161.530898"/>
      </g>
     </g>
    </g>
    <g id="ytick_28">
     <g id="line2d_69">
      <g>
       <use style="stroke:#000000;stroke-width:0.6;" x="64.939323" xlink:href="#m2c21b48a03" y="157.886963"/>
      </g>
     </g>
    </g>
    <g id="ytick_29">
     <g id="line2d_70">
      <g>
       <use style="stroke:#000000;stroke-width:0.6;" x="64.939323" xlink:href="#m2c21b48a03" y="154.672784"/>
      </g>
     </g>
    </g>
    <g id="ytick_30">
     <g id="line2d_71">
      <g>
       <use style="stroke:#000000;stroke-width:0.6;" x="64.939323" xlink:href="#m2c21b48a03" y="132.882325"/>
      </g>
     </g>
    </g>
    <g id="ytick_31">
     <g id="line2d_72">
      <g>
       <use style="stroke:#000000;stroke-width:0.6;" x="64.939323" xlink:href="#m2c21b48a03" y="121.817597"/>
      </g>
     </g>
    </g>
    <g id="ytick_32">
     <g id="line2d_73">
      <g>
       <use style="stroke:#000000;stroke-width:0.6;" x="64.939323" xlink:href="#m2c21b48a03" y="113.967047"/>
      </g>
     </g>
    </g>
    <g id="ytick_33">
     <g id="line2d_74">
      <g>
       <use style="stroke:#000000;stroke-width:0.6;" x="64.939323" xlink:href="#m2c21b48a03" y="107.877688"/>
      </g>
     </g>
    </g>
    <g id="ytick_34">
     <g id="line2d_75">
      <g>
       <use style="stroke:#000000;stroke-width:0.6;" x="64.939323" xlink:href="#m2c21b48a03" y="102.902319"/>
      </g>
     </g>
    </g>
    <g id="ytick_35">
     <g id="line2d_76">
      <g>
       <use style="stroke:#000000;stroke-width:0.6;" x="64.939323" xlink:href="#m2c21b48a03" y="98.695704"/>
      </g>
     </g>
    </g>
    <g id="ytick_36">
     <g id="line2d_77">
      <g>
       <use style="stroke:#000000;stroke-width:0.6;" x="64.939323" xlink:href="#m2c21b48a03" y="95.051769"/>
      </g>
     </g>
    </g>
    <g id="ytick_37">
     <g id="line2d_78">
      <g>
       <use style="stroke:#000000;stroke-width:0.6;" x="64.939323" xlink:href="#m2c21b48a03" y="91.83759"/>
      </g>
     </g>
    </g>
    <g id="ytick_38">
     <g id="line2d_79">
      <g>
       <use style="stroke:#000000;stroke-width:0.6;" x="64.939323" xlink:href="#m2c21b48a03" y="70.047132"/>
      </g>
     </g>
    </g>
    <g id="ytick_39">
     <g id="line2d_80">
      <g>
       <use style="stroke:#000000;stroke-width:0.6;" x="64.939323" xlink:href="#m2c21b48a03" y="58.982403"/>
      </g>
     </g>
    </g>
    <g id="ytick_40">
     <g id="line2d_81">
      <g>
       <use style="stroke:#000000;stroke-width:0.6;" x="64.939323" xlink:href="#m2c21b48a03" y="51.131854"/>
      </g>
     </g>
    </g>
    <g id="ytick_41">
     <g id="line2d_82">
      <g>
       <use style="stroke:#000000;stroke-width:0.6;" x="64.939323" xlink:href="#m2c21b48a03" y="45.042494"/>
      </g>
     </g>
    </g>
    <g id="ytick_42">
     <g id="line2d_83">
      <g>
       <use style="stroke:#000000;stroke-width:0.6;" x="64.939323" xlink:href="#m2c21b48a03" y="40.067125"/>
      </g>
     </g>
    </g>
    <g id="ytick_43">
     <g id="line2d_84">
      <g>
       <use style="stroke:#000000;stroke-width:0.6;" x="64.939323" xlink:href="#m2c21b48a03" y="35.860511"/>
      </g>
     </g>
    </g>
    <g id="ytick_44">
     <g id="line2d_85">
      <g>
       <use style="stroke:#000000;stroke-width:0.6;" x="64.939323" xlink:href="#m2c21b48a03" y="32.216576"/>
      </g>
     </g>
    </g>
    <g id="ytick_45">
     <g id="line2d_86">
      <g>
       <use style="stroke:#000000;stroke-width:0.6;" x="64.939323" xlink:href="#m2c21b48a03" y="29.002397"/>
      </g>
     </g>
    </g>
    <g id="ytick_46">
     <g id="line2d_87">
      <g>
       <use style="stroke:#000000;stroke-width:0.6;" x="64.939323" xlink:href="#m2c21b48a03" y="7.211938"/>
      </g>
     </g>
    </g>
   </g>
   <g id="line2d_88">
    <path clip-path="url(#pef6b276f22)" d="M 174.525225 368.165085 
L 174.582676 318.534545 
L 174.616283 368.165085 
M 246.15142 368.165085 
L 246.180575 307.469817 
L 269.22995 299.619267 
L 288.06266 288.554539 
L 303.98549 318.534545 
L 329.944746 318.534545 
L 340.827848 299.619267 
L 359.660559 299.619267 
L 367.928485 293.529908 
L 375.583389 284.347925 
L 401.542644 284.347925 
L 407.12746 293.529908 
L 412.425746 284.347925 
L 422.27071 284.347925 
L 426.862307 280.703989 
L 431.258457 274.61463 
L 439.526383 274.61463 
L 443.42473 280.703989 
L 447.181287 274.61463 
L 450.806008 274.61463 
L 454.307832 280.703989 
L 457.694822 284.347925 
L 460.97427 280.703989 
L 464.152795 284.347925 
L 467.236425 280.703989 
L 470.230662 280.703989 
L 473.140543 274.61463 
L 475.970691 267.454977 
L 478.725359 267.454977 
L 481.408469 269.639261 
L 484.023645 269.639261 
L 486.574242 263.549902 
L 489.063373 260.134327 
L 491.49393 260.134327 
L 493.868608 263.549902 
L 496.189918 260.134327 
L 498.460206 260.134327 
L 500.681666 263.549902 
L 502.856356 260.134327 
L 504.986203 260.134327 
L 507.07302 263.549902 
L 509.118511 263.549902 
L 511.124282 260.134327 
L 515.022628 260.134327 
L 516.917983 267.454977 
L 518.779185 263.549902 
L 520.607444 260.134327 
L 522.403906 263.549902 
L 527.613107 263.549902 
L 529.29272 260.134327 
L 534.173657 260.134327 
L 535.750694 258.574533 
L 537.304015 255.699352 
L 540.342291 255.699352 
L 541.828561 258.574533 
L 543.293747 255.699352 
L 544.738441 255.699352 
L 546.163208 254.367918 
L 547.568589 254.367918 
L 548.955106 255.699352 
L 551.673524 255.699352 
L 553.006367 254.367918 
L 554.322231 254.367918 
L 555.621543 255.699352 
L 556.904714 254.367918 
L 558.17214 255.699352 
L 559.424203 254.367918 
L 560.661271 249.609992 
L 561.883699 248.539699 
L 564.285992 244.634624 
L 565.466507 248.539699 
L 566.633682 251.885391 
L 567.787816 249.609992 
L 570.058104 249.609992 
L 571.174806 251.885391 
L 573.372632 251.885391 
L 574.454254 254.367918 
L 576.584101 254.367918 
L 577.63278 251.885391 
L 582.72218 251.885391 
L 583.710646 249.609992 
L 584.689743 248.539699 
L 585.659646 251.885391 
L 586.620527 249.609992 
L 587.572551 251.885391 
L 588.515882 249.609992 
L 589.450675 249.609992 
L 590.377084 248.539699 
L 591.295258 246.517368 
L 595.767556 246.517368 
L 596.639239 248.539699 
L 597.503629 249.609992 
L 599.211006 249.609992 
L 600.054226 246.517368 
L 600.890619 244.634624 
L 601.720293 243.739823 
L 605.771555 243.739823 
L 606.563083 242.033706 
L 607.348592 241.219049 
L 608.901914 241.219049 
L 609.669902 239.659255 
L 611.94019 239.659255 
L 612.685997 238.183815 
L 613.426459 237.474971 
L 614.16165 237.474971 
L 614.891646 236.110238 
L 615.616518 236.110238 
L 616.33634 237.474971 
L 617.051179 236.110238 
L 617.761106 236.110238 
L 618.466187 234.810517 
L 619.862072 237.474971 
L 620.553004 238.183815 
L 621.239345 237.474971 
L 623.271422 237.474971 
L 623.939994 238.183815 
L 624.604266 238.183815 
L 625.264293 237.474971 
L 625.92013 237.474971 
L 626.571829 238.183815 
L 627.219442 238.183815 
L 627.86302 239.659255 
L 628.502613 237.474971 
L 629.13827 237.474971 
L 629.770039 236.110238 
L 630.397967 237.474971 
L 631.022102 238.183815 
L 631.642488 238.183815 
L 632.25917 237.474971 
L 634.689727 237.474971 
L 635.288534 238.183815 
L 635.88389 238.183815 
L 637.064405 241.219049 
L 637.649641 239.659255 
L 638.23158 241.219049 
L 638.810259 239.659255 
L 639.385715 241.219049 
L 641.093091 241.219049 
L 642.215862 238.183815 
L 642.772704 237.474971 
L 643.326561 237.474971 
L 643.877463 236.110238 
L 644.425443 234.183156 
L 644.97053 234.183156 
L 645.512757 234.810517 
L 646.052152 234.183156 
L 646.588745 232.970113 
L 647.122565 234.183156 
L 647.653641 232.970113 
L 648.182 232.383231 
L 648.70767 232.383231 
L 649.230678 231.246026 
L 649.751051 231.246026 
L 650.268817 229.624421 
L 651.296625 229.624421 
L 651.80672 230.154321 
L 652.314308 232.383231 
L 652.819414 232.970113 
L 653.822275 232.970113 
L 654.320078 234.183156 
L 654.815494 234.183156 
L 655.308545 232.383231 
L 655.799253 232.383231 
L 656.287641 231.246026 
L 656.773731 232.383231 
L 657.257545 232.970113 
L 657.739102 232.970113 
L 658.218425 234.810517 
L 659.17045 234.810517 
L 659.643192 236.110238 
L 661.974982 236.110238 
L 662.43509 238.183815 
L 662.893157 239.659255 
L 663.349201 238.183815 
L 664.255294 238.183815 
L 664.705377 237.474971 
L 665.153508 237.474971 
L 665.599703 236.110238 
L 666.486351 236.110238 
L 666.926838 234.810517 
L 667.365454 234.183156 
L 667.802215 232.970113 
L 668.237138 232.970113 
L 668.670237 232.383231 
L 669.101527 232.383231 
L 669.531024 232.970113 
L 669.958743 232.383231 
L 670.384698 232.970113 
L 670.808904 234.183156 
L 671.652124 234.183156 
L 672.071167 234.810517 
L 672.488517 234.183156 
L 672.904187 234.810517 
L 673.318192 234.810517 
L 673.730543 234.183156 
L 675.363683 234.183156 
L 675.767965 232.970113 
L 676.170671 232.383231 
L 676.571813 232.383231 
L 676.971403 231.246026 
L 677.369453 231.246026 
L 677.765976 230.154321 
L 678.160982 231.246026 
L 678.554483 231.246026 
L 678.946491 229.624421 
L 679.337016 230.154321 
L 679.726071 230.154321 
L 680.113666 228.594526 
L 680.88452 228.594526 
L 681.2678 227.60209 
L 682.030121 227.60209 
L 682.786856 229.624421 
L 683.163155 228.594526 
L 683.538088 228.594526 
L 683.911665 227.60209 
L 684.283896 228.594526 
L 684.65479 228.594526 
L 685.024357 227.60209 
L 685.392607 227.119087 
L 685.759548 228.594526 
L 686.125191 228.594526 
L 686.489544 227.60209 
L 686.852616 228.594526 
L 687.214417 228.594526 
L 687.574954 229.624421 
L 687.934238 229.624421 
L 688.292276 230.154321 
L 688.649078 231.246026 
L 689.004651 231.246026 
L 689.359004 230.154321 
L 689.712146 229.624421 
L 690.064085 229.624421 
L 690.414829 228.594526 
L 691.112764 228.594526 
L 691.45997 229.624421 
L 692.150902 229.624421 
L 692.494643 230.154321 
L 692.837243 229.624421 
L 693.519054 229.624421 
L 693.858279 230.154321 
L 694.533405 230.154321 
L 694.869321 231.246026 
L 695.204147 231.246026 
L 695.537892 232.970113 
L 695.870562 232.383231 
L 696.202164 232.383231 
L 696.862191 230.154321 
L 697.518028 232.383231 
L 698.169727 230.154321 
L 698.494041 231.246026 
L 698.81734 230.154321 
L 699.13963 231.246026 
L 699.460918 230.154321 
L 699.781209 230.154321 
L 700.100511 231.246026 
L 700.418828 230.154321 
L 700.736168 229.624421 
L 701.367937 229.624421 
L 701.682378 227.60209 
L 701.995866 228.594526 
L 702.308404 227.60209 
L 702.930659 229.624421 
L 703.240386 230.154321 
L 704.164034 230.154321 
L 704.47009 229.624421 
L 705.079496 227.60209 
L 705.382855 227.60209 
L 705.685327 227.119087 
L 706.287626 227.119087 
L 706.587463 227.60209 
L 706.886433 227.60209 
L 707.184539 227.119087 
L 707.481788 227.119087 
L 707.778184 226.177995 
L 708.073732 227.119087 
L 708.368437 227.119087 
L 708.662303 227.60209 
L 708.955336 228.594526 
L 709.24754 227.60209 
L 709.538919 227.119087 
L 709.829479 227.60209 
L 710.408158 227.60209 
L 710.696286 228.594526 
L 711.55588 228.594526 
L 711.840829 227.60209 
L 712.124994 227.60209 
L 712.408379 228.594526 
L 712.69099 228.594526 
L 712.972829 227.119087 
L 713.253901 227.119087 
L 713.53421 227.60209 
L 713.813761 227.119087 
L 714.092557 227.119087 
L 714.370603 226.177995 
L 715.749714 226.177995 
L 716.023341 225.719345 
L 716.296244 223.958155 
L 717.110655 223.958155 
L 717.380705 224.824545 
L 717.650051 224.824545 
L 717.918696 225.719345 
L 718.186644 224.824545 
L 718.720464 224.824545 
L 718.986343 223.958155 
L 719.251539 223.958155 
L 719.516056 223.535062 
L 719.779898 222.70806 
L 720.043067 223.535062 
L 720.305568 222.70806 
L 720.567403 222.70806 
L 720.828576 221.905385 
L 721.089091 221.905385 
L 721.34895 222.70806 
L 721.608157 222.70806 
L 721.866715 221.905385 
L 722.124628 221.512731 
L 722.638529 221.512731 
L 723.149886 219.629986 
L 723.404618 219.629986 
L 723.658724 220.367571 
L 723.912206 220.743977 
L 724.165068 221.512731 
L 724.417312 221.905385 
L 724.668942 221.512731 
L 724.91996 221.905385 
L 725.917977 224.824545 
L 726.165981 224.824545 
L 726.413392 223.958155 
L 726.660212 223.958155 
L 726.906443 223.535062 
L 727.152089 222.70806 
L 727.397151 222.70806 
L 727.641634 223.535062 
L 728.128871 221.905385 
L 728.37163 223.535062 
L 728.61382 222.70806 
L 728.855443 223.535062 
L 729.096502 222.70806 
L 729.337001 222.70806 
L 729.57694 223.535062 
L 730.768348 223.535062 
L 731.00499 222.70806 
L 731.24109 223.535062 
L 731.476652 224.824545 
L 731.711678 224.824545 
L 731.946171 223.958155 
L 732.180132 223.535062 
L 732.413565 223.958155 
L 732.646471 223.958155 
L 733.110715 225.719345 
L 733.342056 223.958155 
L 733.572881 223.535062 
L 733.80319 223.535062 
L 734.262275 221.905385 
L 734.719329 221.905385 
L 734.9471 221.512731 
L 735.627413 221.512731 
L 735.853192 220.743977 
L 736.303276 220.743977 
L 736.527584 221.512731 
L 736.751406 221.512731 
L 736.974745 221.905385 
L 737.197601 221.512731 
L 737.419978 221.512731 
L 737.641877 221.905385 
L 738.08425 221.905385 
L 738.304728 222.70806 
L 738.524736 221.905385 
L 738.744277 223.535062 
L 738.963352 223.958155 
L 739.400114 223.958155 
L 739.835036 225.719345 
L 741.128923 225.719345 
L 741.343004 224.824545 
L 741.556642 224.824545 
L 741.769839 223.958155 
L 742.194917 223.958155 
L 742.406802 223.535062 
L 742.829273 223.535062 
L 743.250023 221.512731 
L 743.459757 221.512731 
L 743.669066 221.905385 
L 744.086415 223.535062 
L 744.502086 221.905385 
L 744.709295 221.905385 
L 744.91609 221.512731 
L 745.122472 221.905385 
L 745.328442 222.70806 
L 745.534002 222.70806 
L 745.739154 221.905385 
L 746.352176 221.905385 
L 746.555711 222.70806 
L 746.758845 222.70806 
L 746.961581 221.905385 
L 747.567412 221.905385 
L 747.768569 222.70806 
L 747.969335 221.905385 
L 748.169711 221.905385 
L 748.3697 221.512731 
L 748.967352 221.512731 
L 749.165803 220.743977 
L 749.561566 220.743977 
L 749.75888 220.367571 
L 749.955818 220.743977 
L 750.544389 220.743977 
L 750.934915 221.905385 
L 751.129625 221.905385 
L 751.323969 222.70806 
L 751.517949 221.905385 
L 751.711564 222.70806 
L 751.904818 221.905385 
L 752.09771 221.905385 
L 752.290243 222.70806 
L 752.482418 222.70806 
L 753.056807 220.367571 
L 753.437966 220.367571 
L 753.628019 220.743977 
L 753.817723 220.743977 
L 754.00708 220.367571 
L 754.19609 220.367571 
L 754.384754 219.629986 
L 754.573075 220.743977 
L 754.761053 220.743977 
L 754.94869 220.367571 
L 755.135986 218.911814 
L 755.322944 218.559693 
L 755.695846 218.559693 
L 755.881794 217.868796 
L 756.252688 217.868796 
L 756.437637 218.911814 
L 756.806545 217.19496 
L 756.990505 216.86418 
L 757.174139 216.86418 
L 757.357447 216.214412 
L 757.54043 216.214412 
L 757.723089 215.895239 
L 758.450515 215.895239 
L 758.631573 215.267878 
L 758.992741 215.267878 
L 759.172853 214.654617 
L 759.711311 216.214412 
L 759.890175 215.895239 
L 760.068729 215.267878 
L 760.246976 215.895239 
L 760.424916 215.895239 
L 760.602549 216.214412 
L 760.779878 216.86418 
L 760.956903 215.895239 
L 761.486164 215.895239 
L 761.661984 214.654617 
L 762.362284 214.654617 
L 762.53662 215.267878 
L 762.710662 215.267878 
L 763.231035 216.86418 
L 764.092541 216.86418 
L 764.263983 217.19496 
L 764.435142 217.868796 
L 764.776609 216.86418 
L 764.946921 216.86418 
L 765.116952 217.19496 
L 765.456177 217.19496 
L 765.794292 218.559693 
L 766.131303 218.559693 
L 766.299398 217.868796 
L 766.467219 218.559693 
L 766.634768 217.868796 
L 766.802046 217.868796 
L 766.969053 217.19496 
L 767.13579 217.19496 
L 767.302259 217.868796 
L 767.46846 217.868796 
L 767.800062 218.911814 
L 767.965465 218.911814 
L 768.130603 219.629986 
L 768.62444 219.629986 
L 768.788529 218.911814 
L 768.952357 218.911814 
L 769.115926 218.559693 
L 769.605086 218.559693 
L 769.767625 218.911814 
L 769.92991 218.559693 
L 770.091939 218.559693 
L 770.576509 216.86418 
L 771.058816 216.86418 
L 771.219086 216.214412 
L 771.379108 216.214412 
L 771.698409 217.19496 
L 771.857691 216.86418 
L 772.016727 217.19496 
L 772.492371 217.19496 
L 772.650434 216.86418 
L 772.808255 216.86418 
L 772.965835 217.19496 
L 773.593764 217.19496 
L 773.750151 216.86418 
L 773.906303 217.19496 
L 774.062218 217.868796 
L 774.528557 217.868796 
L 774.683537 217.19496 
L 774.838284 217.868796 
L 775.147085 217.868796 
L 775.301141 218.559693 
L 775.454966 218.559693 
L 775.608563 218.911814 
L 775.761932 218.911814 
L 775.915074 220.367571 
L 776.067988 220.367571 
L 776.220677 220.743977 
L 776.525379 221.905385 
L 776.677394 221.512731 
L 776.829185 220.743977 
L 776.980754 221.512731 
L 777.1321 221.512731 
L 777.283225 220.743977 
L 777.434129 221.512731 
L 777.584814 221.512731 
L 777.735278 221.905385 
L 777.885524 222.70806 
L 778.035551 221.905385 
L 778.185361 222.70806 
L 778.334954 221.905385 
L 778.484331 221.905385 
L 778.633492 221.512731 
L 778.782438 220.367571 
L 778.931169 220.367571 
L 779.376083 218.559693 
L 779.523962 218.559693 
L 780.113373 215.895239 
L 780.406822 215.895239 
L 780.553234 214.654617 
L 780.699439 215.267878 
L 780.845438 215.267878 
L 781.136817 216.86418 
L 781.282199 216.214412 
L 781.717122 216.214412 
L 781.86169 215.895239 
L 782.006056 215.267878 
L 782.150221 215.895239 
L 782.294184 215.895239 
L 782.437948 216.214412 
L 782.581511 215.895239 
L 782.868041 215.895239 
L 783.011009 216.214412 
L 783.153778 216.86418 
L 783.438727 216.86418 
L 783.580908 217.19496 
L 783.722892 217.19496 
L 783.864682 217.868796 
L 784.006278 217.19496 
L 784.147679 217.868796 
L 784.288888 217.868796 
L 784.429904 218.559693 
L 784.711359 218.559693 
L 784.851799 218.911814 
L 784.992049 217.868796 
L 785.132108 218.559693 
L 785.271978 217.868796 
L 785.411659 218.559693 
L 785.551151 218.559693 
L 785.690455 217.19496 
L 785.829572 217.19496 
L 785.968501 216.86418 
L 786.107244 217.19496 
L 786.2458 216.86418 
L 786.384171 216.214412 
L 786.522357 216.214412 
L 786.798176 214.654617 
L 786.935809 214.654617 
L 787.07326 215.267878 
L 787.210527 215.267878 
L 787.347613 214.654617 
L 787.757781 216.214412 
L 787.894143 216.214412 
L 788.030325 215.895239 
L 788.166327 216.214412 
L 788.302151 215.895239 
L 788.708554 215.895239 
L 788.843667 216.214412 
L 788.978603 216.86418 
L 789.516594 216.86418 
L 789.650655 217.19496 
L 789.784542 216.86418 
L 790.185165 216.86418 
L 790.318362 216.214412 
L 790.716924 216.214412 
L 790.849437 215.895239 
L 791.509465 213.179178 
L 791.640966 213.179178 
L 791.772299 212.893427 
L 791.903466 212.893427 
L 792.034467 212.330748 
L 792.556814 212.330748 
L 792.686989 212.893427 
L 792.817 212.330748 
L 792.946848 212.893427 
L 793.335415 212.893427 
L 793.464613 212.330748 
L 793.59365 212.330748 
L 793.722526 212.0537 
L 793.851241 211.507902 
L 794.108191 212.330748 
L 794.236427 212.0537 
L 794.364504 212.330748 
L 794.492422 212.893427 
L 794.620182 212.330748 
L 794.747784 212.330748 
L 794.875229 213.179178 
L 795.002517 213.179178 
L 795.129648 213.759816 
L 795.256622 213.759816 
L 795.383441 213.179178 
L 795.636613 213.179178 
L 795.762966 213.759816 
L 795.889165 213.179178 
L 796.768268 213.179178 
L 796.893245 212.330748 
L 797.142748 212.330748 
L 797.267273 212.893427 
L 797.639952 212.893427 
L 797.76388 212.330748 
L 797.887659 212.330748 
L 798.011291 212.893427 
L 798.134774 212.893427 
L 798.25811 213.179178 
L 798.381299 213.179178 
L 798.749987 214.654617 
L 798.872591 213.759816 
L 799.117363 214.654617 
L 799.361557 214.654617 
L 799.483438 215.267878 
L 799.605175 215.267878 
L 799.726769 214.654617 
L 799.84822 215.267878 
L 799.969528 215.267878 
L 800.090694 214.654617 
L 800.211718 214.654617 
L 800.3326 213.759816 
L 800.694401 213.759816 
L 800.81472 213.179178 
L 800.934899 213.179178 
L 801.174838 212.893427 
L 801.414222 213.179178 
L 801.533706 213.179178 
L 801.653052 213.759816 
L 801.77226 213.759816 
L 802.129062 212.330748 
L 802.247722 212.0537 
L 802.484635 212.330748 
L 802.838988 211.507902 
L 802.956837 212.0537 
L 803.309577 210.709143 
L 803.544069 210.972807 
L 803.661116 210.972807 
L 803.894813 210.709143 
L 804.011463 210.972807 
L 804.24437 212.330748 
L 804.360626 212.893427 
L 804.592748 212.893427 
L 805.055431 213.759816 
L 805.401089 213.759816 
L 805.516051 214.353078 
L 805.630886 213.759816 
L 805.860174 213.759816 
L 806.088953 214.654617 
L 806.203153 214.654617 
L 806.317227 214.353078 
L 806.431175 213.179178 
L 806.544998 213.759816 
L 806.658695 213.759816 
L 806.772267 213.179178 
L 807.112237 214.654617 
L 807.338263 214.654617 
L 807.676378 213.759816 
L 807.901174 214.353078 
L 808.013389 214.353078 
L 808.125482 214.654617 
L 808.572643 213.759816 
L 808.906748 213.759816 
L 809.128885 212.893427 
L 809.461198 213.759816 
L 809.682148 212.893427 
L 809.792446 212.893427 
L 810.012689 212.330748 
L 810.232463 212.330748 
L 810.342175 212.0537 
L 810.888995 213.179178 
L 811.106915 212.893427 
L 811.649711 212.893427 
L 811.757929 212.330748 
L 811.974025 212.893427 
L 812.18967 212.0537 
L 812.297324 212.330748 
L 812.512296 212.0537 
L 812.619614 212.330748 
L 812.726821 212.0537 
L 812.940902 212.893427 
L 813.047776 212.330748 
L 813.261193 212.893427 
L 813.580495 211.507902 
L 813.68671 211.507902 
L 813.898812 212.330748 
L 814.004701 212.330748 
L 814.216152 212.893427 
L 814.427171 212.330748 
L 814.63776 212.0537 
L 814.847921 212.330748 
L 815.057655 212.330748 
L 815.266964 212.893427 
L 815.684314 210.709143 
L 815.788388 210.709143 
L 815.892358 210.189337 
L 816.099984 210.709143 
L 816.203641 210.709143 
L 816.307194 210.189337 
L 816.513988 210.972807 
L 816.72037 210.709143 
L 816.92634 210.709143 
L 817.234527 209.679248 
L 817.337052 209.679248 
L 817.746137 208.931558 
L 817.950074 209.427735 
L 818.051892 209.427735 
L 818.153609 209.679248 
L 818.356744 209.427735 
L 818.660699 210.189337 
L 818.862839 209.679248 
L 819.567233 209.679248 
L 819.867652 210.972807 
L 820.067447 210.189337 
L 820.1672 210.709143 
L 820.266856 210.189337 
L 820.465881 210.709143 
L 820.56525 210.709143 
L 820.862784 208.931558 
L 821.060666 209.427735 
L 821.652045 209.427735 
L 821.848421 209.679248 
L 821.946469 209.679248 
L 822.044425 210.189337 
L 822.142287 209.427735 
L 822.337735 209.679248 
L 822.727524 209.679248 
L 822.921868 209.427735 
L 823.115847 209.679248 
L 823.2127 209.427735 
L 823.406135 209.679248 
L 823.79192 209.679248 
L 824.463597 208.203809 
L 824.654705 208.203809 
L 824.84546 207.729206 
L 825.035864 207.032428 
L 825.225917 207.494965 
L 825.320813 207.494965 
L 825.415622 207.729206 
L 825.604978 207.494965 
L 825.793988 207.494965 
L 825.982653 207.729206 
L 826.170974 207.729206 
L 826.265005 207.494965 
L 826.452813 208.203809 
L 826.827406 206.577602 
L 826.920842 206.577602 
L 827.014194 206.353 
L 827.200645 206.577602 
L 827.293745 207.494965 
L 827.479692 206.577602 
L 827.572541 207.032428 
L 827.665306 206.353 
L 827.850587 207.032428 
L 828.127886 205.472634 
L 828.220154 205.256909 
L 828.31234 205.909267 
L 828.496464 205.472634 
L 828.588404 205.472634 
L 828.680261 205.256909 
L 829.138328 206.577602 
L 829.229698 207.032428 
L 829.412197 206.577602 
L 829.957764 206.577602 
L 830.138982 206.353 
L 830.59064 206.353 
L 830.770751 207.494965 
L 830.860689 207.494965 
L 831.040331 208.203809 
L 831.219661 209.427735 
L 831.488073 208.444242 
L 831.577389 208.444242 
L 831.75579 208.203809 
L 831.933883 208.444242 
L 832.111669 207.729206 
L 832.28915 208.203809 
L 832.554801 208.931558 
L 832.6432 208.444242 
L 832.819771 209.679248 
L 832.907943 209.679248 
L 833.084062 210.189337 
L 833.17201 210.189337 
L 833.259882 209.679248 
L 833.435403 210.189337 
L 833.698126 210.189337 
L 833.872904 209.427735 
L 833.960182 209.427735 
L 834.047387 208.931558 
L 834.221576 209.679248 
L 834.395471 208.931558 
L 834.48231 208.931558 
L 834.655767 208.203809 
L 834.742387 208.203809 
L 834.828934 208.444242 
L 835.001811 207.494965 
L 835.174399 208.203809 
L 835.346699 207.729206 
L 835.518712 207.494965 
L 835.604612 207.729206 
L 835.69044 207.032428 
L 835.776196 207.494965 
L 835.947496 207.032428 
L 836.03304 207.494965 
L 836.374508 205.909267 
L 836.459699 205.909267 
L 836.544819 205.256909 
L 836.714851 205.472634 
L 836.799761 205.472634 
L 836.884602 205.909267 
L 837.054076 205.472634 
L 837.560833 205.472634 
L 837.645052 205.909267 
L 837.813283 205.472634 
L 837.981241 205.256909 
L 838.065117 205.256909 
L 838.232666 204.83051 
L 838.316339 204.619784 
L 838.483481 204.83051 
L 838.566951 204.83051 
L 838.733689 205.256909 
L 838.816957 205.256909 
L 838.983292 204.619784 
L 839.066359 204.619784 
L 839.149359 204.20315 
L 839.31516 205.256909 
L 839.480695 204.83051 
L 839.728502 204.20315 
L 839.893376 204.83051 
L 840.057988 204.20315 
L 840.304415 203.188573 
L 840.386427 203.188573 
L 840.550256 203.589889 
L 840.632073 203.589889 
L 840.795512 202.597453 
L 840.877135 202.793074 
L 840.958694 203.188573 
L 841.040188 202.793074 
L 841.121618 203.188573 
L 841.365524 202.210369 
L 841.527808 202.018866 
L 841.689838 202.018866 
L 841.851614 202.210369 
L 842.174407 200.714708 
L 842.254949 200.714708 
L 842.415843 200.174315 
L 842.576486 200.174315 
L 842.816985 199.470044 
L 842.897026 199.819907 
L 843.056924 199.470044 
L 843.216575 199.470044 
L 843.296308 200.174315 
L 843.375979 199.819907 
L 843.535138 200.174315 
L 843.694051 199.819907 
L 843.852721 199.819907 
L 844.011147 200.174315 
L 844.327273 200.174315 
L 844.642434 201.639847 
L 844.878175 201.639847 
L 844.956636 201.266019 
L 845.191662 202.210369 
L 845.34805 202.210369 
L 845.426155 202.597453 
L 845.504201 202.210369 
L 845.660116 202.793074 
L 846.048878 201.639847 
L 846.203974 201.266019 
L 846.281435 201.081008 
L 846.436183 201.266019 
L 846.513469 201.266019 
L 846.590699 201.639847 
L 846.82204 200.714708 
L 846.899039 201.081008 
L 847.052865 200.174315 
L 847.129692 200.174315 
L 847.206462 200.353259 
L 847.665887 199.470044 
L 847.818576 199.819907 
L 847.894835 199.470044 
L 848.047186 199.819907 
L 848.199313 199.819907 
L 848.351216 199.470044 
L 848.502896 199.470044 
L 848.578652 199.29678 
L 848.729999 199.470044 
L 848.881124 198.953518 
L 849.032028 199.29678 
L 849.483422 199.29678 
L 849.558463 199.470044 
L 849.63345 199.29678 
L 849.78326 199.819907 
L 850.007568 199.819907 
L 850.156837 199.470044 
L 850.23139 199.470044 
L 850.380336 199.29678 
L 850.454729 199.29678 
L 850.529068 199.470044 
L 850.677585 198.953518 
L 850.751764 199.470044 
L 850.825889 199.29678 
L 850.899962 199.29678 
L 851.121861 198.783492 
L 851.195721 198.783492 
L 851.343284 198.953518 
L 851.416986 198.953518 
L 851.564234 198.783492 
L 851.711271 198.953518 
L 851.8581 198.953518 
L 852.077952 199.470044 
L 852.151133 199.470044 
L 852.443336 200.353259 
L 852.516258 200.353259 
L 852.589129 200.174315 
L 853.025275 201.081008 
L 853.097788 201.081008 
L 853.170249 201.266019 
L 853.31502 200.714708 
L 853.531797 200.714708 
L 853.676062 201.266019 
L 853.892083 200.714708 
L 854.251117 202.018866 
L 854.322774 202.018866 
L 854.608907 201.081008 
L 854.680316 201.081008 
L 854.894249 200.353259 
L 854.965462 200.353259 
L 855.10774 200.714708 
L 855.249823 200.714708 
L 855.39171 201.081008 
L 855.533403 200.714708 
L 855.674901 201.081008 
L 855.957318 200.174315 
L 856.027802 200.174315 
L 856.098238 199.470044 
L 856.168625 199.819907 
L 856.379501 199.29678 
L 856.449697 199.29678 
L 856.589947 198.953518 
L 856.730007 198.953518 
L 857.009557 199.819907 
L 857.14905 199.819907 
L 857.288354 199.470044 
L 857.357935 199.470044 
L 857.42747 199.29678 
L 857.496958 199.470044 
L 857.566399 198.953518 
L 857.774444 199.470044 
L 858.051186 199.470044 
L 858.120256 198.953518 
L 858.258257 199.29678 
L 858.396074 199.29678 
L 858.464914 198.953518 
L 858.602456 199.29678 
L 858.739815 199.29678 
L 858.945511 199.819907 
L 859.219138 198.953518 
L 859.35568 198.783492 
L 859.492041 199.29678 
L 859.628223 199.29678 
L 859.83216 198.783492 
L 859.967894 198.783492 
L 860.306452 199.819907 
L 860.374031 199.470044 
L 860.576502 200.174315 
L 860.643904 199.819907 
L 860.778577 200.174315 
L 860.913074 200.174315 
L 860.980257 199.819907 
L 861.047397 200.174315 
L 861.248553 199.470044 
L 861.649695 201.081008 
L 861.91626 201.081008 
L 861.982794 201.266019 
L 862.248502 200.714708 
L 862.3811 201.081008 
L 862.513529 200.353259 
L 862.777877 201.266019 
L 862.843858 201.266019 
L 862.975695 201.639847 
L 863.04155 201.639847 
L 863.304552 202.597453 
L 863.370198 202.793074 
L 863.632365 202.210369 
L 863.697803 202.210369 
L 863.828555 202.018866 
L 863.893869 202.018866 
L 863.893869 202.018866 
" style="fill:none;stroke:#0000ff;stroke-linecap:square;stroke-width:1.5;"/>
   </g>
   <g id="line2d_89">
    <path clip-path="url(#pef6b276f22)" d="M 174.525225 368.165085 
L 174.582676 318.534545 
L 216.464762 299.619267 
L 246.180575 318.534545 
L 246.19907 368.165085 
M 288.038432 368.165085 
L 288.06266 288.554539 
L 317.778473 288.554539 
L 329.944746 269.639261 
L 340.827848 265.432647 
L 350.672811 235.45264 
L 359.660559 230.694714 
L 367.928485 226.644484 
L 375.583389 219.268537 
L 382.709934 219.268537 
L 389.376371 234.183156 
L 395.638527 258.574533 
L 401.542644 258.574533 
L 407.12746 232.970113 
L 412.425746 255.699352 
L 417.465474 238.911565 
L 422.27071 222.303771 
L 426.862307 214.654617 
L 431.258457 225.719345 
L 435.475122 226.644484 
L 439.526383 231.808705 
L 443.42473 214.054835 
L 447.181287 221.512731 
L 450.806008 236.784074 
L 454.307832 248.539699 
L 457.694822 230.694714 
L 460.97427 224.824545 
L 464.152795 225.719345 
L 467.236425 228.093797 
L 470.230662 293.529908 
L 473.140543 255.699352 
L 475.970691 210.972807 
L 478.725359 212.610637 
L 481.408469 240.428009 
L 484.023645 238.183815 
L 486.574242 240.428009 
L 489.063373 210.189337 
L 491.49393 217.868796 
L 493.868608 213.179178 
L 496.189918 196.821763 
L 498.460206 267.454977 
L 500.681666 231.808705 
L 502.856356 230.694714 
L 504.986203 267.454977 
L 507.07302 214.353078 
L 509.118511 189.050198 
L 511.124282 175.564916 
L 513.091845 192.190322 
L 515.022628 212.0537 
L 516.917983 203.388493 
L 518.779185 219.996287 
L 520.607444 193.555055 
L 522.403906 196.664478 
L 524.169657 190.263241 
L 525.905731 192.057529 
L 527.613107 185.081916 
L 529.29272 195.4378 
L 530.945458 184.979519 
L 532.572168 184.979519 
L 534.173657 190.890601 
L 535.750694 201.266019 
L 537.304015 227.60209 
L 538.834324 239.659255 
L 540.342291 207.032428 
L 541.828561 185.495394 
L 543.293747 174.500191 
L 544.738441 156.041203 
L 546.163208 152.901848 
L 547.568589 154.193875 
L 548.955106 152.650624 
L 550.323257 147.664838 
L 551.673524 147.847723 
L 553.006367 159.468578 
L 554.322231 172.423218 
L 555.621543 165.40786 
L 556.904714 156.254399 
L 558.17214 154.493209 
L 559.424203 154.426406 
L 560.661271 153.669701 
L 561.883699 152.185724 
L 563.091829 147.586832 
L 564.285992 143.584993 
L 565.466507 144.335174 
L 566.633682 145.488567 
L 567.787816 143.991624 
L 568.929197 144.988275 
L 570.058104 144.220176 
L 572.279564 144.358232 
L 573.372632 145.998203 
L 574.454254 139.471433 
L 575.524667 138.78584 
L 576.584101 141.931928 
L 577.63278 139.069413 
L 578.670918 141.285388 
L 579.698727 140.613562 
L 580.716409 141.347291 
L 581.724163 141.347291 
L 582.72218 141.763607 
L 583.710646 142.35733 
L 584.689743 144.613163 
L 585.659646 145.225366 
L 586.620527 145.344688 
L 587.572551 148.190653 
L 588.515882 147.97911 
L 589.450675 142.594159 
L 590.377084 149.63514 
L 591.295258 154.493209 
L 592.205343 155.724499 
L 593.107479 147.97911 
L 594.888453 141.141491 
L 595.767556 136.63485 
L 596.639239 141.388638 
L 597.503629 138.338163 
L 598.360845 134.608795 
L 599.211006 132.363752 
L 600.054226 132.707767 
L 600.890619 132.009345 
L 601.720293 129.730425 
L 602.543357 130.622077 
L 603.359914 133.117223 
L 604.170067 134.351804 
L 604.973914 132.722823 
L 605.771555 132.038703 
L 606.563083 130.705871 
L 607.348592 128.272039 
L 608.128173 122.785475 
L 608.901914 123.517184 
L 609.669902 129.542132 
L 610.432222 131.980017 
L 611.188958 129.15618 
L 611.94019 136.63485 
L 612.685997 157.197995 
L 613.426459 167.426353 
L 614.16165 223.118428 
L 614.891646 222.70806 
L 615.616518 213.467953 
L 616.33634 193.836388 
L 617.051179 188.579686 
L 617.761106 227.119087 
L 618.466187 189.528964 
L 619.166487 234.183156 
L 619.862072 195.739339 
L 620.553004 231.808705 
L 621.239345 207.965476 
L 621.921155 172.878587 
L 622.598495 180.554766 
L 623.271422 207.262716 
L 623.939994 165.50782 
L 624.604266 148.484229 
L 625.264293 161.901464 
L 625.92013 144.358232 
L 626.571829 148.645703 
L 627.219442 160.952936 
L 627.86302 167.105931 
L 628.502613 208.686812 
L 629.13827 179.198513 
L 629.770039 223.958155 
L 630.397967 198.279682 
L 631.022102 217.868796 
L 631.642488 184.979519 
L 632.25917 176.522522 
L 632.872192 227.60209 
L 633.481597 245.559762 
L 634.087428 245.559762 
L 634.689727 194.698216 
L 635.288534 192.728053 
L 635.88389 230.694714 
L 636.475834 198.953518 
L 637.064405 154.160818 
L 637.649641 156.940723 
L 638.810259 130.165752 
L 639.957982 140.63368 
L 640.527096 154.160818 
L 641.093091 154.226973 
L 641.656002 150.286594 
L 642.215862 161.294053 
L 642.772704 230.694714 
L 643.326561 205.042877 
L 643.877463 236.110238 
L 644.425443 208.444242 
L 644.97053 163.903553 
L 645.512757 153.347132 
L 646.052152 150.895296 
L 646.588745 135.779326 
L 647.122565 135.212522 
L 647.653641 132.557662 
L 648.182 132.393495 
L 648.70767 134.351804 
L 649.230678 132.75296 
L 649.751051 136.22085 
L 650.783999 150.286594 
L 651.296625 173.542585 
L 651.80672 178.464236 
L 652.314308 200.897244 
L 652.819414 207.262716 
L 653.322062 191.14564 
L 654.320078 152.807368 
L 654.815494 168.299675 
L 655.308545 210.709143 
L 655.799253 201.081008 
L 656.287641 185.287872 
L 656.773731 222.70806 
L 657.257545 186.557356 
L 657.739102 204.619784 
L 658.218425 182.537015 
L 658.695534 261.788711 
L 659.17045 160.118346 
L 659.643192 158.755617 
L 660.11378 177.437322 
L 660.582234 181.259036 
L 661.048573 173.677346 
L 661.512816 183.682175 
L 661.974982 148.190653 
L 663.803241 128.542038 
L 664.255294 133.301194 
L 664.705377 126.766315 
L 665.153508 123.2498 
L 665.599703 125.076346 
L 666.043978 129.328518 
L 666.486351 123.939605 
L 667.365454 129.063831 
L 667.802215 132.813333 
L 668.237138 127.378476 
L 668.670237 127.677263 
L 669.101527 126.717931 
L 669.531024 126.742112 
L 669.958743 124.692147 
L 670.384698 118.334809 
L 670.808904 123.722162 
L 671.231375 120.306588 
L 671.652124 117.946472 
L 672.071167 122.328919 
L 672.488517 119.385908 
L 672.904187 120.536876 
L 673.318192 119.701821 
L 673.730543 114.095198 
L 674.141255 112.904001 
L 674.550341 111.332876 
L 674.957812 112.527795 
L 675.363683 109.886409 
L 675.767965 110.22769 
L 676.170671 110.240902 
L 676.571813 112.59974 
L 676.971403 112.976946 
L 677.369453 109.38236 
L 677.765976 111.154651 
L 678.160982 120.363978 
L 679.337016 107.335344 
L 679.726071 112.001211 
L 680.113666 114.742033 
L 680.499812 106.620103 
L 680.88452 111.250474 
L 681.2678 111.291644 
L 681.649664 120.383135 
L 682.030121 113.898055 
L 682.409181 104.027603 
L 682.786856 103.985539 
L 683.163155 107.948065 
L 683.538088 104.763602 
L 683.911665 107.814741 
L 684.283896 100.442931 
L 684.65479 101.863566 
L 685.759548 114.820068 
L 686.125191 111.100046 
L 686.489544 111.90272 
L 686.852616 112.427388 
L 687.214417 115.356711 
L 687.574954 106.805901 
L 687.934238 103.891132 
L 688.292276 104.709597 
L 688.649078 104.4198 
L 689.359004 99.437314 
L 689.712146 99.44621 
L 690.064085 97.889876 
L 690.414829 97.381966 
L 690.764386 98.553419 
L 691.112764 98.934968 
L 691.806014 98.083864 
L 692.150902 97.90669 
L 692.494643 95.663603 
L 693.178711 100.498358 
L 693.519054 101.343577 
L 694.196394 107.145918 
L 694.533405 114.263131 
L 694.869321 113.687329 
L 695.204147 106.724459 
L 695.537892 113.717333 
L 695.870562 115.468518 
L 696.202164 113.507992 
L 696.532705 118.175275 
L 696.862191 115.08707 
L 697.518028 112.298835 
L 698.169727 105.50889 
L 698.494041 111.888679 
L 698.81734 112.128367 
L 699.13963 123.592523 
L 699.460918 113.702327 
L 699.781209 122.062683 
L 700.100511 120.154135 
L 700.418828 122.267249 
L 700.736168 116.495951 
L 701.052535 118.764847 
L 701.367937 117.85898 
L 701.682378 112.991559 
L 701.995866 117.374137 
L 702.308404 111.456949 
L 702.62 113.702327 
L 702.930659 109.12744 
L 703.240386 115.293026 
L 703.549187 116.165572 
L 703.857068 112.831249 
L 704.47009 126.215004 
L 704.775242 115.213628 
L 705.382855 118.069436 
L 705.685327 118.406013 
L 705.986915 135.982219 
L 706.287626 136.084234 
L 706.587463 139.413637 
L 706.886433 121.239635 
L 707.184539 133.270446 
L 707.481788 131.342666 
L 707.778184 134.851942 
L 708.073732 123.484959 
L 708.368437 134.144767 
L 708.662303 134.176517 
L 708.955336 137.625998 
L 709.24754 146.642659 
L 709.538919 149.888208 
L 709.829479 213.467953 
L 710.408158 140.075929 
L 710.696286 142.63744 
L 710.983613 246.517368 
L 711.270143 142.594159 
L 711.55588 176.522522 
L 711.840829 193.978149 
L 712.124994 179.198513 
L 712.408379 141.347291 
L 712.69099 143.742408 
L 712.972829 144.335174 
L 713.253901 165.557937 
L 713.53421 172.747704 
L 713.813761 151.940978 
L 714.092557 151.940978 
L 714.370603 152.557008 
L 714.647902 164.18831 
L 714.924459 168.078711 
L 715.200277 251.885391 
L 715.475361 219.268537 
L 715.749714 253.098434 
L 716.296244 153.669701 
L 716.568429 299.619267 
L 717.110655 162.165979 
L 717.380705 217.19496 
L 717.650051 174.292142 
L 717.918696 162.165979 
L 718.186644 208.686812 
L 718.453898 198.279682 
L 718.720464 194.2639 
L 718.986343 144.659771 
L 719.251539 154.426406 
L 719.516056 307.469817 
L 719.779898 152.933414 
L 720.043067 177.128969 
L 720.305568 179.868214 
L 720.567403 143.810151 
L 720.828576 175.637397 
L 721.608157 125.674611 
L 721.866715 133.860669 
L 722.124628 130.248154 
L 722.638529 167.105931 
L 722.894524 165.457794 
L 723.149886 144.520185 
L 723.404618 167.750583 
L 723.658724 168.133784 
L 723.912206 199.644415 
L 724.165068 190.263241 
L 724.417312 139.490725 
L 724.668942 153.123582 
L 724.91996 151.219642 
L 725.17037 159.548958 
L 725.420174 157.383257 
L 725.917977 124.692147 
L 726.165981 141.03917 
L 726.413392 139.645556 
L 726.660212 136.084234 
L 726.906443 118.548981 
L 727.152089 127.652239 
L 727.397151 126.143908 
L 727.641634 115.709659 
L 727.88554 114.432103 
L 728.128871 111.319125 
L 728.37163 113.123425 
L 728.855443 100.767858 
L 729.096502 99.949082 
L 729.337001 100.85204 
L 729.57694 106.138318 
L 729.816324 107.960218 
L 730.055154 116.363319 
L 730.293433 118.602788 
L 730.531163 112.773188 
L 730.768348 113.56764 
L 731.00499 111.832587 
L 731.24109 103.964532 
L 731.476652 108.937801 
L 731.711678 110.896243 
L 732.180132 104.9807 
L 732.413565 103.198402 
L 732.646471 110.22769 
L 732.878854 113.56764 
L 733.110715 106.320853 
L 733.342056 104.601906 
L 733.572881 112.029417 
L 734.262275 116.446138 
L 734.491055 116.629231 
L 734.719329 122.995553 
L 734.9471 116.880898 
L 735.174369 118.069436 
L 735.40114 123.420623 
L 735.627413 122.123892 
L 735.853192 114.726452 
L 736.078479 111.664998 
L 736.527584 99.786432 
L 736.751406 101.980477 
L 737.419978 87.240101 
L 737.641877 88.065965 
L 737.8633 90.117178 
L 738.08425 90.250249 
L 738.304728 91.758527 
L 738.524736 94.348035 
L 738.963352 92.875315 
L 739.181964 92.980421 
L 739.400114 97.31605 
L 739.617804 93.655661 
L 739.835036 92.680194 
L 740.051813 95.881356 
L 740.268135 96.907647 
L 740.484005 100.158333 
L 741.128923 103.703291 
L 741.343004 104.785235 
L 741.556642 104.774416 
L 741.769839 102.522823 
L 741.982597 97.722304 
L 742.194917 97.291373 
L 742.618254 103.975034 
L 742.829273 99.517484 
L 743.039862 100.609553 
L 743.250023 98.066941 
L 743.877951 104.709597 
L 744.086415 107.454406 
L 744.29446 99.083825 
L 744.502086 98.117743 
L 744.709295 100.711881 
L 744.91609 100.814594 
L 745.122472 104.4198 
L 745.328442 98.262197 
L 745.534002 98.544809 
L 745.739154 95.493722 
L 745.943899 98.760875 
L 746.758845 88.366657 
L 746.961581 91.266221 
L 747.16392 89.903096 
L 747.365863 91.160934 
L 747.768569 91.003762 
L 747.969335 92.500251 
L 748.3697 91.114999 
L 748.569301 93.419205 
L 748.768518 91.003762 
L 749.165803 97.78921 
L 749.561566 107.347226 
L 749.955818 92.603919 
L 750.348571 84.939228 
L 750.739836 85.044004 
L 750.934915 80.628982 
L 751.129625 81.138229 
L 751.323969 85.967514 
L 751.517949 83.762356 
L 751.711564 86.560299 
L 751.904818 87.18895 
L 752.09771 95.764486 
L 752.482418 102.99498 
L 752.865699 124.224897 
L 753.056807 119.256882 
L 753.247562 133.362795 
L 753.628019 105.732023 
L 753.817723 102.463132 
L 754.00708 113.418764 
L 754.19609 132.453078 
L 754.384754 122.246723 
L 754.573075 100.964689 
L 754.761053 108.253519 
L 754.94869 103.259726 
L 755.135986 103.025397 
L 755.322944 91.187218 
L 755.509563 92.51405 
L 755.695846 91.859411 
L 755.881794 99.375122 
L 756.067408 87.890623 
L 756.437637 95.975213 
L 756.806545 104.666469 
L 756.990505 104.04866 
L 757.357447 92.212056 
L 757.723089 100.814594 
L 758.087442 117.684831 
L 758.269138 125.791181 
L 758.450515 119.534118 
L 758.812315 122.890312 
L 758.992741 121.458028 
L 759.172853 118.370387 
L 759.352651 119.201772 
L 759.532136 140.835671 
L 759.711311 208.203809 
L 759.890175 185.081916 
L 760.068729 138.654507 
L 760.246976 134.754423 
L 760.424916 186.127599 
L 760.602549 148.45741 
L 760.779878 195.4378 
L 760.956903 128.658575 
L 761.133625 123.463497 
L 761.310045 130.944695 
L 761.486164 132.512791 
L 761.837504 97.460448 
L 762.012727 90.336138 
L 762.187654 90.221679 
L 762.53662 86.624185 
L 762.710662 91.026627 
L 762.884411 98.270718 
L 763.057869 116.181996 
L 763.231035 121.180376 
L 763.403912 121.768759 
L 763.5765 128.361742 
L 763.920814 167.968896 
L 764.092541 158.677537 
L 764.263983 122.04231 
L 764.606017 163.809291 
L 764.776609 127.777591 
L 764.946921 137.303472 
L 765.116952 186.557356 
L 765.286704 184.573727 
L 765.456177 146.919963 
L 765.794292 135.644897 
L 765.962935 114.293775 
L 766.131303 114.77322 
L 766.299398 101.205621 
L 766.467219 100.419869 
L 766.634768 109.267351 
L 766.802046 124.424168 
L 766.969053 115.261239 
L 767.13579 136.63485 
L 767.46846 112.867601 
L 767.634394 114.439809 
L 767.800062 129.784462 
L 767.965465 111.031942 
L 768.130603 124.413059 
L 768.46009 92.205232 
L 769.115926 86.671501 
L 769.279237 87.85278 
L 769.44229 85.049254 
L 769.92991 90.805319 
L 770.091939 86.97403 
L 770.253715 87.55479 
L 770.415238 87.474342 
L 770.576509 86.621404 
L 770.898297 78.477001 
L 771.058816 75.166485 
L 771.219086 76.676769 
L 771.538882 70.132701 
L 771.698409 69.396595 
L 771.857691 65.177094 
L 772.016727 67.771549 
L 772.175518 67.018322 
L 772.334066 63.962618 
L 773.280277 72.849963 
L 773.593764 68.589204 
L 773.750151 67.610363 
L 773.906303 65.59209 
L 774.062218 66.870949 
L 774.217898 64.451812 
L 774.373345 66.166807 
L 774.683537 62.160475 
L 774.838284 59.575137 
L 775.301141 64.855843 
L 775.608563 65.465006 
L 775.761932 63.262601 
L 775.915074 65.894844 
L 776.067988 65.750811 
L 776.220677 65.044356 
L 776.373141 67.756223 
L 776.525379 66.28137 
L 776.829185 68.609316 
L 777.1321 70.188984 
L 777.283225 70.421427 
L 777.434129 67.779912 
L 777.584814 71.165576 
L 777.735278 71.531003 
L 777.885524 71.330207 
L 778.185361 68.160345 
L 778.334954 68.821391 
L 778.484331 71.338147 
L 778.633492 71.69625 
L 778.782438 72.690951 
L 779.079687 65.556087 
L 779.227991 65.943024 
L 779.376083 64.527191 
L 779.523962 66.317022 
L 779.819088 63.741702 
L 779.966335 63.365577 
L 780.113373 61.553442 
L 780.260202 61.16889 
L 780.553234 62.774355 
L 780.699439 61.113146 
L 780.845438 61.028109 
L 781.136817 59.507105 
L 781.282199 59.555535 
L 781.427377 60.507359 
L 781.572351 60.402901 
L 781.86169 57.865018 
L 782.006056 59.887572 
L 782.150221 59.67854 
L 782.437948 55.336547 
L 782.581511 56.142691 
L 782.724876 55.367491 
L 782.868041 55.917917 
L 783.011009 55.530744 
L 783.438727 56.089957 
L 783.580908 57.343657 
L 783.722892 55.230721 
L 783.864682 55.364837 
L 784.006278 54.990612 
L 784.147679 55.128811 
L 784.288888 54.618868 
L 784.429904 53.099842 
L 784.851799 54.448132 
L 785.132108 56.666435 
L 785.271978 57.25251 
L 785.411659 56.494421 
L 785.551151 56.955555 
L 785.690455 55.727229 
L 785.829572 56.778921 
L 786.522357 66.509288 
L 786.660359 66.885786 
L 786.798176 68.72164 
L 786.935809 67.946313 
L 787.07326 71.099372 
L 787.210527 71.149799 
L 787.347613 72.122788 
L 787.621239 67.851102 
L 787.757781 66.268178 
L 787.894143 67.063097 
L 788.030325 65.215138 
L 788.166327 65.491914 
L 788.302151 64.840818 
L 788.708554 66.111673 
L 788.843667 66.432219 
L 789.113364 69.944918 
L 789.247949 69.559789 
L 789.382359 66.989867 
L 789.650655 67.958939 
L 789.918256 65.187233 
L 790.051797 64.743357 
L 790.185165 65.132776 
L 790.451387 61.586752 
L 790.584241 62.128723 
L 790.716924 60.680915 
L 790.849437 61.054246 
L 791.113955 60.141386 
L 791.24596 62.434154 
L 791.377796 62.751156 
L 791.509465 64.688533 
L 791.640966 64.709702 
L 791.772299 63.989297 
L 792.034467 64.738369 
L 792.165301 64.042733 
L 792.556814 59.979595 
L 792.686989 62.083429 
L 792.817 62.218402 
L 793.076533 58.620841 
L 793.206055 59.090269 
L 793.335415 58.988057 
L 793.464613 56.736103 
L 793.59365 57.702646 
L 793.722526 55.04913 
L 793.979796 54.667108 
L 794.108191 52.420486 
L 794.236427 52.210083 
L 794.364504 50.36324 
L 794.492422 51.369807 
L 794.747784 49.068229 
L 794.875229 49.010705 
L 795.002517 48.404997 
L 795.256622 48.554135 
L 795.383441 48.211717 
L 795.762966 46.175147 
L 795.889165 47.147261 
L 796.141102 45.518647 
L 796.26684 44.19711 
L 796.643139 44.766974 
L 797.018072 43.60784 
L 797.142748 44.378057 
L 797.267273 44.410009 
L 797.391649 43.889846 
L 797.515875 45.251734 
L 797.639952 45.251734 
L 797.76388 44.872753 
L 797.887659 45.392535 
L 798.011291 44.306006 
L 798.25811 46.827122 
L 798.381299 46.680028 
L 798.504341 45.568637 
L 798.627237 46.441723 
L 798.749987 46.21054 
L 798.872591 46.256113 
L 798.99505 46.115209 
L 799.117363 45.59274 
L 799.239533 46.849772 
L 799.483438 45.68688 
L 799.726769 48.351589 
L 800.211718 44.260629 
L 800.573941 46.465971 
L 800.694401 46.248513 
L 800.81472 46.286538 
L 800.934899 45.910523 
L 801.054938 46.801259 
L 801.174838 46.639524 
L 801.533706 43.701134 
L 801.653052 44.178318 
L 801.77226 44.082796 
L 802.010265 44.870946 
L 802.129062 44.681928 
L 802.366247 46.062321 
L 802.484635 45.780724 
L 802.602888 47.4765 
L 802.721006 47.53486 
L 803.074551 45.709845 
L 803.19213 45.996355 
L 803.309577 46.99323 
L 803.426889 46.393929 
L 803.544069 46.390109 
L 803.778031 47.296902 
L 803.894813 47.217385 
L 804.011463 45.778234 
L 804.127982 46.203584 
L 804.360626 45.341028 
L 804.592748 44.722621 
L 804.824348 43.509708 
L 805.055431 45.796915 
L 805.170779 46.018954 
L 805.401089 47.259415 
L 805.630886 46.243447 
L 805.860174 45.616863 
L 806.088953 44.652643 
L 806.203153 44.60609 
L 806.431175 46.052887 
L 806.658695 43.699404 
L 806.772267 45.086154 
L 806.999038 44.005102 
L 807.225312 44.966855 
L 807.338263 44.569738 
L 807.451091 45.859279 
L 807.788837 44.376874 
L 807.901174 43.884038 
L 808.125482 42.003655 
L 808.349305 43.386825 
L 808.461034 42.878911 
L 808.572643 43.196451 
L 808.684131 42.458436 
L 808.795499 42.669808 
L 808.906748 44.147808 
L 809.239775 42.189679 
L 809.461198 43.121237 
L 809.682148 43.61359 
L 809.792446 42.970865 
L 809.902626 43.150054 
L 810.012689 43.975368 
L 810.122635 43.474788 
L 810.232463 43.660207 
L 810.451771 45.261506 
L 810.561251 45.597686 
L 810.670614 44.429554 
L 810.779862 44.59655 
L 810.888995 45.035827 
L 810.998012 44.825823 
L 811.215702 45.521113 
L 811.324376 45.268837 
L 811.432935 46.129078 
L 811.54138 45.793801 
L 811.649711 46.251046 
L 811.866033 47.817809 
L 812.18967 45.875517 
L 812.404866 46.764446 
L 812.619614 44.839051 
L 812.726821 44.96625 
L 812.833917 45.560608 
L 812.940902 44.070514 
L 813.047776 44.117333 
L 813.15454 43.448483 
L 813.367737 41.539802 
L 813.580495 42.267292 
L 813.68671 42.146051 
L 813.792816 42.230644 
L 814.004701 39.902101 
L 814.216152 40.637678 
L 814.427171 41.035003 
L 814.63776 39.342239 
L 815.057655 42.635945 
L 815.162362 42.51582 
L 815.266964 41.687293 
L 815.47585 42.440253 
L 815.580134 41.113068 
L 815.684314 42.274956 
L 815.892358 40.254189 
L 816.099984 40.468053 
L 816.307194 39.787407 
L 816.513988 41.743614 
L 816.72037 41.003108 
L 816.823406 40.855621 
L 816.92634 42.425384 
L 817.029171 42.094333 
L 817.1319 43.561887 
L 817.337052 43.267899 
L 817.439475 43.98003 
L 817.541797 43.906696 
L 817.644018 43.592322 
L 817.746137 43.678645 
L 817.848156 42.987158 
L 817.950074 44.25533 
L 818.051892 42.664809 
L 818.153609 43.048482 
L 818.255226 42.72096 
L 818.458161 41.054891 
L 818.55948 40.458831 
L 818.660699 40.603669 
L 819.064585 37.042835 
L 819.366468 35.394221 
L 819.567233 32.338639 
L 819.76761 36.224058 
L 819.867652 36.001275 
L 819.967598 36.915225 
L 820.067447 36.637277 
L 820.266856 35.378483 
L 820.366417 35.938266 
L 820.56525 35.130848 
L 820.664523 35.668756 
L 820.862784 35.300352 
L 821.060666 37.935934 
L 821.455294 35.78936 
L 821.553716 36.543479 
L 821.750279 33.638935 
L 821.848421 36.103267 
L 821.946469 35.063929 
L 822.044425 35.143914 
L 822.142287 35.36913 
L 822.240057 34.837039 
L 822.337735 35.518745 
L 822.43532 33.837547 
L 822.532813 34.6083 
L 822.630214 34.425775 
L 822.824741 37.180583 
L 822.921868 39.193656 
L 823.018903 37.685368 
L 823.115847 38.526512 
L 823.2127 38.171858 
L 823.406135 35.873669 
L 823.502716 36.456193 
L 823.695609 34.527805 
L 823.79192 34.76834 
L 823.888142 33.088358 
L 824.080317 35.122 
L 824.272135 33.700446 
L 824.36791 35.377207 
L 824.463597 33.566419 
L 824.654705 34.774995 
L 824.750127 36.005191 
L 824.84546 35.493539 
L 825.320813 27.783094 
L 825.415622 28.127134 
L 825.510343 28.963306 
L 825.604978 28.802763 
L 825.699526 28.417515 
L 825.793988 28.613607 
L 825.982653 27.547501 
L 826.170974 28.326726 
L 826.265005 27.178197 
L 826.452813 28.973392 
L 826.546588 29.750382 
L 826.640279 28.931726 
L 826.733885 30.00762 
L 826.827406 29.654022 
L 827.014194 32.298726 
L 827.200645 28.887107 
L 827.293745 30.026837 
L 827.38676 28.868006 
L 827.479692 29.195902 
L 827.572541 30.287413 
L 827.665306 29.107221 
L 827.757988 29.583436 
L 828.035536 27.872089 
L 828.496464 32.619297 
L 828.588404 32.444216 
L 828.772037 33.87857 
L 829.046877 30.853231 
L 829.320988 30.431407 
L 829.503325 30.030682 
L 829.957764 28.648144 
L 830.048413 28.997615 
L 830.138982 29.940296 
L 830.229472 29.399055 
L 830.319882 29.927756 
L 830.410213 31.900895 
L 830.500466 30.787384 
L 830.59064 31.82538 
L 830.770751 29.804756 
L 830.860689 30.048865 
L 831.219661 27.510186 
L 831.309209 28.628878 
L 831.39868 27.23714 
L 831.666628 29.463344 
L 831.75579 28.748347 
L 831.844874 28.902531 
L 832.022814 28.232311 
L 832.554801 33.064127 
L 832.6432 32.187277 
L 832.819771 29.854028 
L 833.084062 32.500028 
L 833.259882 30.818669 
L 833.34768 30.414031 
L 833.523051 27.642775 
L 833.610626 27.81466 
L 833.785552 28.902866 
L 833.960182 27.452559 
L 834.047387 28.364189 
L 834.221576 27.463374 
L 834.30856 28.516873 
L 834.569075 27.281984 
L 834.655767 27.576879 
L 834.915408 24.628249 
L 835.001811 25.355657 
L 835.346699 22.285552 
L 835.518712 23.625409 
L 835.947496 27.262711 
L 836.03304 26.244107 
L 836.118513 27.813049 
L 836.203915 27.592219 
L 836.374508 27.38712 
L 836.544819 26.552546 
L 836.799761 28.6977 
L 836.884602 28.373399 
L 837.054076 26.13782 
L 837.138708 26.35417 
L 837.223271 26.138123 
L 837.307765 25.566761 
L 837.39219 26.741529 
L 837.476546 25.724226 
L 837.560833 26.700348 
L 837.813283 24.923209 
L 837.897296 25.37746 
L 838.399944 22.025455 
L 838.483481 22.319524 
L 838.733689 24.349498 
L 838.900158 25.726316 
L 838.983292 25.686042 
L 839.066359 25.095367 
L 839.149359 26.411358 
L 839.232293 26.139335 
L 839.31516 24.814426 
L 839.397961 24.925238 
L 839.480695 25.040868 
L 839.975715 28.873031 
L 840.140196 27.672256 
L 840.550256 25.708111 
L 840.713825 28.852267 
L 840.795512 27.463692 
L 840.877135 28.171507 
L 840.958694 27.568574 
L 841.121618 30.635428 
L 841.202984 29.539112 
L 841.284286 28.875377 
L 841.608855 31.273263 
L 841.770757 30.223267 
L 842.013137 33.194527 
L 842.093804 31.669405 
L 842.174407 32.011178 
L 842.335427 33.815452 
L 842.576486 30.310005 
L 842.656715 28.94516 
L 842.736881 29.317204 
L 842.816985 30.544801 
L 842.897026 29.387786 
L 842.977006 29.611993 
L 843.056924 30.357369 
L 843.13678 28.476558 
L 843.216575 30.00343 
L 843.296308 29.586531 
L 843.375979 28.732343 
L 843.455589 28.929376 
L 843.614625 29.526413 
L 843.773417 27.894383 
L 843.852721 29.263792 
L 844.011147 26.540855 
L 844.327273 30.265544 
L 844.406153 30.292 
L 844.563734 32.722496 
L 844.642434 31.477065 
L 844.799655 33.817058 
L 844.878175 33.754483 
L 844.956636 34.796632 
L 845.34805 30.447374 
L 845.426155 30.196877 
L 845.582188 30.469034 
L 845.660116 30.290589 
L 845.971243 34.482091 
L 846.048878 35.280854 
L 846.126455 33.668076 
L 846.358838 36.548361 
L 846.436183 36.481863 
L 846.590699 39.436811 
L 846.66787 38.905184 
L 846.744984 40.010728 
L 846.82204 39.288204 
L 846.899039 39.902603 
L 846.97598 41.808661 
L 847.052865 41.384624 
L 847.129692 42.053029 
L 847.206462 40.20035 
L 847.35983 42.853734 
L 847.742259 47.203608 
L 847.818576 46.060434 
L 847.894835 46.493435 
L 847.971039 48.761667 
L 848.047186 48.585854 
L 848.123278 46.222559 
L 848.199313 46.317632 
L 848.275292 49.187169 
L 848.351216 46.199159 
L 848.427084 46.581123 
L 848.578652 45.657117 
L 848.654353 49.49501 
L 848.729999 49.369752 
L 848.805589 50.253005 
L 848.956603 47.587357 
L 849.107397 50.483536 
L 849.333176 49.338527 
L 849.408327 50.122038 
L 849.483422 47.923329 
L 849.558463 48.162761 
L 849.78326 58.746702 
L 849.858083 57.496248 
L 849.932853 58.737693 
L 850.007568 64.348352 
L 850.082229 60.673393 
L 850.30589 70.384594 
L 850.380336 66.569233 
L 850.454729 70.426035 
L 850.751764 56.359238 
L 850.825889 55.645784 
L 850.899962 56.279546 
L 850.973981 60.090855 
L 851.047947 55.682449 
L 851.121861 57.662204 
L 851.343284 50.273548 
L 851.416986 50.58654 
L 851.637779 54.556112 
L 851.711271 51.462415 
L 851.784712 51.607698 
L 851.8581 51.307989 
L 852.077952 44.588802 
L 852.151133 43.87707 
L 852.589129 50.781754 
L 852.661948 50.792225 
L 852.734716 50.995704 
L 852.952712 46.868554 
L 853.025275 46.77994 
L 853.097788 46.495352 
L 853.31502 40.794359 
L 853.459588 39.134546 
L 853.603955 36.396098 
L 853.676062 37.062277 
L 853.820126 40.055613 
L 853.963989 37.464608 
L 854.035846 37.643752 
L 854.107653 37.5515 
L 854.251117 39.173124 
L 854.465939 36.678723 
L 854.894249 40.588224 
L 854.965462 40.13244 
L 855.10774 36.470353 
L 855.178806 36.481863 
L 855.320791 38.891639 
L 855.39171 38.348135 
L 855.533403 39.007964 
L 855.604176 37.291649 
L 855.674901 38.579536 
L 855.745578 38.330598 
L 855.816206 38.278055 
L 855.957318 36.396981 
L 856.238965 40.447052 
L 856.379501 37.493082 
L 856.449697 37.717316 
L 856.519846 37.349181 
L 856.589947 35.244439 
L 856.660001 36.065303 
L 856.730007 35.752692 
L 856.799965 36.058762 
L 856.869877 35.855488 
L 857.218725 41.136689 
L 857.288354 40.844189 
L 857.357935 41.269344 
L 857.42747 41.156651 
L 857.635794 36.177166 
L 857.705142 38.72865 
L 857.774444 38.527944 
L 857.843699 37.600816 
L 857.912907 38.025279 
L 858.120256 40.379038 
L 858.189279 39.045391 
L 858.258257 40.429649 
L 858.327188 40.154214 
L 858.464914 40.546053 
L 858.739815 37.008055 
L 858.808426 36.946734 
L 859.013986 32.969362 
L 859.219138 31.024529 
L 859.287431 31.196908 
L 859.628223 35.510198 
L 859.764226 38.444076 
L 859.83216 37.941071 
L 859.900049 35.25248 
L 859.967894 35.582934 
L 860.035695 35.326654 
L 860.103451 33.885816 
L 860.171162 36.196877 
L 860.238829 36.054403 
L 860.306452 35.657154 
L 860.374031 34.426596 
L 860.441565 34.565752 
L 860.778577 38.997766 
L 861.047397 35.917006 
L 861.114492 36.256535 
L 861.248553 40.148642 
L 861.315519 39.413137 
L 861.38244 38.330124 
L 862.115734 50.997212 
L 862.248502 45.658356 
L 862.314823 46.863372 
L 862.3811 47.016019 
L 862.579679 54.091253 
L 862.645787 53.401073 
L 862.711853 53.734814 
L 862.777877 49.325055 
L 862.843858 49.888015 
L 862.909797 49.870652 
L 863.107363 57.085252 
L 863.435802 48.180429 
L 863.697803 46.432158 
L 863.7632 45.060676 
L 863.893869 47.734087 
L 863.893869 47.734087 
" style="fill:none;stroke:#008000;stroke-linecap:square;stroke-width:1.5;"/>
   </g>
   <g id="patch_3">
    <path d="M 64.939323 333.36 
L 64.939323 7.2 
" style="fill:none;stroke:#000000;stroke-linecap:square;stroke-linejoin:miter;stroke-width:0.8;"/>
   </g>
   <g id="patch_4">
    <path d="M 901.939323 333.36 
L 901.939323 7.2 
" style="fill:none;stroke:#000000;stroke-linecap:square;stroke-linejoin:miter;stroke-width:0.8;"/>
   </g>
   <g id="patch_5">
    <path d="M 64.939323 333.36 
L 901.939323 333.36 
" style="fill:none;stroke:#000000;stroke-linecap:square;stroke-linejoin:miter;stroke-width:0.8;"/>
   </g>
   <g id="patch_6">
    <path d="M 64.939323 7.2 
L 901.939323 7.2 
" style="fill:none;stroke:#000000;stroke-linecap:square;stroke-linejoin:miter;stroke-width:0.8;"/>
   </g>
   <g id="legend_1">
    <g id="patch_7">
     <path d="M 75.439323 75.573627 
L 195.781033 75.573627 
Q 198.781033 75.573627 198.781033 72.573627 
L 198.781033 17.7 
Q 198.781033 14.7 195.781033 14.7 
L 75.439323 14.7 
Q 72.439323 14.7 72.439323 17.7 
L 72.439323 72.573627 
Q 72.439323 75.573627 75.439323 75.573627 
z
" style="fill:#ffffff;opacity:0.8;stroke:#cccccc;stroke-linejoin:miter;"/>
    </g>
    <g id="line2d_90">
     <path d="M 78.439323 31.649232 
L 108.439323 31.649232 
" style="fill:none;stroke:#0000ff;stroke-linecap:square;stroke-width:1.5;"/>
    </g>
    <g id="line2d_91"/>
    <g id="text_10">
     <!-- Error in $S_N^{(1)}$ -->
     <g transform="translate(120.439323 36.899232)scale(0.15 -0.15)">
      <defs>
       <path d="M 59.703125 16.984375 
L 56.90625 16.984375 
C 51.90625 6.109375 47.59375 3.6875 33.296875 3.6875 
L 30.59375 3.6875 
C 25.703125 3.6875 21.5 4.203125 20.796875 4.90625 
C 20.296875 5.203125 20.09375 6.3125 20.09375 8.015625 
L 20.09375 32.890625 
L 35.5 32.890625 
C 43.703125 32.890625 45.203125 31.578125 46.5 23.234375 
L 48.796875 23.234375 
L 48.796875 46.34375 
L 46.5 46.34375 
C 45.796875 42.3125 45.40625 40.828125 44.296875 39.453125 
C 43 37.78125 40.203125 37 35.5 37 
L 20.09375 37 
L 20.09375 58.84375 
C 20.09375 61.59375 20.703125 62.1875 23.40625 62.1875 
L 36.90625 62.1875 
C 48.203125 62.1875 50.40625 60.71875 52.09375 51.859375 
L 54.59375 51.859375 
L 54.296875 66 
L 1.203125 66 
L 1.203125 64.09375 
C 8.59375 63.5 9.90625 62.109375 9.90625 55.125 
L 9.90625 10.859375 
C 9.90625 3.890625 8.5 2.390625 1.203125 1.890625 
L 1.203125 0 
L 55.203125 0 
z
" id="Nimbus_Roman_No9_L_Regular-69"/>
       <path d="M 0.703125 39 
C 2.09375 39.296875 3 39.390625 4.203125 39.390625 
C 6.703125 39.390625 7.59375 37.796875 7.59375 33.390625 
L 7.59375 8.390625 
C 7.59375 3.390625 6.90625 2.6875 0.5 1.5 
L 0.5 0 
L 24.5 0 
L 24.5 1.5 
C 17.703125 1.796875 16 3.296875 16 9 
L 16 31.5 
C 16 34.6875 20.296875 39.6875 23 39.6875 
C 23.59375 39.6875 24.5 39.1875 25.59375 38.1875 
C 27.203125 36.796875 28.296875 36.1875 29.59375 36.1875 
C 32 36.1875 33.5 37.890625 33.5 40.6875 
C 33.5 43.984375 31.40625 46 28 46 
C 23.796875 46 20.90625 43.6875 16 36.59375 
L 16 45.796875 
L 15.5 46 
C 10.203125 43.796875 6.59375 42.5 0.703125 40.59375 
z
" id="Nimbus_Roman_No9_L_Regular-114"/>
       <path d="M 25 46 
C 12 46 2.90625 36.390625 2.90625 22.59375 
C 2.90625 9.09375 12.203125 -1 24.796875 -1 
C 37.40625 -1 47 9.59375 47 23.390625 
C 47 36.5 37.796875 46 25 46 
z
M 23.703125 43.1875 
C 32.09375 43.1875 38 33.59375 38 19.890625 
C 38 8.59375 33.5 1.796875 26 1.796875 
C 22.09375 1.796875 18.40625 4.1875 16.296875 8.1875 
C 13.5 13.390625 11.90625 20.390625 11.90625 27.5 
C 11.90625 37 16.59375 43.1875 23.703125 43.1875 
z
" id="Nimbus_Roman_No9_L_Regular-111"/>
       <path d="M 17.5 46 
L 2 40.5 
L 2 39 
L 2.796875 39.09375 
C 4 39.296875 5.296875 39.390625 6.203125 39.390625 
C 8.59375 39.390625 9.5 37.796875 9.5 33.390625 
L 9.5 10.1875 
C 9.5 3 8.5 1.890625 1.59375 1.5 
L 1.59375 0 
L 25.296875 0 
L 25.296875 1.5 
C 18.703125 2 17.90625 3 17.90625 10.1875 
L 17.90625 45.6875 
z
M 12.796875 68 
C 10.09375 68 7.796875 65.6875 7.796875 62.890625 
C 7.796875 60.09375 10 57.796875 12.796875 57.796875 
C 15.703125 57.796875 18 59.984375 18 62.890625 
C 18 65.6875 15.703125 68 12.796875 68 
z
" id="Nimbus_Roman_No9_L_Regular-105"/>
       <path d="M 1.59375 39.796875 
C 2.203125 40.09375 3.203125 40.1875 4.296875 40.1875 
C 7.09375 40.1875 8 38.6875 8 33.796875 
L 8 9 
C 8 3.296875 6.90625 1.890625 1.796875 1.5 
L 1.796875 0 
L 23 0 
L 23 1.5 
C 17.90625 1.890625 16.40625 3.09375 16.40625 6.6875 
L 16.40625 34.796875 
C 21.203125 39.296875 23.40625 40.484375 26.703125 40.484375 
C 31.59375 40.484375 34 37.390625 34 30.796875 
L 34 9.890625 
C 34 3.59375 32.703125 1.890625 27.703125 1.5 
L 27.703125 0 
L 48.5 0 
L 48.5 1.5 
C 43.59375 2 42.40625 3.1875 42.40625 8.09375 
L 42.40625 31 
C 42.40625 40.390625 38 46 30.59375 46 
C 26 46 22.90625 44.296875 16.09375 37.890625 
L 16.09375 45.796875 
L 15.40625 46 
C 10.5 44.1875 7.09375 43.09375 1.59375 41.484375 
z
" id="Nimbus_Roman_No9_L_Regular-110"/>
       <path d="M 46.796875 47.09375 
L 50.796875 67 
L 48.5 67 
C 47.09375 64.890625 46.203125 64.390625 44 64.390625 
C 42.796875 64.390625 41.703125 64.6875 39.40625 65.484375 
C 37.203125 66.484375 34 67 30.90625 67 
C 20.5 67 13.09375 60.046875 13.09375 50.15625 
C 13.09375 44.703125 14.59375 41.78125 20.59375 35.3125 
C 21.5 34.40625 22.796875 33 24.5 31.078125 
C 26.296875 29.15625 27.703125 27.640625 28.40625 26.828125 
C 33.09375 21.890625 34.40625 19.265625 34.40625 14.921875 
C 34.40625 7.34375 28.796875 1.5 21.5 1.5 
C 13.203125 1.5 6.90625 8.65625 6.90625 18.25 
C 6.90625 19.0625 7 19.875 7.09375 20.578125 
L 5.09375 20.78125 
L 1.703125 -1.703125 
L 3.5 -1.703125 
C 4.203125 0.59375 5.296875 1.59375 7.296875 1.59375 
C 8.40625 1.59375 9.90625 1.1875 12.5 0.296875 
C 17.09375 -1.40625 19.796875 -2 22.90625 -2 
C 34.40625 -2 43.09375 6.75 43.09375 18.15625 
C 43.09375 24.71875 40.796875 28.65625 31.796875 37.84375 
C 22.796875 47.03125 21.90625 48.4375 21.90625 53.390625 
C 21.90625 59.75 26.09375 63.6875 32.90625 63.6875 
C 36.59375 63.6875 39.703125 62.375 41.796875 59.953125 
C 44 57.421875 44.796875 54 45 47.328125 
z
" id="Nimbus_Roman_No9_L_Regular_Italic-83"/>
       <path d="M 33.09375 -24 
C 33.09375 -23.703125 33.09375 -23.5 31.40625 -21.8125 
C 18.90625 -9.203125 15.703125 9.6875 15.703125 25 
C 15.703125 42.390625 19.5 59.796875 31.796875 72.296875 
C 33.09375 73.5 33.09375 73.6875 33.09375 74 
C 33.09375 74.6875 32.703125 75 32.09375 75 
C 31.09375 75 22.09375 68.203125 16.203125 55.5 
C 11.09375 44.5 9.90625 33.390625 9.90625 25 
C 9.90625 17.1875 11 5.09375 16.5 -6.203125 
C 22.5 -18.5 31.09375 -25 32.09375 -25 
C 32.703125 -25 33.09375 -24.703125 33.09375 -24 
z
" id="CMR10-40"/>
       <path d="M 28.90625 25 
C 28.90625 32.796875 27.796875 44.890625 22.296875 56.203125 
C 16.296875 68.5 7.703125 75 6.703125 75 
C 6.09375 75 5.703125 74.59375 5.703125 74 
C 5.703125 73.6875 5.703125 73.5 7.59375 71.703125 
C 17.40625 61.796875 23.09375 45.890625 23.09375 25 
C 23.09375 7.890625 19.40625 -9.703125 7 -22.3125 
C 5.703125 -23.5 5.703125 -23.703125 5.703125 -24 
C 5.703125 -24.609375 6.09375 -25 6.703125 -25 
C 7.703125 -25 16.703125 -18.203125 22.59375 -5.5 
C 27.703125 5.5 28.90625 16.59375 28.90625 25 
z
" id="CMR10-41"/>
       <path d="M 72.703125 65 
L 52.796875 65 
L 52.796875 63.390625 
C 58.5 62.890625 59.796875 61.890625 59.796875 58.265625 
C 59.796875 57.0625 59.59375 55.859375 58.90625 53.859375 
C 58.796875 53.5625 58.703125 53.15625 58.703125 53.0625 
L 48.5 14.9375 
L 27.703125 65 
L 11.59375 65 
L 11.59375 63.390625 
C 16.296875 62.984375 18.40625 61.6875 20.203125 57.765625 
L 8.296875 15.9375 
C 4.5 3.109375 3.703125 1.890625 -2 1.09375 
L -2 -0.5 
L 17.796875 -0.5 
L 17.796875 1.09375 
C 12.703125 1.5 10.796875 2.59375 10.796875 5.40625 
C 10.796875 6.71875 11.09375 8.71875 11.703125 10.828125 
L 23.09375 53.15625 
L 46.09375 -2 
L 47.90625 -2 
L 62.296875 48.4375 
C 66 61.390625 66.40625 61.984375 72.703125 63.390625 
z
" id="Nimbus_Roman_No9_L_Regular_Italic-78"/>
      </defs>
      <use transform="scale(0.996264)" xlink:href="#Nimbus_Roman_No9_L_Regular-69"/>
      <use transform="translate(60.871631 0)scale(0.996264)" xlink:href="#Nimbus_Roman_No9_L_Regular-114"/>
      <use transform="translate(94.04686 0)scale(0.996264)" xlink:href="#Nimbus_Roman_No9_L_Regular-114"/>
      <use transform="translate(127.22209 0)scale(0.996264)" xlink:href="#Nimbus_Roman_No9_L_Regular-111"/>
      <use transform="translate(177.035291 0)scale(0.996264)" xlink:href="#Nimbus_Roman_No9_L_Regular-114"/>
      <use transform="translate(235.117121 0)scale(0.996264)" xlink:href="#Nimbus_Roman_No9_L_Regular-105"/>
      <use transform="translate(262.81229 0)scale(0.996264)" xlink:href="#Nimbus_Roman_No9_L_Regular-110"/>
      <use transform="translate(337.532091 0)scale(0.996264)" xlink:href="#Nimbus_Roman_No9_L_Regular_Italic-83"/>
      <use transform="translate(388.141865 52.701919)scale(0.737241)" xlink:href="#CMR10-40"/>
      <use transform="translate(416.745919 52.701919)scale(0.737241)" xlink:href="#Nimbus_Roman_No9_L_Regular-49"/>
      <use transform="translate(453.607961 52.701919)scale(0.737241)" xlink:href="#CMR10-41"/>
      <use transform="translate(387.345291 -29.511935)scale(0.737241)" xlink:href="#Nimbus_Roman_No9_L_Regular_Italic-78"/>
     </g>
    </g>
    <g id="line2d_92">
     <path d="M 78.439323 59.836046 
L 108.439323 59.836046 
" style="fill:none;stroke:#008000;stroke-linecap:square;stroke-width:1.5;"/>
    </g>
    <g id="line2d_93"/>
    <g id="text_11">
     <!-- Error in $S_N^{(2)}$ -->
     <g transform="translate(120.439323 65.086046)scale(0.15 -0.15)">
      <use transform="scale(0.996264)" xlink:href="#Nimbus_Roman_No9_L_Regular-69"/>
      <use transform="translate(60.871631 0)scale(0.996264)" xlink:href="#Nimbus_Roman_No9_L_Regular-114"/>
      <use transform="translate(94.04686 0)scale(0.996264)" xlink:href="#Nimbus_Roman_No9_L_Regular-114"/>
      <use transform="translate(127.22209 0)scale(0.996264)" xlink:href="#Nimbus_Roman_No9_L_Regular-111"/>
      <use transform="translate(177.035291 0)scale(0.996264)" xlink:href="#Nimbus_Roman_No9_L_Regular-114"/>
      <use transform="translate(235.117121 0)scale(0.996264)" xlink:href="#Nimbus_Roman_No9_L_Regular-105"/>
      <use transform="translate(262.81229 0)scale(0.996264)" xlink:href="#Nimbus_Roman_No9_L_Regular-110"/>
      <use transform="translate(337.532091 0)scale(0.996264)" xlink:href="#Nimbus_Roman_No9_L_Regular_Italic-83"/>
      <use transform="translate(388.141865 52.701919)scale(0.737241)" xlink:href="#CMR10-40"/>
      <use transform="translate(416.745919 52.701919)scale(0.737241)" xlink:href="#Nimbus_Roman_No9_L_Regular-50"/>
      <use transform="translate(453.607961 52.701919)scale(0.737241)" xlink:href="#CMR10-41"/>
      <use transform="translate(387.345291 -29.511935)scale(0.737241)" xlink:href="#Nimbus_Roman_No9_L_Regular_Italic-78"/>
     </g>
    </g>
   </g>
  </g>
 </g>
 <defs>
  <clipPath id="pef6b276f22">
   <rect height="326.16" width="837" x="64.939323" y="7.2"/>
  </clipPath>
 </defs>
</svg>
