<?xml version="1.0" encoding="utf-8" standalone="no"?>
<!DOCTYPE svg PUBLIC "-//W3C//DTD SVG 1.1//EN"
  "http://www.w3.org/Graphics/SVG/1.1/DTD/svg11.dtd">
<!-- Created with matplotlib (https://matplotlib.org/) -->
<svg height="248.518125pt" version="1.1" viewBox="0 0 377.304687 248.518125" width="377.304687pt" xmlns="http://www.w3.org/2000/svg" xmlns:xlink="http://www.w3.org/1999/xlink">
 <metadata>
  <rdf:RDF xmlns:cc="http://creativecommons.org/ns#" xmlns:dc="http://purl.org/dc/elements/1.1/" xmlns:rdf="http://www.w3.org/1999/02/22-rdf-syntax-ns#">
   <cc:Work>
    <dc:type rdf:resource="http://purl.org/dc/dcmitype/StillImage"/>
    <dc:date>2021-09-12T15:51:59.285324</dc:date>
    <dc:format>image/svg+xml</dc:format>
    <dc:creator>
     <cc:Agent>
      <dc:title>Matplotlib v3.3.4, https://matplotlib.org/</dc:title>
     </cc:Agent>
    </dc:creator>
   </cc:Work>
  </rdf:RDF>
 </metadata>
 <defs>
  <style type="text/css">*{stroke-linecap:butt;stroke-linejoin:round;}</style>
 </defs>
 <g id="figure_1">
  <g id="patch_1">
   <path d="M 0 248.518125 
L 377.304687 248.518125 
L 377.304687 0 
L 0 0 
z
" style="fill:none;"/>
  </g>
  <g id="axes_1">
   <g id="patch_2">
    <path d="M 35.304688 224.64 
L 370.104688 224.64 
L 370.104688 7.2 
L 35.304688 7.2 
z
" style="fill:#ffffff;"/>
   </g>
   <g id="matplotlib.axis_1">
    <g id="xtick_1">
     <g id="line2d_1">
      <path clip-path="url(#p1679f98771)" d="M 50.522869 224.64 
L 50.522869 7.2 
" style="fill:none;stroke:#b0b0b0;stroke-linecap:square;stroke-width:0.8;"/>
     </g>
     <g id="line2d_2">
      <defs>
       <path d="M 0 0 
L 0 3.5 
" id="m7fa73ab590" style="stroke:#000000;stroke-width:0.8;"/>
      </defs>
      <g>
       <use style="stroke:#000000;stroke-width:0.8;" x="50.522869" xlink:href="#m7fa73ab590" y="224.64"/>
      </g>
     </g>
     <g id="text_1">
      <!-- −1.5 -->
      <g transform="translate(38.381463 239.238437)scale(0.1 -0.1)">
       <defs>
        <path d="M 10.59375 35.5 
L 73.1875 35.5 
L 73.1875 27.203125 
L 10.59375 27.203125 
z
" id="DejaVuSans-8722"/>
        <path d="M 12.40625 8.296875 
L 28.515625 8.296875 
L 28.515625 63.921875 
L 10.984375 60.40625 
L 10.984375 69.390625 
L 28.421875 72.90625 
L 38.28125 72.90625 
L 38.28125 8.296875 
L 54.390625 8.296875 
L 54.390625 0 
L 12.40625 0 
z
" id="DejaVuSans-49"/>
        <path d="M 10.6875 12.40625 
L 21 12.40625 
L 21 0 
L 10.6875 0 
z
" id="DejaVuSans-46"/>
        <path d="M 10.796875 72.90625 
L 49.515625 72.90625 
L 49.515625 64.59375 
L 19.828125 64.59375 
L 19.828125 46.734375 
Q 21.96875 47.46875 24.109375 47.828125 
Q 26.265625 48.1875 28.421875 48.1875 
Q 40.625 48.1875 47.75 41.5 
Q 54.890625 34.8125 54.890625 23.390625 
Q 54.890625 11.625 47.5625 5.09375 
Q 40.234375 -1.421875 26.90625 -1.421875 
Q 22.3125 -1.421875 17.546875 -0.640625 
Q 12.796875 0.140625 7.71875 1.703125 
L 7.71875 11.625 
Q 12.109375 9.234375 16.796875 8.0625 
Q 21.484375 6.890625 26.703125 6.890625 
Q 35.15625 6.890625 40.078125 11.328125 
Q 45.015625 15.765625 45.015625 23.390625 
Q 45.015625 31 40.078125 35.4375 
Q 35.15625 39.890625 26.703125 39.890625 
Q 22.75 39.890625 18.8125 39.015625 
Q 14.890625 38.140625 10.796875 36.28125 
z
" id="DejaVuSans-53"/>
       </defs>
       <use xlink:href="#DejaVuSans-8722"/>
       <use x="83.789062" xlink:href="#DejaVuSans-49"/>
       <use x="147.412109" xlink:href="#DejaVuSans-46"/>
       <use x="179.199219" xlink:href="#DejaVuSans-53"/>
      </g>
     </g>
    </g>
    <g id="xtick_2">
     <g id="line2d_3">
      <path clip-path="url(#p1679f98771)" d="M 101.250142 224.64 
L 101.250142 7.2 
" style="fill:none;stroke:#b0b0b0;stroke-linecap:square;stroke-width:0.8;"/>
     </g>
     <g id="line2d_4">
      <g>
       <use style="stroke:#000000;stroke-width:0.8;" x="101.250142" xlink:href="#m7fa73ab590" y="224.64"/>
      </g>
     </g>
     <g id="text_2">
      <!-- −1.0 -->
      <g transform="translate(89.108736 239.238437)scale(0.1 -0.1)">
       <defs>
        <path d="M 31.78125 66.40625 
Q 24.171875 66.40625 20.328125 58.90625 
Q 16.5 51.421875 16.5 36.375 
Q 16.5 21.390625 20.328125 13.890625 
Q 24.171875 6.390625 31.78125 6.390625 
Q 39.453125 6.390625 43.28125 13.890625 
Q 47.125 21.390625 47.125 36.375 
Q 47.125 51.421875 43.28125 58.90625 
Q 39.453125 66.40625 31.78125 66.40625 
z
M 31.78125 74.21875 
Q 44.046875 74.21875 50.515625 64.515625 
Q 56.984375 54.828125 56.984375 36.375 
Q 56.984375 17.96875 50.515625 8.265625 
Q 44.046875 -1.421875 31.78125 -1.421875 
Q 19.53125 -1.421875 13.0625 8.265625 
Q 6.59375 17.96875 6.59375 36.375 
Q 6.59375 54.828125 13.0625 64.515625 
Q 19.53125 74.21875 31.78125 74.21875 
z
" id="DejaVuSans-48"/>
       </defs>
       <use xlink:href="#DejaVuSans-8722"/>
       <use x="83.789062" xlink:href="#DejaVuSans-49"/>
       <use x="147.412109" xlink:href="#DejaVuSans-46"/>
       <use x="179.199219" xlink:href="#DejaVuSans-48"/>
      </g>
     </g>
    </g>
    <g id="xtick_3">
     <g id="line2d_5">
      <path clip-path="url(#p1679f98771)" d="M 151.977415 224.64 
L 151.977415 7.2 
" style="fill:none;stroke:#b0b0b0;stroke-linecap:square;stroke-width:0.8;"/>
     </g>
     <g id="line2d_6">
      <g>
       <use style="stroke:#000000;stroke-width:0.8;" x="151.977415" xlink:href="#m7fa73ab590" y="224.64"/>
      </g>
     </g>
     <g id="text_3">
      <!-- −0.5 -->
      <g transform="translate(139.836009 239.238437)scale(0.1 -0.1)">
       <use xlink:href="#DejaVuSans-8722"/>
       <use x="83.789062" xlink:href="#DejaVuSans-48"/>
       <use x="147.412109" xlink:href="#DejaVuSans-46"/>
       <use x="179.199219" xlink:href="#DejaVuSans-53"/>
      </g>
     </g>
    </g>
    <g id="xtick_4">
     <g id="line2d_7">
      <path clip-path="url(#p1679f98771)" d="M 202.704688 224.64 
L 202.704688 7.2 
" style="fill:none;stroke:#b0b0b0;stroke-linecap:square;stroke-width:0.8;"/>
     </g>
     <g id="line2d_8">
      <g>
       <use style="stroke:#000000;stroke-width:0.8;" x="202.704688" xlink:href="#m7fa73ab590" y="224.64"/>
      </g>
     </g>
     <g id="text_4">
      <!-- 0.0 -->
      <g transform="translate(194.753125 239.238437)scale(0.1 -0.1)">
       <use xlink:href="#DejaVuSans-48"/>
       <use x="63.623047" xlink:href="#DejaVuSans-46"/>
       <use x="95.410156" xlink:href="#DejaVuSans-48"/>
      </g>
     </g>
    </g>
    <g id="xtick_5">
     <g id="line2d_9">
      <path clip-path="url(#p1679f98771)" d="M 253.43196 224.64 
L 253.43196 7.2 
" style="fill:none;stroke:#b0b0b0;stroke-linecap:square;stroke-width:0.8;"/>
     </g>
     <g id="line2d_10">
      <g>
       <use style="stroke:#000000;stroke-width:0.8;" x="253.43196" xlink:href="#m7fa73ab590" y="224.64"/>
      </g>
     </g>
     <g id="text_5">
      <!-- 0.5 -->
      <g transform="translate(245.480398 239.238437)scale(0.1 -0.1)">
       <use xlink:href="#DejaVuSans-48"/>
       <use x="63.623047" xlink:href="#DejaVuSans-46"/>
       <use x="95.410156" xlink:href="#DejaVuSans-53"/>
      </g>
     </g>
    </g>
    <g id="xtick_6">
     <g id="line2d_11">
      <path clip-path="url(#p1679f98771)" d="M 304.159233 224.64 
L 304.159233 7.2 
" style="fill:none;stroke:#b0b0b0;stroke-linecap:square;stroke-width:0.8;"/>
     </g>
     <g id="line2d_12">
      <g>
       <use style="stroke:#000000;stroke-width:0.8;" x="304.159233" xlink:href="#m7fa73ab590" y="224.64"/>
      </g>
     </g>
     <g id="text_6">
      <!-- 1.0 -->
      <g transform="translate(296.20767 239.238437)scale(0.1 -0.1)">
       <use xlink:href="#DejaVuSans-49"/>
       <use x="63.623047" xlink:href="#DejaVuSans-46"/>
       <use x="95.410156" xlink:href="#DejaVuSans-48"/>
      </g>
     </g>
    </g>
    <g id="xtick_7">
     <g id="line2d_13">
      <path clip-path="url(#p1679f98771)" d="M 354.886506 224.64 
L 354.886506 7.2 
" style="fill:none;stroke:#b0b0b0;stroke-linecap:square;stroke-width:0.8;"/>
     </g>
     <g id="line2d_14">
      <g>
       <use style="stroke:#000000;stroke-width:0.8;" x="354.886506" xlink:href="#m7fa73ab590" y="224.64"/>
      </g>
     </g>
     <g id="text_7">
      <!-- 1.5 -->
      <g transform="translate(346.934943 239.238437)scale(0.1 -0.1)">
       <use xlink:href="#DejaVuSans-49"/>
       <use x="63.623047" xlink:href="#DejaVuSans-46"/>
       <use x="95.410156" xlink:href="#DejaVuSans-53"/>
      </g>
     </g>
    </g>
   </g>
   <g id="matplotlib.axis_2">
    <g id="ytick_1">
     <g id="line2d_15">
      <path clip-path="url(#p1679f98771)" d="M 35.304688 219.967231 
L 370.104688 219.967231 
" style="fill:none;stroke:#b0b0b0;stroke-linecap:square;stroke-width:0.8;"/>
     </g>
     <g id="line2d_16">
      <defs>
       <path d="M 0 0 
L -3.5 0 
" id="m7270bcc91d" style="stroke:#000000;stroke-width:0.8;"/>
      </defs>
      <g>
       <use style="stroke:#000000;stroke-width:0.8;" x="35.304688" xlink:href="#m7270bcc91d" y="219.967231"/>
      </g>
     </g>
     <g id="text_8">
      <!-- −20 -->
      <g transform="translate(7.2 223.766449)scale(0.1 -0.1)">
       <defs>
        <path d="M 19.1875 8.296875 
L 53.609375 8.296875 
L 53.609375 0 
L 7.328125 0 
L 7.328125 8.296875 
Q 12.9375 14.109375 22.625 23.890625 
Q 32.328125 33.6875 34.8125 36.53125 
Q 39.546875 41.84375 41.421875 45.53125 
Q 43.3125 49.21875 43.3125 52.78125 
Q 43.3125 58.59375 39.234375 62.25 
Q 35.15625 65.921875 28.609375 65.921875 
Q 23.96875 65.921875 18.8125 64.3125 
Q 13.671875 62.703125 7.8125 59.421875 
L 7.8125 69.390625 
Q 13.765625 71.78125 18.9375 73 
Q 24.125 74.21875 28.421875 74.21875 
Q 39.75 74.21875 46.484375 68.546875 
Q 53.21875 62.890625 53.21875 53.421875 
Q 53.21875 48.921875 51.53125 44.890625 
Q 49.859375 40.875 45.40625 35.40625 
Q 44.1875 33.984375 37.640625 27.21875 
Q 31.109375 20.453125 19.1875 8.296875 
z
" id="DejaVuSans-50"/>
       </defs>
       <use xlink:href="#DejaVuSans-8722"/>
       <use x="83.789062" xlink:href="#DejaVuSans-50"/>
       <use x="147.412109" xlink:href="#DejaVuSans-48"/>
      </g>
     </g>
    </g>
    <g id="ytick_2">
     <g id="line2d_17">
      <path clip-path="url(#p1679f98771)" d="M 35.304688 193.955423 
L 370.104688 193.955423 
" style="fill:none;stroke:#b0b0b0;stroke-linecap:square;stroke-width:0.8;"/>
     </g>
     <g id="line2d_18">
      <g>
       <use style="stroke:#000000;stroke-width:0.8;" x="35.304688" xlink:href="#m7270bcc91d" y="193.955423"/>
      </g>
     </g>
     <g id="text_9">
      <!-- −15 -->
      <g transform="translate(7.2 197.754642)scale(0.1 -0.1)">
       <use xlink:href="#DejaVuSans-8722"/>
       <use x="83.789062" xlink:href="#DejaVuSans-49"/>
       <use x="147.412109" xlink:href="#DejaVuSans-53"/>
      </g>
     </g>
    </g>
    <g id="ytick_3">
     <g id="line2d_19">
      <path clip-path="url(#p1679f98771)" d="M 35.304688 167.943615 
L 370.104688 167.943615 
" style="fill:none;stroke:#b0b0b0;stroke-linecap:square;stroke-width:0.8;"/>
     </g>
     <g id="line2d_20">
      <g>
       <use style="stroke:#000000;stroke-width:0.8;" x="35.304688" xlink:href="#m7270bcc91d" y="167.943615"/>
      </g>
     </g>
     <g id="text_10">
      <!-- −10 -->
      <g transform="translate(7.2 171.742834)scale(0.1 -0.1)">
       <use xlink:href="#DejaVuSans-8722"/>
       <use x="83.789062" xlink:href="#DejaVuSans-49"/>
       <use x="147.412109" xlink:href="#DejaVuSans-48"/>
      </g>
     </g>
    </g>
    <g id="ytick_4">
     <g id="line2d_21">
      <path clip-path="url(#p1679f98771)" d="M 35.304688 141.931808 
L 370.104688 141.931808 
" style="fill:none;stroke:#b0b0b0;stroke-linecap:square;stroke-width:0.8;"/>
     </g>
     <g id="line2d_22">
      <g>
       <use style="stroke:#000000;stroke-width:0.8;" x="35.304688" xlink:href="#m7270bcc91d" y="141.931808"/>
      </g>
     </g>
     <g id="text_11">
      <!-- −5 -->
      <g transform="translate(13.5625 145.731026)scale(0.1 -0.1)">
       <use xlink:href="#DejaVuSans-8722"/>
       <use x="83.789062" xlink:href="#DejaVuSans-53"/>
      </g>
     </g>
    </g>
    <g id="ytick_5">
     <g id="line2d_23">
      <path clip-path="url(#p1679f98771)" d="M 35.304688 115.92 
L 370.104688 115.92 
" style="fill:none;stroke:#b0b0b0;stroke-linecap:square;stroke-width:0.8;"/>
     </g>
     <g id="line2d_24">
      <g>
       <use style="stroke:#000000;stroke-width:0.8;" x="35.304688" xlink:href="#m7270bcc91d" y="115.92"/>
      </g>
     </g>
     <g id="text_12">
      <!-- 0 -->
      <g transform="translate(21.942188 119.719219)scale(0.1 -0.1)">
       <use xlink:href="#DejaVuSans-48"/>
      </g>
     </g>
    </g>
    <g id="ytick_6">
     <g id="line2d_25">
      <path clip-path="url(#p1679f98771)" d="M 35.304688 89.908192 
L 370.104688 89.908192 
" style="fill:none;stroke:#b0b0b0;stroke-linecap:square;stroke-width:0.8;"/>
     </g>
     <g id="line2d_26">
      <g>
       <use style="stroke:#000000;stroke-width:0.8;" x="35.304688" xlink:href="#m7270bcc91d" y="89.908192"/>
      </g>
     </g>
     <g id="text_13">
      <!-- 5 -->
      <g transform="translate(21.942188 93.707411)scale(0.1 -0.1)">
       <use xlink:href="#DejaVuSans-53"/>
      </g>
     </g>
    </g>
    <g id="ytick_7">
     <g id="line2d_27">
      <path clip-path="url(#p1679f98771)" d="M 35.304688 63.896385 
L 370.104688 63.896385 
" style="fill:none;stroke:#b0b0b0;stroke-linecap:square;stroke-width:0.8;"/>
     </g>
     <g id="line2d_28">
      <g>
       <use style="stroke:#000000;stroke-width:0.8;" x="35.304688" xlink:href="#m7270bcc91d" y="63.896385"/>
      </g>
     </g>
     <g id="text_14">
      <!-- 10 -->
      <g transform="translate(15.579688 67.695603)scale(0.1 -0.1)">
       <use xlink:href="#DejaVuSans-49"/>
       <use x="63.623047" xlink:href="#DejaVuSans-48"/>
      </g>
     </g>
    </g>
    <g id="ytick_8">
     <g id="line2d_29">
      <path clip-path="url(#p1679f98771)" d="M 35.304688 37.884577 
L 370.104688 37.884577 
" style="fill:none;stroke:#b0b0b0;stroke-linecap:square;stroke-width:0.8;"/>
     </g>
     <g id="line2d_30">
      <g>
       <use style="stroke:#000000;stroke-width:0.8;" x="35.304688" xlink:href="#m7270bcc91d" y="37.884577"/>
      </g>
     </g>
     <g id="text_15">
      <!-- 15 -->
      <g transform="translate(15.579688 41.683796)scale(0.1 -0.1)">
       <use xlink:href="#DejaVuSans-49"/>
       <use x="63.623047" xlink:href="#DejaVuSans-53"/>
      </g>
     </g>
    </g>
    <g id="ytick_9">
     <g id="line2d_31">
      <path clip-path="url(#p1679f98771)" d="M 35.304688 11.872769 
L 370.104688 11.872769 
" style="fill:none;stroke:#b0b0b0;stroke-linecap:square;stroke-width:0.8;"/>
     </g>
     <g id="line2d_32">
      <g>
       <use style="stroke:#000000;stroke-width:0.8;" x="35.304688" xlink:href="#m7270bcc91d" y="11.872769"/>
      </g>
     </g>
     <g id="text_16">
      <!-- 20 -->
      <g transform="translate(15.579688 15.671988)scale(0.1 -0.1)">
       <use xlink:href="#DejaVuSans-50"/>
       <use x="63.623047" xlink:href="#DejaVuSans-48"/>
      </g>
     </g>
    </g>
   </g>
   <g id="line2d_33">
    <path clip-path="url(#p1679f98771)" d="M 50.522869 115.92 
L 101.097808 115.92 
L 101.402476 115.771206 
L 104.449159 112.956621 
L 107.495842 110.437584 
L 110.542525 108.197356 
L 113.589208 106.219683 
L 116.635891 104.488798 
L 119.987243 102.851636 
L 123.338594 101.474939 
L 126.689945 100.33975 
L 130.041297 99.427825 
L 133.697316 98.667041 
L 137.353336 98.129301 
L 141.314024 97.77435 
L 145.57938 97.62879 
L 150.149405 97.712484 
L 155.024098 98.037637 
L 160.203459 98.608181 
L 165.992157 99.469969 
L 172.694859 100.697224 
L 180.920904 102.441545 
L 192.193631 105.078798 
L 202.857022 107.602888 
L 223.269798 102.716057 
L 232.409847 100.757751 
L 239.417218 99.469969 
L 245.510584 98.568945 
L 250.994614 97.984966 
L 255.869307 97.688202 
L 260.439331 97.635652 
L 264.704688 97.814529 
L 268.665375 98.20433 
L 272.321395 98.777773 
L 275.977415 99.577823 
L 279.328766 100.529017 
L 282.680117 101.706738 
L 286.031469 103.129362 
L 289.078152 104.65122 
L 292.124835 106.406089 
L 295.171518 108.409299 
L 298.218201 110.676669 
L 301.264884 113.2245 
L 304.311567 115.92 
L 354.886506 115.92 
L 354.886506 115.92 
" style="fill:none;stroke:#000000;stroke-linecap:square;stroke-width:1.5;"/>
   </g>
   <g id="line2d_34">
    <path clip-path="url(#p1679f98771)" d="M 50.522869 115.92 
L 101.097808 115.92 
L 101.402476 17.083636 
L 105.058496 29.166226 
L 108.714516 40.43921 
L 112.065867 50.085387 
L 115.417218 59.0962 
L 118.76857 67.493136 
L 122.119921 75.297683 
L 125.471272 82.531331 
L 128.822624 89.215565 
L 132.173975 95.371876 
L 135.220658 100.528488 
L 138.267341 105.282702 
L 141.314024 109.650662 
L 144.360707 113.648514 
L 147.40739 117.2924 
L 150.454073 120.598466 
L 153.500756 123.582856 
L 156.547439 126.261714 
L 159.594122 128.651185 
L 162.640805 130.767413 
L 165.687488 132.626542 
L 168.734172 134.244717 
L 172.085523 135.765675 
L 175.436874 137.036101 
L 178.788226 138.077483 
L 182.444245 138.977563 
L 186.404933 139.706263 
L 190.670289 140.244117 
L 195.240314 140.585419 
L 200.419675 140.745711 
L 202.552353 140.75939 
L 202.857022 91.08061 
L 208.950388 91.197871 
L 213.825081 91.509823 
L 218.090437 91.998349 
L 222.051125 92.672743 
L 225.707145 93.515429 
L 229.363164 94.59815 
L 232.714516 95.825333 
L 236.065867 97.299142 
L 239.11255 98.871063 
L 242.159233 100.68071 
L 245.205916 102.744226 
L 248.252599 105.077757 
L 251.299282 107.697446 
L 254.345965 110.619438 
L 257.392648 113.859878 
L 260.439331 117.434909 
L 263.486014 121.360675 
L 266.532697 125.653322 
L 269.57938 130.328994 
L 272.626063 135.403835 
L 275.672746 140.893989 
L 278.71943 146.8156 
L 282.070781 153.846975 
L 285.422132 161.441436 
L 288.773484 169.620472 
L 292.124835 178.40557 
L 295.476186 187.81822 
L 298.827538 197.879908 
L 302.178889 208.612124 
L 304.006899 214.756364 
L 304.311567 115.92 
L 354.886506 115.92 
L 354.886506 115.92 
" style="fill:none;stroke:#ff0000;stroke-linecap:square;stroke-width:1.5;"/>
   </g>
   <g id="line2d_35">
    <path clip-path="url(#p1679f98771)" d="M 50.522869 115.92 
L 101.097808 115.92 
L 101.402476 17.083636 
L 105.058496 29.166226 
L 108.714516 40.43921 
L 112.065867 50.085387 
L 115.417218 59.0962 
L 118.76857 67.493136 
L 122.119921 75.297683 
L 125.471272 82.531331 
L 128.822624 89.215565 
L 132.173975 95.371876 
L 135.220658 100.528488 
L 138.267341 105.282702 
L 141.314024 109.650662 
L 144.360707 113.648514 
L 147.40739 117.2924 
L 150.454073 120.598466 
L 153.500756 123.582856 
L 156.547439 126.261714 
L 159.594122 128.651185 
L 162.640805 130.767413 
L 165.687488 132.626542 
L 168.734172 134.244717 
L 172.085523 135.765675 
L 175.436874 137.036101 
L 178.788226 138.077483 
L 182.444245 138.977563 
L 186.404933 139.706263 
L 190.670289 140.244117 
L 195.240314 140.585419 
L 200.419675 140.745711 
L 202.552353 140.75939 
L 202.857022 91.08061 
L 208.950388 91.197871 
L 213.825081 91.509823 
L 218.090437 91.998349 
L 222.051125 92.672743 
L 225.707145 93.515429 
L 229.363164 94.59815 
L 232.714516 95.825333 
L 236.065867 97.299142 
L 239.11255 98.871063 
L 242.159233 100.68071 
L 245.205916 102.744226 
L 248.252599 105.077757 
L 251.299282 107.697446 
L 254.345965 110.619438 
L 257.392648 113.859878 
L 260.439331 117.434909 
L 263.486014 121.360675 
L 266.532697 125.653322 
L 269.57938 130.328994 
L 272.626063 135.403835 
L 275.672746 140.893989 
L 278.71943 146.8156 
L 282.070781 153.846975 
L 285.422132 161.441436 
L 288.773484 169.620472 
L 292.124835 178.40557 
L 295.476186 187.81822 
L 298.827538 197.879909 
L 302.178889 208.612124 
L 304.006899 214.756364 
L 304.311567 115.92 
L 354.886506 115.92 
L 354.886506 115.92 
" style="fill:none;stroke:#0000ff;stroke-dasharray:5.55,2.4;stroke-dashoffset:0;stroke-width:1.5;"/>
   </g>
   <g id="patch_3">
    <path d="M 35.304688 224.64 
L 35.304688 7.2 
" style="fill:none;stroke:#000000;stroke-linecap:square;stroke-linejoin:miter;stroke-width:0.8;"/>
   </g>
   <g id="patch_4">
    <path d="M 370.104688 224.64 
L 370.104688 7.2 
" style="fill:none;stroke:#000000;stroke-linecap:square;stroke-linejoin:miter;stroke-width:0.8;"/>
   </g>
   <g id="patch_5">
    <path d="M 35.304688 224.64 
L 370.104688 224.64 
" style="fill:none;stroke:#000000;stroke-linecap:square;stroke-linejoin:miter;stroke-width:0.8;"/>
   </g>
   <g id="patch_6">
    <path d="M 35.304688 7.2 
L 370.104688 7.2 
" style="fill:none;stroke:#000000;stroke-linecap:square;stroke-linejoin:miter;stroke-width:0.8;"/>
   </g>
  </g>
 </g>
 <defs>
  <clipPath id="p1679f98771">
   <rect height="217.44" width="334.8" x="35.304688" y="7.2"/>
  </clipPath>
 </defs>
</svg>
