<?xml version="1.0" encoding="utf-8" standalone="no"?>
<!DOCTYPE svg PUBLIC "-//W3C//DTD SVG 1.1//EN"
  "http://www.w3.org/Graphics/SVG/1.1/DTD/svg11.dtd">
<!-- Created with matplotlib (https://matplotlib.org/) -->
<svg height="263.63625pt" version="1.1" viewBox="0 0 405.932812 263.63625" width="405.932812pt" xmlns="http://www.w3.org/2000/svg" xmlns:xlink="http://www.w3.org/1999/xlink">
 <metadata>
  <rdf:RDF xmlns:cc="http://creativecommons.org/ns#" xmlns:dc="http://purl.org/dc/elements/1.1/" xmlns:rdf="http://www.w3.org/1999/02/22-rdf-syntax-ns#">
   <cc:Work>
    <dc:type rdf:resource="http://purl.org/dc/dcmitype/StillImage"/>
    <dc:date>2021-10-05T17:14:09.197873</dc:date>
    <dc:format>image/svg+xml</dc:format>
    <dc:creator>
     <cc:Agent>
      <dc:title>Matplotlib v3.3.4, https://matplotlib.org/</dc:title>
     </cc:Agent>
    </dc:creator>
   </cc:Work>
  </rdf:RDF>
 </metadata>
 <defs>
  <style type="text/css">*{stroke-linecap:butt;stroke-linejoin:round;}</style>
 </defs>
 <g id="figure_1">
  <g id="patch_1">
   <path d="M 0 263.63625 
L 405.932812 263.63625 
L 405.932812 0 
L 0 0 
z
" style="fill:none;"/>
  </g>
  <g id="axes_1">
   <g id="patch_2">
    <path d="M 63.932812 239.758125 
L 398.732813 239.758125 
L 398.732813 22.318125 
L 63.932812 22.318125 
z
" style="fill:#ffffff;"/>
   </g>
   <g id="matplotlib.axis_1">
    <g id="xtick_1">
     <g id="line2d_1">
      <path clip-path="url(#p599b1023cc)" d="M 79.150994 239.758125 
L 79.150994 22.318125 
" style="fill:none;stroke:#b0b0b0;stroke-linecap:square;stroke-width:0.8;"/>
     </g>
     <g id="line2d_2">
      <defs>
       <path d="M 0 0 
L 0 3.5 
" id="m09b805b34f" style="stroke:#000000;stroke-width:0.8;"/>
      </defs>
      <g>
       <use style="stroke:#000000;stroke-width:0.8;" x="79.150994" xlink:href="#m09b805b34f" y="239.758125"/>
      </g>
     </g>
     <g id="text_1">
      <!-- 0.0 -->
      <g transform="translate(71.199432 254.356563)scale(0.1 -0.1)">
       <defs>
        <path d="M 31.78125 66.40625 
Q 24.171875 66.40625 20.328125 58.90625 
Q 16.5 51.421875 16.5 36.375 
Q 16.5 21.390625 20.328125 13.890625 
Q 24.171875 6.390625 31.78125 6.390625 
Q 39.453125 6.390625 43.28125 13.890625 
Q 47.125 21.390625 47.125 36.375 
Q 47.125 51.421875 43.28125 58.90625 
Q 39.453125 66.40625 31.78125 66.40625 
z
M 31.78125 74.21875 
Q 44.046875 74.21875 50.515625 64.515625 
Q 56.984375 54.828125 56.984375 36.375 
Q 56.984375 17.96875 50.515625 8.265625 
Q 44.046875 -1.421875 31.78125 -1.421875 
Q 19.53125 -1.421875 13.0625 8.265625 
Q 6.59375 17.96875 6.59375 36.375 
Q 6.59375 54.828125 13.0625 64.515625 
Q 19.53125 74.21875 31.78125 74.21875 
z
" id="DejaVuSans-48"/>
        <path d="M 10.6875 12.40625 
L 21 12.40625 
L 21 0 
L 10.6875 0 
z
" id="DejaVuSans-46"/>
       </defs>
       <use xlink:href="#DejaVuSans-48"/>
       <use x="63.623047" xlink:href="#DejaVuSans-46"/>
       <use x="95.410156" xlink:href="#DejaVuSans-48"/>
      </g>
     </g>
    </g>
    <g id="xtick_2">
     <g id="line2d_3">
      <path clip-path="url(#p599b1023cc)" d="M 117.196449 239.758125 
L 117.196449 22.318125 
" style="fill:none;stroke:#b0b0b0;stroke-linecap:square;stroke-width:0.8;"/>
     </g>
     <g id="line2d_4">
      <g>
       <use style="stroke:#000000;stroke-width:0.8;" x="117.196449" xlink:href="#m09b805b34f" y="239.758125"/>
      </g>
     </g>
     <g id="text_2">
      <!-- 2.5 -->
      <g transform="translate(109.244886 254.356563)scale(0.1 -0.1)">
       <defs>
        <path d="M 19.1875 8.296875 
L 53.609375 8.296875 
L 53.609375 0 
L 7.328125 0 
L 7.328125 8.296875 
Q 12.9375 14.109375 22.625 23.890625 
Q 32.328125 33.6875 34.8125 36.53125 
Q 39.546875 41.84375 41.421875 45.53125 
Q 43.3125 49.21875 43.3125 52.78125 
Q 43.3125 58.59375 39.234375 62.25 
Q 35.15625 65.921875 28.609375 65.921875 
Q 23.96875 65.921875 18.8125 64.3125 
Q 13.671875 62.703125 7.8125 59.421875 
L 7.8125 69.390625 
Q 13.765625 71.78125 18.9375 73 
Q 24.125 74.21875 28.421875 74.21875 
Q 39.75 74.21875 46.484375 68.546875 
Q 53.21875 62.890625 53.21875 53.421875 
Q 53.21875 48.921875 51.53125 44.890625 
Q 49.859375 40.875 45.40625 35.40625 
Q 44.1875 33.984375 37.640625 27.21875 
Q 31.109375 20.453125 19.1875 8.296875 
z
" id="DejaVuSans-50"/>
        <path d="M 10.796875 72.90625 
L 49.515625 72.90625 
L 49.515625 64.59375 
L 19.828125 64.59375 
L 19.828125 46.734375 
Q 21.96875 47.46875 24.109375 47.828125 
Q 26.265625 48.1875 28.421875 48.1875 
Q 40.625 48.1875 47.75 41.5 
Q 54.890625 34.8125 54.890625 23.390625 
Q 54.890625 11.625 47.5625 5.09375 
Q 40.234375 -1.421875 26.90625 -1.421875 
Q 22.3125 -1.421875 17.546875 -0.640625 
Q 12.796875 0.140625 7.71875 1.703125 
L 7.71875 11.625 
Q 12.109375 9.234375 16.796875 8.0625 
Q 21.484375 6.890625 26.703125 6.890625 
Q 35.15625 6.890625 40.078125 11.328125 
Q 45.015625 15.765625 45.015625 23.390625 
Q 45.015625 31 40.078125 35.4375 
Q 35.15625 39.890625 26.703125 39.890625 
Q 22.75 39.890625 18.8125 39.015625 
Q 14.890625 38.140625 10.796875 36.28125 
z
" id="DejaVuSans-53"/>
       </defs>
       <use xlink:href="#DejaVuSans-50"/>
       <use x="63.623047" xlink:href="#DejaVuSans-46"/>
       <use x="95.410156" xlink:href="#DejaVuSans-53"/>
      </g>
     </g>
    </g>
    <g id="xtick_3">
     <g id="line2d_5">
      <path clip-path="url(#p599b1023cc)" d="M 155.241903 239.758125 
L 155.241903 22.318125 
" style="fill:none;stroke:#b0b0b0;stroke-linecap:square;stroke-width:0.8;"/>
     </g>
     <g id="line2d_6">
      <g>
       <use style="stroke:#000000;stroke-width:0.8;" x="155.241903" xlink:href="#m09b805b34f" y="239.758125"/>
      </g>
     </g>
     <g id="text_3">
      <!-- 5.0 -->
      <g transform="translate(147.290341 254.356563)scale(0.1 -0.1)">
       <use xlink:href="#DejaVuSans-53"/>
       <use x="63.623047" xlink:href="#DejaVuSans-46"/>
       <use x="95.410156" xlink:href="#DejaVuSans-48"/>
      </g>
     </g>
    </g>
    <g id="xtick_4">
     <g id="line2d_7">
      <path clip-path="url(#p599b1023cc)" d="M 193.287358 239.758125 
L 193.287358 22.318125 
" style="fill:none;stroke:#b0b0b0;stroke-linecap:square;stroke-width:0.8;"/>
     </g>
     <g id="line2d_8">
      <g>
       <use style="stroke:#000000;stroke-width:0.8;" x="193.287358" xlink:href="#m09b805b34f" y="239.758125"/>
      </g>
     </g>
     <g id="text_4">
      <!-- 7.5 -->
      <g transform="translate(185.335795 254.356563)scale(0.1 -0.1)">
       <defs>
        <path d="M 8.203125 72.90625 
L 55.078125 72.90625 
L 55.078125 68.703125 
L 28.609375 0 
L 18.3125 0 
L 43.21875 64.59375 
L 8.203125 64.59375 
z
" id="DejaVuSans-55"/>
       </defs>
       <use xlink:href="#DejaVuSans-55"/>
       <use x="63.623047" xlink:href="#DejaVuSans-46"/>
       <use x="95.410156" xlink:href="#DejaVuSans-53"/>
      </g>
     </g>
    </g>
    <g id="xtick_5">
     <g id="line2d_9">
      <path clip-path="url(#p599b1023cc)" d="M 231.332812 239.758125 
L 231.332812 22.318125 
" style="fill:none;stroke:#b0b0b0;stroke-linecap:square;stroke-width:0.8;"/>
     </g>
     <g id="line2d_10">
      <g>
       <use style="stroke:#000000;stroke-width:0.8;" x="231.332812" xlink:href="#m09b805b34f" y="239.758125"/>
      </g>
     </g>
     <g id="text_5">
      <!-- 10.0 -->
      <g transform="translate(220.2 254.356563)scale(0.1 -0.1)">
       <defs>
        <path d="M 12.40625 8.296875 
L 28.515625 8.296875 
L 28.515625 63.921875 
L 10.984375 60.40625 
L 10.984375 69.390625 
L 28.421875 72.90625 
L 38.28125 72.90625 
L 38.28125 8.296875 
L 54.390625 8.296875 
L 54.390625 0 
L 12.40625 0 
z
" id="DejaVuSans-49"/>
       </defs>
       <use xlink:href="#DejaVuSans-49"/>
       <use x="63.623047" xlink:href="#DejaVuSans-48"/>
       <use x="127.246094" xlink:href="#DejaVuSans-46"/>
       <use x="159.033203" xlink:href="#DejaVuSans-48"/>
      </g>
     </g>
    </g>
    <g id="xtick_6">
     <g id="line2d_11">
      <path clip-path="url(#p599b1023cc)" d="M 269.378267 239.758125 
L 269.378267 22.318125 
" style="fill:none;stroke:#b0b0b0;stroke-linecap:square;stroke-width:0.8;"/>
     </g>
     <g id="line2d_12">
      <g>
       <use style="stroke:#000000;stroke-width:0.8;" x="269.378267" xlink:href="#m09b805b34f" y="239.758125"/>
      </g>
     </g>
     <g id="text_6">
      <!-- 12.5 -->
      <g transform="translate(258.245455 254.356563)scale(0.1 -0.1)">
       <use xlink:href="#DejaVuSans-49"/>
       <use x="63.623047" xlink:href="#DejaVuSans-50"/>
       <use x="127.246094" xlink:href="#DejaVuSans-46"/>
       <use x="159.033203" xlink:href="#DejaVuSans-53"/>
      </g>
     </g>
    </g>
    <g id="xtick_7">
     <g id="line2d_13">
      <path clip-path="url(#p599b1023cc)" d="M 307.423722 239.758125 
L 307.423722 22.318125 
" style="fill:none;stroke:#b0b0b0;stroke-linecap:square;stroke-width:0.8;"/>
     </g>
     <g id="line2d_14">
      <g>
       <use style="stroke:#000000;stroke-width:0.8;" x="307.423722" xlink:href="#m09b805b34f" y="239.758125"/>
      </g>
     </g>
     <g id="text_7">
      <!-- 15.0 -->
      <g transform="translate(296.290909 254.356563)scale(0.1 -0.1)">
       <use xlink:href="#DejaVuSans-49"/>
       <use x="63.623047" xlink:href="#DejaVuSans-53"/>
       <use x="127.246094" xlink:href="#DejaVuSans-46"/>
       <use x="159.033203" xlink:href="#DejaVuSans-48"/>
      </g>
     </g>
    </g>
    <g id="xtick_8">
     <g id="line2d_15">
      <path clip-path="url(#p599b1023cc)" d="M 345.469176 239.758125 
L 345.469176 22.318125 
" style="fill:none;stroke:#b0b0b0;stroke-linecap:square;stroke-width:0.8;"/>
     </g>
     <g id="line2d_16">
      <g>
       <use style="stroke:#000000;stroke-width:0.8;" x="345.469176" xlink:href="#m09b805b34f" y="239.758125"/>
      </g>
     </g>
     <g id="text_8">
      <!-- 17.5 -->
      <g transform="translate(334.336364 254.356563)scale(0.1 -0.1)">
       <use xlink:href="#DejaVuSans-49"/>
       <use x="63.623047" xlink:href="#DejaVuSans-55"/>
       <use x="127.246094" xlink:href="#DejaVuSans-46"/>
       <use x="159.033203" xlink:href="#DejaVuSans-53"/>
      </g>
     </g>
    </g>
    <g id="xtick_9">
     <g id="line2d_17">
      <path clip-path="url(#p599b1023cc)" d="M 383.514631 239.758125 
L 383.514631 22.318125 
" style="fill:none;stroke:#b0b0b0;stroke-linecap:square;stroke-width:0.8;"/>
     </g>
     <g id="line2d_18">
      <g>
       <use style="stroke:#000000;stroke-width:0.8;" x="383.514631" xlink:href="#m09b805b34f" y="239.758125"/>
      </g>
     </g>
     <g id="text_9">
      <!-- 20.0 -->
      <g transform="translate(372.381818 254.356563)scale(0.1 -0.1)">
       <use xlink:href="#DejaVuSans-50"/>
       <use x="63.623047" xlink:href="#DejaVuSans-48"/>
       <use x="127.246094" xlink:href="#DejaVuSans-46"/>
       <use x="159.033203" xlink:href="#DejaVuSans-48"/>
      </g>
     </g>
    </g>
   </g>
   <g id="matplotlib.axis_2">
    <g id="ytick_1">
     <g id="line2d_19">
      <path clip-path="url(#p599b1023cc)" d="M 63.932812 229.874489 
L 398.732813 229.874489 
" style="fill:none;stroke:#b0b0b0;stroke-linecap:square;stroke-width:0.8;"/>
     </g>
     <g id="line2d_20">
      <defs>
       <path d="M 0 0 
L -3.5 0 
" id="me1f0de79ee" style="stroke:#000000;stroke-width:0.8;"/>
      </defs>
      <g>
       <use style="stroke:#000000;stroke-width:0.8;" x="63.932812" xlink:href="#me1f0de79ee" y="229.874489"/>
      </g>
     </g>
     <g id="text_10">
      <!-- −0.00100 -->
      <g transform="translate(7.2 233.673707)scale(0.1 -0.1)">
       <defs>
        <path d="M 10.59375 35.5 
L 73.1875 35.5 
L 73.1875 27.203125 
L 10.59375 27.203125 
z
" id="DejaVuSans-8722"/>
       </defs>
       <use xlink:href="#DejaVuSans-8722"/>
       <use x="83.789062" xlink:href="#DejaVuSans-48"/>
       <use x="147.412109" xlink:href="#DejaVuSans-46"/>
       <use x="179.199219" xlink:href="#DejaVuSans-48"/>
       <use x="242.822266" xlink:href="#DejaVuSans-48"/>
       <use x="306.445312" xlink:href="#DejaVuSans-49"/>
       <use x="370.068359" xlink:href="#DejaVuSans-48"/>
       <use x="433.691406" xlink:href="#DejaVuSans-48"/>
      </g>
     </g>
    </g>
    <g id="ytick_2">
     <g id="line2d_21">
      <path clip-path="url(#p599b1023cc)" d="M 63.932812 205.125446 
L 398.732813 205.125446 
" style="fill:none;stroke:#b0b0b0;stroke-linecap:square;stroke-width:0.8;"/>
     </g>
     <g id="line2d_22">
      <g>
       <use style="stroke:#000000;stroke-width:0.8;" x="63.932812" xlink:href="#me1f0de79ee" y="205.125446"/>
      </g>
     </g>
     <g id="text_11">
      <!-- −0.00075 -->
      <g transform="translate(7.2 208.924665)scale(0.1 -0.1)">
       <use xlink:href="#DejaVuSans-8722"/>
       <use x="83.789062" xlink:href="#DejaVuSans-48"/>
       <use x="147.412109" xlink:href="#DejaVuSans-46"/>
       <use x="179.199219" xlink:href="#DejaVuSans-48"/>
       <use x="242.822266" xlink:href="#DejaVuSans-48"/>
       <use x="306.445312" xlink:href="#DejaVuSans-48"/>
       <use x="370.068359" xlink:href="#DejaVuSans-55"/>
       <use x="433.691406" xlink:href="#DejaVuSans-53"/>
      </g>
     </g>
    </g>
    <g id="ytick_3">
     <g id="line2d_23">
      <path clip-path="url(#p599b1023cc)" d="M 63.932812 180.376403 
L 398.732813 180.376403 
" style="fill:none;stroke:#b0b0b0;stroke-linecap:square;stroke-width:0.8;"/>
     </g>
     <g id="line2d_24">
      <g>
       <use style="stroke:#000000;stroke-width:0.8;" x="63.932812" xlink:href="#me1f0de79ee" y="180.376403"/>
      </g>
     </g>
     <g id="text_12">
      <!-- −0.00050 -->
      <g transform="translate(7.2 184.175622)scale(0.1 -0.1)">
       <use xlink:href="#DejaVuSans-8722"/>
       <use x="83.789062" xlink:href="#DejaVuSans-48"/>
       <use x="147.412109" xlink:href="#DejaVuSans-46"/>
       <use x="179.199219" xlink:href="#DejaVuSans-48"/>
       <use x="242.822266" xlink:href="#DejaVuSans-48"/>
       <use x="306.445312" xlink:href="#DejaVuSans-48"/>
       <use x="370.068359" xlink:href="#DejaVuSans-53"/>
       <use x="433.691406" xlink:href="#DejaVuSans-48"/>
      </g>
     </g>
    </g>
    <g id="ytick_4">
     <g id="line2d_25">
      <path clip-path="url(#p599b1023cc)" d="M 63.932812 155.627361 
L 398.732813 155.627361 
" style="fill:none;stroke:#b0b0b0;stroke-linecap:square;stroke-width:0.8;"/>
     </g>
     <g id="line2d_26">
      <g>
       <use style="stroke:#000000;stroke-width:0.8;" x="63.932812" xlink:href="#me1f0de79ee" y="155.627361"/>
      </g>
     </g>
     <g id="text_13">
      <!-- −0.00025 -->
      <g transform="translate(7.2 159.42658)scale(0.1 -0.1)">
       <use xlink:href="#DejaVuSans-8722"/>
       <use x="83.789062" xlink:href="#DejaVuSans-48"/>
       <use x="147.412109" xlink:href="#DejaVuSans-46"/>
       <use x="179.199219" xlink:href="#DejaVuSans-48"/>
       <use x="242.822266" xlink:href="#DejaVuSans-48"/>
       <use x="306.445312" xlink:href="#DejaVuSans-48"/>
       <use x="370.068359" xlink:href="#DejaVuSans-50"/>
       <use x="433.691406" xlink:href="#DejaVuSans-53"/>
      </g>
     </g>
    </g>
    <g id="ytick_5">
     <g id="line2d_27">
      <path clip-path="url(#p599b1023cc)" d="M 63.932812 130.878318 
L 398.732813 130.878318 
" style="fill:none;stroke:#b0b0b0;stroke-linecap:square;stroke-width:0.8;"/>
     </g>
     <g id="line2d_28">
      <g>
       <use style="stroke:#000000;stroke-width:0.8;" x="63.932812" xlink:href="#me1f0de79ee" y="130.878318"/>
      </g>
     </g>
     <g id="text_14">
      <!-- 0.00000 -->
      <g transform="translate(15.579687 134.677537)scale(0.1 -0.1)">
       <use xlink:href="#DejaVuSans-48"/>
       <use x="63.623047" xlink:href="#DejaVuSans-46"/>
       <use x="95.410156" xlink:href="#DejaVuSans-48"/>
       <use x="159.033203" xlink:href="#DejaVuSans-48"/>
       <use x="222.65625" xlink:href="#DejaVuSans-48"/>
       <use x="286.279297" xlink:href="#DejaVuSans-48"/>
       <use x="349.902344" xlink:href="#DejaVuSans-48"/>
      </g>
     </g>
    </g>
    <g id="ytick_6">
     <g id="line2d_29">
      <path clip-path="url(#p599b1023cc)" d="M 63.932812 106.129276 
L 398.732813 106.129276 
" style="fill:none;stroke:#b0b0b0;stroke-linecap:square;stroke-width:0.8;"/>
     </g>
     <g id="line2d_30">
      <g>
       <use style="stroke:#000000;stroke-width:0.8;" x="63.932812" xlink:href="#me1f0de79ee" y="106.129276"/>
      </g>
     </g>
     <g id="text_15">
      <!-- 0.00025 -->
      <g transform="translate(15.579687 109.928494)scale(0.1 -0.1)">
       <use xlink:href="#DejaVuSans-48"/>
       <use x="63.623047" xlink:href="#DejaVuSans-46"/>
       <use x="95.410156" xlink:href="#DejaVuSans-48"/>
       <use x="159.033203" xlink:href="#DejaVuSans-48"/>
       <use x="222.65625" xlink:href="#DejaVuSans-48"/>
       <use x="286.279297" xlink:href="#DejaVuSans-50"/>
       <use x="349.902344" xlink:href="#DejaVuSans-53"/>
      </g>
     </g>
    </g>
    <g id="ytick_7">
     <g id="line2d_31">
      <path clip-path="url(#p599b1023cc)" d="M 63.932812 81.380233 
L 398.732813 81.380233 
" style="fill:none;stroke:#b0b0b0;stroke-linecap:square;stroke-width:0.8;"/>
     </g>
     <g id="line2d_32">
      <g>
       <use style="stroke:#000000;stroke-width:0.8;" x="63.932812" xlink:href="#me1f0de79ee" y="81.380233"/>
      </g>
     </g>
     <g id="text_16">
      <!-- 0.00050 -->
      <g transform="translate(15.579687 85.179452)scale(0.1 -0.1)">
       <use xlink:href="#DejaVuSans-48"/>
       <use x="63.623047" xlink:href="#DejaVuSans-46"/>
       <use x="95.410156" xlink:href="#DejaVuSans-48"/>
       <use x="159.033203" xlink:href="#DejaVuSans-48"/>
       <use x="222.65625" xlink:href="#DejaVuSans-48"/>
       <use x="286.279297" xlink:href="#DejaVuSans-53"/>
       <use x="349.902344" xlink:href="#DejaVuSans-48"/>
      </g>
     </g>
    </g>
    <g id="ytick_8">
     <g id="line2d_33">
      <path clip-path="url(#p599b1023cc)" d="M 63.932812 56.63119 
L 398.732813 56.63119 
" style="fill:none;stroke:#b0b0b0;stroke-linecap:square;stroke-width:0.8;"/>
     </g>
     <g id="line2d_34">
      <g>
       <use style="stroke:#000000;stroke-width:0.8;" x="63.932812" xlink:href="#me1f0de79ee" y="56.63119"/>
      </g>
     </g>
     <g id="text_17">
      <!-- 0.00075 -->
      <g transform="translate(15.579687 60.430409)scale(0.1 -0.1)">
       <use xlink:href="#DejaVuSans-48"/>
       <use x="63.623047" xlink:href="#DejaVuSans-46"/>
       <use x="95.410156" xlink:href="#DejaVuSans-48"/>
       <use x="159.033203" xlink:href="#DejaVuSans-48"/>
       <use x="222.65625" xlink:href="#DejaVuSans-48"/>
       <use x="286.279297" xlink:href="#DejaVuSans-55"/>
       <use x="349.902344" xlink:href="#DejaVuSans-53"/>
      </g>
     </g>
    </g>
    <g id="ytick_9">
     <g id="line2d_35">
      <path clip-path="url(#p599b1023cc)" d="M 63.932812 31.882148 
L 398.732813 31.882148 
" style="fill:none;stroke:#b0b0b0;stroke-linecap:square;stroke-width:0.8;"/>
     </g>
     <g id="line2d_36">
      <g>
       <use style="stroke:#000000;stroke-width:0.8;" x="63.932812" xlink:href="#me1f0de79ee" y="31.882148"/>
      </g>
     </g>
     <g id="text_18">
      <!-- 0.00100 -->
      <g transform="translate(15.579687 35.681366)scale(0.1 -0.1)">
       <use xlink:href="#DejaVuSans-48"/>
       <use x="63.623047" xlink:href="#DejaVuSans-46"/>
       <use x="95.410156" xlink:href="#DejaVuSans-48"/>
       <use x="159.033203" xlink:href="#DejaVuSans-48"/>
       <use x="222.65625" xlink:href="#DejaVuSans-49"/>
       <use x="286.279297" xlink:href="#DejaVuSans-48"/>
       <use x="349.902344" xlink:href="#DejaVuSans-48"/>
      </g>
     </g>
    </g>
   </g>
   <g id="line2d_37">
    <path clip-path="url(#p599b1023cc)" d="M 79.150994 229.874489 
L 79.455663 229.77533 
L 79.760331 229.478097 
L 80.369668 228.292949 
L 80.979004 226.330623 
L 81.588341 223.610864 
L 82.502346 218.172281 
L 83.416351 211.213686 
L 84.635024 199.844268 
L 86.158365 182.915778 
L 88.291043 156.023656 
L 91.947063 109.624703 
L 93.470405 93.168771 
L 94.689078 82.145471 
L 95.603083 75.350905 
L 96.517088 69.932332 
L 97.431093 65.952984 
L 98.040429 64.114142 
L 98.649766 62.92599 
L 99.259102 62.379932 
L 99.563771 62.34309 
L 99.868439 62.460387 
L 100.477776 63.144965 
L 101.087112 64.405029 
L 101.696449 66.205706 
L 102.610454 69.831283 
L 103.524459 74.426319 
L 104.743132 81.755313 
L 106.571142 94.390032 
L 109.922493 117.822724 
L 111.141166 124.999509 
L 112.35984 130.905286 
L 113.273844 134.355927 
L 114.187849 136.894055 
L 114.797186 138.062236 
L 115.406523 138.808873 
L 116.015859 139.138977 
L 116.625196 139.063893 
L 117.234532 138.601097 
L 117.843869 137.77382 
L 118.453206 136.610812 
L 119.367211 134.311896 
L 120.585884 130.423565 
L 122.413894 123.584307 
L 124.546572 115.731115 
L 125.765245 112.110487 
L 126.67925 110.101662 
L 127.288586 109.177097 
L 127.897923 108.62614 
L 128.50726 108.479241 
L 129.116596 108.761389 
L 129.725933 109.491838 
L 130.33527 110.683662 
L 130.944606 112.343651 
L 131.858611 115.710043 
L 132.772616 120.101395 
L 133.991289 127.442136 
L 135.209962 136.26323 
L 137.037972 151.542339 
L 141.607997 191.290788 
L 142.82667 199.786961 
L 143.740675 204.995038 
L 144.65468 209.012416 
L 145.264016 210.955387 
L 145.873353 212.266658 
L 146.48269 212.915977 
L 146.787358 212.984733 
L 147.092026 212.879707 
L 147.396695 212.599016 
L 148.006031 211.505595 
L 148.615368 209.698939 
L 149.224704 207.181083 
L 150.138709 202.09382 
L 151.052714 195.493982 
L 152.271387 184.521701 
L 153.490061 171.380907 
L 155.013402 152.573682 
L 157.755417 115.230997 
L 160.192763 82.937325 
L 161.716105 65.400541 
L 162.934778 53.676942 
L 163.848783 46.512933 
L 164.762788 40.904362 
L 165.372125 38.082985 
L 165.981461 36.022377 
L 166.590798 34.736756 
L 166.895466 34.386842 
L 167.200134 34.232437 
L 167.504803 34.273091 
L 167.809471 34.507872 
L 168.418808 35.553673 
L 169.028144 37.352737 
L 169.637481 39.880562 
L 170.551486 44.967207 
L 171.465491 51.485058 
L 172.684164 62.111173 
L 174.207505 77.840456 
L 176.644852 106.182694 
L 179.386867 137.780343 
L 180.910208 153.084288 
L 182.128881 163.4378 
L 183.347555 171.770468 
L 184.261559 176.566427 
L 185.175564 180.062549 
L 185.784901 181.664811 
L 186.394238 182.690017 
L 187.003574 183.150761 
L 187.308242 183.175247 
L 187.612911 183.066282 
L 188.222247 182.461864 
L 188.831584 181.368838 
L 189.440921 179.823605 
L 190.354926 176.749604 
L 191.573599 171.487894 
L 193.09694 163.631263 
L 197.057628 142.490917 
L 198.276301 137.388295 
L 199.190306 134.361097 
L 200.104311 132.126031 
L 200.713648 131.109076 
L 201.322984 130.484831 
L 201.932321 130.258385 
L 202.541658 130.428496 
L 203.150994 130.987619 
L 203.760331 131.921999 
L 204.369668 133.211756 
L 205.283672 135.755483 
L 206.502346 140.108495 
L 208.025687 146.631038 
L 211.377039 161.553834 
L 212.595712 165.842353 
L 213.509717 168.258164 
L 214.119053 169.403739 
L 214.72839 170.131723 
L 215.337727 170.408313 
L 215.642395 170.368279 
L 216.251731 169.916378 
L 216.861068 168.953095 
L 217.470405 167.465152 
L 218.079741 165.445824 
L 218.993746 161.422521 
L 219.907751 156.234437 
L 221.126424 147.619824 
L 222.345098 137.293881 
L 223.868439 122.504633 
L 227.21979 86.788083 
L 229.0478 68.543351 
L 230.266473 58.047008 
L 231.485147 49.46095 
L 232.399152 44.532322 
L 233.008488 42.050474 
L 233.617825 40.254532 
L 234.227161 39.173747 
L 234.53183 38.90873 
L 234.836498 38.830228 
L 235.141166 38.93982 
L 235.445835 39.238674 
L 236.055171 40.406179 
L 236.664508 42.332123 
L 237.273844 45.008074 
L 238.187849 50.390677 
L 239.101854 57.335848 
L 240.320527 68.80871 
L 241.539201 82.452013 
L 243.367211 105.926334 
L 248.85124 179.629794 
L 250.374582 195.854845 
L 251.593255 206.240546 
L 252.50726 212.291315 
L 253.421265 216.739857 
L 254.030601 218.784181 
L 254.639938 220.080719 
L 254.944606 220.448134 
L 255.249274 220.62904 
L 255.553943 220.624588 
L 255.858611 220.436402 
L 256.163279 220.066577 
L 256.772616 218.792631 
L 257.381953 216.828409 
L 257.991289 214.206395 
L 258.905294 209.126775 
L 259.819299 202.811734 
L 261.037972 192.785913 
L 262.561314 178.361574 
L 268.045343 124.386108 
L 269.264016 114.966342 
L 270.48269 107.286622 
L 271.396695 102.795141 
L 272.310699 99.445964 
L 272.920036 97.855409 
L 273.529373 96.774119 
L 274.138709 96.190834 
L 274.748046 96.087955 
L 275.357383 96.441833 
L 275.966719 97.223188 
L 276.576056 98.397569 
L 277.490061 100.809345 
L 278.404066 103.867605 
L 279.927407 109.948835 
L 283.278758 123.977085 
L 284.497432 128.023677 
L 285.411437 130.342575 
L 286.020773 131.483622 
L 286.63011 132.269239 
L 287.239446 132.678666 
L 287.848783 132.697187 
L 288.45812 132.316226 
L 289.067456 131.533499 
L 289.676793 130.353126 
L 290.590798 127.861513 
L 291.504803 124.561367 
L 292.723476 119.065224 
L 294.246817 110.855721 
L 298.816842 84.776344 
L 300.035515 79.56608 
L 300.94952 76.655763 
L 301.558857 75.275722 
L 302.168193 74.38979 
L 302.77753 74.031425 
L 303.082198 74.059006 
L 303.386867 74.228417 
L 303.996203 75.00244 
L 304.60554 76.368558 
L 305.214876 78.335097 
L 306.128881 82.41166 
L 307.042886 87.814908 
L 307.956891 94.483323 
L 309.175564 105.17068 
L 310.698906 120.949561 
L 312.831584 146.031217 
L 316.487604 189.507541 
L 318.010945 204.774754 
L 319.229618 214.740294 
L 320.143623 220.615598 
L 321.057628 224.954696 
L 321.666965 226.936593 
L 322.276301 228.160065 
L 322.58097 228.48173 
L 322.885638 228.607986 
L 323.190306 228.537877 
L 323.494975 228.270999 
L 324.104311 227.147635 
L 324.713648 225.24427 
L 325.322984 222.575203 
L 326.236989 217.186112 
L 327.150994 210.231234 
L 328.369668 198.770653 
L 329.893009 181.53713 
L 331.721019 157.930662 
L 336.291043 97.560139 
L 337.814385 80.928333 
L 339.033058 69.973861 
L 339.947063 63.354804 
L 340.861068 58.217877 
L 341.470405 55.648974 
L 342.079741 53.776317 
L 342.689078 52.601469 
L 342.993746 52.274164 
L 343.298414 52.118467 
L 343.603083 52.13254 
L 343.907751 52.314065 
L 344.517088 53.167956 
L 345.126424 54.653094 
L 345.735761 56.735989 
L 346.649766 60.893618 
L 347.563771 66.151575 
L 348.782444 74.564411 
L 350.610454 89.226228 
L 354.571142 122.041876 
L 356.094483 132.468117 
L 357.313156 139.191942 
L 358.227161 143.1421 
L 359.141166 146.092735 
L 359.750503 147.492867 
L 360.35984 148.440793 
L 360.969176 148.944933 
L 361.578513 149.019986 
L 362.187849 148.686655 
L 362.797186 147.971313 
L 363.406523 146.905597 
L 364.320527 144.730882 
L 365.539201 140.978918 
L 367.367211 134.305257 
L 369.499889 126.598089 
L 370.718562 123.025641 
L 371.632567 121.024724 
L 372.241903 120.087122 
L 372.85124 119.50499 
L 373.460577 119.305462 
L 374.069913 119.510093 
L 374.67925 120.134516 
L 375.288586 121.188197 
L 375.897923 122.674256 
L 376.811928 125.704899 
L 377.725933 129.660729 
L 378.944606 136.24779 
L 380.163279 144.099983 
L 381.991289 157.496758 
L 383.514631 169.238877 
L 383.514631 169.238877 
" style="fill:none;stroke:#000000;stroke-linecap:square;stroke-width:1.5;"/>
   </g>
   <g id="line2d_38">
    <path clip-path="url(#p599b1023cc)" d="M 79.150994 130.878318 
L 79.760331 130.680238 
L 80.369668 130.089219 
L 80.979004 129.114513 
L 81.588341 127.771883 
L 82.502346 125.116861 
L 83.416351 121.780436 
L 84.635024 116.487512 
L 86.767702 105.925989 
L 88.90038 95.633953 
L 90.119053 90.775553 
L 91.033058 87.938753 
L 91.642395 86.519553 
L 92.251731 85.52642 
L 92.861068 84.995575 
L 93.165736 84.913453 
L 93.470405 84.958102 
L 93.775073 85.132563 
L 94.38441 85.880837 
L 94.993746 87.17439 
L 95.603083 89.022707 
L 96.517088 92.8395 
L 97.431093 97.889094 
L 98.345098 104.116365 
L 99.563771 114.091886 
L 101.087112 128.808566 
L 103.21979 152.149391 
L 106.571142 189.176136 
L 108.094483 203.497974 
L 109.313156 212.848044 
L 110.227161 218.340327 
L 111.141166 222.358398 
L 111.750503 224.157504 
L 112.35984 225.220523 
L 112.664508 225.469534 
L 112.969176 225.52774 
L 113.273844 225.393867 
L 113.578513 225.067141 
L 114.187849 223.834335 
L 114.797186 221.832927 
L 115.406523 219.074333 
L 116.320527 213.560498 
L 117.234532 206.483835 
L 118.453206 194.850813 
L 119.976547 177.361983 
L 121.804557 153.362303 
L 126.374582 91.602966 
L 127.897923 74.464381 
L 129.116596 63.139823 
L 130.030601 56.282818 
L 130.944606 50.956153 
L 131.553943 48.293909 
L 132.163279 46.358699 
L 132.772616 45.155691 
L 133.077284 44.828296 
L 133.381953 44.682424 
L 133.686621 44.716562 
L 133.991289 44.928753 
L 134.600626 45.877221 
L 135.209962 47.503259 
L 135.819299 49.775513 
L 136.733304 54.311529 
L 137.647309 60.064129 
L 138.865982 69.31874 
L 140.389324 82.761361 
L 145.873353 133.406001 
L 147.092026 142.207376 
L 148.310699 149.338969 
L 149.224704 153.471878 
L 150.138709 156.5119 
L 150.748046 157.925633 
L 151.357383 158.854511 
L 151.966719 159.310851 
L 152.576056 159.312912 
L 153.185392 158.884929 
L 153.794729 158.056639 
L 154.404066 156.862882 
L 155.31807 154.474217 
L 156.536744 150.40915 
L 158.364754 143.236035 
L 160.497432 134.928759 
L 161.716105 131.00212 
L 162.63011 128.723209 
L 163.239446 127.591027 
L 163.848783 126.80445 
L 164.45812 126.388207 
L 165.067456 126.361302 
L 165.676793 126.736775 
L 166.286129 127.521376 
L 166.895466 128.715522 
L 167.504803 130.313245 
L 168.418808 133.437812 
L 169.332812 137.373434 
L 170.551486 143.709897 
L 172.074827 152.937471 
L 176.340184 179.961208 
L 177.558857 186.034937 
L 178.472862 189.599767 
L 179.386867 192.136562 
L 179.996203 193.188008 
L 180.60554 193.687115 
L 180.910208 193.720533 
L 181.214876 193.605764 
L 181.519545 193.340325 
L 182.128881 192.349286 
L 182.738218 190.73556 
L 183.347555 188.494297 
L 184.261559 183.962933 
L 185.175564 178.06508 
L 186.394238 168.209867 
L 187.612911 156.33532 
L 189.136252 139.230059 
L 191.573599 108.861838 
L 194.315613 75.215147 
L 195.838955 59.085745 
L 197.057628 48.39957 
L 197.971633 41.9726 
L 198.885638 37.077124 
L 199.494975 34.723841 
L 200.104311 33.130118 
L 200.713648 32.314308 
L 201.018316 32.201761 
L 201.322984 32.28705 
L 201.627653 32.570274 
L 202.236989 33.728431 
L 202.846326 35.667054 
L 203.455663 38.36921 
L 204.369668 43.797997 
L 205.283672 50.77349 
L 206.502346 62.218851 
L 208.025687 79.345276 
L 210.158365 106.727325 
L 213.814385 154.489067 
L 215.337727 171.633614 
L 216.5564 183.215383 
L 217.775073 192.508614 
L 218.689078 197.822342 
L 219.603083 201.643021 
L 220.212419 203.346443 
L 220.821756 204.375841 
L 221.126424 204.640313 
L 221.431093 204.740183 
L 221.735761 204.677715 
L 222.040429 204.455637 
L 222.649766 203.545307 
L 223.259102 202.038496 
L 223.868439 199.970803 
L 224.782444 195.908723 
L 225.696449 190.837221 
L 226.915122 182.817679 
L 228.743132 169.050881 
L 232.094483 143.369901 
L 233.617825 133.555191 
L 234.836498 127.204993 
L 235.750503 123.47401 
L 236.664508 120.695911 
L 237.273844 119.387743 
L 237.883181 118.515323 
L 238.492518 118.072061 
L 239.101854 118.044855 
L 239.711191 118.414826 
L 240.320527 119.157184 
L 240.929864 120.241879 
L 241.843869 122.43291 
L 243.062542 126.190157 
L 244.890552 132.849502 
L 247.02323 140.514618 
L 248.241903 144.045759 
L 249.155908 146.002252 
L 249.765245 146.90157 
L 250.374582 147.436944 
L 250.983918 147.579581 
L 251.593255 147.30634 
L 252.202591 146.599877 
L 252.811928 145.448996 
L 253.421265 143.848948 
L 254.33527 140.612029 
L 255.249274 136.40286 
L 256.467948 129.396643 
L 257.686621 121.024386 
L 259.514631 106.647184 
L 263.475319 74.559103 
L 264.693992 66.424912 
L 265.607997 61.384648 
L 266.522002 57.449165 
L 267.131338 55.51531 
L 267.740675 54.178935 
L 268.350012 53.472445 
L 268.65468 53.363813 
L 268.959348 53.421914 
L 269.264016 53.64894 
L 269.873353 54.616312 
L 270.48269 56.274483 
L 271.092026 58.624611 
L 272.006031 63.431309 
L 272.920036 69.725939 
L 273.834041 77.418382 
L 275.052714 89.627498 
L 276.576056 107.466271 
L 278.708734 135.514628 
L 282.060085 179.956272 
L 283.583427 197.442587 
L 284.8021 209.189722 
L 285.716105 216.398981 
L 286.63011 222.067936 
L 287.544115 226.082718 
L 288.153451 227.800878 
L 288.762788 228.736016 
L 289.067456 228.908027 
L 289.372125 228.882966 
L 289.676793 228.66142 
L 289.981461 228.244474 
L 290.590798 226.831172 
L 291.200134 224.661345 
L 291.809471 221.760923 
L 292.723476 216.114509 
L 293.637481 209.03997 
L 294.856154 197.683941 
L 296.379496 181.077227 
L 298.816842 151.46064 
L 301.558857 118.708509 
L 303.082198 102.927851 
L 304.300871 92.290725 
L 305.519545 83.768192 
L 306.43355 78.894274 
L 307.347555 75.377107 
L 307.956891 73.792974 
L 308.566228 72.811757 
L 309.175564 72.42092 
L 309.480233 72.44115 
L 309.784901 72.601206 
L 310.394238 73.326945 
L 311.003574 74.566765 
L 311.612911 76.283627 
L 312.526916 79.66063 
L 313.745589 85.407558 
L 315.26893 93.990316 
L 319.534287 119.088758 
L 320.75296 124.737942 
L 321.666965 128.145002 
L 322.58097 130.737564 
L 323.190306 131.982239 
L 323.799643 132.82716 
L 324.40898 133.268457 
L 325.018316 133.308634 
L 325.627653 132.956591 
L 326.236989 132.227225 
L 326.846326 131.141667 
L 327.760331 128.904961 
L 328.674336 126.039268 
L 329.893009 121.475403 
L 334.463034 103.231815 
L 335.377039 100.659508 
L 336.291043 98.8299 
L 336.90038 98.089812 
L 337.509717 97.773727 
L 337.814385 97.783873 
L 338.423722 98.155927 
L 339.033058 99.013078 
L 339.642395 100.369275 
L 340.251731 102.231933 
L 341.165736 105.975438 
L 342.079741 110.83295 
L 343.298414 118.934222 
L 344.517088 128.673089 
L 346.040429 142.641907 
L 351.829127 198.469931 
L 353.0478 207.30022 
L 353.961805 212.560899 
L 354.87581 216.472607 
L 355.485147 218.26421 
L 356.094483 219.365253 
L 356.399152 219.648876 
L 356.70382 219.751234 
L 357.008488 219.670372 
L 357.313156 219.40481 
L 357.922493 218.31607 
L 358.53183 216.482763 
L 359.141166 213.910337 
L 360.055171 208.696832 
L 360.969176 201.928291 
L 362.187849 190.685934 
L 363.406523 177.248363 
L 364.929864 158.069307 
L 367.976547 115.913742 
L 370.109225 87.533046 
L 371.632567 69.86048 
L 372.85124 58.048307 
L 373.765245 50.817407 
L 374.67925 45.131356 
L 375.593255 41.085523 
L 376.202591 39.329379 
L 376.811928 38.335685 
L 377.116596 38.124897 
L 377.421265 38.103914 
L 377.725933 38.271448 
L 378.030601 38.625743 
L 378.639938 39.88526 
L 379.249274 41.859212 
L 379.858611 44.517231 
L 380.772616 49.704174 
L 381.686621 56.194905 
L 382.905294 66.566726 
L 383.514631 72.354224 
L 383.514631 72.354224 
" style="fill:none;stroke:#0000ff;stroke-linecap:square;stroke-width:1.5;"/>
   </g>
   <g id="patch_3">
    <path d="M 63.932812 239.758125 
L 63.932812 22.318125 
" style="fill:none;stroke:#000000;stroke-linecap:square;stroke-linejoin:miter;stroke-width:0.8;"/>
   </g>
   <g id="patch_4">
    <path d="M 398.732813 239.758125 
L 398.732813 22.318125 
" style="fill:none;stroke:#000000;stroke-linecap:square;stroke-linejoin:miter;stroke-width:0.8;"/>
   </g>
   <g id="patch_5">
    <path d="M 63.932812 239.758125 
L 398.732813 239.758125 
" style="fill:none;stroke:#000000;stroke-linecap:square;stroke-linejoin:miter;stroke-width:0.8;"/>
   </g>
   <g id="patch_6">
    <path d="M 63.932812 22.318125 
L 398.732813 22.318125 
" style="fill:none;stroke:#000000;stroke-linecap:square;stroke-linejoin:miter;stroke-width:0.8;"/>
   </g>
   <g id="text_19">
    <!-- Unknown mode -->
    <g transform="translate(184.558125 16.318125)scale(0.12 -0.12)">
     <defs>
      <path d="M 8.6875 72.90625 
L 18.609375 72.90625 
L 18.609375 28.609375 
Q 18.609375 16.890625 22.84375 11.734375 
Q 27.09375 6.59375 36.625 6.59375 
Q 46.09375 6.59375 50.34375 11.734375 
Q 54.59375 16.890625 54.59375 28.609375 
L 54.59375 72.90625 
L 64.5 72.90625 
L 64.5 27.390625 
Q 64.5 13.140625 57.4375 5.859375 
Q 50.390625 -1.421875 36.625 -1.421875 
Q 22.796875 -1.421875 15.734375 5.859375 
Q 8.6875 13.140625 8.6875 27.390625 
z
" id="DejaVuSans-85"/>
      <path d="M 54.890625 33.015625 
L 54.890625 0 
L 45.90625 0 
L 45.90625 32.71875 
Q 45.90625 40.484375 42.875 44.328125 
Q 39.84375 48.1875 33.796875 48.1875 
Q 26.515625 48.1875 22.3125 43.546875 
Q 18.109375 38.921875 18.109375 30.90625 
L 18.109375 0 
L 9.078125 0 
L 9.078125 54.6875 
L 18.109375 54.6875 
L 18.109375 46.1875 
Q 21.34375 51.125 25.703125 53.5625 
Q 30.078125 56 35.796875 56 
Q 45.21875 56 50.046875 50.171875 
Q 54.890625 44.34375 54.890625 33.015625 
z
" id="DejaVuSans-110"/>
      <path d="M 9.078125 75.984375 
L 18.109375 75.984375 
L 18.109375 31.109375 
L 44.921875 54.6875 
L 56.390625 54.6875 
L 27.390625 29.109375 
L 57.625 0 
L 45.90625 0 
L 18.109375 26.703125 
L 18.109375 0 
L 9.078125 0 
z
" id="DejaVuSans-107"/>
      <path d="M 30.609375 48.390625 
Q 23.390625 48.390625 19.1875 42.75 
Q 14.984375 37.109375 14.984375 27.296875 
Q 14.984375 17.484375 19.15625 11.84375 
Q 23.34375 6.203125 30.609375 6.203125 
Q 37.796875 6.203125 41.984375 11.859375 
Q 46.1875 17.53125 46.1875 27.296875 
Q 46.1875 37.015625 41.984375 42.703125 
Q 37.796875 48.390625 30.609375 48.390625 
z
M 30.609375 56 
Q 42.328125 56 49.015625 48.375 
Q 55.71875 40.765625 55.71875 27.296875 
Q 55.71875 13.875 49.015625 6.21875 
Q 42.328125 -1.421875 30.609375 -1.421875 
Q 18.84375 -1.421875 12.171875 6.21875 
Q 5.515625 13.875 5.515625 27.296875 
Q 5.515625 40.765625 12.171875 48.375 
Q 18.84375 56 30.609375 56 
z
" id="DejaVuSans-111"/>
      <path d="M 4.203125 54.6875 
L 13.1875 54.6875 
L 24.421875 12.015625 
L 35.59375 54.6875 
L 46.1875 54.6875 
L 57.421875 12.015625 
L 68.609375 54.6875 
L 77.59375 54.6875 
L 63.28125 0 
L 52.6875 0 
L 40.921875 44.828125 
L 29.109375 0 
L 18.5 0 
z
" id="DejaVuSans-119"/>
      <path id="DejaVuSans-32"/>
      <path d="M 52 44.1875 
Q 55.375 50.25 60.0625 53.125 
Q 64.75 56 71.09375 56 
Q 79.640625 56 84.28125 50.015625 
Q 88.921875 44.046875 88.921875 33.015625 
L 88.921875 0 
L 79.890625 0 
L 79.890625 32.71875 
Q 79.890625 40.578125 77.09375 44.375 
Q 74.3125 48.1875 68.609375 48.1875 
Q 61.625 48.1875 57.5625 43.546875 
Q 53.515625 38.921875 53.515625 30.90625 
L 53.515625 0 
L 44.484375 0 
L 44.484375 32.71875 
Q 44.484375 40.625 41.703125 44.40625 
Q 38.921875 48.1875 33.109375 48.1875 
Q 26.21875 48.1875 22.15625 43.53125 
Q 18.109375 38.875 18.109375 30.90625 
L 18.109375 0 
L 9.078125 0 
L 9.078125 54.6875 
L 18.109375 54.6875 
L 18.109375 46.1875 
Q 21.1875 51.21875 25.484375 53.609375 
Q 29.78125 56 35.6875 56 
Q 41.65625 56 45.828125 52.96875 
Q 50 49.953125 52 44.1875 
z
" id="DejaVuSans-109"/>
      <path d="M 45.40625 46.390625 
L 45.40625 75.984375 
L 54.390625 75.984375 
L 54.390625 0 
L 45.40625 0 
L 45.40625 8.203125 
Q 42.578125 3.328125 38.25 0.953125 
Q 33.9375 -1.421875 27.875 -1.421875 
Q 17.96875 -1.421875 11.734375 6.484375 
Q 5.515625 14.40625 5.515625 27.296875 
Q 5.515625 40.1875 11.734375 48.09375 
Q 17.96875 56 27.875 56 
Q 33.9375 56 38.25 53.625 
Q 42.578125 51.265625 45.40625 46.390625 
z
M 14.796875 27.296875 
Q 14.796875 17.390625 18.875 11.75 
Q 22.953125 6.109375 30.078125 6.109375 
Q 37.203125 6.109375 41.296875 11.75 
Q 45.40625 17.390625 45.40625 27.296875 
Q 45.40625 37.203125 41.296875 42.84375 
Q 37.203125 48.484375 30.078125 48.484375 
Q 22.953125 48.484375 18.875 42.84375 
Q 14.796875 37.203125 14.796875 27.296875 
z
" id="DejaVuSans-100"/>
      <path d="M 56.203125 29.59375 
L 56.203125 25.203125 
L 14.890625 25.203125 
Q 15.484375 15.921875 20.484375 11.0625 
Q 25.484375 6.203125 34.421875 6.203125 
Q 39.59375 6.203125 44.453125 7.46875 
Q 49.3125 8.734375 54.109375 11.28125 
L 54.109375 2.78125 
Q 49.265625 0.734375 44.1875 -0.34375 
Q 39.109375 -1.421875 33.890625 -1.421875 
Q 20.796875 -1.421875 13.15625 6.1875 
Q 5.515625 13.8125 5.515625 26.8125 
Q 5.515625 40.234375 12.765625 48.109375 
Q 20.015625 56 32.328125 56 
Q 43.359375 56 49.78125 48.890625 
Q 56.203125 41.796875 56.203125 29.59375 
z
M 47.21875 32.234375 
Q 47.125 39.59375 43.09375 43.984375 
Q 39.0625 48.390625 32.421875 48.390625 
Q 24.90625 48.390625 20.390625 44.140625 
Q 15.875 39.890625 15.1875 32.171875 
z
" id="DejaVuSans-101"/>
     </defs>
     <use xlink:href="#DejaVuSans-85"/>
     <use x="73.193359" xlink:href="#DejaVuSans-110"/>
     <use x="136.572266" xlink:href="#DejaVuSans-107"/>
     <use x="194.482422" xlink:href="#DejaVuSans-110"/>
     <use x="257.861328" xlink:href="#DejaVuSans-111"/>
     <use x="319.042969" xlink:href="#DejaVuSans-119"/>
     <use x="400.830078" xlink:href="#DejaVuSans-110"/>
     <use x="464.208984" xlink:href="#DejaVuSans-32"/>
     <use x="495.996094" xlink:href="#DejaVuSans-109"/>
     <use x="593.408203" xlink:href="#DejaVuSans-111"/>
     <use x="654.589844" xlink:href="#DejaVuSans-100"/>
     <use x="718.066406" xlink:href="#DejaVuSans-101"/>
    </g>
   </g>
  </g>
 </g>
 <defs>
  <clipPath id="p599b1023cc">
   <rect height="217.44" width="334.8" x="63.932812" y="22.318125"/>
  </clipPath>
 </defs>
</svg>
