<?xml version="1.0" encoding="utf-8" standalone="no"?>
<!DOCTYPE svg PUBLIC "-//W3C//DTD SVG 1.1//EN"
  "http://www.w3.org/Graphics/SVG/1.1/DTD/svg11.dtd">
<!-- Created with matplotlib (https://matplotlib.org/) -->
<svg height="248.518125pt" version="1.1" viewBox="0 0 370.942187 248.518125" width="370.942187pt" xmlns="http://www.w3.org/2000/svg" xmlns:xlink="http://www.w3.org/1999/xlink">
 <metadata>
  <rdf:RDF xmlns:cc="http://creativecommons.org/ns#" xmlns:dc="http://purl.org/dc/elements/1.1/" xmlns:rdf="http://www.w3.org/1999/02/22-rdf-syntax-ns#">
   <cc:Work>
    <dc:type rdf:resource="http://purl.org/dc/dcmitype/StillImage"/>
    <dc:date>2021-10-04T12:28:21.718973</dc:date>
    <dc:format>image/svg+xml</dc:format>
    <dc:creator>
     <cc:Agent>
      <dc:title>Matplotlib v3.3.4, https://matplotlib.org/</dc:title>
     </cc:Agent>
    </dc:creator>
   </cc:Work>
  </rdf:RDF>
 </metadata>
 <defs>
  <style type="text/css">*{stroke-linecap:butt;stroke-linejoin:round;}</style>
 </defs>
 <g id="figure_1">
  <g id="patch_1">
   <path d="M 0 248.518125 
L 370.942187 248.518125 
L 370.942187 0 
L 0 0 
z
" style="fill:none;"/>
  </g>
  <g id="axes_1">
   <g id="patch_2">
    <path d="M 28.942188 224.64 
L 363.742188 224.64 
L 363.742188 7.2 
L 28.942188 7.2 
z
" style="fill:#ffffff;"/>
   </g>
   <g id="matplotlib.axis_1">
    <g id="xtick_1">
     <g id="line2d_1">
      <path clip-path="url(#pd3546b96fa)" d="M 44.160369 224.64 
L 44.160369 7.2 
" style="fill:none;stroke:#b0b0b0;stroke-linecap:square;stroke-width:0.8;"/>
     </g>
     <g id="line2d_2">
      <defs>
       <path d="M 0 0 
L 0 3.5 
" id="ma0511d0eac" style="stroke:#000000;stroke-width:0.8;"/>
      </defs>
      <g>
       <use style="stroke:#000000;stroke-width:0.8;" x="44.160369" xlink:href="#ma0511d0eac" y="224.64"/>
      </g>
     </g>
     <g id="text_1">
      <!-- −1.5 -->
      <g transform="translate(32.018963 239.238437)scale(0.1 -0.1)">
       <defs>
        <path d="M 10.59375 35.5 
L 73.1875 35.5 
L 73.1875 27.203125 
L 10.59375 27.203125 
z
" id="DejaVuSans-8722"/>
        <path d="M 12.40625 8.296875 
L 28.515625 8.296875 
L 28.515625 63.921875 
L 10.984375 60.40625 
L 10.984375 69.390625 
L 28.421875 72.90625 
L 38.28125 72.90625 
L 38.28125 8.296875 
L 54.390625 8.296875 
L 54.390625 0 
L 12.40625 0 
z
" id="DejaVuSans-49"/>
        <path d="M 10.6875 12.40625 
L 21 12.40625 
L 21 0 
L 10.6875 0 
z
" id="DejaVuSans-46"/>
        <path d="M 10.796875 72.90625 
L 49.515625 72.90625 
L 49.515625 64.59375 
L 19.828125 64.59375 
L 19.828125 46.734375 
Q 21.96875 47.46875 24.109375 47.828125 
Q 26.265625 48.1875 28.421875 48.1875 
Q 40.625 48.1875 47.75 41.5 
Q 54.890625 34.8125 54.890625 23.390625 
Q 54.890625 11.625 47.5625 5.09375 
Q 40.234375 -1.421875 26.90625 -1.421875 
Q 22.3125 -1.421875 17.546875 -0.640625 
Q 12.796875 0.140625 7.71875 1.703125 
L 7.71875 11.625 
Q 12.109375 9.234375 16.796875 8.0625 
Q 21.484375 6.890625 26.703125 6.890625 
Q 35.15625 6.890625 40.078125 11.328125 
Q 45.015625 15.765625 45.015625 23.390625 
Q 45.015625 31 40.078125 35.4375 
Q 35.15625 39.890625 26.703125 39.890625 
Q 22.75 39.890625 18.8125 39.015625 
Q 14.890625 38.140625 10.796875 36.28125 
z
" id="DejaVuSans-53"/>
       </defs>
       <use xlink:href="#DejaVuSans-8722"/>
       <use x="83.789062" xlink:href="#DejaVuSans-49"/>
       <use x="147.412109" xlink:href="#DejaVuSans-46"/>
       <use x="179.199219" xlink:href="#DejaVuSans-53"/>
      </g>
     </g>
    </g>
    <g id="xtick_2">
     <g id="line2d_3">
      <path clip-path="url(#pd3546b96fa)" d="M 94.887642 224.64 
L 94.887642 7.2 
" style="fill:none;stroke:#b0b0b0;stroke-linecap:square;stroke-width:0.8;"/>
     </g>
     <g id="line2d_4">
      <g>
       <use style="stroke:#000000;stroke-width:0.8;" x="94.887642" xlink:href="#ma0511d0eac" y="224.64"/>
      </g>
     </g>
     <g id="text_2">
      <!-- −1.0 -->
      <g transform="translate(82.746236 239.238437)scale(0.1 -0.1)">
       <defs>
        <path d="M 31.78125 66.40625 
Q 24.171875 66.40625 20.328125 58.90625 
Q 16.5 51.421875 16.5 36.375 
Q 16.5 21.390625 20.328125 13.890625 
Q 24.171875 6.390625 31.78125 6.390625 
Q 39.453125 6.390625 43.28125 13.890625 
Q 47.125 21.390625 47.125 36.375 
Q 47.125 51.421875 43.28125 58.90625 
Q 39.453125 66.40625 31.78125 66.40625 
z
M 31.78125 74.21875 
Q 44.046875 74.21875 50.515625 64.515625 
Q 56.984375 54.828125 56.984375 36.375 
Q 56.984375 17.96875 50.515625 8.265625 
Q 44.046875 -1.421875 31.78125 -1.421875 
Q 19.53125 -1.421875 13.0625 8.265625 
Q 6.59375 17.96875 6.59375 36.375 
Q 6.59375 54.828125 13.0625 64.515625 
Q 19.53125 74.21875 31.78125 74.21875 
z
" id="DejaVuSans-48"/>
       </defs>
       <use xlink:href="#DejaVuSans-8722"/>
       <use x="83.789062" xlink:href="#DejaVuSans-49"/>
       <use x="147.412109" xlink:href="#DejaVuSans-46"/>
       <use x="179.199219" xlink:href="#DejaVuSans-48"/>
      </g>
     </g>
    </g>
    <g id="xtick_3">
     <g id="line2d_5">
      <path clip-path="url(#pd3546b96fa)" d="M 145.614915 224.64 
L 145.614915 7.2 
" style="fill:none;stroke:#b0b0b0;stroke-linecap:square;stroke-width:0.8;"/>
     </g>
     <g id="line2d_6">
      <g>
       <use style="stroke:#000000;stroke-width:0.8;" x="145.614915" xlink:href="#ma0511d0eac" y="224.64"/>
      </g>
     </g>
     <g id="text_3">
      <!-- −0.5 -->
      <g transform="translate(133.473509 239.238437)scale(0.1 -0.1)">
       <use xlink:href="#DejaVuSans-8722"/>
       <use x="83.789062" xlink:href="#DejaVuSans-48"/>
       <use x="147.412109" xlink:href="#DejaVuSans-46"/>
       <use x="179.199219" xlink:href="#DejaVuSans-53"/>
      </g>
     </g>
    </g>
    <g id="xtick_4">
     <g id="line2d_7">
      <path clip-path="url(#pd3546b96fa)" d="M 196.342188 224.64 
L 196.342188 7.2 
" style="fill:none;stroke:#b0b0b0;stroke-linecap:square;stroke-width:0.8;"/>
     </g>
     <g id="line2d_8">
      <g>
       <use style="stroke:#000000;stroke-width:0.8;" x="196.342188" xlink:href="#ma0511d0eac" y="224.64"/>
      </g>
     </g>
     <g id="text_4">
      <!-- 0.0 -->
      <g transform="translate(188.390625 239.238437)scale(0.1 -0.1)">
       <use xlink:href="#DejaVuSans-48"/>
       <use x="63.623047" xlink:href="#DejaVuSans-46"/>
       <use x="95.410156" xlink:href="#DejaVuSans-48"/>
      </g>
     </g>
    </g>
    <g id="xtick_5">
     <g id="line2d_9">
      <path clip-path="url(#pd3546b96fa)" d="M 247.06946 224.64 
L 247.06946 7.2 
" style="fill:none;stroke:#b0b0b0;stroke-linecap:square;stroke-width:0.8;"/>
     </g>
     <g id="line2d_10">
      <g>
       <use style="stroke:#000000;stroke-width:0.8;" x="247.06946" xlink:href="#ma0511d0eac" y="224.64"/>
      </g>
     </g>
     <g id="text_5">
      <!-- 0.5 -->
      <g transform="translate(239.117898 239.238437)scale(0.1 -0.1)">
       <use xlink:href="#DejaVuSans-48"/>
       <use x="63.623047" xlink:href="#DejaVuSans-46"/>
       <use x="95.410156" xlink:href="#DejaVuSans-53"/>
      </g>
     </g>
    </g>
    <g id="xtick_6">
     <g id="line2d_11">
      <path clip-path="url(#pd3546b96fa)" d="M 297.796733 224.64 
L 297.796733 7.2 
" style="fill:none;stroke:#b0b0b0;stroke-linecap:square;stroke-width:0.8;"/>
     </g>
     <g id="line2d_12">
      <g>
       <use style="stroke:#000000;stroke-width:0.8;" x="297.796733" xlink:href="#ma0511d0eac" y="224.64"/>
      </g>
     </g>
     <g id="text_6">
      <!-- 1.0 -->
      <g transform="translate(289.84517 239.238437)scale(0.1 -0.1)">
       <use xlink:href="#DejaVuSans-49"/>
       <use x="63.623047" xlink:href="#DejaVuSans-46"/>
       <use x="95.410156" xlink:href="#DejaVuSans-48"/>
      </g>
     </g>
    </g>
    <g id="xtick_7">
     <g id="line2d_13">
      <path clip-path="url(#pd3546b96fa)" d="M 348.524006 224.64 
L 348.524006 7.2 
" style="fill:none;stroke:#b0b0b0;stroke-linecap:square;stroke-width:0.8;"/>
     </g>
     <g id="line2d_14">
      <g>
       <use style="stroke:#000000;stroke-width:0.8;" x="348.524006" xlink:href="#ma0511d0eac" y="224.64"/>
      </g>
     </g>
     <g id="text_7">
      <!-- 1.5 -->
      <g transform="translate(340.572443 239.238437)scale(0.1 -0.1)">
       <use xlink:href="#DejaVuSans-49"/>
       <use x="63.623047" xlink:href="#DejaVuSans-46"/>
       <use x="95.410156" xlink:href="#DejaVuSans-53"/>
      </g>
     </g>
    </g>
   </g>
   <g id="matplotlib.axis_2">
    <g id="ytick_1">
     <g id="line2d_15">
      <path clip-path="url(#pd3546b96fa)" d="M 28.942188 202.896 
L 363.742188 202.896 
" style="fill:none;stroke:#b0b0b0;stroke-linecap:square;stroke-width:0.8;"/>
     </g>
     <g id="line2d_16">
      <defs>
       <path d="M 0 0 
L -3.5 0 
" id="mdeb801069e" style="stroke:#000000;stroke-width:0.8;"/>
      </defs>
      <g>
       <use style="stroke:#000000;stroke-width:0.8;" x="28.942188" xlink:href="#mdeb801069e" y="202.896"/>
      </g>
     </g>
     <g id="text_8">
      <!-- −4 -->
      <g transform="translate(7.2 206.695219)scale(0.1 -0.1)">
       <defs>
        <path d="M 37.796875 64.3125 
L 12.890625 25.390625 
L 37.796875 25.390625 
z
M 35.203125 72.90625 
L 47.609375 72.90625 
L 47.609375 25.390625 
L 58.015625 25.390625 
L 58.015625 17.1875 
L 47.609375 17.1875 
L 47.609375 0 
L 37.796875 0 
L 37.796875 17.1875 
L 4.890625 17.1875 
L 4.890625 26.703125 
z
" id="DejaVuSans-52"/>
       </defs>
       <use xlink:href="#DejaVuSans-8722"/>
       <use x="83.789062" xlink:href="#DejaVuSans-52"/>
      </g>
     </g>
    </g>
    <g id="ytick_2">
     <g id="line2d_17">
      <path clip-path="url(#pd3546b96fa)" d="M 28.942188 159.408 
L 363.742188 159.408 
" style="fill:none;stroke:#b0b0b0;stroke-linecap:square;stroke-width:0.8;"/>
     </g>
     <g id="line2d_18">
      <g>
       <use style="stroke:#000000;stroke-width:0.8;" x="28.942188" xlink:href="#mdeb801069e" y="159.408"/>
      </g>
     </g>
     <g id="text_9">
      <!-- −2 -->
      <g transform="translate(7.2 163.207219)scale(0.1 -0.1)">
       <defs>
        <path d="M 19.1875 8.296875 
L 53.609375 8.296875 
L 53.609375 0 
L 7.328125 0 
L 7.328125 8.296875 
Q 12.9375 14.109375 22.625 23.890625 
Q 32.328125 33.6875 34.8125 36.53125 
Q 39.546875 41.84375 41.421875 45.53125 
Q 43.3125 49.21875 43.3125 52.78125 
Q 43.3125 58.59375 39.234375 62.25 
Q 35.15625 65.921875 28.609375 65.921875 
Q 23.96875 65.921875 18.8125 64.3125 
Q 13.671875 62.703125 7.8125 59.421875 
L 7.8125 69.390625 
Q 13.765625 71.78125 18.9375 73 
Q 24.125 74.21875 28.421875 74.21875 
Q 39.75 74.21875 46.484375 68.546875 
Q 53.21875 62.890625 53.21875 53.421875 
Q 53.21875 48.921875 51.53125 44.890625 
Q 49.859375 40.875 45.40625 35.40625 
Q 44.1875 33.984375 37.640625 27.21875 
Q 31.109375 20.453125 19.1875 8.296875 
z
" id="DejaVuSans-50"/>
       </defs>
       <use xlink:href="#DejaVuSans-8722"/>
       <use x="83.789062" xlink:href="#DejaVuSans-50"/>
      </g>
     </g>
    </g>
    <g id="ytick_3">
     <g id="line2d_19">
      <path clip-path="url(#pd3546b96fa)" d="M 28.942188 115.92 
L 363.742188 115.92 
" style="fill:none;stroke:#b0b0b0;stroke-linecap:square;stroke-width:0.8;"/>
     </g>
     <g id="line2d_20">
      <g>
       <use style="stroke:#000000;stroke-width:0.8;" x="28.942188" xlink:href="#mdeb801069e" y="115.92"/>
      </g>
     </g>
     <g id="text_10">
      <!-- 0 -->
      <g transform="translate(15.579688 119.719219)scale(0.1 -0.1)">
       <use xlink:href="#DejaVuSans-48"/>
      </g>
     </g>
    </g>
    <g id="ytick_4">
     <g id="line2d_21">
      <path clip-path="url(#pd3546b96fa)" d="M 28.942188 72.432 
L 363.742188 72.432 
" style="fill:none;stroke:#b0b0b0;stroke-linecap:square;stroke-width:0.8;"/>
     </g>
     <g id="line2d_22">
      <g>
       <use style="stroke:#000000;stroke-width:0.8;" x="28.942188" xlink:href="#mdeb801069e" y="72.432"/>
      </g>
     </g>
     <g id="text_11">
      <!-- 2 -->
      <g transform="translate(15.579688 76.231219)scale(0.1 -0.1)">
       <use xlink:href="#DejaVuSans-50"/>
      </g>
     </g>
    </g>
    <g id="ytick_5">
     <g id="line2d_23">
      <path clip-path="url(#pd3546b96fa)" d="M 28.942188 28.944 
L 363.742188 28.944 
" style="fill:none;stroke:#b0b0b0;stroke-linecap:square;stroke-width:0.8;"/>
     </g>
     <g id="line2d_24">
      <g>
       <use style="stroke:#000000;stroke-width:0.8;" x="28.942188" xlink:href="#mdeb801069e" y="28.944"/>
      </g>
     </g>
     <g id="text_12">
      <!-- 4 -->
      <g transform="translate(15.579688 32.743219)scale(0.1 -0.1)">
       <use xlink:href="#DejaVuSans-52"/>
      </g>
     </g>
    </g>
   </g>
   <g id="line2d_25">
    <path clip-path="url(#pd3546b96fa)" d="M 44.160369 115.92 
L 104.484694 115.811142 
L 109.968723 115.516014 
L 114.538748 115.060205 
L 118.804104 114.427205 
L 123.06946 113.571155 
L 127.334816 112.477876 
L 131.600173 111.140975 
L 135.865529 109.561841 
L 140.130885 107.749649 
L 144.70091 105.568816 
L 149.880271 102.836735 
L 155.973637 99.349104 
L 176.386414 87.395374 
L 180.347102 85.453663 
L 184.003121 83.909376 
L 187.049804 82.849827 
L 189.791819 82.106204 
L 192.533834 81.59149 
L 194.97118 81.350588 
L 197.408527 81.335967 
L 199.845873 81.549733 
L 202.587888 82.037167 
L 205.329902 82.75681 
L 208.376586 83.793404 
L 211.727937 85.178024 
L 215.383957 86.926197 
L 219.953981 89.37468 
L 226.047347 92.927686 
L 242.499436 102.66856 
L 247.983465 105.568816 
L 252.858158 107.886503 
L 257.428183 109.801999 
L 261.693539 111.346908 
L 265.958895 112.64891 
L 270.224251 113.707725 
L 274.489608 114.530862 
L 278.754964 115.133609 
L 283.324988 115.56122 
L 288.50435 115.820944 
L 295.207052 115.917742 
L 344.258649 115.92 
L 348.524006 115.92 
L 348.524006 115.92 
" style="fill:none;stroke:#000000;stroke-linecap:square;stroke-width:1.5;"/>
   </g>
   <g id="line2d_26">
    <path clip-path="url(#pd3546b96fa)" d="M 44.160369 115.92 
L 96.258649 115.845188 
L 98.086659 115.520132 
L 99.914669 114.950942 
L 101.742679 114.152193 
L 103.875357 112.949628 
L 106.008035 111.477591 
L 108.445382 109.494988 
L 110.882728 107.2252 
L 113.624743 104.371431 
L 116.671426 100.885399 
L 120.327445 96.356272 
L 125.202138 89.921927 
L 137.998207 72.798906 
L 141.654227 68.3548 
L 144.70091 64.961888 
L 147.442925 62.209233 
L 149.880271 60.043091 
L 152.317617 58.177089 
L 154.450296 56.817706 
L 156.582974 55.737714 
L 158.410984 55.051922 
L 160.238993 54.602977 
L 162.067003 54.405453 
L 163.590345 54.443424 
L 165.113686 54.674548 
L 166.637028 55.107262 
L 168.160369 55.75 
L 169.683711 56.611196 
L 171.207052 57.699286 
L 172.730394 59.022704 
L 174.558404 60.933314 
L 176.386414 63.209518 
L 178.214423 65.86589 
L 180.042433 68.917006 
L 181.870443 72.377441 
L 184.003121 76.951393 
L 186.135799 82.125457 
L 188.268477 87.922777 
L 190.401156 94.366499 
L 192.533834 101.479767 
L 194.97118 110.458759 
L 200.45521 131.418284 
L 202.892556 139.381873 
L 205.025234 145.638547 
L 207.157912 151.255432 
L 209.29059 156.255674 
L 211.423269 160.662417 
L 213.251278 163.984793 
L 215.079288 166.902708 
L 216.907298 169.430738 
L 218.735308 171.583458 
L 220.563318 173.375442 
L 222.391328 174.821267 
L 223.914669 175.772209 
L 225.438011 176.501318 
L 226.961352 177.017029 
L 228.484694 177.327777 
L 230.008035 177.441997 
L 231.836045 177.33152 
L 233.664055 176.964762 
L 235.492065 176.3563 
L 237.320074 175.520709 
L 239.452753 174.27823 
L 241.585431 172.769587 
L 244.022777 170.749196 
L 246.460124 168.44594 
L 249.202138 165.55968 
L 252.55349 161.676984 
L 256.514178 156.700618 
L 261.693539 149.794439 
L 272.35693 135.483728 
L 276.317617 130.59289 
L 279.668969 126.809285 
L 282.410984 124.022319 
L 284.84833 121.821088 
L 287.285676 119.915679 
L 289.418355 118.518273 
L 291.551033 117.39695 
L 293.379043 116.673102 
L 295.207052 116.18367 
L 297.035062 115.943231 
L 299.777077 115.92 
L 348.524006 115.92 
L 348.524006 115.92 
" style="fill:none;stroke:#ff0000;stroke-linecap:square;stroke-width:1.5;"/>
   </g>
   <g id="line2d_27">
    <path clip-path="url(#pd3546b96fa)" d="M 44.160369 115.92 
L 96.258649 115.845188 
L 98.086659 115.520132 
L 99.914669 114.950942 
L 101.742679 114.152193 
L 103.875357 112.949628 
L 106.008035 111.477591 
L 108.445382 109.494988 
L 110.882728 107.2252 
L 113.624743 104.371431 
L 116.671426 100.885399 
L 120.327445 96.356272 
L 125.202138 89.921927 
L 137.998207 72.798906 
L 141.654227 68.3548 
L 144.70091 64.961888 
L 147.442925 62.209233 
L 149.880271 60.043091 
L 152.317617 58.177089 
L 154.450296 56.817706 
L 156.582974 55.737714 
L 158.410984 55.051922 
L 160.238993 54.602977 
L 162.067003 54.405454 
L 163.590345 54.443424 
L 165.113686 54.674548 
L 166.637028 55.107262 
L 168.160369 55.75 
L 169.683711 56.611197 
L 171.207052 57.699286 
L 172.730394 59.022704 
L 174.558404 60.933314 
L 176.386414 63.209518 
L 178.214423 65.86589 
L 180.042433 68.917006 
L 181.870443 72.377441 
L 184.003121 76.951393 
L 186.135799 82.125457 
L 188.268477 87.922778 
L 190.401156 94.366499 
L 192.533834 101.479767 
L 194.97118 110.458759 
L 200.45521 131.418284 
L 202.892556 139.381873 
L 205.025234 145.638547 
L 207.157912 151.255432 
L 209.29059 156.255674 
L 211.423269 160.662417 
L 213.251278 163.984793 
L 215.079288 166.902708 
L 216.907298 169.430738 
L 218.735308 171.583458 
L 220.563318 173.375442 
L 222.391328 174.821267 
L 223.914669 175.772209 
L 225.438011 176.501318 
L 226.961352 177.017029 
L 228.484694 177.327777 
L 230.008035 177.441997 
L 231.836045 177.33152 
L 233.664055 176.964762 
L 235.492065 176.3563 
L 237.320074 175.520709 
L 239.452753 174.27823 
L 241.585431 172.769587 
L 244.022777 170.749196 
L 246.460124 168.44594 
L 249.202138 165.55968 
L 252.55349 161.676984 
L 256.514178 156.700618 
L 261.693539 149.794439 
L 272.35693 135.483728 
L 276.317617 130.59289 
L 279.668969 126.809285 
L 282.410984 124.022319 
L 284.84833 121.821088 
L 287.285676 119.915679 
L 289.418355 118.518273 
L 291.551033 117.39695 
L 293.379043 116.673102 
L 295.207052 116.18367 
L 297.035062 115.943231 
L 299.777077 115.92 
L 348.524006 115.92 
L 348.524006 115.92 
" style="fill:none;stroke:#0000ff;stroke-dasharray:5.55,2.4;stroke-dashoffset:0;stroke-width:1.5;"/>
   </g>
   <g id="patch_3">
    <path d="M 28.942188 224.64 
L 28.942188 7.2 
" style="fill:none;stroke:#000000;stroke-linecap:square;stroke-linejoin:miter;stroke-width:0.8;"/>
   </g>
   <g id="patch_4">
    <path d="M 363.742188 224.64 
L 363.742188 7.2 
" style="fill:none;stroke:#000000;stroke-linecap:square;stroke-linejoin:miter;stroke-width:0.8;"/>
   </g>
   <g id="patch_5">
    <path d="M 28.942188 224.64 
L 363.742188 224.64 
" style="fill:none;stroke:#000000;stroke-linecap:square;stroke-linejoin:miter;stroke-width:0.8;"/>
   </g>
   <g id="patch_6">
    <path d="M 28.942188 7.2 
L 363.742188 7.2 
" style="fill:none;stroke:#000000;stroke-linecap:square;stroke-linejoin:miter;stroke-width:0.8;"/>
   </g>
  </g>
 </g>
 <defs>
  <clipPath id="pd3546b96fa">
   <rect height="217.44" width="334.8" x="28.942188" y="7.2"/>
  </clipPath>
 </defs>
</svg>
