<?xml version="1.0" encoding="utf-8" standalone="no"?>
<!DOCTYPE svg PUBLIC "-//W3C//DTD SVG 1.1//EN"
  "http://www.w3.org/Graphics/SVG/1.1/DTD/svg11.dtd">
<!-- Created with matplotlib (https://matplotlib.org/) -->
<svg height="357.238125pt" version="1.1" viewBox="0 0 874.303125 357.238125" width="874.303125pt" xmlns="http://www.w3.org/2000/svg" xmlns:xlink="http://www.w3.org/1999/xlink">
 <metadata>
  <rdf:RDF xmlns:cc="http://creativecommons.org/ns#" xmlns:dc="http://purl.org/dc/elements/1.1/" xmlns:rdf="http://www.w3.org/1999/02/22-rdf-syntax-ns#">
   <cc:Work>
    <dc:type rdf:resource="http://purl.org/dc/dcmitype/StillImage"/>
    <dc:date>2021-04-19T14:50:45.545785</dc:date>
    <dc:format>image/svg+xml</dc:format>
    <dc:creator>
     <cc:Agent>
      <dc:title>Matplotlib v3.3.4, https://matplotlib.org/</dc:title>
     </cc:Agent>
    </dc:creator>
   </cc:Work>
  </rdf:RDF>
 </metadata>
 <defs>
  <style type="text/css">*{stroke-linecap:butt;stroke-linejoin:round;}</style>
 </defs>
 <g id="figure_1">
  <g id="patch_1">
   <path d="M 0 357.238125 
L 874.303125 357.238125 
L 874.303125 0 
L 0 0 
z
" style="fill:none;"/>
  </g>
  <g id="axes_1">
   <g id="patch_2">
    <path d="M 30.103125 333.36 
L 867.103125 333.36 
L 867.103125 7.2 
L 30.103125 7.2 
z
" style="fill:#ffffff;"/>
   </g>
   <g id="matplotlib.axis_1">
    <g id="xtick_1">
     <g id="line2d_1">
      <defs>
       <path d="M 0 0 
L 0 3.5 
" id="m1dbee06ddd" style="stroke:#000000;stroke-width:0.8;"/>
      </defs>
      <g>
       <use style="stroke:#000000;stroke-width:0.8;" x="68.14858" xlink:href="#m1dbee06ddd" y="333.36"/>
      </g>
     </g>
     <g id="text_1">
      <!-- 0 -->
      <g transform="translate(64.96733 347.958438)scale(0.1 -0.1)">
       <defs>
        <path d="M 31.78125 66.40625 
Q 24.171875 66.40625 20.328125 58.90625 
Q 16.5 51.421875 16.5 36.375 
Q 16.5 21.390625 20.328125 13.890625 
Q 24.171875 6.390625 31.78125 6.390625 
Q 39.453125 6.390625 43.28125 13.890625 
Q 47.125 21.390625 47.125 36.375 
Q 47.125 51.421875 43.28125 58.90625 
Q 39.453125 66.40625 31.78125 66.40625 
z
M 31.78125 74.21875 
Q 44.046875 74.21875 50.515625 64.515625 
Q 56.984375 54.828125 56.984375 36.375 
Q 56.984375 17.96875 50.515625 8.265625 
Q 44.046875 -1.421875 31.78125 -1.421875 
Q 19.53125 -1.421875 13.0625 8.265625 
Q 6.59375 17.96875 6.59375 36.375 
Q 6.59375 54.828125 13.0625 64.515625 
Q 19.53125 74.21875 31.78125 74.21875 
z
" id="DejaVuSans-48"/>
       </defs>
       <use xlink:href="#DejaVuSans-48"/>
      </g>
     </g>
    </g>
    <g id="xtick_2">
     <g id="line2d_2">
      <g>
       <use style="stroke:#000000;stroke-width:0.8;" x="220.330398" xlink:href="#m1dbee06ddd" y="333.36"/>
      </g>
     </g>
     <g id="text_2">
      <!-- 20 -->
      <g transform="translate(213.967898 347.958438)scale(0.1 -0.1)">
       <defs>
        <path d="M 19.1875 8.296875 
L 53.609375 8.296875 
L 53.609375 0 
L 7.328125 0 
L 7.328125 8.296875 
Q 12.9375 14.109375 22.625 23.890625 
Q 32.328125 33.6875 34.8125 36.53125 
Q 39.546875 41.84375 41.421875 45.53125 
Q 43.3125 49.21875 43.3125 52.78125 
Q 43.3125 58.59375 39.234375 62.25 
Q 35.15625 65.921875 28.609375 65.921875 
Q 23.96875 65.921875 18.8125 64.3125 
Q 13.671875 62.703125 7.8125 59.421875 
L 7.8125 69.390625 
Q 13.765625 71.78125 18.9375 73 
Q 24.125 74.21875 28.421875 74.21875 
Q 39.75 74.21875 46.484375 68.546875 
Q 53.21875 62.890625 53.21875 53.421875 
Q 53.21875 48.921875 51.53125 44.890625 
Q 49.859375 40.875 45.40625 35.40625 
Q 44.1875 33.984375 37.640625 27.21875 
Q 31.109375 20.453125 19.1875 8.296875 
z
" id="DejaVuSans-50"/>
       </defs>
       <use xlink:href="#DejaVuSans-50"/>
       <use x="63.623047" xlink:href="#DejaVuSans-48"/>
      </g>
     </g>
    </g>
    <g id="xtick_3">
     <g id="line2d_3">
      <g>
       <use style="stroke:#000000;stroke-width:0.8;" x="372.512216" xlink:href="#m1dbee06ddd" y="333.36"/>
      </g>
     </g>
     <g id="text_3">
      <!-- 40 -->
      <g transform="translate(366.149716 347.958438)scale(0.1 -0.1)">
       <defs>
        <path d="M 37.796875 64.3125 
L 12.890625 25.390625 
L 37.796875 25.390625 
z
M 35.203125 72.90625 
L 47.609375 72.90625 
L 47.609375 25.390625 
L 58.015625 25.390625 
L 58.015625 17.1875 
L 47.609375 17.1875 
L 47.609375 0 
L 37.796875 0 
L 37.796875 17.1875 
L 4.890625 17.1875 
L 4.890625 26.703125 
z
" id="DejaVuSans-52"/>
       </defs>
       <use xlink:href="#DejaVuSans-52"/>
       <use x="63.623047" xlink:href="#DejaVuSans-48"/>
      </g>
     </g>
    </g>
    <g id="xtick_4">
     <g id="line2d_4">
      <g>
       <use style="stroke:#000000;stroke-width:0.8;" x="524.694034" xlink:href="#m1dbee06ddd" y="333.36"/>
      </g>
     </g>
     <g id="text_4">
      <!-- 60 -->
      <g transform="translate(518.331534 347.958438)scale(0.1 -0.1)">
       <defs>
        <path d="M 33.015625 40.375 
Q 26.375 40.375 22.484375 35.828125 
Q 18.609375 31.296875 18.609375 23.390625 
Q 18.609375 15.53125 22.484375 10.953125 
Q 26.375 6.390625 33.015625 6.390625 
Q 39.65625 6.390625 43.53125 10.953125 
Q 47.40625 15.53125 47.40625 23.390625 
Q 47.40625 31.296875 43.53125 35.828125 
Q 39.65625 40.375 33.015625 40.375 
z
M 52.59375 71.296875 
L 52.59375 62.3125 
Q 48.875 64.0625 45.09375 64.984375 
Q 41.3125 65.921875 37.59375 65.921875 
Q 27.828125 65.921875 22.671875 59.328125 
Q 17.53125 52.734375 16.796875 39.40625 
Q 19.671875 43.65625 24.015625 45.921875 
Q 28.375 48.1875 33.59375 48.1875 
Q 44.578125 48.1875 50.953125 41.515625 
Q 57.328125 34.859375 57.328125 23.390625 
Q 57.328125 12.15625 50.6875 5.359375 
Q 44.046875 -1.421875 33.015625 -1.421875 
Q 20.359375 -1.421875 13.671875 8.265625 
Q 6.984375 17.96875 6.984375 36.375 
Q 6.984375 53.65625 15.1875 63.9375 
Q 23.390625 74.21875 37.203125 74.21875 
Q 40.921875 74.21875 44.703125 73.484375 
Q 48.484375 72.75 52.59375 71.296875 
z
" id="DejaVuSans-54"/>
       </defs>
       <use xlink:href="#DejaVuSans-54"/>
       <use x="63.623047" xlink:href="#DejaVuSans-48"/>
      </g>
     </g>
    </g>
    <g id="xtick_5">
     <g id="line2d_5">
      <g>
       <use style="stroke:#000000;stroke-width:0.8;" x="676.875852" xlink:href="#m1dbee06ddd" y="333.36"/>
      </g>
     </g>
     <g id="text_5">
      <!-- 80 -->
      <g transform="translate(670.513352 347.958438)scale(0.1 -0.1)">
       <defs>
        <path d="M 31.78125 34.625 
Q 24.75 34.625 20.71875 30.859375 
Q 16.703125 27.09375 16.703125 20.515625 
Q 16.703125 13.921875 20.71875 10.15625 
Q 24.75 6.390625 31.78125 6.390625 
Q 38.8125 6.390625 42.859375 10.171875 
Q 46.921875 13.96875 46.921875 20.515625 
Q 46.921875 27.09375 42.890625 30.859375 
Q 38.875 34.625 31.78125 34.625 
z
M 21.921875 38.8125 
Q 15.578125 40.375 12.03125 44.71875 
Q 8.5 49.078125 8.5 55.328125 
Q 8.5 64.0625 14.71875 69.140625 
Q 20.953125 74.21875 31.78125 74.21875 
Q 42.671875 74.21875 48.875 69.140625 
Q 55.078125 64.0625 55.078125 55.328125 
Q 55.078125 49.078125 51.53125 44.71875 
Q 48 40.375 41.703125 38.8125 
Q 48.828125 37.15625 52.796875 32.3125 
Q 56.78125 27.484375 56.78125 20.515625 
Q 56.78125 9.90625 50.3125 4.234375 
Q 43.84375 -1.421875 31.78125 -1.421875 
Q 19.734375 -1.421875 13.25 4.234375 
Q 6.78125 9.90625 6.78125 20.515625 
Q 6.78125 27.484375 10.78125 32.3125 
Q 14.796875 37.15625 21.921875 38.8125 
z
M 18.3125 54.390625 
Q 18.3125 48.734375 21.84375 45.5625 
Q 25.390625 42.390625 31.78125 42.390625 
Q 38.140625 42.390625 41.71875 45.5625 
Q 45.3125 48.734375 45.3125 54.390625 
Q 45.3125 60.0625 41.71875 63.234375 
Q 38.140625 66.40625 31.78125 66.40625 
Q 25.390625 66.40625 21.84375 63.234375 
Q 18.3125 60.0625 18.3125 54.390625 
z
" id="DejaVuSans-56"/>
       </defs>
       <use xlink:href="#DejaVuSans-56"/>
       <use x="63.623047" xlink:href="#DejaVuSans-48"/>
      </g>
     </g>
    </g>
    <g id="xtick_6">
     <g id="line2d_6">
      <g>
       <use style="stroke:#000000;stroke-width:0.8;" x="829.05767" xlink:href="#m1dbee06ddd" y="333.36"/>
      </g>
     </g>
     <g id="text_6">
      <!-- 100 -->
      <g transform="translate(819.51392 347.958438)scale(0.1 -0.1)">
       <defs>
        <path d="M 12.40625 8.296875 
L 28.515625 8.296875 
L 28.515625 63.921875 
L 10.984375 60.40625 
L 10.984375 69.390625 
L 28.421875 72.90625 
L 38.28125 72.90625 
L 38.28125 8.296875 
L 54.390625 8.296875 
L 54.390625 0 
L 12.40625 0 
z
" id="DejaVuSans-49"/>
       </defs>
       <use xlink:href="#DejaVuSans-49"/>
       <use x="63.623047" xlink:href="#DejaVuSans-48"/>
       <use x="127.246094" xlink:href="#DejaVuSans-48"/>
      </g>
     </g>
    </g>
   </g>
   <g id="matplotlib.axis_2">
    <g id="ytick_1">
     <g id="line2d_7">
      <defs>
       <path d="M 0 0 
L -3.5 0 
" id="m22e73fa3d4" style="stroke:#000000;stroke-width:0.8;"/>
      </defs>
      <g>
       <use style="stroke:#000000;stroke-width:0.8;" x="30.103125" xlink:href="#m22e73fa3d4" y="283.182769"/>
      </g>
     </g>
     <g id="text_7">
      <!-- 0.2 -->
      <g transform="translate(7.2 286.981988)scale(0.1 -0.1)">
       <defs>
        <path d="M 10.6875 12.40625 
L 21 12.40625 
L 21 0 
L 10.6875 0 
z
" id="DejaVuSans-46"/>
       </defs>
       <use xlink:href="#DejaVuSans-48"/>
       <use x="63.623047" xlink:href="#DejaVuSans-46"/>
       <use x="95.410156" xlink:href="#DejaVuSans-50"/>
      </g>
     </g>
    </g>
    <g id="ytick_2">
     <g id="line2d_8">
      <g>
       <use style="stroke:#000000;stroke-width:0.8;" x="30.103125" xlink:href="#m22e73fa3d4" y="215.786627"/>
      </g>
     </g>
     <g id="text_8">
      <!-- 0.4 -->
      <g transform="translate(7.2 219.585846)scale(0.1 -0.1)">
       <use xlink:href="#DejaVuSans-48"/>
       <use x="63.623047" xlink:href="#DejaVuSans-46"/>
       <use x="95.410156" xlink:href="#DejaVuSans-52"/>
      </g>
     </g>
    </g>
    <g id="ytick_3">
     <g id="line2d_9">
      <g>
       <use style="stroke:#000000;stroke-width:0.8;" x="30.103125" xlink:href="#m22e73fa3d4" y="148.390485"/>
      </g>
     </g>
     <g id="text_9">
      <!-- 0.6 -->
      <g transform="translate(7.2 152.189704)scale(0.1 -0.1)">
       <use xlink:href="#DejaVuSans-48"/>
       <use x="63.623047" xlink:href="#DejaVuSans-46"/>
       <use x="95.410156" xlink:href="#DejaVuSans-54"/>
      </g>
     </g>
    </g>
    <g id="ytick_4">
     <g id="line2d_10">
      <g>
       <use style="stroke:#000000;stroke-width:0.8;" x="30.103125" xlink:href="#m22e73fa3d4" y="80.994343"/>
      </g>
     </g>
     <g id="text_10">
      <!-- 0.8 -->
      <g transform="translate(7.2 84.793562)scale(0.1 -0.1)">
       <use xlink:href="#DejaVuSans-48"/>
       <use x="63.623047" xlink:href="#DejaVuSans-46"/>
       <use x="95.410156" xlink:href="#DejaVuSans-56"/>
      </g>
     </g>
    </g>
    <g id="ytick_5">
     <g id="line2d_11">
      <g>
       <use style="stroke:#000000;stroke-width:0.8;" x="30.103125" xlink:href="#m22e73fa3d4" y="13.598201"/>
      </g>
     </g>
     <g id="text_11">
      <!-- 1.0 -->
      <g transform="translate(7.2 17.39742)scale(0.1 -0.1)">
       <use xlink:href="#DejaVuSans-49"/>
       <use x="63.623047" xlink:href="#DejaVuSans-46"/>
       <use x="95.410156" xlink:href="#DejaVuSans-48"/>
      </g>
     </g>
    </g>
   </g>
   <g id="line2d_12">
    <path clip-path="url(#p53cfb0b613)" d="M 68.14858 80.994343 
L 75.75767 140.302948 
L 83.366761 42.230239 
L 90.975852 248.401732 
L 98.584943 72.915856 
L 106.194034 159.961907 
L 113.803125 27.688905 
L 121.412216 297.923032 
L 129.021307 177.309771 
L 136.630398 22.287017 
L 144.239489 317.566265 
L 151.84858 234.442645 
L 159.45767 53.744735 
L 167.066761 212.660728 
L 174.675852 32.839851 
L 182.284943 279.82141 
L 189.894034 132.568131 
L 197.503125 50.403757 
L 205.112216 222.715085 
L 212.721307 41.124725 
L 220.330398 251.994712 
L 227.939489 78.580246 
L 235.54858 146.019382 
L 243.15767 37.079493 
L 250.766761 265.383088 
L 258.375852 102.318466 
L 265.984943 95.667118 
L 273.594034 108.460287 
L 281.203125 84.763329 
L 288.812216 131.647922 
L 296.421307 51.468334 
L 304.030398 219.483295 
L 311.639489 38.206522 
L 319.24858 261.614934 
L 326.85767 95.217813 
L 334.466761 109.361402 
L 342.075852 83.236999 
L 349.684943 135.113341 
L 357.294034 47.561321 
L 364.903125 231.472542 
L 372.512216 50.247582 
L 380.121307 223.191399 
L 387.730398 41.575264 
L 395.339489 250.527023 
L 402.94858 76.23031 
L 410.55767 151.713454 
L 418.166761 32.700845 
L 425.775852 280.301847 
L 433.384943 133.657646 
L 440.994034 49.168655 
L 448.603125 226.49742 
L 456.212216 44.847093 
L 463.821307 240.009541 
L 471.430398 60.849505 
L 479.039489 192.138506 
L 486.64858 23.191646 
L 494.25767 314.229622 
L 501.866761 224.108229 
L 509.475852 42.45726 
L 517.084943 247.6674 
L 524.694034 71.794946 
L 532.303125 162.808976 
L 539.912216 26.324563 
L 547.521307 302.820524 
L 555.130398 190.718463 
L 562.739489 22.884648 
L 570.34858 315.359831 
L 577.95767 227.579908 
L 585.566761 45.973366 
L 593.175852 236.446402 
L 600.784943 56.219406 
L 608.394034 205.380001 
L 616.003125 28.301168 
L 623.612216 295.739235 
L 631.221307 171.509791 
L 638.830398 23.317897 
L 646.439489 313.765462 
L 654.04858 222.691027 
L 661.65767 41.102109 
L 669.266761 252.068512 
L 676.875852 78.699724 
L 684.484943 145.733292 
L 692.094034 37.319292 
L 699.703125 264.578872 
L 707.312216 100.775428 
L 714.921307 98.543766 
L 722.530398 102.801689 
L 730.139489 94.77759 
L 737.74858 110.248832 
L 745.35767 81.752219 
L 752.966761 138.536166 
L 760.575852 43.975196 
L 768.184943 242.788086 
L 775.794034 64.663998 
L 783.403125 181.602341 
L 791.012216 22.025455 
L 798.621307 318.534545 
L 806.230398 237.489893 
L 813.839489 57.544935 
L 821.44858 201.538462 
L 829.05767 26.400908 
" style="fill:none;stroke:#1f77b4;stroke-linecap:square;stroke-width:1.5;"/>
   </g>
   <g id="line2d_13">
    <path clip-path="url(#p53cfb0b613)" d="M 68.14858 80.994343 
L 75.75767 140.302948 
L 83.366761 42.230239 
L 90.975852 248.401732 
L 98.584943 72.915856 
L 106.194034 159.961907 
L 113.803125 27.688905 
L 121.412216 297.923032 
L 129.021307 177.309771 
L 136.630398 22.287017 
L 144.239489 317.566265 
L 151.84858 234.442645 
L 159.45767 53.744735 
L 167.066761 212.660728 
L 174.675852 32.839851 
L 182.284943 279.82141 
L 189.894034 132.568131 
L 197.503125 50.403757 
L 205.112216 222.715085 
L 212.721307 41.124725 
L 220.330398 251.994712 
L 227.939489 78.580246 
L 235.54858 146.019382 
L 243.15767 37.079493 
L 250.766761 265.383088 
L 258.375852 102.318466 
L 265.984943 95.667118 
L 273.594034 108.460287 
L 281.203125 84.76333 
L 288.812216 131.647921 
L 296.421307 51.468335 
L 304.030398 219.483292 
L 311.639489 38.206519 
L 319.24858 261.614943 
L 326.85767 95.21783 
L 334.466761 109.361367 
L 342.075852 83.237057 
L 349.684943 135.113207 
L 357.294034 47.561466 
L 364.903125 231.47209 
L 372.512216 50.247065 
L 380.121307 223.192978 
L 387.730398 41.576766 
L 395.339489 250.522136 
L 402.94858 76.222569 
L 410.55767 151.732421 
L 418.166761 32.687513 
L 425.775852 280.347947 
L 433.384943 133.76247 
L 440.994034 49.051272 
L 448.603125 226.858726 
L 456.212216 45.219998 
L 463.821307 238.826548 
L 471.430398 59.279685 
L 479.039489 196.572393 
L 486.64858 24.450596 
L 494.25767 309.617615 
L 501.866761 210.247967 
L 509.475852 31.199845 
L 517.084943 285.518134 
L 524.694034 145.830822 
L 532.303125 37.237331 
L 539.912216 264.853598 
L 547.521307 101.300857 
L 555.130398 97.558034 
L 562.739489 104.719131 
L 570.34858 91.301191 
L 577.95767 117.414375 
L 585.566761 70.431197 
L 593.175852 166.312065 
L 600.784943 24.903302 
L 608.394034 307.968155 
L 616.003125 205.410446 
L 623.612216 28.317592 
L 631.221307 295.680774 
L 638.830398 171.35604 
L 646.439489 23.355818 
L 654.04858 313.626115 
L 661.65767 222.26654 
L 669.266761 40.705256 
L 676.875852 253.365416 
L 684.484943 80.819924 
L 692.094034 140.71144 
L 699.703125 41.837077 
L 707.312216 249.67629 
L 714.921307 74.891017 
L 722.530398 155.015844 
L 730.139489 30.505203 
L 737.74858 287.949809 
L 745.35767 151.720822 
L 752.966761 32.695665 
L 760.575852 280.319757 
L 768.184943 133.698365 
L 775.794034 49.123027 
L 783.403125 226.637826 
L 791.012216 44.991648 
L 798.621307 239.550577 
L 806.230398 60.236619 
L 813.839489 193.862789 
L 821.44858 23.627164 
L 829.05767 312.630006 
" style="fill:none;stroke:#ff7f0e;stroke-linecap:square;stroke-width:1.5;"/>
   </g>
   <g id="line2d_14">
    <path clip-path="url(#p53cfb0b613)" d="M 68.14858 80.994343 
L 75.75767 140.302948 
L 83.366761 42.230239 
L 90.975852 248.401732 
L 98.584943 72.915856 
L 106.194034 159.961907 
L 113.803125 27.688905 
L 121.412216 297.923032 
L 129.021307 177.309771 
L 136.630398 22.287017 
L 144.239489 317.566265 
L 151.84858 234.442645 
L 159.45767 53.744735 
L 167.066761 212.660728 
L 174.675852 32.839851 
L 182.284943 279.82141 
L 189.894034 132.568131 
L 197.503125 50.403757 
L 205.112216 222.715085 
L 212.721307 41.124725 
L 220.330398 251.994712 
L 227.939489 78.580246 
L 235.54858 146.019382 
L 243.15767 37.079493 
L 250.766761 265.383088 
L 258.375852 102.318466 
L 265.984943 95.667118 
L 273.594034 108.460287 
L 281.203125 84.763329 
L 288.812216 131.647923 
L 296.421307 51.468333 
L 304.030398 219.483298 
L 311.639489 38.206524 
L 319.24858 261.614928 
L 326.85767 95.217801 
L 334.466761 109.361426 
L 342.075852 83.236959 
L 349.684943 135.113431 
L 357.294034 47.561222 
L 364.903125 231.472849 
L 372.512216 50.247933 
L 380.121307 223.190329 
L 387.730398 41.574246 
L 395.339489 250.530334 
L 402.94858 76.235555 
L 410.55767 151.700603 
L 418.166761 32.709882 
L 425.775852 280.270598 
L 433.384943 133.586617 
L 440.994034 49.248337 
L 448.603125 226.252338 
L 456.212216 44.595864 
L 463.821307 240.808348 
L 471.430398 61.927835 
L 479.039489 189.125859 
L 486.64858 22.595874 
L 494.25767 316.424945 
L 501.866761 230.878694 
L 509.475852 49.572849 
L 517.084943 225.255744 
L 524.694034 43.588594 
L 532.303125 244.025736 
L 539.912216 66.420617 
L 547.521307 176.863572 
L 555.130398 22.338677 
L 562.739489 317.375213 
L 570.34858 233.843954 
L 577.95767 53.023373 
L 585.566761 214.809727 
L 593.175852 34.414029 
L 600.784943 274.411903 
L 608.394034 120.669437 
L 616.003125 65.681009 
L 623.612216 178.850082 
L 631.221307 22.144097 
L 638.830398 318.095147 
L 646.439489 236.104385 
L 654.04858 55.790432 
L 661.65767 206.631929 
L 669.266761 28.994248 
L 676.875852 293.277657 
L 684.484943 165.104389 
L 692.094034 25.361193 
L 699.703125 306.304624 
L 707.312216 200.595443 
L 714.921307 25.986652 
L 722.530398 304.04016 
L 730.139489 194.144012 
L 737.74858 23.704722 
L 745.35767 312.345603 
L 752.966761 218.386787 
L 760.575852 37.271336 
L 768.184943 264.739595 
L 775.794034 101.082608 
L 783.403125 97.966703 
L 791.012216 103.921459 
L 798.621307 92.737065 
L 806.230398 114.420847 
L 813.839489 75.016207 
L 821.44858 154.705395 
L 829.05767 30.70086 
" style="fill:none;stroke:#2ca02c;stroke-linecap:square;stroke-width:1.5;"/>
   </g>
   <g id="patch_3">
    <path d="M 30.103125 333.36 
L 30.103125 7.2 
" style="fill:none;stroke:#000000;stroke-linecap:square;stroke-linejoin:miter;stroke-width:0.8;"/>
   </g>
   <g id="patch_4">
    <path d="M 867.103125 333.36 
L 867.103125 7.2 
" style="fill:none;stroke:#000000;stroke-linecap:square;stroke-linejoin:miter;stroke-width:0.8;"/>
   </g>
   <g id="patch_5">
    <path d="M 30.103125 333.36 
L 867.103125 333.36 
" style="fill:none;stroke:#000000;stroke-linecap:square;stroke-linejoin:miter;stroke-width:0.8;"/>
   </g>
   <g id="patch_6">
    <path d="M 30.103125 7.2 
L 867.103125 7.2 
" style="fill:none;stroke:#000000;stroke-linecap:square;stroke-linejoin:miter;stroke-width:0.8;"/>
   </g>
  </g>
 </g>
 <defs>
  <clipPath id="p53cfb0b613">
   <rect height="326.16" width="837" x="30.103125" y="7.2"/>
  </clipPath>
 </defs>
</svg>
