<?xml version="1.0" encoding="utf-8" standalone="no"?>
<!DOCTYPE svg PUBLIC "-//W3C//DTD SVG 1.1//EN"
  "http://www.w3.org/Graphics/SVG/1.1/DTD/svg11.dtd">
<!-- Created with matplotlib (https://matplotlib.org/) -->
<svg height="248.518125pt" version="1.1" viewBox="0 0 399.570313 248.518125" width="399.570313pt" xmlns="http://www.w3.org/2000/svg" xmlns:xlink="http://www.w3.org/1999/xlink">
 <metadata>
  <rdf:RDF xmlns:cc="http://creativecommons.org/ns#" xmlns:dc="http://purl.org/dc/elements/1.1/" xmlns:rdf="http://www.w3.org/1999/02/22-rdf-syntax-ns#">
   <cc:Work>
    <dc:type rdf:resource="http://purl.org/dc/dcmitype/StillImage"/>
    <dc:date>2021-10-05T16:39:47.622987</dc:date>
    <dc:format>image/svg+xml</dc:format>
    <dc:creator>
     <cc:Agent>
      <dc:title>Matplotlib v3.3.4, https://matplotlib.org/</dc:title>
     </cc:Agent>
    </dc:creator>
   </cc:Work>
  </rdf:RDF>
 </metadata>
 <defs>
  <style type="text/css">*{stroke-linecap:butt;stroke-linejoin:round;}</style>
 </defs>
 <g id="figure_1">
  <g id="patch_1">
   <path d="M 0 248.518125 
L 399.570313 248.518125 
L 399.570313 0 
L 0 0 
z
" style="fill:none;"/>
  </g>
  <g id="axes_1">
   <g id="patch_2">
    <path d="M 57.570313 224.64 
L 392.370313 224.64 
L 392.370313 7.2 
L 57.570313 7.2 
z
" style="fill:#ffffff;"/>
   </g>
   <g id="matplotlib.axis_1">
    <g id="xtick_1">
     <g id="line2d_1">
      <path clip-path="url(#p8c2a787980)" d="M 72.788494 224.64 
L 72.788494 7.2 
" style="fill:none;stroke:#b0b0b0;stroke-linecap:square;stroke-width:0.8;"/>
     </g>
     <g id="line2d_2">
      <defs>
       <path d="M 0 0 
L 0 3.5 
" id="m4ecf489625" style="stroke:#000000;stroke-width:0.8;"/>
      </defs>
      <g>
       <use style="stroke:#000000;stroke-width:0.8;" x="72.788494" xlink:href="#m4ecf489625" y="224.64"/>
      </g>
     </g>
     <g id="text_1">
      <!-- 0.0 -->
      <g transform="translate(64.836932 239.238437)scale(0.1 -0.1)">
       <defs>
        <path d="M 31.78125 66.40625 
Q 24.171875 66.40625 20.328125 58.90625 
Q 16.5 51.421875 16.5 36.375 
Q 16.5 21.390625 20.328125 13.890625 
Q 24.171875 6.390625 31.78125 6.390625 
Q 39.453125 6.390625 43.28125 13.890625 
Q 47.125 21.390625 47.125 36.375 
Q 47.125 51.421875 43.28125 58.90625 
Q 39.453125 66.40625 31.78125 66.40625 
z
M 31.78125 74.21875 
Q 44.046875 74.21875 50.515625 64.515625 
Q 56.984375 54.828125 56.984375 36.375 
Q 56.984375 17.96875 50.515625 8.265625 
Q 44.046875 -1.421875 31.78125 -1.421875 
Q 19.53125 -1.421875 13.0625 8.265625 
Q 6.59375 17.96875 6.59375 36.375 
Q 6.59375 54.828125 13.0625 64.515625 
Q 19.53125 74.21875 31.78125 74.21875 
z
" id="DejaVuSans-48"/>
        <path d="M 10.6875 12.40625 
L 21 12.40625 
L 21 0 
L 10.6875 0 
z
" id="DejaVuSans-46"/>
       </defs>
       <use xlink:href="#DejaVuSans-48"/>
       <use x="63.623047" xlink:href="#DejaVuSans-46"/>
       <use x="95.410156" xlink:href="#DejaVuSans-48"/>
      </g>
     </g>
    </g>
    <g id="xtick_2">
     <g id="line2d_3">
      <path clip-path="url(#p8c2a787980)" d="M 110.833949 224.64 
L 110.833949 7.2 
" style="fill:none;stroke:#b0b0b0;stroke-linecap:square;stroke-width:0.8;"/>
     </g>
     <g id="line2d_4">
      <g>
       <use style="stroke:#000000;stroke-width:0.8;" x="110.833949" xlink:href="#m4ecf489625" y="224.64"/>
      </g>
     </g>
     <g id="text_2">
      <!-- 2.5 -->
      <g transform="translate(102.882386 239.238437)scale(0.1 -0.1)">
       <defs>
        <path d="M 19.1875 8.296875 
L 53.609375 8.296875 
L 53.609375 0 
L 7.328125 0 
L 7.328125 8.296875 
Q 12.9375 14.109375 22.625 23.890625 
Q 32.328125 33.6875 34.8125 36.53125 
Q 39.546875 41.84375 41.421875 45.53125 
Q 43.3125 49.21875 43.3125 52.78125 
Q 43.3125 58.59375 39.234375 62.25 
Q 35.15625 65.921875 28.609375 65.921875 
Q 23.96875 65.921875 18.8125 64.3125 
Q 13.671875 62.703125 7.8125 59.421875 
L 7.8125 69.390625 
Q 13.765625 71.78125 18.9375 73 
Q 24.125 74.21875 28.421875 74.21875 
Q 39.75 74.21875 46.484375 68.546875 
Q 53.21875 62.890625 53.21875 53.421875 
Q 53.21875 48.921875 51.53125 44.890625 
Q 49.859375 40.875 45.40625 35.40625 
Q 44.1875 33.984375 37.640625 27.21875 
Q 31.109375 20.453125 19.1875 8.296875 
z
" id="DejaVuSans-50"/>
        <path d="M 10.796875 72.90625 
L 49.515625 72.90625 
L 49.515625 64.59375 
L 19.828125 64.59375 
L 19.828125 46.734375 
Q 21.96875 47.46875 24.109375 47.828125 
Q 26.265625 48.1875 28.421875 48.1875 
Q 40.625 48.1875 47.75 41.5 
Q 54.890625 34.8125 54.890625 23.390625 
Q 54.890625 11.625 47.5625 5.09375 
Q 40.234375 -1.421875 26.90625 -1.421875 
Q 22.3125 -1.421875 17.546875 -0.640625 
Q 12.796875 0.140625 7.71875 1.703125 
L 7.71875 11.625 
Q 12.109375 9.234375 16.796875 8.0625 
Q 21.484375 6.890625 26.703125 6.890625 
Q 35.15625 6.890625 40.078125 11.328125 
Q 45.015625 15.765625 45.015625 23.390625 
Q 45.015625 31 40.078125 35.4375 
Q 35.15625 39.890625 26.703125 39.890625 
Q 22.75 39.890625 18.8125 39.015625 
Q 14.890625 38.140625 10.796875 36.28125 
z
" id="DejaVuSans-53"/>
       </defs>
       <use xlink:href="#DejaVuSans-50"/>
       <use x="63.623047" xlink:href="#DejaVuSans-46"/>
       <use x="95.410156" xlink:href="#DejaVuSans-53"/>
      </g>
     </g>
    </g>
    <g id="xtick_3">
     <g id="line2d_5">
      <path clip-path="url(#p8c2a787980)" d="M 148.879403 224.64 
L 148.879403 7.2 
" style="fill:none;stroke:#b0b0b0;stroke-linecap:square;stroke-width:0.8;"/>
     </g>
     <g id="line2d_6">
      <g>
       <use style="stroke:#000000;stroke-width:0.8;" x="148.879403" xlink:href="#m4ecf489625" y="224.64"/>
      </g>
     </g>
     <g id="text_3">
      <!-- 5.0 -->
      <g transform="translate(140.927841 239.238437)scale(0.1 -0.1)">
       <use xlink:href="#DejaVuSans-53"/>
       <use x="63.623047" xlink:href="#DejaVuSans-46"/>
       <use x="95.410156" xlink:href="#DejaVuSans-48"/>
      </g>
     </g>
    </g>
    <g id="xtick_4">
     <g id="line2d_7">
      <path clip-path="url(#p8c2a787980)" d="M 186.924858 224.64 
L 186.924858 7.2 
" style="fill:none;stroke:#b0b0b0;stroke-linecap:square;stroke-width:0.8;"/>
     </g>
     <g id="line2d_8">
      <g>
       <use style="stroke:#000000;stroke-width:0.8;" x="186.924858" xlink:href="#m4ecf489625" y="224.64"/>
      </g>
     </g>
     <g id="text_4">
      <!-- 7.5 -->
      <g transform="translate(178.973295 239.238437)scale(0.1 -0.1)">
       <defs>
        <path d="M 8.203125 72.90625 
L 55.078125 72.90625 
L 55.078125 68.703125 
L 28.609375 0 
L 18.3125 0 
L 43.21875 64.59375 
L 8.203125 64.59375 
z
" id="DejaVuSans-55"/>
       </defs>
       <use xlink:href="#DejaVuSans-55"/>
       <use x="63.623047" xlink:href="#DejaVuSans-46"/>
       <use x="95.410156" xlink:href="#DejaVuSans-53"/>
      </g>
     </g>
    </g>
    <g id="xtick_5">
     <g id="line2d_9">
      <path clip-path="url(#p8c2a787980)" d="M 224.970313 224.64 
L 224.970313 7.2 
" style="fill:none;stroke:#b0b0b0;stroke-linecap:square;stroke-width:0.8;"/>
     </g>
     <g id="line2d_10">
      <g>
       <use style="stroke:#000000;stroke-width:0.8;" x="224.970313" xlink:href="#m4ecf489625" y="224.64"/>
      </g>
     </g>
     <g id="text_5">
      <!-- 10.0 -->
      <g transform="translate(213.8375 239.238437)scale(0.1 -0.1)">
       <defs>
        <path d="M 12.40625 8.296875 
L 28.515625 8.296875 
L 28.515625 63.921875 
L 10.984375 60.40625 
L 10.984375 69.390625 
L 28.421875 72.90625 
L 38.28125 72.90625 
L 38.28125 8.296875 
L 54.390625 8.296875 
L 54.390625 0 
L 12.40625 0 
z
" id="DejaVuSans-49"/>
       </defs>
       <use xlink:href="#DejaVuSans-49"/>
       <use x="63.623047" xlink:href="#DejaVuSans-48"/>
       <use x="127.246094" xlink:href="#DejaVuSans-46"/>
       <use x="159.033203" xlink:href="#DejaVuSans-48"/>
      </g>
     </g>
    </g>
    <g id="xtick_6">
     <g id="line2d_11">
      <path clip-path="url(#p8c2a787980)" d="M 263.015767 224.64 
L 263.015767 7.2 
" style="fill:none;stroke:#b0b0b0;stroke-linecap:square;stroke-width:0.8;"/>
     </g>
     <g id="line2d_12">
      <g>
       <use style="stroke:#000000;stroke-width:0.8;" x="263.015767" xlink:href="#m4ecf489625" y="224.64"/>
      </g>
     </g>
     <g id="text_6">
      <!-- 12.5 -->
      <g transform="translate(251.882955 239.238437)scale(0.1 -0.1)">
       <use xlink:href="#DejaVuSans-49"/>
       <use x="63.623047" xlink:href="#DejaVuSans-50"/>
       <use x="127.246094" xlink:href="#DejaVuSans-46"/>
       <use x="159.033203" xlink:href="#DejaVuSans-53"/>
      </g>
     </g>
    </g>
    <g id="xtick_7">
     <g id="line2d_13">
      <path clip-path="url(#p8c2a787980)" d="M 301.061222 224.64 
L 301.061222 7.2 
" style="fill:none;stroke:#b0b0b0;stroke-linecap:square;stroke-width:0.8;"/>
     </g>
     <g id="line2d_14">
      <g>
       <use style="stroke:#000000;stroke-width:0.8;" x="301.061222" xlink:href="#m4ecf489625" y="224.64"/>
      </g>
     </g>
     <g id="text_7">
      <!-- 15.0 -->
      <g transform="translate(289.928409 239.238437)scale(0.1 -0.1)">
       <use xlink:href="#DejaVuSans-49"/>
       <use x="63.623047" xlink:href="#DejaVuSans-53"/>
       <use x="127.246094" xlink:href="#DejaVuSans-46"/>
       <use x="159.033203" xlink:href="#DejaVuSans-48"/>
      </g>
     </g>
    </g>
    <g id="xtick_8">
     <g id="line2d_15">
      <path clip-path="url(#p8c2a787980)" d="M 339.106676 224.64 
L 339.106676 7.2 
" style="fill:none;stroke:#b0b0b0;stroke-linecap:square;stroke-width:0.8;"/>
     </g>
     <g id="line2d_16">
      <g>
       <use style="stroke:#000000;stroke-width:0.8;" x="339.106676" xlink:href="#m4ecf489625" y="224.64"/>
      </g>
     </g>
     <g id="text_8">
      <!-- 17.5 -->
      <g transform="translate(327.973864 239.238437)scale(0.1 -0.1)">
       <use xlink:href="#DejaVuSans-49"/>
       <use x="63.623047" xlink:href="#DejaVuSans-55"/>
       <use x="127.246094" xlink:href="#DejaVuSans-46"/>
       <use x="159.033203" xlink:href="#DejaVuSans-53"/>
      </g>
     </g>
    </g>
    <g id="xtick_9">
     <g id="line2d_17">
      <path clip-path="url(#p8c2a787980)" d="M 377.152131 224.64 
L 377.152131 7.2 
" style="fill:none;stroke:#b0b0b0;stroke-linecap:square;stroke-width:0.8;"/>
     </g>
     <g id="line2d_18">
      <g>
       <use style="stroke:#000000;stroke-width:0.8;" x="377.152131" xlink:href="#m4ecf489625" y="224.64"/>
      </g>
     </g>
     <g id="text_9">
      <!-- 20.0 -->
      <g transform="translate(366.019318 239.238437)scale(0.1 -0.1)">
       <use xlink:href="#DejaVuSans-50"/>
       <use x="63.623047" xlink:href="#DejaVuSans-48"/>
       <use x="127.246094" xlink:href="#DejaVuSans-46"/>
       <use x="159.033203" xlink:href="#DejaVuSans-48"/>
      </g>
     </g>
    </g>
   </g>
   <g id="matplotlib.axis_2">
    <g id="ytick_1">
     <g id="line2d_19">
      <path clip-path="url(#p8c2a787980)" d="M 57.570313 214.756364 
L 392.370313 214.756364 
" style="fill:none;stroke:#b0b0b0;stroke-linecap:square;stroke-width:0.8;"/>
     </g>
     <g id="line2d_20">
      <defs>
       <path d="M 0 0 
L -3.5 0 
" id="m5899e51d68" style="stroke:#000000;stroke-width:0.8;"/>
      </defs>
      <g>
       <use style="stroke:#000000;stroke-width:0.8;" x="57.570313" xlink:href="#m5899e51d68" y="214.756364"/>
      </g>
     </g>
     <g id="text_10">
      <!-- −0.0020 -->
      <g transform="translate(7.2 218.555582)scale(0.1 -0.1)">
       <defs>
        <path d="M 10.59375 35.5 
L 73.1875 35.5 
L 73.1875 27.203125 
L 10.59375 27.203125 
z
" id="DejaVuSans-8722"/>
       </defs>
       <use xlink:href="#DejaVuSans-8722"/>
       <use x="83.789062" xlink:href="#DejaVuSans-48"/>
       <use x="147.412109" xlink:href="#DejaVuSans-46"/>
       <use x="179.199219" xlink:href="#DejaVuSans-48"/>
       <use x="242.822266" xlink:href="#DejaVuSans-48"/>
       <use x="306.445312" xlink:href="#DejaVuSans-50"/>
       <use x="370.068359" xlink:href="#DejaVuSans-48"/>
      </g>
     </g>
    </g>
    <g id="ytick_2">
     <g id="line2d_21">
      <path clip-path="url(#p8c2a787980)" d="M 57.570313 190.007676 
L 392.370313 190.007676 
" style="fill:none;stroke:#b0b0b0;stroke-linecap:square;stroke-width:0.8;"/>
     </g>
     <g id="line2d_22">
      <g>
       <use style="stroke:#000000;stroke-width:0.8;" x="57.570313" xlink:href="#m5899e51d68" y="190.007676"/>
      </g>
     </g>
     <g id="text_11">
      <!-- −0.0015 -->
      <g transform="translate(7.2 193.806894)scale(0.1 -0.1)">
       <use xlink:href="#DejaVuSans-8722"/>
       <use x="83.789062" xlink:href="#DejaVuSans-48"/>
       <use x="147.412109" xlink:href="#DejaVuSans-46"/>
       <use x="179.199219" xlink:href="#DejaVuSans-48"/>
       <use x="242.822266" xlink:href="#DejaVuSans-48"/>
       <use x="306.445312" xlink:href="#DejaVuSans-49"/>
       <use x="370.068359" xlink:href="#DejaVuSans-53"/>
      </g>
     </g>
    </g>
    <g id="ytick_3">
     <g id="line2d_23">
      <path clip-path="url(#p8c2a787980)" d="M 57.570313 165.258988 
L 392.370313 165.258988 
" style="fill:none;stroke:#b0b0b0;stroke-linecap:square;stroke-width:0.8;"/>
     </g>
     <g id="line2d_24">
      <g>
       <use style="stroke:#000000;stroke-width:0.8;" x="57.570313" xlink:href="#m5899e51d68" y="165.258988"/>
      </g>
     </g>
     <g id="text_12">
      <!-- −0.0010 -->
      <g transform="translate(7.2 169.058206)scale(0.1 -0.1)">
       <use xlink:href="#DejaVuSans-8722"/>
       <use x="83.789062" xlink:href="#DejaVuSans-48"/>
       <use x="147.412109" xlink:href="#DejaVuSans-46"/>
       <use x="179.199219" xlink:href="#DejaVuSans-48"/>
       <use x="242.822266" xlink:href="#DejaVuSans-48"/>
       <use x="306.445312" xlink:href="#DejaVuSans-49"/>
       <use x="370.068359" xlink:href="#DejaVuSans-48"/>
      </g>
     </g>
    </g>
    <g id="ytick_4">
     <g id="line2d_25">
      <path clip-path="url(#p8c2a787980)" d="M 57.570313 140.510299 
L 392.370313 140.510299 
" style="fill:none;stroke:#b0b0b0;stroke-linecap:square;stroke-width:0.8;"/>
     </g>
     <g id="line2d_26">
      <g>
       <use style="stroke:#000000;stroke-width:0.8;" x="57.570313" xlink:href="#m5899e51d68" y="140.510299"/>
      </g>
     </g>
     <g id="text_13">
      <!-- −0.0005 -->
      <g transform="translate(7.2 144.309518)scale(0.1 -0.1)">
       <use xlink:href="#DejaVuSans-8722"/>
       <use x="83.789062" xlink:href="#DejaVuSans-48"/>
       <use x="147.412109" xlink:href="#DejaVuSans-46"/>
       <use x="179.199219" xlink:href="#DejaVuSans-48"/>
       <use x="242.822266" xlink:href="#DejaVuSans-48"/>
       <use x="306.445312" xlink:href="#DejaVuSans-48"/>
       <use x="370.068359" xlink:href="#DejaVuSans-53"/>
      </g>
     </g>
    </g>
    <g id="ytick_5">
     <g id="line2d_27">
      <path clip-path="url(#p8c2a787980)" d="M 57.570313 115.761611 
L 392.370313 115.761611 
" style="fill:none;stroke:#b0b0b0;stroke-linecap:square;stroke-width:0.8;"/>
     </g>
     <g id="line2d_28">
      <g>
       <use style="stroke:#000000;stroke-width:0.8;" x="57.570313" xlink:href="#m5899e51d68" y="115.761611"/>
      </g>
     </g>
     <g id="text_14">
      <!-- 0.0000 -->
      <g transform="translate(15.579688 119.56083)scale(0.1 -0.1)">
       <use xlink:href="#DejaVuSans-48"/>
       <use x="63.623047" xlink:href="#DejaVuSans-46"/>
       <use x="95.410156" xlink:href="#DejaVuSans-48"/>
       <use x="159.033203" xlink:href="#DejaVuSans-48"/>
       <use x="222.65625" xlink:href="#DejaVuSans-48"/>
       <use x="286.279297" xlink:href="#DejaVuSans-48"/>
      </g>
     </g>
    </g>
    <g id="ytick_6">
     <g id="line2d_29">
      <path clip-path="url(#p8c2a787980)" d="M 57.570313 91.012923 
L 392.370313 91.012923 
" style="fill:none;stroke:#b0b0b0;stroke-linecap:square;stroke-width:0.8;"/>
     </g>
     <g id="line2d_30">
      <g>
       <use style="stroke:#000000;stroke-width:0.8;" x="57.570313" xlink:href="#m5899e51d68" y="91.012923"/>
      </g>
     </g>
     <g id="text_15">
      <!-- 0.0005 -->
      <g transform="translate(15.579688 94.812142)scale(0.1 -0.1)">
       <use xlink:href="#DejaVuSans-48"/>
       <use x="63.623047" xlink:href="#DejaVuSans-46"/>
       <use x="95.410156" xlink:href="#DejaVuSans-48"/>
       <use x="159.033203" xlink:href="#DejaVuSans-48"/>
       <use x="222.65625" xlink:href="#DejaVuSans-48"/>
       <use x="286.279297" xlink:href="#DejaVuSans-53"/>
      </g>
     </g>
    </g>
    <g id="ytick_7">
     <g id="line2d_31">
      <path clip-path="url(#p8c2a787980)" d="M 57.570313 66.264235 
L 392.370313 66.264235 
" style="fill:none;stroke:#b0b0b0;stroke-linecap:square;stroke-width:0.8;"/>
     </g>
     <g id="line2d_32">
      <g>
       <use style="stroke:#000000;stroke-width:0.8;" x="57.570313" xlink:href="#m5899e51d68" y="66.264235"/>
      </g>
     </g>
     <g id="text_16">
      <!-- 0.0010 -->
      <g transform="translate(15.579688 70.063454)scale(0.1 -0.1)">
       <use xlink:href="#DejaVuSans-48"/>
       <use x="63.623047" xlink:href="#DejaVuSans-46"/>
       <use x="95.410156" xlink:href="#DejaVuSans-48"/>
       <use x="159.033203" xlink:href="#DejaVuSans-48"/>
       <use x="222.65625" xlink:href="#DejaVuSans-49"/>
       <use x="286.279297" xlink:href="#DejaVuSans-48"/>
      </g>
     </g>
    </g>
    <g id="ytick_8">
     <g id="line2d_33">
      <path clip-path="url(#p8c2a787980)" d="M 57.570313 41.515547 
L 392.370313 41.515547 
" style="fill:none;stroke:#b0b0b0;stroke-linecap:square;stroke-width:0.8;"/>
     </g>
     <g id="line2d_34">
      <g>
       <use style="stroke:#000000;stroke-width:0.8;" x="57.570313" xlink:href="#m5899e51d68" y="41.515547"/>
      </g>
     </g>
     <g id="text_17">
      <!-- 0.0015 -->
      <g transform="translate(15.579688 45.314766)scale(0.1 -0.1)">
       <use xlink:href="#DejaVuSans-48"/>
       <use x="63.623047" xlink:href="#DejaVuSans-46"/>
       <use x="95.410156" xlink:href="#DejaVuSans-48"/>
       <use x="159.033203" xlink:href="#DejaVuSans-48"/>
       <use x="222.65625" xlink:href="#DejaVuSans-49"/>
       <use x="286.279297" xlink:href="#DejaVuSans-53"/>
      </g>
     </g>
    </g>
    <g id="ytick_9">
     <g id="line2d_35">
      <path clip-path="url(#p8c2a787980)" d="M 57.570313 16.766859 
L 392.370313 16.766859 
" style="fill:none;stroke:#b0b0b0;stroke-linecap:square;stroke-width:0.8;"/>
     </g>
     <g id="line2d_36">
      <g>
       <use style="stroke:#000000;stroke-width:0.8;" x="57.570313" xlink:href="#m5899e51d68" y="16.766859"/>
      </g>
     </g>
     <g id="text_18">
      <!-- 0.0020 -->
      <g transform="translate(15.579688 20.566078)scale(0.1 -0.1)">
       <use xlink:href="#DejaVuSans-48"/>
       <use x="63.623047" xlink:href="#DejaVuSans-46"/>
       <use x="95.410156" xlink:href="#DejaVuSans-48"/>
       <use x="159.033203" xlink:href="#DejaVuSans-48"/>
       <use x="222.65625" xlink:href="#DejaVuSans-50"/>
       <use x="286.279297" xlink:href="#DejaVuSans-48"/>
      </g>
     </g>
    </g>
   </g>
   <g id="line2d_37">
    <path clip-path="url(#p8c2a787980)" d="M 72.788494 66.264235 
L 76.139846 66.353879 
L 77.358519 66.569381 
L 78.577192 67.035411 
L 79.491197 67.627695 
L 80.405202 68.495029 
L 81.319207 69.699812 
L 82.233212 71.30382 
L 83.147217 73.365641 
L 84.061222 75.938197 
L 84.975227 79.066332 
L 86.1939 84.159342 
L 87.412573 90.346998 
L 88.631246 97.630534 
L 90.154588 108.195894 
L 91.982598 122.71917 
L 94.419944 144.166391 
L 98.075964 176.420493 
L 99.599305 188.130071 
L 100.817978 196.124332 
L 102.036652 202.574808 
L 102.950656 206.241793 
L 103.559993 208.076249 
L 104.16933 209.395283 
L 104.778666 210.179744 
L 105.083335 210.366629 
L 105.388003 210.41457 
L 105.692671 210.322337 
L 105.99734 210.088981 
L 106.606676 209.196553 
L 107.216013 207.73547 
L 107.825349 205.708472 
L 108.739354 201.624454 
L 109.653359 196.329417 
L 110.872032 187.50471 
L 112.090706 176.866982 
L 113.614047 161.450218 
L 115.746725 137.109151 
L 120.621418 79.922778 
L 122.14476 64.591066 
L 123.668101 51.591433 
L 124.886774 43.183495 
L 125.800779 38.151143 
L 126.714784 34.260172 
L 127.628789 31.531345 
L 128.238126 30.357997 
L 128.847462 29.695331 
L 129.152131 29.552605 
L 129.456799 29.533581 
L 129.761467 29.636437 
L 130.370804 30.199342 
L 130.980141 31.222287 
L 131.589477 32.682993 
L 132.503482 35.63894 
L 133.417487 39.426718 
L 134.63616 45.586312 
L 136.159502 54.68403 
L 138.29218 69.042971 
L 142.557536 98.272708 
L 144.385546 109.319927 
L 146.213556 118.923116 
L 147.736897 125.760684 
L 149.260239 131.604603 
L 150.78358 136.601799 
L 152.61159 141.766386 
L 155.048937 147.882495 
L 159.009625 157.778538 
L 165.407659 174.353902 
L 166.626332 176.674632 
L 167.540337 177.983519 
L 168.454342 178.831992 
L 169.063679 179.102262 
L 169.673015 179.109403 
L 170.282352 178.831901 
L 170.891688 178.249614 
L 171.501025 177.344276 
L 172.110362 176.099779 
L 173.024367 173.568016 
L 173.938371 170.208921 
L 174.852376 166.004054 
L 176.07105 159.082418 
L 177.289723 150.705021 
L 178.813064 138.355934 
L 180.641074 121.25082 
L 183.078421 95.989375 
L 186.73444 58.21161 
L 188.257782 44.525522 
L 189.476455 35.140464 
L 190.695128 27.477828 
L 191.609133 23.017391 
L 192.523138 19.757864 
L 193.132475 18.285562 
L 193.741811 17.390964 
L 194.04648 17.163474 
L 194.351148 17.083636 
L 194.655816 17.151925 
L 194.960484 17.368496 
L 195.569821 18.245695 
L 196.179158 19.710644 
L 196.788494 21.754043 
L 197.702499 25.871964 
L 198.616504 31.192938 
L 199.835177 40.004884 
L 201.053851 50.537438 
L 202.577192 65.64302 
L 204.70987 89.149572 
L 208.975227 136.75161 
L 210.803236 154.350526 
L 212.326578 166.696469 
L 213.545251 174.783658 
L 214.459256 179.724819 
L 215.373261 183.673368 
L 216.287266 186.625338 
L 216.896602 188.046363 
L 217.505939 189.039888 
L 218.115276 189.618275 
L 218.724612 189.79712 
L 219.333949 189.594744 
L 219.943285 189.032091 
L 220.552622 188.132313 
L 221.466627 186.205655 
L 222.380632 183.667469 
L 223.599305 179.497074 
L 225.122647 173.344612 
L 227.559993 162.339937 
L 231.216013 145.908088 
L 233.348691 137.34966 
L 235.481369 129.68117 
L 238.83272 118.661136 
L 241.574735 109.327812 
L 243.402745 102.344428 
L 245.230755 94.508824 
L 247.363433 84.276056 
L 250.714784 66.73826 
L 253.152131 54.44886 
L 254.675472 47.835431 
L 255.894145 43.52153 
L 256.80815 41.014232 
L 257.722155 39.237791 
L 258.331492 38.503159 
L 258.940828 38.155803 
L 259.550165 38.216599 
L 260.159502 38.703603 
L 260.768838 39.631766 
L 261.378175 41.012716 
L 261.987512 42.854447 
L 262.901516 46.489213 
L 263.815521 51.166921 
L 264.729526 56.864414 
L 265.948199 65.968072 
L 267.471541 79.530761 
L 269.299551 98.393722 
L 272.041566 129.772237 
L 275.088249 164.345317 
L 276.916258 182.501895 
L 278.134932 192.778577 
L 279.353605 201.242197 
L 280.26761 206.254473 
L 281.181615 210.035079 
L 281.790951 211.843488 
L 282.400288 213.069588 
L 283.009625 213.707757 
L 283.314293 213.805904 
L 283.618961 213.757105 
L 283.923629 213.561988 
L 284.532966 212.736748 
L 285.142303 211.340941 
L 285.751639 209.389876 
L 286.665644 205.465977 
L 287.579649 200.42055 
L 288.798322 192.126381 
L 290.016996 182.304366 
L 291.845005 165.420413 
L 295.196357 131.392876 
L 297.633703 107.583709 
L 299.461713 91.866062 
L 300.985055 80.749466 
L 302.203728 73.342085 
L 303.422401 67.326457 
L 304.336406 63.733212 
L 305.250411 60.909635 
L 306.164416 58.823441 
L 307.078421 57.429113 
L 307.687757 56.856393 
L 308.297094 56.547196 
L 308.90643 56.48114 
L 309.515767 56.636796 
L 310.125104 56.992056 
L 311.039109 57.849939 
L 311.953113 59.030682 
L 313.171787 60.981493 
L 314.999797 64.399595 
L 325.053851 84.421224 
L 326.577192 88.40536 
L 327.795865 92.178931 
L 329.014539 96.591467 
L 330.233212 101.728087 
L 331.756553 109.244965 
L 333.279895 117.991377 
L 335.107905 129.970857 
L 337.545251 147.782316 
L 341.505939 177.200205 
L 343.029281 187.026015 
L 344.247954 193.686029 
L 345.161959 197.795784 
L 346.075964 201.025831 
L 346.6853 202.642322 
L 347.294637 203.799631 
L 347.903973 204.475864 
L 348.208642 204.627657 
L 348.51331 204.652543 
L 348.817978 204.548808 
L 349.427315 203.949822 
L 350.036652 202.821987 
L 350.645988 201.160854 
L 351.255325 198.966278 
L 352.16933 194.684872 
L 353.083335 189.247382 
L 354.302008 180.298729 
L 355.520681 169.588519 
L 357.044023 154.117466 
L 359.176701 129.703348 
L 364.356062 68.938145 
L 365.879403 53.943403 
L 367.098077 43.732587 
L 368.31675 35.387705 
L 369.230755 30.470581 
L 370.14476 26.76615 
L 370.754096 24.986878 
L 371.363433 23.764857 
L 371.97277 23.099199 
L 372.277438 22.973506 
L 372.582106 22.984555 
L 372.886774 23.130995 
L 373.496111 23.823322 
L 374.105448 25.034521 
L 374.714784 26.744745 
L 375.628789 30.19348 
L 376.542794 34.618468 
L 377.152131 38.058351 
L 377.152131 38.058351 
" style="fill:none;stroke:#000000;stroke-linecap:square;stroke-width:1.5;"/>
   </g>
   <g id="line2d_38">
    <path clip-path="url(#p8c2a787980)" d="M 72.788494 214.756364 
L 73.093163 214.68199 
L 73.397831 214.459016 
L 74.007168 213.56939 
L 74.616504 212.094438 
L 75.225841 210.046023 
L 76.139846 205.93501 
L 77.053851 200.644703 
L 78.272524 191.921872 
L 79.491197 181.544599 
L 81.014539 166.737052 
L 83.451885 140.470952 
L 87.107905 101.012383 
L 88.935914 83.775519 
L 90.459256 71.573134 
L 91.677929 63.480047 
L 92.896602 56.987328 
L 93.810607 53.195524 
L 94.724612 50.324137 
L 95.638617 48.35053 
L 96.247954 47.514952 
L 96.85729 47.04614 
L 97.466627 46.926322 
L 98.075964 47.135381 
L 98.6853 47.651302 
L 99.294637 48.450394 
L 100.208642 50.125359 
L 101.122647 52.293538 
L 102.34132 55.797849 
L 103.864661 60.872997 
L 107.520681 74.20148 
L 110.262696 83.702089 
L 112.700042 91.366357 
L 117.574735 106.315371 
L 119.402745 112.83093 
L 120.926086 119.018404 
L 122.449428 126.01403 
L 124.277438 135.499013 
L 126.410116 147.845542 
L 131.894145 180.56258 
L 133.417487 187.899652 
L 134.63616 192.569683 
L 135.550165 195.208434 
L 136.159502 196.502517 
L 136.768838 197.394391 
L 137.378175 197.861061 
L 137.987512 197.882411 
L 138.596848 197.44151 
L 139.206185 196.524881 
L 139.815521 195.122749 
L 140.424858 193.229181 
L 141.338863 189.4645 
L 142.252868 184.602364 
L 143.166873 178.675804 
L 144.385546 169.215369 
L 145.908887 155.159939 
L 147.736897 135.700016 
L 150.478912 103.559368 
L 153.525595 68.485892 
L 155.048937 53.050459 
L 156.572278 39.942639 
L 157.790951 31.513928 
L 158.704956 26.542835 
L 159.618961 22.807284 
L 160.228298 21.026826 
L 160.837634 19.823984 
L 161.446971 19.201793 
L 161.751639 19.108107 
L 162.056308 19.158604 
L 162.360976 19.352351 
L 162.970312 20.16448 
L 163.579649 21.531498 
L 164.188986 23.436035 
L 165.102991 27.252942 
L 166.016996 32.142335 
L 167.235669 40.146114 
L 168.75901 52.125244 
L 170.58702 68.554104 
L 176.680386 125.365444 
L 178.203728 137.126669 
L 179.727069 147.133186 
L 180.945742 153.759944 
L 182.164416 159.133303 
L 183.078421 162.356167 
L 183.992426 164.918025 
L 184.90643 166.860271 
L 185.820435 168.234658 
L 186.73444 169.100966 
L 187.343777 169.428336 
L 187.953113 169.57903 
L 188.867118 169.518466 
L 189.781123 169.174601 
L 190.999797 168.387755 
L 192.523138 167.069329 
L 196.483826 163.148389 
L 199.530509 160.026621 
L 201.053851 158.15342 
L 202.272524 156.312354 
L 203.491197 154.025062 
L 204.70987 151.157383 
L 205.928543 147.582953 
L 207.147217 143.193369 
L 208.36589 137.907905 
L 209.584563 131.682054 
L 211.107905 122.579796 
L 212.631246 112.113107 
L 214.763924 95.622408 
L 220.85729 46.793337 
L 222.380632 37.207915 
L 223.599305 31.118483 
L 224.51331 27.646788 
L 225.122647 25.907958 
L 225.731983 24.65833 
L 226.34132 23.918544 
L 226.645988 23.745289 
L 226.950656 23.705509 
L 227.255325 23.800706 
L 227.864661 24.400606 
L 228.473998 25.551476 
L 229.083335 27.255365 
L 229.692671 29.509814 
L 230.606676 33.907212 
L 231.520681 39.483665 
L 232.739354 48.636836 
L 233.958027 59.553377 
L 235.481369 75.254567 
L 237.614047 99.88338 
L 242.48874 157.238431 
L 244.012082 172.458014 
L 245.230755 182.908867 
L 246.449428 191.552801 
L 247.363433 196.736088 
L 248.277438 200.744747 
L 249.191443 203.548678 
L 249.800779 204.744102 
L 250.410116 205.403713 
L 250.714784 205.534809 
L 251.019453 205.535142 
L 251.324121 205.406314 
L 251.933457 204.76881 
L 252.542794 203.639941 
L 253.152131 202.04093 
L 254.066136 198.815379 
L 254.980141 194.682859 
L 256.198814 187.949187 
L 257.722155 177.963075 
L 259.854833 162.099799 
L 264.424858 127.305378 
L 266.252868 115.17543 
L 267.776209 106.377214 
L 269.299551 98.873021 
L 270.822892 92.642056 
L 272.041566 88.498557 
L 273.260239 85.002912 
L 274.78358 81.368808 
L 276.306922 78.323291 
L 278.4396 74.60064 
L 286.970312 60.477709 
L 288.188986 59.060727 
L 289.102991 58.332962 
L 289.712327 58.047764 
L 290.321664 57.94813 
L 290.931 58.055837 
L 291.540337 58.392124 
L 292.149674 58.977318 
L 292.75901 59.830533 
L 293.673015 61.650765 
L 294.58702 64.164105 
L 295.501025 67.409764 
L 296.41503 71.413131 
L 297.633703 77.944253 
L 298.852376 85.814364 
L 300.375718 97.407271 
L 302.203728 113.502074 
L 304.641074 137.403106 
L 308.297094 173.503275 
L 309.820435 186.705506 
L 311.039109 195.806048 
L 312.257782 203.272057 
L 313.171787 207.637764 
L 314.085792 210.842002 
L 314.695128 212.296192 
L 315.304465 213.185149 
L 315.609133 213.41378 
L 315.913801 213.496988 
L 316.21847 213.434001 
L 316.523138 213.224346 
L 317.132475 212.364538 
L 317.741811 210.919596 
L 318.351148 208.896248 
L 319.265153 204.80302 
L 320.179158 199.493049 
L 321.397831 190.661864 
L 322.616504 180.057894 
L 324.139846 164.773633 
L 326.272524 140.834402 
L 330.842548 88.611148 
L 332.670558 70.790418 
L 333.889231 60.681258 
L 335.107905 52.235789 
L 336.02191 47.080149 
L 336.935914 42.974852 
L 337.849919 39.933172 
L 338.459256 38.493536 
L 339.068593 37.516779 
L 339.677929 36.992163 
L 340.287266 36.905475 
L 340.896602 37.23929 
L 341.505939 37.973216 
L 342.115276 39.084261 
L 343.029281 41.402015 
L 343.943285 44.417662 
L 345.161959 49.350195 
L 346.6853 56.631405 
L 349.122647 69.731842 
L 352.778666 89.460394 
L 354.911344 99.685047 
L 356.739354 107.407669 
L 358.567364 114.245512 
L 361.004711 122.415859 
L 365.574735 137.489256 
L 367.707413 145.459657 
L 370.14476 155.542661 
L 375.019453 176.254829 
L 376.542794 181.581893 
L 377.152131 183.383249 
L 377.152131 183.383249 
" style="fill:none;stroke:#0000ff;stroke-linecap:square;stroke-width:1.5;"/>
   </g>
   <g id="patch_3">
    <path d="M 57.570313 224.64 
L 57.570313 7.2 
" style="fill:none;stroke:#000000;stroke-linecap:square;stroke-linejoin:miter;stroke-width:0.8;"/>
   </g>
   <g id="patch_4">
    <path d="M 392.370313 224.64 
L 392.370313 7.2 
" style="fill:none;stroke:#000000;stroke-linecap:square;stroke-linejoin:miter;stroke-width:0.8;"/>
   </g>
   <g id="patch_5">
    <path d="M 57.570312 224.64 
L 392.370313 224.64 
" style="fill:none;stroke:#000000;stroke-linecap:square;stroke-linejoin:miter;stroke-width:0.8;"/>
   </g>
   <g id="patch_6">
    <path d="M 57.570312 7.2 
L 392.370313 7.2 
" style="fill:none;stroke:#000000;stroke-linecap:square;stroke-linejoin:miter;stroke-width:0.8;"/>
   </g>
  </g>
 </g>
 <defs>
  <clipPath id="p8c2a787980">
   <rect height="217.44" width="334.8" x="57.570313" y="7.2"/>
  </clipPath>
 </defs>
</svg>
