<?xml version="1.0" encoding="utf-8" standalone="no"?>
<!DOCTYPE svg PUBLIC "-//W3C//DTD SVG 1.1//EN"
  "http://www.w3.org/Graphics/SVG/1.1/DTD/svg11.dtd">
<!-- Created with matplotlib (https://matplotlib.org/) -->
<svg height="263.63625pt" version="1.1" viewBox="0 0 399.570312 263.63625" width="399.570312pt" xmlns="http://www.w3.org/2000/svg" xmlns:xlink="http://www.w3.org/1999/xlink">
 <metadata>
  <rdf:RDF xmlns:cc="http://creativecommons.org/ns#" xmlns:dc="http://purl.org/dc/elements/1.1/" xmlns:rdf="http://www.w3.org/1999/02/22-rdf-syntax-ns#">
   <cc:Work>
    <dc:type rdf:resource="http://purl.org/dc/dcmitype/StillImage"/>
    <dc:date>2021-10-05T17:12:32.981544</dc:date>
    <dc:format>image/svg+xml</dc:format>
    <dc:creator>
     <cc:Agent>
      <dc:title>Matplotlib v3.3.4, https://matplotlib.org/</dc:title>
     </cc:Agent>
    </dc:creator>
   </cc:Work>
  </rdf:RDF>
 </metadata>
 <defs>
  <style type="text/css">*{stroke-linecap:butt;stroke-linejoin:round;}</style>
 </defs>
 <g id="figure_1">
  <g id="patch_1">
   <path d="M 0 263.63625 
L 399.570312 263.63625 
L 399.570312 0 
L 0 0 
z
" style="fill:none;"/>
  </g>
  <g id="axes_1">
   <g id="patch_2">
    <path d="M 57.570313 239.758125 
L 392.370313 239.758125 
L 392.370313 22.318125 
L 57.570313 22.318125 
z
" style="fill:#ffffff;"/>
   </g>
   <g id="matplotlib.axis_1">
    <g id="xtick_1">
     <g id="line2d_1">
      <path clip-path="url(#pbaa803d697)" d="M 72.788494 239.758125 
L 72.788494 22.318125 
" style="fill:none;stroke:#b0b0b0;stroke-linecap:square;stroke-width:0.8;"/>
     </g>
     <g id="line2d_2">
      <defs>
       <path d="M 0 0 
L 0 3.5 
" id="mb22dcf5331" style="stroke:#000000;stroke-width:0.8;"/>
      </defs>
      <g>
       <use style="stroke:#000000;stroke-width:0.8;" x="72.788494" xlink:href="#mb22dcf5331" y="239.758125"/>
      </g>
     </g>
     <g id="text_1">
      <!-- 0 -->
      <g transform="translate(69.607244 254.356563)scale(0.1 -0.1)">
       <defs>
        <path d="M 31.78125 66.40625 
Q 24.171875 66.40625 20.328125 58.90625 
Q 16.5 51.421875 16.5 36.375 
Q 16.5 21.390625 20.328125 13.890625 
Q 24.171875 6.390625 31.78125 6.390625 
Q 39.453125 6.390625 43.28125 13.890625 
Q 47.125 21.390625 47.125 36.375 
Q 47.125 51.421875 43.28125 58.90625 
Q 39.453125 66.40625 31.78125 66.40625 
z
M 31.78125 74.21875 
Q 44.046875 74.21875 50.515625 64.515625 
Q 56.984375 54.828125 56.984375 36.375 
Q 56.984375 17.96875 50.515625 8.265625 
Q 44.046875 -1.421875 31.78125 -1.421875 
Q 19.53125 -1.421875 13.0625 8.265625 
Q 6.59375 17.96875 6.59375 36.375 
Q 6.59375 54.828125 13.0625 64.515625 
Q 19.53125 74.21875 31.78125 74.21875 
z
" id="DejaVuSans-48"/>
       </defs>
       <use xlink:href="#DejaVuSans-48"/>
      </g>
     </g>
    </g>
    <g id="xtick_2">
     <g id="line2d_3">
      <path clip-path="url(#pbaa803d697)" d="M 133.661222 239.758125 
L 133.661222 22.318125 
" style="fill:none;stroke:#b0b0b0;stroke-linecap:square;stroke-width:0.8;"/>
     </g>
     <g id="line2d_4">
      <g>
       <use style="stroke:#000000;stroke-width:0.8;" x="133.661222" xlink:href="#mb22dcf5331" y="239.758125"/>
      </g>
     </g>
     <g id="text_2">
      <!-- 10 -->
      <g transform="translate(127.298722 254.356563)scale(0.1 -0.1)">
       <defs>
        <path d="M 12.40625 8.296875 
L 28.515625 8.296875 
L 28.515625 63.921875 
L 10.984375 60.40625 
L 10.984375 69.390625 
L 28.421875 72.90625 
L 38.28125 72.90625 
L 38.28125 8.296875 
L 54.390625 8.296875 
L 54.390625 0 
L 12.40625 0 
z
" id="DejaVuSans-49"/>
       </defs>
       <use xlink:href="#DejaVuSans-49"/>
       <use x="63.623047" xlink:href="#DejaVuSans-48"/>
      </g>
     </g>
    </g>
    <g id="xtick_3">
     <g id="line2d_5">
      <path clip-path="url(#pbaa803d697)" d="M 194.533949 239.758125 
L 194.533949 22.318125 
" style="fill:none;stroke:#b0b0b0;stroke-linecap:square;stroke-width:0.8;"/>
     </g>
     <g id="line2d_6">
      <g>
       <use style="stroke:#000000;stroke-width:0.8;" x="194.533949" xlink:href="#mb22dcf5331" y="239.758125"/>
      </g>
     </g>
     <g id="text_3">
      <!-- 20 -->
      <g transform="translate(188.171449 254.356563)scale(0.1 -0.1)">
       <defs>
        <path d="M 19.1875 8.296875 
L 53.609375 8.296875 
L 53.609375 0 
L 7.328125 0 
L 7.328125 8.296875 
Q 12.9375 14.109375 22.625 23.890625 
Q 32.328125 33.6875 34.8125 36.53125 
Q 39.546875 41.84375 41.421875 45.53125 
Q 43.3125 49.21875 43.3125 52.78125 
Q 43.3125 58.59375 39.234375 62.25 
Q 35.15625 65.921875 28.609375 65.921875 
Q 23.96875 65.921875 18.8125 64.3125 
Q 13.671875 62.703125 7.8125 59.421875 
L 7.8125 69.390625 
Q 13.765625 71.78125 18.9375 73 
Q 24.125 74.21875 28.421875 74.21875 
Q 39.75 74.21875 46.484375 68.546875 
Q 53.21875 62.890625 53.21875 53.421875 
Q 53.21875 48.921875 51.53125 44.890625 
Q 49.859375 40.875 45.40625 35.40625 
Q 44.1875 33.984375 37.640625 27.21875 
Q 31.109375 20.453125 19.1875 8.296875 
z
" id="DejaVuSans-50"/>
       </defs>
       <use xlink:href="#DejaVuSans-50"/>
       <use x="63.623047" xlink:href="#DejaVuSans-48"/>
      </g>
     </g>
    </g>
    <g id="xtick_4">
     <g id="line2d_7">
      <path clip-path="url(#pbaa803d697)" d="M 255.406676 239.758125 
L 255.406676 22.318125 
" style="fill:none;stroke:#b0b0b0;stroke-linecap:square;stroke-width:0.8;"/>
     </g>
     <g id="line2d_8">
      <g>
       <use style="stroke:#000000;stroke-width:0.8;" x="255.406676" xlink:href="#mb22dcf5331" y="239.758125"/>
      </g>
     </g>
     <g id="text_4">
      <!-- 30 -->
      <g transform="translate(249.044176 254.356563)scale(0.1 -0.1)">
       <defs>
        <path d="M 40.578125 39.3125 
Q 47.65625 37.796875 51.625 33 
Q 55.609375 28.21875 55.609375 21.1875 
Q 55.609375 10.40625 48.1875 4.484375 
Q 40.765625 -1.421875 27.09375 -1.421875 
Q 22.515625 -1.421875 17.65625 -0.515625 
Q 12.796875 0.390625 7.625 2.203125 
L 7.625 11.71875 
Q 11.71875 9.328125 16.59375 8.109375 
Q 21.484375 6.890625 26.8125 6.890625 
Q 36.078125 6.890625 40.9375 10.546875 
Q 45.796875 14.203125 45.796875 21.1875 
Q 45.796875 27.640625 41.28125 31.265625 
Q 36.765625 34.90625 28.71875 34.90625 
L 20.21875 34.90625 
L 20.21875 43.015625 
L 29.109375 43.015625 
Q 36.375 43.015625 40.234375 45.921875 
Q 44.09375 48.828125 44.09375 54.296875 
Q 44.09375 59.90625 40.109375 62.90625 
Q 36.140625 65.921875 28.71875 65.921875 
Q 24.65625 65.921875 20.015625 65.03125 
Q 15.375 64.15625 9.8125 62.3125 
L 9.8125 71.09375 
Q 15.4375 72.65625 20.34375 73.4375 
Q 25.25 74.21875 29.59375 74.21875 
Q 40.828125 74.21875 47.359375 69.109375 
Q 53.90625 64.015625 53.90625 55.328125 
Q 53.90625 49.265625 50.4375 45.09375 
Q 46.96875 40.921875 40.578125 39.3125 
z
" id="DejaVuSans-51"/>
       </defs>
       <use xlink:href="#DejaVuSans-51"/>
       <use x="63.623047" xlink:href="#DejaVuSans-48"/>
      </g>
     </g>
    </g>
    <g id="xtick_5">
     <g id="line2d_9">
      <path clip-path="url(#pbaa803d697)" d="M 316.279403 239.758125 
L 316.279403 22.318125 
" style="fill:none;stroke:#b0b0b0;stroke-linecap:square;stroke-width:0.8;"/>
     </g>
     <g id="line2d_10">
      <g>
       <use style="stroke:#000000;stroke-width:0.8;" x="316.279403" xlink:href="#mb22dcf5331" y="239.758125"/>
      </g>
     </g>
     <g id="text_5">
      <!-- 40 -->
      <g transform="translate(309.916903 254.356563)scale(0.1 -0.1)">
       <defs>
        <path d="M 37.796875 64.3125 
L 12.890625 25.390625 
L 37.796875 25.390625 
z
M 35.203125 72.90625 
L 47.609375 72.90625 
L 47.609375 25.390625 
L 58.015625 25.390625 
L 58.015625 17.1875 
L 47.609375 17.1875 
L 47.609375 0 
L 37.796875 0 
L 37.796875 17.1875 
L 4.890625 17.1875 
L 4.890625 26.703125 
z
" id="DejaVuSans-52"/>
       </defs>
       <use xlink:href="#DejaVuSans-52"/>
       <use x="63.623047" xlink:href="#DejaVuSans-48"/>
      </g>
     </g>
    </g>
    <g id="xtick_6">
     <g id="line2d_11">
      <path clip-path="url(#pbaa803d697)" d="M 377.152131 239.758125 
L 377.152131 22.318125 
" style="fill:none;stroke:#b0b0b0;stroke-linecap:square;stroke-width:0.8;"/>
     </g>
     <g id="line2d_12">
      <g>
       <use style="stroke:#000000;stroke-width:0.8;" x="377.152131" xlink:href="#mb22dcf5331" y="239.758125"/>
      </g>
     </g>
     <g id="text_6">
      <!-- 50 -->
      <g transform="translate(370.789631 254.356563)scale(0.1 -0.1)">
       <defs>
        <path d="M 10.796875 72.90625 
L 49.515625 72.90625 
L 49.515625 64.59375 
L 19.828125 64.59375 
L 19.828125 46.734375 
Q 21.96875 47.46875 24.109375 47.828125 
Q 26.265625 48.1875 28.421875 48.1875 
Q 40.625 48.1875 47.75 41.5 
Q 54.890625 34.8125 54.890625 23.390625 
Q 54.890625 11.625 47.5625 5.09375 
Q 40.234375 -1.421875 26.90625 -1.421875 
Q 22.3125 -1.421875 17.546875 -0.640625 
Q 12.796875 0.140625 7.71875 1.703125 
L 7.71875 11.625 
Q 12.109375 9.234375 16.796875 8.0625 
Q 21.484375 6.890625 26.703125 6.890625 
Q 35.15625 6.890625 40.078125 11.328125 
Q 45.015625 15.765625 45.015625 23.390625 
Q 45.015625 31 40.078125 35.4375 
Q 35.15625 39.890625 26.703125 39.890625 
Q 22.75 39.890625 18.8125 39.015625 
Q 14.890625 38.140625 10.796875 36.28125 
z
" id="DejaVuSans-53"/>
       </defs>
       <use xlink:href="#DejaVuSans-53"/>
       <use x="63.623047" xlink:href="#DejaVuSans-48"/>
      </g>
     </g>
    </g>
   </g>
   <g id="matplotlib.axis_2">
    <g id="ytick_1">
     <g id="line2d_13">
      <path clip-path="url(#pbaa803d697)" d="M 57.570313 229.874489 
L 392.370313 229.874489 
" style="fill:none;stroke:#b0b0b0;stroke-linecap:square;stroke-width:0.8;"/>
     </g>
     <g id="line2d_14">
      <defs>
       <path d="M 0 0 
L -3.5 0 
" id="md7f001546c" style="stroke:#000000;stroke-width:0.8;"/>
      </defs>
      <g>
       <use style="stroke:#000000;stroke-width:0.8;" x="57.570313" xlink:href="#md7f001546c" y="229.874489"/>
      </g>
     </g>
     <g id="text_7">
      <!-- −0.0100 -->
      <g transform="translate(7.2 233.673707)scale(0.1 -0.1)">
       <defs>
        <path d="M 10.59375 35.5 
L 73.1875 35.5 
L 73.1875 27.203125 
L 10.59375 27.203125 
z
" id="DejaVuSans-8722"/>
        <path d="M 10.6875 12.40625 
L 21 12.40625 
L 21 0 
L 10.6875 0 
z
" id="DejaVuSans-46"/>
       </defs>
       <use xlink:href="#DejaVuSans-8722"/>
       <use x="83.789062" xlink:href="#DejaVuSans-48"/>
       <use x="147.412109" xlink:href="#DejaVuSans-46"/>
       <use x="179.199219" xlink:href="#DejaVuSans-48"/>
       <use x="242.822266" xlink:href="#DejaVuSans-49"/>
       <use x="306.445312" xlink:href="#DejaVuSans-48"/>
       <use x="370.068359" xlink:href="#DejaVuSans-48"/>
      </g>
     </g>
    </g>
    <g id="ytick_2">
     <g id="line2d_15">
      <path clip-path="url(#pbaa803d697)" d="M 57.570313 205.14058 
L 392.370313 205.14058 
" style="fill:none;stroke:#b0b0b0;stroke-linecap:square;stroke-width:0.8;"/>
     </g>
     <g id="line2d_16">
      <g>
       <use style="stroke:#000000;stroke-width:0.8;" x="57.570313" xlink:href="#md7f001546c" y="205.14058"/>
      </g>
     </g>
     <g id="text_8">
      <!-- −0.0075 -->
      <g transform="translate(7.2 208.939798)scale(0.1 -0.1)">
       <defs>
        <path d="M 8.203125 72.90625 
L 55.078125 72.90625 
L 55.078125 68.703125 
L 28.609375 0 
L 18.3125 0 
L 43.21875 64.59375 
L 8.203125 64.59375 
z
" id="DejaVuSans-55"/>
       </defs>
       <use xlink:href="#DejaVuSans-8722"/>
       <use x="83.789062" xlink:href="#DejaVuSans-48"/>
       <use x="147.412109" xlink:href="#DejaVuSans-46"/>
       <use x="179.199219" xlink:href="#DejaVuSans-48"/>
       <use x="242.822266" xlink:href="#DejaVuSans-48"/>
       <use x="306.445312" xlink:href="#DejaVuSans-55"/>
       <use x="370.068359" xlink:href="#DejaVuSans-53"/>
      </g>
     </g>
    </g>
    <g id="ytick_3">
     <g id="line2d_17">
      <path clip-path="url(#pbaa803d697)" d="M 57.570313 180.406671 
L 392.370313 180.406671 
" style="fill:none;stroke:#b0b0b0;stroke-linecap:square;stroke-width:0.8;"/>
     </g>
     <g id="line2d_18">
      <g>
       <use style="stroke:#000000;stroke-width:0.8;" x="57.570313" xlink:href="#md7f001546c" y="180.406671"/>
      </g>
     </g>
     <g id="text_9">
      <!-- −0.0050 -->
      <g transform="translate(7.2 184.205889)scale(0.1 -0.1)">
       <use xlink:href="#DejaVuSans-8722"/>
       <use x="83.789062" xlink:href="#DejaVuSans-48"/>
       <use x="147.412109" xlink:href="#DejaVuSans-46"/>
       <use x="179.199219" xlink:href="#DejaVuSans-48"/>
       <use x="242.822266" xlink:href="#DejaVuSans-48"/>
       <use x="306.445312" xlink:href="#DejaVuSans-53"/>
       <use x="370.068359" xlink:href="#DejaVuSans-48"/>
      </g>
     </g>
    </g>
    <g id="ytick_4">
     <g id="line2d_19">
      <path clip-path="url(#pbaa803d697)" d="M 57.570313 155.672762 
L 392.370313 155.672762 
" style="fill:none;stroke:#b0b0b0;stroke-linecap:square;stroke-width:0.8;"/>
     </g>
     <g id="line2d_20">
      <g>
       <use style="stroke:#000000;stroke-width:0.8;" x="57.570313" xlink:href="#md7f001546c" y="155.672762"/>
      </g>
     </g>
     <g id="text_10">
      <!-- −0.0025 -->
      <g transform="translate(7.2 159.47198)scale(0.1 -0.1)">
       <use xlink:href="#DejaVuSans-8722"/>
       <use x="83.789062" xlink:href="#DejaVuSans-48"/>
       <use x="147.412109" xlink:href="#DejaVuSans-46"/>
       <use x="179.199219" xlink:href="#DejaVuSans-48"/>
       <use x="242.822266" xlink:href="#DejaVuSans-48"/>
       <use x="306.445312" xlink:href="#DejaVuSans-50"/>
       <use x="370.068359" xlink:href="#DejaVuSans-53"/>
      </g>
     </g>
    </g>
    <g id="ytick_5">
     <g id="line2d_21">
      <path clip-path="url(#pbaa803d697)" d="M 57.570313 130.938853 
L 392.370313 130.938853 
" style="fill:none;stroke:#b0b0b0;stroke-linecap:square;stroke-width:0.8;"/>
     </g>
     <g id="line2d_22">
      <g>
       <use style="stroke:#000000;stroke-width:0.8;" x="57.570313" xlink:href="#md7f001546c" y="130.938853"/>
      </g>
     </g>
     <g id="text_11">
      <!-- 0.0000 -->
      <g transform="translate(15.579688 134.738071)scale(0.1 -0.1)">
       <use xlink:href="#DejaVuSans-48"/>
       <use x="63.623047" xlink:href="#DejaVuSans-46"/>
       <use x="95.410156" xlink:href="#DejaVuSans-48"/>
       <use x="159.033203" xlink:href="#DejaVuSans-48"/>
       <use x="222.65625" xlink:href="#DejaVuSans-48"/>
       <use x="286.279297" xlink:href="#DejaVuSans-48"/>
      </g>
     </g>
    </g>
    <g id="ytick_6">
     <g id="line2d_23">
      <path clip-path="url(#pbaa803d697)" d="M 57.570313 106.204944 
L 392.370313 106.204944 
" style="fill:none;stroke:#b0b0b0;stroke-linecap:square;stroke-width:0.8;"/>
     </g>
     <g id="line2d_24">
      <g>
       <use style="stroke:#000000;stroke-width:0.8;" x="57.570313" xlink:href="#md7f001546c" y="106.204944"/>
      </g>
     </g>
     <g id="text_12">
      <!-- 0.0025 -->
      <g transform="translate(15.579688 110.004162)scale(0.1 -0.1)">
       <use xlink:href="#DejaVuSans-48"/>
       <use x="63.623047" xlink:href="#DejaVuSans-46"/>
       <use x="95.410156" xlink:href="#DejaVuSans-48"/>
       <use x="159.033203" xlink:href="#DejaVuSans-48"/>
       <use x="222.65625" xlink:href="#DejaVuSans-50"/>
       <use x="286.279297" xlink:href="#DejaVuSans-53"/>
      </g>
     </g>
    </g>
    <g id="ytick_7">
     <g id="line2d_25">
      <path clip-path="url(#pbaa803d697)" d="M 57.570313 81.471034 
L 392.370313 81.471034 
" style="fill:none;stroke:#b0b0b0;stroke-linecap:square;stroke-width:0.8;"/>
     </g>
     <g id="line2d_26">
      <g>
       <use style="stroke:#000000;stroke-width:0.8;" x="57.570313" xlink:href="#md7f001546c" y="81.471034"/>
      </g>
     </g>
     <g id="text_13">
      <!-- 0.0050 -->
      <g transform="translate(15.579688 85.270253)scale(0.1 -0.1)">
       <use xlink:href="#DejaVuSans-48"/>
       <use x="63.623047" xlink:href="#DejaVuSans-46"/>
       <use x="95.410156" xlink:href="#DejaVuSans-48"/>
       <use x="159.033203" xlink:href="#DejaVuSans-48"/>
       <use x="222.65625" xlink:href="#DejaVuSans-53"/>
       <use x="286.279297" xlink:href="#DejaVuSans-48"/>
      </g>
     </g>
    </g>
    <g id="ytick_8">
     <g id="line2d_27">
      <path clip-path="url(#pbaa803d697)" d="M 57.570313 56.737125 
L 392.370313 56.737125 
" style="fill:none;stroke:#b0b0b0;stroke-linecap:square;stroke-width:0.8;"/>
     </g>
     <g id="line2d_28">
      <g>
       <use style="stroke:#000000;stroke-width:0.8;" x="57.570313" xlink:href="#md7f001546c" y="56.737125"/>
      </g>
     </g>
     <g id="text_14">
      <!-- 0.0075 -->
      <g transform="translate(15.579688 60.536344)scale(0.1 -0.1)">
       <use xlink:href="#DejaVuSans-48"/>
       <use x="63.623047" xlink:href="#DejaVuSans-46"/>
       <use x="95.410156" xlink:href="#DejaVuSans-48"/>
       <use x="159.033203" xlink:href="#DejaVuSans-48"/>
       <use x="222.65625" xlink:href="#DejaVuSans-55"/>
       <use x="286.279297" xlink:href="#DejaVuSans-53"/>
      </g>
     </g>
    </g>
    <g id="ytick_9">
     <g id="line2d_29">
      <path clip-path="url(#pbaa803d697)" d="M 57.570313 32.003216 
L 392.370313 32.003216 
" style="fill:none;stroke:#b0b0b0;stroke-linecap:square;stroke-width:0.8;"/>
     </g>
     <g id="line2d_30">
      <g>
       <use style="stroke:#000000;stroke-width:0.8;" x="57.570313" xlink:href="#md7f001546c" y="32.003216"/>
      </g>
     </g>
     <g id="text_15">
      <!-- 0.0100 -->
      <g transform="translate(15.579688 35.802435)scale(0.1 -0.1)">
       <use xlink:href="#DejaVuSans-48"/>
       <use x="63.623047" xlink:href="#DejaVuSans-46"/>
       <use x="95.410156" xlink:href="#DejaVuSans-48"/>
       <use x="159.033203" xlink:href="#DejaVuSans-49"/>
       <use x="222.65625" xlink:href="#DejaVuSans-48"/>
       <use x="286.279297" xlink:href="#DejaVuSans-48"/>
      </g>
     </g>
    </g>
   </g>
   <g id="line2d_31">
    <path clip-path="url(#pbaa803d697)" d="M 72.788494 229.874489 
L 73.093163 229.255729 
L 73.397831 227.409082 
L 73.702499 224.36335 
L 74.311836 214.882719 
L 74.921172 201.400909 
L 75.835177 175.542159 
L 78.577192 91.763819 
L 79.186529 78.67588 
L 79.795865 69.267484 
L 80.405202 63.858286 
L 80.70987 62.675721 
L 81.014539 62.48444 
L 81.319207 63.245733 
L 81.623875 64.905096 
L 82.233212 70.628969 
L 82.842548 78.958786 
L 84.061222 99.979998 
L 85.279895 120.708596 
L 86.1939 132.212148 
L 86.803236 136.951061 
L 87.107905 138.345241 
L 87.412573 139.082568 
L 87.717241 139.177529 
L 88.02191 138.659725 
L 88.326578 137.573119 
L 88.935914 133.934672 
L 89.849919 125.999834 
L 91.068593 114.816355 
L 91.677929 110.76906 
L 91.982598 109.450578 
L 92.287266 108.701984 
L 92.591934 108.583872 
L 92.896602 109.143666 
L 93.201271 110.414455 
L 93.810607 115.144636 
L 94.419944 122.726009 
L 95.333949 138.714887 
L 96.85729 172.148299 
L 98.075964 196.806105 
L 98.6853 205.764041 
L 99.294637 211.35402 
L 99.599305 212.685812 
L 99.903973 212.964652 
L 100.208642 212.153046 
L 100.51331 210.231131 
L 101.122647 203.068455 
L 101.731983 191.685118 
L 102.645988 167.849929 
L 103.864661 127.943699 
L 105.388003 77.487614 
L 106.302008 53.786579 
L 106.911344 42.708317 
L 107.520681 36.138888 
L 107.825349 34.653745 
L 108.130018 34.388635 
L 108.434686 35.334799 
L 108.739354 37.464509 
L 109.348691 45.072647 
L 109.958027 56.641918 
L 110.872032 79.610603 
L 113.614047 155.890768 
L 114.223384 167.911113 
L 114.83272 176.602709 
L 115.442057 181.700446 
L 115.746725 182.89356 
L 116.051394 183.212201 
L 116.356062 182.698313 
L 116.66073 181.408528 
L 117.270067 176.792873 
L 117.879403 170.05474 
L 120.621418 135.839434 
L 121.230755 131.8933 
L 121.535423 130.804281 
L 121.840091 130.333268 
L 122.14476 130.482511 
L 122.449428 131.238823 
L 122.754096 132.573872 
L 123.363433 136.795231 
L 124.277438 145.981641 
L 125.800779 162.753575 
L 126.410116 167.571612 
L 126.714784 169.186601 
L 127.019453 170.164333 
L 127.324121 170.437744 
L 127.628789 169.952798 
L 127.933457 168.669788 
L 128.238126 166.564392 
L 128.847462 159.870322 
L 129.456799 150.004801 
L 130.370804 130.193862 
L 133.417487 54.694977 
L 134.026824 45.373661 
L 134.63616 40.032914 
L 134.940828 39.023653 
L 135.245497 39.178047 
L 135.550165 40.515585 
L 135.854833 43.036933 
L 136.46417 51.538892 
L 137.073507 64.314525 
L 137.987512 90.009139 
L 139.815521 152.488081 
L 141.034195 189.778642 
L 141.643531 203.898956 
L 142.252868 213.970414 
L 142.862204 219.541767 
L 143.166873 220.578869 
L 143.471541 220.455322 
L 143.776209 219.198161 
L 144.080878 216.852254 
L 144.690214 209.156833 
L 145.299551 198.040863 
L 146.213556 176.886706 
L 148.346234 124.452023 
L 149.260239 108.212426 
L 149.869575 101.045418 
L 150.478912 97.06552 
L 150.78358 96.258306 
L 151.088249 96.201061 
L 151.392917 96.846312 
L 151.697585 98.133081 
L 152.306922 102.328717 
L 153.220927 111.311259 
L 154.744268 126.677327 
L 155.353605 130.718627 
L 155.658273 131.982807 
L 155.962941 132.675076 
L 156.26761 132.762212 
L 156.572278 132.225923 
L 156.876946 131.063302 
L 157.486283 126.924849 
L 158.09562 120.628561 
L 159.009625 108.293042 
L 160.837634 82.769211 
L 161.446971 77.176216 
L 161.751639 75.376984 
L 162.056308 74.34871 
L 162.360976 74.155455 
L 162.665644 74.847034 
L 162.970312 76.457792 
L 163.274981 79.005661 
L 163.884317 86.898931 
L 164.493654 98.325864 
L 165.407659 120.993677 
L 168.75901 213.623181 
L 169.368347 222.987254 
L 169.673015 226.042687 
L 169.977684 227.932111 
L 170.282352 228.61656 
L 170.58702 228.075827 
L 170.891688 226.308885 
L 171.196357 223.333993 
L 171.805693 213.927824 
L 172.41503 200.37098 
L 173.329035 174.001337 
L 176.375718 78.072179 
L 176.985055 65.497488 
L 177.594391 56.941915 
L 177.899059 54.272474 
L 178.203728 52.69285 
L 178.508396 52.193379 
L 178.813064 52.746558 
L 179.117733 54.307802 
L 179.727069 60.197268 
L 180.336406 69.210077 
L 181.250411 86.734867 
L 183.383089 129.614209 
L 183.992426 138.500595 
L 184.601762 144.808285 
L 185.211099 148.3134 
L 185.515767 149.014459 
L 185.820435 149.045519 
L 186.125104 148.448326 
L 186.429772 147.278211 
L 187.039109 143.500367 
L 187.953113 135.537222 
L 189.171787 124.777933 
L 189.781123 121.098137 
L 190.085792 119.977782 
L 190.39046 119.423426 
L 190.695128 119.484052 
L 190.999797 120.194616 
L 191.304465 121.575157 
L 191.913801 126.348555 
L 192.523138 133.651816 
L 193.437143 148.423252 
L 195.874489 192.12804 
L 196.483826 199.126431 
L 196.788494 201.453035 
L 197.093163 202.891026 
L 197.397831 203.377266 
L 197.702499 202.86398 
L 198.007168 201.31989 
L 198.311836 198.731066 
L 198.921172 190.453057 
L 199.530509 178.277347 
L 200.444514 153.922568 
L 202.272524 94.532057 
L 203.491197 59.137019 
L 204.100534 45.963672 
L 204.70987 36.923161 
L 205.014539 34.13073 
L 205.319207 32.549851 
L 205.623875 32.201761 
L 205.928543 33.088411 
L 206.233212 35.19245 
L 206.842548 42.889159 
L 207.451885 54.787879 
L 208.36589 78.798822 
L 211.412573 169.139381 
L 212.02191 181.321326 
L 212.631246 189.831263 
L 213.240583 194.419626 
L 213.545251 195.242237 
L 213.849919 195.117821 
L 214.154588 194.092275 
L 214.459256 192.226507 
L 215.068593 186.284328 
L 215.982598 173.280807 
L 218.115276 139.30342 
L 218.724612 132.363523 
L 219.333949 127.722431 
L 219.638617 126.347563 
L 219.943285 125.617035 
L 220.247954 125.521788 
L 220.552622 126.037492 
L 220.85729 127.125169 
L 221.466627 130.793059 
L 222.380632 138.891128 
L 223.903973 152.978556 
L 224.51331 156.491265 
L 224.817978 157.437875 
L 225.122647 157.75309 
L 225.427315 157.383708 
L 225.731983 156.290505 
L 226.036652 154.449258 
L 226.645988 148.504859 
L 227.255325 139.67698 
L 228.16933 121.927037 
L 231.216013 56.335145 
L 231.825349 49.197091 
L 232.130018 47.061067 
L 232.434686 45.970509 
L 232.739354 45.972967 
L 233.044023 47.098625 
L 233.348691 49.359543 
L 233.958027 57.242505 
L 234.567364 69.347665 
L 235.481369 94.132834 
L 237.004711 145.407217 
L 238.223384 185.133723 
L 239.137389 208.244338 
L 239.746725 218.791629 
L 240.356062 224.784373 
L 240.66073 225.983165 
L 240.965398 225.973674 
L 241.270067 224.772334 
L 241.574735 222.414238 
L 242.184072 214.456705 
L 242.793408 202.719339 
L 243.707413 179.907077 
L 246.14476 113.503198 
L 247.058765 95.951436 
L 247.668101 88.298319 
L 248.277438 84.14576 
L 248.582106 83.368049 
L 248.886774 83.415775 
L 249.191443 84.239657 
L 249.496111 85.776584 
L 250.105448 90.677036 
L 251.019453 101.183657 
L 252.542794 120.102924 
L 253.152131 125.829694 
L 253.761467 129.57288 
L 254.066136 130.580599 
L 254.370804 130.97719 
L 254.675472 130.755293 
L 254.980141 129.923017 
L 255.284809 128.503766 
L 255.894145 124.071169 
L 256.80815 114.406146 
L 258.63616 93.309343 
L 259.245497 88.787845 
L 259.550165 87.42964 
L 259.854833 86.774297 
L 260.159502 86.882514 
L 260.46417 87.80107 
L 260.768838 89.56165 
L 261.378175 95.655002 
L 261.987512 105.087442 
L 262.901516 124.679214 
L 264.12019 157.298129 
L 265.643531 197.563064 
L 266.557536 215.134331 
L 267.166873 222.218346 
L 267.471541 224.129204 
L 267.776209 224.882208 
L 268.080878 224.446825 
L 268.385546 222.811225 
L 268.690214 219.982624 
L 269.299551 210.870244 
L 269.908887 197.540426 
L 270.822892 171.236818 
L 274.174244 65.112942 
L 274.78358 53.596965 
L 275.392917 46.407131 
L 275.697585 44.521872 
L 276.002254 43.785716 
L 276.306922 44.182369 
L 276.61159 45.67743 
L 276.916258 48.219205 
L 277.525595 56.156643 
L 278.134932 67.284565 
L 279.353605 95.447108 
L 280.876946 131.299778 
L 281.790951 147.712286 
L 282.400288 155.227987 
L 283.009625 159.682545 
L 283.314293 160.757104 
L 283.618961 161.092659 
L 283.923629 160.73025 
L 284.228298 159.724833 
L 284.837634 156.066176 
L 285.751639 147.763762 
L 287.274981 133.08094 
L 287.884317 129.175903 
L 288.188986 127.96266 
L 288.493654 127.315731 
L 288.798322 127.273232 
L 289.102991 127.858581 
L 289.407659 129.07992 
L 290.016996 133.385433 
L 290.626332 139.94687 
L 291.540337 152.931144 
L 293.368347 180.792367 
L 293.977684 187.424221 
L 294.58702 191.35748 
L 294.891688 192.111308 
L 295.196357 191.974987 
L 295.501025 190.905825 
L 295.805693 188.877302 
L 296.41503 181.921365 
L 297.024367 171.240536 
L 297.938371 149.201622 
L 299.157045 112.626657 
L 300.680386 67.054166 
L 301.594391 46.417427 
L 302.203728 37.410712 
L 302.508396 34.58245 
L 302.813064 32.943508 
L 303.117733 32.525506 
L 303.422401 33.34102 
L 303.727069 35.383329 
L 304.336406 43.025686 
L 304.945742 55.023811 
L 305.859747 79.596847 
L 307.687757 139.719476 
L 308.90643 175.563453 
L 309.515767 189.174228 
L 310.125104 198.990679 
L 310.73444 204.650141 
L 311.039109 205.886172 
L 311.343777 206.077266 
L 311.648445 205.258395 
L 311.953113 203.480972 
L 312.56245 197.330955 
L 313.171787 188.315709 
L 314.39046 165.183906 
L 315.913801 136.423092 
L 316.523138 127.650852 
L 317.132475 121.307521 
L 317.741811 117.661687 
L 318.04648 116.865656 
L 318.351148 116.73103 
L 318.655816 117.22165 
L 318.960484 118.287378 
L 319.569821 121.881178 
L 320.483826 129.680595 
L 321.702499 140.48754 
L 322.311836 144.286553 
L 322.616504 145.479633 
L 322.921172 146.109553 
L 323.225841 146.122251 
L 323.530509 145.477337 
L 323.835177 144.149075 
L 324.444514 139.416952 
L 325.053851 132.033083 
L 325.967855 116.826343 
L 328.70987 65.20178 
L 329.319207 58.375112 
L 329.623875 56.22783 
L 329.928543 55.024678 
L 330.233212 54.82255 
L 330.53788 55.66221 
L 330.842548 57.567301 
L 331.451885 64.578882 
L 332.061222 75.685752 
L 332.975227 98.955443 
L 334.1939 138.008143 
L 335.717241 187.492894 
L 336.631246 210.696149 
L 337.240583 221.457003 
L 337.849919 227.697021 
L 338.154588 229.00551 
L 338.459256 229.081904 
L 338.763924 227.931991 
L 339.068593 225.580693 
L 339.677929 217.466205 
L 340.287266 205.294436 
L 341.201271 181.229638 
L 343.943285 100.771154 
L 344.85729 82.688709 
L 345.466627 75.103746 
L 345.771295 72.745215 
L 346.075964 71.343304 
L 346.380632 70.877031 
L 346.6853 71.309009 
L 346.989969 72.586425 
L 347.599305 77.397128 
L 348.208642 84.632669 
L 349.427315 103.031673 
L 350.645988 120.786439 
L 351.255325 127.472158 
L 351.864661 131.965749 
L 352.16933 133.294675 
L 352.473998 133.990805 
L 352.778666 134.05789 
L 353.083335 133.515057 
L 353.388003 132.396323 
L 353.99734 128.636683 
L 354.911344 120.274932 
L 356.434686 105.320789 
L 357.044023 101.340378 
L 357.348691 100.148187 
L 357.653359 99.58647 
L 357.958027 99.714299 
L 358.262696 100.577178 
L 358.567364 102.205887 
L 359.176701 107.805352 
L 359.786037 116.438948 
L 360.700042 134.282819 
L 362.223384 171.255653 
L 363.442057 198.815245 
L 364.051394 209.147822 
L 364.66073 216.017391 
L 364.965398 217.944017 
L 365.270067 218.783172 
L 365.574735 218.494266 
L 365.879403 217.054615 
L 366.184072 214.460046 
L 366.793408 205.883308 
L 367.402745 193.102868 
L 368.31675 167.469386 
L 370.14476 105.116219 
L 371.363433 67.869349 
L 371.97277 53.796658 
L 372.582106 43.823081 
L 373.191443 38.42885 
L 373.496111 37.519096 
L 373.800779 37.800366 
L 374.105448 39.248653 
L 374.410116 41.821689 
L 375.019453 50.087271 
L 375.628789 61.93487 
L 376.542794 84.482318 
L 377.152131 101.195962 
L 377.152131 101.195962 
" style="fill:none;stroke:#000000;stroke-linecap:square;stroke-width:1.5;"/>
   </g>
   <g id="line2d_32">
    <path clip-path="url(#pbaa803d697)" d="M 72.788494 130.938853 
L 73.093163 130.62972 
L 73.397831 129.710027 
L 74.007168 126.145921 
L 74.616504 120.604163 
L 75.530509 109.861751 
L 77.053851 91.973123 
L 77.663187 87.267418 
L 77.967855 85.822687 
L 78.272524 85.086014 
L 78.577192 85.119287 
L 78.88186 85.970522 
L 79.186529 87.672652 
L 79.795865 93.680661 
L 80.405202 103.077591 
L 81.319207 122.726783 
L 82.53788 155.653785 
L 84.061222 196.668122 
L 84.975227 214.840123 
L 85.584563 222.360835 
L 85.889231 224.494803 
L 86.1939 225.471147 
L 86.498568 225.257054 
L 86.803236 223.838401 
L 87.107905 221.220122 
L 87.717241 212.499649 
L 88.326578 199.509585 
L 89.240583 173.586615 
L 92.591934 67.209593 
L 93.201271 55.392867 
L 93.810607 47.851158 
L 94.115276 45.775775 
L 94.419944 44.842834 
L 94.724612 45.038168 
L 95.029281 46.329493 
L 95.333949 48.667195 
L 95.943285 56.203413 
L 96.552622 66.951505 
L 97.771295 94.466117 
L 99.294637 129.791407 
L 100.208642 146.048099 
L 100.817978 153.520385 
L 101.427315 157.972854 
L 101.731983 159.059649 
L 102.036652 159.41506 
L 102.34132 159.079203 
L 102.645988 158.106143 
L 103.255325 154.526312 
L 104.16933 146.367051 
L 105.692671 131.961723 
L 106.302008 128.179376 
L 106.606676 127.030762 
L 106.911344 126.45114 
L 107.216013 126.479046 
L 107.520681 127.138347 
L 107.825349 128.437636 
L 108.434686 132.91275 
L 109.044023 139.664429 
L 109.958027 152.976185 
L 111.786037 181.624614 
L 112.395374 188.538689 
L 113.004711 192.749225 
L 113.309379 193.636277 
L 113.614047 193.627521 
L 113.918715 192.678678 
L 114.223384 190.761623 
L 114.83272 183.995762 
L 115.442057 173.451234 
L 116.356062 151.4934 
L 117.574735 114.760642 
L 119.098077 68.554866 
L 120.012082 47.343896 
L 120.621418 37.899702 
L 120.926086 34.842477 
L 121.230755 32.970771 
L 121.535423 32.318553 
L 121.840091 32.900788 
L 122.14476 34.713134 
L 122.449428 37.731994 
L 123.058765 47.201112 
L 123.668101 60.756566 
L 124.582106 86.940552 
L 127.324121 173.226457 
L 128.238126 192.533746 
L 128.847462 200.561767 
L 129.152131 203.008366 
L 129.456799 204.40114 
L 129.761467 204.755842 
L 130.066136 204.105584 
L 130.370804 202.499951 
L 130.980141 196.696015 
L 131.589477 188.019422 
L 132.503482 171.481828 
L 134.331492 137.318018 
L 134.940828 128.712155 
L 135.550165 122.500572 
L 136.159502 118.955785 
L 136.46417 118.20024 
L 136.768838 118.100243 
L 137.073507 118.620249 
L 137.378175 119.710704 
L 137.987512 123.342094 
L 138.901516 131.174123 
L 140.12019 141.986453 
L 140.729526 145.769271 
L 141.034195 146.948142 
L 141.338863 147.559042 
L 141.643531 147.54729 
L 141.948199 146.871826 
L 142.252868 145.506251 
L 142.862204 140.676562 
L 143.471541 133.160534 
L 144.385546 117.682837 
L 147.127561 64.742724 
L 147.736897 57.559394 
L 148.041566 55.233109 
L 148.346234 53.852856 
L 148.650902 53.477388 
L 148.95557 54.149372 
L 149.260239 55.894368 
L 149.564907 58.720105 
L 150.174244 67.55351 
L 150.78358 80.347961 
L 151.697585 105.63427 
L 155.048937 209.197341 
L 155.658273 220.363144 
L 156.26761 227.046176 
L 156.572278 228.58482 
L 156.876946 228.893998 
L 157.181615 227.97711 
L 157.486283 225.856724 
L 158.09562 218.188532 
L 158.704956 206.428009 
L 159.618961 182.881734 
L 162.665644 96.128851 
L 163.274981 84.79306 
L 163.884317 77.047238 
L 164.188986 74.590805 
L 164.493654 73.081349 
L 164.798322 72.499433 
L 165.102991 72.809198 
L 165.407659 73.959353 
L 166.016996 78.506145 
L 166.626332 85.47406 
L 167.845005 103.360692 
L 169.063679 120.668276 
L 169.673015 127.159433 
L 170.282352 131.476428 
L 170.58702 132.722982 
L 170.891688 133.340165 
L 171.196357 133.331311 
L 171.501025 132.715109 
L 171.805693 131.525178 
L 172.41503 127.628256 
L 173.329035 119.069933 
L 174.852376 103.815665 
L 175.461713 99.733512 
L 175.766381 98.497031 
L 176.07105 97.896575 
L 176.375718 97.992152 
L 176.680386 98.830239 
L 176.985055 100.442597 
L 177.594391 106.038609 
L 178.203728 114.713818 
L 179.117733 132.717634 
L 180.641074 170.239545 
L 181.859747 198.471031 
L 182.469084 209.195166 
L 183.078421 216.476368 
L 183.383089 218.61155 
L 183.687757 219.65834 
L 183.992426 219.574011 
L 184.297094 218.333715 
L 184.601762 215.931116 
L 185.211099 207.70773 
L 185.820435 195.226619 
L 186.73444 169.910837 
L 188.257782 118.125021 
L 189.476455 78.447222 
L 190.39046 55.581827 
L 190.999797 45.238465 
L 191.609133 39.433254 
L 191.913801 38.308025 
L 192.21847 38.370174 
L 192.523138 39.59796 
L 192.827806 41.951348 
L 193.437143 49.788775 
L 194.04648 61.236321 
L 194.960484 83.265957 
L 197.397831 145.886785 
L 198.311836 161.789646 
L 198.921172 168.439024 
L 199.225841 170.505862 
L 199.530509 171.741004 
L 199.835177 172.169927 
L 200.139846 171.833482 
L 200.444514 170.786831 
L 201.053851 166.846805 
L 201.663187 161.020531 
L 204.100534 135.055538 
L 204.70987 131.682267 
L 205.014539 130.841738 
L 205.319207 130.607424 
L 205.623875 130.992132 
L 205.928543 131.993225 
L 206.53788 135.757227 
L 207.147217 141.577962 
L 208.061222 152.94571 
L 209.584563 172.496679 
L 210.1939 178.044781 
L 210.498568 179.931957 
L 210.803236 181.117227 
L 211.107905 181.531913 
L 211.412573 181.120724 
L 211.717241 179.843091 
L 212.02191 177.674228 
L 212.631246 170.646892 
L 213.240583 160.177552 
L 214.154588 138.980628 
L 215.677929 95.497132 
L 216.896602 62.596338 
L 217.505939 49.730106 
L 218.115276 40.485607 
L 218.419944 37.443239 
L 218.724612 35.541436 
L 219.029281 34.824028 
L 219.333949 35.316411 
L 219.638617 37.025006 
L 219.943285 39.937033 
L 220.552622 49.22532 
L 221.161959 62.707907 
L 222.075964 89.118747 
L 225.122647 186.813791 
L 225.731983 199.893564 
L 226.34132 208.906917 
L 226.645988 211.771352 
L 226.950656 213.514897 
L 227.255325 214.141188 
L 227.559993 213.672117 
L 227.864661 212.14721 
L 228.16933 209.622692 
L 228.778666 201.875589 
L 229.692671 184.966598 
L 232.739354 121.276242 
L 233.348691 113.607785 
L 233.958027 108.829648 
L 234.262696 107.54767 
L 234.567364 106.984143 
L 234.872032 107.105169 
L 235.176701 107.862538 
L 235.481369 109.19492 
L 236.090706 113.282685 
L 237.004711 121.616689 
L 238.223384 132.631736 
L 238.83272 136.358146 
L 239.137389 137.493427 
L 239.442057 138.063601 
L 239.746725 138.025195 
L 240.051394 137.349118 
L 240.356062 136.021401 
L 240.965398 131.433044 
L 241.574735 124.459261 
L 242.48874 110.537278 
L 244.621418 75.208799 
L 245.230755 68.395517 
L 245.840091 64.556157 
L 246.14476 63.944027 
L 246.449428 64.278879 
L 246.754096 65.597702 
L 247.058765 67.920703 
L 247.668101 75.572443 
L 248.277438 87.042861 
L 249.191443 110.313618 
L 250.714784 158.241714 
L 251.933457 195.061282 
L 252.847462 215.968366 
L 253.456799 225.014236 
L 253.761467 227.831368 
L 254.066136 229.445036 
L 254.370804 229.828757 
L 254.675472 228.975254 
L 254.980141 226.896589 
L 255.589477 219.207191 
L 256.198814 207.227943 
L 257.112819 182.872693 
L 260.46417 82.546373 
L 261.073507 71.419472 
L 261.682843 64.221795 
L 261.987512 62.159237 
L 262.29218 61.118577 
L 262.596848 61.076139 
L 262.901516 61.99147 
L 263.206185 63.808362 
L 263.815521 69.851239 
L 264.424858 78.495439 
L 265.643531 100.093206 
L 266.862204 121.289436 
L 267.776209 133.063328 
L 268.385546 137.947173 
L 268.690214 139.404515 
L 268.994883 140.199486 
L 269.299551 140.347113 
L 269.604219 139.877529 
L 269.908887 138.835198 
L 270.518224 135.275253 
L 271.432229 127.437835 
L 272.650902 116.349647 
L 273.260239 112.331316 
L 273.564907 111.020994 
L 273.869575 110.275497 
L 274.174244 110.154694 
L 274.478912 110.705252 
L 274.78358 111.959479 
L 275.392917 116.631471 
L 276.002254 124.116426 
L 276.916258 139.878924 
L 278.4396 172.703301 
L 279.658273 196.692334 
L 280.26761 205.277604 
L 280.876946 210.485943 
L 281.181615 211.628124 
L 281.486283 211.720749 
L 281.790951 210.728319 
L 282.09562 208.633001 
L 282.704956 201.153735 
L 283.314293 189.50668 
L 284.228298 165.403976 
L 285.446971 125.429062 
L 286.970313 75.381207 
L 287.884317 52.159128 
L 288.493654 41.473545 
L 289.102991 35.336852 
L 289.407659 34.077519 
L 289.712327 34.041411 
L 290.016996 35.217423 
L 290.321664 37.575496 
L 290.931 45.626866 
L 291.540337 57.607304 
L 292.454342 81.100745 
L 295.196357 158.038315 
L 295.805693 170.012181 
L 296.41503 178.59938 
L 297.024367 183.544731 
L 297.329035 184.647068 
L 297.633703 184.867091 
L 297.938371 184.248146 
L 298.24304 182.84824 
L 298.852376 178.002334 
L 299.766381 166.997732 
L 301.899059 138.716583 
L 302.508396 133.494803 
L 303.117733 130.539264 
L 303.422401 129.982868 
L 303.727069 130.048362 
L 304.031738 130.722164 
L 304.336406 131.975574 
L 304.945742 136.035 
L 305.859747 144.978938 
L 307.383089 161.353133 
L 307.992426 166.024211 
L 308.297094 167.571277 
L 308.601762 168.486061 
L 308.90643 168.702548 
L 309.211099 168.167781 
L 309.515767 166.843167 
L 309.820435 164.705496 
L 310.429772 157.979218 
L 311.039109 148.131272 
L 311.953113 128.454121 
L 314.999797 54.366863 
L 315.609133 45.461534 
L 316.21847 40.552226 
L 316.523138 39.759238 
L 316.827806 40.127338 
L 317.132475 41.673781 
L 317.437143 44.397005 
L 318.04648 53.272947 
L 318.655816 66.369301 
L 319.569821 92.414415 
L 322.921172 199.337475 
L 323.530509 211.184325 
L 324.139846 218.670646 
L 324.444514 220.676342 
L 324.749182 221.506555 
L 325.053851 221.172006 
L 325.358519 219.701923 
L 325.663187 217.143341 
L 326.272524 209.031597 
L 326.88186 197.52408 
L 327.795865 175.857314 
L 329.928543 122.708222 
L 330.842548 106.381284 
L 331.451885 99.219449 
L 332.061222 95.286963 
L 332.36589 94.516729 
L 332.670558 94.503909 
L 332.975227 95.199991 
L 333.279895 96.542998 
L 333.889231 100.863655 
L 334.803236 110.053501 
L 336.326578 125.786236 
L 336.935914 129.97855 
L 337.240583 131.319768 
L 337.545251 132.090529 
L 337.849919 132.257988 
L 338.154588 131.804259 
L 338.459256 130.726842 
L 339.068593 126.768264 
L 339.677929 120.666504 
L 340.591934 108.65285 
L 342.115276 87.341488 
L 342.724612 80.883916 
L 343.333949 76.835599 
L 343.638617 75.923784 
L 343.943285 75.841333 
L 344.247954 76.636611 
L 344.552622 78.342491 
L 345.161959 84.534888 
L 345.771295 94.344595 
L 346.6853 115.009354 
L 347.903973 149.919472 
L 349.427315 194.115943 
L 350.34132 214.383784 
L 350.950656 223.310999 
L 351.255325 226.138812 
L 351.559993 227.797463 
L 351.864661 228.250307 
L 352.16933 227.479496 
L 352.473998 225.486362 
L 353.083335 217.934423 
L 353.692671 205.982688 
L 354.606676 181.323799 
L 356.130018 130.576274 
L 357.348691 91.682888 
L 358.262696 69.166565 
L 358.872032 58.810899 
L 359.481369 52.703944 
L 359.786037 51.294864 
L 360.090706 50.972642 
L 360.395374 51.707811 
L 360.700042 53.453836 
L 361.309379 59.713752 
L 361.918715 69.086615 
L 362.83272 87.106155 
L 364.965398 130.802853 
L 365.574735 139.82596 
L 366.184072 146.231134 
L 366.793408 149.799366 
L 367.098077 150.520845 
L 367.402745 150.565871 
L 367.707413 149.976899 
L 368.012082 148.809935 
L 368.621418 145.025631 
L 369.535423 137.027904 
L 370.754096 126.185338 
L 371.363433 122.446666 
L 371.668101 121.29145 
L 371.97277 120.697982 
L 372.277438 120.714712 
L 372.582106 121.376026 
L 372.886774 122.701385 
L 373.496111 127.344378 
L 374.105448 134.487201 
L 375.019453 148.955724 
L 377.152131 187.195116 
L 377.152131 187.195116 
" style="fill:none;stroke:#0000ff;stroke-linecap:square;stroke-width:1.5;"/>
   </g>
   <g id="patch_3">
    <path d="M 57.570313 239.758125 
L 57.570313 22.318125 
" style="fill:none;stroke:#000000;stroke-linecap:square;stroke-linejoin:miter;stroke-width:0.8;"/>
   </g>
   <g id="patch_4">
    <path d="M 392.370313 239.758125 
L 392.370313 22.318125 
" style="fill:none;stroke:#000000;stroke-linecap:square;stroke-linejoin:miter;stroke-width:0.8;"/>
   </g>
   <g id="patch_5">
    <path d="M 57.570312 239.758125 
L 392.370312 239.758125 
" style="fill:none;stroke:#000000;stroke-linecap:square;stroke-linejoin:miter;stroke-width:0.8;"/>
   </g>
   <g id="patch_6">
    <path d="M 57.570312 22.318125 
L 392.370312 22.318125 
" style="fill:none;stroke:#000000;stroke-linecap:square;stroke-linejoin:miter;stroke-width:0.8;"/>
   </g>
   <g id="text_16">
    <!-- Unknown mode -->
    <g transform="translate(178.195625 16.318125)scale(0.12 -0.12)">
     <defs>
      <path d="M 8.6875 72.90625 
L 18.609375 72.90625 
L 18.609375 28.609375 
Q 18.609375 16.890625 22.84375 11.734375 
Q 27.09375 6.59375 36.625 6.59375 
Q 46.09375 6.59375 50.34375 11.734375 
Q 54.59375 16.890625 54.59375 28.609375 
L 54.59375 72.90625 
L 64.5 72.90625 
L 64.5 27.390625 
Q 64.5 13.140625 57.4375 5.859375 
Q 50.390625 -1.421875 36.625 -1.421875 
Q 22.796875 -1.421875 15.734375 5.859375 
Q 8.6875 13.140625 8.6875 27.390625 
z
" id="DejaVuSans-85"/>
      <path d="M 54.890625 33.015625 
L 54.890625 0 
L 45.90625 0 
L 45.90625 32.71875 
Q 45.90625 40.484375 42.875 44.328125 
Q 39.84375 48.1875 33.796875 48.1875 
Q 26.515625 48.1875 22.3125 43.546875 
Q 18.109375 38.921875 18.109375 30.90625 
L 18.109375 0 
L 9.078125 0 
L 9.078125 54.6875 
L 18.109375 54.6875 
L 18.109375 46.1875 
Q 21.34375 51.125 25.703125 53.5625 
Q 30.078125 56 35.796875 56 
Q 45.21875 56 50.046875 50.171875 
Q 54.890625 44.34375 54.890625 33.015625 
z
" id="DejaVuSans-110"/>
      <path d="M 9.078125 75.984375 
L 18.109375 75.984375 
L 18.109375 31.109375 
L 44.921875 54.6875 
L 56.390625 54.6875 
L 27.390625 29.109375 
L 57.625 0 
L 45.90625 0 
L 18.109375 26.703125 
L 18.109375 0 
L 9.078125 0 
z
" id="DejaVuSans-107"/>
      <path d="M 30.609375 48.390625 
Q 23.390625 48.390625 19.1875 42.75 
Q 14.984375 37.109375 14.984375 27.296875 
Q 14.984375 17.484375 19.15625 11.84375 
Q 23.34375 6.203125 30.609375 6.203125 
Q 37.796875 6.203125 41.984375 11.859375 
Q 46.1875 17.53125 46.1875 27.296875 
Q 46.1875 37.015625 41.984375 42.703125 
Q 37.796875 48.390625 30.609375 48.390625 
z
M 30.609375 56 
Q 42.328125 56 49.015625 48.375 
Q 55.71875 40.765625 55.71875 27.296875 
Q 55.71875 13.875 49.015625 6.21875 
Q 42.328125 -1.421875 30.609375 -1.421875 
Q 18.84375 -1.421875 12.171875 6.21875 
Q 5.515625 13.875 5.515625 27.296875 
Q 5.515625 40.765625 12.171875 48.375 
Q 18.84375 56 30.609375 56 
z
" id="DejaVuSans-111"/>
      <path d="M 4.203125 54.6875 
L 13.1875 54.6875 
L 24.421875 12.015625 
L 35.59375 54.6875 
L 46.1875 54.6875 
L 57.421875 12.015625 
L 68.609375 54.6875 
L 77.59375 54.6875 
L 63.28125 0 
L 52.6875 0 
L 40.921875 44.828125 
L 29.109375 0 
L 18.5 0 
z
" id="DejaVuSans-119"/>
      <path id="DejaVuSans-32"/>
      <path d="M 52 44.1875 
Q 55.375 50.25 60.0625 53.125 
Q 64.75 56 71.09375 56 
Q 79.640625 56 84.28125 50.015625 
Q 88.921875 44.046875 88.921875 33.015625 
L 88.921875 0 
L 79.890625 0 
L 79.890625 32.71875 
Q 79.890625 40.578125 77.09375 44.375 
Q 74.3125 48.1875 68.609375 48.1875 
Q 61.625 48.1875 57.5625 43.546875 
Q 53.515625 38.921875 53.515625 30.90625 
L 53.515625 0 
L 44.484375 0 
L 44.484375 32.71875 
Q 44.484375 40.625 41.703125 44.40625 
Q 38.921875 48.1875 33.109375 48.1875 
Q 26.21875 48.1875 22.15625 43.53125 
Q 18.109375 38.875 18.109375 30.90625 
L 18.109375 0 
L 9.078125 0 
L 9.078125 54.6875 
L 18.109375 54.6875 
L 18.109375 46.1875 
Q 21.1875 51.21875 25.484375 53.609375 
Q 29.78125 56 35.6875 56 
Q 41.65625 56 45.828125 52.96875 
Q 50 49.953125 52 44.1875 
z
" id="DejaVuSans-109"/>
      <path d="M 45.40625 46.390625 
L 45.40625 75.984375 
L 54.390625 75.984375 
L 54.390625 0 
L 45.40625 0 
L 45.40625 8.203125 
Q 42.578125 3.328125 38.25 0.953125 
Q 33.9375 -1.421875 27.875 -1.421875 
Q 17.96875 -1.421875 11.734375 6.484375 
Q 5.515625 14.40625 5.515625 27.296875 
Q 5.515625 40.1875 11.734375 48.09375 
Q 17.96875 56 27.875 56 
Q 33.9375 56 38.25 53.625 
Q 42.578125 51.265625 45.40625 46.390625 
z
M 14.796875 27.296875 
Q 14.796875 17.390625 18.875 11.75 
Q 22.953125 6.109375 30.078125 6.109375 
Q 37.203125 6.109375 41.296875 11.75 
Q 45.40625 17.390625 45.40625 27.296875 
Q 45.40625 37.203125 41.296875 42.84375 
Q 37.203125 48.484375 30.078125 48.484375 
Q 22.953125 48.484375 18.875 42.84375 
Q 14.796875 37.203125 14.796875 27.296875 
z
" id="DejaVuSans-100"/>
      <path d="M 56.203125 29.59375 
L 56.203125 25.203125 
L 14.890625 25.203125 
Q 15.484375 15.921875 20.484375 11.0625 
Q 25.484375 6.203125 34.421875 6.203125 
Q 39.59375 6.203125 44.453125 7.46875 
Q 49.3125 8.734375 54.109375 11.28125 
L 54.109375 2.78125 
Q 49.265625 0.734375 44.1875 -0.34375 
Q 39.109375 -1.421875 33.890625 -1.421875 
Q 20.796875 -1.421875 13.15625 6.1875 
Q 5.515625 13.8125 5.515625 26.8125 
Q 5.515625 40.234375 12.765625 48.109375 
Q 20.015625 56 32.328125 56 
Q 43.359375 56 49.78125 48.890625 
Q 56.203125 41.796875 56.203125 29.59375 
z
M 47.21875 32.234375 
Q 47.125 39.59375 43.09375 43.984375 
Q 39.0625 48.390625 32.421875 48.390625 
Q 24.90625 48.390625 20.390625 44.140625 
Q 15.875 39.890625 15.1875 32.171875 
z
" id="DejaVuSans-101"/>
     </defs>
     <use xlink:href="#DejaVuSans-85"/>
     <use x="73.193359" xlink:href="#DejaVuSans-110"/>
     <use x="136.572266" xlink:href="#DejaVuSans-107"/>
     <use x="194.482422" xlink:href="#DejaVuSans-110"/>
     <use x="257.861328" xlink:href="#DejaVuSans-111"/>
     <use x="319.042969" xlink:href="#DejaVuSans-119"/>
     <use x="400.830078" xlink:href="#DejaVuSans-110"/>
     <use x="464.208984" xlink:href="#DejaVuSans-32"/>
     <use x="495.996094" xlink:href="#DejaVuSans-109"/>
     <use x="593.408203" xlink:href="#DejaVuSans-111"/>
     <use x="654.589844" xlink:href="#DejaVuSans-100"/>
     <use x="718.066406" xlink:href="#DejaVuSans-101"/>
    </g>
   </g>
  </g>
 </g>
 <defs>
  <clipPath id="pbaa803d697">
   <rect height="217.44" width="334.8" x="57.570313" y="22.318125"/>
  </clipPath>
 </defs>
</svg>
