<?xml version="1.0" encoding="utf-8" standalone="no"?>
<!DOCTYPE svg PUBLIC "-//W3C//DTD SVG 1.1//EN"
  "http://www.w3.org/Graphics/SVG/1.1/DTD/svg11.dtd">
<!-- Created with matplotlib (https://matplotlib.org/) -->
<svg height="683.398125pt" version="1.1" viewBox="0 0 886.3 683.398125" width="886.3pt" xmlns="http://www.w3.org/2000/svg" xmlns:xlink="http://www.w3.org/1999/xlink">
 <metadata>
  <rdf:RDF xmlns:cc="http://creativecommons.org/ns#" xmlns:dc="http://purl.org/dc/elements/1.1/" xmlns:rdf="http://www.w3.org/1999/02/22-rdf-syntax-ns#">
   <cc:Work>
    <dc:type rdf:resource="http://purl.org/dc/dcmitype/StillImage"/>
    <dc:date>2021-04-19T18:30:15.255587</dc:date>
    <dc:format>image/svg+xml</dc:format>
    <dc:creator>
     <cc:Agent>
      <dc:title>Matplotlib v3.3.4, https://matplotlib.org/</dc:title>
     </cc:Agent>
    </dc:creator>
   </cc:Work>
  </rdf:RDF>
 </metadata>
 <defs>
  <style type="text/css">*{stroke-linecap:butt;stroke-linejoin:round;}</style>
 </defs>
 <g id="figure_1">
  <g id="patch_1">
   <path d="M 0 683.398125 
L 886.3 683.398125 
L 886.3 0 
L 0 0 
z
" style="fill:none;"/>
  </g>
  <g id="axes_1">
   <g id="patch_2">
    <path d="M 42.1 303.709091 
L 879.1 303.709091 
L 879.1 7.2 
L 42.1 7.2 
z
" style="fill:#ffffff;"/>
   </g>
   <g id="matplotlib.axis_1">
    <g id="xtick_1">
     <g id="line2d_1">
      <path clip-path="url(#pcfcc921848)" d="M 80.145455 303.709091 
L 80.145455 7.2 
" style="fill:none;stroke:#666666;stroke-linecap:square;stroke-opacity:0.3;stroke-width:0.8;"/>
     </g>
     <g id="line2d_2">
      <defs>
       <path d="M 0 0 
L 0 3.5 
" id="m51b35b075e" style="stroke:#000000;stroke-width:0.8;"/>
      </defs>
      <g>
       <use style="stroke:#000000;stroke-width:0.8;" x="80.145455" xlink:href="#m51b35b075e" y="303.709091"/>
      </g>
     </g>
     <g id="text_1">
      <!-- $\mathdefault{10^{0}}$ -->
      <g transform="translate(71.345455 318.307528)scale(0.1 -0.1)">
       <defs>
        <path d="M 12.40625 8.296875 
L 28.515625 8.296875 
L 28.515625 63.921875 
L 10.984375 60.40625 
L 10.984375 69.390625 
L 28.421875 72.90625 
L 38.28125 72.90625 
L 38.28125 8.296875 
L 54.390625 8.296875 
L 54.390625 0 
L 12.40625 0 
z
" id="DejaVuSans-49"/>
        <path d="M 31.78125 66.40625 
Q 24.171875 66.40625 20.328125 58.90625 
Q 16.5 51.421875 16.5 36.375 
Q 16.5 21.390625 20.328125 13.890625 
Q 24.171875 6.390625 31.78125 6.390625 
Q 39.453125 6.390625 43.28125 13.890625 
Q 47.125 21.390625 47.125 36.375 
Q 47.125 51.421875 43.28125 58.90625 
Q 39.453125 66.40625 31.78125 66.40625 
z
M 31.78125 74.21875 
Q 44.046875 74.21875 50.515625 64.515625 
Q 56.984375 54.828125 56.984375 36.375 
Q 56.984375 17.96875 50.515625 8.265625 
Q 44.046875 -1.421875 31.78125 -1.421875 
Q 19.53125 -1.421875 13.0625 8.265625 
Q 6.59375 17.96875 6.59375 36.375 
Q 6.59375 54.828125 13.0625 64.515625 
Q 19.53125 74.21875 31.78125 74.21875 
z
" id="DejaVuSans-48"/>
       </defs>
       <use transform="translate(0 0.765625)" xlink:href="#DejaVuSans-49"/>
       <use transform="translate(63.623047 0.765625)" xlink:href="#DejaVuSans-48"/>
       <use transform="translate(128.203125 39.046875)scale(0.7)" xlink:href="#DejaVuSans-48"/>
      </g>
     </g>
    </g>
    <g id="xtick_2">
     <g id="line2d_3">
      <path clip-path="url(#pcfcc921848)" d="M 317.988525 303.709091 
L 317.988525 7.2 
" style="fill:none;stroke:#666666;stroke-linecap:square;stroke-opacity:0.3;stroke-width:0.8;"/>
     </g>
     <g id="line2d_4">
      <g>
       <use style="stroke:#000000;stroke-width:0.8;" x="317.988525" xlink:href="#m51b35b075e" y="303.709091"/>
      </g>
     </g>
     <g id="text_2">
      <!-- $\mathdefault{10^{1}}$ -->
      <g transform="translate(309.188525 318.307528)scale(0.1 -0.1)">
       <use transform="translate(0 0.684375)" xlink:href="#DejaVuSans-49"/>
       <use transform="translate(63.623047 0.684375)" xlink:href="#DejaVuSans-48"/>
       <use transform="translate(128.203125 38.965625)scale(0.7)" xlink:href="#DejaVuSans-49"/>
      </g>
     </g>
    </g>
    <g id="xtick_3">
     <g id="line2d_5">
      <path clip-path="url(#pcfcc921848)" d="M 555.831595 303.709091 
L 555.831595 7.2 
" style="fill:none;stroke:#666666;stroke-linecap:square;stroke-opacity:0.3;stroke-width:0.8;"/>
     </g>
     <g id="line2d_6">
      <g>
       <use style="stroke:#000000;stroke-width:0.8;" x="555.831595" xlink:href="#m51b35b075e" y="303.709091"/>
      </g>
     </g>
     <g id="text_3">
      <!-- $\mathdefault{10^{2}}$ -->
      <g transform="translate(547.031595 318.307528)scale(0.1 -0.1)">
       <defs>
        <path d="M 19.1875 8.296875 
L 53.609375 8.296875 
L 53.609375 0 
L 7.328125 0 
L 7.328125 8.296875 
Q 12.9375 14.109375 22.625 23.890625 
Q 32.328125 33.6875 34.8125 36.53125 
Q 39.546875 41.84375 41.421875 45.53125 
Q 43.3125 49.21875 43.3125 52.78125 
Q 43.3125 58.59375 39.234375 62.25 
Q 35.15625 65.921875 28.609375 65.921875 
Q 23.96875 65.921875 18.8125 64.3125 
Q 13.671875 62.703125 7.8125 59.421875 
L 7.8125 69.390625 
Q 13.765625 71.78125 18.9375 73 
Q 24.125 74.21875 28.421875 74.21875 
Q 39.75 74.21875 46.484375 68.546875 
Q 53.21875 62.890625 53.21875 53.421875 
Q 53.21875 48.921875 51.53125 44.890625 
Q 49.859375 40.875 45.40625 35.40625 
Q 44.1875 33.984375 37.640625 27.21875 
Q 31.109375 20.453125 19.1875 8.296875 
z
" id="DejaVuSans-50"/>
       </defs>
       <use transform="translate(0 0.765625)" xlink:href="#DejaVuSans-49"/>
       <use transform="translate(63.623047 0.765625)" xlink:href="#DejaVuSans-48"/>
       <use transform="translate(128.203125 39.046875)scale(0.7)" xlink:href="#DejaVuSans-50"/>
      </g>
     </g>
    </g>
    <g id="xtick_4">
     <g id="line2d_7">
      <path clip-path="url(#pcfcc921848)" d="M 793.674665 303.709091 
L 793.674665 7.2 
" style="fill:none;stroke:#666666;stroke-linecap:square;stroke-opacity:0.3;stroke-width:0.8;"/>
     </g>
     <g id="line2d_8">
      <g>
       <use style="stroke:#000000;stroke-width:0.8;" x="793.674665" xlink:href="#m51b35b075e" y="303.709091"/>
      </g>
     </g>
     <g id="text_4">
      <!-- $\mathdefault{10^{3}}$ -->
      <g transform="translate(784.874665 318.307528)scale(0.1 -0.1)">
       <defs>
        <path d="M 40.578125 39.3125 
Q 47.65625 37.796875 51.625 33 
Q 55.609375 28.21875 55.609375 21.1875 
Q 55.609375 10.40625 48.1875 4.484375 
Q 40.765625 -1.421875 27.09375 -1.421875 
Q 22.515625 -1.421875 17.65625 -0.515625 
Q 12.796875 0.390625 7.625 2.203125 
L 7.625 11.71875 
Q 11.71875 9.328125 16.59375 8.109375 
Q 21.484375 6.890625 26.8125 6.890625 
Q 36.078125 6.890625 40.9375 10.546875 
Q 45.796875 14.203125 45.796875 21.1875 
Q 45.796875 27.640625 41.28125 31.265625 
Q 36.765625 34.90625 28.71875 34.90625 
L 20.21875 34.90625 
L 20.21875 43.015625 
L 29.109375 43.015625 
Q 36.375 43.015625 40.234375 45.921875 
Q 44.09375 48.828125 44.09375 54.296875 
Q 44.09375 59.90625 40.109375 62.90625 
Q 36.140625 65.921875 28.71875 65.921875 
Q 24.65625 65.921875 20.015625 65.03125 
Q 15.375 64.15625 9.8125 62.3125 
L 9.8125 71.09375 
Q 15.4375 72.65625 20.34375 73.4375 
Q 25.25 74.21875 29.59375 74.21875 
Q 40.828125 74.21875 47.359375 69.109375 
Q 53.90625 64.015625 53.90625 55.328125 
Q 53.90625 49.265625 50.4375 45.09375 
Q 46.96875 40.921875 40.578125 39.3125 
z
" id="DejaVuSans-51"/>
       </defs>
       <use transform="translate(0 0.765625)" xlink:href="#DejaVuSans-49"/>
       <use transform="translate(63.623047 0.765625)" xlink:href="#DejaVuSans-48"/>
       <use transform="translate(128.203125 39.046875)scale(0.7)" xlink:href="#DejaVuSans-51"/>
      </g>
     </g>
    </g>
    <g id="xtick_5">
     <g id="line2d_9">
      <defs>
       <path d="M 0 0 
L 0 2 
" id="mc0d3bf0044" style="stroke:#000000;stroke-width:0.6;"/>
      </defs>
      <g>
       <use style="stroke:#000000;stroke-width:0.6;" x="43.303097" xlink:href="#mc0d3bf0044" y="303.709091"/>
      </g>
     </g>
    </g>
    <g id="xtick_6">
     <g id="line2d_10">
      <g>
       <use style="stroke:#000000;stroke-width:0.6;" x="57.09608" xlink:href="#mc0d3bf0044" y="303.709091"/>
      </g>
     </g>
    </g>
    <g id="xtick_7">
     <g id="line2d_11">
      <g>
       <use style="stroke:#000000;stroke-width:0.6;" x="69.262353" xlink:href="#mc0d3bf0044" y="303.709091"/>
      </g>
     </g>
    </g>
    <g id="xtick_8">
     <g id="line2d_12">
      <g>
       <use style="stroke:#000000;stroke-width:0.6;" x="151.743353" xlink:href="#mc0d3bf0044" y="303.709091"/>
      </g>
     </g>
    </g>
    <g id="xtick_9">
     <g id="line2d_13">
      <g>
       <use style="stroke:#000000;stroke-width:0.6;" x="193.625439" xlink:href="#mc0d3bf0044" y="303.709091"/>
      </g>
     </g>
    </g>
    <g id="xtick_10">
     <g id="line2d_14">
      <g>
       <use style="stroke:#000000;stroke-width:0.6;" x="223.341251" xlink:href="#mc0d3bf0044" y="303.709091"/>
      </g>
     </g>
    </g>
    <g id="xtick_11">
     <g id="line2d_15">
      <g>
       <use style="stroke:#000000;stroke-width:0.6;" x="246.390626" xlink:href="#mc0d3bf0044" y="303.709091"/>
      </g>
     </g>
    </g>
    <g id="xtick_12">
     <g id="line2d_16">
      <g>
       <use style="stroke:#000000;stroke-width:0.6;" x="265.223337" xlink:href="#mc0d3bf0044" y="303.709091"/>
      </g>
     </g>
    </g>
    <g id="xtick_13">
     <g id="line2d_17">
      <g>
       <use style="stroke:#000000;stroke-width:0.6;" x="281.146167" xlink:href="#mc0d3bf0044" y="303.709091"/>
      </g>
     </g>
    </g>
    <g id="xtick_14">
     <g id="line2d_18">
      <g>
       <use style="stroke:#000000;stroke-width:0.6;" x="294.93915" xlink:href="#mc0d3bf0044" y="303.709091"/>
      </g>
     </g>
    </g>
    <g id="xtick_15">
     <g id="line2d_19">
      <g>
       <use style="stroke:#000000;stroke-width:0.6;" x="307.105423" xlink:href="#mc0d3bf0044" y="303.709091"/>
      </g>
     </g>
    </g>
    <g id="xtick_16">
     <g id="line2d_20">
      <g>
       <use style="stroke:#000000;stroke-width:0.6;" x="389.586423" xlink:href="#mc0d3bf0044" y="303.709091"/>
      </g>
     </g>
    </g>
    <g id="xtick_17">
     <g id="line2d_21">
      <g>
       <use style="stroke:#000000;stroke-width:0.6;" x="431.468509" xlink:href="#mc0d3bf0044" y="303.709091"/>
      </g>
     </g>
    </g>
    <g id="xtick_18">
     <g id="line2d_22">
      <g>
       <use style="stroke:#000000;stroke-width:0.6;" x="461.184321" xlink:href="#mc0d3bf0044" y="303.709091"/>
      </g>
     </g>
    </g>
    <g id="xtick_19">
     <g id="line2d_23">
      <g>
       <use style="stroke:#000000;stroke-width:0.6;" x="484.233696" xlink:href="#mc0d3bf0044" y="303.709091"/>
      </g>
     </g>
    </g>
    <g id="xtick_20">
     <g id="line2d_24">
      <g>
       <use style="stroke:#000000;stroke-width:0.6;" x="503.066407" xlink:href="#mc0d3bf0044" y="303.709091"/>
      </g>
     </g>
    </g>
    <g id="xtick_21">
     <g id="line2d_25">
      <g>
       <use style="stroke:#000000;stroke-width:0.6;" x="518.989237" xlink:href="#mc0d3bf0044" y="303.709091"/>
      </g>
     </g>
    </g>
    <g id="xtick_22">
     <g id="line2d_26">
      <g>
       <use style="stroke:#000000;stroke-width:0.6;" x="532.78222" xlink:href="#mc0d3bf0044" y="303.709091"/>
      </g>
     </g>
    </g>
    <g id="xtick_23">
     <g id="line2d_27">
      <g>
       <use style="stroke:#000000;stroke-width:0.6;" x="544.948493" xlink:href="#mc0d3bf0044" y="303.709091"/>
      </g>
     </g>
    </g>
    <g id="xtick_24">
     <g id="line2d_28">
      <g>
       <use style="stroke:#000000;stroke-width:0.6;" x="627.429493" xlink:href="#mc0d3bf0044" y="303.709091"/>
      </g>
     </g>
    </g>
    <g id="xtick_25">
     <g id="line2d_29">
      <g>
       <use style="stroke:#000000;stroke-width:0.6;" x="669.311579" xlink:href="#mc0d3bf0044" y="303.709091"/>
      </g>
     </g>
    </g>
    <g id="xtick_26">
     <g id="line2d_30">
      <g>
       <use style="stroke:#000000;stroke-width:0.6;" x="699.027391" xlink:href="#mc0d3bf0044" y="303.709091"/>
      </g>
     </g>
    </g>
    <g id="xtick_27">
     <g id="line2d_31">
      <g>
       <use style="stroke:#000000;stroke-width:0.6;" x="722.076767" xlink:href="#mc0d3bf0044" y="303.709091"/>
      </g>
     </g>
    </g>
    <g id="xtick_28">
     <g id="line2d_32">
      <g>
       <use style="stroke:#000000;stroke-width:0.6;" x="740.909477" xlink:href="#mc0d3bf0044" y="303.709091"/>
      </g>
     </g>
    </g>
    <g id="xtick_29">
     <g id="line2d_33">
      <g>
       <use style="stroke:#000000;stroke-width:0.6;" x="756.832307" xlink:href="#mc0d3bf0044" y="303.709091"/>
      </g>
     </g>
    </g>
    <g id="xtick_30">
     <g id="line2d_34">
      <g>
       <use style="stroke:#000000;stroke-width:0.6;" x="770.62529" xlink:href="#mc0d3bf0044" y="303.709091"/>
      </g>
     </g>
    </g>
    <g id="xtick_31">
     <g id="line2d_35">
      <g>
       <use style="stroke:#000000;stroke-width:0.6;" x="782.791563" xlink:href="#mc0d3bf0044" y="303.709091"/>
      </g>
     </g>
    </g>
    <g id="xtick_32">
     <g id="line2d_36">
      <g>
       <use style="stroke:#000000;stroke-width:0.6;" x="865.272563" xlink:href="#mc0d3bf0044" y="303.709091"/>
      </g>
     </g>
    </g>
   </g>
   <g id="matplotlib.axis_2">
    <g id="ytick_1">
     <g id="line2d_37">
      <path clip-path="url(#pcfcc921848)" d="M 42.1 197.792614 
L 879.1 197.792614 
" style="fill:none;stroke:#666666;stroke-linecap:square;stroke-opacity:0.3;stroke-width:0.8;"/>
     </g>
     <g id="line2d_38">
      <defs>
       <path d="M 0 0 
L -3.5 0 
" id="m037f55111e" style="stroke:#000000;stroke-width:0.8;"/>
      </defs>
      <g>
       <use style="stroke:#000000;stroke-width:0.8;" x="42.1" xlink:href="#m037f55111e" y="197.792614"/>
      </g>
     </g>
     <g id="text_5">
      <!-- $\mathdefault{10^{-15}}$ -->
      <g transform="translate(7.2 201.591832)scale(0.1 -0.1)">
       <defs>
        <path d="M 10.59375 35.5 
L 73.1875 35.5 
L 73.1875 27.203125 
L 10.59375 27.203125 
z
" id="DejaVuSans-8722"/>
        <path d="M 10.796875 72.90625 
L 49.515625 72.90625 
L 49.515625 64.59375 
L 19.828125 64.59375 
L 19.828125 46.734375 
Q 21.96875 47.46875 24.109375 47.828125 
Q 26.265625 48.1875 28.421875 48.1875 
Q 40.625 48.1875 47.75 41.5 
Q 54.890625 34.8125 54.890625 23.390625 
Q 54.890625 11.625 47.5625 5.09375 
Q 40.234375 -1.421875 26.90625 -1.421875 
Q 22.3125 -1.421875 17.546875 -0.640625 
Q 12.796875 0.140625 7.71875 1.703125 
L 7.71875 11.625 
Q 12.109375 9.234375 16.796875 8.0625 
Q 21.484375 6.890625 26.703125 6.890625 
Q 35.15625 6.890625 40.078125 11.328125 
Q 45.015625 15.765625 45.015625 23.390625 
Q 45.015625 31 40.078125 35.4375 
Q 35.15625 39.890625 26.703125 39.890625 
Q 22.75 39.890625 18.8125 39.015625 
Q 14.890625 38.140625 10.796875 36.28125 
z
" id="DejaVuSans-53"/>
       </defs>
       <use transform="translate(0 0.684375)" xlink:href="#DejaVuSans-49"/>
       <use transform="translate(63.623047 0.684375)" xlink:href="#DejaVuSans-48"/>
       <use transform="translate(128.203125 38.965625)scale(0.7)" xlink:href="#DejaVuSans-8722"/>
       <use transform="translate(186.855469 38.965625)scale(0.7)" xlink:href="#DejaVuSans-49"/>
       <use transform="translate(231.391602 38.965625)scale(0.7)" xlink:href="#DejaVuSans-53"/>
      </g>
     </g>
    </g>
    <g id="ytick_2">
     <g id="line2d_39">
      <path clip-path="url(#pcfcc921848)" d="M 42.1 56.353689 
L 879.1 56.353689 
" style="fill:none;stroke:#666666;stroke-linecap:square;stroke-opacity:0.3;stroke-width:0.8;"/>
     </g>
     <g id="line2d_40">
      <g>
       <use style="stroke:#000000;stroke-width:0.8;" x="42.1" xlink:href="#m037f55111e" y="56.353689"/>
      </g>
     </g>
     <g id="text_6">
      <!-- $\mathdefault{10^{-14}}$ -->
      <g transform="translate(7.2 60.152908)scale(0.1 -0.1)">
       <defs>
        <path d="M 37.796875 64.3125 
L 12.890625 25.390625 
L 37.796875 25.390625 
z
M 35.203125 72.90625 
L 47.609375 72.90625 
L 47.609375 25.390625 
L 58.015625 25.390625 
L 58.015625 17.1875 
L 47.609375 17.1875 
L 47.609375 0 
L 37.796875 0 
L 37.796875 17.1875 
L 4.890625 17.1875 
L 4.890625 26.703125 
z
" id="DejaVuSans-52"/>
       </defs>
       <use transform="translate(0 0.684375)" xlink:href="#DejaVuSans-49"/>
       <use transform="translate(63.623047 0.684375)" xlink:href="#DejaVuSans-48"/>
       <use transform="translate(128.203125 38.965625)scale(0.7)" xlink:href="#DejaVuSans-8722"/>
       <use transform="translate(186.855469 38.965625)scale(0.7)" xlink:href="#DejaVuSans-49"/>
       <use transform="translate(231.391602 38.965625)scale(0.7)" xlink:href="#DejaVuSans-52"/>
      </g>
     </g>
    </g>
    <g id="ytick_3">
     <g id="line2d_41">
      <defs>
       <path d="M 0 0 
L -2 0 
" id="ma34c0d87d4" style="stroke:#000000;stroke-width:0.6;"/>
      </defs>
      <g>
       <use style="stroke:#000000;stroke-width:0.6;" x="42.1" xlink:href="#ma34c0d87d4" y="296.654179"/>
      </g>
     </g>
    </g>
    <g id="ytick_4">
     <g id="line2d_42">
      <g>
       <use style="stroke:#000000;stroke-width:0.6;" x="42.1" xlink:href="#ma34c0d87d4" y="271.748021"/>
      </g>
     </g>
    </g>
    <g id="ytick_5">
     <g id="line2d_43">
      <g>
       <use style="stroke:#000000;stroke-width:0.6;" x="42.1" xlink:href="#ma34c0d87d4" y="254.07682"/>
      </g>
     </g>
    </g>
    <g id="ytick_6">
     <g id="line2d_44">
      <g>
       <use style="stroke:#000000;stroke-width:0.6;" x="42.1" xlink:href="#ma34c0d87d4" y="240.369972"/>
      </g>
     </g>
    </g>
    <g id="ytick_7">
     <g id="line2d_45">
      <g>
       <use style="stroke:#000000;stroke-width:0.6;" x="42.1" xlink:href="#ma34c0d87d4" y="229.170662"/>
      </g>
     </g>
    </g>
    <g id="ytick_8">
     <g id="line2d_46">
      <g>
       <use style="stroke:#000000;stroke-width:0.6;" x="42.1" xlink:href="#ma34c0d87d4" y="219.70178"/>
      </g>
     </g>
    </g>
    <g id="ytick_9">
     <g id="line2d_47">
      <g>
       <use style="stroke:#000000;stroke-width:0.6;" x="42.1" xlink:href="#ma34c0d87d4" y="211.499462"/>
      </g>
     </g>
    </g>
    <g id="ytick_10">
     <g id="line2d_48">
      <g>
       <use style="stroke:#000000;stroke-width:0.6;" x="42.1" xlink:href="#ma34c0d87d4" y="204.264504"/>
      </g>
     </g>
    </g>
    <g id="ytick_11">
     <g id="line2d_49">
      <g>
       <use style="stroke:#000000;stroke-width:0.6;" x="42.1" xlink:href="#ma34c0d87d4" y="155.215255"/>
      </g>
     </g>
    </g>
    <g id="ytick_12">
     <g id="line2d_50">
      <g>
       <use style="stroke:#000000;stroke-width:0.6;" x="42.1" xlink:href="#ma34c0d87d4" y="130.309097"/>
      </g>
     </g>
    </g>
    <g id="ytick_13">
     <g id="line2d_51">
      <g>
       <use style="stroke:#000000;stroke-width:0.6;" x="42.1" xlink:href="#ma34c0d87d4" y="112.637896"/>
      </g>
     </g>
    </g>
    <g id="ytick_14">
     <g id="line2d_52">
      <g>
       <use style="stroke:#000000;stroke-width:0.6;" x="42.1" xlink:href="#ma34c0d87d4" y="98.931048"/>
      </g>
     </g>
    </g>
    <g id="ytick_15">
     <g id="line2d_53">
      <g>
       <use style="stroke:#000000;stroke-width:0.6;" x="42.1" xlink:href="#ma34c0d87d4" y="87.731738"/>
      </g>
     </g>
    </g>
    <g id="ytick_16">
     <g id="line2d_54">
      <g>
       <use style="stroke:#000000;stroke-width:0.6;" x="42.1" xlink:href="#ma34c0d87d4" y="78.262856"/>
      </g>
     </g>
    </g>
    <g id="ytick_17">
     <g id="line2d_55">
      <g>
       <use style="stroke:#000000;stroke-width:0.6;" x="42.1" xlink:href="#ma34c0d87d4" y="70.060537"/>
      </g>
     </g>
    </g>
    <g id="ytick_18">
     <g id="line2d_56">
      <g>
       <use style="stroke:#000000;stroke-width:0.6;" x="42.1" xlink:href="#ma34c0d87d4" y="62.82558"/>
      </g>
     </g>
    </g>
    <g id="ytick_19">
     <g id="line2d_57">
      <g>
       <use style="stroke:#000000;stroke-width:0.6;" x="42.1" xlink:href="#ma34c0d87d4" y="13.776331"/>
      </g>
     </g>
    </g>
   </g>
   <g id="line2d_58">
    <path clip-path="url(#pcfcc921848)" d="M 151.540648 684.398125 
L 151.743353 290.231405 
L 151.861927 684.398125 
M 223.251821 684.398125 
L 223.341251 265.325247 
L 246.390626 247.654046 
L 265.223337 222.747888 
L 281.146167 290.231405 
L 307.105423 290.231405 
L 317.988525 247.654046 
L 336.821235 247.654046 
L 345.089161 233.947198 
L 352.744065 213.279006 
L 378.703321 213.279006 
L 384.288137 233.947198 
L 389.586423 213.279006 
L 399.431386 213.279006 
L 404.022984 205.076687 
L 408.419134 191.36984 
L 416.68706 191.36984 
L 420.585407 205.076687 
L 424.341964 191.36984 
L 427.966684 191.36984 
L 431.468509 205.076687 
L 434.855498 213.279006 
L 438.134946 205.076687 
L 441.313472 213.279006 
L 444.397102 205.076687 
L 447.391339 205.076687 
L 450.301219 191.36984 
L 453.131367 175.253814 
L 455.886035 175.253814 
L 458.569145 180.170529 
L 461.184321 180.170529 
L 463.734918 166.463681 
L 466.224049 158.775392 
L 468.654607 158.775392 
L 471.029285 166.463681 
L 473.350594 158.775392 
L 475.620882 158.775392 
L 477.842343 166.463681 
L 480.017032 158.775392 
L 482.146879 158.775392 
L 484.233696 166.463681 
L 486.279188 166.463681 
L 488.284958 158.775392 
L 492.183305 158.775392 
L 494.07866 175.253814 
L 495.939862 166.463681 
L 497.768121 158.775392 
L 499.564582 166.463681 
L 504.773784 166.463681 
L 506.453397 158.775392 
L 511.334333 158.775392 
L 512.91137 155.264371 
L 514.464692 148.792481 
L 517.502968 148.792481 
L 518.989237 155.264371 
L 520.454424 148.792481 
L 521.899118 148.792481 
L 523.323884 145.795489 
L 524.729266 145.795489 
L 526.115782 148.792481 
L 528.8342 148.792481 
L 530.167044 145.795489 
L 531.482908 145.795489 
L 532.78222 148.792481 
L 534.065391 145.795489 
L 535.332817 148.792481 
L 536.58488 145.795489 
L 537.821948 135.085633 
L 539.044375 132.676456 
L 541.446668 123.886323 
L 542.627183 132.676456 
L 543.794359 140.207444 
L 544.948493 135.085633 
L 547.21878 135.085633 
L 548.335482 140.207444 
L 550.533309 140.207444 
L 551.61493 145.795489 
L 553.744778 145.795489 
L 554.793456 140.207444 
L 559.882856 140.207444 
L 560.871323 135.085633 
L 561.850419 132.676456 
L 562.820323 140.207444 
L 563.781203 135.085633 
L 564.733228 140.207444 
L 565.676558 135.085633 
L 566.611351 135.085633 
L 567.53776 132.676456 
L 568.455935 128.124289 
L 572.928232 128.124289 
L 573.799916 132.676456 
L 574.664305 135.085633 
L 576.371682 135.085633 
L 577.214902 128.124289 
L 578.051295 123.886323 
L 578.88097 121.87217 
L 582.932231 121.87217 
L 583.72376 118.031786 
L 584.509269 116.198033 
L 586.06259 116.198033 
L 586.830578 112.687012 
L 589.100866 112.687012 
L 589.846674 109.365871 
L 590.587135 107.770297 
L 591.322327 107.770297 
L 592.052322 104.69835 
L 592.777195 104.69835 
L 593.497016 107.770297 
L 594.211856 104.69835 
L 594.921783 104.69835 
L 595.626863 101.772743 
L 597.022749 107.770297 
L 597.71368 109.365871 
L 598.400021 107.770297 
L 600.432099 107.770297 
L 601.10067 109.365871 
L 601.764942 109.365871 
L 602.42497 107.770297 
L 603.080806 107.770297 
L 603.732505 109.365871 
L 604.380118 109.365871 
L 605.023696 112.687012 
L 605.663289 107.770297 
L 606.298946 107.770297 
L 606.930715 104.69835 
L 607.558644 107.770297 
L 608.182778 109.365871 
L 608.803164 109.365871 
L 609.419846 107.770297 
L 611.850404 107.770297 
L 612.449211 109.365871 
L 613.044566 109.365871 
L 614.225081 116.198033 
L 614.810318 112.687012 
L 615.392257 116.198033 
L 615.970936 112.687012 
L 616.546391 116.198033 
L 618.253768 116.198033 
L 619.376539 109.365871 
L 619.933381 107.770297 
L 620.487237 107.770297 
L 621.038139 104.69835 
L 621.586119 100.360585 
L 622.131207 100.360585 
L 622.673434 101.772743 
L 623.212829 100.360585 
L 623.749422 97.630085 
L 624.283242 100.360585 
L 624.814317 97.630085 
L 625.342676 96.309042 
L 625.868346 96.309042 
L 626.391354 93.749248 
L 626.911728 93.749248 
L 627.429493 90.099097 
L 628.457302 90.099097 
L 628.967396 91.291875 
L 629.474984 96.309042 
L 629.98009 97.630085 
L 630.982952 97.630085 
L 631.480755 100.360585 
L 631.97617 100.360585 
L 632.469221 96.309042 
L 632.95993 96.309042 
L 633.448318 93.749248 
L 633.934408 96.309042 
L 634.418221 97.630085 
L 634.899779 97.630085 
L 635.379102 101.772743 
L 636.331126 101.772743 
L 636.803868 104.69835 
L 639.135659 104.69835 
L 639.595766 109.365871 
L 640.053833 112.687012 
L 640.509878 109.365871 
L 641.415971 109.365871 
L 641.866054 107.770297 
L 642.314184 107.770297 
L 642.760379 104.69835 
L 643.647028 104.69835 
L 644.087514 101.772743 
L 644.52613 100.360585 
L 644.962892 97.630085 
L 645.397814 97.630085 
L 645.830913 96.309042 
L 646.262204 96.309042 
L 646.691701 97.630085 
L 647.11942 96.309042 
L 647.545375 97.630085 
L 647.96958 100.360585 
L 648.812801 100.360585 
L 649.231844 101.772743 
L 649.649194 100.360585 
L 650.064864 101.772743 
L 650.478868 101.772743 
L 650.89122 100.360585 
L 652.524359 100.360585 
L 652.928641 97.630085 
L 653.331347 96.309042 
L 653.732489 96.309042 
L 654.13208 93.749248 
L 654.53013 93.749248 
L 654.926652 91.291875 
L 655.321658 93.749248 
L 655.715159 93.749248 
L 656.107167 90.099097 
L 656.497693 91.291875 
L 656.886748 91.291875 
L 657.274343 87.780854 
L 658.045196 87.780854 
L 658.428477 85.54693 
L 659.190797 85.54693 
L 659.947533 90.099097 
L 660.323831 87.780854 
L 660.698764 87.780854 
L 661.072341 85.54693 
L 661.444572 87.780854 
L 661.815467 87.780854 
L 662.185034 85.54693 
L 662.553283 84.459713 
L 662.920225 87.780854 
L 663.285868 87.780854 
L 663.65022 85.54693 
L 664.013293 87.780854 
L 664.375093 87.780854 
L 664.735631 90.099097 
L 665.094914 90.099097 
L 665.452953 91.291875 
L 665.809754 93.749248 
L 666.165327 93.749248 
L 666.519681 91.291875 
L 666.872823 90.099097 
L 667.224762 90.099097 
L 667.575505 87.780854 
L 668.27344 87.780854 
L 668.620647 90.099097 
L 669.311579 90.099097 
L 669.655319 91.291875 
L 669.99792 90.099097 
L 670.67973 90.099097 
L 671.018955 91.291875 
L 671.694082 91.291875 
L 672.029997 93.749248 
L 672.364824 93.749248 
L 672.698569 97.630085 
L 673.031239 96.309042 
L 673.362841 96.309042 
L 674.022868 91.291875 
L 674.678705 96.309042 
L 675.330403 91.291875 
L 675.654718 93.749248 
L 675.978016 91.291875 
L 676.300307 93.749248 
L 676.621594 91.291875 
L 676.941886 91.291875 
L 677.261187 93.749248 
L 677.579505 91.291875 
L 677.896844 90.099097 
L 678.528614 90.099097 
L 678.843055 85.54693 
L 679.156542 87.780854 
L 679.469081 85.54693 
L 680.091335 90.099097 
L 680.401062 91.291875 
L 681.32471 91.291875 
L 681.630767 90.099097 
L 682.240172 85.54693 
L 682.543532 85.54693 
L 682.846003 84.459713 
L 683.448302 84.459713 
L 683.748139 85.54693 
L 684.047109 85.54693 
L 684.345216 84.459713 
L 684.642465 84.459713 
L 684.938861 82.34136 
L 685.234409 84.459713 
L 685.529113 84.459713 
L 685.82298 85.54693 
L 686.116012 87.780854 
L 686.408216 85.54693 
L 686.699596 84.459713 
L 686.990155 85.54693 
L 687.568834 85.54693 
L 687.856963 87.780854 
L 688.716556 87.780854 
L 689.001505 85.54693 
L 689.28567 85.54693 
L 689.569056 87.780854 
L 689.851666 87.780854 
L 690.133505 84.459713 
L 690.414577 84.459713 
L 690.694887 85.54693 
L 690.974437 84.459713 
L 691.253233 84.459713 
L 691.531279 82.34136 
L 692.910391 82.34136 
L 693.184017 81.308964 
L 693.456921 77.344611 
L 694.271332 77.344611 
L 694.541382 79.294811 
L 694.810727 79.294811 
L 695.079372 81.308964 
L 695.34732 79.294811 
L 695.88114 79.294811 
L 696.147019 77.344611 
L 696.412216 77.344611 
L 696.676733 76.392249 
L 696.940574 74.530708 
L 697.203744 76.392249 
L 697.466244 74.530708 
L 697.72808 74.530708 
L 697.989253 72.723927 
L 698.249767 72.723927 
L 698.509626 74.530708 
L 698.768833 74.530708 
L 699.027391 72.723927 
L 699.285304 71.840082 
L 699.799205 71.840082 
L 700.310562 67.602116 
L 700.565295 67.602116 
L 700.819401 69.262383 
L 701.072883 70.109654 
L 701.325744 71.840082 
L 701.577989 72.723927 
L 701.829618 71.840082 
L 702.080636 72.723927 
L 703.078653 79.294811 
L 703.326658 79.294811 
L 703.574069 77.344611 
L 703.820888 77.344611 
L 704.067119 76.392249 
L 704.312765 74.530708 
L 704.557828 74.530708 
L 704.802311 76.392249 
L 705.289547 72.723927 
L 705.532306 76.392249 
L 705.774496 74.530708 
L 706.016119 76.392249 
L 706.257179 74.530708 
L 706.497677 74.530708 
L 706.737617 76.392249 
L 707.929025 76.392249 
L 708.165666 74.530708 
L 708.401767 76.392249 
L 708.637329 79.294811 
L 708.872355 79.294811 
L 709.106847 77.344611 
L 709.340809 76.392249 
L 709.574242 77.344611 
L 709.807148 77.344611 
L 710.271391 81.308964 
L 710.502733 77.344611 
L 710.733557 76.392249 
L 710.963867 76.392249 
L 711.422952 72.723927 
L 711.880005 72.723927 
L 712.107776 71.840082 
L 712.78809 71.840082 
L 713.013869 70.109654 
L 713.463952 70.109654 
L 713.68826 71.840082 
L 713.912083 71.840082 
L 714.135421 72.723927 
L 714.358278 71.840082 
L 714.580654 71.840082 
L 714.802553 72.723927 
L 715.244926 72.723927 
L 715.465404 74.530708 
L 715.685413 72.723927 
L 715.904954 76.392249 
L 716.124029 77.344611 
L 716.56079 77.344611 
L 716.995713 81.308964 
L 718.289599 81.308964 
L 718.50368 79.294811 
L 718.717318 79.294811 
L 718.930515 77.344611 
L 719.355594 77.344611 
L 719.567479 76.392249 
L 719.989949 76.392249 
L 720.410699 71.840082 
L 720.620433 71.840082 
L 720.829742 72.723927 
L 721.247092 76.392249 
L 721.662762 72.723927 
L 721.869972 72.723927 
L 722.076767 71.840082 
L 722.283148 72.723927 
L 722.489118 74.530708 
L 722.694678 74.530708 
L 722.89983 72.723927 
L 723.512852 72.723927 
L 723.716387 74.530708 
L 723.919522 74.530708 
L 724.122258 72.723927 
L 724.728089 72.723927 
L 724.929246 74.530708 
L 725.130011 72.723927 
L 725.330388 72.723927 
L 725.530376 71.840082 
L 726.128028 71.840082 
L 726.32648 70.109654 
L 726.722242 70.109654 
L 726.919556 69.262383 
L 727.116494 70.109654 
L 727.705065 70.109654 
L 728.095591 72.723927 
L 728.290302 72.723927 
L 728.484646 74.530708 
L 728.678625 72.723927 
L 728.872241 74.530708 
L 729.065494 72.723927 
L 729.258387 72.723927 
L 729.45092 74.530708 
L 729.643095 74.530708 
L 730.217483 69.262383 
L 730.598642 69.262383 
L 730.788695 70.109654 
L 730.9784 70.109654 
L 731.167756 69.262383 
L 731.356766 69.262383 
L 731.545431 67.602116 
L 731.733752 70.109654 
L 731.92173 70.109654 
L 732.109366 69.262383 
L 732.296663 65.985545 
L 732.48362 65.192939 
L 732.856523 65.192939 
L 733.042471 63.637763 
L 733.413365 63.637763 
L 733.598314 65.985545 
L 733.967221 62.120991 
L 734.151182 61.376423 
L 734.334816 61.376423 
L 734.518123 59.913827 
L 734.701106 59.913827 
L 734.883766 59.195384 
L 735.611191 59.195384 
L 735.79225 57.783226 
L 736.153418 57.783226 
L 736.333529 56.402806 
L 736.871987 59.913827 
L 737.050851 59.195384 
L 737.229406 57.783226 
L 737.407653 59.195384 
L 737.585592 59.195384 
L 737.763226 59.913827 
L 737.940555 61.376423 
L 738.117579 59.195384 
L 738.646841 59.195384 
L 738.82266 56.402806 
L 739.522961 56.402806 
L 739.697296 57.783226 
L 739.871338 57.783226 
L 740.391712 61.376423 
L 741.253218 61.376423 
L 741.42466 62.120991 
L 741.595818 63.637763 
L 741.937286 61.376423 
L 742.107598 61.376423 
L 742.277629 62.120991 
L 742.616854 62.120991 
L 742.954968 65.192939 
L 743.29198 65.192939 
L 743.460074 63.637763 
L 743.627895 65.192939 
L 743.795444 63.637763 
L 743.962722 63.637763 
L 744.129729 62.120991 
L 744.296467 62.120991 
L 744.462936 63.637763 
L 744.629137 63.637763 
L 744.960739 65.985545 
L 745.126142 65.985545 
L 745.29128 67.602116 
L 745.785116 67.602116 
L 745.949205 65.985545 
L 746.113034 65.985545 
L 746.276603 65.192939 
L 746.765762 65.192939 
L 746.928302 65.985545 
L 747.090586 65.192939 
L 747.252616 65.192939 
L 747.737186 61.376423 
L 748.219493 61.376423 
L 748.379763 59.913827 
L 748.539784 59.913827 
L 748.859086 62.120991 
L 749.018367 61.376423 
L 749.177403 62.120991 
L 749.653048 62.120991 
L 749.81111 61.376423 
L 749.968931 61.376423 
L 750.126512 62.120991 
L 750.75444 62.120991 
L 750.910828 61.376423 
L 751.066979 62.120991 
L 751.222894 63.637763 
L 751.689234 63.637763 
L 751.844213 62.120991 
L 751.998961 63.637763 
L 752.307762 63.637763 
L 752.461817 65.192939 
L 752.615643 65.192939 
L 752.76924 65.985545 
L 752.922609 65.985545 
L 753.07575 69.262383 
L 753.228665 69.262383 
L 753.381354 70.109654 
L 753.686056 72.723927 
L 753.83807 71.840082 
L 753.989862 70.109654 
L 754.14143 71.840082 
L 754.292777 71.840082 
L 754.443902 70.109654 
L 754.594806 71.840082 
L 754.74549 71.840082 
L 754.895955 72.723927 
L 755.0462 74.530708 
L 755.196228 72.723927 
L 755.346038 74.530708 
L 755.495631 72.723927 
L 755.645007 72.723927 
L 755.794168 71.840082 
L 755.943114 69.262383 
L 756.091846 69.262383 
L 756.536759 65.192939 
L 756.684639 65.192939 
L 757.27405 59.195384 
L 757.567498 59.195384 
L 757.713911 56.402806 
L 757.860116 57.783226 
L 758.006114 57.783226 
L 758.297494 61.376423 
L 758.442876 59.913827 
L 758.877798 59.913827 
L 759.022367 59.195384 
L 759.166733 57.783226 
L 759.310897 59.195384 
L 759.454861 59.195384 
L 759.598624 59.913827 
L 759.742188 59.195384 
L 760.028718 59.195384 
L 760.171685 59.913827 
L 760.314455 61.376423 
L 760.599404 61.376423 
L 760.741584 62.120991 
L 760.883569 62.120991 
L 761.025359 63.637763 
L 761.166954 62.120991 
L 761.308356 63.637763 
L 761.449564 63.637763 
L 761.59058 65.192939 
L 761.872035 65.192939 
L 762.012476 65.985545 
L 762.152725 63.637763 
L 762.292785 65.192939 
L 762.432655 63.637763 
L 762.572336 65.192939 
L 762.711828 65.192939 
L 762.851132 62.120991 
L 762.990248 62.120991 
L 763.129178 61.376423 
L 763.26792 62.120991 
L 763.406477 61.376423 
L 763.544848 59.913827 
L 763.683034 59.913827 
L 763.958852 56.402806 
L 764.096486 56.402806 
L 764.233936 57.783226 
L 764.371204 57.783226 
L 764.508289 56.402806 
L 764.918458 59.913827 
L 765.054819 59.913827 
L 765.191001 59.195384 
L 765.327004 59.913827 
L 765.462827 59.195384 
L 765.86923 59.195384 
L 766.004343 59.913827 
L 766.13928 61.376423 
L 766.67727 61.376423 
L 766.811331 62.120991 
L 766.945219 61.376423 
L 767.345842 61.376423 
L 767.479039 59.913827 
L 767.877601 59.913827 
L 768.010114 59.195384 
L 768.670141 53.081665 
L 768.801642 53.081665 
L 768.932976 52.438453 
L 769.064143 52.438453 
L 769.195143 51.17189 
L 769.71749 51.17189 
L 769.847666 52.438453 
L 769.977677 51.17189 
L 770.107525 52.438453 
L 770.496092 52.438453 
L 770.62529 51.17189 
L 770.754327 51.17189 
L 770.883202 50.548269 
L 771.011918 49.319705 
L 771.268868 51.17189 
L 771.397104 50.548269 
L 771.52518 51.17189 
L 771.653099 52.438453 
L 771.780859 51.17189 
L 771.908461 51.17189 
L 772.035906 53.081665 
L 772.163193 53.081665 
L 772.290324 54.388653 
L 772.417299 54.388653 
L 772.544118 53.081665 
L 772.797289 53.081665 
L 772.923643 54.388653 
L 773.049842 53.081665 
L 773.928944 53.081665 
L 774.053922 51.17189 
L 774.303424 51.17189 
L 774.42795 52.438453 
L 774.800628 52.438453 
L 774.924556 51.17189 
L 775.048336 51.17189 
L 775.171967 52.438453 
L 775.295451 52.438453 
L 775.418787 53.081665 
L 775.541976 53.081665 
L 775.910663 56.402806 
L 776.033267 54.388653 
L 776.27804 56.402806 
L 776.522234 56.402806 
L 776.644115 57.783226 
L 776.765852 57.783226 
L 776.887445 56.402806 
L 777.008896 57.783226 
L 777.130205 57.783226 
L 777.25137 56.402806 
L 777.372394 56.402806 
L 777.493277 54.388653 
L 777.855077 54.388653 
L 777.975396 53.081665 
L 778.095575 53.081665 
L 778.215615 52.438453 
L 778.335515 52.438453 
L 778.455276 53.081665 
L 778.694382 53.081665 
L 778.813728 54.388653 
L 778.932937 54.388653 
L 779.289738 51.17189 
L 779.408399 50.548269 
L 779.526923 51.17189 
L 779.645311 51.17189 
L 779.763564 50.548269 
L 779.881682 50.548269 
L 779.999665 49.319705 
L 780.117513 50.548269 
L 780.470253 47.521738 
L 780.587566 48.115232 
L 780.821793 48.115232 
L 780.938707 47.521738 
L 781.055489 47.521738 
L 781.17214 48.115232 
L 781.405046 51.17189 
L 781.521303 52.438453 
L 781.753424 52.438453 
L 781.869289 53.081665 
L 781.985025 54.388653 
L 782.561765 54.388653 
L 782.676728 55.724057 
L 782.791563 54.388653 
L 783.02085 54.388653 
L 783.24963 56.402806 
L 783.36383 56.402806 
L 783.477904 55.724057 
L 783.591852 53.081665 
L 783.705674 54.388653 
L 783.819372 54.388653 
L 783.932944 53.081665 
L 784.272913 56.402806 
L 784.498939 56.402806 
L 784.837054 54.388653 
L 784.949513 55.724057 
L 785.174066 55.724057 
L 785.286159 56.402806 
L 785.621711 54.388653 
L 786.067424 54.388653 
L 786.289562 52.438453 
L 786.400452 53.081665 
L 786.621875 54.388653 
L 786.842825 52.438453 
L 786.953122 52.438453 
L 787.173365 51.17189 
L 787.39314 51.17189 
L 787.502852 50.548269 
L 787.612448 51.17189 
L 787.831291 53.081665 
L 788.049671 53.081665 
L 788.267591 52.438453 
L 788.810388 52.438453 
L 788.918605 51.17189 
L 789.134702 52.438453 
L 789.350347 50.548269 
L 789.458001 51.17189 
L 789.672972 50.548269 
L 789.780291 51.17189 
L 789.887498 50.548269 
L 790.101578 52.438453 
L 790.208453 51.17189 
L 790.42187 52.438453 
L 790.741171 49.319705 
L 790.847386 49.319705 
L 791.059489 51.17189 
L 791.165377 51.17189 
L 791.376828 52.438453 
L 791.587848 51.17189 
L 791.798437 50.548269 
L 792.008598 51.17189 
L 792.218332 51.17189 
L 792.42764 52.438453 
L 792.84499 47.521738 
L 792.949065 47.521738 
L 793.053035 46.351681 
L 793.260661 47.521738 
L 793.364317 47.521738 
L 793.46787 46.351681 
L 793.674665 48.115232 
L 793.881046 47.521738 
L 794.087016 47.521738 
L 794.395203 45.203495 
L 794.497728 45.203495 
L 794.906814 43.520482 
L 795.110751 44.637352 
L 795.212568 44.637352 
L 795.314286 45.203495 
L 795.51742 44.637352 
L 795.821375 46.351681 
L 796.023516 45.203495 
L 796.72791 45.203495 
L 797.028329 48.115232 
L 797.228124 46.351681 
L 797.327876 47.521738 
L 797.427533 46.351681 
L 797.626558 47.521738 
L 797.725927 47.521738 
L 798.023461 43.520482 
L 798.221342 44.637352 
L 798.812721 44.637352 
L 799.009098 45.203495 
L 799.107146 45.203495 
L 799.205101 46.351681 
L 799.302964 44.637352 
L 799.498411 45.203495 
L 799.8882 45.203495 
L 800.082544 44.637352 
L 800.276524 45.203495 
L 800.373377 44.637352 
L 800.566811 45.203495 
L 800.952597 45.203495 
L 801.624273 41.882354 
L 801.815382 41.882354 
L 802.006137 40.814047 
L 802.196541 39.245634 
L 802.386594 40.28678 
L 802.481489 40.28678 
L 802.576298 40.814047 
L 802.765655 40.28678 
L 802.954665 40.28678 
L 803.143329 40.814047 
L 803.33165 40.814047 
L 803.425682 40.28678 
L 803.613489 41.882354 
L 803.988082 38.221842 
L 804.081519 38.221842 
L 804.174871 37.716274 
L 804.361322 38.221842 
L 804.454421 40.28678 
L 804.640369 38.221842 
L 804.733217 39.245634 
L 804.825983 37.716274 
L 805.011263 39.245634 
L 805.288563 35.734613 
L 805.38083 35.249029 
L 805.473016 36.717453 
L 805.657141 35.734613 
L 805.74908 35.734613 
L 805.840938 35.249029 
L 806.299005 38.221842 
L 806.390375 39.245634 
L 806.572873 38.221842 
L 807.118441 38.221842 
L 807.299658 37.716274 
L 807.751316 37.716274 
L 807.931428 40.28678 
L 808.021366 40.28678 
L 808.201007 41.882354 
L 808.380337 44.637352 
L 808.648749 42.423557 
L 808.738065 42.423557 
L 808.916466 41.882354 
L 809.094559 42.423557 
L 809.272346 40.814047 
L 809.449827 41.882354 
L 809.715478 43.520482 
L 809.803876 42.423557 
L 809.980447 45.203495 
L 810.06862 45.203495 
L 810.244739 46.351681 
L 810.332686 46.351681 
L 810.420558 45.203495 
L 810.596079 46.351681 
L 810.858802 46.351681 
L 811.033581 44.637352 
L 811.120859 44.637352 
L 811.208064 43.520482 
L 811.382252 45.203495 
L 811.556148 43.520482 
L 811.642986 43.520482 
L 811.816444 41.882354 
L 811.903063 41.882354 
L 811.98961 42.423557 
L 812.162487 40.28678 
L 812.335075 41.882354 
L 812.507376 40.814047 
L 812.679389 40.28678 
L 812.765288 40.814047 
L 812.851116 39.245634 
L 812.936873 40.28678 
L 813.108173 39.245634 
L 813.193716 40.28678 
L 813.535184 36.717453 
L 813.620375 36.717453 
L 813.705496 35.249029 
L 813.875527 35.734613 
L 813.960438 35.734613 
L 814.045279 36.717453 
L 814.214752 35.734613 
L 814.72151 35.734613 
L 814.805728 36.717453 
L 814.97396 35.734613 
L 815.141917 35.249029 
L 815.225794 35.249029 
L 815.393343 34.289226 
L 815.477015 33.81489 
L 815.644158 34.289226 
L 815.727628 34.289226 
L 815.894365 35.249029 
L 815.977633 35.249029 
L 816.143968 33.81489 
L 816.227035 33.81489 
L 816.310036 32.877068 
L 816.475836 35.249029 
L 816.641372 34.289226 
L 816.889178 32.877068 
L 817.054053 34.289226 
L 817.218665 32.877068 
L 817.465092 30.593305 
L 817.547103 30.593305 
L 817.710932 31.496647 
L 817.792749 31.496647 
L 817.956189 29.262723 
L 818.037812 29.703056 
L 818.11937 30.593305 
L 818.200865 29.703056 
L 818.282295 30.593305 
L 818.5262 28.391416 
L 818.688485 27.960353 
L 818.850514 27.960353 
L 819.01229 28.391416 
L 819.335084 25.024757 
L 819.415625 25.024757 
L 819.576519 23.808358 
L 819.737163 23.808358 
L 819.977661 22.223079 
L 820.057703 23.010605 
L 820.217601 22.223079 
L 820.377251 22.223079 
L 820.456984 23.808358 
L 820.536656 23.010605 
L 820.695814 23.808358 
L 820.854728 23.010605 
L 821.013398 23.010605 
L 821.171824 23.808358 
L 821.487949 23.808358 
L 821.80311 27.107199 
L 822.038852 27.107199 
L 822.117313 26.265732 
L 822.352339 28.391416 
L 822.508726 28.391416 
L 822.586831 29.262723 
L 822.664877 28.391416 
L 822.820793 29.703056 
L 823.209555 27.107199 
L 823.364651 26.265732 
L 823.442112 25.849281 
L 823.596859 26.265732 
L 823.674146 26.265732 
L 823.751375 27.107199 
L 823.982717 25.024757 
L 824.059715 25.849281 
L 824.213541 23.808358 
L 824.290368 23.808358 
L 824.367138 24.211154 
L 824.826563 22.223079 
L 824.979252 23.010605 
L 825.055512 22.223079 
L 825.207863 23.010605 
L 825.359989 23.010605 
L 825.511892 22.223079 
L 825.663572 22.223079 
L 825.739329 21.833071 
L 825.890675 22.223079 
L 826.0418 21.060405 
L 826.192704 21.833071 
L 826.644099 21.833071 
L 826.71914 22.223079 
L 826.794126 21.833071 
L 826.943936 23.010605 
L 827.168245 23.010605 
L 827.317513 22.223079 
L 827.392067 22.223079 
L 827.541013 21.833071 
L 827.615405 21.833071 
L 827.689744 22.223079 
L 827.838262 21.060405 
L 827.91244 22.223079 
L 827.986566 21.833071 
L 828.060638 21.833071 
L 828.282537 20.677686 
L 828.356398 20.677686 
L 828.503961 21.060405 
L 828.577663 21.060405 
L 828.72491 20.677686 
L 828.871948 21.060405 
L 829.018777 21.060405 
L 829.238629 22.223079 
L 829.311809 22.223079 
L 829.604013 24.211154 
L 829.676935 24.211154 
L 829.749805 23.808358 
L 830.185952 25.849281 
L 830.258464 25.849281 
L 830.330926 26.265732 
L 830.475697 25.024757 
L 830.692473 25.024757 
L 830.836738 26.265732 
L 831.052759 25.024757 
L 831.411793 27.960353 
L 831.48345 27.960353 
L 831.769583 25.849281 
L 831.840993 25.849281 
L 832.054926 24.211154 
L 832.126139 24.211154 
L 832.268417 25.024757 
L 832.410499 25.024757 
L 832.552386 25.849281 
L 832.694079 25.024757 
L 832.835578 25.849281 
L 833.117995 23.808358 
L 833.188478 23.808358 
L 833.258914 22.223079 
L 833.329302 23.010605 
L 833.540178 21.833071 
L 833.610374 21.833071 
L 833.750624 21.060405 
L 833.890683 21.060405 
L 834.170234 23.010605 
L 834.309726 23.010605 
L 834.44903 22.223079 
L 834.518612 22.223079 
L 834.588147 21.833071 
L 834.657635 22.223079 
L 834.727076 21.060405 
L 834.93512 22.223079 
L 835.211862 22.223079 
L 835.280932 21.060405 
L 835.418933 21.833071 
L 835.556751 21.833071 
L 835.62559 21.060405 
L 835.763132 21.833071 
L 835.900491 21.833071 
L 836.106188 23.010605 
L 836.379814 21.060405 
L 836.516356 20.677686 
L 836.652718 21.833071 
L 836.7889 21.833071 
L 836.992836 20.677686 
L 837.128571 20.677686 
L 837.467129 23.010605 
L 837.534707 22.223079 
L 837.737178 23.808358 
L 837.804581 23.010605 
L 837.939253 23.808358 
L 838.073751 23.808358 
L 838.140934 23.010605 
L 838.208073 23.808358 
L 838.40923 22.223079 
L 838.810372 25.849281 
L 839.076937 25.849281 
L 839.143471 26.265732 
L 839.409179 25.024757 
L 839.541777 25.849281 
L 839.674205 24.211154 
L 839.938553 26.265732 
L 840.004535 26.265732 
L 840.136371 27.107199 
L 840.202226 27.107199 
L 840.465228 29.262723 
L 840.530874 29.703056 
L 840.793042 28.391416 
L 840.85848 28.391416 
L 840.989232 27.960353 
L 841.054545 27.960353 
L 841.054545 27.960353 
" style="fill:none;stroke:#0000ff;stroke-linecap:square;stroke-width:1.5;"/>
   </g>
   <g id="patch_3">
    <path d="M 42.1 303.709091 
L 42.1 7.2 
" style="fill:none;stroke:#000000;stroke-linecap:square;stroke-linejoin:miter;stroke-width:0.8;"/>
   </g>
   <g id="patch_4">
    <path d="M 879.1 303.709091 
L 879.1 7.2 
" style="fill:none;stroke:#000000;stroke-linecap:square;stroke-linejoin:miter;stroke-width:0.8;"/>
   </g>
   <g id="patch_5">
    <path d="M 42.1 303.709091 
L 879.1 303.709091 
" style="fill:none;stroke:#000000;stroke-linecap:square;stroke-linejoin:miter;stroke-width:0.8;"/>
   </g>
   <g id="patch_6">
    <path d="M 42.1 7.2 
L 879.1 7.2 
" style="fill:none;stroke:#000000;stroke-linecap:square;stroke-linejoin:miter;stroke-width:0.8;"/>
   </g>
  </g>
  <g id="axes_2">
   <g id="patch_7">
    <path d="M 42.1 659.52 
L 879.1 659.52 
L 879.1 363.010909 
L 42.1 363.010909 
z
" style="fill:#ffffff;"/>
   </g>
   <g id="matplotlib.axis_3">
    <g id="xtick_33">
     <g id="line2d_59">
      <path clip-path="url(#p56aec7acdc)" d="M 80.145455 659.52 
L 80.145455 363.010909 
" style="fill:none;stroke:#666666;stroke-linecap:square;stroke-opacity:0.3;stroke-width:0.8;"/>
     </g>
     <g id="line2d_60">
      <g>
       <use style="stroke:#000000;stroke-width:0.8;" x="80.145455" xlink:href="#m51b35b075e" y="659.52"/>
      </g>
     </g>
     <g id="text_7">
      <!-- $\mathdefault{10^{0}}$ -->
      <g transform="translate(71.345455 674.118438)scale(0.1 -0.1)">
       <use transform="translate(0 0.765625)" xlink:href="#DejaVuSans-49"/>
       <use transform="translate(63.623047 0.765625)" xlink:href="#DejaVuSans-48"/>
       <use transform="translate(128.203125 39.046875)scale(0.7)" xlink:href="#DejaVuSans-48"/>
      </g>
     </g>
    </g>
    <g id="xtick_34">
     <g id="line2d_61">
      <path clip-path="url(#p56aec7acdc)" d="M 317.988525 659.52 
L 317.988525 363.010909 
" style="fill:none;stroke:#666666;stroke-linecap:square;stroke-opacity:0.3;stroke-width:0.8;"/>
     </g>
     <g id="line2d_62">
      <g>
       <use style="stroke:#000000;stroke-width:0.8;" x="317.988525" xlink:href="#m51b35b075e" y="659.52"/>
      </g>
     </g>
     <g id="text_8">
      <!-- $\mathdefault{10^{1}}$ -->
      <g transform="translate(309.188525 674.118438)scale(0.1 -0.1)">
       <use transform="translate(0 0.684375)" xlink:href="#DejaVuSans-49"/>
       <use transform="translate(63.623047 0.684375)" xlink:href="#DejaVuSans-48"/>
       <use transform="translate(128.203125 38.965625)scale(0.7)" xlink:href="#DejaVuSans-49"/>
      </g>
     </g>
    </g>
    <g id="xtick_35">
     <g id="line2d_63">
      <path clip-path="url(#p56aec7acdc)" d="M 555.831595 659.52 
L 555.831595 363.010909 
" style="fill:none;stroke:#666666;stroke-linecap:square;stroke-opacity:0.3;stroke-width:0.8;"/>
     </g>
     <g id="line2d_64">
      <g>
       <use style="stroke:#000000;stroke-width:0.8;" x="555.831595" xlink:href="#m51b35b075e" y="659.52"/>
      </g>
     </g>
     <g id="text_9">
      <!-- $\mathdefault{10^{2}}$ -->
      <g transform="translate(547.031595 674.118438)scale(0.1 -0.1)">
       <use transform="translate(0 0.765625)" xlink:href="#DejaVuSans-49"/>
       <use transform="translate(63.623047 0.765625)" xlink:href="#DejaVuSans-48"/>
       <use transform="translate(128.203125 39.046875)scale(0.7)" xlink:href="#DejaVuSans-50"/>
      </g>
     </g>
    </g>
    <g id="xtick_36">
     <g id="line2d_65">
      <path clip-path="url(#p56aec7acdc)" d="M 793.674665 659.52 
L 793.674665 363.010909 
" style="fill:none;stroke:#666666;stroke-linecap:square;stroke-opacity:0.3;stroke-width:0.8;"/>
     </g>
     <g id="line2d_66">
      <g>
       <use style="stroke:#000000;stroke-width:0.8;" x="793.674665" xlink:href="#m51b35b075e" y="659.52"/>
      </g>
     </g>
     <g id="text_10">
      <!-- $\mathdefault{10^{3}}$ -->
      <g transform="translate(784.874665 674.118438)scale(0.1 -0.1)">
       <use transform="translate(0 0.765625)" xlink:href="#DejaVuSans-49"/>
       <use transform="translate(63.623047 0.765625)" xlink:href="#DejaVuSans-48"/>
       <use transform="translate(128.203125 39.046875)scale(0.7)" xlink:href="#DejaVuSans-51"/>
      </g>
     </g>
    </g>
    <g id="xtick_37">
     <g id="line2d_67">
      <g>
       <use style="stroke:#000000;stroke-width:0.6;" x="43.303097" xlink:href="#mc0d3bf0044" y="659.52"/>
      </g>
     </g>
    </g>
    <g id="xtick_38">
     <g id="line2d_68">
      <g>
       <use style="stroke:#000000;stroke-width:0.6;" x="57.09608" xlink:href="#mc0d3bf0044" y="659.52"/>
      </g>
     </g>
    </g>
    <g id="xtick_39">
     <g id="line2d_69">
      <g>
       <use style="stroke:#000000;stroke-width:0.6;" x="69.262353" xlink:href="#mc0d3bf0044" y="659.52"/>
      </g>
     </g>
    </g>
    <g id="xtick_40">
     <g id="line2d_70">
      <g>
       <use style="stroke:#000000;stroke-width:0.6;" x="151.743353" xlink:href="#mc0d3bf0044" y="659.52"/>
      </g>
     </g>
    </g>
    <g id="xtick_41">
     <g id="line2d_71">
      <g>
       <use style="stroke:#000000;stroke-width:0.6;" x="193.625439" xlink:href="#mc0d3bf0044" y="659.52"/>
      </g>
     </g>
    </g>
    <g id="xtick_42">
     <g id="line2d_72">
      <g>
       <use style="stroke:#000000;stroke-width:0.6;" x="223.341251" xlink:href="#mc0d3bf0044" y="659.52"/>
      </g>
     </g>
    </g>
    <g id="xtick_43">
     <g id="line2d_73">
      <g>
       <use style="stroke:#000000;stroke-width:0.6;" x="246.390626" xlink:href="#mc0d3bf0044" y="659.52"/>
      </g>
     </g>
    </g>
    <g id="xtick_44">
     <g id="line2d_74">
      <g>
       <use style="stroke:#000000;stroke-width:0.6;" x="265.223337" xlink:href="#mc0d3bf0044" y="659.52"/>
      </g>
     </g>
    </g>
    <g id="xtick_45">
     <g id="line2d_75">
      <g>
       <use style="stroke:#000000;stroke-width:0.6;" x="281.146167" xlink:href="#mc0d3bf0044" y="659.52"/>
      </g>
     </g>
    </g>
    <g id="xtick_46">
     <g id="line2d_76">
      <g>
       <use style="stroke:#000000;stroke-width:0.6;" x="294.93915" xlink:href="#mc0d3bf0044" y="659.52"/>
      </g>
     </g>
    </g>
    <g id="xtick_47">
     <g id="line2d_77">
      <g>
       <use style="stroke:#000000;stroke-width:0.6;" x="307.105423" xlink:href="#mc0d3bf0044" y="659.52"/>
      </g>
     </g>
    </g>
    <g id="xtick_48">
     <g id="line2d_78">
      <g>
       <use style="stroke:#000000;stroke-width:0.6;" x="389.586423" xlink:href="#mc0d3bf0044" y="659.52"/>
      </g>
     </g>
    </g>
    <g id="xtick_49">
     <g id="line2d_79">
      <g>
       <use style="stroke:#000000;stroke-width:0.6;" x="431.468509" xlink:href="#mc0d3bf0044" y="659.52"/>
      </g>
     </g>
    </g>
    <g id="xtick_50">
     <g id="line2d_80">
      <g>
       <use style="stroke:#000000;stroke-width:0.6;" x="461.184321" xlink:href="#mc0d3bf0044" y="659.52"/>
      </g>
     </g>
    </g>
    <g id="xtick_51">
     <g id="line2d_81">
      <g>
       <use style="stroke:#000000;stroke-width:0.6;" x="484.233696" xlink:href="#mc0d3bf0044" y="659.52"/>
      </g>
     </g>
    </g>
    <g id="xtick_52">
     <g id="line2d_82">
      <g>
       <use style="stroke:#000000;stroke-width:0.6;" x="503.066407" xlink:href="#mc0d3bf0044" y="659.52"/>
      </g>
     </g>
    </g>
    <g id="xtick_53">
     <g id="line2d_83">
      <g>
       <use style="stroke:#000000;stroke-width:0.6;" x="518.989237" xlink:href="#mc0d3bf0044" y="659.52"/>
      </g>
     </g>
    </g>
    <g id="xtick_54">
     <g id="line2d_84">
      <g>
       <use style="stroke:#000000;stroke-width:0.6;" x="532.78222" xlink:href="#mc0d3bf0044" y="659.52"/>
      </g>
     </g>
    </g>
    <g id="xtick_55">
     <g id="line2d_85">
      <g>
       <use style="stroke:#000000;stroke-width:0.6;" x="544.948493" xlink:href="#mc0d3bf0044" y="659.52"/>
      </g>
     </g>
    </g>
    <g id="xtick_56">
     <g id="line2d_86">
      <g>
       <use style="stroke:#000000;stroke-width:0.6;" x="627.429493" xlink:href="#mc0d3bf0044" y="659.52"/>
      </g>
     </g>
    </g>
    <g id="xtick_57">
     <g id="line2d_87">
      <g>
       <use style="stroke:#000000;stroke-width:0.6;" x="669.311579" xlink:href="#mc0d3bf0044" y="659.52"/>
      </g>
     </g>
    </g>
    <g id="xtick_58">
     <g id="line2d_88">
      <g>
       <use style="stroke:#000000;stroke-width:0.6;" x="699.027391" xlink:href="#mc0d3bf0044" y="659.52"/>
      </g>
     </g>
    </g>
    <g id="xtick_59">
     <g id="line2d_89">
      <g>
       <use style="stroke:#000000;stroke-width:0.6;" x="722.076767" xlink:href="#mc0d3bf0044" y="659.52"/>
      </g>
     </g>
    </g>
    <g id="xtick_60">
     <g id="line2d_90">
      <g>
       <use style="stroke:#000000;stroke-width:0.6;" x="740.909477" xlink:href="#mc0d3bf0044" y="659.52"/>
      </g>
     </g>
    </g>
    <g id="xtick_61">
     <g id="line2d_91">
      <g>
       <use style="stroke:#000000;stroke-width:0.6;" x="756.832307" xlink:href="#mc0d3bf0044" y="659.52"/>
      </g>
     </g>
    </g>
    <g id="xtick_62">
     <g id="line2d_92">
      <g>
       <use style="stroke:#000000;stroke-width:0.6;" x="770.62529" xlink:href="#mc0d3bf0044" y="659.52"/>
      </g>
     </g>
    </g>
    <g id="xtick_63">
     <g id="line2d_93">
      <g>
       <use style="stroke:#000000;stroke-width:0.6;" x="782.791563" xlink:href="#mc0d3bf0044" y="659.52"/>
      </g>
     </g>
    </g>
    <g id="xtick_64">
     <g id="line2d_94">
      <g>
       <use style="stroke:#000000;stroke-width:0.6;" x="865.272563" xlink:href="#mc0d3bf0044" y="659.52"/>
      </g>
     </g>
    </g>
   </g>
   <g id="matplotlib.axis_4">
    <g id="ytick_20">
     <g id="line2d_95">
      <path clip-path="url(#p56aec7acdc)" d="M 42.1 608.709082 
L 879.1 608.709082 
" style="fill:none;stroke:#666666;stroke-linecap:square;stroke-opacity:0.3;stroke-width:0.8;"/>
     </g>
     <g id="line2d_96">
      <g>
       <use style="stroke:#000000;stroke-width:0.8;" x="42.1" xlink:href="#m037f55111e" y="608.709082"/>
      </g>
     </g>
     <g id="text_11">
      <!-- $\mathdefault{10^{-15}}$ -->
      <g transform="translate(7.2 612.508301)scale(0.1 -0.1)">
       <use transform="translate(0 0.684375)" xlink:href="#DejaVuSans-49"/>
       <use transform="translate(63.623047 0.684375)" xlink:href="#DejaVuSans-48"/>
       <use transform="translate(128.203125 38.965625)scale(0.7)" xlink:href="#DejaVuSans-8722"/>
       <use transform="translate(186.855469 38.965625)scale(0.7)" xlink:href="#DejaVuSans-49"/>
       <use transform="translate(231.391602 38.965625)scale(0.7)" xlink:href="#DejaVuSans-53"/>
      </g>
     </g>
    </g>
    <g id="ytick_21">
     <g id="line2d_97">
      <path clip-path="url(#p56aec7acdc)" d="M 42.1 551.586179 
L 879.1 551.586179 
" style="fill:none;stroke:#666666;stroke-linecap:square;stroke-opacity:0.3;stroke-width:0.8;"/>
     </g>
     <g id="line2d_98">
      <g>
       <use style="stroke:#000000;stroke-width:0.8;" x="42.1" xlink:href="#m037f55111e" y="551.586179"/>
      </g>
     </g>
     <g id="text_12">
      <!-- $\mathdefault{10^{-14}}$ -->
      <g transform="translate(7.2 555.385398)scale(0.1 -0.1)">
       <use transform="translate(0 0.684375)" xlink:href="#DejaVuSans-49"/>
       <use transform="translate(63.623047 0.684375)" xlink:href="#DejaVuSans-48"/>
       <use transform="translate(128.203125 38.965625)scale(0.7)" xlink:href="#DejaVuSans-8722"/>
       <use transform="translate(186.855469 38.965625)scale(0.7)" xlink:href="#DejaVuSans-49"/>
       <use transform="translate(231.391602 38.965625)scale(0.7)" xlink:href="#DejaVuSans-52"/>
      </g>
     </g>
    </g>
    <g id="ytick_22">
     <g id="line2d_99">
      <path clip-path="url(#p56aec7acdc)" d="M 42.1 494.463276 
L 879.1 494.463276 
" style="fill:none;stroke:#666666;stroke-linecap:square;stroke-opacity:0.3;stroke-width:0.8;"/>
     </g>
     <g id="line2d_100">
      <g>
       <use style="stroke:#000000;stroke-width:0.8;" x="42.1" xlink:href="#m037f55111e" y="494.463276"/>
      </g>
     </g>
     <g id="text_13">
      <!-- $\mathdefault{10^{-13}}$ -->
      <g transform="translate(7.2 498.262494)scale(0.1 -0.1)">
       <use transform="translate(0 0.765625)" xlink:href="#DejaVuSans-49"/>
       <use transform="translate(63.623047 0.765625)" xlink:href="#DejaVuSans-48"/>
       <use transform="translate(128.203125 39.046875)scale(0.7)" xlink:href="#DejaVuSans-8722"/>
       <use transform="translate(186.855469 39.046875)scale(0.7)" xlink:href="#DejaVuSans-49"/>
       <use transform="translate(231.391602 39.046875)scale(0.7)" xlink:href="#DejaVuSans-51"/>
      </g>
     </g>
    </g>
    <g id="ytick_23">
     <g id="line2d_101">
      <path clip-path="url(#p56aec7acdc)" d="M 42.1 437.340372 
L 879.1 437.340372 
" style="fill:none;stroke:#666666;stroke-linecap:square;stroke-opacity:0.3;stroke-width:0.8;"/>
     </g>
     <g id="line2d_102">
      <g>
       <use style="stroke:#000000;stroke-width:0.8;" x="42.1" xlink:href="#m037f55111e" y="437.340372"/>
      </g>
     </g>
     <g id="text_14">
      <!-- $\mathdefault{10^{-12}}$ -->
      <g transform="translate(7.2 441.139591)scale(0.1 -0.1)">
       <use transform="translate(0 0.765625)" xlink:href="#DejaVuSans-49"/>
       <use transform="translate(63.623047 0.765625)" xlink:href="#DejaVuSans-48"/>
       <use transform="translate(128.203125 39.046875)scale(0.7)" xlink:href="#DejaVuSans-8722"/>
       <use transform="translate(186.855469 39.046875)scale(0.7)" xlink:href="#DejaVuSans-49"/>
       <use transform="translate(231.391602 39.046875)scale(0.7)" xlink:href="#DejaVuSans-50"/>
      </g>
     </g>
    </g>
    <g id="ytick_24">
     <g id="line2d_103">
      <path clip-path="url(#p56aec7acdc)" d="M 42.1 380.217469 
L 879.1 380.217469 
" style="fill:none;stroke:#666666;stroke-linecap:square;stroke-opacity:0.3;stroke-width:0.8;"/>
     </g>
     <g id="line2d_104">
      <g>
       <use style="stroke:#000000;stroke-width:0.8;" x="42.1" xlink:href="#m037f55111e" y="380.217469"/>
      </g>
     </g>
     <g id="text_15">
      <!-- $\mathdefault{10^{-11}}$ -->
      <g transform="translate(7.2 384.016688)scale(0.1 -0.1)">
       <use transform="translate(0 0.684375)" xlink:href="#DejaVuSans-49"/>
       <use transform="translate(63.623047 0.684375)" xlink:href="#DejaVuSans-48"/>
       <use transform="translate(128.203125 38.965625)scale(0.7)" xlink:href="#DejaVuSans-8722"/>
       <use transform="translate(186.855469 38.965625)scale(0.7)" xlink:href="#DejaVuSans-49"/>
       <use transform="translate(231.391602 38.965625)scale(0.7)" xlink:href="#DejaVuSans-49"/>
      </g>
     </g>
    </g>
    <g id="ytick_25">
     <g id="line2d_105">
      <g>
       <use style="stroke:#000000;stroke-width:0.6;" x="42.1" xlink:href="#ma34c0d87d4" y="648.636278"/>
      </g>
     </g>
    </g>
    <g id="ytick_26">
     <g id="line2d_106">
      <g>
       <use style="stroke:#000000;stroke-width:0.6;" x="42.1" xlink:href="#ma34c0d87d4" y="638.577434"/>
      </g>
     </g>
    </g>
    <g id="ytick_27">
     <g id="line2d_107">
      <g>
       <use style="stroke:#000000;stroke-width:0.6;" x="42.1" xlink:href="#ma34c0d87d4" y="631.440571"/>
      </g>
     </g>
    </g>
    <g id="ytick_28">
     <g id="line2d_108">
      <g>
       <use style="stroke:#000000;stroke-width:0.6;" x="42.1" xlink:href="#ma34c0d87d4" y="625.90479"/>
      </g>
     </g>
    </g>
    <g id="ytick_29">
     <g id="line2d_109">
      <g>
       <use style="stroke:#000000;stroke-width:0.6;" x="42.1" xlink:href="#ma34c0d87d4" y="621.381727"/>
      </g>
     </g>
    </g>
    <g id="ytick_30">
     <g id="line2d_110">
      <g>
       <use style="stroke:#000000;stroke-width:0.6;" x="42.1" xlink:href="#ma34c0d87d4" y="617.557532"/>
      </g>
     </g>
    </g>
    <g id="ytick_31">
     <g id="line2d_111">
      <g>
       <use style="stroke:#000000;stroke-width:0.6;" x="42.1" xlink:href="#ma34c0d87d4" y="614.244864"/>
      </g>
     </g>
    </g>
    <g id="ytick_32">
     <g id="line2d_112">
      <g>
       <use style="stroke:#000000;stroke-width:0.6;" x="42.1" xlink:href="#ma34c0d87d4" y="611.322883"/>
      </g>
     </g>
    </g>
    <g id="ytick_33">
     <g id="line2d_113">
      <g>
       <use style="stroke:#000000;stroke-width:0.6;" x="42.1" xlink:href="#ma34c0d87d4" y="591.513375"/>
      </g>
     </g>
    </g>
    <g id="ytick_34">
     <g id="line2d_114">
      <g>
       <use style="stroke:#000000;stroke-width:0.6;" x="42.1" xlink:href="#ma34c0d87d4" y="581.454531"/>
      </g>
     </g>
    </g>
    <g id="ytick_35">
     <g id="line2d_115">
      <g>
       <use style="stroke:#000000;stroke-width:0.6;" x="42.1" xlink:href="#ma34c0d87d4" y="574.317668"/>
      </g>
     </g>
    </g>
    <g id="ytick_36">
     <g id="line2d_116">
      <g>
       <use style="stroke:#000000;stroke-width:0.6;" x="42.1" xlink:href="#ma34c0d87d4" y="568.781886"/>
      </g>
     </g>
    </g>
    <g id="ytick_37">
     <g id="line2d_117">
      <g>
       <use style="stroke:#000000;stroke-width:0.6;" x="42.1" xlink:href="#ma34c0d87d4" y="564.258824"/>
      </g>
     </g>
    </g>
    <g id="ytick_38">
     <g id="line2d_118">
      <g>
       <use style="stroke:#000000;stroke-width:0.6;" x="42.1" xlink:href="#ma34c0d87d4" y="560.434629"/>
      </g>
     </g>
    </g>
    <g id="ytick_39">
     <g id="line2d_119">
      <g>
       <use style="stroke:#000000;stroke-width:0.6;" x="42.1" xlink:href="#ma34c0d87d4" y="557.12196"/>
      </g>
     </g>
    </g>
    <g id="ytick_40">
     <g id="line2d_120">
      <g>
       <use style="stroke:#000000;stroke-width:0.6;" x="42.1" xlink:href="#ma34c0d87d4" y="554.19998"/>
      </g>
     </g>
    </g>
    <g id="ytick_41">
     <g id="line2d_121">
      <g>
       <use style="stroke:#000000;stroke-width:0.6;" x="42.1" xlink:href="#ma34c0d87d4" y="534.390472"/>
      </g>
     </g>
    </g>
    <g id="ytick_42">
     <g id="line2d_122">
      <g>
       <use style="stroke:#000000;stroke-width:0.6;" x="42.1" xlink:href="#ma34c0d87d4" y="524.331628"/>
      </g>
     </g>
    </g>
    <g id="ytick_43">
     <g id="line2d_123">
      <g>
       <use style="stroke:#000000;stroke-width:0.6;" x="42.1" xlink:href="#ma34c0d87d4" y="517.194764"/>
      </g>
     </g>
    </g>
    <g id="ytick_44">
     <g id="line2d_124">
      <g>
       <use style="stroke:#000000;stroke-width:0.6;" x="42.1" xlink:href="#ma34c0d87d4" y="511.658983"/>
      </g>
     </g>
    </g>
    <g id="ytick_45">
     <g id="line2d_125">
      <g>
       <use style="stroke:#000000;stroke-width:0.6;" x="42.1" xlink:href="#ma34c0d87d4" y="507.13592"/>
      </g>
     </g>
    </g>
    <g id="ytick_46">
     <g id="line2d_126">
      <g>
       <use style="stroke:#000000;stroke-width:0.6;" x="42.1" xlink:href="#ma34c0d87d4" y="503.311725"/>
      </g>
     </g>
    </g>
    <g id="ytick_47">
     <g id="line2d_127">
      <g>
       <use style="stroke:#000000;stroke-width:0.6;" x="42.1" xlink:href="#ma34c0d87d4" y="499.999057"/>
      </g>
     </g>
    </g>
    <g id="ytick_48">
     <g id="line2d_128">
      <g>
       <use style="stroke:#000000;stroke-width:0.6;" x="42.1" xlink:href="#ma34c0d87d4" y="497.077076"/>
      </g>
     </g>
    </g>
    <g id="ytick_49">
     <g id="line2d_129">
      <g>
       <use style="stroke:#000000;stroke-width:0.6;" x="42.1" xlink:href="#ma34c0d87d4" y="477.267568"/>
      </g>
     </g>
    </g>
    <g id="ytick_50">
     <g id="line2d_130">
      <g>
       <use style="stroke:#000000;stroke-width:0.6;" x="42.1" xlink:href="#ma34c0d87d4" y="467.208724"/>
      </g>
     </g>
    </g>
    <g id="ytick_51">
     <g id="line2d_131">
      <g>
       <use style="stroke:#000000;stroke-width:0.6;" x="42.1" xlink:href="#ma34c0d87d4" y="460.071861"/>
      </g>
     </g>
    </g>
    <g id="ytick_52">
     <g id="line2d_132">
      <g>
       <use style="stroke:#000000;stroke-width:0.6;" x="42.1" xlink:href="#ma34c0d87d4" y="454.53608"/>
      </g>
     </g>
    </g>
    <g id="ytick_53">
     <g id="line2d_133">
      <g>
       <use style="stroke:#000000;stroke-width:0.6;" x="42.1" xlink:href="#ma34c0d87d4" y="450.013017"/>
      </g>
     </g>
    </g>
    <g id="ytick_54">
     <g id="line2d_134">
      <g>
       <use style="stroke:#000000;stroke-width:0.6;" x="42.1" xlink:href="#ma34c0d87d4" y="446.188822"/>
      </g>
     </g>
    </g>
    <g id="ytick_55">
     <g id="line2d_135">
      <g>
       <use style="stroke:#000000;stroke-width:0.6;" x="42.1" xlink:href="#ma34c0d87d4" y="442.876154"/>
      </g>
     </g>
    </g>
    <g id="ytick_56">
     <g id="line2d_136">
      <g>
       <use style="stroke:#000000;stroke-width:0.6;" x="42.1" xlink:href="#ma34c0d87d4" y="439.954173"/>
      </g>
     </g>
    </g>
    <g id="ytick_57">
     <g id="line2d_137">
      <g>
       <use style="stroke:#000000;stroke-width:0.6;" x="42.1" xlink:href="#ma34c0d87d4" y="420.144665"/>
      </g>
     </g>
    </g>
    <g id="ytick_58">
     <g id="line2d_138">
      <g>
       <use style="stroke:#000000;stroke-width:0.6;" x="42.1" xlink:href="#ma34c0d87d4" y="410.085821"/>
      </g>
     </g>
    </g>
    <g id="ytick_59">
     <g id="line2d_139">
      <g>
       <use style="stroke:#000000;stroke-width:0.6;" x="42.1" xlink:href="#ma34c0d87d4" y="402.948958"/>
      </g>
     </g>
    </g>
    <g id="ytick_60">
     <g id="line2d_140">
      <g>
       <use style="stroke:#000000;stroke-width:0.6;" x="42.1" xlink:href="#ma34c0d87d4" y="397.413177"/>
      </g>
     </g>
    </g>
    <g id="ytick_61">
     <g id="line2d_141">
      <g>
       <use style="stroke:#000000;stroke-width:0.6;" x="42.1" xlink:href="#ma34c0d87d4" y="392.890114"/>
      </g>
     </g>
    </g>
    <g id="ytick_62">
     <g id="line2d_142">
      <g>
       <use style="stroke:#000000;stroke-width:0.6;" x="42.1" xlink:href="#ma34c0d87d4" y="389.065919"/>
      </g>
     </g>
    </g>
    <g id="ytick_63">
     <g id="line2d_143">
      <g>
       <use style="stroke:#000000;stroke-width:0.6;" x="42.1" xlink:href="#ma34c0d87d4" y="385.753251"/>
      </g>
     </g>
    </g>
    <g id="ytick_64">
     <g id="line2d_144">
      <g>
       <use style="stroke:#000000;stroke-width:0.6;" x="42.1" xlink:href="#ma34c0d87d4" y="382.83127"/>
      </g>
     </g>
    </g>
    <g id="ytick_65">
     <g id="line2d_145">
      <g>
       <use style="stroke:#000000;stroke-width:0.6;" x="42.1" xlink:href="#ma34c0d87d4" y="363.021762"/>
      </g>
     </g>
    </g>
   </g>
   <g id="line2d_146">
    <path clip-path="url(#p56aec7acdc)" d="M 151.694513 684.398125 
L 151.743353 646.042314 
L 193.625439 628.846607 
L 223.341251 646.042314 
L 223.356974 684.398125 
M 265.201373 684.398125 
L 265.223337 618.787763 
L 294.93915 618.787763 
L 307.105423 601.592055 
L 317.988525 597.76786 
L 327.833488 570.513309 
L 336.821235 566.187922 
L 345.089161 562.505895 
L 352.744065 555.800488 
L 359.87061 555.800488 
L 366.537048 569.359233 
L 372.799204 591.533211 
L 378.703321 591.533211 
L 384.288137 568.256467 
L 389.586423 588.919411 
L 394.626151 573.657786 
L 399.431386 558.559792 
L 404.022984 551.606016 
L 408.419134 561.66486 
L 412.635798 562.505895 
L 416.68706 567.200641 
L 420.585407 551.060759 
L 424.341964 557.840665 
L 427.966684 571.723703 
L 431.468509 582.410636 
L 434.855498 566.187922 
L 438.134946 560.851404 
L 441.313472 561.66486 
L 444.397102 563.823452 
L 447.391339 623.310825 
L 450.301219 588.919411 
L 453.131367 548.258915 
L 455.886035 549.747852 
L 458.569145 575.036372 
L 461.184321 572.996196 
L 463.734918 575.036372 
L 466.224049 547.54667 
L 468.654607 554.527996 
L 471.029285 550.264707 
L 473.350594 535.39433 
L 475.620882 599.606343 
L 477.842343 567.200641 
L 480.017032 566.187922 
L 482.146879 599.606343 
L 484.233696 551.331889 
L 486.279188 528.329271 
L 488.284958 516.069924 
L 490.252521 531.183929 
L 492.183305 549.241545 
L 494.07866 541.364085 
L 495.939862 556.462079 
L 497.768121 532.424596 
L 499.564582 535.251343 
L 501.330334 529.432037 
L 503.066407 531.063208 
L 504.773784 524.721742 
L 506.453397 534.136182 
L 508.106135 524.628653 
L 509.732845 524.628653 
L 511.334333 530.002365 
L 512.91137 539.434563 
L 514.464692 563.376446 
L 515.995 574.337504 
L 517.502968 544.676753 
L 518.989237 525.097631 
L 520.454424 515.101992 
L 521.899118 498.321093 
L 523.323884 495.467134 
L 524.729266 496.641705 
L 526.115782 495.238749 
L 527.483934 490.706216 
L 528.8342 490.872475 
L 530.167044 501.436889 
L 531.482908 513.213835 
L 532.78222 506.836236 
L 534.065391 498.514908 
L 535.332817 496.913826 
L 536.58488 496.853096 
L 537.821948 496.165183 
L 539.044375 494.816113 
L 540.252505 490.635302 
L 541.446668 486.997266 
L 542.627183 487.679249 
L 543.794359 488.727788 
L 544.948493 487.366931 
L 546.089874 488.272977 
L 547.21878 487.574706 
L 549.440241 487.700211 
L 550.533309 489.191093 
L 551.61493 483.257666 
L 552.685343 482.6344 
L 553.744778 485.49448 
L 554.793456 482.892194 
L 555.831595 484.906716 
L 556.859404 484.295966 
L 557.877086 484.962992 
L 558.88484 484.962992 
L 559.882856 485.341461 
L 560.871323 485.881209 
L 561.850419 487.931966 
L 562.820323 488.488514 
L 563.781203 488.596989 
L 564.733228 491.18423 
L 565.676558 490.991918 
L 566.611351 486.096508 
L 567.53776 492.4974 
L 568.455935 496.913826 
L 569.366019 498.033181 
L 570.268155 490.991918 
L 572.049129 484.775901 
L 572.928232 480.678955 
L 573.799916 485.00058 
L 574.664305 482.227421 
L 575.521521 478.837086 
L 576.371682 476.796138 
L 577.214902 477.108879 
L 578.051295 476.47395 
L 578.88097 474.402204 
L 579.704033 475.212797 
L 580.52059 477.481112 
L 581.330743 478.603459 
L 582.134591 477.122566 
L 582.932231 476.50064 
L 583.72376 475.288974 
L 584.509269 473.076399 
L 585.288849 468.088614 
L 586.06259 468.753803 
L 586.830578 474.231029 
L 587.592899 476.447289 
L 588.349634 473.880164 
L 589.100866 480.678955 
L 589.846674 499.372723 
L 590.587135 508.67123 
L 591.322327 559.300389 
L 592.052322 558.927327 
L 592.777195 550.52723 
L 593.497016 532.680352 
L 594.211856 527.901533 
L 594.921783 562.937352 
L 595.626863 528.764513 
L 596.327164 569.359233 
L 597.022749 534.410308 
L 597.71368 567.200641 
L 598.400021 545.524978 
L 599.081832 513.627806 
L 599.759172 520.606151 
L 600.432099 544.886106 
L 601.10067 506.927109 
L 601.764942 491.451117 
L 602.42497 503.648603 
L 603.080806 487.700211 
L 603.732505 491.597912 
L 604.380118 502.786306 
L 605.023696 508.379937 
L 605.663289 546.180738 
L 606.298946 519.373193 
L 606.930715 560.063777 
L 607.558644 536.71971 
L 608.182778 554.527996 
L 608.803164 524.628653 
L 609.419846 516.940475 
L 610.032868 563.376446 
L 610.642274 579.701602 
L 611.248105 579.701602 
L 611.850404 533.463833 
L 612.449211 531.672776 
L 613.044566 566.187922 
L 613.63651 537.332289 
L 614.225081 496.611652 
L 614.810318 499.138839 
L 615.970936 474.797956 
L 617.118658 484.314254 
L 617.687772 496.611652 
L 618.253768 496.671793 
L 618.816679 493.089631 
L 619.376539 503.096412 
L 619.933381 566.187922 
L 620.487237 542.86807 
L 621.038139 571.111125 
L 621.586119 545.96022 
L 622.131207 505.468685 
L 622.673434 495.871939 
L 623.212829 493.642996 
L 623.749422 479.901206 
L 624.283242 479.385929 
L 624.814317 476.97242 
L 625.342676 476.823177 
L 625.868346 478.603459 
L 626.391354 477.149963 
L 626.911728 480.302591 
L 627.944676 493.089631 
L 628.457302 514.231441 
L 628.967396 518.705669 
L 629.474984 539.099312 
L 629.98009 544.886106 
L 630.482738 530.234219 
L 631.480755 495.381243 
L 631.97617 509.465159 
L 632.469221 548.019221 
L 632.95993 539.266371 
L 633.448318 524.908975 
L 633.934408 558.927327 
L 634.418221 526.063051 
L 634.899779 542.48344 
L 635.379102 522.408195 
L 635.856211 594.455192 
L 636.331126 502.027587 
L 636.803868 500.788743 
L 637.274456 517.772111 
L 637.74291 521.246397 
L 638.20925 514.353951 
L 638.673493 523.44925 
L 639.135659 491.18423 
L 640.963918 473.321853 
L 641.415971 477.648358 
L 641.866054 471.707559 
L 642.314184 468.510727 
L 642.760379 470.171224 
L 643.204655 474.036835 
L 643.647028 469.137823 
L 644.52613 473.79621 
L 644.962892 477.204849 
L 645.397814 472.264069 
L 645.830913 472.535694 
L 646.262204 471.663573 
L 646.691701 471.685557 
L 647.11942 469.821952 
L 647.545375 464.042553 
L 647.96958 468.940147 
L 648.392051 465.83508 
L 648.812801 463.68952 
L 649.231844 467.673562 
L 649.649194 464.998099 
L 650.064864 466.044433 
L 650.478868 465.285292 
L 650.89122 460.188362 
L 651.301932 459.105455 
L 651.711017 457.67716 
L 652.118489 458.76345 
L 652.524359 456.36219 
L 652.928641 456.672446 
L 653.331347 456.684456 
L 653.732489 458.828855 
L 654.13208 459.171769 
L 654.53013 455.903964 
L 654.926652 457.515137 
L 655.321658 465.887253 
L 656.497693 454.04304 
L 656.886748 458.284738 
L 657.274343 460.776393 
L 657.660489 453.392821 
L 658.045196 457.602249 
L 658.428477 457.639676 
L 658.81034 465.904668 
L 659.190797 460.009141 
L 659.569858 451.036003 
L 659.947533 450.997763 
L 660.323831 454.600059 
L 660.698764 451.705093 
L 661.072341 454.478855 
L 661.444572 447.77721 
L 661.815467 449.068696 
L 662.920225 460.847335 
L 663.285868 457.465496 
L 663.65022 458.1952 
L 664.013293 458.672171 
L 664.375093 461.335192 
L 664.735631 453.561728 
L 665.094914 450.911938 
L 665.452953 451.655997 
L 665.809754 451.392545 
L 666.519681 446.863013 
L 666.872823 446.8711 
L 667.224762 445.456251 
L 667.575505 444.994514 
L 667.925062 446.059472 
L 668.27344 446.406334 
L 668.966691 445.632604 
L 669.311579 445.471536 
L 669.655319 443.432366 
L 670.339388 447.827599 
L 670.67973 448.595979 
L 671.35707 453.870835 
L 671.694082 460.341028 
L 672.029997 459.817572 
L 672.364824 453.48769 
L 672.698569 459.844848 
L 673.031239 461.436835 
L 673.362841 459.654538 
L 673.693381 463.897523 
L 674.022868 461.090064 
L 674.678705 458.555304 
L 675.330403 452.382627 
L 675.654718 458.182436 
L 675.978016 458.400334 
L 676.300307 468.822294 
L 676.621594 459.831206 
L 676.941886 467.43153 
L 677.261187 465.696486 
L 677.579505 467.617499 
L 677.896844 462.370864 
L 678.213212 464.433498 
L 678.528614 463.609982 
L 678.843055 459.185054 
L 679.156542 463.169216 
L 679.469081 457.789953 
L 679.780677 459.831206 
L 680.091335 455.672218 
L 680.401062 461.277296 
L 680.709864 462.07052 
L 681.017744 459.039318 
L 681.630767 471.206367 
L 681.935919 461.205116 
L 682.543532 463.801305 
L 682.846003 464.107284 
L 683.147592 480.085654 
L 683.448302 480.178395 
L 683.748139 483.205125 
L 684.047109 466.683305 
L 684.345216 477.620405 
L 684.642465 475.867878 
L 684.938861 479.058129 
L 685.234409 468.724508 
L 685.529113 478.415243 
L 685.82298 478.444106 
L 686.116012 481.579999 
L 686.408216 489.776963 
L 686.699596 492.727462 
L 686.990155 550.52723 
L 687.568834 483.807208 
L 687.856963 486.135855 
L 688.144289 580.572153 
L 688.430819 486.096508 
L 688.716556 516.940475 
L 689.001505 532.809226 
L 689.28567 519.373193 
L 689.569056 484.962992 
L 689.851666 487.140371 
L 690.133505 487.679249 
L 690.414577 506.97267 
L 690.694887 513.508822 
L 690.974437 494.593617 
L 691.253233 494.593617 
L 691.531279 495.153644 
L 691.808579 505.727555 
L 692.085135 509.264282 
L 692.360954 585.452174 
L 692.636038 555.800488 
L 692.910391 586.55494 
L 693.456921 496.165183 
L 693.729105 628.846607 
L 694.271332 503.889072 
L 694.541382 553.915418 
L 694.810727 514.912857 
L 695.079372 503.889072 
L 695.34732 546.180738 
L 695.614575 536.71971 
L 695.88114 533.069 
L 696.147019 487.974337 
L 696.412216 496.853096 
L 696.676733 635.98347 
L 696.940574 495.495831 
L 697.203744 517.49179 
L 697.466244 519.982013 
L 697.72808 487.201955 
L 697.989253 516.135815 
L 698.768833 470.715101 
L 699.027391 478.156972 
L 699.285304 474.872868 
L 699.799205 508.379937 
L 700.0552 506.881631 
L 700.310562 487.847441 
L 700.565295 508.965984 
L 700.819401 509.314349 
L 701.072883 537.960377 
L 701.325744 529.432037 
L 701.577989 483.275205 
L 701.829618 495.668711 
L 702.080636 493.937856 
L 702.331046 501.509961 
L 702.58085 499.541143 
L 703.078653 469.821952 
L 703.326658 484.682881 
L 703.574069 483.41596 
L 703.820888 480.178395 
L 704.067119 464.237255 
L 704.312765 472.512945 
L 704.557828 471.141735 
L 704.802311 461.656054 
L 705.046216 460.494639 
L 705.289547 457.664659 
L 705.532306 459.304932 
L 706.016119 448.072599 
L 706.257179 447.328256 
L 706.497677 448.149128 
L 706.737617 452.954834 
L 706.977 454.611107 
L 707.21583 462.25029 
L 707.454109 464.286171 
L 707.69184 458.986534 
L 707.929025 459.708764 
L 708.165666 458.131443 
L 708.401767 450.978665 
L 708.637329 455.499819 
L 708.872355 457.280221 
L 709.574242 450.282184 
L 709.807148 456.672446 
L 710.03953 459.708764 
L 710.271391 453.120776 
L 710.502733 451.558096 
L 710.733557 458.310379 
L 711.422952 462.32558 
L 711.651731 462.492028 
L 711.880005 468.279593 
L 712.107776 462.720817 
L 712.335046 463.801305 
L 712.561816 468.666021 
L 712.78809 467.487174 
L 713.013869 460.762229 
L 713.239156 457.979089 
L 713.68826 447.180392 
L 713.912083 449.174979 
L 714.580654 435.774637 
L 714.802553 436.525423 
L 715.023977 438.390162 
L 715.244926 438.511135 
L 715.465404 439.882297 
L 715.685413 442.236395 
L 716.124029 440.897559 
L 716.34264 440.99311 
L 716.56079 444.934591 
L 716.77848 441.606965 
L 716.995713 440.720176 
L 717.212489 443.630324 
L 717.428812 444.563316 
L 717.644682 447.518485 
L 718.289599 450.741174 
L 718.50368 451.724759 
L 718.717318 451.714924 
L 718.930515 449.668021 
L 719.143273 445.303913 
L 719.355594 444.912157 
L 719.77893 450.988212 
L 719.989949 446.935895 
L 720.200539 447.928685 
L 720.410699 445.617219 
L 721.038628 451.655997 
L 721.247092 454.151278 
L 721.455136 446.541659 
L 721.662762 445.663402 
L 721.869972 448.02171 
L 722.076767 448.115086 
L 722.283148 451.392545 
L 722.489118 445.794724 
L 722.694678 446.051644 
L 722.89983 443.277929 
L 723.104575 446.248068 
L 723.919522 436.798779 
L 724.122258 439.434746 
L 724.324597 438.195542 
L 724.52654 439.339031 
L 724.929246 439.196147 
L 725.130011 440.556591 
L 725.530376 439.297272 
L 725.729978 441.392005 
L 725.929195 439.196147 
L 726.32648 445.364736 
L 726.722242 454.053842 
L 727.116494 440.650835 
L 727.509248 433.682935 
L 727.900513 433.778186 
L 728.095591 429.764529 
L 728.290302 430.227481 
L 728.484646 434.61774 
L 728.678625 432.61305 
L 728.872241 435.156635 
L 729.065494 435.728136 
L 729.258387 443.524079 
L 729.643095 450.097255 
L 730.026375 469.397179 
L 730.217483 464.880802 
L 730.408239 477.704359 
L 730.788695 452.585475 
L 730.9784 449.613756 
L 731.167756 459.573421 
L 731.356766 476.877343 
L 731.545431 467.598839 
L 731.733752 448.251535 
L 731.92173 454.877744 
L 732.109366 450.337933 
L 732.296663 450.124906 
L 732.48362 439.362925 
L 732.67024 440.569137 
L 732.856523 439.97401 
L 733.042471 446.806475 
L 733.228084 436.366021 
L 733.598314 443.715648 
L 733.967221 451.61679 
L 734.151182 451.055145 
L 734.518123 440.294597 
L 734.883766 448.115086 
L 735.248119 463.451665 
L 735.429814 470.821073 
L 735.611191 465.132834 
L 735.972992 468.18392 
L 736.153418 466.881843 
L 736.333529 464.074898 
L 736.513327 464.830701 
L 736.692813 484.497883 
L 736.871987 545.741645 
L 737.050851 524.721742 
L 737.229406 482.515006 
L 737.407653 478.969475 
L 737.585592 525.672363 
L 737.763226 491.426736 
L 737.940555 534.136182 
L 738.117579 473.427795 
L 738.294301 468.704997 
L 738.470721 475.506086 
L 738.646841 476.931628 
L 738.998181 445.065862 
L 739.173404 438.589216 
L 739.34833 438.485162 
L 739.697296 435.214713 
L 739.871338 439.216933 
L 740.045088 445.802471 
L 740.218545 462.085451 
L 740.391712 466.629432 
L 740.564589 467.164327 
L 740.737177 473.157947 
L 741.08149 509.164451 
L 741.253218 500.717761 
L 741.42466 467.413009 
L 741.766693 505.382991 
L 741.937286 472.626901 
L 742.107598 481.286793 
L 742.277629 526.063051 
L 742.44738 524.259752 
L 742.616854 490.029057 
L 742.954968 479.778998 
L 743.123612 460.368887 
L 743.29198 460.804745 
L 743.460074 448.470565 
L 743.627895 447.756244 
L 743.795444 455.79941 
L 743.962722 469.578335 
L 744.129729 461.248399 
L 744.296467 480.678955 
L 744.629137 459.072364 
L 744.795071 460.501644 
L 744.960739 474.45133 
L 745.126142 457.403584 
L 745.29128 469.568236 
L 745.620766 440.288392 
L 746.276603 435.257728 
L 746.439914 436.331618 
L 746.602966 433.782958 
L 747.090586 439.015745 
L 747.252616 435.532755 
L 747.414392 436.060718 
L 747.575915 435.987584 
L 747.737186 435.212185 
L 748.058974 427.808183 
L 748.219493 424.798622 
L 748.379763 426.171608 
L 748.699558 420.222455 
L 748.859086 419.553268 
L 749.018367 415.717358 
L 749.177403 418.075953 
L 749.336195 417.391202 
L 749.494743 414.613289 
L 750.440953 422.692694 
L 750.75444 418.819277 
L 750.910828 417.929421 
L 751.066979 416.094627 
L 751.222894 417.257227 
L 751.378575 415.058011 
L 751.534021 416.617098 
L 751.844213 412.974977 
L 751.998961 410.62467 
L 752.461817 415.425312 
L 752.76924 415.979096 
L 752.922609 413.97691 
L 753.07575 416.369858 
L 753.228665 416.238919 
L 753.381354 415.596687 
L 753.533817 418.062021 
L 753.686056 416.721246 
L 753.989862 418.83756 
L 754.292777 420.273622 
L 754.443902 420.484934 
L 754.594806 418.083556 
L 754.74549 421.161433 
L 754.895955 421.493639 
L 755.0462 421.311097 
L 755.346038 418.429405 
L 755.495631 419.030355 
L 755.645007 421.318315 
L 755.794168 421.643863 
L 755.943114 422.548137 
L 756.240363 416.061897 
L 756.388668 416.413658 
L 756.536759 415.126537 
L 756.684639 416.753657 
L 756.979765 414.412457 
L 757.127012 414.070524 
L 757.27405 412.423129 
L 757.420878 412.073536 
L 757.713911 413.53305 
L 757.860116 412.02286 
L 758.006114 411.945554 
L 758.297494 410.562823 
L 758.442876 410.60685 
L 758.588054 411.472144 
L 758.733028 411.377183 
L 759.022367 409.070016 
L 759.166733 410.908702 
L 759.310897 410.718673 
L 759.598624 406.771406 
L 759.742188 407.504264 
L 759.885552 406.799537 
L 760.028718 407.299925 
L 760.171685 406.947949 
L 760.599404 407.456324 
L 760.741584 408.596052 
L 760.883569 406.675201 
L 761.025359 406.797124 
L 761.166954 406.45692 
L 761.308356 406.582556 
L 761.449564 406.118971 
L 761.59058 404.738038 
L 762.012476 405.963756 
L 762.292785 407.980395 
L 762.432655 408.513191 
L 762.572336 407.824019 
L 762.711828 408.243232 
L 762.851132 407.126572 
L 762.990248 408.082655 
L 763.683034 416.928443 
L 763.821035 417.270714 
L 763.958852 418.939673 
L 764.096486 418.23483 
L 764.233936 421.101247 
L 764.371204 421.14709 
L 764.508289 422.031626 
L 764.781916 418.148275 
L 764.918458 416.709252 
L 765.054819 417.431907 
L 765.191001 415.751943 
L 765.327004 416.003558 
L 765.462827 415.411653 
L 765.86923 416.566975 
L 766.004343 416.858381 
L 766.274041 420.051743 
L 766.408625 419.701627 
L 766.543035 417.365334 
L 766.811331 418.246308 
L 767.078932 415.726576 
L 767.212473 415.323052 
L 767.345842 415.677069 
L 767.612064 412.453411 
L 767.744918 412.946112 
L 767.877601 411.629923 
L 768.010114 411.969315 
L 768.274631 411.139442 
L 768.406636 413.223776 
L 768.538473 413.51196 
L 768.670141 415.273212 
L 768.801642 415.292456 
L 768.932976 414.637543 
L 769.195143 415.318517 
L 769.325978 414.686121 
L 769.71749 410.992359 
L 769.847666 412.904935 
L 769.977677 413.027638 
L 770.237209 409.757128 
L 770.366732 410.183881 
L 770.496092 410.090961 
L 770.62529 408.04373 
L 770.754327 408.922405 
L 770.883202 406.510118 
L 771.140473 406.162825 
L 771.268868 404.120442 
L 771.397104 403.929167 
L 771.52518 402.250218 
L 771.653099 403.165279 
L 771.908461 401.072936 
L 772.035906 401.020641 
L 772.163193 400.469998 
L 772.417299 400.605577 
L 772.544118 400.294288 
L 772.923643 398.442861 
L 773.049842 399.326601 
L 773.301778 397.846043 
L 773.427517 396.644645 
L 773.803815 397.162704 
L 774.178749 396.108946 
L 774.303424 396.809143 
L 774.42795 396.83819 
L 774.552326 396.365314 
L 774.676552 397.603395 
L 774.800628 397.603395 
L 774.924556 397.258866 
L 775.048336 397.731396 
L 775.171967 396.743642 
L 775.418787 399.035565 
L 775.541976 398.901844 
L 775.665018 397.891489 
L 775.787914 398.685203 
L 775.910663 398.475036 
L 776.033267 398.516467 
L 776.155726 398.388372 
L 776.27804 397.9134 
L 776.400209 399.056157 
L 776.644115 397.998982 
L 776.887445 400.421444 
L 777.372394 396.70239 
L 777.734618 398.707246 
L 777.855077 398.509557 
L 777.975396 398.544126 
L 778.095575 398.202294 
L 778.215615 399.012053 
L 778.335515 398.865022 
L 778.694382 396.193758 
L 778.813728 396.627562 
L 778.932937 396.540724 
L 779.170941 397.257224 
L 779.289738 397.085389 
L 779.526923 398.340292 
L 779.645311 398.084295 
L 779.763564 399.625909 
L 779.881682 399.678963 
L 780.235227 398.019859 
L 780.352807 398.280322 
L 780.470253 399.186572 
L 780.587566 398.641754 
L 780.704746 398.638281 
L 780.938707 399.462638 
L 781.055489 399.39035 
L 781.17214 398.082031 
L 781.288659 398.468713 
L 781.521303 397.684571 
L 781.753424 397.122383 
L 781.985025 396.019735 
L 782.216108 398.099014 
L 782.331455 398.300867 
L 782.561765 399.428559 
L 782.791563 398.504951 
L 783.02085 397.93533 
L 783.24963 397.058766 
L 783.36383 397.016445 
L 783.591852 398.331716 
L 783.819372 396.192185 
L 783.932944 397.452868 
L 784.159714 396.470093 
L 784.385988 397.344413 
L 784.498939 396.983398 
L 784.611767 398.155708 
L 784.949513 396.808067 
L 785.061851 396.360034 
L 785.286159 394.650595 
L 785.509981 395.908023 
L 785.621711 395.446283 
L 785.733319 395.734955 
L 785.844808 395.064033 
L 785.956176 395.256189 
L 786.067424 396.599826 
L 786.400452 394.819709 
L 786.621875 395.666579 
L 786.842825 396.114173 
L 786.953122 395.529877 
L 787.063303 395.692776 
L 787.173365 396.443062 
L 787.283311 395.987989 
L 787.39314 396.156552 
L 787.612448 397.612278 
L 787.721927 397.917897 
L 787.831291 396.855958 
L 787.940539 397.007773 
L 788.049671 397.407116 
L 788.158689 397.216203 
L 788.376379 397.848285 
L 788.485052 397.618942 
L 788.593611 398.40098 
L 788.702056 398.096183 
L 788.810388 398.51186 
L 789.02671 399.93619 
L 789.350347 398.17047 
L 789.565542 398.978587 
L 789.780291 397.228229 
L 789.887498 397.343864 
L 789.994594 397.884189 
L 790.101578 396.529558 
L 790.208453 396.572121 
L 790.315216 395.964076 
L 790.528414 394.228911 
L 790.741171 394.890265 
L 790.847386 394.780046 
L 790.953492 394.856949 
L 791.165377 392.740092 
L 791.376828 393.408799 
L 791.587848 393.770003 
L 791.798437 392.231126 
L 792.218332 395.225404 
L 792.323039 395.1162 
L 792.42764 394.362994 
L 792.636526 395.047502 
L 792.740811 393.840971 
L 792.84499 394.897233 
L 793.053035 393.060172 
L 793.260661 393.254594 
L 793.46787 392.635824 
L 793.674665 394.414194 
L 793.881046 393.741007 
L 793.984083 393.606928 
L 794.087016 395.033986 
L 794.189848 394.73303 
L 794.292577 396.06717 
L 794.497728 395.799908 
L 794.600152 396.4473 
L 794.702474 396.380633 
L 794.804694 396.094839 
L 794.906814 396.173314 
L 795.008833 395.544689 
L 795.110751 396.697573 
L 795.212568 395.251644 
L 795.314286 395.600438 
L 795.415903 395.302691 
L 795.618838 393.788083 
L 795.720156 393.24621 
L 795.821375 393.377881 
L 796.225262 390.140759 
L 796.527144 388.642019 
L 796.72791 385.864217 
L 796.928286 389.396416 
L 797.028329 389.193887 
L 797.128274 390.02475 
L 797.228124 389.77207 
L 797.427533 388.627712 
L 797.527093 389.136605 
L 797.725927 388.402589 
L 797.8252 388.891596 
L 798.023461 388.556684 
L 798.221342 390.952667 
L 798.615971 389.001237 
L 798.714393 389.686799 
L 798.910956 387.046305 
L 799.009098 389.286607 
L 799.107146 388.341753 
L 799.205101 388.414468 
L 799.302964 388.619209 
L 799.400734 388.13549 
L 799.498411 388.755223 
L 799.595996 387.226861 
L 799.69349 387.927545 
L 799.790891 387.761614 
L 799.985418 390.265985 
L 800.082544 392.096051 
L 800.17958 390.72488 
L 800.276524 391.489556 
L 800.373377 391.167144 
L 800.566811 389.077881 
L 800.663393 389.607449 
L 800.856285 387.854368 
L 800.952597 388.073037 
L 801.048818 386.54578 
L 801.240993 388.394546 
L 801.432811 387.102224 
L 801.528587 388.626552 
L 801.624273 386.980381 
L 801.815382 388.079086 
L 801.910803 389.197446 
L 802.006137 388.732308 
L 802.481489 381.722813 
L 802.576298 382.035577 
L 802.67102 382.795733 
L 802.765655 382.649785 
L 802.860203 382.299559 
L 802.954665 382.477825 
L 803.143329 381.508638 
L 803.33165 382.217024 
L 803.425682 381.172906 
L 803.613489 382.804902 
L 803.707265 383.511256 
L 803.800955 382.767024 
L 803.894561 383.74511 
L 803.988082 383.423657 
L 804.174871 385.827932 
L 804.361322 382.72646 
L 804.454421 383.762579 
L 804.547437 382.709096 
L 804.640369 383.007183 
L 804.733217 383.999466 
L 804.825983 382.926564 
L 804.918664 383.359488 
L 805.196212 381.803717 
L 805.657141 386.119361 
L 805.74908 385.960197 
L 805.932714 387.264155 
L 806.207554 384.513846 
L 807.118441 382.509222 
L 807.209089 382.826923 
L 807.299658 383.683905 
L 807.390148 383.191868 
L 807.480559 383.672506 
L 807.57089 385.466268 
L 807.661142 384.453985 
L 807.751316 385.397618 
L 807.931428 383.560687 
L 808.021366 383.782604 
L 808.380337 381.474714 
L 808.469885 382.491707 
L 808.559356 381.226491 
L 808.827304 383.250313 
L 808.916466 382.600315 
L 809.005551 382.740482 
L 809.183491 382.131191 
L 809.715478 386.523751 
L 809.803876 385.726615 
L 809.980447 383.60548 
L 810.244739 386.010935 
L 810.420558 384.482426 
L 810.508356 384.114573 
L 810.683728 381.59525 
L 810.771302 381.751509 
L 810.946228 382.740787 
L 811.120859 381.422326 
L 811.208064 382.251081 
L 811.382252 381.432158 
L 811.469237 382.389885 
L 811.729751 381.267258 
L 811.816444 381.535345 
L 812.076085 378.854772 
L 812.162487 379.516052 
L 812.507376 376.725048 
L 812.679389 377.943099 
L 813.108173 381.249737 
L 813.193716 380.323733 
L 813.279189 381.750044 
L 813.364592 381.54929 
L 813.535184 381.362836 
L 813.705496 380.604133 
L 813.960438 382.554273 
L 814.045279 382.259453 
L 814.214752 380.227109 
L 814.299385 380.42379 
L 814.383948 380.227384 
L 814.468442 379.707964 
L 814.552867 380.775935 
L 814.637223 379.851115 
L 814.72151 380.738498 
L 814.97396 379.122917 
L 815.057973 379.535873 
L 815.56062 376.488595 
L 815.644158 376.755931 
L 815.894365 378.601362 
L 816.060834 379.853015 
L 816.143968 379.816401 
L 816.227035 379.279424 
L 816.310036 380.47578 
L 816.392969 380.228487 
L 816.475836 379.024024 
L 816.558637 379.124762 
L 816.641372 379.22988 
L 817.136391 382.713665 
L 817.300872 381.622051 
L 817.710932 379.836464 
L 817.874501 382.694788 
L 817.956189 381.432448 
L 818.037812 382.075916 
L 818.11937 381.527794 
L 818.282295 384.315843 
L 818.363661 383.319193 
L 818.444962 382.715797 
L 818.769531 384.895693 
L 818.931434 383.941152 
L 819.173813 386.642297 
L 819.25448 385.255823 
L 819.335084 385.566526 
L 819.496103 387.206775 
L 819.737163 384.020005 
L 819.817391 382.779236 
L 819.897557 383.117458 
L 819.977661 384.233455 
L 820.057703 383.181624 
L 820.137683 383.385448 
L 820.217601 384.063063 
L 820.297457 382.353235 
L 820.377251 383.7413 
L 820.456984 383.362301 
L 820.536656 382.585766 
L 820.616265 382.764887 
L 820.775302 383.307648 
L 820.934093 381.823985 
L 821.013398 383.068901 
L 821.171824 380.593505 
L 821.487949 383.979585 
L 821.56683 384.003637 
L 821.72441 386.213178 
L 821.80311 385.080968 
L 821.960331 387.208235 
L 822.038852 387.151348 
L 822.117313 388.098756 
L 822.508726 384.144886 
L 822.586831 383.917161 
L 822.664877 384.031565 
L 822.742865 384.164577 
L 822.820793 384.002353 
L 823.131919 387.81281 
L 823.209555 388.538958 
L 823.287132 387.072796 
L 823.519514 389.691237 
L 823.596859 389.630784 
L 823.751375 392.317101 
L 823.828547 391.833804 
L 823.90566 392.838844 
L 823.982717 392.182004 
L 824.059715 392.740548 
L 824.136657 394.473328 
L 824.213541 394.08784 
L 824.290368 394.695481 
L 824.367138 393.011227 
L 824.520507 395.423395 
L 824.902936 399.377826 
L 824.979252 398.338576 
L 825.055512 398.732214 
L 825.131715 400.794243 
L 825.207863 400.634413 
L 825.283954 398.485963 
L 825.359989 398.572392 
L 825.435969 401.181063 
L 825.511892 398.46469 
L 825.58776 398.81193 
L 825.739329 397.971924 
L 825.81503 401.460918 
L 825.890675 401.347047 
L 825.966265 402.150005 
L 826.11728 399.726688 
L 826.268074 402.359578 
L 826.493853 401.318661 
L 826.569003 402.030944 
L 826.644099 400.032117 
L 826.71914 400.249782 
L 826.943936 409.871548 
L 827.01876 408.734771 
L 827.093529 409.863357 
L 827.168245 414.963956 
L 827.242906 411.623085 
L 827.466567 420.451449 
L 827.541013 416.982939 
L 827.615405 420.489122 
L 827.91244 407.701126 
L 827.986566 407.052531 
L 828.060638 407.628679 
L 828.134658 411.093504 
L 828.208624 407.085863 
L 828.282537 408.88564 
L 828.503961 402.16868 
L 828.577663 402.453218 
L 828.798455 406.06192 
L 828.871948 403.249468 
L 828.945388 403.381544 
L 829.018777 403.109081 
L 829.238629 397.000729 
L 829.311809 396.3537 
L 829.749805 402.630686 
L 829.822624 402.640205 
L 829.895392 402.825186 
L 830.113389 399.073231 
L 830.185952 398.992673 
L 830.258464 398.733957 
L 830.475697 393.551236 
L 830.620265 392.042314 
L 830.764631 389.552817 
L 830.836738 390.158434 
L 830.980803 392.879648 
L 831.124666 390.524189 
L 831.196523 390.687048 
L 831.268329 390.603182 
L 831.411793 392.077385 
L 831.626616 389.809748 
L 832.054926 393.36384 
L 832.126139 392.949491 
L 832.268417 389.620321 
L 832.339482 389.630784 
L 832.481467 391.82149 
L 832.552386 391.327395 
L 832.694079 391.92724 
L 832.764853 390.366954 
L 832.835578 391.53776 
L 832.906254 391.311453 
L 832.976883 391.263686 
L 833.117995 389.553619 
L 833.399642 393.235502 
L 833.540178 390.550075 
L 833.610374 390.753923 
L 833.680523 390.419255 
L 833.750624 388.505854 
L 833.820677 389.252093 
L 833.890683 388.967902 
L 833.960642 389.246148 
L 834.030553 389.061353 
L 834.379402 393.862445 
L 834.44903 393.596535 
L 834.518612 393.98304 
L 834.588147 393.880592 
L 834.796471 389.353787 
L 834.865819 391.673318 
L 834.93512 391.490858 
L 835.004375 390.648015 
L 835.073584 391.03389 
L 835.280932 393.173671 
L 835.349956 391.961264 
L 835.418933 393.219681 
L 835.487865 392.969285 
L 835.62559 393.325503 
L 835.900491 390.109141 
L 835.969102 390.053394 
L 836.174662 386.437601 
L 836.379814 384.669572 
L 836.448108 384.82628 
L 836.7889 388.747453 
L 836.924902 391.414614 
L 836.992836 390.957338 
L 837.060726 388.513164 
L 837.128571 388.813577 
L 837.196371 388.580594 
L 837.264127 387.270742 
L 837.331839 389.371707 
L 837.399506 389.242185 
L 837.467129 388.881049 
L 837.534707 387.76236 
L 837.602242 387.888866 
L 837.939253 391.917969 
L 838.208073 389.117278 
L 838.275169 389.425941 
L 838.40923 392.96422 
L 838.476195 392.295579 
L 838.543117 391.311022 
L 839.27641 402.826556 
L 839.409179 397.973051 
L 839.475499 399.06852 
L 839.541777 399.20729 
L 839.740356 405.63932 
L 839.806464 405.011885 
L 839.87253 405.315285 
L 839.938553 401.306414 
L 840.004535 401.818195 
L 840.070474 401.802411 
L 840.26804 408.361138 
L 840.596478 400.265845 
L 840.85848 398.676507 
L 840.923876 397.429706 
L 841.054545 399.860079 
L 841.054545 399.860079 
" style="fill:none;stroke:#008000;stroke-linecap:square;stroke-width:1.5;"/>
   </g>
   <g id="patch_8">
    <path d="M 42.1 659.52 
L 42.1 363.010909 
" style="fill:none;stroke:#000000;stroke-linecap:square;stroke-linejoin:miter;stroke-width:0.8;"/>
   </g>
   <g id="patch_9">
    <path d="M 879.1 659.52 
L 879.1 363.010909 
" style="fill:none;stroke:#000000;stroke-linecap:square;stroke-linejoin:miter;stroke-width:0.8;"/>
   </g>
   <g id="patch_10">
    <path d="M 42.1 659.52 
L 879.1 659.52 
" style="fill:none;stroke:#000000;stroke-linecap:square;stroke-linejoin:miter;stroke-width:0.8;"/>
   </g>
   <g id="patch_11">
    <path d="M 42.1 363.010909 
L 879.1 363.010909 
" style="fill:none;stroke:#000000;stroke-linecap:square;stroke-linejoin:miter;stroke-width:0.8;"/>
   </g>
  </g>
 </g>
 <defs>
  <clipPath id="pcfcc921848">
   <rect height="296.509091" width="837" x="42.1" y="7.2"/>
  </clipPath>
  <clipPath id="p56aec7acdc">
   <rect height="296.509091" width="837" x="42.1" y="363.010909"/>
  </clipPath>
 </defs>
</svg>
