<?xml version="1.0" encoding="utf-8" standalone="no"?>
<!DOCTYPE svg PUBLIC "-//W3C//DTD SVG 1.1//EN"
  "http://www.w3.org/Graphics/SVG/1.1/DTD/svg11.dtd">
<!-- Created with matplotlib (https://matplotlib.org/) -->
<svg height="263.63625pt" version="1.1" viewBox="0 0 405.932812 263.63625" width="405.932812pt" xmlns="http://www.w3.org/2000/svg" xmlns:xlink="http://www.w3.org/1999/xlink">
 <metadata>
  <rdf:RDF xmlns:cc="http://creativecommons.org/ns#" xmlns:dc="http://purl.org/dc/elements/1.1/" xmlns:rdf="http://www.w3.org/1999/02/22-rdf-syntax-ns#">
   <cc:Work>
    <dc:type rdf:resource="http://purl.org/dc/dcmitype/StillImage"/>
    <dc:date>2021-10-05T17:10:51.866284</dc:date>
    <dc:format>image/svg+xml</dc:format>
    <dc:creator>
     <cc:Agent>
      <dc:title>Matplotlib v3.3.4, https://matplotlib.org/</dc:title>
     </cc:Agent>
    </dc:creator>
   </cc:Work>
  </rdf:RDF>
 </metadata>
 <defs>
  <style type="text/css">*{stroke-linecap:butt;stroke-linejoin:round;}</style>
 </defs>
 <g id="figure_1">
  <g id="patch_1">
   <path d="M 0 263.63625 
L 405.932812 263.63625 
L 405.932812 0 
L 0 0 
z
" style="fill:none;"/>
  </g>
  <g id="axes_1">
   <g id="patch_2">
    <path d="M 63.932812 239.758125 
L 398.732813 239.758125 
L 398.732813 22.318125 
L 63.932812 22.318125 
z
" style="fill:#ffffff;"/>
   </g>
   <g id="matplotlib.axis_1">
    <g id="xtick_1">
     <g id="line2d_1">
      <path clip-path="url(#p0789565f28)" d="M 79.150994 239.758125 
L 79.150994 22.318125 
" style="fill:none;stroke:#b0b0b0;stroke-linecap:square;stroke-width:0.8;"/>
     </g>
     <g id="line2d_2">
      <defs>
       <path d="M 0 0 
L 0 3.5 
" id="me61921679d" style="stroke:#000000;stroke-width:0.8;"/>
      </defs>
      <g>
       <use style="stroke:#000000;stroke-width:0.8;" x="79.150994" xlink:href="#me61921679d" y="239.758125"/>
      </g>
     </g>
     <g id="text_1">
      <!-- 0 -->
      <g transform="translate(75.969744 254.356563)scale(0.1 -0.1)">
       <defs>
        <path d="M 31.78125 66.40625 
Q 24.171875 66.40625 20.328125 58.90625 
Q 16.5 51.421875 16.5 36.375 
Q 16.5 21.390625 20.328125 13.890625 
Q 24.171875 6.390625 31.78125 6.390625 
Q 39.453125 6.390625 43.28125 13.890625 
Q 47.125 21.390625 47.125 36.375 
Q 47.125 51.421875 43.28125 58.90625 
Q 39.453125 66.40625 31.78125 66.40625 
z
M 31.78125 74.21875 
Q 44.046875 74.21875 50.515625 64.515625 
Q 56.984375 54.828125 56.984375 36.375 
Q 56.984375 17.96875 50.515625 8.265625 
Q 44.046875 -1.421875 31.78125 -1.421875 
Q 19.53125 -1.421875 13.0625 8.265625 
Q 6.59375 17.96875 6.59375 36.375 
Q 6.59375 54.828125 13.0625 64.515625 
Q 19.53125 74.21875 31.78125 74.21875 
z
" id="DejaVuSans-48"/>
       </defs>
       <use xlink:href="#DejaVuSans-48"/>
      </g>
     </g>
    </g>
    <g id="xtick_2">
     <g id="line2d_3">
      <path clip-path="url(#p0789565f28)" d="M 140.023722 239.758125 
L 140.023722 22.318125 
" style="fill:none;stroke:#b0b0b0;stroke-linecap:square;stroke-width:0.8;"/>
     </g>
     <g id="line2d_4">
      <g>
       <use style="stroke:#000000;stroke-width:0.8;" x="140.023722" xlink:href="#me61921679d" y="239.758125"/>
      </g>
     </g>
     <g id="text_2">
      <!-- 10 -->
      <g transform="translate(133.661222 254.356563)scale(0.1 -0.1)">
       <defs>
        <path d="M 12.40625 8.296875 
L 28.515625 8.296875 
L 28.515625 63.921875 
L 10.984375 60.40625 
L 10.984375 69.390625 
L 28.421875 72.90625 
L 38.28125 72.90625 
L 38.28125 8.296875 
L 54.390625 8.296875 
L 54.390625 0 
L 12.40625 0 
z
" id="DejaVuSans-49"/>
       </defs>
       <use xlink:href="#DejaVuSans-49"/>
       <use x="63.623047" xlink:href="#DejaVuSans-48"/>
      </g>
     </g>
    </g>
    <g id="xtick_3">
     <g id="line2d_5">
      <path clip-path="url(#p0789565f28)" d="M 200.896449 239.758125 
L 200.896449 22.318125 
" style="fill:none;stroke:#b0b0b0;stroke-linecap:square;stroke-width:0.8;"/>
     </g>
     <g id="line2d_6">
      <g>
       <use style="stroke:#000000;stroke-width:0.8;" x="200.896449" xlink:href="#me61921679d" y="239.758125"/>
      </g>
     </g>
     <g id="text_3">
      <!-- 20 -->
      <g transform="translate(194.533949 254.356563)scale(0.1 -0.1)">
       <defs>
        <path d="M 19.1875 8.296875 
L 53.609375 8.296875 
L 53.609375 0 
L 7.328125 0 
L 7.328125 8.296875 
Q 12.9375 14.109375 22.625 23.890625 
Q 32.328125 33.6875 34.8125 36.53125 
Q 39.546875 41.84375 41.421875 45.53125 
Q 43.3125 49.21875 43.3125 52.78125 
Q 43.3125 58.59375 39.234375 62.25 
Q 35.15625 65.921875 28.609375 65.921875 
Q 23.96875 65.921875 18.8125 64.3125 
Q 13.671875 62.703125 7.8125 59.421875 
L 7.8125 69.390625 
Q 13.765625 71.78125 18.9375 73 
Q 24.125 74.21875 28.421875 74.21875 
Q 39.75 74.21875 46.484375 68.546875 
Q 53.21875 62.890625 53.21875 53.421875 
Q 53.21875 48.921875 51.53125 44.890625 
Q 49.859375 40.875 45.40625 35.40625 
Q 44.1875 33.984375 37.640625 27.21875 
Q 31.109375 20.453125 19.1875 8.296875 
z
" id="DejaVuSans-50"/>
       </defs>
       <use xlink:href="#DejaVuSans-50"/>
       <use x="63.623047" xlink:href="#DejaVuSans-48"/>
      </g>
     </g>
    </g>
    <g id="xtick_4">
     <g id="line2d_7">
      <path clip-path="url(#p0789565f28)" d="M 261.769176 239.758125 
L 261.769176 22.318125 
" style="fill:none;stroke:#b0b0b0;stroke-linecap:square;stroke-width:0.8;"/>
     </g>
     <g id="line2d_8">
      <g>
       <use style="stroke:#000000;stroke-width:0.8;" x="261.769176" xlink:href="#me61921679d" y="239.758125"/>
      </g>
     </g>
     <g id="text_4">
      <!-- 30 -->
      <g transform="translate(255.406676 254.356563)scale(0.1 -0.1)">
       <defs>
        <path d="M 40.578125 39.3125 
Q 47.65625 37.796875 51.625 33 
Q 55.609375 28.21875 55.609375 21.1875 
Q 55.609375 10.40625 48.1875 4.484375 
Q 40.765625 -1.421875 27.09375 -1.421875 
Q 22.515625 -1.421875 17.65625 -0.515625 
Q 12.796875 0.390625 7.625 2.203125 
L 7.625 11.71875 
Q 11.71875 9.328125 16.59375 8.109375 
Q 21.484375 6.890625 26.8125 6.890625 
Q 36.078125 6.890625 40.9375 10.546875 
Q 45.796875 14.203125 45.796875 21.1875 
Q 45.796875 27.640625 41.28125 31.265625 
Q 36.765625 34.90625 28.71875 34.90625 
L 20.21875 34.90625 
L 20.21875 43.015625 
L 29.109375 43.015625 
Q 36.375 43.015625 40.234375 45.921875 
Q 44.09375 48.828125 44.09375 54.296875 
Q 44.09375 59.90625 40.109375 62.90625 
Q 36.140625 65.921875 28.71875 65.921875 
Q 24.65625 65.921875 20.015625 65.03125 
Q 15.375 64.15625 9.8125 62.3125 
L 9.8125 71.09375 
Q 15.4375 72.65625 20.34375 73.4375 
Q 25.25 74.21875 29.59375 74.21875 
Q 40.828125 74.21875 47.359375 69.109375 
Q 53.90625 64.015625 53.90625 55.328125 
Q 53.90625 49.265625 50.4375 45.09375 
Q 46.96875 40.921875 40.578125 39.3125 
z
" id="DejaVuSans-51"/>
       </defs>
       <use xlink:href="#DejaVuSans-51"/>
       <use x="63.623047" xlink:href="#DejaVuSans-48"/>
      </g>
     </g>
    </g>
    <g id="xtick_5">
     <g id="line2d_9">
      <path clip-path="url(#p0789565f28)" d="M 322.641903 239.758125 
L 322.641903 22.318125 
" style="fill:none;stroke:#b0b0b0;stroke-linecap:square;stroke-width:0.8;"/>
     </g>
     <g id="line2d_10">
      <g>
       <use style="stroke:#000000;stroke-width:0.8;" x="322.641903" xlink:href="#me61921679d" y="239.758125"/>
      </g>
     </g>
     <g id="text_5">
      <!-- 40 -->
      <g transform="translate(316.279403 254.356563)scale(0.1 -0.1)">
       <defs>
        <path d="M 37.796875 64.3125 
L 12.890625 25.390625 
L 37.796875 25.390625 
z
M 35.203125 72.90625 
L 47.609375 72.90625 
L 47.609375 25.390625 
L 58.015625 25.390625 
L 58.015625 17.1875 
L 47.609375 17.1875 
L 47.609375 0 
L 37.796875 0 
L 37.796875 17.1875 
L 4.890625 17.1875 
L 4.890625 26.703125 
z
" id="DejaVuSans-52"/>
       </defs>
       <use xlink:href="#DejaVuSans-52"/>
       <use x="63.623047" xlink:href="#DejaVuSans-48"/>
      </g>
     </g>
    </g>
    <g id="xtick_6">
     <g id="line2d_11">
      <path clip-path="url(#p0789565f28)" d="M 383.514631 239.758125 
L 383.514631 22.318125 
" style="fill:none;stroke:#b0b0b0;stroke-linecap:square;stroke-width:0.8;"/>
     </g>
     <g id="line2d_12">
      <g>
       <use style="stroke:#000000;stroke-width:0.8;" x="383.514631" xlink:href="#me61921679d" y="239.758125"/>
      </g>
     </g>
     <g id="text_6">
      <!-- 50 -->
      <g transform="translate(377.152131 254.356563)scale(0.1 -0.1)">
       <defs>
        <path d="M 10.796875 72.90625 
L 49.515625 72.90625 
L 49.515625 64.59375 
L 19.828125 64.59375 
L 19.828125 46.734375 
Q 21.96875 47.46875 24.109375 47.828125 
Q 26.265625 48.1875 28.421875 48.1875 
Q 40.625 48.1875 47.75 41.5 
Q 54.890625 34.8125 54.890625 23.390625 
Q 54.890625 11.625 47.5625 5.09375 
Q 40.234375 -1.421875 26.90625 -1.421875 
Q 22.3125 -1.421875 17.546875 -0.640625 
Q 12.796875 0.140625 7.71875 1.703125 
L 7.71875 11.625 
Q 12.109375 9.234375 16.796875 8.0625 
Q 21.484375 6.890625 26.703125 6.890625 
Q 35.15625 6.890625 40.078125 11.328125 
Q 45.015625 15.765625 45.015625 23.390625 
Q 45.015625 31 40.078125 35.4375 
Q 35.15625 39.890625 26.703125 39.890625 
Q 22.75 39.890625 18.8125 39.015625 
Q 14.890625 38.140625 10.796875 36.28125 
z
" id="DejaVuSans-53"/>
       </defs>
       <use xlink:href="#DejaVuSans-53"/>
       <use x="63.623047" xlink:href="#DejaVuSans-48"/>
      </g>
     </g>
    </g>
   </g>
   <g id="matplotlib.axis_2">
    <g id="ytick_1">
     <g id="line2d_13">
      <path clip-path="url(#p0789565f28)" d="M 63.932812 230.194217 
L 398.732813 230.194217 
" style="fill:none;stroke:#b0b0b0;stroke-linecap:square;stroke-width:0.8;"/>
     </g>
     <g id="line2d_14">
      <defs>
       <path d="M 0 0 
L -3.5 0 
" id="mf7595f78e2" style="stroke:#000000;stroke-width:0.8;"/>
      </defs>
      <g>
       <use style="stroke:#000000;stroke-width:0.8;" x="63.932812" xlink:href="#mf7595f78e2" y="230.194217"/>
      </g>
     </g>
     <g id="text_7">
      <!-- −0.00100 -->
      <g transform="translate(7.2 233.993436)scale(0.1 -0.1)">
       <defs>
        <path d="M 10.59375 35.5 
L 73.1875 35.5 
L 73.1875 27.203125 
L 10.59375 27.203125 
z
" id="DejaVuSans-8722"/>
        <path d="M 10.6875 12.40625 
L 21 12.40625 
L 21 0 
L 10.6875 0 
z
" id="DejaVuSans-46"/>
       </defs>
       <use xlink:href="#DejaVuSans-8722"/>
       <use x="83.789062" xlink:href="#DejaVuSans-48"/>
       <use x="147.412109" xlink:href="#DejaVuSans-46"/>
       <use x="179.199219" xlink:href="#DejaVuSans-48"/>
       <use x="242.822266" xlink:href="#DejaVuSans-48"/>
       <use x="306.445312" xlink:href="#DejaVuSans-49"/>
       <use x="370.068359" xlink:href="#DejaVuSans-48"/>
       <use x="433.691406" xlink:href="#DejaVuSans-48"/>
      </g>
     </g>
    </g>
    <g id="ytick_2">
     <g id="line2d_15">
      <path clip-path="url(#p0789565f28)" d="M 63.932812 205.436395 
L 398.732813 205.436395 
" style="fill:none;stroke:#b0b0b0;stroke-linecap:square;stroke-width:0.8;"/>
     </g>
     <g id="line2d_16">
      <g>
       <use style="stroke:#000000;stroke-width:0.8;" x="63.932812" xlink:href="#mf7595f78e2" y="205.436395"/>
      </g>
     </g>
     <g id="text_8">
      <!-- −0.00075 -->
      <g transform="translate(7.2 209.235614)scale(0.1 -0.1)">
       <defs>
        <path d="M 8.203125 72.90625 
L 55.078125 72.90625 
L 55.078125 68.703125 
L 28.609375 0 
L 18.3125 0 
L 43.21875 64.59375 
L 8.203125 64.59375 
z
" id="DejaVuSans-55"/>
       </defs>
       <use xlink:href="#DejaVuSans-8722"/>
       <use x="83.789062" xlink:href="#DejaVuSans-48"/>
       <use x="147.412109" xlink:href="#DejaVuSans-46"/>
       <use x="179.199219" xlink:href="#DejaVuSans-48"/>
       <use x="242.822266" xlink:href="#DejaVuSans-48"/>
       <use x="306.445312" xlink:href="#DejaVuSans-48"/>
       <use x="370.068359" xlink:href="#DejaVuSans-55"/>
       <use x="433.691406" xlink:href="#DejaVuSans-53"/>
      </g>
     </g>
    </g>
    <g id="ytick_3">
     <g id="line2d_17">
      <path clip-path="url(#p0789565f28)" d="M 63.932812 180.678573 
L 398.732813 180.678573 
" style="fill:none;stroke:#b0b0b0;stroke-linecap:square;stroke-width:0.8;"/>
     </g>
     <g id="line2d_18">
      <g>
       <use style="stroke:#000000;stroke-width:0.8;" x="63.932812" xlink:href="#mf7595f78e2" y="180.678573"/>
      </g>
     </g>
     <g id="text_9">
      <!-- −0.00050 -->
      <g transform="translate(7.2 184.477791)scale(0.1 -0.1)">
       <use xlink:href="#DejaVuSans-8722"/>
       <use x="83.789062" xlink:href="#DejaVuSans-48"/>
       <use x="147.412109" xlink:href="#DejaVuSans-46"/>
       <use x="179.199219" xlink:href="#DejaVuSans-48"/>
       <use x="242.822266" xlink:href="#DejaVuSans-48"/>
       <use x="306.445312" xlink:href="#DejaVuSans-48"/>
       <use x="370.068359" xlink:href="#DejaVuSans-53"/>
       <use x="433.691406" xlink:href="#DejaVuSans-48"/>
      </g>
     </g>
    </g>
    <g id="ytick_4">
     <g id="line2d_19">
      <path clip-path="url(#p0789565f28)" d="M 63.932812 155.92075 
L 398.732813 155.92075 
" style="fill:none;stroke:#b0b0b0;stroke-linecap:square;stroke-width:0.8;"/>
     </g>
     <g id="line2d_20">
      <g>
       <use style="stroke:#000000;stroke-width:0.8;" x="63.932812" xlink:href="#mf7595f78e2" y="155.92075"/>
      </g>
     </g>
     <g id="text_10">
      <!-- −0.00025 -->
      <g transform="translate(7.2 159.719969)scale(0.1 -0.1)">
       <use xlink:href="#DejaVuSans-8722"/>
       <use x="83.789062" xlink:href="#DejaVuSans-48"/>
       <use x="147.412109" xlink:href="#DejaVuSans-46"/>
       <use x="179.199219" xlink:href="#DejaVuSans-48"/>
       <use x="242.822266" xlink:href="#DejaVuSans-48"/>
       <use x="306.445312" xlink:href="#DejaVuSans-48"/>
       <use x="370.068359" xlink:href="#DejaVuSans-50"/>
       <use x="433.691406" xlink:href="#DejaVuSans-53"/>
      </g>
     </g>
    </g>
    <g id="ytick_5">
     <g id="line2d_21">
      <path clip-path="url(#p0789565f28)" d="M 63.932812 131.162928 
L 398.732813 131.162928 
" style="fill:none;stroke:#b0b0b0;stroke-linecap:square;stroke-width:0.8;"/>
     </g>
     <g id="line2d_22">
      <g>
       <use style="stroke:#000000;stroke-width:0.8;" x="63.932812" xlink:href="#mf7595f78e2" y="131.162928"/>
      </g>
     </g>
     <g id="text_11">
      <!-- 0.00000 -->
      <g transform="translate(15.579687 134.962147)scale(0.1 -0.1)">
       <use xlink:href="#DejaVuSans-48"/>
       <use x="63.623047" xlink:href="#DejaVuSans-46"/>
       <use x="95.410156" xlink:href="#DejaVuSans-48"/>
       <use x="159.033203" xlink:href="#DejaVuSans-48"/>
       <use x="222.65625" xlink:href="#DejaVuSans-48"/>
       <use x="286.279297" xlink:href="#DejaVuSans-48"/>
       <use x="349.902344" xlink:href="#DejaVuSans-48"/>
      </g>
     </g>
    </g>
    <g id="ytick_6">
     <g id="line2d_23">
      <path clip-path="url(#p0789565f28)" d="M 63.932812 106.405105 
L 398.732813 106.405105 
" style="fill:none;stroke:#b0b0b0;stroke-linecap:square;stroke-width:0.8;"/>
     </g>
     <g id="line2d_24">
      <g>
       <use style="stroke:#000000;stroke-width:0.8;" x="63.932812" xlink:href="#mf7595f78e2" y="106.405105"/>
      </g>
     </g>
     <g id="text_12">
      <!-- 0.00025 -->
      <g transform="translate(15.579687 110.204324)scale(0.1 -0.1)">
       <use xlink:href="#DejaVuSans-48"/>
       <use x="63.623047" xlink:href="#DejaVuSans-46"/>
       <use x="95.410156" xlink:href="#DejaVuSans-48"/>
       <use x="159.033203" xlink:href="#DejaVuSans-48"/>
       <use x="222.65625" xlink:href="#DejaVuSans-48"/>
       <use x="286.279297" xlink:href="#DejaVuSans-50"/>
       <use x="349.902344" xlink:href="#DejaVuSans-53"/>
      </g>
     </g>
    </g>
    <g id="ytick_7">
     <g id="line2d_25">
      <path clip-path="url(#p0789565f28)" d="M 63.932812 81.647283 
L 398.732813 81.647283 
" style="fill:none;stroke:#b0b0b0;stroke-linecap:square;stroke-width:0.8;"/>
     </g>
     <g id="line2d_26">
      <g>
       <use style="stroke:#000000;stroke-width:0.8;" x="63.932812" xlink:href="#mf7595f78e2" y="81.647283"/>
      </g>
     </g>
     <g id="text_13">
      <!-- 0.00050 -->
      <g transform="translate(15.579687 85.446502)scale(0.1 -0.1)">
       <use xlink:href="#DejaVuSans-48"/>
       <use x="63.623047" xlink:href="#DejaVuSans-46"/>
       <use x="95.410156" xlink:href="#DejaVuSans-48"/>
       <use x="159.033203" xlink:href="#DejaVuSans-48"/>
       <use x="222.65625" xlink:href="#DejaVuSans-48"/>
       <use x="286.279297" xlink:href="#DejaVuSans-53"/>
       <use x="349.902344" xlink:href="#DejaVuSans-48"/>
      </g>
     </g>
    </g>
    <g id="ytick_8">
     <g id="line2d_27">
      <path clip-path="url(#p0789565f28)" d="M 63.932812 56.889461 
L 398.732813 56.889461 
" style="fill:none;stroke:#b0b0b0;stroke-linecap:square;stroke-width:0.8;"/>
     </g>
     <g id="line2d_28">
      <g>
       <use style="stroke:#000000;stroke-width:0.8;" x="63.932812" xlink:href="#mf7595f78e2" y="56.889461"/>
      </g>
     </g>
     <g id="text_14">
      <!-- 0.00075 -->
      <g transform="translate(15.579687 60.688679)scale(0.1 -0.1)">
       <use xlink:href="#DejaVuSans-48"/>
       <use x="63.623047" xlink:href="#DejaVuSans-46"/>
       <use x="95.410156" xlink:href="#DejaVuSans-48"/>
       <use x="159.033203" xlink:href="#DejaVuSans-48"/>
       <use x="222.65625" xlink:href="#DejaVuSans-48"/>
       <use x="286.279297" xlink:href="#DejaVuSans-55"/>
       <use x="349.902344" xlink:href="#DejaVuSans-53"/>
      </g>
     </g>
    </g>
    <g id="ytick_9">
     <g id="line2d_29">
      <path clip-path="url(#p0789565f28)" d="M 63.932812 32.131638 
L 398.732813 32.131638 
" style="fill:none;stroke:#b0b0b0;stroke-linecap:square;stroke-width:0.8;"/>
     </g>
     <g id="line2d_30">
      <g>
       <use style="stroke:#000000;stroke-width:0.8;" x="63.932812" xlink:href="#mf7595f78e2" y="32.131638"/>
      </g>
     </g>
     <g id="text_15">
      <!-- 0.00100 -->
      <g transform="translate(15.579687 35.930857)scale(0.1 -0.1)">
       <use xlink:href="#DejaVuSans-48"/>
       <use x="63.623047" xlink:href="#DejaVuSans-46"/>
       <use x="95.410156" xlink:href="#DejaVuSans-48"/>
       <use x="159.033203" xlink:href="#DejaVuSans-48"/>
       <use x="222.65625" xlink:href="#DejaVuSans-49"/>
       <use x="286.279297" xlink:href="#DejaVuSans-48"/>
       <use x="349.902344" xlink:href="#DejaVuSans-48"/>
      </g>
     </g>
    </g>
   </g>
   <g id="line2d_31">
    <path clip-path="url(#p0789565f28)" d="M 79.150994 131.162928 
L 79.455663 131.472283 
L 79.760331 132.392689 
L 80.369668 135.960016 
L 80.979004 141.507532 
L 81.893009 152.260903 
L 83.416351 170.167905 
L 84.025687 174.878376 
L 84.330355 176.324558 
L 84.635024 177.061946 
L 84.939692 177.028578 
L 85.24436 176.176371 
L 85.549029 174.472372 
L 86.158365 168.457926 
L 86.767702 159.051046 
L 87.681707 139.381258 
L 88.90038 106.420585 
L 90.423722 65.366372 
L 91.337727 47.177605 
L 91.947063 39.650397 
L 92.251731 37.514872 
L 92.5564 36.538157 
L 92.861068 36.753128 
L 93.165736 38.173935 
L 93.470405 40.795537 
L 94.079741 49.525858 
L 94.689078 62.529661 
L 95.603083 88.478876 
L 98.954434 194.955264 
L 99.563771 206.781795 
L 100.173107 214.329121 
L 100.477776 216.405823 
L 100.782444 217.339047 
L 101.087112 217.142978 
L 101.391781 215.849951 
L 101.696449 213.509624 
L 102.305785 205.965645 
L 102.915122 195.207096 
L 104.133795 167.66688 
L 105.657137 132.310112 
L 106.571142 116.039531 
L 107.180478 108.561358 
L 107.789815 104.106022 
L 108.094483 103.019001 
L 108.399152 102.663846 
L 108.70382 103.00057 
L 109.008488 103.97497 
L 109.617825 107.558662 
L 110.53183 115.725397 
L 112.055171 130.142134 
L 112.664508 133.926538 
L 112.969176 135.075369 
L 113.273844 135.654623 
L 113.578513 135.625738 
L 113.883181 134.964832 
L 114.187849 133.663316 
L 114.797186 129.18202 
L 115.406523 122.422105 
L 116.320527 109.095944 
L 118.148537 80.421554 
L 118.757874 73.502516 
L 119.367211 69.289989 
L 119.671879 68.403247 
L 119.976547 68.413237 
L 120.281215 69.364246 
L 120.585884 71.284457 
L 121.19522 78.059488 
L 121.804557 88.616714 
L 122.718562 110.598883 
L 123.937235 147.368387 
L 125.460577 193.615291 
L 126.374582 214.842851 
L 126.983918 224.293022 
L 127.288586 227.35152 
L 127.593255 229.223334 
L 127.897923 229.874489 
L 128.202591 229.290027 
L 128.50726 227.474326 
L 128.811928 224.45101 
L 129.421265 214.970005 
L 130.030601 201.39964 
L 130.944606 175.189695 
L 133.686621 88.830927 
L 134.600626 69.510763 
L 135.209962 61.478823 
L 135.514631 59.031697 
L 135.819299 57.639343 
L 136.123967 57.285968 
L 136.428636 57.938268 
L 136.733304 59.5466 
L 137.342641 65.35754 
L 137.951977 74.042711 
L 138.865982 90.594101 
L 140.693992 124.781091 
L 141.303328 133.390951 
L 141.912665 139.604136 
L 142.522002 143.148166 
L 142.82667 143.902499 
L 143.131338 144.000915 
L 143.436007 143.478983 
L 143.740675 142.386354 
L 144.350012 138.75018 
L 145.264016 130.911189 
L 146.48269 120.093198 
L 147.092026 116.310614 
L 147.396695 115.132812 
L 147.701363 114.52368 
L 148.006031 114.537908 
L 148.310699 115.216536 
L 148.615368 116.585944 
L 149.224704 121.425162 
L 149.834041 128.952812 
L 150.748046 144.450395 
L 153.490061 197.436132 
L 154.099397 204.621601 
L 154.404066 206.947474 
L 154.708734 208.326262 
L 155.013402 208.699203 
L 155.31807 208.023644 
L 155.622739 206.273996 
L 155.927407 203.442594 
L 156.536744 194.595216 
L 157.14608 181.78409 
L 158.060085 156.469522 
L 161.411437 52.822629 
L 162.020773 41.652378 
L 162.63011 34.969306 
L 162.934778 33.432229 
L 163.239446 33.125529 
L 163.544115 34.045857 
L 163.848783 36.170539 
L 164.45812 43.849612 
L 165.067456 55.623447 
L 165.981461 79.192209 
L 169.028144 166.006479 
L 169.637481 177.347222 
L 170.246817 185.094854 
L 170.551486 187.551044 
L 170.856154 189.059472 
L 171.160822 189.639952 
L 171.465491 189.328236 
L 171.770159 188.175709 
L 172.379496 183.623404 
L 172.988832 176.649434 
L 174.207505 158.751573 
L 175.426179 141.438084 
L 176.035515 134.947005 
L 176.644852 130.632217 
L 176.94952 129.387504 
L 177.254188 128.772614 
L 177.558857 128.784165 
L 177.863525 129.403376 
L 178.168193 130.596552 
L 178.77753 134.50041 
L 179.691535 143.068097 
L 181.214876 158.329248 
L 181.824213 162.409423 
L 182.128881 163.643738 
L 182.43355 164.241203 
L 182.738218 164.141876 
L 183.042886 163.299246 
L 183.347555 161.681628 
L 183.956891 156.073212 
L 184.566228 147.383858 
L 185.480233 129.357019 
L 187.003574 91.79918 
L 188.222247 63.54916 
L 188.831584 52.821046 
L 189.440921 45.539965 
L 189.745589 43.40639 
L 190.050257 42.36225 
L 190.354926 42.450269 
L 190.659594 43.695275 
L 190.964262 46.103529 
L 191.573599 54.340891 
L 192.182935 66.838775 
L 193.09694 92.18234 
L 194.620282 144.012845 
L 195.838955 183.717148 
L 196.75296 206.593162 
L 197.362297 216.938627 
L 197.971633 222.741947 
L 198.276301 223.864838 
L 198.58097 223.799506 
L 198.885638 222.567867 
L 199.190306 220.210004 
L 199.799643 212.362124 
L 200.40898 200.902834 
L 201.322984 178.855054 
L 203.760331 116.200528 
L 204.674336 100.294524 
L 205.283672 93.645773 
L 205.588341 91.579812 
L 205.893009 90.345937 
L 206.197677 89.918537 
L 206.502346 90.256741 
L 206.807014 91.305287 
L 207.416351 95.249236 
L 208.025687 101.078989 
L 210.463034 127.043586 
L 211.07237 130.412096 
L 211.377039 131.24957 
L 211.681707 131.480445 
L 211.986375 131.091968 
L 212.291043 130.086833 
L 212.90038 126.314242 
L 213.509717 120.484793 
L 214.423722 109.105389 
L 215.947063 89.54584 
L 216.5564 83.999562 
L 216.861068 82.114567 
L 217.165736 80.932324 
L 217.470405 80.521507 
L 217.775073 80.937375 
L 218.079741 82.220449 
L 218.38441 84.39547 
L 218.993746 91.436975 
L 219.603083 101.922331 
L 220.517088 123.144898 
L 222.040429 166.667464 
L 223.259102 199.588067 
L 223.868439 212.458466 
L 224.477776 221.702964 
L 224.782444 224.743766 
L 225.087112 226.643001 
L 225.391781 227.356873 
L 225.696449 226.86011 
L 226.001117 225.146276 
L 226.305785 222.228235 
L 226.915122 212.926026 
L 227.524459 199.427691 
L 228.438464 172.991807 
L 231.485147 75.235298 
L 232.094483 62.151519 
L 232.70382 53.137255 
L 233.008488 50.27345 
L 233.313156 48.53116 
L 233.617825 47.906747 
L 233.922493 48.378209 
L 234.227161 49.905959 
L 234.836498 55.889727 
L 235.445835 65.23115 
L 236.35984 83.705391 
L 238.492518 130.561169 
L 239.406523 145.006131 
L 240.015859 151.250098 
L 240.625196 154.549451 
L 240.929864 155.111876 
L 241.234532 154.989663 
L 241.539201 154.231083 
L 241.843869 152.897537 
L 242.453206 148.807872 
L 243.367211 140.472947 
L 244.585884 129.462001 
L 245.19522 125.740418 
L 245.499889 124.608188 
L 245.804557 124.041528 
L 246.109225 124.083879 
L 246.413894 124.764288 
L 246.718562 126.096667 
L 247.327898 130.695186 
L 247.937235 137.67959 
L 248.85124 151.616266 
L 250.983918 186.961779 
L 251.593255 193.773218 
L 252.202591 197.607268 
L 252.50726 198.215429 
L 252.811928 197.875767 
L 253.116596 196.551345 
L 253.421265 194.222026 
L 254.030601 186.555757 
L 254.639938 175.068901 
L 255.553943 151.77174 
L 257.077284 103.804273 
L 258.295957 66.964872 
L 259.209962 46.052211 
L 259.819299 37.007466 
L 260.123967 34.192329 
L 260.428636 32.581623 
L 260.733304 32.201761 
L 261.037972 33.059954 
L 261.342641 35.143902 
L 261.951977 42.845449 
L 262.561314 54.838286 
L 263.475319 79.214837 
L 266.82667 179.591478 
L 267.436007 190.719564 
L 268.045343 197.916189 
L 268.350012 199.977637 
L 268.65468 201.016776 
L 268.959348 201.057422 
L 269.264016 200.140044 
L 269.568685 198.320948 
L 270.178021 192.273434 
L 270.787358 183.624862 
L 272.006031 162.020918 
L 273.224704 140.823935 
L 274.138709 129.053298 
L 274.748046 124.173007 
L 275.052714 122.717699 
L 275.357383 121.924847 
L 275.662051 121.779359 
L 275.966719 122.251028 
L 276.271387 123.295307 
L 276.880724 126.858454 
L 277.794729 134.697919 
L 279.013402 145.781455 
L 279.622739 149.79369 
L 279.927407 151.10002 
L 280.232075 151.840938 
L 280.536744 151.95663 
L 280.841412 151.400443 
L 281.14608 150.140217 
L 281.755417 145.455282 
L 282.364754 137.957022 
L 283.278758 122.175292 
L 284.8021 89.326977 
L 286.020773 65.331713 
L 286.63011 56.748582 
L 287.239446 51.546003 
L 287.544115 50.407935 
L 287.848783 50.320259 
L 288.153451 51.318407 
L 288.45812 53.42015 
L 289.067456 60.914116 
L 289.676793 72.577752 
L 290.590798 96.70617 
L 292.114139 147.21416 
L 293.332813 186.785873 
L 294.246817 210.013608 
L 294.856154 220.698492 
L 295.465491 226.831184 
L 295.770159 228.08739 
L 296.074827 228.119711 
L 296.379496 226.939344 
L 296.684164 224.576426 
L 297.2935 216.514225 
L 297.902837 204.522428 
L 298.816842 181.012644 
L 301.558857 104.046851 
L 302.168193 92.072269 
L 302.77753 83.486219 
L 303.386867 78.543393 
L 303.691535 77.442717 
L 303.996203 77.224453 
L 304.300871 77.845221 
L 304.60554 79.246776 
L 305.214876 84.095473 
L 306.128881 95.101892 
L 308.261559 123.372603 
L 308.870896 128.587758 
L 309.480233 131.535625 
L 309.784901 132.087975 
L 310.089569 132.018408 
L 310.394238 131.340552 
L 310.698906 130.083243 
L 311.308242 126.016922 
L 312.222247 117.066511 
L 313.745589 100.696129 
L 314.354926 96.032151 
L 314.659594 94.489815 
L 314.964262 93.580518 
L 315.26893 93.37024 
L 315.573599 93.911859 
L 315.878267 95.24388 
L 316.182935 97.389419 
L 316.792272 104.132431 
L 317.401609 113.997744 
L 318.315613 133.699704 
L 321.362297 207.822077 
L 321.971633 216.722381 
L 322.58097 221.622676 
L 322.885638 222.409821 
L 323.190306 222.035086 
L 323.494975 220.481308 
L 323.799643 217.750151 
L 324.40898 208.857023 
L 325.018316 195.742861 
L 325.932321 169.672058 
L 329.283672 62.704004 
L 329.893009 50.859734 
L 330.502346 43.378593 
L 330.807014 41.376257 
L 331.111682 40.549822 
L 331.416351 40.888489 
L 331.721019 42.362876 
L 332.025687 44.925864 
L 332.635024 53.046474 
L 333.24436 64.562209 
L 334.158365 86.238909 
L 336.291043 139.394605 
L 337.205048 155.717993 
L 337.814385 162.876248 
L 338.423722 166.804862 
L 338.72839 167.573237 
L 339.033058 167.584345 
L 339.337727 166.886781 
L 339.642395 165.5426 
L 340.251731 161.220715 
L 341.165736 152.032697 
L 342.689078 136.31492 
L 343.298414 132.132394 
L 343.603083 130.79668 
L 343.907751 130.031716 
L 344.212419 129.870259 
L 344.517088 130.330104 
L 344.821756 131.413652 
L 345.431093 135.384099 
L 346.040429 141.496482 
L 346.954434 153.521342 
L 348.477776 174.833591 
L 349.087112 181.284624 
L 349.696449 185.322628 
L 350.001117 186.227936 
L 350.305785 186.303081 
L 350.610454 185.499792 
L 350.915122 183.785297 
L 351.524459 177.574276 
L 352.133795 167.744966 
L 353.0478 147.051313 
L 354.266473 112.110241 
L 355.789815 67.896258 
L 356.70382 47.631105 
L 357.313156 38.711064 
L 357.617825 35.88828 
L 357.922493 34.235529 
L 358.227161 33.789344 
L 358.53183 34.567457 
L 358.836498 36.56841 
L 359.445835 44.137144 
L 360.055171 56.106095 
L 360.969176 80.788908 
L 362.492518 131.564558 
L 363.711191 170.466129 
L 364.625196 192.979957 
L 365.234532 203.330541 
L 365.843869 209.430451 
L 366.148537 210.835515 
L 366.453206 211.153537 
L 366.757874 210.414209 
L 367.062542 208.664139 
L 367.671879 202.396814 
L 368.281215 193.018073 
L 369.19522 174.993783 
L 371.327898 131.307492 
L 371.937235 122.291425 
L 372.546572 115.893763 
L 373.155908 112.33277 
L 373.460577 111.614551 
L 373.765245 111.572363 
L 374.069913 112.163699 
L 374.374582 113.332488 
L 374.983918 117.11842 
L 375.897923 125.112809 
L 377.116596 135.939479 
L 377.725933 139.665819 
L 378.030601 140.814009 
L 378.33527 141.400012 
L 378.639938 141.375516 
L 378.944606 140.706197 
L 379.249274 139.372723 
L 379.858611 134.713681 
L 380.467948 127.555876 
L 381.381953 113.068967 
L 383.514631 74.818678 
L 383.514631 74.818678 
" style="fill:none;stroke:#0000ff;stroke-linecap:square;stroke-width:1.5;"/>
   </g>
   <g id="patch_3">
    <path d="M 63.932812 239.758125 
L 63.932812 22.318125 
" style="fill:none;stroke:#000000;stroke-linecap:square;stroke-linejoin:miter;stroke-width:0.8;"/>
   </g>
   <g id="patch_4">
    <path d="M 398.732813 239.758125 
L 398.732813 22.318125 
" style="fill:none;stroke:#000000;stroke-linecap:square;stroke-linejoin:miter;stroke-width:0.8;"/>
   </g>
   <g id="patch_5">
    <path d="M 63.932812 239.758125 
L 398.732812 239.758125 
" style="fill:none;stroke:#000000;stroke-linecap:square;stroke-linejoin:miter;stroke-width:0.8;"/>
   </g>
   <g id="patch_6">
    <path d="M 63.932812 22.318125 
L 398.732812 22.318125 
" style="fill:none;stroke:#000000;stroke-linecap:square;stroke-linejoin:miter;stroke-width:0.8;"/>
   </g>
   <g id="text_16">
    <!-- Unknown mode -->
    <g transform="translate(184.558125 16.318125)scale(0.12 -0.12)">
     <defs>
      <path d="M 8.6875 72.90625 
L 18.609375 72.90625 
L 18.609375 28.609375 
Q 18.609375 16.890625 22.84375 11.734375 
Q 27.09375 6.59375 36.625 6.59375 
Q 46.09375 6.59375 50.34375 11.734375 
Q 54.59375 16.890625 54.59375 28.609375 
L 54.59375 72.90625 
L 64.5 72.90625 
L 64.5 27.390625 
Q 64.5 13.140625 57.4375 5.859375 
Q 50.390625 -1.421875 36.625 -1.421875 
Q 22.796875 -1.421875 15.734375 5.859375 
Q 8.6875 13.140625 8.6875 27.390625 
z
" id="DejaVuSans-85"/>
      <path d="M 54.890625 33.015625 
L 54.890625 0 
L 45.90625 0 
L 45.90625 32.71875 
Q 45.90625 40.484375 42.875 44.328125 
Q 39.84375 48.1875 33.796875 48.1875 
Q 26.515625 48.1875 22.3125 43.546875 
Q 18.109375 38.921875 18.109375 30.90625 
L 18.109375 0 
L 9.078125 0 
L 9.078125 54.6875 
L 18.109375 54.6875 
L 18.109375 46.1875 
Q 21.34375 51.125 25.703125 53.5625 
Q 30.078125 56 35.796875 56 
Q 45.21875 56 50.046875 50.171875 
Q 54.890625 44.34375 54.890625 33.015625 
z
" id="DejaVuSans-110"/>
      <path d="M 9.078125 75.984375 
L 18.109375 75.984375 
L 18.109375 31.109375 
L 44.921875 54.6875 
L 56.390625 54.6875 
L 27.390625 29.109375 
L 57.625 0 
L 45.90625 0 
L 18.109375 26.703125 
L 18.109375 0 
L 9.078125 0 
z
" id="DejaVuSans-107"/>
      <path d="M 30.609375 48.390625 
Q 23.390625 48.390625 19.1875 42.75 
Q 14.984375 37.109375 14.984375 27.296875 
Q 14.984375 17.484375 19.15625 11.84375 
Q 23.34375 6.203125 30.609375 6.203125 
Q 37.796875 6.203125 41.984375 11.859375 
Q 46.1875 17.53125 46.1875 27.296875 
Q 46.1875 37.015625 41.984375 42.703125 
Q 37.796875 48.390625 30.609375 48.390625 
z
M 30.609375 56 
Q 42.328125 56 49.015625 48.375 
Q 55.71875 40.765625 55.71875 27.296875 
Q 55.71875 13.875 49.015625 6.21875 
Q 42.328125 -1.421875 30.609375 -1.421875 
Q 18.84375 -1.421875 12.171875 6.21875 
Q 5.515625 13.875 5.515625 27.296875 
Q 5.515625 40.765625 12.171875 48.375 
Q 18.84375 56 30.609375 56 
z
" id="DejaVuSans-111"/>
      <path d="M 4.203125 54.6875 
L 13.1875 54.6875 
L 24.421875 12.015625 
L 35.59375 54.6875 
L 46.1875 54.6875 
L 57.421875 12.015625 
L 68.609375 54.6875 
L 77.59375 54.6875 
L 63.28125 0 
L 52.6875 0 
L 40.921875 44.828125 
L 29.109375 0 
L 18.5 0 
z
" id="DejaVuSans-119"/>
      <path id="DejaVuSans-32"/>
      <path d="M 52 44.1875 
Q 55.375 50.25 60.0625 53.125 
Q 64.75 56 71.09375 56 
Q 79.640625 56 84.28125 50.015625 
Q 88.921875 44.046875 88.921875 33.015625 
L 88.921875 0 
L 79.890625 0 
L 79.890625 32.71875 
Q 79.890625 40.578125 77.09375 44.375 
Q 74.3125 48.1875 68.609375 48.1875 
Q 61.625 48.1875 57.5625 43.546875 
Q 53.515625 38.921875 53.515625 30.90625 
L 53.515625 0 
L 44.484375 0 
L 44.484375 32.71875 
Q 44.484375 40.625 41.703125 44.40625 
Q 38.921875 48.1875 33.109375 48.1875 
Q 26.21875 48.1875 22.15625 43.53125 
Q 18.109375 38.875 18.109375 30.90625 
L 18.109375 0 
L 9.078125 0 
L 9.078125 54.6875 
L 18.109375 54.6875 
L 18.109375 46.1875 
Q 21.1875 51.21875 25.484375 53.609375 
Q 29.78125 56 35.6875 56 
Q 41.65625 56 45.828125 52.96875 
Q 50 49.953125 52 44.1875 
z
" id="DejaVuSans-109"/>
      <path d="M 45.40625 46.390625 
L 45.40625 75.984375 
L 54.390625 75.984375 
L 54.390625 0 
L 45.40625 0 
L 45.40625 8.203125 
Q 42.578125 3.328125 38.25 0.953125 
Q 33.9375 -1.421875 27.875 -1.421875 
Q 17.96875 -1.421875 11.734375 6.484375 
Q 5.515625 14.40625 5.515625 27.296875 
Q 5.515625 40.1875 11.734375 48.09375 
Q 17.96875 56 27.875 56 
Q 33.9375 56 38.25 53.625 
Q 42.578125 51.265625 45.40625 46.390625 
z
M 14.796875 27.296875 
Q 14.796875 17.390625 18.875 11.75 
Q 22.953125 6.109375 30.078125 6.109375 
Q 37.203125 6.109375 41.296875 11.75 
Q 45.40625 17.390625 45.40625 27.296875 
Q 45.40625 37.203125 41.296875 42.84375 
Q 37.203125 48.484375 30.078125 48.484375 
Q 22.953125 48.484375 18.875 42.84375 
Q 14.796875 37.203125 14.796875 27.296875 
z
" id="DejaVuSans-100"/>
      <path d="M 56.203125 29.59375 
L 56.203125 25.203125 
L 14.890625 25.203125 
Q 15.484375 15.921875 20.484375 11.0625 
Q 25.484375 6.203125 34.421875 6.203125 
Q 39.59375 6.203125 44.453125 7.46875 
Q 49.3125 8.734375 54.109375 11.28125 
L 54.109375 2.78125 
Q 49.265625 0.734375 44.1875 -0.34375 
Q 39.109375 -1.421875 33.890625 -1.421875 
Q 20.796875 -1.421875 13.15625 6.1875 
Q 5.515625 13.8125 5.515625 26.8125 
Q 5.515625 40.234375 12.765625 48.109375 
Q 20.015625 56 32.328125 56 
Q 43.359375 56 49.78125 48.890625 
Q 56.203125 41.796875 56.203125 29.59375 
z
M 47.21875 32.234375 
Q 47.125 39.59375 43.09375 43.984375 
Q 39.0625 48.390625 32.421875 48.390625 
Q 24.90625 48.390625 20.390625 44.140625 
Q 15.875 39.890625 15.1875 32.171875 
z
" id="DejaVuSans-101"/>
     </defs>
     <use xlink:href="#DejaVuSans-85"/>
     <use x="73.193359" xlink:href="#DejaVuSans-110"/>
     <use x="136.572266" xlink:href="#DejaVuSans-107"/>
     <use x="194.482422" xlink:href="#DejaVuSans-110"/>
     <use x="257.861328" xlink:href="#DejaVuSans-111"/>
     <use x="319.042969" xlink:href="#DejaVuSans-119"/>
     <use x="400.830078" xlink:href="#DejaVuSans-110"/>
     <use x="464.208984" xlink:href="#DejaVuSans-32"/>
     <use x="495.996094" xlink:href="#DejaVuSans-109"/>
     <use x="593.408203" xlink:href="#DejaVuSans-111"/>
     <use x="654.589844" xlink:href="#DejaVuSans-100"/>
     <use x="718.066406" xlink:href="#DejaVuSans-101"/>
    </g>
   </g>
  </g>
 </g>
 <defs>
  <clipPath id="p0789565f28">
   <rect height="217.44" width="334.8" x="63.932812" y="22.318125"/>
  </clipPath>
 </defs>
</svg>
