<?xml version="1.0" encoding="utf-8" standalone="no"?>
<!DOCTYPE svg PUBLIC "-//W3C//DTD SVG 1.1//EN"
  "http://www.w3.org/Graphics/SVG/1.1/DTD/svg11.dtd">
<!-- Created with matplotlib (https://matplotlib.org/) -->
<svg height="252.20711pt" version="1.1" viewBox="0 0 382.755264 252.20711" width="382.755264pt" xmlns="http://www.w3.org/2000/svg" xmlns:xlink="http://www.w3.org/1999/xlink">
 <metadata>
  <rdf:RDF xmlns:cc="http://creativecommons.org/ns#" xmlns:dc="http://purl.org/dc/elements/1.1/" xmlns:rdf="http://www.w3.org/1999/02/22-rdf-syntax-ns#">
   <cc:Work>
    <dc:type rdf:resource="http://purl.org/dc/dcmitype/StillImage"/>
    <dc:date>2021-09-15T10:27:36.233415</dc:date>
    <dc:format>image/svg+xml</dc:format>
    <dc:creator>
     <cc:Agent>
      <dc:title>Matplotlib v3.3.4, https://matplotlib.org/</dc:title>
     </cc:Agent>
    </dc:creator>
   </cc:Work>
  </rdf:RDF>
 </metadata>
 <defs>
  <style type="text/css">*{stroke-linecap:butt;stroke-linejoin:round;}</style>
 </defs>
 <g id="figure_1">
  <g id="patch_1">
   <path d="M 0 252.20711 
L 382.755264 252.20711 
L 382.755264 0 
L 0 0 
z
" style="fill:none;"/>
  </g>
  <g id="axes_1">
   <g id="patch_2">
    <path d="M 40.755264 224.64 
L 375.555264 224.64 
L 375.555264 7.2 
L 40.755264 7.2 
z
" style="fill:#ffffff;"/>
   </g>
   <g id="matplotlib.axis_1">
    <g id="xtick_1">
     <g id="line2d_1">
      <defs>
       <path d="M 0 0 
L 0 3.5 
" id="mab0988a8fb" style="stroke:#000000;stroke-width:0.8;"/>
      </defs>
      <g>
       <use style="stroke:#000000;stroke-width:0.8;" x="49.761943" xlink:href="#mab0988a8fb" y="224.64"/>
      </g>
     </g>
     <g id="text_1">
      <!-- $\mathdefault{0}$ -->
      <g transform="translate(46.025953 241.771866)scale(0.15 -0.15)">
       <defs>
        <path d="M 25.40625 68 
C 19.90625 68 15.703125 66.296875 12 62.796875 
C 6.203125 57.203125 2.40625 45.6875 2.40625 34 
C 2.40625 23.09375 5.703125 11.390625 10.40625 5.796875 
C 14.09375 1.390625 19.203125 -1 25 -1 
C 30.09375 -1 34.40625 0.6875 38 4.1875 
C 43.796875 9.6875 47.59375 21.296875 47.59375 33.390625 
C 47.59375 53.890625 38.5 68 25.40625 68 
z
M 25.09375 65.390625 
C 33.5 65.390625 38 54.09375 38 33.1875 
C 38 12.296875 33.59375 1.59375 25 1.59375 
C 16.40625 1.59375 12 12.296875 12 33.09375 
C 12 54.296875 16.5 65.390625 25.09375 65.390625 
z
" id="Nimbus_Roman_No9_L_Regular-48"/>
       </defs>
       <use transform="scale(0.996264)" xlink:href="#Nimbus_Roman_No9_L_Regular-48"/>
      </g>
     </g>
    </g>
    <g id="xtick_2">
     <g id="line2d_2">
      <g>
       <use style="stroke:#000000;stroke-width:0.8;" x="111.876971" xlink:href="#mab0988a8fb" y="224.64"/>
      </g>
     </g>
     <g id="text_2">
      <!-- $\mathdefault{1}$ -->
      <g transform="translate(108.140981 241.771866)scale(0.15 -0.15)">
       <defs>
        <path d="M 29.09375 68 
L 11.09375 59 
L 11.09375 57.59375 
C 12.296875 58.09375 13.40625 58.484375 13.796875 58.6875 
C 15.59375 59.390625 17.296875 59.78125 18.296875 59.78125 
C 20.40625 59.78125 21.296875 58.296875 21.296875 55.078125 
L 21.296875 9.359375 
C 21.296875 6.03125 20.5 3.71875 18.90625 2.796875 
C 17.40625 1.890625 16 1.59375 11.796875 1.5 
L 11.796875 0 
L 39.40625 0 
L 39.40625 1.5 
C 31.5 1.59375 29.90625 2.609375 29.90625 7.453125 
L 29.90625 67.796875 
z
" id="Nimbus_Roman_No9_L_Regular-49"/>
       </defs>
       <use transform="scale(0.996264)" xlink:href="#Nimbus_Roman_No9_L_Regular-49"/>
      </g>
     </g>
    </g>
    <g id="xtick_3">
     <g id="line2d_3">
      <g>
       <use style="stroke:#000000;stroke-width:0.8;" x="173.991999" xlink:href="#mab0988a8fb" y="224.64"/>
      </g>
     </g>
     <g id="text_3">
      <!-- $\mathdefault{2}$ -->
      <g transform="translate(170.256009 241.771866)scale(0.15 -0.15)">
       <defs>
        <path d="M 47.5 13.734375 
L 46.203125 14.25 
C 42.5 8.5 41.203125 7.59375 36.703125 7.59375 
L 12.796875 7.59375 
L 29.59375 25.328125 
C 38.5 34.703125 42.40625 42.359375 42.40625 50.21875 
C 42.40625 60.28125 34.296875 68 23.90625 68 
C 18.40625 68 13.203125 65.796875 9.5 61.796875 
C 6.296875 58.375 4.796875 55.15625 3.09375 48 
L 5.203125 47.484375 
C 9.203125 57.359375 12.796875 60.59375 19.703125 60.59375 
C 28.09375 60.59375 33.796875 54.84375 33.796875 46.390625 
C 33.796875 38.53125 29.203125 29.15625 20.796875 20.1875 
L 3 1.1875 
L 3 0 
L 42 0 
z
" id="Nimbus_Roman_No9_L_Regular-50"/>
       </defs>
       <use transform="scale(0.996264)" xlink:href="#Nimbus_Roman_No9_L_Regular-50"/>
      </g>
     </g>
    </g>
    <g id="xtick_4">
     <g id="line2d_4">
      <g>
       <use style="stroke:#000000;stroke-width:0.8;" x="236.107026" xlink:href="#mab0988a8fb" y="224.64"/>
      </g>
     </g>
     <g id="text_4">
      <!-- $\mathdefault{3}$ -->
      <g transform="translate(232.371036 241.771866)scale(0.15 -0.15)">
       <defs>
        <path d="M 15.296875 33.390625 
C 21.203125 33.390625 23.5 33.1875 25.90625 32.296875 
C 32.09375 30.09375 36 24.390625 36 17.5 
C 36 9.09375 30.296875 2.59375 22.90625 2.59375 
C 20.203125 2.59375 18.203125 3.296875 14.5 5.6875 
C 11.5 7.5 9.796875 8.1875 8.09375 8.1875 
C 5.796875 8.1875 4.296875 6.796875 4.296875 4.6875 
C 4.296875 1.1875 8.59375 -1 15.59375 -1 
C 23.296875 -1 31.203125 1.59375 35.90625 5.6875 
C 40.59375 9.796875 43.203125 15.59375 43.203125 22.296875 
C 43.203125 27.390625 41.59375 32.09375 38.703125 35.1875 
C 36.703125 37.390625 34.796875 38.59375 30.40625 40.5 
C 37.296875 45.1875 39.796875 48.890625 39.796875 54.296875 
C 39.796875 62.390625 33.40625 68 24.203125 68 
C 19.203125 68 14.796875 66.296875 11.203125 63.09375 
C 8.203125 60.390625 6.703125 57.796875 4.5 51.796875 
L 6 51.390625 
C 10.09375 58.703125 14.59375 61.984375 20.90625 61.984375 
C 27.40625 61.984375 31.90625 57.59375 31.90625 51.296875 
C 31.90625 47.6875 30.40625 44.09375 27.90625 41.59375 
C 24.90625 38.59375 22.09375 37.09375 15.296875 34.6875 
z
" id="Nimbus_Roman_No9_L_Regular-51"/>
       </defs>
       <use transform="scale(0.996264)" xlink:href="#Nimbus_Roman_No9_L_Regular-51"/>
      </g>
     </g>
    </g>
    <g id="xtick_5">
     <g id="line2d_5">
      <g>
       <use style="stroke:#000000;stroke-width:0.8;" x="298.222054" xlink:href="#mab0988a8fb" y="224.64"/>
      </g>
     </g>
     <g id="text_5">
      <!-- $\mathdefault{4}$ -->
      <g transform="translate(294.486064 241.771866)scale(0.15 -0.15)">
       <defs>
        <path d="M 47.203125 23.390625 
L 37 23.390625 
L 37 68 
L 32.59375 68 
L 1.203125 23.390625 
L 1.203125 17 
L 29.296875 17 
L 29.296875 0 
L 37 0 
L 37 17 
L 47.203125 17 
z
M 29.203125 23.390625 
L 5.203125 23.390625 
L 29.203125 57.765625 
z
" id="Nimbus_Roman_No9_L_Regular-52"/>
       </defs>
       <use transform="scale(0.996264)" xlink:href="#Nimbus_Roman_No9_L_Regular-52"/>
      </g>
     </g>
    </g>
    <g id="xtick_6">
     <g id="line2d_6">
      <g>
       <use style="stroke:#000000;stroke-width:0.8;" x="360.337082" xlink:href="#mab0988a8fb" y="224.64"/>
      </g>
     </g>
     <g id="text_6">
      <!-- $\mathdefault{5}$ -->
      <g transform="translate(356.601092 241.771866)scale(0.15 -0.15)">
       <defs>
        <path d="M 18.09375 58.09375 
L 37.703125 58.09375 
C 39.296875 58.09375 39.703125 58.296875 40 58.984375 
L 43.796875 67.890625 
L 42.90625 68.59375 
C 41.40625 66.5 40.40625 66 38.296875 66 
L 17.40625 66 
L 6.5 42.453125 
C 6.40625 42.265625 6.40625 42.15625 6.40625 41.96875 
C 6.40625 41.46875 6.796875 41.171875 7.59375 41.171875 
C 10.796875 41.171875 14.796875 40.484375 18.90625 39.1875 
C 30.40625 35.53125 35.703125 29.40625 35.703125 19.609375 
C 35.703125 10.109375 29.59375 2.6875 21.796875 2.6875 
C 19.796875 2.6875 18.09375 3.390625 15.09375 5.5625 
C 11.90625 7.84375 9.59375 8.828125 7.5 8.828125 
C 4.59375 8.828125 3.203125 7.640625 3.203125 5.171875 
C 3.203125 1.390625 7.90625 -1 15.40625 -1 
C 23.796875 -1 31 1.6875 36 6.75 
C 40.59375 11.203125 42.703125 16.84375 42.703125 24.359375 
C 42.703125 31.484375 40.796875 36.03125 35.796875 40.96875 
C 31.40625 45.328125 25.703125 47.609375 13.90625 49.6875 
z
" id="Nimbus_Roman_No9_L_Regular-53"/>
       </defs>
       <use transform="scale(0.996264)" xlink:href="#Nimbus_Roman_No9_L_Regular-53"/>
      </g>
     </g>
    </g>
   </g>
   <g id="matplotlib.axis_2">
    <g id="ytick_1">
     <g id="line2d_7">
      <defs>
       <path d="M 0 0 
L -3.5 0 
" id="m2f332c5066" style="stroke:#000000;stroke-width:0.8;"/>
      </defs>
      <g>
       <use style="stroke:#000000;stroke-width:0.8;" x="40.755264" xlink:href="#m2f332c5066" y="223.789343"/>
      </g>
     </g>
     <g id="text_7">
      <!-- $\mathdefault{−10}$ -->
      <g transform="translate(7.2 228.855276)scale(0.15 -0.15)">
       <defs>
        <path d="M 65.90625 23 
C 67.59375 23 69.40625 23 69.40625 25 
C 69.40625 27 67.59375 27 65.90625 27 
L 11.796875 27 
C 10.09375 27 8.296875 27 8.296875 25 
C 8.296875 23 10.09375 23 11.796875 23 
z
" id="CMSY10-0"/>
       </defs>
       <use transform="scale(0.996264)" xlink:href="#CMSY10-0"/>
       <use transform="translate(77.408707 0)scale(0.996264)" xlink:href="#Nimbus_Roman_No9_L_Regular-49"/>
       <use transform="translate(127.221908 0)scale(0.996264)" xlink:href="#Nimbus_Roman_No9_L_Regular-48"/>
      </g>
     </g>
    </g>
    <g id="ytick_2">
     <g id="line2d_8">
      <g>
       <use style="stroke:#000000;stroke-width:0.8;" x="40.755264" xlink:href="#m2f332c5066" y="172.624538"/>
      </g>
     </g>
     <g id="text_8">
      <!-- $\mathdefault{−5}$ -->
      <g transform="translate(14.67198 177.690472)scale(0.15 -0.15)">
       <use transform="scale(0.996264)" xlink:href="#CMSY10-0"/>
       <use transform="translate(77.408707 0)scale(0.996264)" xlink:href="#Nimbus_Roman_No9_L_Regular-53"/>
      </g>
     </g>
    </g>
    <g id="ytick_3">
     <g id="line2d_9">
      <g>
       <use style="stroke:#000000;stroke-width:0.8;" x="40.755264" xlink:href="#m2f332c5066" y="121.459734"/>
      </g>
     </g>
     <g id="text_9">
      <!-- $\mathdefault{0}$ -->
      <g transform="translate(26.283284 126.525668)scale(0.15 -0.15)">
       <use transform="scale(0.996264)" xlink:href="#Nimbus_Roman_No9_L_Regular-48"/>
      </g>
     </g>
    </g>
    <g id="ytick_4">
     <g id="line2d_10">
      <g>
       <use style="stroke:#000000;stroke-width:0.8;" x="40.755264" xlink:href="#m2f332c5066" y="70.29493"/>
      </g>
     </g>
     <g id="text_10">
      <!-- $\mathdefault{5}$ -->
      <g transform="translate(26.283284 75.360863)scale(0.15 -0.15)">
       <use transform="scale(0.996264)" xlink:href="#Nimbus_Roman_No9_L_Regular-53"/>
      </g>
     </g>
    </g>
    <g id="ytick_5">
     <g id="line2d_11">
      <g>
       <use style="stroke:#000000;stroke-width:0.8;" x="40.755264" xlink:href="#m2f332c5066" y="19.130126"/>
      </g>
     </g>
     <g id="text_11">
      <!-- $\mathdefault{10}$ -->
      <g transform="translate(18.811304 24.196059)scale(0.15 -0.15)">
       <use transform="scale(0.996264)" xlink:href="#Nimbus_Roman_No9_L_Regular-49"/>
       <use transform="translate(49.8132 0)scale(0.996264)" xlink:href="#Nimbus_Roman_No9_L_Regular-48"/>
      </g>
     </g>
    </g>
   </g>
   <g id="line2d_12">
    <path clip-path="url(#p034f848a2b)" d="M 55.973446 17.083636 
L 59.047826 49.950736 
L 62.122206 65.965891 
L 65.196586 75.202526 
L 68.270966 81.044205 
L 71.345347 84.950605 
L 74.419727 87.658364 
L 77.494107 89.583369 
L 80.568487 90.982336 
L 83.642867 92.026519 
L 86.717247 92.838685 
L 89.791628 93.513038 
L 92.866008 94.12654 
L 95.940388 94.745547 
L 99.014768 95.429712 
L 102.089148 96.234175 
L 105.163528 97.21058 
L 108.237909 98.407234 
L 111.312289 99.868584 
L 114.386669 101.634119 
L 117.461049 103.736775 
L 120.535429 106.200923 
L 123.609809 109.040008 
L 126.68419 112.253927 
L 129.75857 115.826299 
L 132.83295 119.721751 
L 135.90733 123.883441 
L 138.98171 128.231042 
L 142.05609 132.659469 
L 145.130471 137.038638 
L 148.204851 141.214579 
L 151.279231 145.012219 
L 154.353611 148.240098 
L 157.427991 150.697261 
L 160.502371 152.182408 
L 163.576752 152.505298 
L 166.651132 151.500175 
L 169.725512 149.040765 
L 172.799892 145.056143 
L 175.874272 139.546473 
L 178.948652 132.597371 
L 182.023033 124.391379 
L 185.097413 115.214879 
L 188.171793 105.458728 
L 191.246173 95.610968 
L 194.320553 86.240262 
L 197.394933 77.969227 
L 200.469314 71.437578 
L 203.543694 67.255974 
L 206.618074 65.952643 
L 209.692454 67.916138 
L 212.766834 73.338876 
L 215.841214 82.167199 
L 218.915595 94.064538 
L 221.989975 108.394409 
L 225.064355 124.229527 
L 228.138735 140.391854 
L 231.213115 155.526016 
L 234.287495 168.205151 
L 237.361876 177.064101 
L 240.436256 180.950276 
L 243.510636 179.077989 
L 246.585016 171.168277 
L 249.659396 157.553929 
L 252.733776 139.229404 
L 255.808157 117.828123 
L 258.882537 95.515741 
L 261.956917 74.797254 
L 265.031297 58.247698 
L 268.105677 48.189498 
L 271.180057 46.352461 
L 274.254438 53.562721 
L 277.328818 69.512275 
L 280.403198 92.658786 
L 283.477578 120.294697 
L 286.551958 148.804885 
L 289.626338 174.104508 
L 292.700718 192.216343 
L 295.775099 199.914659 
L 298.849479 195.33664 
L 301.923859 178.449055 
L 304.998239 151.262943 
L 308.072619 117.715929 
L 311.146999 83.189993 
L 314.22138 53.697382 
L 317.29576 34.838869 
L 320.37014 30.703348 
L 323.44452 42.920051 
L 326.5189 70.080273 
L 329.59328 107.704972 
L 332.667661 148.846996 
L 335.742041 185.291997 
L 338.816421 209.181621 
L 341.890801 214.756364 
L 344.965181 199.837317 
L 348.039561 166.665144 
L 351.113942 121.807266 
L 354.188322 75.026055 
L 357.262702 37.242903 
L 360.337082 17.983747 
" style="fill:none;stroke:#000000;stroke-linecap:square;stroke-width:1.5;"/>
   </g>
   <g id="patch_3">
    <path d="M 40.755264 224.64 
L 40.755264 7.2 
" style="fill:none;stroke:#000000;stroke-linecap:square;stroke-linejoin:miter;stroke-width:0.8;"/>
   </g>
   <g id="patch_4">
    <path d="M 375.555264 224.64 
L 375.555264 7.2 
" style="fill:none;stroke:#000000;stroke-linecap:square;stroke-linejoin:miter;stroke-width:0.8;"/>
   </g>
   <g id="patch_5">
    <path d="M 40.755264 224.64 
L 375.555264 224.64 
" style="fill:none;stroke:#000000;stroke-linecap:square;stroke-linejoin:miter;stroke-width:0.8;"/>
   </g>
   <g id="patch_6">
    <path d="M 40.755264 7.2 
L 375.555264 7.2 
" style="fill:none;stroke:#000000;stroke-linecap:square;stroke-linejoin:miter;stroke-width:0.8;"/>
   </g>
  </g>
 </g>
 <defs>
  <clipPath id="p034f848a2b">
   <rect height="217.44" width="334.8" x="40.755264" y="7.2"/>
  </clipPath>
 </defs>
</svg>
