<?xml version="1.0" encoding="utf-8" standalone="no"?>
<!DOCTYPE svg PUBLIC "-//W3C//DTD SVG 1.1//EN"
  "http://www.w3.org/Graphics/SVG/1.1/DTD/svg11.dtd">
<!-- Created with matplotlib (https://matplotlib.org/) -->
<svg height="248.518125pt" version="1.1" viewBox="0 0 405.932812 248.518125" width="405.932812pt" xmlns="http://www.w3.org/2000/svg" xmlns:xlink="http://www.w3.org/1999/xlink">
 <metadata>
  <rdf:RDF xmlns:cc="http://creativecommons.org/ns#" xmlns:dc="http://purl.org/dc/elements/1.1/" xmlns:rdf="http://www.w3.org/1999/02/22-rdf-syntax-ns#">
   <cc:Work>
    <dc:type rdf:resource="http://purl.org/dc/dcmitype/StillImage"/>
    <dc:date>2021-10-05T16:36:51.265278</dc:date>
    <dc:format>image/svg+xml</dc:format>
    <dc:creator>
     <cc:Agent>
      <dc:title>Matplotlib v3.3.4, https://matplotlib.org/</dc:title>
     </cc:Agent>
    </dc:creator>
   </cc:Work>
  </rdf:RDF>
 </metadata>
 <defs>
  <style type="text/css">*{stroke-linecap:butt;stroke-linejoin:round;}</style>
 </defs>
 <g id="figure_1">
  <g id="patch_1">
   <path d="M 0 248.518125 
L 405.932812 248.518125 
L 405.932812 0 
L 0 0 
z
" style="fill:none;"/>
  </g>
  <g id="axes_1">
   <g id="patch_2">
    <path d="M 63.932812 224.64 
L 398.732813 224.64 
L 398.732813 7.2 
L 63.932812 7.2 
z
" style="fill:#ffffff;"/>
   </g>
   <g id="matplotlib.axis_1">
    <g id="xtick_1">
     <g id="line2d_1">
      <path clip-path="url(#p2f279db86e)" d="M 79.150994 224.64 
L 79.150994 7.2 
" style="fill:none;stroke:#b0b0b0;stroke-linecap:square;stroke-width:0.8;"/>
     </g>
     <g id="line2d_2">
      <defs>
       <path d="M 0 0 
L 0 3.5 
" id="mf5b0435062" style="stroke:#000000;stroke-width:0.8;"/>
      </defs>
      <g>
       <use style="stroke:#000000;stroke-width:0.8;" x="79.150994" xlink:href="#mf5b0435062" y="224.64"/>
      </g>
     </g>
     <g id="text_1">
      <!-- 0 -->
      <g transform="translate(75.969744 239.238438)scale(0.1 -0.1)">
       <defs>
        <path d="M 31.78125 66.40625 
Q 24.171875 66.40625 20.328125 58.90625 
Q 16.5 51.421875 16.5 36.375 
Q 16.5 21.390625 20.328125 13.890625 
Q 24.171875 6.390625 31.78125 6.390625 
Q 39.453125 6.390625 43.28125 13.890625 
Q 47.125 21.390625 47.125 36.375 
Q 47.125 51.421875 43.28125 58.90625 
Q 39.453125 66.40625 31.78125 66.40625 
z
M 31.78125 74.21875 
Q 44.046875 74.21875 50.515625 64.515625 
Q 56.984375 54.828125 56.984375 36.375 
Q 56.984375 17.96875 50.515625 8.265625 
Q 44.046875 -1.421875 31.78125 -1.421875 
Q 19.53125 -1.421875 13.0625 8.265625 
Q 6.59375 17.96875 6.59375 36.375 
Q 6.59375 54.828125 13.0625 64.515625 
Q 19.53125 74.21875 31.78125 74.21875 
z
" id="DejaVuSans-48"/>
       </defs>
       <use xlink:href="#DejaVuSans-48"/>
      </g>
     </g>
    </g>
    <g id="xtick_2">
     <g id="line2d_3">
      <path clip-path="url(#p2f279db86e)" d="M 140.023722 224.64 
L 140.023722 7.2 
" style="fill:none;stroke:#b0b0b0;stroke-linecap:square;stroke-width:0.8;"/>
     </g>
     <g id="line2d_4">
      <g>
       <use style="stroke:#000000;stroke-width:0.8;" x="140.023722" xlink:href="#mf5b0435062" y="224.64"/>
      </g>
     </g>
     <g id="text_2">
      <!-- 1 -->
      <g transform="translate(136.842472 239.238438)scale(0.1 -0.1)">
       <defs>
        <path d="M 12.40625 8.296875 
L 28.515625 8.296875 
L 28.515625 63.921875 
L 10.984375 60.40625 
L 10.984375 69.390625 
L 28.421875 72.90625 
L 38.28125 72.90625 
L 38.28125 8.296875 
L 54.390625 8.296875 
L 54.390625 0 
L 12.40625 0 
z
" id="DejaVuSans-49"/>
       </defs>
       <use xlink:href="#DejaVuSans-49"/>
      </g>
     </g>
    </g>
    <g id="xtick_3">
     <g id="line2d_5">
      <path clip-path="url(#p2f279db86e)" d="M 200.896449 224.64 
L 200.896449 7.2 
" style="fill:none;stroke:#b0b0b0;stroke-linecap:square;stroke-width:0.8;"/>
     </g>
     <g id="line2d_6">
      <g>
       <use style="stroke:#000000;stroke-width:0.8;" x="200.896449" xlink:href="#mf5b0435062" y="224.64"/>
      </g>
     </g>
     <g id="text_3">
      <!-- 2 -->
      <g transform="translate(197.715199 239.238438)scale(0.1 -0.1)">
       <defs>
        <path d="M 19.1875 8.296875 
L 53.609375 8.296875 
L 53.609375 0 
L 7.328125 0 
L 7.328125 8.296875 
Q 12.9375 14.109375 22.625 23.890625 
Q 32.328125 33.6875 34.8125 36.53125 
Q 39.546875 41.84375 41.421875 45.53125 
Q 43.3125 49.21875 43.3125 52.78125 
Q 43.3125 58.59375 39.234375 62.25 
Q 35.15625 65.921875 28.609375 65.921875 
Q 23.96875 65.921875 18.8125 64.3125 
Q 13.671875 62.703125 7.8125 59.421875 
L 7.8125 69.390625 
Q 13.765625 71.78125 18.9375 73 
Q 24.125 74.21875 28.421875 74.21875 
Q 39.75 74.21875 46.484375 68.546875 
Q 53.21875 62.890625 53.21875 53.421875 
Q 53.21875 48.921875 51.53125 44.890625 
Q 49.859375 40.875 45.40625 35.40625 
Q 44.1875 33.984375 37.640625 27.21875 
Q 31.109375 20.453125 19.1875 8.296875 
z
" id="DejaVuSans-50"/>
       </defs>
       <use xlink:href="#DejaVuSans-50"/>
      </g>
     </g>
    </g>
    <g id="xtick_4">
     <g id="line2d_7">
      <path clip-path="url(#p2f279db86e)" d="M 261.769176 224.64 
L 261.769176 7.2 
" style="fill:none;stroke:#b0b0b0;stroke-linecap:square;stroke-width:0.8;"/>
     </g>
     <g id="line2d_8">
      <g>
       <use style="stroke:#000000;stroke-width:0.8;" x="261.769176" xlink:href="#mf5b0435062" y="224.64"/>
      </g>
     </g>
     <g id="text_4">
      <!-- 3 -->
      <g transform="translate(258.587926 239.238438)scale(0.1 -0.1)">
       <defs>
        <path d="M 40.578125 39.3125 
Q 47.65625 37.796875 51.625 33 
Q 55.609375 28.21875 55.609375 21.1875 
Q 55.609375 10.40625 48.1875 4.484375 
Q 40.765625 -1.421875 27.09375 -1.421875 
Q 22.515625 -1.421875 17.65625 -0.515625 
Q 12.796875 0.390625 7.625 2.203125 
L 7.625 11.71875 
Q 11.71875 9.328125 16.59375 8.109375 
Q 21.484375 6.890625 26.8125 6.890625 
Q 36.078125 6.890625 40.9375 10.546875 
Q 45.796875 14.203125 45.796875 21.1875 
Q 45.796875 27.640625 41.28125 31.265625 
Q 36.765625 34.90625 28.71875 34.90625 
L 20.21875 34.90625 
L 20.21875 43.015625 
L 29.109375 43.015625 
Q 36.375 43.015625 40.234375 45.921875 
Q 44.09375 48.828125 44.09375 54.296875 
Q 44.09375 59.90625 40.109375 62.90625 
Q 36.140625 65.921875 28.71875 65.921875 
Q 24.65625 65.921875 20.015625 65.03125 
Q 15.375 64.15625 9.8125 62.3125 
L 9.8125 71.09375 
Q 15.4375 72.65625 20.34375 73.4375 
Q 25.25 74.21875 29.59375 74.21875 
Q 40.828125 74.21875 47.359375 69.109375 
Q 53.90625 64.015625 53.90625 55.328125 
Q 53.90625 49.265625 50.4375 45.09375 
Q 46.96875 40.921875 40.578125 39.3125 
z
" id="DejaVuSans-51"/>
       </defs>
       <use xlink:href="#DejaVuSans-51"/>
      </g>
     </g>
    </g>
    <g id="xtick_5">
     <g id="line2d_9">
      <path clip-path="url(#p2f279db86e)" d="M 322.641903 224.64 
L 322.641903 7.2 
" style="fill:none;stroke:#b0b0b0;stroke-linecap:square;stroke-width:0.8;"/>
     </g>
     <g id="line2d_10">
      <g>
       <use style="stroke:#000000;stroke-width:0.8;" x="322.641903" xlink:href="#mf5b0435062" y="224.64"/>
      </g>
     </g>
     <g id="text_5">
      <!-- 4 -->
      <g transform="translate(319.460653 239.238438)scale(0.1 -0.1)">
       <defs>
        <path d="M 37.796875 64.3125 
L 12.890625 25.390625 
L 37.796875 25.390625 
z
M 35.203125 72.90625 
L 47.609375 72.90625 
L 47.609375 25.390625 
L 58.015625 25.390625 
L 58.015625 17.1875 
L 47.609375 17.1875 
L 47.609375 0 
L 37.796875 0 
L 37.796875 17.1875 
L 4.890625 17.1875 
L 4.890625 26.703125 
z
" id="DejaVuSans-52"/>
       </defs>
       <use xlink:href="#DejaVuSans-52"/>
      </g>
     </g>
    </g>
    <g id="xtick_6">
     <g id="line2d_11">
      <path clip-path="url(#p2f279db86e)" d="M 383.514631 224.64 
L 383.514631 7.2 
" style="fill:none;stroke:#b0b0b0;stroke-linecap:square;stroke-width:0.8;"/>
     </g>
     <g id="line2d_12">
      <g>
       <use style="stroke:#000000;stroke-width:0.8;" x="383.514631" xlink:href="#mf5b0435062" y="224.64"/>
      </g>
     </g>
     <g id="text_6">
      <!-- 5 -->
      <g transform="translate(380.333381 239.238438)scale(0.1 -0.1)">
       <defs>
        <path d="M 10.796875 72.90625 
L 49.515625 72.90625 
L 49.515625 64.59375 
L 19.828125 64.59375 
L 19.828125 46.734375 
Q 21.96875 47.46875 24.109375 47.828125 
Q 26.265625 48.1875 28.421875 48.1875 
Q 40.625 48.1875 47.75 41.5 
Q 54.890625 34.8125 54.890625 23.390625 
Q 54.890625 11.625 47.5625 5.09375 
Q 40.234375 -1.421875 26.90625 -1.421875 
Q 22.3125 -1.421875 17.546875 -0.640625 
Q 12.796875 0.140625 7.71875 1.703125 
L 7.71875 11.625 
Q 12.109375 9.234375 16.796875 8.0625 
Q 21.484375 6.890625 26.703125 6.890625 
Q 35.15625 6.890625 40.078125 11.328125 
Q 45.015625 15.765625 45.015625 23.390625 
Q 45.015625 31 40.078125 35.4375 
Q 35.15625 39.890625 26.703125 39.890625 
Q 22.75 39.890625 18.8125 39.015625 
Q 14.890625 38.140625 10.796875 36.28125 
z
" id="DejaVuSans-53"/>
       </defs>
       <use xlink:href="#DejaVuSans-53"/>
      </g>
     </g>
    </g>
   </g>
   <g id="matplotlib.axis_2">
    <g id="ytick_1">
     <g id="line2d_13">
      <path clip-path="url(#p2f279db86e)" d="M 63.932812 214.755247 
L 398.732813 214.755247 
" style="fill:none;stroke:#b0b0b0;stroke-linecap:square;stroke-width:0.8;"/>
     </g>
     <g id="line2d_14">
      <defs>
       <path d="M 0 0 
L -3.5 0 
" id="m9120bae9a5" style="stroke:#000000;stroke-width:0.8;"/>
      </defs>
      <g>
       <use style="stroke:#000000;stroke-width:0.8;" x="63.932812" xlink:href="#m9120bae9a5" y="214.755247"/>
      </g>
     </g>
     <g id="text_7">
      <!-- −0.00100 -->
      <g transform="translate(7.2 218.554466)scale(0.1 -0.1)">
       <defs>
        <path d="M 10.59375 35.5 
L 73.1875 35.5 
L 73.1875 27.203125 
L 10.59375 27.203125 
z
" id="DejaVuSans-8722"/>
        <path d="M 10.6875 12.40625 
L 21 12.40625 
L 21 0 
L 10.6875 0 
z
" id="DejaVuSans-46"/>
       </defs>
       <use xlink:href="#DejaVuSans-8722"/>
       <use x="83.789062" xlink:href="#DejaVuSans-48"/>
       <use x="147.412109" xlink:href="#DejaVuSans-46"/>
       <use x="179.199219" xlink:href="#DejaVuSans-48"/>
       <use x="242.822266" xlink:href="#DejaVuSans-48"/>
       <use x="306.445312" xlink:href="#DejaVuSans-49"/>
       <use x="370.068359" xlink:href="#DejaVuSans-48"/>
       <use x="433.691406" xlink:href="#DejaVuSans-48"/>
      </g>
     </g>
    </g>
    <g id="ytick_2">
     <g id="line2d_15">
      <path clip-path="url(#p2f279db86e)" d="M 63.932812 190.046296 
L 398.732813 190.046296 
" style="fill:none;stroke:#b0b0b0;stroke-linecap:square;stroke-width:0.8;"/>
     </g>
     <g id="line2d_16">
      <g>
       <use style="stroke:#000000;stroke-width:0.8;" x="63.932812" xlink:href="#m9120bae9a5" y="190.046296"/>
      </g>
     </g>
     <g id="text_8">
      <!-- −0.00075 -->
      <g transform="translate(7.2 193.845515)scale(0.1 -0.1)">
       <defs>
        <path d="M 8.203125 72.90625 
L 55.078125 72.90625 
L 55.078125 68.703125 
L 28.609375 0 
L 18.3125 0 
L 43.21875 64.59375 
L 8.203125 64.59375 
z
" id="DejaVuSans-55"/>
       </defs>
       <use xlink:href="#DejaVuSans-8722"/>
       <use x="83.789062" xlink:href="#DejaVuSans-48"/>
       <use x="147.412109" xlink:href="#DejaVuSans-46"/>
       <use x="179.199219" xlink:href="#DejaVuSans-48"/>
       <use x="242.822266" xlink:href="#DejaVuSans-48"/>
       <use x="306.445312" xlink:href="#DejaVuSans-48"/>
       <use x="370.068359" xlink:href="#DejaVuSans-55"/>
       <use x="433.691406" xlink:href="#DejaVuSans-53"/>
      </g>
     </g>
    </g>
    <g id="ytick_3">
     <g id="line2d_17">
      <path clip-path="url(#p2f279db86e)" d="M 63.932812 165.337344 
L 398.732813 165.337344 
" style="fill:none;stroke:#b0b0b0;stroke-linecap:square;stroke-width:0.8;"/>
     </g>
     <g id="line2d_18">
      <g>
       <use style="stroke:#000000;stroke-width:0.8;" x="63.932812" xlink:href="#m9120bae9a5" y="165.337344"/>
      </g>
     </g>
     <g id="text_9">
      <!-- −0.00050 -->
      <g transform="translate(7.2 169.136563)scale(0.1 -0.1)">
       <use xlink:href="#DejaVuSans-8722"/>
       <use x="83.789062" xlink:href="#DejaVuSans-48"/>
       <use x="147.412109" xlink:href="#DejaVuSans-46"/>
       <use x="179.199219" xlink:href="#DejaVuSans-48"/>
       <use x="242.822266" xlink:href="#DejaVuSans-48"/>
       <use x="306.445312" xlink:href="#DejaVuSans-48"/>
       <use x="370.068359" xlink:href="#DejaVuSans-53"/>
       <use x="433.691406" xlink:href="#DejaVuSans-48"/>
      </g>
     </g>
    </g>
    <g id="ytick_4">
     <g id="line2d_19">
      <path clip-path="url(#p2f279db86e)" d="M 63.932812 140.628393 
L 398.732813 140.628393 
" style="fill:none;stroke:#b0b0b0;stroke-linecap:square;stroke-width:0.8;"/>
     </g>
     <g id="line2d_20">
      <g>
       <use style="stroke:#000000;stroke-width:0.8;" x="63.932812" xlink:href="#m9120bae9a5" y="140.628393"/>
      </g>
     </g>
     <g id="text_10">
      <!-- −0.00025 -->
      <g transform="translate(7.2 144.427612)scale(0.1 -0.1)">
       <use xlink:href="#DejaVuSans-8722"/>
       <use x="83.789062" xlink:href="#DejaVuSans-48"/>
       <use x="147.412109" xlink:href="#DejaVuSans-46"/>
       <use x="179.199219" xlink:href="#DejaVuSans-48"/>
       <use x="242.822266" xlink:href="#DejaVuSans-48"/>
       <use x="306.445312" xlink:href="#DejaVuSans-48"/>
       <use x="370.068359" xlink:href="#DejaVuSans-50"/>
       <use x="433.691406" xlink:href="#DejaVuSans-53"/>
      </g>
     </g>
    </g>
    <g id="ytick_5">
     <g id="line2d_21">
      <path clip-path="url(#p2f279db86e)" d="M 63.932812 115.919442 
L 398.732813 115.919442 
" style="fill:none;stroke:#b0b0b0;stroke-linecap:square;stroke-width:0.8;"/>
     </g>
     <g id="line2d_22">
      <g>
       <use style="stroke:#000000;stroke-width:0.8;" x="63.932812" xlink:href="#m9120bae9a5" y="115.919442"/>
      </g>
     </g>
     <g id="text_11">
      <!-- 0.00000 -->
      <g transform="translate(15.579687 119.718661)scale(0.1 -0.1)">
       <use xlink:href="#DejaVuSans-48"/>
       <use x="63.623047" xlink:href="#DejaVuSans-46"/>
       <use x="95.410156" xlink:href="#DejaVuSans-48"/>
       <use x="159.033203" xlink:href="#DejaVuSans-48"/>
       <use x="222.65625" xlink:href="#DejaVuSans-48"/>
       <use x="286.279297" xlink:href="#DejaVuSans-48"/>
       <use x="349.902344" xlink:href="#DejaVuSans-48"/>
      </g>
     </g>
    </g>
    <g id="ytick_6">
     <g id="line2d_23">
      <path clip-path="url(#p2f279db86e)" d="M 63.932812 91.21049 
L 398.732813 91.21049 
" style="fill:none;stroke:#b0b0b0;stroke-linecap:square;stroke-width:0.8;"/>
     </g>
     <g id="line2d_24">
      <g>
       <use style="stroke:#000000;stroke-width:0.8;" x="63.932812" xlink:href="#m9120bae9a5" y="91.21049"/>
      </g>
     </g>
     <g id="text_12">
      <!-- 0.00025 -->
      <g transform="translate(15.579687 95.009709)scale(0.1 -0.1)">
       <use xlink:href="#DejaVuSans-48"/>
       <use x="63.623047" xlink:href="#DejaVuSans-46"/>
       <use x="95.410156" xlink:href="#DejaVuSans-48"/>
       <use x="159.033203" xlink:href="#DejaVuSans-48"/>
       <use x="222.65625" xlink:href="#DejaVuSans-48"/>
       <use x="286.279297" xlink:href="#DejaVuSans-50"/>
       <use x="349.902344" xlink:href="#DejaVuSans-53"/>
      </g>
     </g>
    </g>
    <g id="ytick_7">
     <g id="line2d_25">
      <path clip-path="url(#p2f279db86e)" d="M 63.932812 66.501539 
L 398.732813 66.501539 
" style="fill:none;stroke:#b0b0b0;stroke-linecap:square;stroke-width:0.8;"/>
     </g>
     <g id="line2d_26">
      <g>
       <use style="stroke:#000000;stroke-width:0.8;" x="63.932812" xlink:href="#m9120bae9a5" y="66.501539"/>
      </g>
     </g>
     <g id="text_13">
      <!-- 0.00050 -->
      <g transform="translate(15.579687 70.300758)scale(0.1 -0.1)">
       <use xlink:href="#DejaVuSans-48"/>
       <use x="63.623047" xlink:href="#DejaVuSans-46"/>
       <use x="95.410156" xlink:href="#DejaVuSans-48"/>
       <use x="159.033203" xlink:href="#DejaVuSans-48"/>
       <use x="222.65625" xlink:href="#DejaVuSans-48"/>
       <use x="286.279297" xlink:href="#DejaVuSans-53"/>
       <use x="349.902344" xlink:href="#DejaVuSans-48"/>
      </g>
     </g>
    </g>
    <g id="ytick_8">
     <g id="line2d_27">
      <path clip-path="url(#p2f279db86e)" d="M 63.932812 41.792588 
L 398.732813 41.792588 
" style="fill:none;stroke:#b0b0b0;stroke-linecap:square;stroke-width:0.8;"/>
     </g>
     <g id="line2d_28">
      <g>
       <use style="stroke:#000000;stroke-width:0.8;" x="63.932812" xlink:href="#m9120bae9a5" y="41.792588"/>
      </g>
     </g>
     <g id="text_14">
      <!-- 0.00075 -->
      <g transform="translate(15.579687 45.591806)scale(0.1 -0.1)">
       <use xlink:href="#DejaVuSans-48"/>
       <use x="63.623047" xlink:href="#DejaVuSans-46"/>
       <use x="95.410156" xlink:href="#DejaVuSans-48"/>
       <use x="159.033203" xlink:href="#DejaVuSans-48"/>
       <use x="222.65625" xlink:href="#DejaVuSans-48"/>
       <use x="286.279297" xlink:href="#DejaVuSans-55"/>
       <use x="349.902344" xlink:href="#DejaVuSans-53"/>
      </g>
     </g>
    </g>
    <g id="ytick_9">
     <g id="line2d_29">
      <path clip-path="url(#p2f279db86e)" d="M 63.932812 17.083636 
L 398.732813 17.083636 
" style="fill:none;stroke:#b0b0b0;stroke-linecap:square;stroke-width:0.8;"/>
     </g>
     <g id="line2d_30">
      <g>
       <use style="stroke:#000000;stroke-width:0.8;" x="63.932812" xlink:href="#m9120bae9a5" y="17.083636"/>
      </g>
     </g>
     <g id="text_15">
      <!-- 0.00100 -->
      <g transform="translate(15.579687 20.882855)scale(0.1 -0.1)">
       <use xlink:href="#DejaVuSans-48"/>
       <use x="63.623047" xlink:href="#DejaVuSans-46"/>
       <use x="95.410156" xlink:href="#DejaVuSans-48"/>
       <use x="159.033203" xlink:href="#DejaVuSans-48"/>
       <use x="222.65625" xlink:href="#DejaVuSans-49"/>
       <use x="286.279297" xlink:href="#DejaVuSans-48"/>
       <use x="349.902344" xlink:href="#DejaVuSans-48"/>
      </g>
     </g>
    </g>
   </g>
   <g id="line2d_31">
    <path clip-path="url(#p2f279db86e)" d="M 79.150994 17.083636 
L 80.064999 17.167181 
L 81.283672 17.538127 
L 82.502346 18.204718 
L 83.721019 19.164902 
L 84.939692 20.41594 
L 86.158365 21.953901 
L 87.681707 24.272907 
L 89.205048 27.022359 
L 90.72839 30.189374 
L 92.5564 34.519595 
L 94.38441 39.400036 
L 96.517088 45.745069 
L 98.954434 53.783288 
L 101.696449 63.71328 
L 104.743132 75.670375 
L 108.399152 90.994707 
L 113.883181 115.108239 
L 120.890552 145.793033 
L 124.546572 160.816853 
L 127.593255 172.427177 
L 130.33527 181.975983 
L 132.772616 189.625182 
L 134.905294 195.594741 
L 136.733304 200.130097 
L 138.561314 204.096144 
L 140.084655 206.946916 
L 141.607997 209.370229 
L 143.131338 211.354826 
L 144.350012 212.6202 
L 145.568685 213.594997 
L 146.787358 214.276246 
L 148.006031 214.661875 
L 149.224704 214.750724 
L 150.443378 214.542535 
L 151.662051 214.037949 
L 152.880724 213.238511 
L 154.099397 212.146554 
L 155.31807 210.765369 
L 156.841412 208.63869 
L 158.364754 206.076727 
L 159.888095 203.091438 
L 161.716105 198.970262 
L 163.544115 194.287671 
L 165.676793 188.157548 
L 167.809471 181.362941 
L 170.246817 172.864431 
L 172.988832 162.491398 
L 176.340184 148.868802 
L 180.60554 130.492291 
L 192.487604 78.656014 
L 195.838955 65.328871 
L 198.58097 55.265819 
L 201.018316 47.090299 
L 203.150994 40.611834 
L 205.283672 34.826081 
L 207.111682 30.458774 
L 208.939692 26.669141 
L 210.463034 23.970983 
L 211.986375 21.704533 
L 213.509717 19.880428 
L 214.72839 18.74545 
L 215.947063 17.902507 
L 217.165736 17.354134 
L 218.38441 17.101977 
L 219.298414 17.107734 
L 220.517088 17.37522 
L 221.735761 17.938855 
L 222.954434 18.796948 
L 224.173107 19.946917 
L 225.391781 21.385307 
L 226.915122 23.582218 
L 228.438464 26.212656 
L 229.961805 29.264268 
L 231.789815 33.46184 
L 233.617825 38.216791 
L 235.750503 44.425629 
L 238.187849 52.323129 
L 240.625196 60.984531 
L 243.367211 71.511864 
L 246.718562 85.278167 
L 251.288586 105.107135 
L 261.342641 149.131842 
L 264.693992 162.737252 
L 267.740675 174.191677 
L 270.178021 182.577859 
L 272.615368 190.163343 
L 274.748046 196.071934 
L 276.576056 200.551488 
L 278.404066 204.458959 
L 279.927407 207.258995 
L 281.450749 209.630193 
L 282.97409 211.561423 
L 284.192763 212.783461 
L 285.411437 213.714395 
L 286.63011 214.351424 
L 287.848783 214.692645 
L 289.067456 214.737031 
L 290.286129 214.484449 
L 291.504803 213.935653 
L 292.723476 213.092287 
L 293.942149 211.95689 
L 295.160822 210.532874 
L 296.684164 208.353586 
L 298.207505 205.740316 
L 299.730847 202.705334 
L 301.558857 198.526892 
L 303.386867 193.790051 
L 305.519545 187.600891 
L 307.652223 180.752346 
L 310.089569 172.199099 
L 312.831584 161.77407 
L 316.182935 148.102755 
L 320.448292 129.689458 
L 332.025687 79.160093 
L 335.377039 65.796579 
L 338.119053 55.69581 
L 340.5564 47.481293 
L 342.689078 40.964811 
L 344.821756 35.137829 
L 346.649766 30.732862 
L 348.477776 26.903736 
L 350.001117 24.171467 
L 351.524459 21.869955 
L 353.0478 20.010008 
L 354.266473 18.845919 
L 355.485147 17.973564 
L 356.70382 17.395559 
L 357.922493 17.113646 
L 359.141166 17.128669 
L 360.35984 17.440583 
L 361.578513 18.048453 
L 362.797186 18.950448 
L 364.015859 20.143863 
L 365.234532 21.625104 
L 366.757874 23.874558 
L 368.281215 26.556164 
L 369.804557 29.657338 
L 371.632567 33.911933 
L 373.460577 38.720877 
L 375.593255 44.988379 
L 378.030601 52.946553 
L 380.467948 61.661157 
L 383.514631 73.457902 
L 383.514631 73.457902 
" style="fill:none;stroke:#000000;stroke-linecap:square;stroke-width:1.5;"/>
   </g>
   <g id="line2d_32">
    <path clip-path="url(#p2f279db86e)" d="M 79.150994 17.083636 
L 80.064999 17.167181 
L 81.283672 17.538127 
L 82.502346 18.204718 
L 83.721019 19.164902 
L 84.939692 20.41594 
L 86.158365 21.953901 
L 87.681707 24.272907 
L 89.205048 27.022359 
L 90.72839 30.189374 
L 92.5564 34.519595 
L 94.38441 39.400036 
L 96.517088 45.745069 
L 98.954434 53.783288 
L 101.696449 63.71328 
L 104.743132 75.670375 
L 108.399152 90.994707 
L 113.883181 115.108239 
L 120.890552 145.793033 
L 124.546572 160.816853 
L 127.593255 172.427177 
L 130.33527 181.975983 
L 132.772616 189.625182 
L 134.905294 195.594741 
L 136.733304 200.130097 
L 138.561314 204.096144 
L 140.084655 206.946916 
L 141.607997 209.370229 
L 143.131338 211.354826 
L 144.350012 212.6202 
L 145.568685 213.594997 
L 146.787358 214.276246 
L 148.006031 214.661875 
L 149.224704 214.750724 
L 150.443378 214.542535 
L 151.662051 214.037949 
L 152.880724 213.238511 
L 154.099397 212.146554 
L 155.31807 210.765369 
L 156.841412 208.63869 
L 158.364754 206.076727 
L 159.888095 203.091438 
L 161.716105 198.970262 
L 163.544115 194.287671 
L 165.676793 188.157548 
L 167.809471 181.362941 
L 170.246817 172.864431 
L 172.988832 162.491398 
L 176.340184 148.868802 
L 180.60554 130.492291 
L 192.487604 78.656014 
L 195.838955 65.328871 
L 198.58097 55.265819 
L 201.018316 47.090299 
L 203.150994 40.611834 
L 205.283672 34.826081 
L 207.111682 30.458774 
L 208.939692 26.669141 
L 210.463034 23.970983 
L 211.986375 21.704533 
L 213.509717 19.880428 
L 214.72839 18.74545 
L 215.947063 17.902507 
L 217.165736 17.354134 
L 218.38441 17.101977 
L 219.298414 17.107734 
L 220.517088 17.37522 
L 221.735761 17.938855 
L 222.954434 18.796948 
L 224.173107 19.946917 
L 225.391781 21.385307 
L 226.915122 23.582218 
L 228.438464 26.212656 
L 229.961805 29.264268 
L 231.789815 33.46184 
L 233.617825 38.216791 
L 235.750503 44.425629 
L 238.187849 52.323129 
L 240.625196 60.984531 
L 243.367211 71.511864 
L 246.718562 85.278167 
L 251.288586 105.107135 
L 261.342641 149.131842 
L 264.693992 162.737252 
L 267.740675 174.191677 
L 270.178021 182.577859 
L 272.615368 190.163343 
L 274.748046 196.071934 
L 276.576056 200.551488 
L 278.404066 204.458959 
L 279.927407 207.258995 
L 281.450749 209.630193 
L 282.97409 211.561423 
L 284.192763 212.783461 
L 285.411437 213.714395 
L 286.63011 214.351424 
L 287.848783 214.692645 
L 289.067456 214.737031 
L 290.286129 214.484449 
L 291.504803 213.935653 
L 292.723476 213.092287 
L 293.942149 211.95689 
L 295.160822 210.532874 
L 296.684164 208.353586 
L 298.207505 205.740316 
L 299.730847 202.705334 
L 301.558857 198.526892 
L 303.386867 193.790051 
L 305.519545 187.600891 
L 307.652223 180.752346 
L 310.089569 172.199099 
L 312.831584 161.77407 
L 316.182935 148.102755 
L 320.448292 129.689458 
L 332.025687 79.160093 
L 335.377039 65.796579 
L 338.119053 55.69581 
L 340.5564 47.481293 
L 342.689078 40.964811 
L 344.821756 35.137829 
L 346.649766 30.732862 
L 348.477776 26.903736 
L 350.001117 24.171467 
L 351.524459 21.869955 
L 353.0478 20.010008 
L 354.266473 18.845919 
L 355.485147 17.973564 
L 356.70382 17.395559 
L 357.922493 17.113646 
L 359.141166 17.128669 
L 360.35984 17.440583 
L 361.578513 18.048453 
L 362.797186 18.950448 
L 364.015859 20.143863 
L 365.234532 21.625104 
L 366.757874 23.874558 
L 368.281215 26.556164 
L 369.804557 29.657338 
L 371.632567 33.911933 
L 373.460577 38.720877 
L 375.593255 44.988379 
L 378.030601 52.946553 
L 380.467948 61.661157 
L 383.514631 73.457902 
L 383.514631 73.457902 
" style="fill:none;stroke:#0000ff;stroke-linecap:square;stroke-width:1.5;"/>
   </g>
   <g id="patch_3">
    <path d="M 63.932812 224.64 
L 63.932812 7.2 
" style="fill:none;stroke:#000000;stroke-linecap:square;stroke-linejoin:miter;stroke-width:0.8;"/>
   </g>
   <g id="patch_4">
    <path d="M 398.732813 224.64 
L 398.732813 7.2 
" style="fill:none;stroke:#000000;stroke-linecap:square;stroke-linejoin:miter;stroke-width:0.8;"/>
   </g>
   <g id="patch_5">
    <path d="M 63.932812 224.64 
L 398.732813 224.64 
" style="fill:none;stroke:#000000;stroke-linecap:square;stroke-linejoin:miter;stroke-width:0.8;"/>
   </g>
   <g id="patch_6">
    <path d="M 63.932812 7.2 
L 398.732813 7.2 
" style="fill:none;stroke:#000000;stroke-linecap:square;stroke-linejoin:miter;stroke-width:0.8;"/>
   </g>
  </g>
 </g>
 <defs>
  <clipPath id="p2f279db86e">
   <rect height="217.44" width="334.8" x="63.932812" y="7.2"/>
  </clipPath>
 </defs>
</svg>
