<?xml version="1.0" encoding="utf-8" standalone="no"?>
<!DOCTYPE svg PUBLIC "-//W3C//DTD SVG 1.1//EN"
  "http://www.w3.org/Graphics/SVG/1.1/DTD/svg11.dtd">
<!-- Created with matplotlib (https://matplotlib.org/) -->
<svg height="263.63625pt" version="1.1" viewBox="0 0 399.570313 263.63625" width="399.570313pt" xmlns="http://www.w3.org/2000/svg" xmlns:xlink="http://www.w3.org/1999/xlink">
 <metadata>
  <rdf:RDF xmlns:cc="http://creativecommons.org/ns#" xmlns:dc="http://purl.org/dc/elements/1.1/" xmlns:rdf="http://www.w3.org/1999/02/22-rdf-syntax-ns#">
   <cc:Work>
    <dc:type rdf:resource="http://purl.org/dc/dcmitype/StillImage"/>
    <dc:date>2021-10-05T17:13:23.302523</dc:date>
    <dc:format>image/svg+xml</dc:format>
    <dc:creator>
     <cc:Agent>
      <dc:title>Matplotlib v3.3.4, https://matplotlib.org/</dc:title>
     </cc:Agent>
    </dc:creator>
   </cc:Work>
  </rdf:RDF>
 </metadata>
 <defs>
  <style type="text/css">*{stroke-linecap:butt;stroke-linejoin:round;}</style>
 </defs>
 <g id="figure_1">
  <g id="patch_1">
   <path d="M 0 263.63625 
L 399.570313 263.63625 
L 399.570313 0 
L 0 0 
z
" style="fill:none;"/>
  </g>
  <g id="axes_1">
   <g id="patch_2">
    <path d="M 57.570313 239.758125 
L 392.370313 239.758125 
L 392.370313 22.318125 
L 57.570313 22.318125 
z
" style="fill:#ffffff;"/>
   </g>
   <g id="matplotlib.axis_1">
    <g id="xtick_1">
     <g id="line2d_1">
      <path clip-path="url(#p7f44f757ee)" d="M 72.788494 239.758125 
L 72.788494 22.318125 
" style="fill:none;stroke:#b0b0b0;stroke-linecap:square;stroke-width:0.8;"/>
     </g>
     <g id="line2d_2">
      <defs>
       <path d="M 0 0 
L 0 3.5 
" id="m23d556fef2" style="stroke:#000000;stroke-width:0.8;"/>
      </defs>
      <g>
       <use style="stroke:#000000;stroke-width:0.8;" x="72.788494" xlink:href="#m23d556fef2" y="239.758125"/>
      </g>
     </g>
     <g id="text_1">
      <!-- 0.0 -->
      <g transform="translate(64.836932 254.356563)scale(0.1 -0.1)">
       <defs>
        <path d="M 31.78125 66.40625 
Q 24.171875 66.40625 20.328125 58.90625 
Q 16.5 51.421875 16.5 36.375 
Q 16.5 21.390625 20.328125 13.890625 
Q 24.171875 6.390625 31.78125 6.390625 
Q 39.453125 6.390625 43.28125 13.890625 
Q 47.125 21.390625 47.125 36.375 
Q 47.125 51.421875 43.28125 58.90625 
Q 39.453125 66.40625 31.78125 66.40625 
z
M 31.78125 74.21875 
Q 44.046875 74.21875 50.515625 64.515625 
Q 56.984375 54.828125 56.984375 36.375 
Q 56.984375 17.96875 50.515625 8.265625 
Q 44.046875 -1.421875 31.78125 -1.421875 
Q 19.53125 -1.421875 13.0625 8.265625 
Q 6.59375 17.96875 6.59375 36.375 
Q 6.59375 54.828125 13.0625 64.515625 
Q 19.53125 74.21875 31.78125 74.21875 
z
" id="DejaVuSans-48"/>
        <path d="M 10.6875 12.40625 
L 21 12.40625 
L 21 0 
L 10.6875 0 
z
" id="DejaVuSans-46"/>
       </defs>
       <use xlink:href="#DejaVuSans-48"/>
       <use x="63.623047" xlink:href="#DejaVuSans-46"/>
       <use x="95.410156" xlink:href="#DejaVuSans-48"/>
      </g>
     </g>
    </g>
    <g id="xtick_2">
     <g id="line2d_3">
      <path clip-path="url(#p7f44f757ee)" d="M 110.833949 239.758125 
L 110.833949 22.318125 
" style="fill:none;stroke:#b0b0b0;stroke-linecap:square;stroke-width:0.8;"/>
     </g>
     <g id="line2d_4">
      <g>
       <use style="stroke:#000000;stroke-width:0.8;" x="110.833949" xlink:href="#m23d556fef2" y="239.758125"/>
      </g>
     </g>
     <g id="text_2">
      <!-- 2.5 -->
      <g transform="translate(102.882386 254.356563)scale(0.1 -0.1)">
       <defs>
        <path d="M 19.1875 8.296875 
L 53.609375 8.296875 
L 53.609375 0 
L 7.328125 0 
L 7.328125 8.296875 
Q 12.9375 14.109375 22.625 23.890625 
Q 32.328125 33.6875 34.8125 36.53125 
Q 39.546875 41.84375 41.421875 45.53125 
Q 43.3125 49.21875 43.3125 52.78125 
Q 43.3125 58.59375 39.234375 62.25 
Q 35.15625 65.921875 28.609375 65.921875 
Q 23.96875 65.921875 18.8125 64.3125 
Q 13.671875 62.703125 7.8125 59.421875 
L 7.8125 69.390625 
Q 13.765625 71.78125 18.9375 73 
Q 24.125 74.21875 28.421875 74.21875 
Q 39.75 74.21875 46.484375 68.546875 
Q 53.21875 62.890625 53.21875 53.421875 
Q 53.21875 48.921875 51.53125 44.890625 
Q 49.859375 40.875 45.40625 35.40625 
Q 44.1875 33.984375 37.640625 27.21875 
Q 31.109375 20.453125 19.1875 8.296875 
z
" id="DejaVuSans-50"/>
        <path d="M 10.796875 72.90625 
L 49.515625 72.90625 
L 49.515625 64.59375 
L 19.828125 64.59375 
L 19.828125 46.734375 
Q 21.96875 47.46875 24.109375 47.828125 
Q 26.265625 48.1875 28.421875 48.1875 
Q 40.625 48.1875 47.75 41.5 
Q 54.890625 34.8125 54.890625 23.390625 
Q 54.890625 11.625 47.5625 5.09375 
Q 40.234375 -1.421875 26.90625 -1.421875 
Q 22.3125 -1.421875 17.546875 -0.640625 
Q 12.796875 0.140625 7.71875 1.703125 
L 7.71875 11.625 
Q 12.109375 9.234375 16.796875 8.0625 
Q 21.484375 6.890625 26.703125 6.890625 
Q 35.15625 6.890625 40.078125 11.328125 
Q 45.015625 15.765625 45.015625 23.390625 
Q 45.015625 31 40.078125 35.4375 
Q 35.15625 39.890625 26.703125 39.890625 
Q 22.75 39.890625 18.8125 39.015625 
Q 14.890625 38.140625 10.796875 36.28125 
z
" id="DejaVuSans-53"/>
       </defs>
       <use xlink:href="#DejaVuSans-50"/>
       <use x="63.623047" xlink:href="#DejaVuSans-46"/>
       <use x="95.410156" xlink:href="#DejaVuSans-53"/>
      </g>
     </g>
    </g>
    <g id="xtick_3">
     <g id="line2d_5">
      <path clip-path="url(#p7f44f757ee)" d="M 148.879403 239.758125 
L 148.879403 22.318125 
" style="fill:none;stroke:#b0b0b0;stroke-linecap:square;stroke-width:0.8;"/>
     </g>
     <g id="line2d_6">
      <g>
       <use style="stroke:#000000;stroke-width:0.8;" x="148.879403" xlink:href="#m23d556fef2" y="239.758125"/>
      </g>
     </g>
     <g id="text_3">
      <!-- 5.0 -->
      <g transform="translate(140.927841 254.356563)scale(0.1 -0.1)">
       <use xlink:href="#DejaVuSans-53"/>
       <use x="63.623047" xlink:href="#DejaVuSans-46"/>
       <use x="95.410156" xlink:href="#DejaVuSans-48"/>
      </g>
     </g>
    </g>
    <g id="xtick_4">
     <g id="line2d_7">
      <path clip-path="url(#p7f44f757ee)" d="M 186.924858 239.758125 
L 186.924858 22.318125 
" style="fill:none;stroke:#b0b0b0;stroke-linecap:square;stroke-width:0.8;"/>
     </g>
     <g id="line2d_8">
      <g>
       <use style="stroke:#000000;stroke-width:0.8;" x="186.924858" xlink:href="#m23d556fef2" y="239.758125"/>
      </g>
     </g>
     <g id="text_4">
      <!-- 7.5 -->
      <g transform="translate(178.973295 254.356563)scale(0.1 -0.1)">
       <defs>
        <path d="M 8.203125 72.90625 
L 55.078125 72.90625 
L 55.078125 68.703125 
L 28.609375 0 
L 18.3125 0 
L 43.21875 64.59375 
L 8.203125 64.59375 
z
" id="DejaVuSans-55"/>
       </defs>
       <use xlink:href="#DejaVuSans-55"/>
       <use x="63.623047" xlink:href="#DejaVuSans-46"/>
       <use x="95.410156" xlink:href="#DejaVuSans-53"/>
      </g>
     </g>
    </g>
    <g id="xtick_5">
     <g id="line2d_9">
      <path clip-path="url(#p7f44f757ee)" d="M 224.970313 239.758125 
L 224.970313 22.318125 
" style="fill:none;stroke:#b0b0b0;stroke-linecap:square;stroke-width:0.8;"/>
     </g>
     <g id="line2d_10">
      <g>
       <use style="stroke:#000000;stroke-width:0.8;" x="224.970313" xlink:href="#m23d556fef2" y="239.758125"/>
      </g>
     </g>
     <g id="text_5">
      <!-- 10.0 -->
      <g transform="translate(213.8375 254.356563)scale(0.1 -0.1)">
       <defs>
        <path d="M 12.40625 8.296875 
L 28.515625 8.296875 
L 28.515625 63.921875 
L 10.984375 60.40625 
L 10.984375 69.390625 
L 28.421875 72.90625 
L 38.28125 72.90625 
L 38.28125 8.296875 
L 54.390625 8.296875 
L 54.390625 0 
L 12.40625 0 
z
" id="DejaVuSans-49"/>
       </defs>
       <use xlink:href="#DejaVuSans-49"/>
       <use x="63.623047" xlink:href="#DejaVuSans-48"/>
       <use x="127.246094" xlink:href="#DejaVuSans-46"/>
       <use x="159.033203" xlink:href="#DejaVuSans-48"/>
      </g>
     </g>
    </g>
    <g id="xtick_6">
     <g id="line2d_11">
      <path clip-path="url(#p7f44f757ee)" d="M 263.015767 239.758125 
L 263.015767 22.318125 
" style="fill:none;stroke:#b0b0b0;stroke-linecap:square;stroke-width:0.8;"/>
     </g>
     <g id="line2d_12">
      <g>
       <use style="stroke:#000000;stroke-width:0.8;" x="263.015767" xlink:href="#m23d556fef2" y="239.758125"/>
      </g>
     </g>
     <g id="text_6">
      <!-- 12.5 -->
      <g transform="translate(251.882955 254.356563)scale(0.1 -0.1)">
       <use xlink:href="#DejaVuSans-49"/>
       <use x="63.623047" xlink:href="#DejaVuSans-50"/>
       <use x="127.246094" xlink:href="#DejaVuSans-46"/>
       <use x="159.033203" xlink:href="#DejaVuSans-53"/>
      </g>
     </g>
    </g>
    <g id="xtick_7">
     <g id="line2d_13">
      <path clip-path="url(#p7f44f757ee)" d="M 301.061222 239.758125 
L 301.061222 22.318125 
" style="fill:none;stroke:#b0b0b0;stroke-linecap:square;stroke-width:0.8;"/>
     </g>
     <g id="line2d_14">
      <g>
       <use style="stroke:#000000;stroke-width:0.8;" x="301.061222" xlink:href="#m23d556fef2" y="239.758125"/>
      </g>
     </g>
     <g id="text_7">
      <!-- 15.0 -->
      <g transform="translate(289.928409 254.356563)scale(0.1 -0.1)">
       <use xlink:href="#DejaVuSans-49"/>
       <use x="63.623047" xlink:href="#DejaVuSans-53"/>
       <use x="127.246094" xlink:href="#DejaVuSans-46"/>
       <use x="159.033203" xlink:href="#DejaVuSans-48"/>
      </g>
     </g>
    </g>
    <g id="xtick_8">
     <g id="line2d_15">
      <path clip-path="url(#p7f44f757ee)" d="M 339.106676 239.758125 
L 339.106676 22.318125 
" style="fill:none;stroke:#b0b0b0;stroke-linecap:square;stroke-width:0.8;"/>
     </g>
     <g id="line2d_16">
      <g>
       <use style="stroke:#000000;stroke-width:0.8;" x="339.106676" xlink:href="#m23d556fef2" y="239.758125"/>
      </g>
     </g>
     <g id="text_8">
      <!-- 17.5 -->
      <g transform="translate(327.973864 254.356563)scale(0.1 -0.1)">
       <use xlink:href="#DejaVuSans-49"/>
       <use x="63.623047" xlink:href="#DejaVuSans-55"/>
       <use x="127.246094" xlink:href="#DejaVuSans-46"/>
       <use x="159.033203" xlink:href="#DejaVuSans-53"/>
      </g>
     </g>
    </g>
    <g id="xtick_9">
     <g id="line2d_17">
      <path clip-path="url(#p7f44f757ee)" d="M 377.152131 239.758125 
L 377.152131 22.318125 
" style="fill:none;stroke:#b0b0b0;stroke-linecap:square;stroke-width:0.8;"/>
     </g>
     <g id="line2d_18">
      <g>
       <use style="stroke:#000000;stroke-width:0.8;" x="377.152131" xlink:href="#m23d556fef2" y="239.758125"/>
      </g>
     </g>
     <g id="text_9">
      <!-- 20.0 -->
      <g transform="translate(366.019318 254.356563)scale(0.1 -0.1)">
       <use xlink:href="#DejaVuSans-50"/>
       <use x="63.623047" xlink:href="#DejaVuSans-48"/>
       <use x="127.246094" xlink:href="#DejaVuSans-46"/>
       <use x="159.033203" xlink:href="#DejaVuSans-48"/>
      </g>
     </g>
    </g>
   </g>
   <g id="matplotlib.axis_2">
    <g id="ytick_1">
     <g id="line2d_19">
      <path clip-path="url(#p7f44f757ee)" d="M 57.570313 230.191266 
L 392.370313 230.191266 
" style="fill:none;stroke:#b0b0b0;stroke-linecap:square;stroke-width:0.8;"/>
     </g>
     <g id="line2d_20">
      <defs>
       <path d="M 0 0 
L -3.5 0 
" id="mda67a4ddae" style="stroke:#000000;stroke-width:0.8;"/>
      </defs>
      <g>
       <use style="stroke:#000000;stroke-width:0.8;" x="57.570313" xlink:href="#mda67a4ddae" y="230.191266"/>
      </g>
     </g>
     <g id="text_10">
      <!-- −0.0020 -->
      <g transform="translate(7.2 233.990485)scale(0.1 -0.1)">
       <defs>
        <path d="M 10.59375 35.5 
L 73.1875 35.5 
L 73.1875 27.203125 
L 10.59375 27.203125 
z
" id="DejaVuSans-8722"/>
       </defs>
       <use xlink:href="#DejaVuSans-8722"/>
       <use x="83.789062" xlink:href="#DejaVuSans-48"/>
       <use x="147.412109" xlink:href="#DejaVuSans-46"/>
       <use x="179.199219" xlink:href="#DejaVuSans-48"/>
       <use x="242.822266" xlink:href="#DejaVuSans-48"/>
       <use x="306.445312" xlink:href="#DejaVuSans-50"/>
       <use x="370.068359" xlink:href="#DejaVuSans-48"/>
      </g>
     </g>
    </g>
    <g id="ytick_2">
     <g id="line2d_21">
      <path clip-path="url(#p7f44f757ee)" d="M 57.570313 205.442578 
L 392.370313 205.442578 
" style="fill:none;stroke:#b0b0b0;stroke-linecap:square;stroke-width:0.8;"/>
     </g>
     <g id="line2d_22">
      <g>
       <use style="stroke:#000000;stroke-width:0.8;" x="57.570313" xlink:href="#mda67a4ddae" y="205.442578"/>
      </g>
     </g>
     <g id="text_11">
      <!-- −0.0015 -->
      <g transform="translate(7.2 209.241797)scale(0.1 -0.1)">
       <use xlink:href="#DejaVuSans-8722"/>
       <use x="83.789062" xlink:href="#DejaVuSans-48"/>
       <use x="147.412109" xlink:href="#DejaVuSans-46"/>
       <use x="179.199219" xlink:href="#DejaVuSans-48"/>
       <use x="242.822266" xlink:href="#DejaVuSans-48"/>
       <use x="306.445312" xlink:href="#DejaVuSans-49"/>
       <use x="370.068359" xlink:href="#DejaVuSans-53"/>
      </g>
     </g>
    </g>
    <g id="ytick_3">
     <g id="line2d_23">
      <path clip-path="url(#p7f44f757ee)" d="M 57.570313 180.69389 
L 392.370313 180.69389 
" style="fill:none;stroke:#b0b0b0;stroke-linecap:square;stroke-width:0.8;"/>
     </g>
     <g id="line2d_24">
      <g>
       <use style="stroke:#000000;stroke-width:0.8;" x="57.570313" xlink:href="#mda67a4ddae" y="180.69389"/>
      </g>
     </g>
     <g id="text_12">
      <!-- −0.0010 -->
      <g transform="translate(7.2 184.493109)scale(0.1 -0.1)">
       <use xlink:href="#DejaVuSans-8722"/>
       <use x="83.789062" xlink:href="#DejaVuSans-48"/>
       <use x="147.412109" xlink:href="#DejaVuSans-46"/>
       <use x="179.199219" xlink:href="#DejaVuSans-48"/>
       <use x="242.822266" xlink:href="#DejaVuSans-48"/>
       <use x="306.445312" xlink:href="#DejaVuSans-49"/>
       <use x="370.068359" xlink:href="#DejaVuSans-48"/>
      </g>
     </g>
    </g>
    <g id="ytick_4">
     <g id="line2d_25">
      <path clip-path="url(#p7f44f757ee)" d="M 57.570313 155.945202 
L 392.370313 155.945202 
" style="fill:none;stroke:#b0b0b0;stroke-linecap:square;stroke-width:0.8;"/>
     </g>
     <g id="line2d_26">
      <g>
       <use style="stroke:#000000;stroke-width:0.8;" x="57.570313" xlink:href="#mda67a4ddae" y="155.945202"/>
      </g>
     </g>
     <g id="text_13">
      <!-- −0.0005 -->
      <g transform="translate(7.2 159.744421)scale(0.1 -0.1)">
       <use xlink:href="#DejaVuSans-8722"/>
       <use x="83.789062" xlink:href="#DejaVuSans-48"/>
       <use x="147.412109" xlink:href="#DejaVuSans-46"/>
       <use x="179.199219" xlink:href="#DejaVuSans-48"/>
       <use x="242.822266" xlink:href="#DejaVuSans-48"/>
       <use x="306.445312" xlink:href="#DejaVuSans-48"/>
       <use x="370.068359" xlink:href="#DejaVuSans-53"/>
      </g>
     </g>
    </g>
    <g id="ytick_5">
     <g id="line2d_27">
      <path clip-path="url(#p7f44f757ee)" d="M 57.570313 131.196514 
L 392.370313 131.196514 
" style="fill:none;stroke:#b0b0b0;stroke-linecap:square;stroke-width:0.8;"/>
     </g>
     <g id="line2d_28">
      <g>
       <use style="stroke:#000000;stroke-width:0.8;" x="57.570313" xlink:href="#mda67a4ddae" y="131.196514"/>
      </g>
     </g>
     <g id="text_14">
      <!-- 0.0000 -->
      <g transform="translate(15.579688 134.995732)scale(0.1 -0.1)">
       <use xlink:href="#DejaVuSans-48"/>
       <use x="63.623047" xlink:href="#DejaVuSans-46"/>
       <use x="95.410156" xlink:href="#DejaVuSans-48"/>
       <use x="159.033203" xlink:href="#DejaVuSans-48"/>
       <use x="222.65625" xlink:href="#DejaVuSans-48"/>
       <use x="286.279297" xlink:href="#DejaVuSans-48"/>
      </g>
     </g>
    </g>
    <g id="ytick_6">
     <g id="line2d_29">
      <path clip-path="url(#p7f44f757ee)" d="M 57.570313 106.447826 
L 392.370313 106.447826 
" style="fill:none;stroke:#b0b0b0;stroke-linecap:square;stroke-width:0.8;"/>
     </g>
     <g id="line2d_30">
      <g>
       <use style="stroke:#000000;stroke-width:0.8;" x="57.570313" xlink:href="#mda67a4ddae" y="106.447826"/>
      </g>
     </g>
     <g id="text_15">
      <!-- 0.0005 -->
      <g transform="translate(15.579688 110.247044)scale(0.1 -0.1)">
       <use xlink:href="#DejaVuSans-48"/>
       <use x="63.623047" xlink:href="#DejaVuSans-46"/>
       <use x="95.410156" xlink:href="#DejaVuSans-48"/>
       <use x="159.033203" xlink:href="#DejaVuSans-48"/>
       <use x="222.65625" xlink:href="#DejaVuSans-48"/>
       <use x="286.279297" xlink:href="#DejaVuSans-53"/>
      </g>
     </g>
    </g>
    <g id="ytick_7">
     <g id="line2d_31">
      <path clip-path="url(#p7f44f757ee)" d="M 57.570313 81.699138 
L 392.370313 81.699138 
" style="fill:none;stroke:#b0b0b0;stroke-linecap:square;stroke-width:0.8;"/>
     </g>
     <g id="line2d_32">
      <g>
       <use style="stroke:#000000;stroke-width:0.8;" x="57.570313" xlink:href="#mda67a4ddae" y="81.699138"/>
      </g>
     </g>
     <g id="text_16">
      <!-- 0.0010 -->
      <g transform="translate(15.579688 85.498356)scale(0.1 -0.1)">
       <use xlink:href="#DejaVuSans-48"/>
       <use x="63.623047" xlink:href="#DejaVuSans-46"/>
       <use x="95.410156" xlink:href="#DejaVuSans-48"/>
       <use x="159.033203" xlink:href="#DejaVuSans-48"/>
       <use x="222.65625" xlink:href="#DejaVuSans-49"/>
       <use x="286.279297" xlink:href="#DejaVuSans-48"/>
      </g>
     </g>
    </g>
    <g id="ytick_8">
     <g id="line2d_33">
      <path clip-path="url(#p7f44f757ee)" d="M 57.570313 56.950449 
L 392.370313 56.950449 
" style="fill:none;stroke:#b0b0b0;stroke-linecap:square;stroke-width:0.8;"/>
     </g>
     <g id="line2d_34">
      <g>
       <use style="stroke:#000000;stroke-width:0.8;" x="57.570313" xlink:href="#mda67a4ddae" y="56.950449"/>
      </g>
     </g>
     <g id="text_17">
      <!-- 0.0015 -->
      <g transform="translate(15.579688 60.749668)scale(0.1 -0.1)">
       <use xlink:href="#DejaVuSans-48"/>
       <use x="63.623047" xlink:href="#DejaVuSans-46"/>
       <use x="95.410156" xlink:href="#DejaVuSans-48"/>
       <use x="159.033203" xlink:href="#DejaVuSans-48"/>
       <use x="222.65625" xlink:href="#DejaVuSans-49"/>
       <use x="286.279297" xlink:href="#DejaVuSans-53"/>
      </g>
     </g>
    </g>
    <g id="ytick_9">
     <g id="line2d_35">
      <path clip-path="url(#p7f44f757ee)" d="M 57.570313 32.201761 
L 392.370313 32.201761 
" style="fill:none;stroke:#b0b0b0;stroke-linecap:square;stroke-width:0.8;"/>
     </g>
     <g id="line2d_36">
      <g>
       <use style="stroke:#000000;stroke-width:0.8;" x="57.570313" xlink:href="#mda67a4ddae" y="32.201761"/>
      </g>
     </g>
     <g id="text_18">
      <!-- 0.0020 -->
      <g transform="translate(15.579688 36.00098)scale(0.1 -0.1)">
       <use xlink:href="#DejaVuSans-48"/>
       <use x="63.623047" xlink:href="#DejaVuSans-46"/>
       <use x="95.410156" xlink:href="#DejaVuSans-48"/>
       <use x="159.033203" xlink:href="#DejaVuSans-48"/>
       <use x="222.65625" xlink:href="#DejaVuSans-50"/>
       <use x="286.279297" xlink:href="#DejaVuSans-48"/>
      </g>
     </g>
    </g>
   </g>
   <g id="line2d_37">
    <path clip-path="url(#p7f44f757ee)" d="M 72.788494 180.69389 
L 76.139846 180.604245 
L 77.358519 180.388743 
L 78.577192 179.922713 
L 79.491197 179.330429 
L 80.405202 178.463094 
L 81.319207 177.258311 
L 82.233212 175.654303 
L 83.147217 173.592482 
L 84.061222 171.019926 
L 84.975227 167.891792 
L 86.1939 162.798782 
L 87.412573 156.611126 
L 88.631246 149.32759 
L 90.154588 138.762231 
L 91.982598 124.238956 
L 94.419944 102.791735 
L 98.075964 70.537633 
L 99.599305 58.828056 
L 100.817978 50.833795 
L 102.036652 44.383319 
L 102.950656 40.716333 
L 103.559993 38.881877 
L 104.16933 37.562843 
L 104.778666 36.778382 
L 105.083335 36.591497 
L 105.388003 36.543555 
L 105.692671 36.635789 
L 105.99734 36.869145 
L 106.606676 37.761572 
L 107.216013 39.222655 
L 107.825349 41.249653 
L 108.739354 45.333671 
L 109.653359 50.628708 
L 110.872032 59.453414 
L 112.090706 70.091141 
L 113.614047 85.507906 
L 115.746725 109.848972 
L 120.621418 167.035346 
L 122.14476 182.367058 
L 123.668101 195.366692 
L 124.886774 203.77463 
L 125.800779 208.806982 
L 126.714784 212.697954 
L 127.628789 215.426781 
L 128.238126 216.600129 
L 128.847462 217.262796 
L 129.152131 217.405522 
L 129.456799 217.424545 
L 129.761467 217.32169 
L 130.370804 216.758785 
L 130.980141 215.73584 
L 131.589477 214.275134 
L 132.503482 211.319187 
L 133.417487 207.531408 
L 134.63616 201.371815 
L 136.159502 192.274097 
L 138.29218 177.915155 
L 142.557536 148.685417 
L 144.385546 137.638197 
L 146.213556 128.035008 
L 147.736897 121.19744 
L 149.260239 115.35352 
L 150.78358 110.356324 
L 152.61159 105.191737 
L 155.048937 99.075628 
L 159.009625 89.179587 
L 165.407659 72.604224 
L 166.626332 70.283495 
L 167.540337 68.974608 
L 168.454342 68.126135 
L 169.063679 67.855865 
L 169.673015 67.848724 
L 170.282352 68.126226 
L 170.891688 68.708513 
L 171.501025 69.61385 
L 172.110362 70.858348 
L 173.024367 73.39011 
L 173.938371 76.749205 
L 174.852376 80.954072 
L 176.07105 87.875708 
L 177.289723 96.253104 
L 178.813064 108.602191 
L 180.641074 125.707305 
L 183.078421 150.968748 
L 186.73444 188.746514 
L 188.257782 202.432602 
L 189.476455 211.81766 
L 190.695128 219.480296 
L 191.609133 223.940733 
L 192.523138 227.20026 
L 193.132475 228.672562 
L 193.741811 229.567161 
L 194.04648 229.794651 
L 194.351148 229.874489 
L 194.655816 229.8062 
L 194.960484 229.589629 
L 195.569821 228.712431 
L 196.179158 227.247481 
L 196.788494 225.204083 
L 197.702499 221.086162 
L 198.616504 215.765188 
L 199.835177 206.953243 
L 201.053851 196.420689 
L 202.577192 181.315107 
L 204.70987 157.808555 
L 208.975227 110.206517 
L 210.803236 92.6076 
L 212.326578 80.261656 
L 213.545251 72.174467 
L 214.459256 67.233306 
L 215.373261 63.284756 
L 216.287266 60.332785 
L 216.896602 58.911761 
L 217.505939 57.918236 
L 218.115276 57.339848 
L 218.724612 57.161003 
L 219.333949 57.363379 
L 219.943285 57.926032 
L 220.552622 58.82581 
L 221.466627 60.752469 
L 222.380632 63.290654 
L 223.599305 67.461049 
L 225.122647 73.613512 
L 227.559993 84.618187 
L 231.216013 101.050037 
L 233.348691 109.608466 
L 235.481369 117.276956 
L 238.83272 128.296991 
L 241.574735 137.630315 
L 243.402745 144.613698 
L 245.230755 152.449301 
L 247.363433 162.682069 
L 250.714784 180.219864 
L 253.152131 192.509264 
L 254.675472 199.122692 
L 255.894145 203.436594 
L 256.80815 205.943891 
L 257.722155 207.720332 
L 258.331492 208.454965 
L 258.940828 208.802321 
L 259.550165 208.741525 
L 260.159502 208.254521 
L 260.768838 207.326358 
L 261.378175 205.945408 
L 261.987512 204.103678 
L 262.901516 200.468911 
L 263.815521 195.791204 
L 264.729526 190.093711 
L 265.948199 180.990053 
L 267.471541 167.427365 
L 269.299551 148.564404 
L 272.041566 117.185889 
L 275.088249 82.612809 
L 276.916258 64.456231 
L 278.134932 54.179549 
L 279.353605 45.715929 
L 280.26761 40.703653 
L 281.181615 36.923047 
L 281.790951 35.114637 
L 282.400288 33.888537 
L 283.009625 33.250368 
L 283.314293 33.152221 
L 283.618961 33.20102 
L 283.923629 33.396136 
L 284.532966 34.221376 
L 285.142303 35.617183 
L 285.751639 37.568247 
L 286.665644 41.492146 
L 287.579649 46.537574 
L 288.798322 54.831742 
L 290.016996 64.653757 
L 291.845005 81.537711 
L 295.196357 115.565248 
L 297.633703 139.374415 
L 299.461713 155.092063 
L 300.985055 166.208659 
L 302.203728 173.616041 
L 303.422401 179.63167 
L 304.336406 183.224915 
L 305.250411 186.048492 
L 306.164416 188.134686 
L 307.078421 189.529014 
L 307.687757 190.101733 
L 308.297094 190.410931 
L 308.90643 190.476987 
L 309.515767 190.32133 
L 310.125104 189.966071 
L 311.039109 189.108188 
L 311.953113 187.927444 
L 313.171787 185.976633 
L 314.999797 182.558531 
L 325.053851 162.5369 
L 326.577192 158.552764 
L 327.795865 154.779193 
L 329.014539 150.366657 
L 330.233212 145.230037 
L 331.756553 137.713159 
L 333.279895 128.966748 
L 335.107905 116.987268 
L 337.545251 99.175811 
L 341.505939 69.757922 
L 343.029281 59.932112 
L 344.247954 53.272098 
L 345.161959 49.162342 
L 346.075964 45.932295 
L 346.6853 44.315804 
L 347.294637 43.158494 
L 347.903973 42.482261 
L 348.208642 42.330468 
L 348.51331 42.305582 
L 348.817978 42.409317 
L 349.427315 43.008303 
L 350.036652 44.136137 
L 350.645988 45.79727 
L 351.255325 47.991846 
L 352.16933 52.273252 
L 353.083335 57.710742 
L 354.302008 66.659394 
L 355.520681 77.369605 
L 357.044023 92.840658 
L 359.176701 117.254776 
L 364.356062 178.019982 
L 365.879403 193.014724 
L 367.098077 203.22554 
L 368.31675 211.570422 
L 369.230755 216.487547 
L 370.14476 220.191978 
L 370.754096 221.97125 
L 371.363433 223.193271 
L 371.97277 223.858929 
L 372.277438 223.984622 
L 372.582106 223.973572 
L 372.886774 223.827132 
L 373.496111 223.134805 
L 374.105448 221.923606 
L 374.714784 220.213382 
L 375.628789 216.764647 
L 376.542794 212.339658 
L 377.152131 208.899775 
L 377.152131 208.899775 
" style="fill:none;stroke:#000000;stroke-linecap:square;stroke-width:1.5;"/>
   </g>
   <g id="line2d_38">
    <path clip-path="url(#p7f44f757ee)" d="M 72.788494 32.201761 
L 73.093163 32.276135 
L 73.397831 32.499109 
L 74.007168 33.388734 
L 74.616504 34.863687 
L 75.225841 36.912101 
L 76.139846 41.023114 
L 77.053851 46.313421 
L 78.272524 55.036252 
L 79.491197 65.413525 
L 81.014539 80.221071 
L 83.451885 106.487172 
L 87.107905 145.945742 
L 88.935914 163.182606 
L 90.459256 175.384991 
L 91.677929 183.478078 
L 92.896602 189.970798 
L 93.810607 193.762602 
L 94.724612 196.633989 
L 95.638617 198.607597 
L 96.247954 199.443175 
L 96.85729 199.911987 
L 97.466627 200.031805 
L 98.075964 199.822746 
L 98.6853 199.306825 
L 99.294637 198.507733 
L 100.208642 196.832768 
L 101.122647 194.664589 
L 102.34132 191.160278 
L 103.864661 186.08513 
L 107.520681 172.756646 
L 110.262696 163.256035 
L 112.700042 155.591767 
L 117.574735 140.642752 
L 119.402745 134.127193 
L 120.926086 127.93972 
L 122.449428 120.944094 
L 124.277438 111.459111 
L 126.410116 99.112583 
L 131.894145 66.395546 
L 133.417487 59.058475 
L 134.63616 54.388443 
L 135.550165 51.749693 
L 136.159502 50.45561 
L 136.768838 49.563735 
L 137.378175 49.097066 
L 137.987512 49.075716 
L 138.596848 49.516616 
L 139.206185 50.433245 
L 139.815521 51.835377 
L 140.424858 53.728945 
L 141.338863 57.493625 
L 142.252868 62.355761 
L 143.166873 68.282321 
L 144.385546 77.742756 
L 145.908887 91.798185 
L 147.736897 111.258108 
L 150.478912 143.398756 
L 153.525595 178.472231 
L 155.048937 193.907665 
L 156.572278 207.015485 
L 157.790951 215.444197 
L 158.704956 220.41529 
L 159.618961 224.150841 
L 160.228298 225.931299 
L 160.837634 227.134142 
L 161.446971 227.756333 
L 161.751639 227.850019 
L 162.056308 227.799522 
L 162.360976 227.605775 
L 162.970312 226.793646 
L 163.579649 225.426629 
L 164.188986 223.522091 
L 165.102991 219.705184 
L 166.016996 214.815792 
L 167.235669 206.812013 
L 168.75901 194.832883 
L 170.58702 178.404023 
L 176.680386 121.592681 
L 178.203728 109.831456 
L 179.727069 99.824938 
L 180.945742 93.19818 
L 182.164416 87.82482 
L 183.078421 84.601957 
L 183.992426 82.040098 
L 184.90643 80.097852 
L 185.820435 78.723465 
L 186.73444 77.857157 
L 187.343777 77.529787 
L 187.953113 77.379093 
L 188.867118 77.439658 
L 189.781123 77.783523 
L 190.999797 78.570369 
L 192.523138 79.888795 
L 196.483826 83.809736 
L 199.530509 86.931506 
L 201.053851 88.804707 
L 202.272524 90.645773 
L 203.491197 92.933065 
L 204.70987 95.800744 
L 205.928543 99.375174 
L 207.147217 103.764758 
L 208.36589 109.050221 
L 209.584563 115.276072 
L 211.107905 124.37833 
L 212.631246 134.845018 
L 214.763924 151.335716 
L 220.85729 200.164787 
L 222.380632 209.750209 
L 223.599305 215.83964 
L 224.51331 219.311336 
L 225.122647 221.050166 
L 225.731983 222.299794 
L 226.34132 223.039581 
L 226.645988 223.212835 
L 226.950656 223.252615 
L 227.255325 223.157418 
L 227.864661 222.557518 
L 228.473998 221.406649 
L 229.083335 219.70276 
L 229.692671 217.448311 
L 230.606676 213.050913 
L 231.520681 207.474461 
L 232.739354 198.321291 
L 233.958027 187.40475 
L 235.481369 171.703559 
L 237.614047 147.074747 
L 242.48874 89.719696 
L 244.012082 74.500112 
L 245.230755 64.049259 
L 246.449428 55.405324 
L 247.363433 50.222037 
L 248.277438 46.213377 
L 249.191443 43.409446 
L 249.800779 42.214022 
L 250.410116 41.554412 
L 250.714784 41.423315 
L 251.019453 41.422981 
L 251.324121 41.55181 
L 251.933457 42.189314 
L 252.542794 43.318183 
L 253.152131 44.917193 
L 254.066136 48.142745 
L 254.980141 52.275264 
L 256.198814 59.008936 
L 257.722155 68.995048 
L 259.854833 84.858325 
L 264.424858 119.652747 
L 266.252868 131.782695 
L 267.776209 140.580912 
L 269.299551 148.085105 
L 270.822892 154.316071 
L 272.041566 158.45957 
L 273.260239 161.955215 
L 274.78358 165.589318 
L 276.306922 168.634836 
L 278.4396 172.357486 
L 286.970312 186.480415 
L 288.188986 187.897397 
L 289.102991 188.625162 
L 289.712327 188.910359 
L 290.321664 189.009994 
L 290.931 188.902287 
L 291.540337 188.566 
L 292.149674 187.980805 
L 292.75901 187.127591 
L 293.673015 185.307359 
L 294.58702 182.794019 
L 295.501025 179.54836 
L 296.41503 175.544994 
L 297.633703 169.013871 
L 298.852376 161.14376 
L 300.375718 149.550854 
L 302.203728 133.456052 
L 304.641074 109.555021 
L 308.297094 73.454851 
L 309.820435 60.25262 
L 311.039109 51.152079 
L 312.257782 43.686069 
L 313.171787 39.320362 
L 314.085792 36.116124 
L 314.695128 34.661933 
L 315.304465 33.772977 
L 315.609133 33.544345 
L 315.913801 33.461138 
L 316.21847 33.524124 
L 316.523138 33.733779 
L 317.132475 34.593587 
L 317.741811 36.038529 
L 318.351148 38.061877 
L 319.265153 42.155105 
L 320.179158 47.465075 
L 321.397831 56.29626 
L 322.616504 66.90023 
L 324.139846 82.18449 
L 326.272524 106.123721 
L 330.842548 158.346976 
L 332.670558 176.167707 
L 333.889231 186.276867 
L 335.107905 194.722336 
L 336.02191 199.877977 
L 336.935914 203.983274 
L 337.849919 207.024954 
L 338.459256 208.46459 
L 339.068593 209.441348 
L 339.677929 209.965964 
L 340.287266 210.052652 
L 340.896602 209.718837 
L 341.505939 208.984911 
L 342.115276 207.873866 
L 343.029281 205.556112 
L 343.943285 202.540465 
L 345.161959 197.607932 
L 346.6853 190.326721 
L 349.122647 177.226284 
L 352.778666 157.49773 
L 354.911344 147.273077 
L 356.739354 139.550454 
L 358.567364 132.712611 
L 361.004711 124.542266 
L 365.574735 109.468871 
L 367.707413 101.49847 
L 370.14476 91.415466 
L 375.019453 70.703298 
L 376.542794 65.376233 
L 377.152131 63.574876 
L 377.152131 63.574876 
" style="fill:none;stroke:#0000ff;stroke-linecap:square;stroke-width:1.5;"/>
   </g>
   <g id="patch_3">
    <path d="M 57.570313 239.758125 
L 57.570313 22.318125 
" style="fill:none;stroke:#000000;stroke-linecap:square;stroke-linejoin:miter;stroke-width:0.8;"/>
   </g>
   <g id="patch_4">
    <path d="M 392.370313 239.758125 
L 392.370313 22.318125 
" style="fill:none;stroke:#000000;stroke-linecap:square;stroke-linejoin:miter;stroke-width:0.8;"/>
   </g>
   <g id="patch_5">
    <path d="M 57.570312 239.758125 
L 392.370313 239.758125 
" style="fill:none;stroke:#000000;stroke-linecap:square;stroke-linejoin:miter;stroke-width:0.8;"/>
   </g>
   <g id="patch_6">
    <path d="M 57.570312 22.318125 
L 392.370313 22.318125 
" style="fill:none;stroke:#000000;stroke-linecap:square;stroke-linejoin:miter;stroke-width:0.8;"/>
   </g>
   <g id="text_19">
    <!-- Unknown mode -->
    <g transform="translate(178.195625 16.318125)scale(0.12 -0.12)">
     <defs>
      <path d="M 8.6875 72.90625 
L 18.609375 72.90625 
L 18.609375 28.609375 
Q 18.609375 16.890625 22.84375 11.734375 
Q 27.09375 6.59375 36.625 6.59375 
Q 46.09375 6.59375 50.34375 11.734375 
Q 54.59375 16.890625 54.59375 28.609375 
L 54.59375 72.90625 
L 64.5 72.90625 
L 64.5 27.390625 
Q 64.5 13.140625 57.4375 5.859375 
Q 50.390625 -1.421875 36.625 -1.421875 
Q 22.796875 -1.421875 15.734375 5.859375 
Q 8.6875 13.140625 8.6875 27.390625 
z
" id="DejaVuSans-85"/>
      <path d="M 54.890625 33.015625 
L 54.890625 0 
L 45.90625 0 
L 45.90625 32.71875 
Q 45.90625 40.484375 42.875 44.328125 
Q 39.84375 48.1875 33.796875 48.1875 
Q 26.515625 48.1875 22.3125 43.546875 
Q 18.109375 38.921875 18.109375 30.90625 
L 18.109375 0 
L 9.078125 0 
L 9.078125 54.6875 
L 18.109375 54.6875 
L 18.109375 46.1875 
Q 21.34375 51.125 25.703125 53.5625 
Q 30.078125 56 35.796875 56 
Q 45.21875 56 50.046875 50.171875 
Q 54.890625 44.34375 54.890625 33.015625 
z
" id="DejaVuSans-110"/>
      <path d="M 9.078125 75.984375 
L 18.109375 75.984375 
L 18.109375 31.109375 
L 44.921875 54.6875 
L 56.390625 54.6875 
L 27.390625 29.109375 
L 57.625 0 
L 45.90625 0 
L 18.109375 26.703125 
L 18.109375 0 
L 9.078125 0 
z
" id="DejaVuSans-107"/>
      <path d="M 30.609375 48.390625 
Q 23.390625 48.390625 19.1875 42.75 
Q 14.984375 37.109375 14.984375 27.296875 
Q 14.984375 17.484375 19.15625 11.84375 
Q 23.34375 6.203125 30.609375 6.203125 
Q 37.796875 6.203125 41.984375 11.859375 
Q 46.1875 17.53125 46.1875 27.296875 
Q 46.1875 37.015625 41.984375 42.703125 
Q 37.796875 48.390625 30.609375 48.390625 
z
M 30.609375 56 
Q 42.328125 56 49.015625 48.375 
Q 55.71875 40.765625 55.71875 27.296875 
Q 55.71875 13.875 49.015625 6.21875 
Q 42.328125 -1.421875 30.609375 -1.421875 
Q 18.84375 -1.421875 12.171875 6.21875 
Q 5.515625 13.875 5.515625 27.296875 
Q 5.515625 40.765625 12.171875 48.375 
Q 18.84375 56 30.609375 56 
z
" id="DejaVuSans-111"/>
      <path d="M 4.203125 54.6875 
L 13.1875 54.6875 
L 24.421875 12.015625 
L 35.59375 54.6875 
L 46.1875 54.6875 
L 57.421875 12.015625 
L 68.609375 54.6875 
L 77.59375 54.6875 
L 63.28125 0 
L 52.6875 0 
L 40.921875 44.828125 
L 29.109375 0 
L 18.5 0 
z
" id="DejaVuSans-119"/>
      <path id="DejaVuSans-32"/>
      <path d="M 52 44.1875 
Q 55.375 50.25 60.0625 53.125 
Q 64.75 56 71.09375 56 
Q 79.640625 56 84.28125 50.015625 
Q 88.921875 44.046875 88.921875 33.015625 
L 88.921875 0 
L 79.890625 0 
L 79.890625 32.71875 
Q 79.890625 40.578125 77.09375 44.375 
Q 74.3125 48.1875 68.609375 48.1875 
Q 61.625 48.1875 57.5625 43.546875 
Q 53.515625 38.921875 53.515625 30.90625 
L 53.515625 0 
L 44.484375 0 
L 44.484375 32.71875 
Q 44.484375 40.625 41.703125 44.40625 
Q 38.921875 48.1875 33.109375 48.1875 
Q 26.21875 48.1875 22.15625 43.53125 
Q 18.109375 38.875 18.109375 30.90625 
L 18.109375 0 
L 9.078125 0 
L 9.078125 54.6875 
L 18.109375 54.6875 
L 18.109375 46.1875 
Q 21.1875 51.21875 25.484375 53.609375 
Q 29.78125 56 35.6875 56 
Q 41.65625 56 45.828125 52.96875 
Q 50 49.953125 52 44.1875 
z
" id="DejaVuSans-109"/>
      <path d="M 45.40625 46.390625 
L 45.40625 75.984375 
L 54.390625 75.984375 
L 54.390625 0 
L 45.40625 0 
L 45.40625 8.203125 
Q 42.578125 3.328125 38.25 0.953125 
Q 33.9375 -1.421875 27.875 -1.421875 
Q 17.96875 -1.421875 11.734375 6.484375 
Q 5.515625 14.40625 5.515625 27.296875 
Q 5.515625 40.1875 11.734375 48.09375 
Q 17.96875 56 27.875 56 
Q 33.9375 56 38.25 53.625 
Q 42.578125 51.265625 45.40625 46.390625 
z
M 14.796875 27.296875 
Q 14.796875 17.390625 18.875 11.75 
Q 22.953125 6.109375 30.078125 6.109375 
Q 37.203125 6.109375 41.296875 11.75 
Q 45.40625 17.390625 45.40625 27.296875 
Q 45.40625 37.203125 41.296875 42.84375 
Q 37.203125 48.484375 30.078125 48.484375 
Q 22.953125 48.484375 18.875 42.84375 
Q 14.796875 37.203125 14.796875 27.296875 
z
" id="DejaVuSans-100"/>
      <path d="M 56.203125 29.59375 
L 56.203125 25.203125 
L 14.890625 25.203125 
Q 15.484375 15.921875 20.484375 11.0625 
Q 25.484375 6.203125 34.421875 6.203125 
Q 39.59375 6.203125 44.453125 7.46875 
Q 49.3125 8.734375 54.109375 11.28125 
L 54.109375 2.78125 
Q 49.265625 0.734375 44.1875 -0.34375 
Q 39.109375 -1.421875 33.890625 -1.421875 
Q 20.796875 -1.421875 13.15625 6.1875 
Q 5.515625 13.8125 5.515625 26.8125 
Q 5.515625 40.234375 12.765625 48.109375 
Q 20.015625 56 32.328125 56 
Q 43.359375 56 49.78125 48.890625 
Q 56.203125 41.796875 56.203125 29.59375 
z
M 47.21875 32.234375 
Q 47.125 39.59375 43.09375 43.984375 
Q 39.0625 48.390625 32.421875 48.390625 
Q 24.90625 48.390625 20.390625 44.140625 
Q 15.875 39.890625 15.1875 32.171875 
z
" id="DejaVuSans-101"/>
     </defs>
     <use xlink:href="#DejaVuSans-85"/>
     <use x="73.193359" xlink:href="#DejaVuSans-110"/>
     <use x="136.572266" xlink:href="#DejaVuSans-107"/>
     <use x="194.482422" xlink:href="#DejaVuSans-110"/>
     <use x="257.861328" xlink:href="#DejaVuSans-111"/>
     <use x="319.042969" xlink:href="#DejaVuSans-119"/>
     <use x="400.830078" xlink:href="#DejaVuSans-110"/>
     <use x="464.208984" xlink:href="#DejaVuSans-32"/>
     <use x="495.996094" xlink:href="#DejaVuSans-109"/>
     <use x="593.408203" xlink:href="#DejaVuSans-111"/>
     <use x="654.589844" xlink:href="#DejaVuSans-100"/>
     <use x="718.066406" xlink:href="#DejaVuSans-101"/>
    </g>
   </g>
  </g>
 </g>
 <defs>
  <clipPath id="p7f44f757ee">
   <rect height="217.44" width="334.8" x="57.570313" y="22.318125"/>
  </clipPath>
 </defs>
</svg>
