<?xml version="1.0" encoding="utf-8" standalone="no"?>
<!DOCTYPE svg PUBLIC "-//W3C//DTD SVG 1.1//EN"
  "http://www.w3.org/Graphics/SVG/1.1/DTD/svg11.dtd">
<!-- Created with matplotlib (https://matplotlib.org/) -->
<svg height="248.518125pt" version="1.1" viewBox="0 0 380.482813 248.518125" width="380.482813pt" xmlns="http://www.w3.org/2000/svg" xmlns:xlink="http://www.w3.org/1999/xlink">
 <metadata>
  <rdf:RDF xmlns:cc="http://creativecommons.org/ns#" xmlns:dc="http://purl.org/dc/elements/1.1/" xmlns:rdf="http://www.w3.org/1999/02/22-rdf-syntax-ns#">
   <cc:Work>
    <dc:type rdf:resource="http://purl.org/dc/dcmitype/StillImage"/>
    <dc:date>2021-08-23T13:05:04.124444</dc:date>
    <dc:format>image/svg+xml</dc:format>
    <dc:creator>
     <cc:Agent>
      <dc:title>Matplotlib v3.3.4, https://matplotlib.org/</dc:title>
     </cc:Agent>
    </dc:creator>
   </cc:Work>
  </rdf:RDF>
 </metadata>
 <defs>
  <style type="text/css">*{stroke-linecap:butt;stroke-linejoin:round;}</style>
 </defs>
 <g id="figure_1">
  <g id="patch_1">
   <path d="M -0 248.518125 
L 380.482813 248.518125 
L 380.482813 0 
L -0 0 
z
" style="fill:none;"/>
  </g>
  <g id="axes_1">
   <g id="patch_2">
    <path d="M 38.482813 224.64 
L 373.282813 224.64 
L 373.282813 7.2 
L 38.482813 7.2 
z
" style="fill:#ffffff;"/>
   </g>
   <g id="matplotlib.axis_1">
    <g id="xtick_1">
     <g id="line2d_1">
      <defs>
       <path d="M 0 0 
L 0 3.5 
" id="m1594fd3f5a" style="stroke:#000000;stroke-width:0.8;"/>
      </defs>
      <g>
       <use style="stroke:#000000;stroke-width:0.8;" x="53.672109" xlink:href="#m1594fd3f5a" y="224.64"/>
      </g>
     </g>
     <g id="text_1">
      <!-- 0 -->
      <g transform="translate(50.490859 239.238437)scale(0.1 -0.1)">
       <defs>
        <path d="M 31.78125 66.40625 
Q 24.171875 66.40625 20.328125 58.90625 
Q 16.5 51.421875 16.5 36.375 
Q 16.5 21.390625 20.328125 13.890625 
Q 24.171875 6.390625 31.78125 6.390625 
Q 39.453125 6.390625 43.28125 13.890625 
Q 47.125 21.390625 47.125 36.375 
Q 47.125 51.421875 43.28125 58.90625 
Q 39.453125 66.40625 31.78125 66.40625 
z
M 31.78125 74.21875 
Q 44.046875 74.21875 50.515625 64.515625 
Q 56.984375 54.828125 56.984375 36.375 
Q 56.984375 17.96875 50.515625 8.265625 
Q 44.046875 -1.421875 31.78125 -1.421875 
Q 19.53125 -1.421875 13.0625 8.265625 
Q 6.59375 17.96875 6.59375 36.375 
Q 6.59375 54.828125 13.0625 64.515625 
Q 19.53125 74.21875 31.78125 74.21875 
z
" id="DejaVuSans-48"/>
       </defs>
       <use xlink:href="#DejaVuSans-48"/>
      </g>
     </g>
    </g>
    <g id="xtick_2">
     <g id="line2d_2">
      <g>
       <use style="stroke:#000000;stroke-width:0.8;" x="117.860826" xlink:href="#m1594fd3f5a" y="224.64"/>
      </g>
     </g>
     <g id="text_2">
      <!-- 20000 -->
      <g transform="translate(101.954576 239.238437)scale(0.1 -0.1)">
       <defs>
        <path d="M 19.1875 8.296875 
L 53.609375 8.296875 
L 53.609375 0 
L 7.328125 0 
L 7.328125 8.296875 
Q 12.9375 14.109375 22.625 23.890625 
Q 32.328125 33.6875 34.8125 36.53125 
Q 39.546875 41.84375 41.421875 45.53125 
Q 43.3125 49.21875 43.3125 52.78125 
Q 43.3125 58.59375 39.234375 62.25 
Q 35.15625 65.921875 28.609375 65.921875 
Q 23.96875 65.921875 18.8125 64.3125 
Q 13.671875 62.703125 7.8125 59.421875 
L 7.8125 69.390625 
Q 13.765625 71.78125 18.9375 73 
Q 24.125 74.21875 28.421875 74.21875 
Q 39.75 74.21875 46.484375 68.546875 
Q 53.21875 62.890625 53.21875 53.421875 
Q 53.21875 48.921875 51.53125 44.890625 
Q 49.859375 40.875 45.40625 35.40625 
Q 44.1875 33.984375 37.640625 27.21875 
Q 31.109375 20.453125 19.1875 8.296875 
z
" id="DejaVuSans-50"/>
       </defs>
       <use xlink:href="#DejaVuSans-50"/>
       <use x="63.623047" xlink:href="#DejaVuSans-48"/>
       <use x="127.246094" xlink:href="#DejaVuSans-48"/>
       <use x="190.869141" xlink:href="#DejaVuSans-48"/>
       <use x="254.492188" xlink:href="#DejaVuSans-48"/>
      </g>
     </g>
    </g>
    <g id="xtick_3">
     <g id="line2d_3">
      <g>
       <use style="stroke:#000000;stroke-width:0.8;" x="182.049542" xlink:href="#m1594fd3f5a" y="224.64"/>
      </g>
     </g>
     <g id="text_3">
      <!-- 40000 -->
      <g transform="translate(166.143292 239.238437)scale(0.1 -0.1)">
       <defs>
        <path d="M 37.796875 64.3125 
L 12.890625 25.390625 
L 37.796875 25.390625 
z
M 35.203125 72.90625 
L 47.609375 72.90625 
L 47.609375 25.390625 
L 58.015625 25.390625 
L 58.015625 17.1875 
L 47.609375 17.1875 
L 47.609375 0 
L 37.796875 0 
L 37.796875 17.1875 
L 4.890625 17.1875 
L 4.890625 26.703125 
z
" id="DejaVuSans-52"/>
       </defs>
       <use xlink:href="#DejaVuSans-52"/>
       <use x="63.623047" xlink:href="#DejaVuSans-48"/>
       <use x="127.246094" xlink:href="#DejaVuSans-48"/>
       <use x="190.869141" xlink:href="#DejaVuSans-48"/>
       <use x="254.492188" xlink:href="#DejaVuSans-48"/>
      </g>
     </g>
    </g>
    <g id="xtick_4">
     <g id="line2d_4">
      <g>
       <use style="stroke:#000000;stroke-width:0.8;" x="246.238258" xlink:href="#m1594fd3f5a" y="224.64"/>
      </g>
     </g>
     <g id="text_4">
      <!-- 60000 -->
      <g transform="translate(230.332008 239.238437)scale(0.1 -0.1)">
       <defs>
        <path d="M 33.015625 40.375 
Q 26.375 40.375 22.484375 35.828125 
Q 18.609375 31.296875 18.609375 23.390625 
Q 18.609375 15.53125 22.484375 10.953125 
Q 26.375 6.390625 33.015625 6.390625 
Q 39.65625 6.390625 43.53125 10.953125 
Q 47.40625 15.53125 47.40625 23.390625 
Q 47.40625 31.296875 43.53125 35.828125 
Q 39.65625 40.375 33.015625 40.375 
z
M 52.59375 71.296875 
L 52.59375 62.3125 
Q 48.875 64.0625 45.09375 64.984375 
Q 41.3125 65.921875 37.59375 65.921875 
Q 27.828125 65.921875 22.671875 59.328125 
Q 17.53125 52.734375 16.796875 39.40625 
Q 19.671875 43.65625 24.015625 45.921875 
Q 28.375 48.1875 33.59375 48.1875 
Q 44.578125 48.1875 50.953125 41.515625 
Q 57.328125 34.859375 57.328125 23.390625 
Q 57.328125 12.15625 50.6875 5.359375 
Q 44.046875 -1.421875 33.015625 -1.421875 
Q 20.359375 -1.421875 13.671875 8.265625 
Q 6.984375 17.96875 6.984375 36.375 
Q 6.984375 53.65625 15.1875 63.9375 
Q 23.390625 74.21875 37.203125 74.21875 
Q 40.921875 74.21875 44.703125 73.484375 
Q 48.484375 72.75 52.59375 71.296875 
z
" id="DejaVuSans-54"/>
       </defs>
       <use xlink:href="#DejaVuSans-54"/>
       <use x="63.623047" xlink:href="#DejaVuSans-48"/>
       <use x="127.246094" xlink:href="#DejaVuSans-48"/>
       <use x="190.869141" xlink:href="#DejaVuSans-48"/>
       <use x="254.492188" xlink:href="#DejaVuSans-48"/>
      </g>
     </g>
    </g>
    <g id="xtick_5">
     <g id="line2d_5">
      <g>
       <use style="stroke:#000000;stroke-width:0.8;" x="310.426975" xlink:href="#m1594fd3f5a" y="224.64"/>
      </g>
     </g>
     <g id="text_5">
      <!-- 80000 -->
      <g transform="translate(294.520725 239.238437)scale(0.1 -0.1)">
       <defs>
        <path d="M 31.78125 34.625 
Q 24.75 34.625 20.71875 30.859375 
Q 16.703125 27.09375 16.703125 20.515625 
Q 16.703125 13.921875 20.71875 10.15625 
Q 24.75 6.390625 31.78125 6.390625 
Q 38.8125 6.390625 42.859375 10.171875 
Q 46.921875 13.96875 46.921875 20.515625 
Q 46.921875 27.09375 42.890625 30.859375 
Q 38.875 34.625 31.78125 34.625 
z
M 21.921875 38.8125 
Q 15.578125 40.375 12.03125 44.71875 
Q 8.5 49.078125 8.5 55.328125 
Q 8.5 64.0625 14.71875 69.140625 
Q 20.953125 74.21875 31.78125 74.21875 
Q 42.671875 74.21875 48.875 69.140625 
Q 55.078125 64.0625 55.078125 55.328125 
Q 55.078125 49.078125 51.53125 44.71875 
Q 48 40.375 41.703125 38.8125 
Q 48.828125 37.15625 52.796875 32.3125 
Q 56.78125 27.484375 56.78125 20.515625 
Q 56.78125 9.90625 50.3125 4.234375 
Q 43.84375 -1.421875 31.78125 -1.421875 
Q 19.734375 -1.421875 13.25 4.234375 
Q 6.78125 9.90625 6.78125 20.515625 
Q 6.78125 27.484375 10.78125 32.3125 
Q 14.796875 37.15625 21.921875 38.8125 
z
M 18.3125 54.390625 
Q 18.3125 48.734375 21.84375 45.5625 
Q 25.390625 42.390625 31.78125 42.390625 
Q 38.140625 42.390625 41.71875 45.5625 
Q 45.3125 48.734375 45.3125 54.390625 
Q 45.3125 60.0625 41.71875 63.234375 
Q 38.140625 66.40625 31.78125 66.40625 
Q 25.390625 66.40625 21.84375 63.234375 
Q 18.3125 60.0625 18.3125 54.390625 
z
" id="DejaVuSans-56"/>
       </defs>
       <use xlink:href="#DejaVuSans-56"/>
       <use x="63.623047" xlink:href="#DejaVuSans-48"/>
       <use x="127.246094" xlink:href="#DejaVuSans-48"/>
       <use x="190.869141" xlink:href="#DejaVuSans-48"/>
       <use x="254.492188" xlink:href="#DejaVuSans-48"/>
      </g>
     </g>
    </g>
   </g>
   <g id="matplotlib.axis_2">
    <g id="ytick_1">
     <g id="line2d_6">
      <defs>
       <path d="M 0 0 
L -3.5 0 
" id="m52a06ba91d" style="stroke:#000000;stroke-width:0.8;"/>
      </defs>
      <g>
       <use style="stroke:#000000;stroke-width:0.8;" x="38.482813" xlink:href="#m52a06ba91d" y="192.748991"/>
      </g>
     </g>
     <g id="text_6">
      <!-- −0.4 -->
      <g transform="translate(7.2 196.54821)scale(0.1 -0.1)">
       <defs>
        <path d="M 10.59375 35.5 
L 73.1875 35.5 
L 73.1875 27.203125 
L 10.59375 27.203125 
z
" id="DejaVuSans-8722"/>
        <path d="M 10.6875 12.40625 
L 21 12.40625 
L 21 0 
L 10.6875 0 
z
" id="DejaVuSans-46"/>
       </defs>
       <use xlink:href="#DejaVuSans-8722"/>
       <use x="83.789062" xlink:href="#DejaVuSans-48"/>
       <use x="147.412109" xlink:href="#DejaVuSans-46"/>
       <use x="179.199219" xlink:href="#DejaVuSans-52"/>
      </g>
     </g>
    </g>
    <g id="ytick_2">
     <g id="line2d_7">
      <g>
       <use style="stroke:#000000;stroke-width:0.8;" x="38.482813" xlink:href="#m52a06ba91d" y="160.384587"/>
      </g>
     </g>
     <g id="text_7">
      <!-- −0.2 -->
      <g transform="translate(7.2 164.183806)scale(0.1 -0.1)">
       <use xlink:href="#DejaVuSans-8722"/>
       <use x="83.789062" xlink:href="#DejaVuSans-48"/>
       <use x="147.412109" xlink:href="#DejaVuSans-46"/>
       <use x="179.199219" xlink:href="#DejaVuSans-50"/>
      </g>
     </g>
    </g>
    <g id="ytick_3">
     <g id="line2d_8">
      <g>
       <use style="stroke:#000000;stroke-width:0.8;" x="38.482813" xlink:href="#m52a06ba91d" y="128.020183"/>
      </g>
     </g>
     <g id="text_8">
      <!-- 0.0 -->
      <g transform="translate(15.579688 131.819402)scale(0.1 -0.1)">
       <use xlink:href="#DejaVuSans-48"/>
       <use x="63.623047" xlink:href="#DejaVuSans-46"/>
       <use x="95.410156" xlink:href="#DejaVuSans-48"/>
      </g>
     </g>
    </g>
    <g id="ytick_4">
     <g id="line2d_9">
      <g>
       <use style="stroke:#000000;stroke-width:0.8;" x="38.482813" xlink:href="#m52a06ba91d" y="95.655779"/>
      </g>
     </g>
     <g id="text_9">
      <!-- 0.2 -->
      <g transform="translate(15.579688 99.454998)scale(0.1 -0.1)">
       <use xlink:href="#DejaVuSans-48"/>
       <use x="63.623047" xlink:href="#DejaVuSans-46"/>
       <use x="95.410156" xlink:href="#DejaVuSans-50"/>
      </g>
     </g>
    </g>
    <g id="ytick_5">
     <g id="line2d_10">
      <g>
       <use style="stroke:#000000;stroke-width:0.8;" x="38.482813" xlink:href="#m52a06ba91d" y="63.291375"/>
      </g>
     </g>
     <g id="text_10">
      <!-- 0.4 -->
      <g transform="translate(15.579688 67.090594)scale(0.1 -0.1)">
       <use xlink:href="#DejaVuSans-48"/>
       <use x="63.623047" xlink:href="#DejaVuSans-46"/>
       <use x="95.410156" xlink:href="#DejaVuSans-52"/>
      </g>
     </g>
    </g>
    <g id="ytick_6">
     <g id="line2d_11">
      <g>
       <use style="stroke:#000000;stroke-width:0.8;" x="38.482813" xlink:href="#m52a06ba91d" y="30.926971"/>
      </g>
     </g>
     <g id="text_11">
      <!-- 0.6 -->
      <g transform="translate(15.579688 34.72619)scale(0.1 -0.1)">
       <use xlink:href="#DejaVuSans-48"/>
       <use x="63.623047" xlink:href="#DejaVuSans-46"/>
       <use x="95.410156" xlink:href="#DejaVuSans-54"/>
      </g>
     </g>
    </g>
   </g>
   <g id="line2d_12">
    <path clip-path="url(#padfc7aee12)" d="M 53.700994 214.756364 
L 53.912817 209.255022 
L 54.342881 177.273006 
L 54.769736 124.322821 
L 55.411624 44.332751 
L 55.732567 23.178074 
L 55.94439 17.42655 
L 56.053511 17.083636 
L 56.159422 18.424993 
L 56.374454 24.327094 
L 56.907221 73.688131 
L 57.975963 198.905552 
L 58.296906 213.130887 
L 58.406027 214.676798 
L 58.511939 214.622497 
L 58.61785 212.966832 
L 59.047914 189.473603 
L 59.368858 155.228077 
L 60.4376 32.459338 
L 60.758544 18.857719 
L 61.079487 21.499104 
L 61.506342 49.870175 
L 62.042318 113.316754 
L 62.680996 187.711825 
L 63.11106 210.805275 
L 63.326092 212.977099 
L 63.432004 211.679086 
L 63.537915 208.781722 
L 64.073891 170.043232 
L 65.357665 30.002597 
L 65.569488 23.229013 
L 65.678609 22.240826 
L 65.78452 22.839297 
L 65.996343 28.81382 
L 66.317287 49.598068 
L 66.747351 96.576704 
L 67.495149 184.525083 
L 67.922004 208.627321 
L 68.137037 211.36231 
L 68.242948 210.371139 
L 68.45798 203.618208 
L 68.673012 190.465044 
L 69.3149 118.557291 
L 69.953577 46.497368 
L 70.274521 28.640705 
L 70.489553 24.510725 
L 70.595464 24.791796 
L 70.810497 30.062241 
L 71.13144 49.573417 
L 71.664207 107.01563 
L 72.306094 179.520712 
L 72.736158 206.472648 
L 72.84207 208.897046 
L 72.947981 208.216811 
L 73.057102 209.042376 
L 73.268925 202.906028 
L 73.589868 181.970988 
L 74.019932 134.763449 
L 74.767731 49.904135 
L 75.088675 31.593996 
L 75.300497 27.016122 
L 75.409618 27.009183 
L 75.621441 31.593651 
L 75.836473 42.322246 
L 76.263328 80.58262 
L 77.33528 194.489891 
L 77.653014 206.231021 
L 77.762135 208.155949 
L 77.868046 207.735377 
L 78.083078 202.165966 
L 78.404022 182.106805 
L 78.830877 135.9605 
L 79.578675 52.637271 
L 79.899619 34.154641 
L 80.114651 29.277057 
L 80.220562 28.279669 
L 80.541506 35.442753 
L 80.86245 58.955699 
L 81.398425 117.708605 
L 82.146224 192.28666 
L 82.467168 205.36737 
L 82.573079 206.709956 
L 82.6822 206.512404 
L 82.788111 204.762736 
L 83.214966 182.265247 
L 84.604652 41.523055 
L 84.925595 31.432947 
L 85.034716 31.017094 
L 85.246539 32.448413 
L 85.782515 67.065856 
L 86.851257 182.617964 
L 87.278112 203.407006 
L 87.493144 204.912742 
L 87.602265 203.397461 
L 87.708176 200.358247 
L 88.240943 162.839724 
L 89.524717 39.074006 
L 89.739749 33.618055 
L 89.845661 33.036326 
L 89.954781 33.875854 
L 90.166604 39.851326 
L 90.487548 59.376335 
L 90.70258 78.775505 
L 91.877233 193.85858 
L 92.307298 203.405972 
L 92.413209 202.046439 
L 92.628241 194.821728 
L 92.949185 172.919942 
L 93.591072 102.281383 
L 94.123838 52.498739 
L 94.444782 37.745944 
L 94.659814 34.912524 
L 94.765726 35.597898 
L 94.980758 41.20141 
L 95.086669 44.341306 
L 95.728556 101.134064 
L 96.476355 178.427155 
L 96.797298 196.629964 
L 97.012331 201.639712 
L 97.118242 201.933895 
L 97.227363 200.742058 
L 97.439186 193.889695 
L 97.760129 172.69468 
L 98.402016 103.710957 
L 98.937992 53.911291 
L 99.364847 35.626126 
L 99.685791 39.131863 
L 99.897613 47.14402 
L 100.218557 68.958107 
L 100.754533 124.185583 
L 101.39642 183.942967 
L 101.823275 200.059442 
L 101.932396 200.501842 
L 102.038307 199.448969 
L 102.253339 192.076202 
L 102.465162 180.573628 
L 102.895227 141.034127 
L 103.748936 56.548819 
L 104.06988 41.785099 
L 104.284912 38.630314 
L 104.390824 39.076226 
L 104.605856 44.044634 
L 104.926799 61.390396 
L 105.353654 100.179169 
L 106.210574 182.222668 
L 106.528308 196.479279 
L 106.637429 196.667931 
L 106.74334 198.95076 
L 106.849251 198.019825 
L 107.279316 179.727765 
L 107.706171 140.986247 
L 108.56309 58.222251 
L 108.880824 43.497964 
L 109.095857 38.177441 
L 109.525921 49.664824 
L 109.843655 70.157334 
L 110.379631 122.581557 
L 111.021518 180.805398 
L 111.342462 195.040203 
L 111.557494 197.59865 
L 111.663405 196.741862 
L 111.878437 190.699851 
L 112.199381 171.136917 
L 112.732147 118.325113 
L 113.374034 59.796239 
L 113.694978 45.156118 
L 113.91001 41.891481 
L 114.015922 42.216575 
L 114.230954 46.700177 
L 114.551897 61.032356 
L 116.047495 188.610394 
L 116.262527 193.745561 
L 116.368438 196.237296 
L 116.474349 195.439054 
L 116.689382 189.517194 
L 117.010325 170.412907 
L 117.546301 118.652856 
L 118.188188 61.37945 
L 118.509132 46.922098 
L 118.720955 43.609539 
L 118.830075 43.880159 
L 119.041898 48.233827 
L 119.362842 64.115151 
L 119.792906 100.051907 
L 120.646616 178.031363 
L 120.96756 192.175969 
L 121.182592 194.851615 
L 121.288503 194.094616 
L 121.503535 188.368971 
L 121.824479 169.607167 
L 122.357245 119.010271 
L 122.7841 78.161282 
L 123.214165 52.159748 
L 123.425987 46.31615 
L 123.535108 45.260324 
L 123.64102 45.465266 
L 123.856052 49.636876 
L 124.176995 65.016025 
L 124.60385 100.124114 
L 125.46077 176.754909 
L 125.781713 190.801945 
L 125.887625 191.694804 
L 125.993536 193.541546 
L 126.208568 190.785332 
L 126.635423 168.972947 
L 127.171399 119.246242 
L 127.813286 64.098236 
L 128.13423 49.989249 
L 128.346053 46.678241 
L 128.451964 46.871332 
L 128.666996 50.918933 
L 128.98794 65.996067 
L 129.414795 100.287684 
L 130.377625 181.38439 
L 130.698569 191.414315 
L 130.80769 192.073358 
L 130.913601 191.362751 
L 131.128633 185.869888 
L 131.446368 167.877387 
L 131.982343 119.205517 
L 132.624231 65.220192 
L 132.945174 51.344375 
L 133.160206 48.095834 
L 133.266118 48.30597 
L 133.48115 52.349585 
L 133.802093 67.101841 
L 134.123037 89.199132 
L 134.870836 159.34558 
L 135.297691 184.552665 
L 135.403602 187.877636 
L 135.512723 187.559933 
L 135.618634 190.585949 
L 136.045489 179.872524 
L 136.366433 158.517623 
L 137.650207 55.889884 
L 137.971151 49.350181 
L 138.080271 49.536377 
L 138.292094 53.488004 
L 138.398006 55.416886 
L 139.039893 100.946339 
L 140.002723 178.965853 
L 140.323667 188.732312 
L 140.432788 189.381399 
L 140.538699 188.709686 
L 140.753731 183.415345 
L 141.074675 165.919135 
L 141.713353 108.872176 
L 142.249329 67.213783 
L 142.570272 53.919888 
L 142.785304 50.831276 
L 142.891216 51.039041 
L 143.106248 54.941044 
L 143.427191 69.209356 
L 143.959958 110.589393 
L 144.601845 165.694994 
L 144.922789 182.407118 
L 145.137821 187.53218 
L 145.243732 188.156638 
L 145.349644 187.463657 
L 145.564676 182.137037 
L 145.885619 164.77033 
L 146.527506 108.885966 
L 147.063482 68.105801 
L 147.381216 55.196645 
L 147.596249 52.269642 
L 147.70216 52.510117 
L 148.023104 57.569349 
L 148.774112 111.339432 
L 149.52191 171.467333 
L 149.842854 183.019919 
L 150.057886 186.79091 
L 150.163797 186.089483 
L 150.37562 180.841447 
L 150.699773 163.760961 
L 151.338451 108.838755 
L 151.874427 68.90497 
L 152.19537 56.299144 
L 152.410402 53.398731 
L 152.516314 53.640778 
L 152.731346 57.518432 
L 153.04908 70.566356 
L 153.690967 121.321327 
L 154.441975 176.161415 
L 154.762919 185.248231 
L 154.86883 185.778482 
L 154.974742 185.028852 
L 155.189774 179.692815 
L 155.510717 162.649111 
L 156.152605 108.636399 
L 156.473548 83.019968 
L 156.900403 60.564314 
L 157.115435 55.63717 
L 157.221347 54.830094 
L 157.327258 55.132303 
L 157.54229 59.030772 
L 157.863234 72.740799 
L 158.39921 112.44637 
L 159.147008 169.845142 
L 159.467952 182.160976 
L 159.573863 183.89192 
L 159.682984 182.91261 
L 159.788895 183.519356 
L 160.430782 153.757023 
L 161.605436 65.435929 
L 161.92638 56.803795 
L 162.0355 56.072416 
L 162.141412 56.420652 
L 162.353235 60.351076 
L 162.677388 74.044835 
L 163.210154 113.025707 
L 163.957952 169.336503 
L 164.278896 181.291044 
L 164.493928 183.234665 
L 164.59984 182.346935 
L 164.814872 176.928542 
L 165.135815 160.318403 
L 165.777703 107.706456 
L 166.313678 71.185061 
L 166.631412 59.696085 
L 166.846445 55.947396 
L 167.167388 61.613999 
L 167.488332 75.171295 
L 168.021098 113.504781 
L 168.772106 168.613657 
L 169.096259 180.238171 
L 169.304872 182.135313 
L 169.413993 181.210498 
L 169.625816 175.741963 
L 169.94676 159.190069 
L 170.482735 116.870457 
L 170.803679 91.448669 
L 171.230534 67.15625 
L 171.551478 59.108861 
L 171.657389 58.49856 
L 171.76651 58.933073 
L 171.981542 61.939954 
L 172.408397 81.42969 
L 173.58305 168.019991 
L 173.903994 179.199238 
L 174.119026 180.859871 
L 174.224938 179.881919 
L 174.43997 174.361173 
L 174.760913 157.855973 
L 175.935567 72.260884 
L 176.365631 57.72945 
L 176.471543 59.470198 
L 176.577454 57.788492 
L 177.11343 77.562336 
L 177.646196 114.783736 
L 178.397204 166.900319 
L 178.718148 178.301402 
L 178.929971 179.794736 
L 179.250914 172.427012 
L 179.465946 163.114675 
L 180.001922 124.446506 
L 180.643809 78.117971 
L 180.964753 64.832954 
L 181.176576 60.939183 
L 181.285696 60.530635 
L 181.391608 61.138738 
L 181.603431 65.295653 
L 181.927584 78.565736 
L 182.46035 115.300756 
L 183.208148 166.914476 
L 183.529092 177.247601 
L 183.638213 178.48861 
L 183.744124 176.156394 
L 183.850036 177.51555 
L 184.065068 171.855001 
L 184.918778 115.15854 
L 185.560665 73.295959 
L 185.881608 63.369421 
L 186.096641 61.627208 
L 186.202552 62.234665 
L 186.417584 66.41386 
L 186.738528 79.716739 
L 187.271294 115.958248 
L 188.022302 166.32486 
L 188.343246 176.347287 
L 188.558278 177.501845 
L 188.770101 174.037438 
L 189.091044 160.677391 
L 189.62702 122.89941 
L 190.265698 78.899169 
L 190.589851 66.46816 
L 190.804883 61.704651 
L 191.122617 65.021865 
L 191.443561 75.614384 
L 191.870416 100.846917 
L 192.939158 169.933553 
L 193.263311 176.299968 
L 193.369222 176.180247 
L 193.584254 172.581316 
L 193.901989 159.278286 
L 194.332053 130.283123 
L 194.758908 98.327557 
L 195.185763 73.606594 
L 195.615827 63.937811 
L 195.721739 63.722095 
L 195.82765 64.476337 
L 196.042682 68.853126 
L 196.363626 82.120128 
L 196.896392 117.345502 
L 197.6474 165.242617 
L 197.968344 174.362208 
L 198.074255 175.262307 
L 198.180167 175.050017 
L 198.395199 171.326819 
L 198.716142 158.000689 
L 199.252118 121.299801 
L 199.894005 79.370637 
L 200.32086 64.376634 
L 200.426772 64.841423 
L 200.532683 64.74129 
L 200.641804 65.582757 
L 200.853627 70.040415 
L 201.17457 83.266735 
L 201.710546 117.999265 
L 202.458344 164.837215 
L 202.779288 173.619257 
L 202.885199 174.415603 
L 202.99432 174.091113 
L 203.100232 172.661712 
L 203.742119 143.629551 
L 204.810861 75.009017 
L 205.025893 66.709669 
L 205.131805 66.623521 
L 205.346837 63.479595 
L 205.988724 84.359882 
L 206.630611 126.247329 
L 207.272498 164.286385 
L 207.593442 172.551709 
L 207.699353 173.212562 
L 207.805265 172.798541 
L 208.020297 168.783929 
L 208.34124 155.266992 
L 208.983128 111.781143 
L 209.515894 77.975733 
L 210.05187 66.577904 
L 210.157781 66.672348 
L 210.372813 69.64333 
L 210.693757 80.572083 
L 211.229733 112.181934 
L 211.977531 159.610447 
L 212.298475 169.746194 
L 212.510297 172.465432 
L 212.619418 171.916434 
L 212.940362 164.063106 
L 213.367217 141.113854 
L 214.330048 78.239264 
L 214.862814 67.424607 
L 214.971935 67.637242 
L 215.183758 70.696614 
L 215.504701 81.589856 
L 215.934765 105.766799 
L 216.897596 163.628765 
L 217.21854 170.893253 
L 217.324451 171.268187 
L 217.430363 170.602227 
L 217.645395 166.201219 
L 217.966338 152.585851 
L 218.714137 103.215743 
L 219.250113 75.924028 
L 219.571056 68.888421 
L 219.782879 67.373776 
L 220.212943 78.440866 
L 220.639798 100.202678 
L 221.708541 163.387967 
L 221.923573 168.916405 
L 222.029484 168.769212 
L 222.138605 170.498474 
L 222.244516 169.721069 
L 222.456339 165.124319 
L 222.777283 151.408129 
L 223.41917 109.594569 
L 223.955146 80.20286 
L 224.276089 70.989794 
L 224.491121 69.123573 
L 224.597033 69.519538 
L 224.812065 72.923913 
L 225.133009 84.146428 
L 225.774896 119.556942 
L 226.201751 148.814063 
L 226.628606 166.071328 
L 226.843638 169.277225 
L 226.949549 169.402225 
L 227.055461 168.528931 
L 227.270493 163.841895 
L 227.591436 149.980817 
L 228.981122 73.698538 
L 229.196154 70.435302 
L 229.302066 70.093121 
L 229.407977 70.611176 
L 229.623009 72.333328 
L 230.264896 102.67433 
L 231.333639 162.831837 
L 231.654582 168.672591 
L 231.760494 168.63945 
L 231.975526 165.634056 
L 232.296469 154.235214 
L 232.723324 129.245268 
L 233.2593 95.439255 
L 233.686155 75.56685 
L 234.007099 71.244641 
L 234.116219 70.998284 
L 234.222131 71.600311 
L 234.433954 75.334326 
L 234.754897 86.779475 
L 235.290873 116.984423 
L 235.93276 154.457222 
L 236.038671 157.0612 
L 236.253704 165.209088 
L 236.468736 167.809511 
L 236.574647 167.654991 
L 236.680559 166.533315 
L 237.537478 127.49226 
L 238.394397 80.607896 
L 238.712131 72.816216 
L 238.927164 71.755327 
L 239.036284 72.475178 
L 239.248107 76.368583 
L 239.569051 87.910934 
L 240.105027 117.819728 
L 240.852825 158.539042 
L 241.173769 166.246685 
L 241.27968 166.947099 
L 241.388801 166.680875 
L 241.600624 163.287662 
L 241.921567 151.528754 
L 242.563454 113.288505 
L 243.09943 84.662824 
L 243.420374 74.998739 
L 243.632197 72.515257 
L 243.741317 72.49345 
L 243.95314 74.935625 
L 244.274084 84.421035 
L 244.81006 112.088847 
L 245.663769 158.203153 
L 245.984713 165.297262 
L 246.093834 165.865545 
L 246.199745 165.506148 
L 246.411568 162.00694 
L 247.268487 118.994326 
L 247.910375 84.709475 
L 248.33723 71.589925 
L 248.552262 73.448604 
L 248.658173 73.894689 
L 249.088237 83.457391 
L 250.051068 138.577472 
L 250.477923 158.105024 
L 250.798867 164.774489 
L 250.904778 165.202215 
L 251.11981 163.268247 
L 251.331633 157.7099 
L 251.652577 143.478737 
L 252.936351 78.174125 
L 253.151383 74.61217 
L 253.363206 72.826128 
L 253.472327 75.188619 
L 253.578238 74.847796 
L 254.541069 120.418923 
L 255.182956 154.120256 
L 255.5039 162.991787 
L 255.609811 164.210774 
L 255.718932 162.424776 
L 255.824843 163.867839 
L 256.039875 159.835256 
L 256.251698 152.407909 
L 257.32044 93.525714 
L 257.750505 78.388936 
L 257.962328 75.174764 
L 258.071448 74.730791 
L 258.17736 75.066141 
L 258.392392 78.034559 
L 258.713335 87.919316 
L 259.246102 115.199826 
L 259.9939 154.142903 
L 260.314844 162.435334 
L 260.529876 163.631803 
L 260.635788 162.867542 
L 260.85082 158.667877 
L 261.171763 146.375249 
L 262.561449 78.656755 
L 262.776481 75.687647 
L 262.882393 75.354904 
L 262.988304 75.78778 
L 263.097425 75.250526 
L 263.845223 104.134804 
L 264.913966 157.488021 
L 265.234909 162.687402 
L 265.34403 162.694986 
L 265.664973 157.493688 
L 265.982708 145.147536 
L 267.375603 79.020936 
L 267.587426 76.341863 
L 267.696546 76.117312 
L 267.802458 76.65183 
L 267.908369 77.946277 
L 268.01749 77.629889 
L 268.765288 110.649081 
L 269.513087 150.124068 
L 269.834031 159.682632 
L 270.049063 161.984013 
L 270.260886 160.805192 
L 270.796861 143.761057 
L 272.080636 81.683201 
L 272.401579 74.71032 
L 272.613402 77.507863 
L 272.828434 81.030558 
L 273.149378 91.343558 
L 273.682144 118.021783 
L 274.433152 154.044213 
L 274.754096 160.790044 
L 274.860007 161.364425 
L 274.969128 161.056742 
L 275.180951 157.886334 
L 275.501894 147.393517 
L 276.143781 113.511935 
L 276.679757 86.322444 
L 276.89158 81.976597 
L 277.000701 78.411001 
L 277.106612 78.435371 
L 277.212524 77.755837 
L 277.318435 77.809706 
L 277.533467 80.07396 
L 277.854411 88.538646 
L 278.390387 113.212506 
L 279.032274 146.149276 
L 279.138185 147.950401 
L 279.353217 156.793252 
L 279.459129 157.220439 
L 279.670951 160.638347 
L 279.780072 160.230122 
L 280.101016 154.01493 
L 281.38479 92.019667 
L 281.811645 79.677371 
L 282.026677 78.107132 
L 282.132589 78.244802 
L 282.347621 80.658878 
L 282.668564 89.422045 
L 283.201331 114.180201 
L 284.05825 153.992692 
L 284.379194 159.831097 
L 284.485105 160.128782 
L 284.591017 159.583534 
L 284.700137 158.211384 
L 285.768879 111.855225 
L 286.304855 88.061898 
L 286.622589 80.396985 
L 286.837622 78.737021 
L 287.052654 79.414702 
L 287.479509 90.475177 
L 288.015485 115.080774 
L 288.657372 146.548214 
L 289.299259 159.1131 
L 289.40517 158.46412 
L 289.620202 154.758311 
L 289.941146 143.667195 
L 290.473912 114.026586 
L 291.009888 90.937617 
L 291.436743 80.593567 
L 291.651775 79.244646 
L 291.757687 79.592365 
L 291.972719 82.386977 
L 292.293662 91.473794 
L 292.826429 115.858416 
L 293.468316 146.642379 
L 293.577437 148.26931 
L 293.78926 155.855595 
L 294.004292 158.299128 
L 294.110203 158.326817 
L 294.325235 155.978138 
L 294.646179 146.796942 
L 295.178945 121.166893 
L 295.929953 87.67938 
L 296.250897 80.944237 
L 296.356808 80.035239 
L 296.46272 78.136049 
L 297.210518 94.947553 
L 297.961526 133.102989 
L 298.388381 148.752414 
L 298.709325 157.034869 
L 298.815236 157.718045 
L 298.924357 157.606729 
L 299.13618 155.039037 
L 299.457123 145.732971 
L 299.993099 120.301508 
L 300.634986 89.448657 
L 301.276873 80.618713 
L 301.382785 81.217012 
L 301.597817 84.400823 
L 301.91876 93.768193 
L 302.451527 117.952054 
L 303.199325 149.384199 
L 303.62939 157.143707 
L 303.735301 156.876837 
L 303.950333 153.990128 
L 304.271277 144.37959 
L 304.804043 119.10644 
L 305.124987 103.43857 
L 305.551842 87.539857 
L 305.872785 81.675961 
L 305.981906 81.06413 
L 306.087818 81.115758 
L 306.30285 83.185629 
L 306.623793 88.669269 
L 307.15656 113.570201 
L 308.013479 150.621436 
L 308.11939 151.213444 
L 308.334423 156.277697 
L 308.440334 156.672778 
L 308.549455 156.280046 
L 308.655366 155.105254 
L 308.867189 150.060157 
L 309.082221 143.409977 
L 309.833229 107.739639 
L 310.365996 87.477433 
L 310.686939 82.020986 
L 310.792851 81.513425 
L 310.901971 81.67122 
L 311.113794 83.951075 
L 311.434738 91.99674 
L 311.864802 109.400013 
L 312.718512 147.390134 
L 313.254488 155.956784 
L 313.360399 155.45642 
L 313.575431 152.188379 
L 313.896375 142.175778 
L 315.391972 83.491049 
L 315.607004 82.030489 
L 315.712916 82.286564 
L 315.927948 84.782501 
L 316.354803 94.841322 
L 316.99669 125.599319 
L 317.102601 128.353788 
L 317.423545 143.92967 
L 317.744489 152.644397 
L 317.959521 155.052268 
L 318.065432 155.156085 
L 318.174553 154.506696 
L 318.386376 151.008739 
L 318.707319 140.93617 
L 319.455118 106.244904 
L 319.991094 87.480794 
L 320.312037 82.98129 
L 320.417949 81.978515 
L 320.738892 85.849769 
L 321.059836 94.288402 
L 321.595811 115.095362 
L 322.022666 136.199316 
L 322.34361 147.817601 
L 322.449521 148.128171 
L 322.664554 154.085715 
L 322.770465 154.760681 
L 322.879586 154.710669 
L 323.091409 152.459861 
L 323.412352 143.99608 
L 323.948328 120.722533 
L 324.590215 93.534312 
L 324.911159 85.840891 
L 325.122981 83.666341 
L 325.232102 83.545479 
L 325.338014 84.060172 
L 325.553046 86.914623 
L 325.873989 95.373146 
L 326.406756 117.464985 
L 327.154554 147.338182 
L 327.263675 147.980568 
L 327.475498 153.584467 
L 327.584619 154.137365 
L 327.69053 153.955091 
L 327.905562 151.433405 
L 328.226506 142.712407 
L 328.868393 114.623915 
L 329.507071 90.199558 
L 329.831224 84.549137 
L 330.043047 83.877855 
L 330.258079 85.718003 
L 330.579022 92.810001 
L 331.111789 113.571903 
L 331.968708 147.875608 
L 332.18374 152.094387 
L 332.289652 151.132208 
L 332.395563 153.640341 
L 332.716507 150.722044 
L 333.03745 141.774104 
L 333.573426 118.764324 
L 334.106192 96.390961 
L 334.536257 86.060917 
L 334.748079 84.413795 
L 334.8572 84.501193 
L 335.072232 86.501744 
L 335.178144 87.592693 
L 335.820031 109.652619 
L 336.673741 143.765065 
L 337.100596 152.752589 
L 337.209717 153.042602 
L 337.315628 152.624982 
L 337.53066 149.688348 
L 337.851604 140.595929 
L 338.493491 112.829039 
L 338.920346 95.887645 
L 339.347201 86.090416 
L 339.562233 84.672133 
L 339.668145 84.869016 
L 339.883177 87.076426 
L 340.20412 94.611384 
L 340.740096 115.342538 
L 341.487895 144.968947 
L 341.91475 152.20497 
L 342.020661 152.350419 
L 342.129782 151.802369 
L 342.450725 146.149988 
L 342.87758 131.008447 
L 343.840411 92.420113 
L 344.267266 83.453297 
L 344.373177 85.170837 
L 344.482298 83.911836 
L 345.230097 102.902867 
L 346.513871 149.722027 
L 346.725694 151.787157 
L 346.834815 151.806507 
L 347.046638 149.791109 
L 347.582613 134.230397 
L 348.760476 89.700293 
L 349.08142 85.684475 
L 349.187331 84.023023 
L 349.829218 96.466594 
L 350.471106 121.641831 
L 351.112993 145.173523 
L 351.218904 146.310347 
L 351.433936 150.739627 
L 351.539848 151.303902 
L 351.645759 151.191529 
L 351.75488 148.517973 
L 351.860791 148.958391 
L 352.181735 140.969332 
L 352.823622 114.991415 
L 353.465509 92.27238 
L 353.786453 86.964894 
L 353.998276 86.278141 
L 354.107396 86.809254 
L 354.319219 89.555901 
L 354.640163 97.585426 
L 355.176138 118.04527 
L 355.923937 145.379025 
L 356.029848 146.666534 
L 356.138969 149.371119 
L 356.244881 148.755862 
L 356.350792 150.836894 
L 356.565824 149.665895 
L 356.780856 145.885164 
L 357.207711 132.093276 
L 358.064631 97.975508 
L 358.064631 97.975508 
" style="fill:none;stroke:#000000;stroke-linecap:square;stroke-width:1.5;"/>
   </g>
   <g id="patch_3">
    <path d="M 38.482813 224.64 
L 38.482813 7.2 
" style="fill:none;stroke:#000000;stroke-linecap:square;stroke-linejoin:miter;stroke-width:0.8;"/>
   </g>
   <g id="patch_4">
    <path d="M 373.282813 224.64 
L 373.282813 7.2 
" style="fill:none;stroke:#000000;stroke-linecap:square;stroke-linejoin:miter;stroke-width:0.8;"/>
   </g>
   <g id="patch_5">
    <path d="M 38.482813 224.64 
L 373.282813 224.64 
" style="fill:none;stroke:#000000;stroke-linecap:square;stroke-linejoin:miter;stroke-width:0.8;"/>
   </g>
   <g id="patch_6">
    <path d="M 38.482813 7.2 
L 373.282813 7.2 
" style="fill:none;stroke:#000000;stroke-linecap:square;stroke-linejoin:miter;stroke-width:0.8;"/>
   </g>
  </g>
 </g>
 <defs>
  <clipPath id="padfc7aee12">
   <rect height="217.44" width="334.8" x="38.482813" y="7.2"/>
  </clipPath>
 </defs>
</svg>
