<?xml version="1.0" encoding="utf-8" standalone="no"?>
<!DOCTYPE svg PUBLIC "-//W3C//DTD SVG 1.1//EN"
  "http://www.w3.org/Graphics/SVG/1.1/DTD/svg11.dtd">
<!-- Created with matplotlib (https://matplotlib.org/) -->
<svg height="263.63625pt" version="1.1" viewBox="0 0 405.932812 263.63625" width="405.932812pt" xmlns="http://www.w3.org/2000/svg" xmlns:xlink="http://www.w3.org/1999/xlink">
 <metadata>
  <rdf:RDF xmlns:cc="http://creativecommons.org/ns#" xmlns:dc="http://purl.org/dc/elements/1.1/" xmlns:rdf="http://www.w3.org/1999/02/22-rdf-syntax-ns#">
   <cc:Work>
    <dc:type rdf:resource="http://purl.org/dc/dcmitype/StillImage"/>
    <dc:date>2021-10-06T11:22:44.647656</dc:date>
    <dc:format>image/svg+xml</dc:format>
    <dc:creator>
     <cc:Agent>
      <dc:title>Matplotlib v3.3.4, https://matplotlib.org/</dc:title>
     </cc:Agent>
    </dc:creator>
   </cc:Work>
  </rdf:RDF>
 </metadata>
 <defs>
  <style type="text/css">*{stroke-linecap:butt;stroke-linejoin:round;}</style>
 </defs>
 <g id="figure_1">
  <g id="patch_1">
   <path d="M 0 263.63625 
L 405.932812 263.63625 
L 405.932812 0 
L 0 0 
z
" style="fill:none;"/>
  </g>
  <g id="axes_1">
   <g id="patch_2">
    <path d="M 63.932812 239.758125 
L 398.732813 239.758125 
L 398.732813 22.318125 
L 63.932812 22.318125 
z
" style="fill:#ffffff;"/>
   </g>
   <g id="matplotlib.axis_1">
    <g id="xtick_1">
     <g id="line2d_1">
      <path clip-path="url(#pd99098e7d3)" d="M 79.150994 239.758125 
L 79.150994 22.318125 
" style="fill:none;stroke:#b0b0b0;stroke-linecap:square;stroke-width:0.8;"/>
     </g>
     <g id="line2d_2">
      <defs>
       <path d="M 0 0 
L 0 3.5 
" id="m64180f206f" style="stroke:#000000;stroke-width:0.8;"/>
      </defs>
      <g>
       <use style="stroke:#000000;stroke-width:0.8;" x="79.150994" xlink:href="#m64180f206f" y="239.758125"/>
      </g>
     </g>
     <g id="text_1">
      <!-- 0 -->
      <g transform="translate(75.969744 254.356563)scale(0.1 -0.1)">
       <defs>
        <path d="M 31.78125 66.40625 
Q 24.171875 66.40625 20.328125 58.90625 
Q 16.5 51.421875 16.5 36.375 
Q 16.5 21.390625 20.328125 13.890625 
Q 24.171875 6.390625 31.78125 6.390625 
Q 39.453125 6.390625 43.28125 13.890625 
Q 47.125 21.390625 47.125 36.375 
Q 47.125 51.421875 43.28125 58.90625 
Q 39.453125 66.40625 31.78125 66.40625 
z
M 31.78125 74.21875 
Q 44.046875 74.21875 50.515625 64.515625 
Q 56.984375 54.828125 56.984375 36.375 
Q 56.984375 17.96875 50.515625 8.265625 
Q 44.046875 -1.421875 31.78125 -1.421875 
Q 19.53125 -1.421875 13.0625 8.265625 
Q 6.59375 17.96875 6.59375 36.375 
Q 6.59375 54.828125 13.0625 64.515625 
Q 19.53125 74.21875 31.78125 74.21875 
z
" id="DejaVuSans-48"/>
       </defs>
       <use xlink:href="#DejaVuSans-48"/>
      </g>
     </g>
    </g>
    <g id="xtick_2">
     <g id="line2d_3">
      <path clip-path="url(#pd99098e7d3)" d="M 129.878267 239.758125 
L 129.878267 22.318125 
" style="fill:none;stroke:#b0b0b0;stroke-linecap:square;stroke-width:0.8;"/>
     </g>
     <g id="line2d_4">
      <g>
       <use style="stroke:#000000;stroke-width:0.8;" x="129.878267" xlink:href="#m64180f206f" y="239.758125"/>
      </g>
     </g>
     <g id="text_2">
      <!-- 10 -->
      <g transform="translate(123.515767 254.356563)scale(0.1 -0.1)">
       <defs>
        <path d="M 12.40625 8.296875 
L 28.515625 8.296875 
L 28.515625 63.921875 
L 10.984375 60.40625 
L 10.984375 69.390625 
L 28.421875 72.90625 
L 38.28125 72.90625 
L 38.28125 8.296875 
L 54.390625 8.296875 
L 54.390625 0 
L 12.40625 0 
z
" id="DejaVuSans-49"/>
       </defs>
       <use xlink:href="#DejaVuSans-49"/>
       <use x="63.623047" xlink:href="#DejaVuSans-48"/>
      </g>
     </g>
    </g>
    <g id="xtick_3">
     <g id="line2d_5">
      <path clip-path="url(#pd99098e7d3)" d="M 180.60554 239.758125 
L 180.60554 22.318125 
" style="fill:none;stroke:#b0b0b0;stroke-linecap:square;stroke-width:0.8;"/>
     </g>
     <g id="line2d_6">
      <g>
       <use style="stroke:#000000;stroke-width:0.8;" x="180.60554" xlink:href="#m64180f206f" y="239.758125"/>
      </g>
     </g>
     <g id="text_3">
      <!-- 20 -->
      <g transform="translate(174.24304 254.356563)scale(0.1 -0.1)">
       <defs>
        <path d="M 19.1875 8.296875 
L 53.609375 8.296875 
L 53.609375 0 
L 7.328125 0 
L 7.328125 8.296875 
Q 12.9375 14.109375 22.625 23.890625 
Q 32.328125 33.6875 34.8125 36.53125 
Q 39.546875 41.84375 41.421875 45.53125 
Q 43.3125 49.21875 43.3125 52.78125 
Q 43.3125 58.59375 39.234375 62.25 
Q 35.15625 65.921875 28.609375 65.921875 
Q 23.96875 65.921875 18.8125 64.3125 
Q 13.671875 62.703125 7.8125 59.421875 
L 7.8125 69.390625 
Q 13.765625 71.78125 18.9375 73 
Q 24.125 74.21875 28.421875 74.21875 
Q 39.75 74.21875 46.484375 68.546875 
Q 53.21875 62.890625 53.21875 53.421875 
Q 53.21875 48.921875 51.53125 44.890625 
Q 49.859375 40.875 45.40625 35.40625 
Q 44.1875 33.984375 37.640625 27.21875 
Q 31.109375 20.453125 19.1875 8.296875 
z
" id="DejaVuSans-50"/>
       </defs>
       <use xlink:href="#DejaVuSans-50"/>
       <use x="63.623047" xlink:href="#DejaVuSans-48"/>
      </g>
     </g>
    </g>
    <g id="xtick_4">
     <g id="line2d_7">
      <path clip-path="url(#pd99098e7d3)" d="M 231.332812 239.758125 
L 231.332812 22.318125 
" style="fill:none;stroke:#b0b0b0;stroke-linecap:square;stroke-width:0.8;"/>
     </g>
     <g id="line2d_8">
      <g>
       <use style="stroke:#000000;stroke-width:0.8;" x="231.332812" xlink:href="#m64180f206f" y="239.758125"/>
      </g>
     </g>
     <g id="text_4">
      <!-- 30 -->
      <g transform="translate(224.970312 254.356563)scale(0.1 -0.1)">
       <defs>
        <path d="M 40.578125 39.3125 
Q 47.65625 37.796875 51.625 33 
Q 55.609375 28.21875 55.609375 21.1875 
Q 55.609375 10.40625 48.1875 4.484375 
Q 40.765625 -1.421875 27.09375 -1.421875 
Q 22.515625 -1.421875 17.65625 -0.515625 
Q 12.796875 0.390625 7.625 2.203125 
L 7.625 11.71875 
Q 11.71875 9.328125 16.59375 8.109375 
Q 21.484375 6.890625 26.8125 6.890625 
Q 36.078125 6.890625 40.9375 10.546875 
Q 45.796875 14.203125 45.796875 21.1875 
Q 45.796875 27.640625 41.28125 31.265625 
Q 36.765625 34.90625 28.71875 34.90625 
L 20.21875 34.90625 
L 20.21875 43.015625 
L 29.109375 43.015625 
Q 36.375 43.015625 40.234375 45.921875 
Q 44.09375 48.828125 44.09375 54.296875 
Q 44.09375 59.90625 40.109375 62.90625 
Q 36.140625 65.921875 28.71875 65.921875 
Q 24.65625 65.921875 20.015625 65.03125 
Q 15.375 64.15625 9.8125 62.3125 
L 9.8125 71.09375 
Q 15.4375 72.65625 20.34375 73.4375 
Q 25.25 74.21875 29.59375 74.21875 
Q 40.828125 74.21875 47.359375 69.109375 
Q 53.90625 64.015625 53.90625 55.328125 
Q 53.90625 49.265625 50.4375 45.09375 
Q 46.96875 40.921875 40.578125 39.3125 
z
" id="DejaVuSans-51"/>
       </defs>
       <use xlink:href="#DejaVuSans-51"/>
       <use x="63.623047" xlink:href="#DejaVuSans-48"/>
      </g>
     </g>
    </g>
    <g id="xtick_5">
     <g id="line2d_9">
      <path clip-path="url(#pd99098e7d3)" d="M 282.060085 239.758125 
L 282.060085 22.318125 
" style="fill:none;stroke:#b0b0b0;stroke-linecap:square;stroke-width:0.8;"/>
     </g>
     <g id="line2d_10">
      <g>
       <use style="stroke:#000000;stroke-width:0.8;" x="282.060085" xlink:href="#m64180f206f" y="239.758125"/>
      </g>
     </g>
     <g id="text_5">
      <!-- 40 -->
      <g transform="translate(275.697585 254.356563)scale(0.1 -0.1)">
       <defs>
        <path d="M 37.796875 64.3125 
L 12.890625 25.390625 
L 37.796875 25.390625 
z
M 35.203125 72.90625 
L 47.609375 72.90625 
L 47.609375 25.390625 
L 58.015625 25.390625 
L 58.015625 17.1875 
L 47.609375 17.1875 
L 47.609375 0 
L 37.796875 0 
L 37.796875 17.1875 
L 4.890625 17.1875 
L 4.890625 26.703125 
z
" id="DejaVuSans-52"/>
       </defs>
       <use xlink:href="#DejaVuSans-52"/>
       <use x="63.623047" xlink:href="#DejaVuSans-48"/>
      </g>
     </g>
    </g>
    <g id="xtick_6">
     <g id="line2d_11">
      <path clip-path="url(#pd99098e7d3)" d="M 332.787358 239.758125 
L 332.787358 22.318125 
" style="fill:none;stroke:#b0b0b0;stroke-linecap:square;stroke-width:0.8;"/>
     </g>
     <g id="line2d_12">
      <g>
       <use style="stroke:#000000;stroke-width:0.8;" x="332.787358" xlink:href="#m64180f206f" y="239.758125"/>
      </g>
     </g>
     <g id="text_6">
      <!-- 50 -->
      <g transform="translate(326.424858 254.356563)scale(0.1 -0.1)">
       <defs>
        <path d="M 10.796875 72.90625 
L 49.515625 72.90625 
L 49.515625 64.59375 
L 19.828125 64.59375 
L 19.828125 46.734375 
Q 21.96875 47.46875 24.109375 47.828125 
Q 26.265625 48.1875 28.421875 48.1875 
Q 40.625 48.1875 47.75 41.5 
Q 54.890625 34.8125 54.890625 23.390625 
Q 54.890625 11.625 47.5625 5.09375 
Q 40.234375 -1.421875 26.90625 -1.421875 
Q 22.3125 -1.421875 17.546875 -0.640625 
Q 12.796875 0.140625 7.71875 1.703125 
L 7.71875 11.625 
Q 12.109375 9.234375 16.796875 8.0625 
Q 21.484375 6.890625 26.703125 6.890625 
Q 35.15625 6.890625 40.078125 11.328125 
Q 45.015625 15.765625 45.015625 23.390625 
Q 45.015625 31 40.078125 35.4375 
Q 35.15625 39.890625 26.703125 39.890625 
Q 22.75 39.890625 18.8125 39.015625 
Q 14.890625 38.140625 10.796875 36.28125 
z
" id="DejaVuSans-53"/>
       </defs>
       <use xlink:href="#DejaVuSans-53"/>
       <use x="63.623047" xlink:href="#DejaVuSans-48"/>
      </g>
     </g>
    </g>
    <g id="xtick_7">
     <g id="line2d_13">
      <path clip-path="url(#pd99098e7d3)" d="M 383.514631 239.758125 
L 383.514631 22.318125 
" style="fill:none;stroke:#b0b0b0;stroke-linecap:square;stroke-width:0.8;"/>
     </g>
     <g id="line2d_14">
      <g>
       <use style="stroke:#000000;stroke-width:0.8;" x="383.514631" xlink:href="#m64180f206f" y="239.758125"/>
      </g>
     </g>
     <g id="text_7">
      <!-- 60 -->
      <g transform="translate(377.152131 254.356563)scale(0.1 -0.1)">
       <defs>
        <path d="M 33.015625 40.375 
Q 26.375 40.375 22.484375 35.828125 
Q 18.609375 31.296875 18.609375 23.390625 
Q 18.609375 15.53125 22.484375 10.953125 
Q 26.375 6.390625 33.015625 6.390625 
Q 39.65625 6.390625 43.53125 10.953125 
Q 47.40625 15.53125 47.40625 23.390625 
Q 47.40625 31.296875 43.53125 35.828125 
Q 39.65625 40.375 33.015625 40.375 
z
M 52.59375 71.296875 
L 52.59375 62.3125 
Q 48.875 64.0625 45.09375 64.984375 
Q 41.3125 65.921875 37.59375 65.921875 
Q 27.828125 65.921875 22.671875 59.328125 
Q 17.53125 52.734375 16.796875 39.40625 
Q 19.671875 43.65625 24.015625 45.921875 
Q 28.375 48.1875 33.59375 48.1875 
Q 44.578125 48.1875 50.953125 41.515625 
Q 57.328125 34.859375 57.328125 23.390625 
Q 57.328125 12.15625 50.6875 5.359375 
Q 44.046875 -1.421875 33.015625 -1.421875 
Q 20.359375 -1.421875 13.671875 8.265625 
Q 6.984375 17.96875 6.984375 36.375 
Q 6.984375 53.65625 15.1875 63.9375 
Q 23.390625 74.21875 37.203125 74.21875 
Q 40.921875 74.21875 44.703125 73.484375 
Q 48.484375 72.75 52.59375 71.296875 
z
" id="DejaVuSans-54"/>
       </defs>
       <use xlink:href="#DejaVuSans-54"/>
       <use x="63.623047" xlink:href="#DejaVuSans-48"/>
      </g>
     </g>
    </g>
   </g>
   <g id="matplotlib.axis_2">
    <g id="ytick_1">
     <g id="line2d_15">
      <path clip-path="url(#pd99098e7d3)" d="M 63.932812 229.874489 
L 398.732813 229.874489 
" style="fill:none;stroke:#b0b0b0;stroke-linecap:square;stroke-width:0.8;"/>
     </g>
     <g id="line2d_16">
      <defs>
       <path d="M 0 0 
L -3.5 0 
" id="m40d3034c4c" style="stroke:#000000;stroke-width:0.8;"/>
      </defs>
      <g>
       <use style="stroke:#000000;stroke-width:0.8;" x="63.932812" xlink:href="#m40d3034c4c" y="229.874489"/>
      </g>
     </g>
     <g id="text_8">
      <!-- −0.00100 -->
      <g transform="translate(7.2 233.673707)scale(0.1 -0.1)">
       <defs>
        <path d="M 10.59375 35.5 
L 73.1875 35.5 
L 73.1875 27.203125 
L 10.59375 27.203125 
z
" id="DejaVuSans-8722"/>
        <path d="M 10.6875 12.40625 
L 21 12.40625 
L 21 0 
L 10.6875 0 
z
" id="DejaVuSans-46"/>
       </defs>
       <use xlink:href="#DejaVuSans-8722"/>
       <use x="83.789062" xlink:href="#DejaVuSans-48"/>
       <use x="147.412109" xlink:href="#DejaVuSans-46"/>
       <use x="179.199219" xlink:href="#DejaVuSans-48"/>
       <use x="242.822266" xlink:href="#DejaVuSans-48"/>
       <use x="306.445312" xlink:href="#DejaVuSans-49"/>
       <use x="370.068359" xlink:href="#DejaVuSans-48"/>
       <use x="433.691406" xlink:href="#DejaVuSans-48"/>
      </g>
     </g>
    </g>
    <g id="ytick_2">
     <g id="line2d_17">
      <path clip-path="url(#pd99098e7d3)" d="M 63.932812 205.156388 
L 398.732813 205.156388 
" style="fill:none;stroke:#b0b0b0;stroke-linecap:square;stroke-width:0.8;"/>
     </g>
     <g id="line2d_18">
      <g>
       <use style="stroke:#000000;stroke-width:0.8;" x="63.932812" xlink:href="#m40d3034c4c" y="205.156388"/>
      </g>
     </g>
     <g id="text_9">
      <!-- −0.00075 -->
      <g transform="translate(7.2 208.955607)scale(0.1 -0.1)">
       <defs>
        <path d="M 8.203125 72.90625 
L 55.078125 72.90625 
L 55.078125 68.703125 
L 28.609375 0 
L 18.3125 0 
L 43.21875 64.59375 
L 8.203125 64.59375 
z
" id="DejaVuSans-55"/>
       </defs>
       <use xlink:href="#DejaVuSans-8722"/>
       <use x="83.789062" xlink:href="#DejaVuSans-48"/>
       <use x="147.412109" xlink:href="#DejaVuSans-46"/>
       <use x="179.199219" xlink:href="#DejaVuSans-48"/>
       <use x="242.822266" xlink:href="#DejaVuSans-48"/>
       <use x="306.445312" xlink:href="#DejaVuSans-48"/>
       <use x="370.068359" xlink:href="#DejaVuSans-55"/>
       <use x="433.691406" xlink:href="#DejaVuSans-53"/>
      </g>
     </g>
    </g>
    <g id="ytick_3">
     <g id="line2d_19">
      <path clip-path="url(#pd99098e7d3)" d="M 63.932812 180.438288 
L 398.732813 180.438288 
" style="fill:none;stroke:#b0b0b0;stroke-linecap:square;stroke-width:0.8;"/>
     </g>
     <g id="line2d_20">
      <g>
       <use style="stroke:#000000;stroke-width:0.8;" x="63.932812" xlink:href="#m40d3034c4c" y="180.438288"/>
      </g>
     </g>
     <g id="text_10">
      <!-- −0.00050 -->
      <g transform="translate(7.2 184.237507)scale(0.1 -0.1)">
       <use xlink:href="#DejaVuSans-8722"/>
       <use x="83.789062" xlink:href="#DejaVuSans-48"/>
       <use x="147.412109" xlink:href="#DejaVuSans-46"/>
       <use x="179.199219" xlink:href="#DejaVuSans-48"/>
       <use x="242.822266" xlink:href="#DejaVuSans-48"/>
       <use x="306.445312" xlink:href="#DejaVuSans-48"/>
       <use x="370.068359" xlink:href="#DejaVuSans-53"/>
       <use x="433.691406" xlink:href="#DejaVuSans-48"/>
      </g>
     </g>
    </g>
    <g id="ytick_4">
     <g id="line2d_21">
      <path clip-path="url(#pd99098e7d3)" d="M 63.932812 155.720188 
L 398.732813 155.720188 
" style="fill:none;stroke:#b0b0b0;stroke-linecap:square;stroke-width:0.8;"/>
     </g>
     <g id="line2d_22">
      <g>
       <use style="stroke:#000000;stroke-width:0.8;" x="63.932812" xlink:href="#m40d3034c4c" y="155.720188"/>
      </g>
     </g>
     <g id="text_11">
      <!-- −0.00025 -->
      <g transform="translate(7.2 159.519407)scale(0.1 -0.1)">
       <use xlink:href="#DejaVuSans-8722"/>
       <use x="83.789062" xlink:href="#DejaVuSans-48"/>
       <use x="147.412109" xlink:href="#DejaVuSans-46"/>
       <use x="179.199219" xlink:href="#DejaVuSans-48"/>
       <use x="242.822266" xlink:href="#DejaVuSans-48"/>
       <use x="306.445312" xlink:href="#DejaVuSans-48"/>
       <use x="370.068359" xlink:href="#DejaVuSans-50"/>
       <use x="433.691406" xlink:href="#DejaVuSans-53"/>
      </g>
     </g>
    </g>
    <g id="ytick_5">
     <g id="line2d_23">
      <path clip-path="url(#pd99098e7d3)" d="M 63.932812 131.002088 
L 398.732813 131.002088 
" style="fill:none;stroke:#b0b0b0;stroke-linecap:square;stroke-width:0.8;"/>
     </g>
     <g id="line2d_24">
      <g>
       <use style="stroke:#000000;stroke-width:0.8;" x="63.932812" xlink:href="#m40d3034c4c" y="131.002088"/>
      </g>
     </g>
     <g id="text_12">
      <!-- 0.00000 -->
      <g transform="translate(15.579687 134.801307)scale(0.1 -0.1)">
       <use xlink:href="#DejaVuSans-48"/>
       <use x="63.623047" xlink:href="#DejaVuSans-46"/>
       <use x="95.410156" xlink:href="#DejaVuSans-48"/>
       <use x="159.033203" xlink:href="#DejaVuSans-48"/>
       <use x="222.65625" xlink:href="#DejaVuSans-48"/>
       <use x="286.279297" xlink:href="#DejaVuSans-48"/>
       <use x="349.902344" xlink:href="#DejaVuSans-48"/>
      </g>
     </g>
    </g>
    <g id="ytick_6">
     <g id="line2d_25">
      <path clip-path="url(#pd99098e7d3)" d="M 63.932812 106.283988 
L 398.732813 106.283988 
" style="fill:none;stroke:#b0b0b0;stroke-linecap:square;stroke-width:0.8;"/>
     </g>
     <g id="line2d_26">
      <g>
       <use style="stroke:#000000;stroke-width:0.8;" x="63.932812" xlink:href="#m40d3034c4c" y="106.283988"/>
      </g>
     </g>
     <g id="text_13">
      <!-- 0.00025 -->
      <g transform="translate(15.579687 110.083207)scale(0.1 -0.1)">
       <use xlink:href="#DejaVuSans-48"/>
       <use x="63.623047" xlink:href="#DejaVuSans-46"/>
       <use x="95.410156" xlink:href="#DejaVuSans-48"/>
       <use x="159.033203" xlink:href="#DejaVuSans-48"/>
       <use x="222.65625" xlink:href="#DejaVuSans-48"/>
       <use x="286.279297" xlink:href="#DejaVuSans-50"/>
       <use x="349.902344" xlink:href="#DejaVuSans-53"/>
      </g>
     </g>
    </g>
    <g id="ytick_7">
     <g id="line2d_27">
      <path clip-path="url(#pd99098e7d3)" d="M 63.932812 81.565888 
L 398.732813 81.565888 
" style="fill:none;stroke:#b0b0b0;stroke-linecap:square;stroke-width:0.8;"/>
     </g>
     <g id="line2d_28">
      <g>
       <use style="stroke:#000000;stroke-width:0.8;" x="63.932812" xlink:href="#m40d3034c4c" y="81.565888"/>
      </g>
     </g>
     <g id="text_14">
      <!-- 0.00050 -->
      <g transform="translate(15.579687 85.365107)scale(0.1 -0.1)">
       <use xlink:href="#DejaVuSans-48"/>
       <use x="63.623047" xlink:href="#DejaVuSans-46"/>
       <use x="95.410156" xlink:href="#DejaVuSans-48"/>
       <use x="159.033203" xlink:href="#DejaVuSans-48"/>
       <use x="222.65625" xlink:href="#DejaVuSans-48"/>
       <use x="286.279297" xlink:href="#DejaVuSans-53"/>
       <use x="349.902344" xlink:href="#DejaVuSans-48"/>
      </g>
     </g>
    </g>
    <g id="ytick_8">
     <g id="line2d_29">
      <path clip-path="url(#pd99098e7d3)" d="M 63.932812 56.847788 
L 398.732813 56.847788 
" style="fill:none;stroke:#b0b0b0;stroke-linecap:square;stroke-width:0.8;"/>
     </g>
     <g id="line2d_30">
      <g>
       <use style="stroke:#000000;stroke-width:0.8;" x="63.932812" xlink:href="#m40d3034c4c" y="56.847788"/>
      </g>
     </g>
     <g id="text_15">
      <!-- 0.00075 -->
      <g transform="translate(15.579687 60.647006)scale(0.1 -0.1)">
       <use xlink:href="#DejaVuSans-48"/>
       <use x="63.623047" xlink:href="#DejaVuSans-46"/>
       <use x="95.410156" xlink:href="#DejaVuSans-48"/>
       <use x="159.033203" xlink:href="#DejaVuSans-48"/>
       <use x="222.65625" xlink:href="#DejaVuSans-48"/>
       <use x="286.279297" xlink:href="#DejaVuSans-55"/>
       <use x="349.902344" xlink:href="#DejaVuSans-53"/>
      </g>
     </g>
    </g>
    <g id="ytick_9">
     <g id="line2d_31">
      <path clip-path="url(#pd99098e7d3)" d="M 63.932812 32.129687 
L 398.732813 32.129687 
" style="fill:none;stroke:#b0b0b0;stroke-linecap:square;stroke-width:0.8;"/>
     </g>
     <g id="line2d_32">
      <g>
       <use style="stroke:#000000;stroke-width:0.8;" x="63.932812" xlink:href="#m40d3034c4c" y="32.129687"/>
      </g>
     </g>
     <g id="text_16">
      <!-- 0.00100 -->
      <g transform="translate(15.579687 35.928906)scale(0.1 -0.1)">
       <use xlink:href="#DejaVuSans-48"/>
       <use x="63.623047" xlink:href="#DejaVuSans-46"/>
       <use x="95.410156" xlink:href="#DejaVuSans-48"/>
       <use x="159.033203" xlink:href="#DejaVuSans-48"/>
       <use x="222.65625" xlink:href="#DejaVuSans-49"/>
       <use x="286.279297" xlink:href="#DejaVuSans-48"/>
       <use x="349.902344" xlink:href="#DejaVuSans-48"/>
      </g>
     </g>
    </g>
   </g>
   <g id="line2d_33">
    <path clip-path="url(#pd99098e7d3)" d="M 79.150994 229.874489 
L 79.455663 228.89554 
L 79.760331 225.977968 
L 80.064999 221.179769 
L 80.674336 206.360014 
L 81.283672 185.613584 
L 82.502346 133.269446 
L 83.721019 80.414352 
L 84.635024 50.431736 
L 85.24436 38.147452 
L 85.549029 34.7242 
L 85.853697 33.212407 
L 86.158365 33.638745 
L 86.463034 35.991179 
L 86.767702 40.219233 
L 87.377039 53.915368 
L 87.986375 73.614094 
L 88.90038 110.85462 
L 90.72839 187.887499 
L 91.337727 206.860984 
L 91.947063 219.745493 
L 92.251731 223.578242 
L 92.5564 225.566263 
L 92.861068 225.676803 
L 93.165736 223.914668 
L 93.470405 220.322001 
L 94.079741 207.993884 
L 94.689078 189.721401 
L 95.603083 154.526873 
L 97.431093 80.123607 
L 98.040429 61.323578 
L 98.649766 48.192191 
L 98.954434 44.07698 
L 99.259102 41.70346 
L 99.563771 41.108784 
L 99.868439 42.294661 
L 100.173107 45.226566 
L 100.782444 56.021425 
L 101.391781 72.561075 
L 102.305785 105.038953 
L 104.438464 184.791959 
L 105.0478 200.493206 
L 105.657137 210.508714 
L 105.961805 213.145529 
L 106.266473 214.137994 
L 106.571142 213.479656 
L 106.87581 211.197219 
L 107.180478 207.349512 
L 107.789815 195.345648 
L 108.399152 178.514317 
L 109.617825 136.257574 
L 110.836498 93.990326 
L 111.750503 70.192557 
L 112.35984 60.44116 
L 112.664508 57.689496 
L 112.969176 56.416181 
L 113.273844 56.630511 
L 113.578513 58.311889 
L 113.883181 61.410534 
L 114.492518 71.523072 
L 115.101854 86.049823 
L 116.320527 123.133245 
L 117.843869 168.833018 
L 118.453206 182.288057 
L 119.062542 191.367342 
L 119.367211 194.064285 
L 119.671879 195.475955 
L 119.976547 195.59256 
L 120.281215 194.430567 
L 120.585884 192.031992 
L 121.19522 183.812849 
L 121.804557 171.723605 
L 122.718562 148.735668 
L 124.546572 101.392767 
L 125.155908 89.7602 
L 125.765245 81.771472 
L 126.069913 79.312739 
L 126.374582 77.924745 
L 126.67925 77.614902 
L 126.983918 78.368584 
L 127.288586 80.149771 
L 127.897923 86.551061 
L 128.50726 96.156321 
L 129.421265 114.573663 
L 131.249274 152.632944 
L 131.858611 162.008086 
L 132.467948 168.491263 
L 132.772616 170.521011 
L 133.077284 171.710234 
L 133.381953 172.056811 
L 133.686621 171.576284 
L 133.991289 170.30085 
L 134.600626 165.57144 
L 135.209962 158.413518 
L 136.428636 139.772381 
L 137.647309 120.867681 
L 138.561314 110.099475 
L 139.17065 105.515707 
L 139.475319 104.104517 
L 139.779987 103.294359 
L 140.084655 103.07888 
L 140.389324 103.439003 
L 140.693992 104.343719 
L 141.303328 107.609788 
L 141.912665 112.436586 
L 143.131338 124.556856 
L 144.350012 136.147927 
L 144.959348 140.540379 
L 145.568685 143.590522 
L 146.178021 145.180079 
L 146.48269 145.432249 
L 146.787358 145.343441 
L 147.092026 144.939351 
L 147.701363 143.321273 
L 148.615368 139.504467 
L 150.138709 132.540801 
L 150.748046 130.499549 
L 151.357383 129.197904 
L 151.662051 128.847812 
L 151.966719 128.696006 
L 152.271387 128.73202 
L 152.576056 128.938877 
L 153.185392 129.768433 
L 155.31807 133.532057 
L 155.622739 133.712003 
L 155.927407 133.71593 
L 156.232075 133.526952 
L 156.536744 133.134771 
L 157.14608 131.735245 
L 157.755417 129.579893 
L 158.669422 125.345282 
L 159.888095 119.469463 
L 160.497432 117.281489 
L 161.106768 116.084665 
L 161.411437 115.952324 
L 161.716105 116.168576 
L 162.020773 116.752137 
L 162.325441 117.712956 
L 162.934778 120.758646 
L 163.544115 125.191672 
L 164.45812 133.813655 
L 166.286129 152.179665 
L 166.895466 156.514268 
L 167.504803 159.048688 
L 167.809471 159.513643 
L 168.114139 159.396002 
L 168.418808 158.674632 
L 168.723476 157.341221 
L 169.332813 152.873247 
L 169.942149 146.198979 
L 170.856154 133.021765 
L 172.988832 99.987799 
L 173.598169 93.652671 
L 174.207505 90.033361 
L 174.512174 89.395661 
L 174.816842 89.591624 
L 175.12151 90.639676 
L 175.426179 92.5407 
L 176.035515 98.814554 
L 176.644852 108.059568 
L 177.558857 126.07082 
L 179.691535 170.465569 
L 180.300871 178.953519 
L 180.910208 183.898951 
L 181.214876 184.858739 
L 181.519545 184.74985 
L 181.824213 183.553652 
L 182.128881 181.273642 
L 182.738218 173.588969 
L 183.347555 162.167819 
L 184.261559 139.853499 
L 186.394238 84.651631 
L 187.003574 73.932006 
L 187.612911 67.474304 
L 187.917579 66.062439 
L 188.222247 65.9324 
L 188.526916 67.105476 
L 188.831584 69.576705 
L 189.440921 78.261072 
L 190.050257 91.42327 
L 190.964262 117.411283 
L 193.09694 182.557653 
L 193.706277 195.508106 
L 194.315613 203.599351 
L 194.620282 205.567861 
L 194.92495 206.06849 
L 195.229618 205.075292 
L 195.534287 202.592058 
L 196.143623 193.320941 
L 196.75296 178.87839 
L 197.666965 149.924258 
L 199.799643 75.984975 
L 200.40898 60.887505 
L 201.018316 51.113283 
L 201.322984 48.513612 
L 201.627653 47.535747 
L 201.932321 48.212532 
L 202.236989 50.543768 
L 202.541658 54.495864 
L 203.150994 66.965054 
L 203.760331 84.717944 
L 204.674336 118.226254 
L 206.502346 187.739304 
L 207.111682 204.816906 
L 207.721019 216.246587 
L 208.025687 219.51742 
L 208.330355 221.047662 
L 208.635024 220.796641 
L 208.939692 218.759148 
L 209.24436 214.965706 
L 209.853697 202.410433 
L 210.463034 184.058439 
L 211.377039 148.831486 
L 213.205048 74.228233 
L 213.814385 55.418307 
L 214.423722 42.439116 
L 214.72839 38.493642 
L 215.033058 36.369464 
L 215.337727 36.115883 
L 215.642395 37.744845 
L 215.947063 41.230644 
L 216.5564 53.484778 
L 217.165736 71.95233 
L 218.079741 108.070298 
L 220.212419 196.998288 
L 220.821756 214.456116 
L 221.431093 225.39365 
L 221.735761 228.115793 
L 222.040429 228.917584 
L 222.345098 227.77962 
L 222.649766 224.721245 
L 223.259102 213.111681 
L 223.868439 194.987071 
L 224.782444 158.804886 
L 226.915122 67.444647 
L 227.524459 48.914853 
L 228.133795 36.848121 
L 228.438464 33.559992 
L 228.743132 32.201761 
L 229.0478 32.800391 
L 229.352469 35.343788 
L 229.657137 39.780973 
L 230.266473 53.945763 
L 230.87581 74.168366 
L 232.094483 126.00921 
L 233.617825 190.692927 
L 234.227161 209.906352 
L 234.836498 222.849411 
L 235.141166 226.634191 
L 235.445835 228.519594 
L 235.750503 228.471589 
L 236.055171 226.494821 
L 236.35984 222.632432 
L 236.969176 209.609208 
L 237.578513 190.463005 
L 238.492518 153.736355 
L 240.320527 76.3752 
L 240.929864 56.918147 
L 241.539201 43.416446 
L 241.843869 39.240186 
L 242.148537 36.894408 
L 242.453206 36.418348 
L 242.757874 37.814575 
L 243.062542 41.048052 
L 243.671879 52.705439 
L 244.281215 70.413206 
L 245.19522 105.049733 
L 247.02323 179.624256 
L 247.632567 198.846457 
L 248.241903 212.536999 
L 248.546572 216.96955 
L 248.85124 219.677451 
L 249.155908 220.616925 
L 249.460577 219.779609 
L 249.765245 217.192703 
L 250.069913 212.918181 
L 250.67925 199.718811 
L 251.288586 181.301283 
L 252.50726 135.161321 
L 253.725933 89.042674 
L 254.639938 63.118299 
L 255.249274 52.556454 
L 255.553943 49.616229 
L 255.858611 48.308093 
L 256.163279 48.644693 
L 256.467948 50.605698 
L 256.772616 54.13847 
L 257.381953 65.555781 
L 257.991289 81.894695 
L 259.209962 123.582849 
L 260.733304 175.049617 
L 261.342641 190.219829 
L 261.951977 200.440105 
L 262.256645 203.457285 
L 262.561314 205.009939 
L 262.865982 205.083138 
L 263.17065 203.691842 
L 263.475319 200.880216 
L 264.084655 191.310785 
L 264.693992 177.252323 
L 265.607997 150.468947 
L 267.436007 94.969622 
L 268.045343 81.237958 
L 268.65468 71.77446 
L 268.959348 68.854864 
L 269.264016 67.206155 
L 269.568685 66.842836 
L 269.873353 67.753306 
L 270.178021 69.900472 
L 270.787358 77.636243 
L 271.396695 89.297601 
L 272.310699 111.812727 
L 274.138709 159.019067 
L 274.748046 170.84818 
L 275.357383 179.130648 
L 275.662051 181.76495 
L 275.966719 183.342831 
L 276.271387 183.85305 
L 276.576056 183.306266 
L 276.880724 181.734395 
L 277.490061 175.743114 
L 278.099397 166.511313 
L 279.013402 148.529374 
L 280.841412 110.705424 
L 281.450749 101.211099 
L 282.060085 94.526149 
L 282.364754 92.370253 
L 282.669422 91.041706 
L 282.97409 90.545339 
L 283.278758 90.868744 
L 283.583427 91.982749 
L 284.192763 96.388829 
L 284.8021 103.242374 
L 285.716105 116.563286 
L 287.544115 144.148563 
L 288.153451 150.920587 
L 288.762788 155.613938 
L 289.067456 157.100617 
L 289.372125 157.997724 
L 289.676793 158.309652 
L 289.981461 158.053496 
L 290.286129 157.258183 
L 290.895466 154.218682 
L 291.504803 149.615375 
L 292.723476 137.876493 
L 293.942149 126.513843 
L 294.551486 122.166531 
L 295.160822 119.116568 
L 295.770159 117.485982 
L 296.074827 117.199721 
L 296.379496 117.246625 
L 296.684164 117.602032 
L 297.2935 119.106461 
L 297.902837 121.399193 
L 300.035515 130.409031 
L 300.644852 131.987931 
L 301.254188 132.79965 
L 301.558857 132.913374 
L 301.863525 132.84421 
L 302.168193 132.609315 
L 302.77753 131.739231 
L 304.60554 128.314396 
L 305.214876 127.845588 
L 305.519545 127.871593 
L 305.824213 128.095577 
L 306.128881 128.527659 
L 306.738218 130.020892 
L 307.347555 132.286655 
L 308.261559 136.710633 
L 309.480233 142.855969 
L 310.089569 145.170495 
L 310.698906 146.477639 
L 311.003574 146.656346 
L 311.308242 146.479211 
L 311.612911 145.926552 
L 311.917579 144.98753 
L 312.526916 141.954932 
L 313.136252 137.490518 
L 314.050257 128.734017 
L 315.878267 109.828695 
L 316.487604 105.268096 
L 317.09694 102.507793 
L 317.401609 101.935094 
L 317.706277 101.951253 
L 318.010945 102.579513 
L 318.315613 103.830119 
L 318.92495 108.171142 
L 319.534287 114.780093 
L 320.448292 127.993548 
L 322.58097 161.726768 
L 323.190306 168.372583 
L 323.799643 172.316942 
L 324.104311 173.115064 
L 324.40898 173.074026 
L 324.713648 172.172237 
L 325.018316 170.405843 
L 325.627653 164.355154 
L 326.236989 155.254987 
L 327.150994 137.283675 
L 329.283672 92.129245 
L 329.893009 83.258111 
L 330.502346 77.899011 
L 330.807014 76.730531 
L 331.111682 76.634877 
L 331.416351 77.634637 
L 331.721019 79.73012 
L 332.330355 87.097017 
L 332.939692 98.290537 
L 333.853697 120.476067 
L 335.986375 176.450619 
L 336.595712 187.612288 
L 337.205048 194.560439 
L 337.509717 196.224308 
L 337.814385 196.604455 
L 338.119053 195.674638 
L 338.423722 193.43509 
L 339.033058 185.160786 
L 339.642395 172.30984 
L 340.5564 146.54698 
L 342.689078 80.656549 
L 343.298414 67.219829 
L 343.907751 58.575385 
L 344.212419 56.318086 
L 344.517088 55.527766 
L 344.821756 56.236194 
L 345.126424 58.445299 
L 345.431093 62.126478 
L 346.040429 73.641497 
L 346.649766 89.971524 
L 347.563771 120.747066 
L 349.391781 184.516239 
L 350.001117 200.128149 
L 350.610454 210.502193 
L 350.915122 213.419781 
L 351.21979 214.719325 
L 351.524459 214.361908 
L 351.829127 212.341601 
L 352.133795 208.68565 
L 352.743132 196.741361 
L 353.352469 179.388982 
L 354.266473 146.178825 
L 356.094483 76.038984 
L 356.70382 58.434448 
L 357.313156 46.374272 
L 357.617825 42.764181 
L 357.922493 40.887288 
L 358.227161 40.791048 
L 358.53183 42.487448 
L 358.836498 45.952556 
L 359.445835 57.9161 
L 360.055171 75.800875 
L 360.969176 110.639382 
L 363.101854 196.058291 
L 363.711191 212.707495 
L 364.320527 223.01919 
L 364.625196 225.50534 
L 364.929864 226.124731 
L 365.234532 224.858603 
L 365.539201 221.725373 
L 366.148537 210.118256 
L 366.757874 192.178012 
L 367.671879 156.537583 
L 369.804557 66.977672 
L 370.413894 48.940172 
L 371.02323 37.312174 
L 371.327898 34.219915 
L 371.632567 33.041035 
L 371.937235 33.802275 
L 372.241903 36.491656 
L 372.546572 41.058753 
L 373.155908 55.437009 
L 373.765245 75.816048 
L 374.983918 127.819446 
L 376.50726 192.43035 
L 377.116596 211.5131 
L 377.725933 224.255399 
L 378.030601 227.911108 
L 378.33527 229.647305 
L 378.639938 229.429642 
L 378.944606 227.262812 
L 379.249274 223.190415 
L 379.858611 209.691672 
L 380.467948 190.008148 
L 381.381953 152.412874 
L 383.209962 73.549266 
L 383.514631 63.004622 
L 383.514631 63.004622 
" style="fill:none;stroke:#000000;stroke-linecap:square;stroke-width:1.5;"/>
   </g>
   <g id="line2d_34">
    <path clip-path="url(#pd99098e7d3)" d="M 79.150994 131.002088 
L 79.455663 130.913258 
L 79.760331 130.650237 
L 80.369668 129.649918 
L 81.283672 127.307125 
L 82.502346 124.038664 
L 83.111682 123.046197 
L 83.416351 122.837932 
L 83.721019 122.860195 
L 84.025687 123.134691 
L 84.330355 123.676288 
L 84.939692 125.582203 
L 85.549029 128.539065 
L 86.463034 134.536062 
L 88.291043 147.664525 
L 88.90038 150.699015 
L 89.205048 151.710689 
L 89.509717 152.324153 
L 89.814385 152.502842 
L 90.119053 152.219103 
L 90.423722 151.455284 
L 90.72839 150.204434 
L 91.337727 146.27098 
L 91.947063 140.593739 
L 92.861068 129.631716 
L 94.689078 106.273362 
L 95.298414 100.612815 
L 95.907751 97.091534 
L 96.212419 96.283624 
L 96.517088 96.167649 
L 96.821756 96.769119 
L 97.126424 98.098701 
L 97.735761 102.906853 
L 98.345098 110.363494 
L 99.259102 125.419485 
L 101.391781 164.412447 
L 102.001117 172.317853 
L 102.610454 177.233404 
L 102.915122 178.386299 
L 103.21979 178.60381 
L 103.524459 177.859756 
L 103.829127 176.147642 
L 104.438464 169.893829 
L 105.0478 160.191283 
L 105.961805 140.672677 
L 108.094483 90.400966 
L 108.70382 80.153947 
L 109.313156 73.646824 
L 109.617825 72.016248 
L 109.922493 71.544499 
L 110.227161 72.260918 
L 110.53183 74.170926 
L 110.836498 77.25543 
L 111.445835 86.750214 
L 112.055171 100.117702 
L 113.273844 134.340616 
L 114.797186 177.173139 
L 115.406523 189.779561 
L 116.015859 198.011705 
L 116.320527 200.227851 
L 116.625196 201.087096 
L 116.929864 200.554694 
L 117.234532 198.623756 
L 117.539201 195.315805 
L 118.148537 184.79527 
L 118.757874 169.713484 
L 119.671879 141.048678 
L 121.499889 80.956696 
L 122.109225 66.057052 
L 122.718562 56.038203 
L 123.02323 53.157933 
L 123.327898 51.802561 
L 123.632567 52.013966 
L 123.937235 53.802785 
L 124.241903 57.147888 
L 124.85124 68.265181 
L 125.460577 84.583207 
L 126.374582 116.055123 
L 128.202591 183.214274 
L 128.811928 200.256528 
L 129.421265 212.046537 
L 129.725933 215.634955 
L 130.030601 217.564518 
L 130.33527 217.785039 
L 130.639938 216.280173 
L 130.944606 213.0682 
L 131.553943 201.767778 
L 132.163279 184.699141 
L 133.077284 151.205752 
L 135.209962 68.213778 
L 135.819299 51.835436 
L 136.428636 41.566024 
L 136.733304 39.017888 
L 137.037972 38.284707 
L 137.342641 39.389676 
L 137.647309 42.319488 
L 138.256645 53.417183 
L 138.865982 70.757492 
L 139.779987 105.457431 
L 141.912665 193.53607 
L 142.522002 211.477979 
L 143.131338 223.166693 
L 143.436007 226.342403 
L 143.740675 227.635629 
L 144.045343 227.015361 
L 144.350012 224.488657 
L 144.65468 220.100979 
L 145.264016 206.109268 
L 145.873353 186.116936 
L 147.092026 134.728728 
L 148.615368 70.332247 
L 149.224704 51.146279 
L 149.834041 38.215649 
L 150.138709 34.442717 
L 150.443378 32.579522 
L 150.748046 32.664884 
L 151.052714 34.698811 
L 151.357383 38.642416 
L 151.966719 51.913496 
L 152.576056 71.435411 
L 153.490061 108.96183 
L 155.31807 188.362771 
L 155.927407 208.4112 
L 156.536744 222.338095 
L 156.841412 226.642445 
L 157.14608 229.049732 
L 157.450749 229.513709 
L 157.755417 228.026987 
L 158.060085 224.621078 
L 158.669422 212.367816 
L 159.278758 193.740696 
L 160.192763 157.217035 
L 162.325441 67.292103 
L 162.934778 49.578296 
L 163.544115 38.35638 
L 163.848783 35.469045 
L 164.153451 34.479706 
L 164.45812 35.40278 
L 164.762788 38.214524 
L 165.067456 42.853188 
L 165.676793 57.186497 
L 166.286129 77.227804 
L 167.504803 127.641821 
L 168.723476 178.326349 
L 169.637481 206.97256 
L 170.246817 218.690384 
L 170.551486 221.960175 
L 170.856154 223.416393 
L 171.160822 223.038597 
L 171.465491 220.843109 
L 171.770159 216.882446 
L 172.379496 204.048804 
L 172.988832 185.617922 
L 174.207505 138.322308 
L 175.730847 79.414504 
L 176.340184 61.909954 
L 176.94952 50.050554 
L 177.254188 46.526657 
L 177.558857 44.696325 
L 177.863525 44.584212 
L 178.168193 46.180588 
L 178.472862 49.441634 
L 179.082198 60.619452 
L 179.691535 77.144377 
L 180.60554 108.84976 
L 182.43355 175.377879 
L 183.042886 192.061792 
L 183.652223 203.666795 
L 183.956891 207.289342 
L 184.261559 209.370687 
L 184.566228 209.883904 
L 184.870896 208.833719 
L 185.175564 206.256066 
L 185.784901 196.811639 
L 186.394238 182.409693 
L 187.308242 154.290236 
L 189.136252 94.203745 
L 189.745589 78.831387 
L 190.354926 67.903965 
L 190.659594 64.359229 
L 190.964262 62.175597 
L 191.26893 61.379618 
L 191.573599 61.969646 
L 191.878267 63.916223 
L 192.182935 67.163009 
L 192.792272 77.206834 
L 193.706277 99.272833 
L 196.448292 173.742316 
L 197.057628 183.557304 
L 197.666965 188.951539 
L 197.971633 189.887603 
L 198.276301 189.642932 
L 198.58097 188.242346 
L 198.885638 185.733686 
L 199.494975 177.689942 
L 200.104311 166.292281 
L 201.322984 137.672053 
L 202.541658 109.246935 
L 203.455663 93.351181 
L 204.064999 86.827479 
L 204.369668 84.956232 
L 204.674336 84.041201 
L 204.979004 84.079272 
L 205.283672 85.04785 
L 205.588341 86.905734 
L 206.197677 93.039475 
L 206.807014 101.834742 
L 208.025687 123.975297 
L 209.24436 145.865937 
L 210.158365 158.031241 
L 210.767702 163.013766 
L 211.07237 164.451833 
L 211.377039 165.172902 
L 211.681707 165.185117 
L 211.986375 164.511424 
L 212.291043 163.188633 
L 212.90038 158.804905 
L 213.509717 152.554412 
L 215.033058 133.115635 
L 215.947063 122.269593 
L 216.5564 116.594409 
L 217.165736 112.607236 
L 217.775073 110.490454 
L 218.079741 110.140766 
L 218.38441 110.245428 
L 218.689078 110.778427 
L 219.298414 112.981782 
L 219.907751 116.386528 
L 221.431093 127.189129 
L 222.345098 133.011787 
L 222.954434 135.892291 
L 223.563771 137.755211 
L 223.868439 138.287513 
L 224.173107 138.56052 
L 224.477776 138.588729 
L 224.782444 138.393404 
L 225.391781 137.445685 
L 226.305785 135.162076 
L 227.524459 132.132055 
L 228.133795 131.239463 
L 228.438464 131.03167 
L 228.743132 130.998442 
L 229.0478 131.14288 
L 229.352469 131.461051 
L 229.961805 132.568428 
L 230.87581 135.057084 
L 232.094483 138.47335 
L 232.70382 139.510701 
L 233.008488 139.732412 
L 233.313156 139.717035 
L 233.617825 139.442441 
L 233.922493 138.893367 
L 234.53183 136.949277 
L 235.141166 133.922414 
L 236.055171 127.762354 
L 237.883181 114.152484 
L 238.492518 110.941166 
L 239.101854 109.149451 
L 239.406523 108.895255 
L 239.711191 109.110661 
L 240.015859 109.814869 
L 240.320527 111.016244 
L 240.929864 114.886324 
L 241.539201 120.554425 
L 242.453206 131.614797 
L 244.281215 155.541807 
L 244.890552 161.466349 
L 245.499889 165.261833 
L 245.804557 166.204519 
L 246.109225 166.450283 
L 246.413894 165.971048 
L 246.718562 164.753623 
L 247.327898 160.130027 
L 247.937235 152.791556 
L 248.85124 137.761575 
L 251.288586 93.643937 
L 251.897923 86.792953 
L 252.202591 84.564403 
L 252.50726 83.22636 
L 252.811928 82.827057 
L 253.116596 83.396269 
L 253.421265 84.944079 
L 253.725933 87.460333 
L 254.33527 95.255568 
L 254.944606 106.299095 
L 255.858611 127.193341 
L 257.686621 170.785721 
L 258.295957 181.434381 
L 258.905294 188.388682 
L 259.209962 190.249589 
L 259.514631 190.950325 
L 259.819299 190.4572 
L 260.123967 188.760329 
L 260.428636 185.874469 
L 261.037972 176.717418 
L 261.647309 163.585088 
L 262.561314 138.576172 
L 264.389324 85.967769 
L 264.99866 72.912087 
L 265.607997 64.16579 
L 265.912665 61.67996 
L 266.217333 60.549644 
L 266.522002 60.814792 
L 266.82667 62.487519 
L 267.131338 65.551483 
L 267.740675 75.646024 
L 268.350012 90.413106 
L 269.264016 118.871357 
L 271.092026 179.603829 
L 271.701363 194.985396 
L 272.310699 205.57021 
L 272.615368 208.751887 
L 272.920036 210.413295 
L 273.224704 210.506492 
L 273.529373 209.015226 
L 273.834041 205.954634 
L 274.443378 195.344628 
L 275.052714 179.41816 
L 275.966719 148.248066 
L 278.099397 71.189971 
L 278.708734 56.063246 
L 279.31807 46.673727 
L 279.622739 44.410161 
L 279.927407 43.853953 
L 280.232075 45.027937 
L 280.536744 47.920342 
L 281.14608 58.640831 
L 281.755417 75.246365 
L 282.669422 108.343414 
L 284.8021 192.038521 
L 285.411437 208.983317 
L 286.020773 219.916964 
L 286.325441 222.818329 
L 286.63011 223.909403 
L 286.934778 223.160329 
L 287.239446 220.577559 
L 287.544115 216.204192 
L 288.153451 202.438096 
L 288.762788 182.898921 
L 289.981461 132.881585 
L 291.504803 70.442086 
L 292.114139 51.939166 
L 292.723476 39.576334 
L 293.028144 36.037023 
L 293.332812 34.371821 
L 293.637481 34.619038 
L 293.942149 36.778806 
L 294.246817 40.813073 
L 294.856154 54.165702 
L 295.465491 73.650167 
L 296.379496 110.944703 
L 298.207505 189.518731 
L 298.816842 209.245326 
L 299.426179 222.842959 
L 299.730847 226.98099 
L 300.035515 229.22095 
L 300.340184 229.516651 
L 300.644852 227.860609 
L 300.94952 224.284449 
L 301.558857 211.688247 
L 302.168193 192.718043 
L 303.082198 155.697598 
L 305.214876 64.989872 
L 305.824213 47.251863 
L 306.43355 36.136449 
L 306.738218 33.356508 
L 307.042886 32.512357 
L 307.347555 33.618839 
L 307.652223 36.651844 
L 308.261559 48.210142 
L 308.870896 66.254387 
L 309.784901 102.208908 
L 311.917579 192.566419 
L 312.526916 210.818649 
L 313.136252 222.70047 
L 313.440921 225.94752 
L 313.745589 227.307084 
L 314.050257 226.757489 
L 314.354926 224.315258 
L 314.659594 220.034593 
L 315.26893 206.35592 
L 315.878267 186.846441 
L 317.09694 136.979046 
L 318.620282 75.056777 
L 319.229618 56.732385 
L 319.838955 44.403555 
L 320.143623 40.795476 
L 320.448292 38.987966 
L 320.75296 39.008347 
L 321.057628 40.847196 
L 321.362297 44.458992 
L 321.971633 56.645078 
L 322.58097 74.535553 
L 323.494975 108.756225 
L 325.322984 180.424955 
L 325.932321 198.350967 
L 326.541658 210.760072 
L 326.846326 214.593188 
L 327.150994 216.747694 
L 327.455663 217.192263 
L 327.760331 215.930707 
L 328.064999 213.000079 
L 328.674336 202.444724 
L 329.283672 186.45214 
L 330.197677 155.292751 
L 332.025687 88.708878 
L 332.635024 71.675542 
L 333.24436 59.59471 
L 333.549029 55.698658 
L 333.853697 53.327297 
L 334.158365 52.513346 
L 334.463034 53.257931 
L 334.767702 55.531124 
L 335.07237 59.272649 
L 335.681707 70.777508 
L 336.595712 96.008854 
L 339.337727 181.505451 
L 339.947063 192.828367 
L 340.5564 199.039391 
L 340.861068 200.097386 
L 341.165736 199.776298 
L 341.470405 198.10032 
L 341.775073 195.120546 
L 342.38441 185.579961 
L 342.993746 172.037297 
L 344.212419 137.847452 
L 345.431093 103.585376 
L 346.345098 84.235415 
L 346.954434 76.217234 
L 347.259102 73.894854 
L 347.563771 72.741499 
L 347.868439 72.760525 
L 348.173107 73.931499 
L 348.477776 76.211024 
L 349.087112 83.815282 
L 349.696449 94.825031 
L 350.915122 122.926472 
L 352.133795 151.268912 
L 353.0478 167.388691 
L 353.657137 174.173129 
L 353.961805 176.200028 
L 354.266473 177.283295 
L 354.571142 177.422656 
L 354.87581 176.637134 
L 355.180478 174.964364 
L 355.789815 169.193147 
L 356.399152 160.728317 
L 357.617825 139.06613 
L 358.836498 117.325392 
L 359.750503 105.04776 
L 360.35984 99.899339 
L 360.664508 98.356639 
L 360.969176 97.51953 
L 361.273844 97.382096 
L 361.578513 97.924034 
L 361.883181 99.111141 
L 362.492518 103.221746 
L 363.101854 109.213039 
L 364.320527 124.269115 
L 365.539201 138.88854 
L 366.148537 144.554543 
L 366.757874 148.589012 
L 367.367211 150.801658 
L 367.671879 151.21441 
L 367.976547 151.18095 
L 368.281215 150.725832 
L 368.585884 149.882451 
L 369.19522 147.201755 
L 370.109225 141.474602 
L 371.937235 129.420998 
L 372.546572 126.620442 
L 373.155908 124.805881 
L 373.460577 124.285932 
L 373.765245 124.01769 
L 374.069913 123.986992 
L 374.374582 124.172914 
L 374.983918 125.082919 
L 375.897923 127.27 
L 376.811928 129.522319 
L 377.421265 130.586572 
L 377.725933 130.905564 
L 378.030601 131.058854 
L 378.33527 131.036817 
L 378.639938 130.836778 
L 379.249274 129.927078 
L 379.858611 128.445844 
L 381.991289 122.394062 
L 382.295957 121.940116 
L 382.600626 121.701334 
L 382.905294 121.706346 
L 383.209962 121.977733 
L 383.514631 122.53117 
L 383.514631 122.53117 
" style="fill:none;stroke:#0000ff;stroke-linecap:square;stroke-width:1.5;"/>
   </g>
   <g id="patch_3">
    <path d="M 63.932812 239.758125 
L 63.932812 22.318125 
" style="fill:none;stroke:#000000;stroke-linecap:square;stroke-linejoin:miter;stroke-width:0.8;"/>
   </g>
   <g id="patch_4">
    <path d="M 398.732813 239.758125 
L 398.732813 22.318125 
" style="fill:none;stroke:#000000;stroke-linecap:square;stroke-linejoin:miter;stroke-width:0.8;"/>
   </g>
   <g id="patch_5">
    <path d="M 63.932812 239.758125 
L 398.732813 239.758125 
" style="fill:none;stroke:#000000;stroke-linecap:square;stroke-linejoin:miter;stroke-width:0.8;"/>
   </g>
   <g id="patch_6">
    <path d="M 63.932812 22.318125 
L 398.732813 22.318125 
" style="fill:none;stroke:#000000;stroke-linecap:square;stroke-linejoin:miter;stroke-width:0.8;"/>
   </g>
   <g id="text_17">
    <!-- Weak coupling -->
    <g transform="translate(187.475625 16.318125)scale(0.12 -0.12)">
     <defs>
      <path d="M 3.328125 72.90625 
L 13.28125 72.90625 
L 28.609375 11.28125 
L 43.890625 72.90625 
L 54.984375 72.90625 
L 70.3125 11.28125 
L 85.59375 72.90625 
L 95.609375 72.90625 
L 77.296875 0 
L 64.890625 0 
L 49.515625 63.28125 
L 33.984375 0 
L 21.578125 0 
z
" id="DejaVuSans-87"/>
      <path d="M 56.203125 29.59375 
L 56.203125 25.203125 
L 14.890625 25.203125 
Q 15.484375 15.921875 20.484375 11.0625 
Q 25.484375 6.203125 34.421875 6.203125 
Q 39.59375 6.203125 44.453125 7.46875 
Q 49.3125 8.734375 54.109375 11.28125 
L 54.109375 2.78125 
Q 49.265625 0.734375 44.1875 -0.34375 
Q 39.109375 -1.421875 33.890625 -1.421875 
Q 20.796875 -1.421875 13.15625 6.1875 
Q 5.515625 13.8125 5.515625 26.8125 
Q 5.515625 40.234375 12.765625 48.109375 
Q 20.015625 56 32.328125 56 
Q 43.359375 56 49.78125 48.890625 
Q 56.203125 41.796875 56.203125 29.59375 
z
M 47.21875 32.234375 
Q 47.125 39.59375 43.09375 43.984375 
Q 39.0625 48.390625 32.421875 48.390625 
Q 24.90625 48.390625 20.390625 44.140625 
Q 15.875 39.890625 15.1875 32.171875 
z
" id="DejaVuSans-101"/>
      <path d="M 34.28125 27.484375 
Q 23.390625 27.484375 19.1875 25 
Q 14.984375 22.515625 14.984375 16.5 
Q 14.984375 11.71875 18.140625 8.90625 
Q 21.296875 6.109375 26.703125 6.109375 
Q 34.1875 6.109375 38.703125 11.40625 
Q 43.21875 16.703125 43.21875 25.484375 
L 43.21875 27.484375 
z
M 52.203125 31.203125 
L 52.203125 0 
L 43.21875 0 
L 43.21875 8.296875 
Q 40.140625 3.328125 35.546875 0.953125 
Q 30.953125 -1.421875 24.3125 -1.421875 
Q 15.921875 -1.421875 10.953125 3.296875 
Q 6 8.015625 6 15.921875 
Q 6 25.140625 12.171875 29.828125 
Q 18.359375 34.515625 30.609375 34.515625 
L 43.21875 34.515625 
L 43.21875 35.40625 
Q 43.21875 41.609375 39.140625 45 
Q 35.0625 48.390625 27.6875 48.390625 
Q 23 48.390625 18.546875 47.265625 
Q 14.109375 46.140625 10.015625 43.890625 
L 10.015625 52.203125 
Q 14.9375 54.109375 19.578125 55.046875 
Q 24.21875 56 28.609375 56 
Q 40.484375 56 46.34375 49.84375 
Q 52.203125 43.703125 52.203125 31.203125 
z
" id="DejaVuSans-97"/>
      <path d="M 9.078125 75.984375 
L 18.109375 75.984375 
L 18.109375 31.109375 
L 44.921875 54.6875 
L 56.390625 54.6875 
L 27.390625 29.109375 
L 57.625 0 
L 45.90625 0 
L 18.109375 26.703125 
L 18.109375 0 
L 9.078125 0 
z
" id="DejaVuSans-107"/>
      <path id="DejaVuSans-32"/>
      <path d="M 48.78125 52.59375 
L 48.78125 44.1875 
Q 44.96875 46.296875 41.140625 47.34375 
Q 37.3125 48.390625 33.40625 48.390625 
Q 24.65625 48.390625 19.8125 42.84375 
Q 14.984375 37.3125 14.984375 27.296875 
Q 14.984375 17.28125 19.8125 11.734375 
Q 24.65625 6.203125 33.40625 6.203125 
Q 37.3125 6.203125 41.140625 7.25 
Q 44.96875 8.296875 48.78125 10.40625 
L 48.78125 2.09375 
Q 45.015625 0.34375 40.984375 -0.53125 
Q 36.96875 -1.421875 32.421875 -1.421875 
Q 20.0625 -1.421875 12.78125 6.34375 
Q 5.515625 14.109375 5.515625 27.296875 
Q 5.515625 40.671875 12.859375 48.328125 
Q 20.21875 56 33.015625 56 
Q 37.15625 56 41.109375 55.140625 
Q 45.0625 54.296875 48.78125 52.59375 
z
" id="DejaVuSans-99"/>
      <path d="M 30.609375 48.390625 
Q 23.390625 48.390625 19.1875 42.75 
Q 14.984375 37.109375 14.984375 27.296875 
Q 14.984375 17.484375 19.15625 11.84375 
Q 23.34375 6.203125 30.609375 6.203125 
Q 37.796875 6.203125 41.984375 11.859375 
Q 46.1875 17.53125 46.1875 27.296875 
Q 46.1875 37.015625 41.984375 42.703125 
Q 37.796875 48.390625 30.609375 48.390625 
z
M 30.609375 56 
Q 42.328125 56 49.015625 48.375 
Q 55.71875 40.765625 55.71875 27.296875 
Q 55.71875 13.875 49.015625 6.21875 
Q 42.328125 -1.421875 30.609375 -1.421875 
Q 18.84375 -1.421875 12.171875 6.21875 
Q 5.515625 13.875 5.515625 27.296875 
Q 5.515625 40.765625 12.171875 48.375 
Q 18.84375 56 30.609375 56 
z
" id="DejaVuSans-111"/>
      <path d="M 8.5 21.578125 
L 8.5 54.6875 
L 17.484375 54.6875 
L 17.484375 21.921875 
Q 17.484375 14.15625 20.5 10.265625 
Q 23.53125 6.390625 29.59375 6.390625 
Q 36.859375 6.390625 41.078125 11.03125 
Q 45.3125 15.671875 45.3125 23.6875 
L 45.3125 54.6875 
L 54.296875 54.6875 
L 54.296875 0 
L 45.3125 0 
L 45.3125 8.40625 
Q 42.046875 3.421875 37.71875 1 
Q 33.40625 -1.421875 27.6875 -1.421875 
Q 18.265625 -1.421875 13.375 4.4375 
Q 8.5 10.296875 8.5 21.578125 
z
M 31.109375 56 
z
" id="DejaVuSans-117"/>
      <path d="M 18.109375 8.203125 
L 18.109375 -20.796875 
L 9.078125 -20.796875 
L 9.078125 54.6875 
L 18.109375 54.6875 
L 18.109375 46.390625 
Q 20.953125 51.265625 25.265625 53.625 
Q 29.59375 56 35.59375 56 
Q 45.5625 56 51.78125 48.09375 
Q 58.015625 40.1875 58.015625 27.296875 
Q 58.015625 14.40625 51.78125 6.484375 
Q 45.5625 -1.421875 35.59375 -1.421875 
Q 29.59375 -1.421875 25.265625 0.953125 
Q 20.953125 3.328125 18.109375 8.203125 
z
M 48.6875 27.296875 
Q 48.6875 37.203125 44.609375 42.84375 
Q 40.53125 48.484375 33.40625 48.484375 
Q 26.265625 48.484375 22.1875 42.84375 
Q 18.109375 37.203125 18.109375 27.296875 
Q 18.109375 17.390625 22.1875 11.75 
Q 26.265625 6.109375 33.40625 6.109375 
Q 40.53125 6.109375 44.609375 11.75 
Q 48.6875 17.390625 48.6875 27.296875 
z
" id="DejaVuSans-112"/>
      <path d="M 9.421875 75.984375 
L 18.40625 75.984375 
L 18.40625 0 
L 9.421875 0 
z
" id="DejaVuSans-108"/>
      <path d="M 9.421875 54.6875 
L 18.40625 54.6875 
L 18.40625 0 
L 9.421875 0 
z
M 9.421875 75.984375 
L 18.40625 75.984375 
L 18.40625 64.59375 
L 9.421875 64.59375 
z
" id="DejaVuSans-105"/>
      <path d="M 54.890625 33.015625 
L 54.890625 0 
L 45.90625 0 
L 45.90625 32.71875 
Q 45.90625 40.484375 42.875 44.328125 
Q 39.84375 48.1875 33.796875 48.1875 
Q 26.515625 48.1875 22.3125 43.546875 
Q 18.109375 38.921875 18.109375 30.90625 
L 18.109375 0 
L 9.078125 0 
L 9.078125 54.6875 
L 18.109375 54.6875 
L 18.109375 46.1875 
Q 21.34375 51.125 25.703125 53.5625 
Q 30.078125 56 35.796875 56 
Q 45.21875 56 50.046875 50.171875 
Q 54.890625 44.34375 54.890625 33.015625 
z
" id="DejaVuSans-110"/>
      <path d="M 45.40625 27.984375 
Q 45.40625 37.75 41.375 43.109375 
Q 37.359375 48.484375 30.078125 48.484375 
Q 22.859375 48.484375 18.828125 43.109375 
Q 14.796875 37.75 14.796875 27.984375 
Q 14.796875 18.265625 18.828125 12.890625 
Q 22.859375 7.515625 30.078125 7.515625 
Q 37.359375 7.515625 41.375 12.890625 
Q 45.40625 18.265625 45.40625 27.984375 
z
M 54.390625 6.78125 
Q 54.390625 -7.171875 48.1875 -13.984375 
Q 42 -20.796875 29.203125 -20.796875 
Q 24.46875 -20.796875 20.265625 -20.09375 
Q 16.0625 -19.390625 12.109375 -17.921875 
L 12.109375 -9.1875 
Q 16.0625 -11.328125 19.921875 -12.34375 
Q 23.78125 -13.375 27.78125 -13.375 
Q 36.625 -13.375 41.015625 -8.765625 
Q 45.40625 -4.15625 45.40625 5.171875 
L 45.40625 9.625 
Q 42.625 4.78125 38.28125 2.390625 
Q 33.9375 0 27.875 0 
Q 17.828125 0 11.671875 7.65625 
Q 5.515625 15.328125 5.515625 27.984375 
Q 5.515625 40.671875 11.671875 48.328125 
Q 17.828125 56 27.875 56 
Q 33.9375 56 38.28125 53.609375 
Q 42.625 51.21875 45.40625 46.390625 
L 45.40625 54.6875 
L 54.390625 54.6875 
z
" id="DejaVuSans-103"/>
     </defs>
     <use xlink:href="#DejaVuSans-87"/>
     <use x="93.001953" xlink:href="#DejaVuSans-101"/>
     <use x="154.525391" xlink:href="#DejaVuSans-97"/>
     <use x="215.804688" xlink:href="#DejaVuSans-107"/>
     <use x="273.714844" xlink:href="#DejaVuSans-32"/>
     <use x="305.501953" xlink:href="#DejaVuSans-99"/>
     <use x="360.482422" xlink:href="#DejaVuSans-111"/>
     <use x="421.664062" xlink:href="#DejaVuSans-117"/>
     <use x="485.042969" xlink:href="#DejaVuSans-112"/>
     <use x="548.519531" xlink:href="#DejaVuSans-108"/>
     <use x="576.302734" xlink:href="#DejaVuSans-105"/>
     <use x="604.085938" xlink:href="#DejaVuSans-110"/>
     <use x="667.464844" xlink:href="#DejaVuSans-103"/>
    </g>
   </g>
  </g>
 </g>
 <defs>
  <clipPath id="pd99098e7d3">
   <rect height="217.44" width="334.8" x="63.932812" y="22.318125"/>
  </clipPath>
 </defs>
</svg>
