<?xml version="1.0" encoding="utf-8" standalone="no"?>
<!DOCTYPE svg PUBLIC "-//W3C//DTD SVG 1.1//EN"
  "http://www.w3.org/Graphics/SVG/1.1/DTD/svg11.dtd">
<!-- Created with matplotlib (https://matplotlib.org/) -->
<svg height="263.63625pt" version="1.1" viewBox="0 0 399.570312 263.63625" width="399.570312pt" xmlns="http://www.w3.org/2000/svg" xmlns:xlink="http://www.w3.org/1999/xlink">
 <metadata>
  <rdf:RDF xmlns:cc="http://creativecommons.org/ns#" xmlns:dc="http://purl.org/dc/elements/1.1/" xmlns:rdf="http://www.w3.org/1999/02/22-rdf-syntax-ns#">
   <cc:Work>
    <dc:type rdf:resource="http://purl.org/dc/dcmitype/StillImage"/>
    <dc:date>2021-10-05T17:11:48.492285</dc:date>
    <dc:format>image/svg+xml</dc:format>
    <dc:creator>
     <cc:Agent>
      <dc:title>Matplotlib v3.3.4, https://matplotlib.org/</dc:title>
     </cc:Agent>
    </dc:creator>
   </cc:Work>
  </rdf:RDF>
 </metadata>
 <defs>
  <style type="text/css">*{stroke-linecap:butt;stroke-linejoin:round;}</style>
 </defs>
 <g id="figure_1">
  <g id="patch_1">
   <path d="M 0 263.63625 
L 399.570312 263.63625 
L 399.570312 0 
L 0 0 
z
" style="fill:none;"/>
  </g>
  <g id="axes_1">
   <g id="patch_2">
    <path d="M 57.570313 239.758125 
L 392.370313 239.758125 
L 392.370313 22.318125 
L 57.570313 22.318125 
z
" style="fill:#ffffff;"/>
   </g>
   <g id="matplotlib.axis_1">
    <g id="xtick_1">
     <g id="line2d_1">
      <path clip-path="url(#p1d3b1b9fb4)" d="M 72.788494 239.758125 
L 72.788494 22.318125 
" style="fill:none;stroke:#b0b0b0;stroke-linecap:square;stroke-width:0.8;"/>
     </g>
     <g id="line2d_2">
      <defs>
       <path d="M 0 0 
L 0 3.5 
" id="m76d61704ea" style="stroke:#000000;stroke-width:0.8;"/>
      </defs>
      <g>
       <use style="stroke:#000000;stroke-width:0.8;" x="72.788494" xlink:href="#m76d61704ea" y="239.758125"/>
      </g>
     </g>
     <g id="text_1">
      <!-- 0 -->
      <g transform="translate(69.607244 254.356563)scale(0.1 -0.1)">
       <defs>
        <path d="M 31.78125 66.40625 
Q 24.171875 66.40625 20.328125 58.90625 
Q 16.5 51.421875 16.5 36.375 
Q 16.5 21.390625 20.328125 13.890625 
Q 24.171875 6.390625 31.78125 6.390625 
Q 39.453125 6.390625 43.28125 13.890625 
Q 47.125 21.390625 47.125 36.375 
Q 47.125 51.421875 43.28125 58.90625 
Q 39.453125 66.40625 31.78125 66.40625 
z
M 31.78125 74.21875 
Q 44.046875 74.21875 50.515625 64.515625 
Q 56.984375 54.828125 56.984375 36.375 
Q 56.984375 17.96875 50.515625 8.265625 
Q 44.046875 -1.421875 31.78125 -1.421875 
Q 19.53125 -1.421875 13.0625 8.265625 
Q 6.59375 17.96875 6.59375 36.375 
Q 6.59375 54.828125 13.0625 64.515625 
Q 19.53125 74.21875 31.78125 74.21875 
z
" id="DejaVuSans-48"/>
       </defs>
       <use xlink:href="#DejaVuSans-48"/>
      </g>
     </g>
    </g>
    <g id="xtick_2">
     <g id="line2d_3">
      <path clip-path="url(#p1d3b1b9fb4)" d="M 133.661222 239.758125 
L 133.661222 22.318125 
" style="fill:none;stroke:#b0b0b0;stroke-linecap:square;stroke-width:0.8;"/>
     </g>
     <g id="line2d_4">
      <g>
       <use style="stroke:#000000;stroke-width:0.8;" x="133.661222" xlink:href="#m76d61704ea" y="239.758125"/>
      </g>
     </g>
     <g id="text_2">
      <!-- 10 -->
      <g transform="translate(127.298722 254.356563)scale(0.1 -0.1)">
       <defs>
        <path d="M 12.40625 8.296875 
L 28.515625 8.296875 
L 28.515625 63.921875 
L 10.984375 60.40625 
L 10.984375 69.390625 
L 28.421875 72.90625 
L 38.28125 72.90625 
L 38.28125 8.296875 
L 54.390625 8.296875 
L 54.390625 0 
L 12.40625 0 
z
" id="DejaVuSans-49"/>
       </defs>
       <use xlink:href="#DejaVuSans-49"/>
       <use x="63.623047" xlink:href="#DejaVuSans-48"/>
      </g>
     </g>
    </g>
    <g id="xtick_3">
     <g id="line2d_5">
      <path clip-path="url(#p1d3b1b9fb4)" d="M 194.533949 239.758125 
L 194.533949 22.318125 
" style="fill:none;stroke:#b0b0b0;stroke-linecap:square;stroke-width:0.8;"/>
     </g>
     <g id="line2d_6">
      <g>
       <use style="stroke:#000000;stroke-width:0.8;" x="194.533949" xlink:href="#m76d61704ea" y="239.758125"/>
      </g>
     </g>
     <g id="text_3">
      <!-- 20 -->
      <g transform="translate(188.171449 254.356563)scale(0.1 -0.1)">
       <defs>
        <path d="M 19.1875 8.296875 
L 53.609375 8.296875 
L 53.609375 0 
L 7.328125 0 
L 7.328125 8.296875 
Q 12.9375 14.109375 22.625 23.890625 
Q 32.328125 33.6875 34.8125 36.53125 
Q 39.546875 41.84375 41.421875 45.53125 
Q 43.3125 49.21875 43.3125 52.78125 
Q 43.3125 58.59375 39.234375 62.25 
Q 35.15625 65.921875 28.609375 65.921875 
Q 23.96875 65.921875 18.8125 64.3125 
Q 13.671875 62.703125 7.8125 59.421875 
L 7.8125 69.390625 
Q 13.765625 71.78125 18.9375 73 
Q 24.125 74.21875 28.421875 74.21875 
Q 39.75 74.21875 46.484375 68.546875 
Q 53.21875 62.890625 53.21875 53.421875 
Q 53.21875 48.921875 51.53125 44.890625 
Q 49.859375 40.875 45.40625 35.40625 
Q 44.1875 33.984375 37.640625 27.21875 
Q 31.109375 20.453125 19.1875 8.296875 
z
" id="DejaVuSans-50"/>
       </defs>
       <use xlink:href="#DejaVuSans-50"/>
       <use x="63.623047" xlink:href="#DejaVuSans-48"/>
      </g>
     </g>
    </g>
    <g id="xtick_4">
     <g id="line2d_7">
      <path clip-path="url(#p1d3b1b9fb4)" d="M 255.406676 239.758125 
L 255.406676 22.318125 
" style="fill:none;stroke:#b0b0b0;stroke-linecap:square;stroke-width:0.8;"/>
     </g>
     <g id="line2d_8">
      <g>
       <use style="stroke:#000000;stroke-width:0.8;" x="255.406676" xlink:href="#m76d61704ea" y="239.758125"/>
      </g>
     </g>
     <g id="text_4">
      <!-- 30 -->
      <g transform="translate(249.044176 254.356563)scale(0.1 -0.1)">
       <defs>
        <path d="M 40.578125 39.3125 
Q 47.65625 37.796875 51.625 33 
Q 55.609375 28.21875 55.609375 21.1875 
Q 55.609375 10.40625 48.1875 4.484375 
Q 40.765625 -1.421875 27.09375 -1.421875 
Q 22.515625 -1.421875 17.65625 -0.515625 
Q 12.796875 0.390625 7.625 2.203125 
L 7.625 11.71875 
Q 11.71875 9.328125 16.59375 8.109375 
Q 21.484375 6.890625 26.8125 6.890625 
Q 36.078125 6.890625 40.9375 10.546875 
Q 45.796875 14.203125 45.796875 21.1875 
Q 45.796875 27.640625 41.28125 31.265625 
Q 36.765625 34.90625 28.71875 34.90625 
L 20.21875 34.90625 
L 20.21875 43.015625 
L 29.109375 43.015625 
Q 36.375 43.015625 40.234375 45.921875 
Q 44.09375 48.828125 44.09375 54.296875 
Q 44.09375 59.90625 40.109375 62.90625 
Q 36.140625 65.921875 28.71875 65.921875 
Q 24.65625 65.921875 20.015625 65.03125 
Q 15.375 64.15625 9.8125 62.3125 
L 9.8125 71.09375 
Q 15.4375 72.65625 20.34375 73.4375 
Q 25.25 74.21875 29.59375 74.21875 
Q 40.828125 74.21875 47.359375 69.109375 
Q 53.90625 64.015625 53.90625 55.328125 
Q 53.90625 49.265625 50.4375 45.09375 
Q 46.96875 40.921875 40.578125 39.3125 
z
" id="DejaVuSans-51"/>
       </defs>
       <use xlink:href="#DejaVuSans-51"/>
       <use x="63.623047" xlink:href="#DejaVuSans-48"/>
      </g>
     </g>
    </g>
    <g id="xtick_5">
     <g id="line2d_9">
      <path clip-path="url(#p1d3b1b9fb4)" d="M 316.279403 239.758125 
L 316.279403 22.318125 
" style="fill:none;stroke:#b0b0b0;stroke-linecap:square;stroke-width:0.8;"/>
     </g>
     <g id="line2d_10">
      <g>
       <use style="stroke:#000000;stroke-width:0.8;" x="316.279403" xlink:href="#m76d61704ea" y="239.758125"/>
      </g>
     </g>
     <g id="text_5">
      <!-- 40 -->
      <g transform="translate(309.916903 254.356563)scale(0.1 -0.1)">
       <defs>
        <path d="M 37.796875 64.3125 
L 12.890625 25.390625 
L 37.796875 25.390625 
z
M 35.203125 72.90625 
L 47.609375 72.90625 
L 47.609375 25.390625 
L 58.015625 25.390625 
L 58.015625 17.1875 
L 47.609375 17.1875 
L 47.609375 0 
L 37.796875 0 
L 37.796875 17.1875 
L 4.890625 17.1875 
L 4.890625 26.703125 
z
" id="DejaVuSans-52"/>
       </defs>
       <use xlink:href="#DejaVuSans-52"/>
       <use x="63.623047" xlink:href="#DejaVuSans-48"/>
      </g>
     </g>
    </g>
    <g id="xtick_6">
     <g id="line2d_11">
      <path clip-path="url(#p1d3b1b9fb4)" d="M 377.152131 239.758125 
L 377.152131 22.318125 
" style="fill:none;stroke:#b0b0b0;stroke-linecap:square;stroke-width:0.8;"/>
     </g>
     <g id="line2d_12">
      <g>
       <use style="stroke:#000000;stroke-width:0.8;" x="377.152131" xlink:href="#m76d61704ea" y="239.758125"/>
      </g>
     </g>
     <g id="text_6">
      <!-- 50 -->
      <g transform="translate(370.789631 254.356563)scale(0.1 -0.1)">
       <defs>
        <path d="M 10.796875 72.90625 
L 49.515625 72.90625 
L 49.515625 64.59375 
L 19.828125 64.59375 
L 19.828125 46.734375 
Q 21.96875 47.46875 24.109375 47.828125 
Q 26.265625 48.1875 28.421875 48.1875 
Q 40.625 48.1875 47.75 41.5 
Q 54.890625 34.8125 54.890625 23.390625 
Q 54.890625 11.625 47.5625 5.09375 
Q 40.234375 -1.421875 26.90625 -1.421875 
Q 22.3125 -1.421875 17.546875 -0.640625 
Q 12.796875 0.140625 7.71875 1.703125 
L 7.71875 11.625 
Q 12.109375 9.234375 16.796875 8.0625 
Q 21.484375 6.890625 26.703125 6.890625 
Q 35.15625 6.890625 40.078125 11.328125 
Q 45.015625 15.765625 45.015625 23.390625 
Q 45.015625 31 40.078125 35.4375 
Q 35.15625 39.890625 26.703125 39.890625 
Q 22.75 39.890625 18.8125 39.015625 
Q 14.890625 38.140625 10.796875 36.28125 
z
" id="DejaVuSans-53"/>
       </defs>
       <use xlink:href="#DejaVuSans-53"/>
       <use x="63.623047" xlink:href="#DejaVuSans-48"/>
      </g>
     </g>
    </g>
   </g>
   <g id="matplotlib.axis_2">
    <g id="ytick_1">
     <g id="line2d_13">
      <path clip-path="url(#p1d3b1b9fb4)" d="M 57.570313 230.073034 
L 392.370313 230.073034 
" style="fill:none;stroke:#b0b0b0;stroke-linecap:square;stroke-width:0.8;"/>
     </g>
     <g id="line2d_14">
      <defs>
       <path d="M 0 0 
L -3.5 0 
" id="m825ad3eecc" style="stroke:#000000;stroke-width:0.8;"/>
      </defs>
      <g>
       <use style="stroke:#000000;stroke-width:0.8;" x="57.570313" xlink:href="#m825ad3eecc" y="230.073034"/>
      </g>
     </g>
     <g id="text_7">
      <!-- −0.0100 -->
      <g transform="translate(7.2 233.872252)scale(0.1 -0.1)">
       <defs>
        <path d="M 10.59375 35.5 
L 73.1875 35.5 
L 73.1875 27.203125 
L 10.59375 27.203125 
z
" id="DejaVuSans-8722"/>
        <path d="M 10.6875 12.40625 
L 21 12.40625 
L 21 0 
L 10.6875 0 
z
" id="DejaVuSans-46"/>
       </defs>
       <use xlink:href="#DejaVuSans-8722"/>
       <use x="83.789062" xlink:href="#DejaVuSans-48"/>
       <use x="147.412109" xlink:href="#DejaVuSans-46"/>
       <use x="179.199219" xlink:href="#DejaVuSans-48"/>
       <use x="242.822266" xlink:href="#DejaVuSans-49"/>
       <use x="306.445312" xlink:href="#DejaVuSans-48"/>
       <use x="370.068359" xlink:href="#DejaVuSans-48"/>
      </g>
     </g>
    </g>
    <g id="ytick_2">
     <g id="line2d_15">
      <path clip-path="url(#p1d3b1b9fb4)" d="M 57.570313 205.339125 
L 392.370313 205.339125 
" style="fill:none;stroke:#b0b0b0;stroke-linecap:square;stroke-width:0.8;"/>
     </g>
     <g id="line2d_16">
      <g>
       <use style="stroke:#000000;stroke-width:0.8;" x="57.570313" xlink:href="#m825ad3eecc" y="205.339125"/>
      </g>
     </g>
     <g id="text_8">
      <!-- −0.0075 -->
      <g transform="translate(7.2 209.138343)scale(0.1 -0.1)">
       <defs>
        <path d="M 8.203125 72.90625 
L 55.078125 72.90625 
L 55.078125 68.703125 
L 28.609375 0 
L 18.3125 0 
L 43.21875 64.59375 
L 8.203125 64.59375 
z
" id="DejaVuSans-55"/>
       </defs>
       <use xlink:href="#DejaVuSans-8722"/>
       <use x="83.789062" xlink:href="#DejaVuSans-48"/>
       <use x="147.412109" xlink:href="#DejaVuSans-46"/>
       <use x="179.199219" xlink:href="#DejaVuSans-48"/>
       <use x="242.822266" xlink:href="#DejaVuSans-48"/>
       <use x="306.445312" xlink:href="#DejaVuSans-55"/>
       <use x="370.068359" xlink:href="#DejaVuSans-53"/>
      </g>
     </g>
    </g>
    <g id="ytick_3">
     <g id="line2d_17">
      <path clip-path="url(#p1d3b1b9fb4)" d="M 57.570313 180.605216 
L 392.370313 180.605216 
" style="fill:none;stroke:#b0b0b0;stroke-linecap:square;stroke-width:0.8;"/>
     </g>
     <g id="line2d_18">
      <g>
       <use style="stroke:#000000;stroke-width:0.8;" x="57.570313" xlink:href="#m825ad3eecc" y="180.605216"/>
      </g>
     </g>
     <g id="text_9">
      <!-- −0.0050 -->
      <g transform="translate(7.2 184.404434)scale(0.1 -0.1)">
       <use xlink:href="#DejaVuSans-8722"/>
       <use x="83.789062" xlink:href="#DejaVuSans-48"/>
       <use x="147.412109" xlink:href="#DejaVuSans-46"/>
       <use x="179.199219" xlink:href="#DejaVuSans-48"/>
       <use x="242.822266" xlink:href="#DejaVuSans-48"/>
       <use x="306.445312" xlink:href="#DejaVuSans-53"/>
       <use x="370.068359" xlink:href="#DejaVuSans-48"/>
      </g>
     </g>
    </g>
    <g id="ytick_4">
     <g id="line2d_19">
      <path clip-path="url(#p1d3b1b9fb4)" d="M 57.570313 155.871306 
L 392.370313 155.871306 
" style="fill:none;stroke:#b0b0b0;stroke-linecap:square;stroke-width:0.8;"/>
     </g>
     <g id="line2d_20">
      <g>
       <use style="stroke:#000000;stroke-width:0.8;" x="57.570313" xlink:href="#m825ad3eecc" y="155.871306"/>
      </g>
     </g>
     <g id="text_10">
      <!-- −0.0025 -->
      <g transform="translate(7.2 159.670525)scale(0.1 -0.1)">
       <use xlink:href="#DejaVuSans-8722"/>
       <use x="83.789062" xlink:href="#DejaVuSans-48"/>
       <use x="147.412109" xlink:href="#DejaVuSans-46"/>
       <use x="179.199219" xlink:href="#DejaVuSans-48"/>
       <use x="242.822266" xlink:href="#DejaVuSans-48"/>
       <use x="306.445312" xlink:href="#DejaVuSans-50"/>
       <use x="370.068359" xlink:href="#DejaVuSans-53"/>
      </g>
     </g>
    </g>
    <g id="ytick_5">
     <g id="line2d_21">
      <path clip-path="url(#p1d3b1b9fb4)" d="M 57.570313 131.137397 
L 392.370313 131.137397 
" style="fill:none;stroke:#b0b0b0;stroke-linecap:square;stroke-width:0.8;"/>
     </g>
     <g id="line2d_22">
      <g>
       <use style="stroke:#000000;stroke-width:0.8;" x="57.570313" xlink:href="#m825ad3eecc" y="131.137397"/>
      </g>
     </g>
     <g id="text_11">
      <!-- 0.0000 -->
      <g transform="translate(15.579688 134.936616)scale(0.1 -0.1)">
       <use xlink:href="#DejaVuSans-48"/>
       <use x="63.623047" xlink:href="#DejaVuSans-46"/>
       <use x="95.410156" xlink:href="#DejaVuSans-48"/>
       <use x="159.033203" xlink:href="#DejaVuSans-48"/>
       <use x="222.65625" xlink:href="#DejaVuSans-48"/>
       <use x="286.279297" xlink:href="#DejaVuSans-48"/>
      </g>
     </g>
    </g>
    <g id="ytick_6">
     <g id="line2d_23">
      <path clip-path="url(#p1d3b1b9fb4)" d="M 57.570313 106.403488 
L 392.370313 106.403488 
" style="fill:none;stroke:#b0b0b0;stroke-linecap:square;stroke-width:0.8;"/>
     </g>
     <g id="line2d_24">
      <g>
       <use style="stroke:#000000;stroke-width:0.8;" x="57.570313" xlink:href="#m825ad3eecc" y="106.403488"/>
      </g>
     </g>
     <g id="text_12">
      <!-- 0.0025 -->
      <g transform="translate(15.579688 110.202707)scale(0.1 -0.1)">
       <use xlink:href="#DejaVuSans-48"/>
       <use x="63.623047" xlink:href="#DejaVuSans-46"/>
       <use x="95.410156" xlink:href="#DejaVuSans-48"/>
       <use x="159.033203" xlink:href="#DejaVuSans-48"/>
       <use x="222.65625" xlink:href="#DejaVuSans-50"/>
       <use x="286.279297" xlink:href="#DejaVuSans-53"/>
      </g>
     </g>
    </g>
    <g id="ytick_7">
     <g id="line2d_25">
      <path clip-path="url(#p1d3b1b9fb4)" d="M 57.570313 81.669579 
L 392.370313 81.669579 
" style="fill:none;stroke:#b0b0b0;stroke-linecap:square;stroke-width:0.8;"/>
     </g>
     <g id="line2d_26">
      <g>
       <use style="stroke:#000000;stroke-width:0.8;" x="57.570313" xlink:href="#m825ad3eecc" y="81.669579"/>
      </g>
     </g>
     <g id="text_13">
      <!-- 0.0050 -->
      <g transform="translate(15.579688 85.468798)scale(0.1 -0.1)">
       <use xlink:href="#DejaVuSans-48"/>
       <use x="63.623047" xlink:href="#DejaVuSans-46"/>
       <use x="95.410156" xlink:href="#DejaVuSans-48"/>
       <use x="159.033203" xlink:href="#DejaVuSans-48"/>
       <use x="222.65625" xlink:href="#DejaVuSans-53"/>
       <use x="286.279297" xlink:href="#DejaVuSans-48"/>
      </g>
     </g>
    </g>
    <g id="ytick_8">
     <g id="line2d_27">
      <path clip-path="url(#p1d3b1b9fb4)" d="M 57.570313 56.93567 
L 392.370313 56.93567 
" style="fill:none;stroke:#b0b0b0;stroke-linecap:square;stroke-width:0.8;"/>
     </g>
     <g id="line2d_28">
      <g>
       <use style="stroke:#000000;stroke-width:0.8;" x="57.570313" xlink:href="#m825ad3eecc" y="56.93567"/>
      </g>
     </g>
     <g id="text_14">
      <!-- 0.0075 -->
      <g transform="translate(15.579688 60.734889)scale(0.1 -0.1)">
       <use xlink:href="#DejaVuSans-48"/>
       <use x="63.623047" xlink:href="#DejaVuSans-46"/>
       <use x="95.410156" xlink:href="#DejaVuSans-48"/>
       <use x="159.033203" xlink:href="#DejaVuSans-48"/>
       <use x="222.65625" xlink:href="#DejaVuSans-55"/>
       <use x="286.279297" xlink:href="#DejaVuSans-53"/>
      </g>
     </g>
    </g>
    <g id="ytick_9">
     <g id="line2d_29">
      <path clip-path="url(#p1d3b1b9fb4)" d="M 57.570313 32.201761 
L 392.370313 32.201761 
" style="fill:none;stroke:#b0b0b0;stroke-linecap:square;stroke-width:0.8;"/>
     </g>
     <g id="line2d_30">
      <g>
       <use style="stroke:#000000;stroke-width:0.8;" x="57.570313" xlink:href="#m825ad3eecc" y="32.201761"/>
      </g>
     </g>
     <g id="text_15">
      <!-- 0.0100 -->
      <g transform="translate(15.579688 36.00098)scale(0.1 -0.1)">
       <use xlink:href="#DejaVuSans-48"/>
       <use x="63.623047" xlink:href="#DejaVuSans-46"/>
       <use x="95.410156" xlink:href="#DejaVuSans-48"/>
       <use x="159.033203" xlink:href="#DejaVuSans-49"/>
       <use x="222.65625" xlink:href="#DejaVuSans-48"/>
       <use x="286.279297" xlink:href="#DejaVuSans-48"/>
      </g>
     </g>
    </g>
   </g>
   <g id="line2d_31">
    <path clip-path="url(#p1d3b1b9fb4)" d="M 72.788494 32.201761 
L 73.093163 32.820521 
L 73.397831 34.667168 
L 73.702499 37.7129 
L 74.311836 47.193531 
L 74.921172 60.675341 
L 75.835177 86.534091 
L 78.577192 170.312431 
L 79.186529 183.40037 
L 79.795865 192.808766 
L 80.405202 198.217964 
L 80.70987 199.400529 
L 81.014539 199.59181 
L 81.319207 198.830517 
L 81.623875 197.171154 
L 82.233212 191.447281 
L 82.842548 183.117464 
L 84.061222 162.096252 
L 85.279895 141.367654 
L 86.1939 129.864102 
L 86.803236 125.125189 
L 87.107905 123.731009 
L 87.412573 122.993682 
L 87.717241 122.898721 
L 88.02191 123.416525 
L 88.326578 124.503131 
L 88.935914 128.141578 
L 89.849919 136.076416 
L 91.068593 147.259895 
L 91.677929 151.30719 
L 91.982598 152.625672 
L 92.287266 153.374266 
L 92.591934 153.492378 
L 92.896602 152.932584 
L 93.201271 151.661795 
L 93.810607 146.931614 
L 94.419944 139.350241 
L 95.333949 123.361363 
L 96.85729 89.927951 
L 98.075964 65.270145 
L 98.6853 56.312209 
L 99.294637 50.72223 
L 99.599305 49.390438 
L 99.903973 49.111598 
L 100.208642 49.923204 
L 100.51331 51.845119 
L 101.122647 59.007795 
L 101.731983 70.391132 
L 102.645988 94.226321 
L 103.864661 134.132551 
L 105.388003 184.588636 
L 106.302008 208.289671 
L 106.911344 219.367933 
L 107.520681 225.937362 
L 107.825349 227.422505 
L 108.130018 227.687615 
L 108.434686 226.741451 
L 108.739354 224.611741 
L 109.348691 217.003603 
L 109.958027 205.434332 
L 110.872032 182.465647 
L 113.614047 106.185482 
L 114.223384 94.165137 
L 114.83272 85.473541 
L 115.442057 80.375804 
L 115.746725 79.18269 
L 116.051394 78.864049 
L 116.356062 79.377937 
L 116.66073 80.667722 
L 117.270067 85.283377 
L 117.879403 92.02151 
L 120.621418 126.236816 
L 121.230755 130.18295 
L 121.535423 131.271969 
L 121.840091 131.742982 
L 122.14476 131.593739 
L 122.449428 130.837427 
L 122.754096 129.502378 
L 123.363433 125.281019 
L 124.277438 116.094609 
L 125.800779 99.322675 
L 126.410116 94.504638 
L 126.714784 92.889649 
L 127.019453 91.911917 
L 127.324121 91.638506 
L 127.628789 92.123452 
L 127.933457 93.406462 
L 128.238126 95.511858 
L 128.847462 102.205928 
L 129.456799 112.071449 
L 130.370804 131.882388 
L 133.417487 207.381273 
L 134.026824 216.702589 
L 134.63616 222.043336 
L 134.940828 223.052597 
L 135.245497 222.898203 
L 135.550165 221.560665 
L 135.854833 219.039317 
L 136.46417 210.537358 
L 137.073507 197.761725 
L 137.987512 172.067111 
L 139.815521 109.588169 
L 141.034195 72.297608 
L 141.643531 58.177294 
L 142.252868 48.105836 
L 142.862204 42.534483 
L 143.166873 41.497381 
L 143.471541 41.620928 
L 143.776209 42.878089 
L 144.080878 45.223996 
L 144.690214 52.919417 
L 145.299551 64.035387 
L 146.213556 85.189544 
L 148.346234 137.624227 
L 149.260239 153.863824 
L 149.869575 161.030832 
L 150.478912 165.01073 
L 150.78358 165.817944 
L 151.088249 165.875189 
L 151.392917 165.229938 
L 151.697585 163.943169 
L 152.306922 159.747533 
L 153.220927 150.764991 
L 154.744268 135.398923 
L 155.353605 131.357623 
L 155.658273 130.093443 
L 155.962941 129.401174 
L 156.26761 129.314038 
L 156.572278 129.850327 
L 156.876946 131.012948 
L 157.486283 135.151401 
L 158.09562 141.447689 
L 159.009625 153.783208 
L 160.837634 179.307039 
L 161.446971 184.900034 
L 161.751639 186.699266 
L 162.056308 187.72754 
L 162.360976 187.920795 
L 162.665644 187.229216 
L 162.970312 185.618458 
L 163.274981 183.070589 
L 163.884317 175.177319 
L 164.493654 163.750386 
L 165.407659 141.082573 
L 168.75901 48.453069 
L 169.368347 39.088996 
L 169.673015 36.033563 
L 169.977684 34.144139 
L 170.282352 33.45969 
L 170.58702 34.000423 
L 170.891688 35.767365 
L 171.196357 38.742257 
L 171.805693 48.148426 
L 172.41503 61.70527 
L 173.329035 88.074913 
L 176.375718 184.004071 
L 176.985055 196.578762 
L 177.594391 205.134335 
L 177.899059 207.803776 
L 178.203728 209.3834 
L 178.508396 209.882871 
L 178.813064 209.329692 
L 179.117733 207.768448 
L 179.727069 201.878982 
L 180.336406 192.866173 
L 181.250411 175.341383 
L 183.383089 132.462041 
L 183.992426 123.575655 
L 184.601762 117.267965 
L 185.211099 113.76285 
L 185.515767 113.061791 
L 185.820435 113.030731 
L 186.125104 113.627924 
L 186.429772 114.798039 
L 187.039109 118.575883 
L 187.953113 126.539028 
L 189.171787 137.298317 
L 189.781123 140.978113 
L 190.085792 142.098468 
L 190.39046 142.652824 
L 190.695128 142.592198 
L 190.999797 141.881634 
L 191.304465 140.501093 
L 191.913801 135.727695 
L 192.523138 128.424434 
L 193.437143 113.652998 
L 195.874489 69.94821 
L 196.483826 62.949819 
L 196.788494 60.623215 
L 197.093163 59.185224 
L 197.397831 58.698984 
L 197.702499 59.21227 
L 198.007168 60.75636 
L 198.311836 63.345184 
L 198.921172 71.623193 
L 199.530509 83.798903 
L 200.444514 108.153682 
L 202.272524 167.544193 
L 203.491197 202.939231 
L 204.100534 216.112578 
L 204.70987 225.153089 
L 205.014539 227.94552 
L 205.319207 229.526399 
L 205.623875 229.874489 
L 205.928543 228.987839 
L 206.233212 226.8838 
L 206.842548 219.187091 
L 207.451885 207.288371 
L 208.36589 183.277428 
L 211.412573 92.936869 
L 212.02191 80.754924 
L 212.631246 72.244987 
L 213.240583 67.656624 
L 213.545251 66.834013 
L 213.849919 66.958429 
L 214.154588 67.983975 
L 214.459256 69.849743 
L 215.068593 75.791922 
L 215.982598 88.795443 
L 218.115276 122.77283 
L 218.724612 129.712727 
L 219.333949 134.353819 
L 219.638617 135.728687 
L 219.943285 136.459215 
L 220.247954 136.554462 
L 220.552622 136.038758 
L 220.85729 134.951081 
L 221.466627 131.283191 
L 222.380632 123.185122 
L 223.903973 109.097694 
L 224.51331 105.584985 
L 224.817978 104.638375 
L 225.122647 104.32316 
L 225.427315 104.692542 
L 225.731983 105.785745 
L 226.036652 107.626992 
L 226.645988 113.571391 
L 227.255325 122.39927 
L 228.16933 140.149213 
L 231.216013 205.741105 
L 231.825349 212.879159 
L 232.130018 215.015183 
L 232.434686 216.105741 
L 232.739354 216.103283 
L 233.044023 214.977625 
L 233.348691 212.716707 
L 233.958027 204.833745 
L 234.567364 192.728585 
L 235.481369 167.943416 
L 237.004711 116.669033 
L 238.223384 76.942527 
L 239.137389 53.831912 
L 239.746725 43.284621 
L 240.356062 37.291877 
L 240.66073 36.093085 
L 240.965398 36.102576 
L 241.270067 37.303916 
L 241.574735 39.662012 
L 242.184072 47.619545 
L 242.793408 59.356911 
L 243.707413 82.169173 
L 246.14476 148.573052 
L 247.058765 166.124814 
L 247.668101 173.777931 
L 248.277438 177.93049 
L 248.582106 178.708201 
L 248.886774 178.660475 
L 249.191443 177.836593 
L 249.496111 176.299666 
L 250.105448 171.399214 
L 251.019453 160.892593 
L 252.542794 141.973326 
L 253.152131 136.246556 
L 253.761467 132.50337 
L 254.066136 131.495651 
L 254.370804 131.09906 
L 254.675472 131.320957 
L 254.980141 132.153233 
L 255.284809 133.572484 
L 255.894145 138.005081 
L 256.80815 147.670104 
L 258.63616 168.766907 
L 259.245497 173.288405 
L 259.550165 174.64661 
L 259.854833 175.301953 
L 260.159502 175.193736 
L 260.46417 174.27518 
L 260.768838 172.5146 
L 261.378175 166.421248 
L 261.987512 156.988808 
L 262.901516 137.397036 
L 264.12019 104.778121 
L 265.643531 64.513186 
L 266.557536 46.941919 
L 267.166873 39.857904 
L 267.471541 37.947046 
L 267.776209 37.194042 
L 268.080878 37.629425 
L 268.385546 39.265025 
L 268.690214 42.093626 
L 269.299551 51.206006 
L 269.908887 64.535824 
L 270.822892 90.839432 
L 274.174244 196.963308 
L 274.78358 208.479285 
L 275.392917 215.669119 
L 275.697585 217.554378 
L 276.002254 218.290534 
L 276.306922 217.893881 
L 276.61159 216.39882 
L 276.916258 213.857045 
L 277.525595 205.919607 
L 278.134932 194.791685 
L 279.353605 166.629142 
L 280.876946 130.776472 
L 281.790951 114.363964 
L 282.400288 106.848263 
L 283.009625 102.393705 
L 283.314293 101.319146 
L 283.618961 100.983591 
L 283.923629 101.346 
L 284.228298 102.351417 
L 284.837634 106.010074 
L 285.751639 114.312488 
L 287.274981 128.99531 
L 287.884317 132.900347 
L 288.188986 134.11359 
L 288.493654 134.760519 
L 288.798322 134.803018 
L 289.102991 134.217669 
L 289.407659 132.99633 
L 290.016996 128.690817 
L 290.626332 122.12938 
L 291.540337 109.145106 
L 293.368347 81.283883 
L 293.977684 74.652029 
L 294.58702 70.71877 
L 294.891688 69.964942 
L 295.196357 70.101263 
L 295.501025 71.170425 
L 295.805693 73.198948 
L 296.41503 80.154885 
L 297.024367 90.835714 
L 297.938371 112.874628 
L 299.157045 149.449593 
L 300.680386 195.022084 
L 301.594391 215.658823 
L 302.203728 224.665538 
L 302.508396 227.4938 
L 302.813064 229.132742 
L 303.117733 229.550744 
L 303.422401 228.73523 
L 303.727069 226.692921 
L 304.336406 219.050564 
L 304.945742 207.052439 
L 305.859747 182.479403 
L 307.687757 122.356774 
L 308.90643 86.512797 
L 309.515767 72.902022 
L 310.125104 63.085571 
L 310.73444 57.426109 
L 311.039109 56.190078 
L 311.343777 55.998984 
L 311.648445 56.817855 
L 311.953113 58.595278 
L 312.56245 64.745295 
L 313.171787 73.760541 
L 314.39046 96.892344 
L 315.913801 125.653158 
L 316.523138 134.425398 
L 317.132475 140.768729 
L 317.741811 144.414563 
L 318.04648 145.210594 
L 318.351148 145.34522 
L 318.655816 144.8546 
L 318.960484 143.788872 
L 319.569821 140.195072 
L 320.483826 132.395655 
L 321.702499 121.58871 
L 322.311836 117.789697 
L 322.616504 116.596617 
L 322.921172 115.966697 
L 323.225841 115.953999 
L 323.530509 116.598913 
L 323.835177 117.927175 
L 324.444514 122.659298 
L 325.053851 130.043167 
L 325.967855 145.249907 
L 328.70987 196.87447 
L 329.319207 203.701138 
L 329.623875 205.84842 
L 329.928543 207.051572 
L 330.233212 207.2537 
L 330.53788 206.41404 
L 330.842548 204.508949 
L 331.451885 197.497368 
L 332.061222 186.390498 
L 332.975227 163.120807 
L 334.1939 124.068107 
L 335.717241 74.583356 
L 336.631246 51.380101 
L 337.240583 40.619247 
L 337.849919 34.379229 
L 338.154588 33.07074 
L 338.459256 32.994346 
L 338.763924 34.144259 
L 339.068593 36.495557 
L 339.677929 44.610045 
L 340.287266 56.781814 
L 341.201271 80.846612 
L 343.943285 161.305096 
L 344.85729 179.387541 
L 345.466627 186.972504 
L 345.771295 189.331035 
L 346.075964 190.732946 
L 346.380632 191.199219 
L 346.6853 190.767241 
L 346.989969 189.489825 
L 347.599305 184.679122 
L 348.208642 177.443581 
L 349.427315 159.044577 
L 350.645988 141.289811 
L 351.255325 134.604092 
L 351.864661 130.110501 
L 352.16933 128.781575 
L 352.473998 128.085445 
L 352.778666 128.01836 
L 353.083335 128.561193 
L 353.388003 129.679927 
L 353.99734 133.439567 
L 354.911344 141.801318 
L 356.434686 156.755461 
L 357.044023 160.735872 
L 357.348691 161.928063 
L 357.653359 162.48978 
L 357.958027 162.361951 
L 358.262696 161.499072 
L 358.567364 159.870363 
L 359.176701 154.270898 
L 359.786037 145.637302 
L 360.700042 127.793431 
L 362.223384 90.820597 
L 363.442057 63.261005 
L 364.051394 52.928428 
L 364.66073 46.058859 
L 364.965398 44.132233 
L 365.270067 43.293078 
L 365.574735 43.581984 
L 365.879403 45.021635 
L 366.184072 47.616204 
L 366.793408 56.192942 
L 367.402745 68.973382 
L 368.31675 94.606864 
L 370.14476 156.960031 
L 371.363433 194.206901 
L 371.97277 208.279592 
L 372.582106 218.253169 
L 373.191443 223.6474 
L 373.496111 224.557154 
L 373.800779 224.275884 
L 374.105448 222.827597 
L 374.410116 220.254561 
L 375.019453 211.988979 
L 375.628789 200.14138 
L 376.542794 177.593932 
L 377.152131 160.880288 
L 377.152131 160.880288 
" style="fill:none;stroke:#000000;stroke-linecap:square;stroke-width:1.5;"/>
   </g>
   <g id="line2d_32">
    <path clip-path="url(#p1d3b1b9fb4)" d="M 72.788494 131.137397 
L 73.093163 131.44653 
L 73.397831 132.366223 
L 74.007168 135.930329 
L 74.616504 141.472087 
L 75.530509 152.214499 
L 77.053851 170.103127 
L 77.663187 174.808832 
L 77.967855 176.253563 
L 78.272524 176.990236 
L 78.577192 176.956963 
L 78.88186 176.105728 
L 79.186529 174.403598 
L 79.795865 168.395589 
L 80.405202 158.998659 
L 81.319207 139.349467 
L 82.53788 106.422465 
L 84.061222 65.408128 
L 84.975227 47.236127 
L 85.584563 39.715415 
L 85.889231 37.581447 
L 86.1939 36.605103 
L 86.498568 36.819196 
L 86.803236 38.237849 
L 87.107905 40.856128 
L 87.717241 49.576601 
L 88.326578 62.566665 
L 89.240583 88.489635 
L 92.591934 194.866657 
L 93.201271 206.683383 
L 93.810607 214.225092 
L 94.115276 216.300475 
L 94.419944 217.233416 
L 94.724612 217.038082 
L 95.029281 215.746757 
L 95.333949 213.409055 
L 95.943285 205.872837 
L 96.552622 195.124745 
L 97.771295 167.610133 
L 99.294637 132.284843 
L 100.208642 116.028151 
L 100.817978 108.555865 
L 101.427315 104.103396 
L 101.731983 103.016601 
L 102.036652 102.66119 
L 102.34132 102.997047 
L 102.645988 103.970107 
L 103.255325 107.549938 
L 104.16933 115.709199 
L 105.692671 130.114527 
L 106.302008 133.896874 
L 106.606676 135.045488 
L 106.911344 135.62511 
L 107.216013 135.597204 
L 107.520681 134.937903 
L 107.825349 133.638614 
L 108.434686 129.1635 
L 109.044023 122.411821 
L 109.958027 109.100065 
L 111.786037 80.451636 
L 112.395374 73.537561 
L 113.004711 69.327025 
L 113.309379 68.439973 
L 113.614047 68.448729 
L 113.918715 69.397572 
L 114.223384 71.314627 
L 114.83272 78.080488 
L 115.442057 88.625016 
L 116.356062 110.58285 
L 117.574735 147.315608 
L 119.098077 193.521384 
L 120.012082 214.732354 
L 120.621418 224.176548 
L 120.926086 227.233773 
L 121.230755 229.105479 
L 121.535423 229.757697 
L 121.840091 229.175462 
L 122.14476 227.363116 
L 122.449428 224.344256 
L 123.058765 214.875138 
L 123.668101 201.319684 
L 124.582106 175.135698 
L 127.324121 88.849793 
L 128.238126 69.542504 
L 128.847462 61.514483 
L 129.152131 59.067884 
L 129.456799 57.67511 
L 129.761467 57.320408 
L 130.066136 57.970666 
L 130.370804 59.576299 
L 130.980141 65.380235 
L 131.589477 74.056828 
L 132.503482 90.594422 
L 134.331492 124.758232 
L 134.940828 133.364095 
L 135.550165 139.575678 
L 136.159502 143.120465 
L 136.46417 143.87601 
L 136.768838 143.976007 
L 137.073507 143.456001 
L 137.378175 142.365546 
L 137.987512 138.734156 
L 138.901516 130.902127 
L 140.12019 120.089797 
L 140.729526 116.306979 
L 141.034195 115.128108 
L 141.338863 114.517208 
L 141.643531 114.52896 
L 141.948199 115.204424 
L 142.252868 116.569999 
L 142.862204 121.399688 
L 143.471541 128.915716 
L 144.385546 144.393413 
L 147.127561 197.333526 
L 147.736897 204.516856 
L 148.041566 206.843141 
L 148.346234 208.223394 
L 148.650902 208.598862 
L 148.95557 207.926878 
L 149.260239 206.181882 
L 149.564907 203.356145 
L 150.174244 194.52274 
L 150.78358 181.728289 
L 151.697585 156.44198 
L 155.048937 52.878909 
L 155.658273 41.713106 
L 156.26761 35.030074 
L 156.572278 33.49143 
L 156.876946 33.182252 
L 157.181615 34.09914 
L 157.486283 36.219526 
L 158.09562 43.887718 
L 158.704956 55.648241 
L 159.618961 79.194516 
L 162.665644 165.947399 
L 163.274981 177.28319 
L 163.884317 185.029012 
L 164.188986 187.485445 
L 164.493654 188.994901 
L 164.798322 189.576817 
L 165.102991 189.267052 
L 165.407659 188.116897 
L 166.016996 183.570105 
L 166.626332 176.60219 
L 167.845005 158.715558 
L 169.063679 141.407974 
L 169.673015 134.916817 
L 170.282352 130.599822 
L 170.58702 129.353268 
L 170.891688 128.736085 
L 171.196357 128.744939 
L 171.501025 129.361141 
L 171.805693 130.551072 
L 172.41503 134.447994 
L 173.329035 143.006317 
L 174.852376 158.260585 
L 175.461713 162.342738 
L 175.766381 163.579219 
L 176.07105 164.179675 
L 176.375718 164.084098 
L 176.680386 163.246011 
L 176.985055 161.633653 
L 177.594391 156.037641 
L 178.203728 147.362432 
L 179.117733 129.358616 
L 180.641074 91.836705 
L 181.859747 63.605219 
L 182.469084 52.881084 
L 183.078421 45.599882 
L 183.383089 43.4647 
L 183.687757 42.41791 
L 183.992426 42.502239 
L 184.297094 43.742535 
L 184.601762 46.145134 
L 185.211099 54.36852 
L 185.820435 66.849631 
L 186.73444 92.165413 
L 188.257782 143.951229 
L 189.476455 183.629028 
L 190.39046 206.494423 
L 190.999797 216.837785 
L 191.609133 222.642996 
L 191.913801 223.768225 
L 192.21847 223.706076 
L 192.523138 222.47829 
L 192.827806 220.124902 
L 193.437143 212.287475 
L 194.04648 200.839929 
L 194.960484 178.810293 
L 197.397831 116.189465 
L 198.311836 100.286604 
L 198.921172 93.637226 
L 199.225841 91.570388 
L 199.530509 90.335246 
L 199.835177 89.906323 
L 200.139846 90.242768 
L 200.444514 91.289419 
L 201.053851 95.229445 
L 201.663187 101.055719 
L 204.100534 127.020712 
L 204.70987 130.393983 
L 205.014539 131.234512 
L 205.319207 131.468826 
L 205.623875 131.084118 
L 205.928543 130.083025 
L 206.53788 126.319023 
L 207.147217 120.498288 
L 208.061222 109.13054 
L 209.584563 89.579571 
L 210.1939 84.031469 
L 210.498568 82.144293 
L 210.803236 80.959023 
L 211.107905 80.544337 
L 211.412573 80.955526 
L 211.717241 82.233159 
L 212.02191 84.402022 
L 212.631246 91.429358 
L 213.240583 101.898698 
L 214.154588 123.095622 
L 215.677929 166.579118 
L 216.896602 199.479912 
L 217.505939 212.346144 
L 218.115276 221.590643 
L 218.419944 224.633011 
L 218.724612 226.534814 
L 219.029281 227.252222 
L 219.333949 226.759839 
L 219.638617 225.051244 
L 219.943285 222.139217 
L 220.552622 212.85093 
L 221.161959 199.368343 
L 222.075964 172.957503 
L 225.122647 75.262459 
L 225.731983 62.182686 
L 226.34132 53.169333 
L 226.645988 50.304898 
L 226.950656 48.561353 
L 227.255325 47.935062 
L 227.559993 48.404133 
L 227.864661 49.92904 
L 228.16933 52.453558 
L 228.778666 60.200661 
L 229.692671 77.109652 
L 232.739354 140.800008 
L 233.348691 148.468465 
L 233.958027 153.246602 
L 234.262696 154.52858 
L 234.567364 155.092107 
L 234.872032 154.971081 
L 235.176701 154.213712 
L 235.481369 152.88133 
L 236.090706 148.793565 
L 237.004711 140.459561 
L 238.223384 129.444514 
L 238.83272 125.718104 
L 239.137389 124.582823 
L 239.442057 124.012649 
L 239.746725 124.051055 
L 240.051394 124.727132 
L 240.356062 126.054849 
L 240.965398 130.643206 
L 241.574735 137.616989 
L 242.48874 151.538972 
L 244.621418 186.867451 
L 245.230755 193.680733 
L 245.840091 197.520093 
L 246.14476 198.132223 
L 246.449428 197.797371 
L 246.754096 196.478548 
L 247.058765 194.155547 
L 247.668101 186.503807 
L 248.277438 175.033389 
L 249.191443 151.762632 
L 250.714784 103.834536 
L 251.933457 67.014968 
L 252.847462 46.107884 
L 253.456799 37.062014 
L 253.761467 34.244882 
L 254.066136 32.631214 
L 254.370804 32.247493 
L 254.675472 33.100996 
L 254.980141 35.179661 
L 255.589477 42.869059 
L 256.198814 54.848307 
L 257.112819 79.203557 
L 260.46417 179.529877 
L 261.073507 190.656778 
L 261.682843 197.854455 
L 261.987512 199.917013 
L 262.29218 200.957673 
L 262.596848 201.000111 
L 262.901516 200.08478 
L 263.206185 198.267888 
L 263.815521 192.225011 
L 264.424858 183.580811 
L 265.643531 161.983044 
L 266.862204 140.786814 
L 267.776209 129.012922 
L 268.385546 124.129077 
L 268.690214 122.671735 
L 268.994883 121.876764 
L 269.299551 121.729137 
L 269.604219 122.198721 
L 269.908887 123.241052 
L 270.518224 126.800997 
L 271.432229 134.638415 
L 272.650902 145.726603 
L 273.260239 149.744934 
L 273.564907 151.055256 
L 273.869575 151.800753 
L 274.174244 151.921556 
L 274.478912 151.370998 
L 274.78358 150.116771 
L 275.392917 145.444779 
L 276.002254 137.959824 
L 276.916258 122.197326 
L 278.4396 89.372949 
L 279.658273 65.383916 
L 280.26761 56.798646 
L 280.876946 51.590307 
L 281.181615 50.448126 
L 281.486283 50.355501 
L 281.790951 51.347931 
L 282.09562 53.443249 
L 282.704956 60.922515 
L 283.314293 72.56957 
L 284.228298 96.672274 
L 285.446971 136.647188 
L 286.970313 186.695043 
L 287.884317 209.917122 
L 288.493654 220.602705 
L 289.102991 226.739398 
L 289.407659 227.998731 
L 289.712327 228.034839 
L 290.016996 226.858827 
L 290.321664 224.500754 
L 290.931 216.449384 
L 291.540337 204.468946 
L 292.454342 180.975505 
L 295.196357 104.037935 
L 295.805693 92.064069 
L 296.41503 83.47687 
L 297.024367 78.531519 
L 297.329035 77.429182 
L 297.633703 77.209159 
L 297.938371 77.828104 
L 298.24304 79.22801 
L 298.852376 84.073916 
L 299.766381 95.078518 
L 301.899059 123.359667 
L 302.508396 128.581447 
L 303.117733 131.536986 
L 303.422401 132.093382 
L 303.727069 132.027888 
L 304.031738 131.354086 
L 304.336406 130.100676 
L 304.945742 126.04125 
L 305.859747 117.097312 
L 307.383089 100.723117 
L 307.992426 96.052039 
L 308.297094 94.504973 
L 308.601762 93.590189 
L 308.90643 93.373702 
L 309.211099 93.908469 
L 309.515767 95.233083 
L 309.820435 97.370754 
L 310.429772 104.097032 
L 311.039109 113.944978 
L 311.953113 133.622129 
L 314.999797 207.709387 
L 315.609133 216.614716 
L 316.21847 221.524024 
L 316.523138 222.317012 
L 316.827806 221.948912 
L 317.132475 220.402469 
L 317.437143 217.679245 
L 318.04648 208.803303 
L 318.655816 195.706949 
L 319.569821 169.661835 
L 322.921172 62.738775 
L 323.530509 50.891925 
L 324.139846 43.405604 
L 324.444514 41.399908 
L 324.749182 40.569695 
L 325.053851 40.904244 
L 325.358519 42.374327 
L 325.663187 44.932909 
L 326.272524 53.044653 
L 326.88186 64.55217 
L 327.795865 86.218936 
L 329.928543 139.368028 
L 330.842548 155.694966 
L 331.451885 162.856801 
L 332.061222 166.789287 
L 332.36589 167.559521 
L 332.670558 167.572341 
L 332.975227 166.876259 
L 333.279895 165.533252 
L 333.889231 161.212595 
L 334.803236 152.022749 
L 336.326578 136.290014 
L 336.935914 132.0977 
L 337.240583 130.756482 
L 337.545251 129.985721 
L 337.849919 129.818262 
L 338.154588 130.271991 
L 338.459256 131.349408 
L 339.068593 135.307986 
L 339.677929 141.409746 
L 340.591934 153.4234 
L 342.115276 174.734762 
L 342.724612 181.192334 
L 343.333949 185.240651 
L 343.638617 186.152466 
L 343.943285 186.234917 
L 344.247954 185.439639 
L 344.552622 183.733759 
L 345.161959 177.541362 
L 345.771295 167.731655 
L 346.6853 147.066896 
L 347.903973 112.156778 
L 349.427315 67.960307 
L 350.34132 47.692466 
L 350.950656 38.765251 
L 351.255325 35.937438 
L 351.559993 34.278787 
L 351.864661 33.825943 
L 352.16933 34.596754 
L 352.473998 36.589888 
L 353.083335 44.141827 
L 353.692671 56.093562 
L 354.606676 80.752451 
L 356.130018 131.499976 
L 357.348691 170.393362 
L 358.262696 192.909685 
L 358.872032 203.265351 
L 359.481369 209.372306 
L 359.786037 210.781386 
L 360.090706 211.103608 
L 360.395374 210.368439 
L 360.700042 208.622414 
L 361.309379 202.362498 
L 361.918715 192.989635 
L 362.83272 174.970095 
L 364.965398 131.273397 
L 365.574735 122.25029 
L 366.184072 115.845116 
L 366.793408 112.276884 
L 367.098077 111.555405 
L 367.402745 111.510379 
L 367.707413 112.099351 
L 368.012082 113.266315 
L 368.621418 117.050619 
L 369.535423 125.048346 
L 370.754096 135.890912 
L 371.363433 139.629584 
L 371.668101 140.7848 
L 371.97277 141.378268 
L 372.277438 141.361538 
L 372.582106 140.700224 
L 372.886774 139.374865 
L 373.496111 134.731872 
L 374.105448 127.589049 
L 375.019453 113.120526 
L 377.152131 74.881134 
L 377.152131 74.881134 
" style="fill:none;stroke:#0000ff;stroke-linecap:square;stroke-width:1.5;"/>
   </g>
   <g id="patch_3">
    <path d="M 57.570313 239.758125 
L 57.570313 22.318125 
" style="fill:none;stroke:#000000;stroke-linecap:square;stroke-linejoin:miter;stroke-width:0.8;"/>
   </g>
   <g id="patch_4">
    <path d="M 392.370313 239.758125 
L 392.370313 22.318125 
" style="fill:none;stroke:#000000;stroke-linecap:square;stroke-linejoin:miter;stroke-width:0.8;"/>
   </g>
   <g id="patch_5">
    <path d="M 57.570312 239.758125 
L 392.370312 239.758125 
" style="fill:none;stroke:#000000;stroke-linecap:square;stroke-linejoin:miter;stroke-width:0.8;"/>
   </g>
   <g id="patch_6">
    <path d="M 57.570312 22.318125 
L 392.370312 22.318125 
" style="fill:none;stroke:#000000;stroke-linecap:square;stroke-linejoin:miter;stroke-width:0.8;"/>
   </g>
   <g id="text_16">
    <!-- Unknown mode -->
    <g transform="translate(178.195625 16.318125)scale(0.12 -0.12)">
     <defs>
      <path d="M 8.6875 72.90625 
L 18.609375 72.90625 
L 18.609375 28.609375 
Q 18.609375 16.890625 22.84375 11.734375 
Q 27.09375 6.59375 36.625 6.59375 
Q 46.09375 6.59375 50.34375 11.734375 
Q 54.59375 16.890625 54.59375 28.609375 
L 54.59375 72.90625 
L 64.5 72.90625 
L 64.5 27.390625 
Q 64.5 13.140625 57.4375 5.859375 
Q 50.390625 -1.421875 36.625 -1.421875 
Q 22.796875 -1.421875 15.734375 5.859375 
Q 8.6875 13.140625 8.6875 27.390625 
z
" id="DejaVuSans-85"/>
      <path d="M 54.890625 33.015625 
L 54.890625 0 
L 45.90625 0 
L 45.90625 32.71875 
Q 45.90625 40.484375 42.875 44.328125 
Q 39.84375 48.1875 33.796875 48.1875 
Q 26.515625 48.1875 22.3125 43.546875 
Q 18.109375 38.921875 18.109375 30.90625 
L 18.109375 0 
L 9.078125 0 
L 9.078125 54.6875 
L 18.109375 54.6875 
L 18.109375 46.1875 
Q 21.34375 51.125 25.703125 53.5625 
Q 30.078125 56 35.796875 56 
Q 45.21875 56 50.046875 50.171875 
Q 54.890625 44.34375 54.890625 33.015625 
z
" id="DejaVuSans-110"/>
      <path d="M 9.078125 75.984375 
L 18.109375 75.984375 
L 18.109375 31.109375 
L 44.921875 54.6875 
L 56.390625 54.6875 
L 27.390625 29.109375 
L 57.625 0 
L 45.90625 0 
L 18.109375 26.703125 
L 18.109375 0 
L 9.078125 0 
z
" id="DejaVuSans-107"/>
      <path d="M 30.609375 48.390625 
Q 23.390625 48.390625 19.1875 42.75 
Q 14.984375 37.109375 14.984375 27.296875 
Q 14.984375 17.484375 19.15625 11.84375 
Q 23.34375 6.203125 30.609375 6.203125 
Q 37.796875 6.203125 41.984375 11.859375 
Q 46.1875 17.53125 46.1875 27.296875 
Q 46.1875 37.015625 41.984375 42.703125 
Q 37.796875 48.390625 30.609375 48.390625 
z
M 30.609375 56 
Q 42.328125 56 49.015625 48.375 
Q 55.71875 40.765625 55.71875 27.296875 
Q 55.71875 13.875 49.015625 6.21875 
Q 42.328125 -1.421875 30.609375 -1.421875 
Q 18.84375 -1.421875 12.171875 6.21875 
Q 5.515625 13.875 5.515625 27.296875 
Q 5.515625 40.765625 12.171875 48.375 
Q 18.84375 56 30.609375 56 
z
" id="DejaVuSans-111"/>
      <path d="M 4.203125 54.6875 
L 13.1875 54.6875 
L 24.421875 12.015625 
L 35.59375 54.6875 
L 46.1875 54.6875 
L 57.421875 12.015625 
L 68.609375 54.6875 
L 77.59375 54.6875 
L 63.28125 0 
L 52.6875 0 
L 40.921875 44.828125 
L 29.109375 0 
L 18.5 0 
z
" id="DejaVuSans-119"/>
      <path id="DejaVuSans-32"/>
      <path d="M 52 44.1875 
Q 55.375 50.25 60.0625 53.125 
Q 64.75 56 71.09375 56 
Q 79.640625 56 84.28125 50.015625 
Q 88.921875 44.046875 88.921875 33.015625 
L 88.921875 0 
L 79.890625 0 
L 79.890625 32.71875 
Q 79.890625 40.578125 77.09375 44.375 
Q 74.3125 48.1875 68.609375 48.1875 
Q 61.625 48.1875 57.5625 43.546875 
Q 53.515625 38.921875 53.515625 30.90625 
L 53.515625 0 
L 44.484375 0 
L 44.484375 32.71875 
Q 44.484375 40.625 41.703125 44.40625 
Q 38.921875 48.1875 33.109375 48.1875 
Q 26.21875 48.1875 22.15625 43.53125 
Q 18.109375 38.875 18.109375 30.90625 
L 18.109375 0 
L 9.078125 0 
L 9.078125 54.6875 
L 18.109375 54.6875 
L 18.109375 46.1875 
Q 21.1875 51.21875 25.484375 53.609375 
Q 29.78125 56 35.6875 56 
Q 41.65625 56 45.828125 52.96875 
Q 50 49.953125 52 44.1875 
z
" id="DejaVuSans-109"/>
      <path d="M 45.40625 46.390625 
L 45.40625 75.984375 
L 54.390625 75.984375 
L 54.390625 0 
L 45.40625 0 
L 45.40625 8.203125 
Q 42.578125 3.328125 38.25 0.953125 
Q 33.9375 -1.421875 27.875 -1.421875 
Q 17.96875 -1.421875 11.734375 6.484375 
Q 5.515625 14.40625 5.515625 27.296875 
Q 5.515625 40.1875 11.734375 48.09375 
Q 17.96875 56 27.875 56 
Q 33.9375 56 38.25 53.625 
Q 42.578125 51.265625 45.40625 46.390625 
z
M 14.796875 27.296875 
Q 14.796875 17.390625 18.875 11.75 
Q 22.953125 6.109375 30.078125 6.109375 
Q 37.203125 6.109375 41.296875 11.75 
Q 45.40625 17.390625 45.40625 27.296875 
Q 45.40625 37.203125 41.296875 42.84375 
Q 37.203125 48.484375 30.078125 48.484375 
Q 22.953125 48.484375 18.875 42.84375 
Q 14.796875 37.203125 14.796875 27.296875 
z
" id="DejaVuSans-100"/>
      <path d="M 56.203125 29.59375 
L 56.203125 25.203125 
L 14.890625 25.203125 
Q 15.484375 15.921875 20.484375 11.0625 
Q 25.484375 6.203125 34.421875 6.203125 
Q 39.59375 6.203125 44.453125 7.46875 
Q 49.3125 8.734375 54.109375 11.28125 
L 54.109375 2.78125 
Q 49.265625 0.734375 44.1875 -0.34375 
Q 39.109375 -1.421875 33.890625 -1.421875 
Q 20.796875 -1.421875 13.15625 6.1875 
Q 5.515625 13.8125 5.515625 26.8125 
Q 5.515625 40.234375 12.765625 48.109375 
Q 20.015625 56 32.328125 56 
Q 43.359375 56 49.78125 48.890625 
Q 56.203125 41.796875 56.203125 29.59375 
z
M 47.21875 32.234375 
Q 47.125 39.59375 43.09375 43.984375 
Q 39.0625 48.390625 32.421875 48.390625 
Q 24.90625 48.390625 20.390625 44.140625 
Q 15.875 39.890625 15.1875 32.171875 
z
" id="DejaVuSans-101"/>
     </defs>
     <use xlink:href="#DejaVuSans-85"/>
     <use x="73.193359" xlink:href="#DejaVuSans-110"/>
     <use x="136.572266" xlink:href="#DejaVuSans-107"/>
     <use x="194.482422" xlink:href="#DejaVuSans-110"/>
     <use x="257.861328" xlink:href="#DejaVuSans-111"/>
     <use x="319.042969" xlink:href="#DejaVuSans-119"/>
     <use x="400.830078" xlink:href="#DejaVuSans-110"/>
     <use x="464.208984" xlink:href="#DejaVuSans-32"/>
     <use x="495.996094" xlink:href="#DejaVuSans-109"/>
     <use x="593.408203" xlink:href="#DejaVuSans-111"/>
     <use x="654.589844" xlink:href="#DejaVuSans-100"/>
     <use x="718.066406" xlink:href="#DejaVuSans-101"/>
    </g>
   </g>
  </g>
 </g>
 <defs>
  <clipPath id="p1d3b1b9fb4">
   <rect height="217.44" width="334.8" x="57.570313" y="22.318125"/>
  </clipPath>
 </defs>
</svg>
