<?xml version="1.0" encoding="utf-8" standalone="no"?>
<!DOCTYPE svg PUBLIC "-//W3C//DTD SVG 1.1//EN"
  "http://www.w3.org/Graphics/SVG/1.1/DTD/svg11.dtd">
<!-- Created with matplotlib (https://matplotlib.org/) -->
<svg height="248.518125pt" version="1.1" viewBox="0 0 370.942187 248.518125" width="370.942187pt" xmlns="http://www.w3.org/2000/svg" xmlns:xlink="http://www.w3.org/1999/xlink">
 <metadata>
  <rdf:RDF xmlns:cc="http://creativecommons.org/ns#" xmlns:dc="http://purl.org/dc/elements/1.1/" xmlns:rdf="http://www.w3.org/1999/02/22-rdf-syntax-ns#">
   <cc:Work>
    <dc:type rdf:resource="http://purl.org/dc/dcmitype/StillImage"/>
    <dc:date>2021-09-12T14:19:09.641088</dc:date>
    <dc:format>image/svg+xml</dc:format>
    <dc:creator>
     <cc:Agent>
      <dc:title>Matplotlib v3.3.4, https://matplotlib.org/</dc:title>
     </cc:Agent>
    </dc:creator>
   </cc:Work>
  </rdf:RDF>
 </metadata>
 <defs>
  <style type="text/css">*{stroke-linecap:butt;stroke-linejoin:round;}</style>
 </defs>
 <g id="figure_1">
  <g id="patch_1">
   <path d="M 0 248.518125 
L 370.942187 248.518125 
L 370.942187 0 
L 0 0 
z
" style="fill:none;"/>
  </g>
  <g id="axes_1">
   <g id="patch_2">
    <path d="M 28.942188 224.64 
L 363.742188 224.64 
L 363.742188 7.2 
L 28.942188 7.2 
z
" style="fill:#ffffff;"/>
   </g>
   <g id="matplotlib.axis_1">
    <g id="xtick_1">
     <g id="line2d_1">
      <path clip-path="url(#p778eaff1af)" d="M 44.160369 224.64 
L 44.160369 7.2 
" style="fill:none;stroke:#b0b0b0;stroke-linecap:square;stroke-width:0.8;"/>
     </g>
     <g id="line2d_2">
      <defs>
       <path d="M 0 0 
L 0 3.5 
" id="me2718153f3" style="stroke:#000000;stroke-width:0.8;"/>
      </defs>
      <g>
       <use style="stroke:#000000;stroke-width:0.8;" x="44.160369" xlink:href="#me2718153f3" y="224.64"/>
      </g>
     </g>
     <g id="text_1">
      <!-- −2.0 -->
      <g transform="translate(32.018963 239.238437)scale(0.1 -0.1)">
       <defs>
        <path d="M 10.59375 35.5 
L 73.1875 35.5 
L 73.1875 27.203125 
L 10.59375 27.203125 
z
" id="DejaVuSans-8722"/>
        <path d="M 19.1875 8.296875 
L 53.609375 8.296875 
L 53.609375 0 
L 7.328125 0 
L 7.328125 8.296875 
Q 12.9375 14.109375 22.625 23.890625 
Q 32.328125 33.6875 34.8125 36.53125 
Q 39.546875 41.84375 41.421875 45.53125 
Q 43.3125 49.21875 43.3125 52.78125 
Q 43.3125 58.59375 39.234375 62.25 
Q 35.15625 65.921875 28.609375 65.921875 
Q 23.96875 65.921875 18.8125 64.3125 
Q 13.671875 62.703125 7.8125 59.421875 
L 7.8125 69.390625 
Q 13.765625 71.78125 18.9375 73 
Q 24.125 74.21875 28.421875 74.21875 
Q 39.75 74.21875 46.484375 68.546875 
Q 53.21875 62.890625 53.21875 53.421875 
Q 53.21875 48.921875 51.53125 44.890625 
Q 49.859375 40.875 45.40625 35.40625 
Q 44.1875 33.984375 37.640625 27.21875 
Q 31.109375 20.453125 19.1875 8.296875 
z
" id="DejaVuSans-50"/>
        <path d="M 10.6875 12.40625 
L 21 12.40625 
L 21 0 
L 10.6875 0 
z
" id="DejaVuSans-46"/>
        <path d="M 31.78125 66.40625 
Q 24.171875 66.40625 20.328125 58.90625 
Q 16.5 51.421875 16.5 36.375 
Q 16.5 21.390625 20.328125 13.890625 
Q 24.171875 6.390625 31.78125 6.390625 
Q 39.453125 6.390625 43.28125 13.890625 
Q 47.125 21.390625 47.125 36.375 
Q 47.125 51.421875 43.28125 58.90625 
Q 39.453125 66.40625 31.78125 66.40625 
z
M 31.78125 74.21875 
Q 44.046875 74.21875 50.515625 64.515625 
Q 56.984375 54.828125 56.984375 36.375 
Q 56.984375 17.96875 50.515625 8.265625 
Q 44.046875 -1.421875 31.78125 -1.421875 
Q 19.53125 -1.421875 13.0625 8.265625 
Q 6.59375 17.96875 6.59375 36.375 
Q 6.59375 54.828125 13.0625 64.515625 
Q 19.53125 74.21875 31.78125 74.21875 
z
" id="DejaVuSans-48"/>
       </defs>
       <use xlink:href="#DejaVuSans-8722"/>
       <use x="83.789062" xlink:href="#DejaVuSans-50"/>
       <use x="147.412109" xlink:href="#DejaVuSans-46"/>
       <use x="179.199219" xlink:href="#DejaVuSans-48"/>
      </g>
     </g>
    </g>
    <g id="xtick_2">
     <g id="line2d_3">
      <path clip-path="url(#p778eaff1af)" d="M 82.205824 224.64 
L 82.205824 7.2 
" style="fill:none;stroke:#b0b0b0;stroke-linecap:square;stroke-width:0.8;"/>
     </g>
     <g id="line2d_4">
      <g>
       <use style="stroke:#000000;stroke-width:0.8;" x="82.205824" xlink:href="#me2718153f3" y="224.64"/>
      </g>
     </g>
     <g id="text_2">
      <!-- −1.5 -->
      <g transform="translate(70.064418 239.238437)scale(0.1 -0.1)">
       <defs>
        <path d="M 12.40625 8.296875 
L 28.515625 8.296875 
L 28.515625 63.921875 
L 10.984375 60.40625 
L 10.984375 69.390625 
L 28.421875 72.90625 
L 38.28125 72.90625 
L 38.28125 8.296875 
L 54.390625 8.296875 
L 54.390625 0 
L 12.40625 0 
z
" id="DejaVuSans-49"/>
        <path d="M 10.796875 72.90625 
L 49.515625 72.90625 
L 49.515625 64.59375 
L 19.828125 64.59375 
L 19.828125 46.734375 
Q 21.96875 47.46875 24.109375 47.828125 
Q 26.265625 48.1875 28.421875 48.1875 
Q 40.625 48.1875 47.75 41.5 
Q 54.890625 34.8125 54.890625 23.390625 
Q 54.890625 11.625 47.5625 5.09375 
Q 40.234375 -1.421875 26.90625 -1.421875 
Q 22.3125 -1.421875 17.546875 -0.640625 
Q 12.796875 0.140625 7.71875 1.703125 
L 7.71875 11.625 
Q 12.109375 9.234375 16.796875 8.0625 
Q 21.484375 6.890625 26.703125 6.890625 
Q 35.15625 6.890625 40.078125 11.328125 
Q 45.015625 15.765625 45.015625 23.390625 
Q 45.015625 31 40.078125 35.4375 
Q 35.15625 39.890625 26.703125 39.890625 
Q 22.75 39.890625 18.8125 39.015625 
Q 14.890625 38.140625 10.796875 36.28125 
z
" id="DejaVuSans-53"/>
       </defs>
       <use xlink:href="#DejaVuSans-8722"/>
       <use x="83.789062" xlink:href="#DejaVuSans-49"/>
       <use x="147.412109" xlink:href="#DejaVuSans-46"/>
       <use x="179.199219" xlink:href="#DejaVuSans-53"/>
      </g>
     </g>
    </g>
    <g id="xtick_3">
     <g id="line2d_5">
      <path clip-path="url(#p778eaff1af)" d="M 120.251278 224.64 
L 120.251278 7.2 
" style="fill:none;stroke:#b0b0b0;stroke-linecap:square;stroke-width:0.8;"/>
     </g>
     <g id="line2d_6">
      <g>
       <use style="stroke:#000000;stroke-width:0.8;" x="120.251278" xlink:href="#me2718153f3" y="224.64"/>
      </g>
     </g>
     <g id="text_3">
      <!-- −1.0 -->
      <g transform="translate(108.109872 239.238437)scale(0.1 -0.1)">
       <use xlink:href="#DejaVuSans-8722"/>
       <use x="83.789062" xlink:href="#DejaVuSans-49"/>
       <use x="147.412109" xlink:href="#DejaVuSans-46"/>
       <use x="179.199219" xlink:href="#DejaVuSans-48"/>
      </g>
     </g>
    </g>
    <g id="xtick_4">
     <g id="line2d_7">
      <path clip-path="url(#p778eaff1af)" d="M 158.296733 224.64 
L 158.296733 7.2 
" style="fill:none;stroke:#b0b0b0;stroke-linecap:square;stroke-width:0.8;"/>
     </g>
     <g id="line2d_8">
      <g>
       <use style="stroke:#000000;stroke-width:0.8;" x="158.296733" xlink:href="#me2718153f3" y="224.64"/>
      </g>
     </g>
     <g id="text_4">
      <!-- −0.5 -->
      <g transform="translate(146.155327 239.238437)scale(0.1 -0.1)">
       <use xlink:href="#DejaVuSans-8722"/>
       <use x="83.789062" xlink:href="#DejaVuSans-48"/>
       <use x="147.412109" xlink:href="#DejaVuSans-46"/>
       <use x="179.199219" xlink:href="#DejaVuSans-53"/>
      </g>
     </g>
    </g>
    <g id="xtick_5">
     <g id="line2d_9">
      <path clip-path="url(#p778eaff1af)" d="M 196.342188 224.64 
L 196.342188 7.2 
" style="fill:none;stroke:#b0b0b0;stroke-linecap:square;stroke-width:0.8;"/>
     </g>
     <g id="line2d_10">
      <g>
       <use style="stroke:#000000;stroke-width:0.8;" x="196.342188" xlink:href="#me2718153f3" y="224.64"/>
      </g>
     </g>
     <g id="text_5">
      <!-- 0.0 -->
      <g transform="translate(188.390625 239.238437)scale(0.1 -0.1)">
       <use xlink:href="#DejaVuSans-48"/>
       <use x="63.623047" xlink:href="#DejaVuSans-46"/>
       <use x="95.410156" xlink:href="#DejaVuSans-48"/>
      </g>
     </g>
    </g>
    <g id="xtick_6">
     <g id="line2d_11">
      <path clip-path="url(#p778eaff1af)" d="M 234.387642 224.64 
L 234.387642 7.2 
" style="fill:none;stroke:#b0b0b0;stroke-linecap:square;stroke-width:0.8;"/>
     </g>
     <g id="line2d_12">
      <g>
       <use style="stroke:#000000;stroke-width:0.8;" x="234.387642" xlink:href="#me2718153f3" y="224.64"/>
      </g>
     </g>
     <g id="text_6">
      <!-- 0.5 -->
      <g transform="translate(226.43608 239.238437)scale(0.1 -0.1)">
       <use xlink:href="#DejaVuSans-48"/>
       <use x="63.623047" xlink:href="#DejaVuSans-46"/>
       <use x="95.410156" xlink:href="#DejaVuSans-53"/>
      </g>
     </g>
    </g>
    <g id="xtick_7">
     <g id="line2d_13">
      <path clip-path="url(#p778eaff1af)" d="M 272.433097 224.64 
L 272.433097 7.2 
" style="fill:none;stroke:#b0b0b0;stroke-linecap:square;stroke-width:0.8;"/>
     </g>
     <g id="line2d_14">
      <g>
       <use style="stroke:#000000;stroke-width:0.8;" x="272.433097" xlink:href="#me2718153f3" y="224.64"/>
      </g>
     </g>
     <g id="text_7">
      <!-- 1.0 -->
      <g transform="translate(264.481534 239.238437)scale(0.1 -0.1)">
       <use xlink:href="#DejaVuSans-49"/>
       <use x="63.623047" xlink:href="#DejaVuSans-46"/>
       <use x="95.410156" xlink:href="#DejaVuSans-48"/>
      </g>
     </g>
    </g>
    <g id="xtick_8">
     <g id="line2d_15">
      <path clip-path="url(#p778eaff1af)" d="M 310.478551 224.64 
L 310.478551 7.2 
" style="fill:none;stroke:#b0b0b0;stroke-linecap:square;stroke-width:0.8;"/>
     </g>
     <g id="line2d_16">
      <g>
       <use style="stroke:#000000;stroke-width:0.8;" x="310.478551" xlink:href="#me2718153f3" y="224.64"/>
      </g>
     </g>
     <g id="text_8">
      <!-- 1.5 -->
      <g transform="translate(302.526989 239.238437)scale(0.1 -0.1)">
       <use xlink:href="#DejaVuSans-49"/>
       <use x="63.623047" xlink:href="#DejaVuSans-46"/>
       <use x="95.410156" xlink:href="#DejaVuSans-53"/>
      </g>
     </g>
    </g>
    <g id="xtick_9">
     <g id="line2d_17">
      <path clip-path="url(#p778eaff1af)" d="M 348.524006 224.64 
L 348.524006 7.2 
" style="fill:none;stroke:#b0b0b0;stroke-linecap:square;stroke-width:0.8;"/>
     </g>
     <g id="line2d_18">
      <g>
       <use style="stroke:#000000;stroke-width:0.8;" x="348.524006" xlink:href="#me2718153f3" y="224.64"/>
      </g>
     </g>
     <g id="text_9">
      <!-- 2.0 -->
      <g transform="translate(340.572443 239.238437)scale(0.1 -0.1)">
       <use xlink:href="#DejaVuSans-50"/>
       <use x="63.623047" xlink:href="#DejaVuSans-46"/>
       <use x="95.410156" xlink:href="#DejaVuSans-48"/>
      </g>
     </g>
    </g>
   </g>
   <g id="matplotlib.axis_2">
    <g id="ytick_1">
     <g id="line2d_19">
      <path clip-path="url(#p778eaff1af)" d="M 28.942188 223.818402 
L 363.742188 223.818402 
" style="fill:none;stroke:#b0b0b0;stroke-linecap:square;stroke-width:0.8;"/>
     </g>
     <g id="line2d_20">
      <defs>
       <path d="M 0 0 
L -3.5 0 
" id="mdd4e1a5e19" style="stroke:#000000;stroke-width:0.8;"/>
      </defs>
      <g>
       <use style="stroke:#000000;stroke-width:0.8;" x="28.942188" xlink:href="#mdd4e1a5e19" y="223.818402"/>
      </g>
     </g>
     <g id="text_10">
      <!-- −2 -->
      <g transform="translate(7.2 227.617621)scale(0.1 -0.1)">
       <use xlink:href="#DejaVuSans-8722"/>
       <use x="83.789062" xlink:href="#DejaVuSans-50"/>
      </g>
     </g>
    </g>
    <g id="ytick_2">
     <g id="line2d_21">
      <path clip-path="url(#p778eaff1af)" d="M 28.942188 186.340907 
L 363.742188 186.340907 
" style="fill:none;stroke:#b0b0b0;stroke-linecap:square;stroke-width:0.8;"/>
     </g>
     <g id="line2d_22">
      <g>
       <use style="stroke:#000000;stroke-width:0.8;" x="28.942188" xlink:href="#mdd4e1a5e19" y="186.340907"/>
      </g>
     </g>
     <g id="text_11">
      <!-- −1 -->
      <g transform="translate(7.2 190.140126)scale(0.1 -0.1)">
       <use xlink:href="#DejaVuSans-8722"/>
       <use x="83.789062" xlink:href="#DejaVuSans-49"/>
      </g>
     </g>
    </g>
    <g id="ytick_3">
     <g id="line2d_23">
      <path clip-path="url(#p778eaff1af)" d="M 28.942188 148.863412 
L 363.742188 148.863412 
" style="fill:none;stroke:#b0b0b0;stroke-linecap:square;stroke-width:0.8;"/>
     </g>
     <g id="line2d_24">
      <g>
       <use style="stroke:#000000;stroke-width:0.8;" x="28.942188" xlink:href="#mdd4e1a5e19" y="148.863412"/>
      </g>
     </g>
     <g id="text_12">
      <!-- 0 -->
      <g transform="translate(15.579688 152.662631)scale(0.1 -0.1)">
       <use xlink:href="#DejaVuSans-48"/>
      </g>
     </g>
    </g>
    <g id="ytick_4">
     <g id="line2d_25">
      <path clip-path="url(#p778eaff1af)" d="M 28.942188 111.385917 
L 363.742188 111.385917 
" style="fill:none;stroke:#b0b0b0;stroke-linecap:square;stroke-width:0.8;"/>
     </g>
     <g id="line2d_26">
      <g>
       <use style="stroke:#000000;stroke-width:0.8;" x="28.942188" xlink:href="#mdd4e1a5e19" y="111.385917"/>
      </g>
     </g>
     <g id="text_13">
      <!-- 1 -->
      <g transform="translate(15.579688 115.185136)scale(0.1 -0.1)">
       <use xlink:href="#DejaVuSans-49"/>
      </g>
     </g>
    </g>
    <g id="ytick_5">
     <g id="line2d_27">
      <path clip-path="url(#p778eaff1af)" d="M 28.942188 73.908422 
L 363.742188 73.908422 
" style="fill:none;stroke:#b0b0b0;stroke-linecap:square;stroke-width:0.8;"/>
     </g>
     <g id="line2d_28">
      <g>
       <use style="stroke:#000000;stroke-width:0.8;" x="28.942188" xlink:href="#mdd4e1a5e19" y="73.908422"/>
      </g>
     </g>
     <g id="text_14">
      <!-- 2 -->
      <g transform="translate(15.579688 77.707641)scale(0.1 -0.1)">
       <use xlink:href="#DejaVuSans-50"/>
      </g>
     </g>
    </g>
    <g id="ytick_6">
     <g id="line2d_29">
      <path clip-path="url(#p778eaff1af)" d="M 28.942188 36.430927 
L 363.742188 36.430927 
" style="fill:none;stroke:#b0b0b0;stroke-linecap:square;stroke-width:0.8;"/>
     </g>
     <g id="line2d_30">
      <g>
       <use style="stroke:#000000;stroke-width:0.8;" x="28.942188" xlink:href="#mdd4e1a5e19" y="36.430927"/>
      </g>
     </g>
     <g id="text_15">
      <!-- 3 -->
      <g transform="translate(15.579688 40.230146)scale(0.1 -0.1)">
       <defs>
        <path d="M 40.578125 39.3125 
Q 47.65625 37.796875 51.625 33 
Q 55.609375 28.21875 55.609375 21.1875 
Q 55.609375 10.40625 48.1875 4.484375 
Q 40.765625 -1.421875 27.09375 -1.421875 
Q 22.515625 -1.421875 17.65625 -0.515625 
Q 12.796875 0.390625 7.625 2.203125 
L 7.625 11.71875 
Q 11.71875 9.328125 16.59375 8.109375 
Q 21.484375 6.890625 26.8125 6.890625 
Q 36.078125 6.890625 40.9375 10.546875 
Q 45.796875 14.203125 45.796875 21.1875 
Q 45.796875 27.640625 41.28125 31.265625 
Q 36.765625 34.90625 28.71875 34.90625 
L 20.21875 34.90625 
L 20.21875 43.015625 
L 29.109375 43.015625 
Q 36.375 43.015625 40.234375 45.921875 
Q 44.09375 48.828125 44.09375 54.296875 
Q 44.09375 59.90625 40.109375 62.90625 
Q 36.140625 65.921875 28.71875 65.921875 
Q 24.65625 65.921875 20.015625 65.03125 
Q 15.375 64.15625 9.8125 62.3125 
L 9.8125 71.09375 
Q 15.4375 72.65625 20.34375 73.4375 
Q 25.25 74.21875 29.59375 74.21875 
Q 40.828125 74.21875 47.359375 69.109375 
Q 53.90625 64.015625 53.90625 55.328125 
Q 53.90625 49.265625 50.4375 45.09375 
Q 46.96875 40.921875 40.578125 39.3125 
z
" id="DejaVuSans-51"/>
       </defs>
       <use xlink:href="#DejaVuSans-51"/>
      </g>
     </g>
    </g>
   </g>
   <g id="line2d_31">
    <path clip-path="url(#p778eaff1af)" d="M 44.160369 148.863412 
L 119.104179 148.863412 
L 120.633645 145.298123 
L 123.692576 118.983096 
L 125.222041 107.237347 
L 126.751507 96.384732 
L 128.280972 86.390096 
L 129.810438 77.218985 
L 131.339903 68.837647 
L 132.869369 61.213031 
L 134.398834 54.312784 
L 135.9283 48.105258 
L 137.457765 42.559505 
L 138.987231 37.645275 
L 140.516696 33.333024 
L 142.046162 29.593906 
L 143.575627 26.399776 
L 145.105093 23.723191 
L 146.634558 21.537409 
L 148.164024 19.816389 
L 149.693489 18.53479 
L 151.222955 17.667973 
L 152.75242 17.192001 
L 154.281886 17.083636 
L 155.811352 17.320343 
L 157.340817 17.880286 
L 158.870283 18.742332 
L 160.399748 19.886048 
L 161.929214 21.291702 
L 163.458679 22.940263 
L 164.988145 24.813403 
L 166.51761 26.893491 
L 169.576541 31.607508 
L 172.635472 36.955306 
L 175.694403 42.821095 
L 178.753334 49.1003 
L 183.341731 59.093114 
L 189.459593 73.08655 
L 195.577455 87.417778 
L 197.10692 87.417778 
L 206.283713 66.021961 
L 210.87211 55.699565 
L 215.460506 45.915118 
L 218.519437 39.830251 
L 221.578368 34.209685 
L 224.637299 29.163602 
L 227.69623 24.813403 
L 229.225696 22.940263 
L 230.755161 21.291702 
L 232.284627 19.886048 
L 233.814092 18.742332 
L 235.343558 17.880286 
L 236.873023 17.320343 
L 238.402489 17.083636 
L 239.931955 17.192001 
L 241.46142 17.667973 
L 242.990886 18.53479 
L 244.520351 19.816389 
L 246.049817 21.537409 
L 247.579282 23.723191 
L 249.108748 26.399776 
L 250.638213 29.593906 
L 252.167679 33.333024 
L 253.697144 37.645275 
L 255.22661 42.559505 
L 256.756075 48.105258 
L 258.285541 54.312784 
L 259.815006 61.213031 
L 261.344472 68.837647 
L 262.873937 77.218985 
L 264.403403 86.390096 
L 265.932868 96.384732 
L 267.462334 107.237347 
L 268.991799 118.983096 
L 270.521265 131.657836 
L 272.05073 145.298123 
L 273.580196 148.863412 
L 348.524006 148.863412 
L 348.524006 148.863412 
" style="fill:none;stroke:#000000;stroke-linecap:square;stroke-width:1.5;"/>
   </g>
   <g id="line2d_32">
    <path clip-path="url(#p778eaff1af)" d="M 44.160369 148.863412 
L 47.2193 135.463342 
L 48.748766 129.476038 
L 50.278231 123.93975 
L 51.807697 118.836814 
L 53.337162 114.149914 
L 54.866628 109.862086 
L 56.396093 105.956718 
L 57.925559 102.417545 
L 59.455024 99.228657 
L 60.98449 96.37449 
L 62.513955 93.839834 
L 64.043421 91.609827 
L 65.572886 89.669959 
L 67.102352 88.00607 
L 68.631817 86.604352 
L 70.161283 85.451345 
L 71.690748 84.533941 
L 73.220214 83.839383 
L 74.74968 83.355262 
L 76.279145 83.069524 
L 77.808611 82.97046 
L 79.338076 83.046717 
L 80.867542 83.287288 
L 82.397007 83.68152 
L 83.926473 84.219108 
L 85.455938 84.890098 
L 88.514869 86.594226 
L 91.5738 88.721286 
L 94.632731 91.204269 
L 97.691662 93.981774 
L 102.280059 98.579751 
L 106.868455 103.551547 
L 112.986317 110.530711 
L 119.104179 117.691068 
L 120.633645 118.59017 
L 131.339903 106.133942 
L 137.457765 99.386455 
L 142.046162 94.715508 
L 145.105093 91.873309 
L 148.164024 89.311158 
L 151.222955 87.089054 
L 154.281886 85.272605 
L 155.811352 84.538536 
L 157.340817 83.933024 
L 158.870283 83.465849 
L 160.399748 83.147137 
L 161.929214 82.98737 
L 163.458679 82.997376 
L 164.988145 83.188335 
L 166.51761 83.57178 
L 168.047076 84.15959 
L 169.576541 84.963998 
L 171.106007 85.997587 
L 172.635472 87.273289 
L 174.164938 88.804389 
L 175.694403 90.604519 
L 177.223869 92.687664 
L 178.753334 95.06816 
L 180.2828 97.760692 
L 181.812265 100.780297 
L 183.341731 104.14236 
L 184.871196 107.862619 
L 186.400662 111.957162 
L 187.930127 116.442428 
L 189.459593 121.335204 
L 190.989058 126.65263 
L 192.518524 132.412195 
L 194.047989 138.631742 
L 200.165851 165.314629 
L 201.695317 171.074195 
L 203.224782 176.391621 
L 204.754248 181.284397 
L 206.283713 185.769662 
L 207.813179 189.864205 
L 209.342644 193.584464 
L 210.87211 196.946528 
L 212.401575 199.966132 
L 213.931041 202.658664 
L 215.460506 205.03916 
L 216.989972 207.122306 
L 218.519437 208.922436 
L 220.048903 210.453535 
L 221.578368 211.729237 
L 223.107834 212.762826 
L 224.637299 213.567234 
L 226.166765 214.155044 
L 227.69623 214.538489 
L 229.225696 214.729448 
L 230.755161 214.739454 
L 232.284627 214.579687 
L 233.814092 214.260975 
L 235.343558 213.7938 
L 236.873023 213.188288 
L 239.931955 211.601021 
L 242.990886 209.573193 
L 246.049817 207.173215 
L 249.108748 204.463891 
L 252.167679 201.502413 
L 256.756075 196.698722 
L 262.873937 189.845704 
L 272.05073 179.136654 
L 273.580196 180.035756 
L 284.286454 192.459307 
L 288.874851 197.524031 
L 293.463247 202.263505 
L 296.522178 205.166999 
L 299.581109 207.804568 
L 302.64004 210.117615 
L 305.698971 212.041936 
L 308.757902 213.507716 
L 310.287368 214.045304 
L 311.816833 214.439536 
L 313.346299 214.680107 
L 314.875764 214.756364 
L 316.40523 214.6573 
L 317.934695 214.371562 
L 319.464161 213.887441 
L 320.993627 213.192883 
L 322.523092 212.275479 
L 324.052558 211.122472 
L 325.582023 209.720754 
L 327.111489 208.056865 
L 328.640954 206.116997 
L 330.17042 203.88699 
L 331.699885 201.352334 
L 333.229351 198.498167 
L 334.758816 195.309279 
L 336.288282 191.770106 
L 337.817747 187.864738 
L 339.347213 183.57691 
L 340.876678 178.89001 
L 342.406144 173.787074 
L 343.935609 168.250786 
L 345.465075 162.263482 
L 346.99454 155.807146 
L 348.524006 148.863412 
L 348.524006 148.863412 
" style="fill:none;stroke:#000000;stroke-linecap:square;stroke-width:1.5;"/>
   </g>
   <g id="patch_3">
    <path d="M 28.942188 224.64 
L 28.942188 7.2 
" style="fill:none;stroke:#000000;stroke-linecap:square;stroke-linejoin:miter;stroke-width:0.8;"/>
   </g>
   <g id="patch_4">
    <path d="M 363.742188 224.64 
L 363.742188 7.2 
" style="fill:none;stroke:#000000;stroke-linecap:square;stroke-linejoin:miter;stroke-width:0.8;"/>
   </g>
   <g id="patch_5">
    <path d="M 28.942188 224.64 
L 363.742188 224.64 
" style="fill:none;stroke:#000000;stroke-linecap:square;stroke-linejoin:miter;stroke-width:0.8;"/>
   </g>
   <g id="patch_6">
    <path d="M 28.942188 7.2 
L 363.742188 7.2 
" style="fill:none;stroke:#000000;stroke-linecap:square;stroke-linejoin:miter;stroke-width:0.8;"/>
   </g>
  </g>
 </g>
 <defs>
  <clipPath id="p778eaff1af">
   <rect height="217.44" width="334.8" x="28.942188" y="7.2"/>
  </clipPath>
 </defs>
</svg>
