<?xml version="1.0" encoding="utf-8" standalone="no"?>
<!DOCTYPE svg PUBLIC "-//W3C//DTD SVG 1.1//EN"
  "http://www.w3.org/Graphics/SVG/1.1/DTD/svg11.dtd">
<!-- Created with matplotlib (https://matplotlib.org/) -->
<svg height="263.63625pt" version="1.1" viewBox="0 0 386.845313 263.63625" width="386.845313pt" xmlns="http://www.w3.org/2000/svg" xmlns:xlink="http://www.w3.org/1999/xlink">
 <metadata>
  <rdf:RDF xmlns:cc="http://creativecommons.org/ns#" xmlns:dc="http://purl.org/dc/elements/1.1/" xmlns:rdf="http://www.w3.org/1999/02/22-rdf-syntax-ns#">
   <cc:Work>
    <dc:type rdf:resource="http://purl.org/dc/dcmitype/StillImage"/>
    <dc:date>2021-10-06T11:30:44.164252</dc:date>
    <dc:format>image/svg+xml</dc:format>
    <dc:creator>
     <cc:Agent>
      <dc:title>Matplotlib v3.3.4, https://matplotlib.org/</dc:title>
     </cc:Agent>
    </dc:creator>
   </cc:Work>
  </rdf:RDF>
 </metadata>
 <defs>
  <style type="text/css">*{stroke-linecap:butt;stroke-linejoin:round;}</style>
 </defs>
 <g id="figure_1">
  <g id="patch_1">
   <path d="M 0 263.63625 
L 386.845313 263.63625 
L 386.845313 0 
L 0 0 
z
" style="fill:none;"/>
  </g>
  <g id="axes_1">
   <g id="patch_2">
    <path d="M 44.845313 239.758125 
L 379.645313 239.758125 
L 379.645313 22.318125 
L 44.845313 22.318125 
z
" style="fill:#ffffff;"/>
   </g>
   <g id="matplotlib.axis_1">
    <g id="xtick_1">
     <g id="line2d_1">
      <path clip-path="url(#p939172e9c8)" d="M 60.063494 239.758125 
L 60.063494 22.318125 
" style="fill:none;stroke:#b0b0b0;stroke-linecap:square;stroke-width:0.8;"/>
     </g>
     <g id="line2d_2">
      <defs>
       <path d="M 0 0 
L 0 3.5 
" id="me466f4c94d" style="stroke:#000000;stroke-width:0.8;"/>
      </defs>
      <g>
       <use style="stroke:#000000;stroke-width:0.8;" x="60.063494" xlink:href="#me466f4c94d" y="239.758125"/>
      </g>
     </g>
     <g id="text_1">
      <!-- 0 -->
      <g transform="translate(56.882244 254.356563)scale(0.1 -0.1)">
       <defs>
        <path d="M 31.78125 66.40625 
Q 24.171875 66.40625 20.328125 58.90625 
Q 16.5 51.421875 16.5 36.375 
Q 16.5 21.390625 20.328125 13.890625 
Q 24.171875 6.390625 31.78125 6.390625 
Q 39.453125 6.390625 43.28125 13.890625 
Q 47.125 21.390625 47.125 36.375 
Q 47.125 51.421875 43.28125 58.90625 
Q 39.453125 66.40625 31.78125 66.40625 
z
M 31.78125 74.21875 
Q 44.046875 74.21875 50.515625 64.515625 
Q 56.984375 54.828125 56.984375 36.375 
Q 56.984375 17.96875 50.515625 8.265625 
Q 44.046875 -1.421875 31.78125 -1.421875 
Q 19.53125 -1.421875 13.0625 8.265625 
Q 6.59375 17.96875 6.59375 36.375 
Q 6.59375 54.828125 13.0625 64.515625 
Q 19.53125 74.21875 31.78125 74.21875 
z
" id="DejaVuSans-48"/>
       </defs>
       <use xlink:href="#DejaVuSans-48"/>
      </g>
     </g>
    </g>
    <g id="xtick_2">
     <g id="line2d_3">
      <path clip-path="url(#p939172e9c8)" d="M 110.790767 239.758125 
L 110.790767 22.318125 
" style="fill:none;stroke:#b0b0b0;stroke-linecap:square;stroke-width:0.8;"/>
     </g>
     <g id="line2d_4">
      <g>
       <use style="stroke:#000000;stroke-width:0.8;" x="110.790767" xlink:href="#me466f4c94d" y="239.758125"/>
      </g>
     </g>
     <g id="text_2">
      <!-- 10 -->
      <g transform="translate(104.428267 254.356563)scale(0.1 -0.1)">
       <defs>
        <path d="M 12.40625 8.296875 
L 28.515625 8.296875 
L 28.515625 63.921875 
L 10.984375 60.40625 
L 10.984375 69.390625 
L 28.421875 72.90625 
L 38.28125 72.90625 
L 38.28125 8.296875 
L 54.390625 8.296875 
L 54.390625 0 
L 12.40625 0 
z
" id="DejaVuSans-49"/>
       </defs>
       <use xlink:href="#DejaVuSans-49"/>
       <use x="63.623047" xlink:href="#DejaVuSans-48"/>
      </g>
     </g>
    </g>
    <g id="xtick_3">
     <g id="line2d_5">
      <path clip-path="url(#p939172e9c8)" d="M 161.51804 239.758125 
L 161.51804 22.318125 
" style="fill:none;stroke:#b0b0b0;stroke-linecap:square;stroke-width:0.8;"/>
     </g>
     <g id="line2d_6">
      <g>
       <use style="stroke:#000000;stroke-width:0.8;" x="161.51804" xlink:href="#me466f4c94d" y="239.758125"/>
      </g>
     </g>
     <g id="text_3">
      <!-- 20 -->
      <g transform="translate(155.15554 254.356563)scale(0.1 -0.1)">
       <defs>
        <path d="M 19.1875 8.296875 
L 53.609375 8.296875 
L 53.609375 0 
L 7.328125 0 
L 7.328125 8.296875 
Q 12.9375 14.109375 22.625 23.890625 
Q 32.328125 33.6875 34.8125 36.53125 
Q 39.546875 41.84375 41.421875 45.53125 
Q 43.3125 49.21875 43.3125 52.78125 
Q 43.3125 58.59375 39.234375 62.25 
Q 35.15625 65.921875 28.609375 65.921875 
Q 23.96875 65.921875 18.8125 64.3125 
Q 13.671875 62.703125 7.8125 59.421875 
L 7.8125 69.390625 
Q 13.765625 71.78125 18.9375 73 
Q 24.125 74.21875 28.421875 74.21875 
Q 39.75 74.21875 46.484375 68.546875 
Q 53.21875 62.890625 53.21875 53.421875 
Q 53.21875 48.921875 51.53125 44.890625 
Q 49.859375 40.875 45.40625 35.40625 
Q 44.1875 33.984375 37.640625 27.21875 
Q 31.109375 20.453125 19.1875 8.296875 
z
" id="DejaVuSans-50"/>
       </defs>
       <use xlink:href="#DejaVuSans-50"/>
       <use x="63.623047" xlink:href="#DejaVuSans-48"/>
      </g>
     </g>
    </g>
    <g id="xtick_4">
     <g id="line2d_7">
      <path clip-path="url(#p939172e9c8)" d="M 212.245313 239.758125 
L 212.245313 22.318125 
" style="fill:none;stroke:#b0b0b0;stroke-linecap:square;stroke-width:0.8;"/>
     </g>
     <g id="line2d_8">
      <g>
       <use style="stroke:#000000;stroke-width:0.8;" x="212.245313" xlink:href="#me466f4c94d" y="239.758125"/>
      </g>
     </g>
     <g id="text_4">
      <!-- 30 -->
      <g transform="translate(205.882813 254.356563)scale(0.1 -0.1)">
       <defs>
        <path d="M 40.578125 39.3125 
Q 47.65625 37.796875 51.625 33 
Q 55.609375 28.21875 55.609375 21.1875 
Q 55.609375 10.40625 48.1875 4.484375 
Q 40.765625 -1.421875 27.09375 -1.421875 
Q 22.515625 -1.421875 17.65625 -0.515625 
Q 12.796875 0.390625 7.625 2.203125 
L 7.625 11.71875 
Q 11.71875 9.328125 16.59375 8.109375 
Q 21.484375 6.890625 26.8125 6.890625 
Q 36.078125 6.890625 40.9375 10.546875 
Q 45.796875 14.203125 45.796875 21.1875 
Q 45.796875 27.640625 41.28125 31.265625 
Q 36.765625 34.90625 28.71875 34.90625 
L 20.21875 34.90625 
L 20.21875 43.015625 
L 29.109375 43.015625 
Q 36.375 43.015625 40.234375 45.921875 
Q 44.09375 48.828125 44.09375 54.296875 
Q 44.09375 59.90625 40.109375 62.90625 
Q 36.140625 65.921875 28.71875 65.921875 
Q 24.65625 65.921875 20.015625 65.03125 
Q 15.375 64.15625 9.8125 62.3125 
L 9.8125 71.09375 
Q 15.4375 72.65625 20.34375 73.4375 
Q 25.25 74.21875 29.59375 74.21875 
Q 40.828125 74.21875 47.359375 69.109375 
Q 53.90625 64.015625 53.90625 55.328125 
Q 53.90625 49.265625 50.4375 45.09375 
Q 46.96875 40.921875 40.578125 39.3125 
z
" id="DejaVuSans-51"/>
       </defs>
       <use xlink:href="#DejaVuSans-51"/>
       <use x="63.623047" xlink:href="#DejaVuSans-48"/>
      </g>
     </g>
    </g>
    <g id="xtick_5">
     <g id="line2d_9">
      <path clip-path="url(#p939172e9c8)" d="M 262.972585 239.758125 
L 262.972585 22.318125 
" style="fill:none;stroke:#b0b0b0;stroke-linecap:square;stroke-width:0.8;"/>
     </g>
     <g id="line2d_10">
      <g>
       <use style="stroke:#000000;stroke-width:0.8;" x="262.972585" xlink:href="#me466f4c94d" y="239.758125"/>
      </g>
     </g>
     <g id="text_5">
      <!-- 40 -->
      <g transform="translate(256.610085 254.356563)scale(0.1 -0.1)">
       <defs>
        <path d="M 37.796875 64.3125 
L 12.890625 25.390625 
L 37.796875 25.390625 
z
M 35.203125 72.90625 
L 47.609375 72.90625 
L 47.609375 25.390625 
L 58.015625 25.390625 
L 58.015625 17.1875 
L 47.609375 17.1875 
L 47.609375 0 
L 37.796875 0 
L 37.796875 17.1875 
L 4.890625 17.1875 
L 4.890625 26.703125 
z
" id="DejaVuSans-52"/>
       </defs>
       <use xlink:href="#DejaVuSans-52"/>
       <use x="63.623047" xlink:href="#DejaVuSans-48"/>
      </g>
     </g>
    </g>
    <g id="xtick_6">
     <g id="line2d_11">
      <path clip-path="url(#p939172e9c8)" d="M 313.699858 239.758125 
L 313.699858 22.318125 
" style="fill:none;stroke:#b0b0b0;stroke-linecap:square;stroke-width:0.8;"/>
     </g>
     <g id="line2d_12">
      <g>
       <use style="stroke:#000000;stroke-width:0.8;" x="313.699858" xlink:href="#me466f4c94d" y="239.758125"/>
      </g>
     </g>
     <g id="text_6">
      <!-- 50 -->
      <g transform="translate(307.337358 254.356563)scale(0.1 -0.1)">
       <defs>
        <path d="M 10.796875 72.90625 
L 49.515625 72.90625 
L 49.515625 64.59375 
L 19.828125 64.59375 
L 19.828125 46.734375 
Q 21.96875 47.46875 24.109375 47.828125 
Q 26.265625 48.1875 28.421875 48.1875 
Q 40.625 48.1875 47.75 41.5 
Q 54.890625 34.8125 54.890625 23.390625 
Q 54.890625 11.625 47.5625 5.09375 
Q 40.234375 -1.421875 26.90625 -1.421875 
Q 22.3125 -1.421875 17.546875 -0.640625 
Q 12.796875 0.140625 7.71875 1.703125 
L 7.71875 11.625 
Q 12.109375 9.234375 16.796875 8.0625 
Q 21.484375 6.890625 26.703125 6.890625 
Q 35.15625 6.890625 40.078125 11.328125 
Q 45.015625 15.765625 45.015625 23.390625 
Q 45.015625 31 40.078125 35.4375 
Q 35.15625 39.890625 26.703125 39.890625 
Q 22.75 39.890625 18.8125 39.015625 
Q 14.890625 38.140625 10.796875 36.28125 
z
" id="DejaVuSans-53"/>
       </defs>
       <use xlink:href="#DejaVuSans-53"/>
       <use x="63.623047" xlink:href="#DejaVuSans-48"/>
      </g>
     </g>
    </g>
    <g id="xtick_7">
     <g id="line2d_13">
      <path clip-path="url(#p939172e9c8)" d="M 364.427131 239.758125 
L 364.427131 22.318125 
" style="fill:none;stroke:#b0b0b0;stroke-linecap:square;stroke-width:0.8;"/>
     </g>
     <g id="line2d_14">
      <g>
       <use style="stroke:#000000;stroke-width:0.8;" x="364.427131" xlink:href="#me466f4c94d" y="239.758125"/>
      </g>
     </g>
     <g id="text_7">
      <!-- 60 -->
      <g transform="translate(358.064631 254.356563)scale(0.1 -0.1)">
       <defs>
        <path d="M 33.015625 40.375 
Q 26.375 40.375 22.484375 35.828125 
Q 18.609375 31.296875 18.609375 23.390625 
Q 18.609375 15.53125 22.484375 10.953125 
Q 26.375 6.390625 33.015625 6.390625 
Q 39.65625 6.390625 43.53125 10.953125 
Q 47.40625 15.53125 47.40625 23.390625 
Q 47.40625 31.296875 43.53125 35.828125 
Q 39.65625 40.375 33.015625 40.375 
z
M 52.59375 71.296875 
L 52.59375 62.3125 
Q 48.875 64.0625 45.09375 64.984375 
Q 41.3125 65.921875 37.59375 65.921875 
Q 27.828125 65.921875 22.671875 59.328125 
Q 17.53125 52.734375 16.796875 39.40625 
Q 19.671875 43.65625 24.015625 45.921875 
Q 28.375 48.1875 33.59375 48.1875 
Q 44.578125 48.1875 50.953125 41.515625 
Q 57.328125 34.859375 57.328125 23.390625 
Q 57.328125 12.15625 50.6875 5.359375 
Q 44.046875 -1.421875 33.015625 -1.421875 
Q 20.359375 -1.421875 13.671875 8.265625 
Q 6.984375 17.96875 6.984375 36.375 
Q 6.984375 53.65625 15.1875 63.9375 
Q 23.390625 74.21875 37.203125 74.21875 
Q 40.921875 74.21875 44.703125 73.484375 
Q 48.484375 72.75 52.59375 71.296875 
z
" id="DejaVuSans-54"/>
       </defs>
       <use xlink:href="#DejaVuSans-54"/>
       <use x="63.623047" xlink:href="#DejaVuSans-48"/>
      </g>
     </g>
    </g>
   </g>
   <g id="matplotlib.axis_2">
    <g id="ytick_1">
     <g id="line2d_15">
      <path clip-path="url(#p939172e9c8)" d="M 44.845313 229.874489 
L 379.645313 229.874489 
" style="fill:none;stroke:#b0b0b0;stroke-linecap:square;stroke-width:0.8;"/>
     </g>
     <g id="line2d_16">
      <defs>
       <path d="M 0 0 
L -3.5 0 
" id="mceb4353004" style="stroke:#000000;stroke-width:0.8;"/>
      </defs>
      <g>
       <use style="stroke:#000000;stroke-width:0.8;" x="44.845313" xlink:href="#mceb4353004" y="229.874489"/>
      </g>
     </g>
     <g id="text_8">
      <!-- −1.00 -->
      <g transform="translate(7.2 233.673707)scale(0.1 -0.1)">
       <defs>
        <path d="M 10.59375 35.5 
L 73.1875 35.5 
L 73.1875 27.203125 
L 10.59375 27.203125 
z
" id="DejaVuSans-8722"/>
        <path d="M 10.6875 12.40625 
L 21 12.40625 
L 21 0 
L 10.6875 0 
z
" id="DejaVuSans-46"/>
       </defs>
       <use xlink:href="#DejaVuSans-8722"/>
       <use x="83.789062" xlink:href="#DejaVuSans-49"/>
       <use x="147.412109" xlink:href="#DejaVuSans-46"/>
       <use x="179.199219" xlink:href="#DejaVuSans-48"/>
       <use x="242.822266" xlink:href="#DejaVuSans-48"/>
      </g>
     </g>
    </g>
    <g id="ytick_2">
     <g id="line2d_17">
      <path clip-path="url(#p939172e9c8)" d="M 44.845313 205.160496 
L 379.645313 205.160496 
" style="fill:none;stroke:#b0b0b0;stroke-linecap:square;stroke-width:0.8;"/>
     </g>
     <g id="line2d_18">
      <g>
       <use style="stroke:#000000;stroke-width:0.8;" x="44.845313" xlink:href="#mceb4353004" y="205.160496"/>
      </g>
     </g>
     <g id="text_9">
      <!-- −0.75 -->
      <g transform="translate(7.2 208.959715)scale(0.1 -0.1)">
       <defs>
        <path d="M 8.203125 72.90625 
L 55.078125 72.90625 
L 55.078125 68.703125 
L 28.609375 0 
L 18.3125 0 
L 43.21875 64.59375 
L 8.203125 64.59375 
z
" id="DejaVuSans-55"/>
       </defs>
       <use xlink:href="#DejaVuSans-8722"/>
       <use x="83.789062" xlink:href="#DejaVuSans-48"/>
       <use x="147.412109" xlink:href="#DejaVuSans-46"/>
       <use x="179.199219" xlink:href="#DejaVuSans-55"/>
       <use x="242.822266" xlink:href="#DejaVuSans-53"/>
      </g>
     </g>
    </g>
    <g id="ytick_3">
     <g id="line2d_19">
      <path clip-path="url(#p939172e9c8)" d="M 44.845313 180.446503 
L 379.645313 180.446503 
" style="fill:none;stroke:#b0b0b0;stroke-linecap:square;stroke-width:0.8;"/>
     </g>
     <g id="line2d_20">
      <g>
       <use style="stroke:#000000;stroke-width:0.8;" x="44.845313" xlink:href="#mceb4353004" y="180.446503"/>
      </g>
     </g>
     <g id="text_10">
      <!-- −0.50 -->
      <g transform="translate(7.2 184.245722)scale(0.1 -0.1)">
       <use xlink:href="#DejaVuSans-8722"/>
       <use x="83.789062" xlink:href="#DejaVuSans-48"/>
       <use x="147.412109" xlink:href="#DejaVuSans-46"/>
       <use x="179.199219" xlink:href="#DejaVuSans-53"/>
       <use x="242.822266" xlink:href="#DejaVuSans-48"/>
      </g>
     </g>
    </g>
    <g id="ytick_4">
     <g id="line2d_21">
      <path clip-path="url(#p939172e9c8)" d="M 44.845313 155.73251 
L 379.645313 155.73251 
" style="fill:none;stroke:#b0b0b0;stroke-linecap:square;stroke-width:0.8;"/>
     </g>
     <g id="line2d_22">
      <g>
       <use style="stroke:#000000;stroke-width:0.8;" x="44.845313" xlink:href="#mceb4353004" y="155.73251"/>
      </g>
     </g>
     <g id="text_11">
      <!-- −0.25 -->
      <g transform="translate(7.2 159.531729)scale(0.1 -0.1)">
       <use xlink:href="#DejaVuSans-8722"/>
       <use x="83.789062" xlink:href="#DejaVuSans-48"/>
       <use x="147.412109" xlink:href="#DejaVuSans-46"/>
       <use x="179.199219" xlink:href="#DejaVuSans-50"/>
       <use x="242.822266" xlink:href="#DejaVuSans-53"/>
      </g>
     </g>
    </g>
    <g id="ytick_5">
     <g id="line2d_23">
      <path clip-path="url(#p939172e9c8)" d="M 44.845313 131.018518 
L 379.645313 131.018518 
" style="fill:none;stroke:#b0b0b0;stroke-linecap:square;stroke-width:0.8;"/>
     </g>
     <g id="line2d_24">
      <g>
       <use style="stroke:#000000;stroke-width:0.8;" x="44.845313" xlink:href="#mceb4353004" y="131.018518"/>
      </g>
     </g>
     <g id="text_12">
      <!-- 0.00 -->
      <g transform="translate(15.579688 134.817736)scale(0.1 -0.1)">
       <use xlink:href="#DejaVuSans-48"/>
       <use x="63.623047" xlink:href="#DejaVuSans-46"/>
       <use x="95.410156" xlink:href="#DejaVuSans-48"/>
       <use x="159.033203" xlink:href="#DejaVuSans-48"/>
      </g>
     </g>
    </g>
    <g id="ytick_6">
     <g id="line2d_25">
      <path clip-path="url(#p939172e9c8)" d="M 44.845313 106.304525 
L 379.645313 106.304525 
" style="fill:none;stroke:#b0b0b0;stroke-linecap:square;stroke-width:0.8;"/>
     </g>
     <g id="line2d_26">
      <g>
       <use style="stroke:#000000;stroke-width:0.8;" x="44.845313" xlink:href="#mceb4353004" y="106.304525"/>
      </g>
     </g>
     <g id="text_13">
      <!-- 0.25 -->
      <g transform="translate(15.579688 110.103744)scale(0.1 -0.1)">
       <use xlink:href="#DejaVuSans-48"/>
       <use x="63.623047" xlink:href="#DejaVuSans-46"/>
       <use x="95.410156" xlink:href="#DejaVuSans-50"/>
       <use x="159.033203" xlink:href="#DejaVuSans-53"/>
      </g>
     </g>
    </g>
    <g id="ytick_7">
     <g id="line2d_27">
      <path clip-path="url(#p939172e9c8)" d="M 44.845313 81.590532 
L 379.645313 81.590532 
" style="fill:none;stroke:#b0b0b0;stroke-linecap:square;stroke-width:0.8;"/>
     </g>
     <g id="line2d_28">
      <g>
       <use style="stroke:#000000;stroke-width:0.8;" x="44.845313" xlink:href="#mceb4353004" y="81.590532"/>
      </g>
     </g>
     <g id="text_14">
      <!-- 0.50 -->
      <g transform="translate(15.579688 85.389751)scale(0.1 -0.1)">
       <use xlink:href="#DejaVuSans-48"/>
       <use x="63.623047" xlink:href="#DejaVuSans-46"/>
       <use x="95.410156" xlink:href="#DejaVuSans-53"/>
       <use x="159.033203" xlink:href="#DejaVuSans-48"/>
      </g>
     </g>
    </g>
    <g id="ytick_8">
     <g id="line2d_29">
      <path clip-path="url(#p939172e9c8)" d="M 44.845313 56.876539 
L 379.645313 56.876539 
" style="fill:none;stroke:#b0b0b0;stroke-linecap:square;stroke-width:0.8;"/>
     </g>
     <g id="line2d_30">
      <g>
       <use style="stroke:#000000;stroke-width:0.8;" x="44.845313" xlink:href="#mceb4353004" y="56.876539"/>
      </g>
     </g>
     <g id="text_15">
      <!-- 0.75 -->
      <g transform="translate(15.579688 60.675758)scale(0.1 -0.1)">
       <use xlink:href="#DejaVuSans-48"/>
       <use x="63.623047" xlink:href="#DejaVuSans-46"/>
       <use x="95.410156" xlink:href="#DejaVuSans-55"/>
       <use x="159.033203" xlink:href="#DejaVuSans-53"/>
      </g>
     </g>
    </g>
    <g id="ytick_9">
     <g id="line2d_31">
      <path clip-path="url(#p939172e9c8)" d="M 44.845313 32.162547 
L 379.645313 32.162547 
" style="fill:none;stroke:#b0b0b0;stroke-linecap:square;stroke-width:0.8;"/>
     </g>
     <g id="line2d_32">
      <g>
       <use style="stroke:#000000;stroke-width:0.8;" x="44.845313" xlink:href="#mceb4353004" y="32.162547"/>
      </g>
     </g>
     <g id="text_16">
      <!-- 1.00 -->
      <g transform="translate(15.579688 35.961765)scale(0.1 -0.1)">
       <use xlink:href="#DejaVuSans-49"/>
       <use x="63.623047" xlink:href="#DejaVuSans-46"/>
       <use x="95.410156" xlink:href="#DejaVuSans-48"/>
       <use x="159.033203" xlink:href="#DejaVuSans-48"/>
      </g>
     </g>
    </g>
   </g>
   <g id="line2d_33">
    <path clip-path="url(#p939172e9c8)" d="M 60.063494 229.874489 
L 60.368163 228.895488 
L 60.672831 225.978036 
L 60.977499 221.18039 
L 61.586836 206.363292 
L 62.196172 185.621285 
L 63.414846 133.287788 
L 64.633519 80.44339 
L 65.547524 50.465859 
L 66.15686 38.182936 
L 66.461529 34.759603 
L 66.766197 33.24726 
L 67.070865 33.672584 
L 67.375534 36.023532 
L 67.680202 40.24966 
L 68.289539 53.940887 
L 68.898875 73.634154 
L 69.81288 110.866465 
L 71.64089 187.888056 
L 72.250227 206.860436 
L 72.859563 219.745437 
L 73.164231 223.578812 
L 73.4689 225.567727 
L 73.773568 225.679397 
L 74.078236 223.918614 
L 74.382905 220.327515 
L 74.992241 208.002999 
L 75.601578 189.734536 
L 76.515583 154.546128 
L 78.343593 80.152524 
L 78.952929 61.354256 
L 79.562266 48.223335 
L 79.866934 44.107842 
L 80.171602 41.733545 
L 80.476271 41.137721 
L 80.780939 42.321937 
L 81.085607 45.252215 
L 81.694944 56.043344 
L 82.304281 72.579101 
L 83.218285 105.051245 
L 85.350964 184.797053 
L 85.9603 200.498342 
L 86.569637 210.514663 
L 86.874305 213.152113 
L 87.178973 214.145383 
L 87.483642 213.488027 
L 87.78831 211.206645 
L 88.092978 207.360081 
L 88.702315 195.358752 
L 89.311652 178.529984 
L 90.530325 136.277925 
L 91.748998 94.013742 
L 92.663003 70.21705 
L 93.27234 60.465557 
L 93.577008 57.713611 
L 93.881676 56.439857 
L 94.186344 56.653617 
L 94.491013 58.334303 
L 94.795681 61.432153 
L 95.405018 71.542858 
L 96.014354 86.0676 
L 97.233027 123.147112 
L 98.756369 168.844149 
L 99.365706 182.298749 
L 99.975042 191.377974 
L 100.279711 194.075034 
L 100.584379 195.486883 
L 100.889047 195.603762 
L 101.193715 194.442132 
L 101.498384 192.043969 
L 102.10772 183.825791 
L 102.717057 171.737675 
L 103.631062 148.751619 
L 105.459072 101.411993 
L 106.068408 89.780128 
L 106.677745 81.791828 
L 106.982413 79.333195 
L 107.287082 77.945226 
L 107.59175 77.635335 
L 107.896418 78.388881 
L 108.201086 80.169865 
L 108.810423 86.570575 
L 109.41976 96.175114 
L 110.333765 114.591218 
L 112.161774 152.648587 
L 112.771111 162.023442 
L 113.380448 168.50647 
L 113.685116 170.536184 
L 113.989784 171.725386 
L 114.294453 172.071996 
L 114.599121 171.591469 
L 114.903789 170.316055 
L 115.513126 165.586676 
L 116.122462 158.428757 
L 117.341136 139.787431 
L 118.559809 120.882361 
L 119.473814 110.114241 
L 120.08315 105.530849 
L 120.387819 104.11991 
L 120.692487 103.310038 
L 120.997155 103.094907 
L 121.301824 103.45541 
L 121.606492 104.360504 
L 122.215828 107.627345 
L 122.825165 112.454869 
L 124.043838 124.576046 
L 125.262512 136.167292 
L 125.871848 140.559929 
L 126.481185 143.609967 
L 127.090521 145.199112 
L 127.39519 145.450964 
L 127.699858 145.361791 
L 128.004526 144.957254 
L 128.613863 143.338153 
L 129.527868 139.519551 
L 131.051209 132.552943 
L 131.660546 130.511023 
L 132.269883 129.209213 
L 132.574551 128.859191 
L 132.879219 128.707591 
L 133.183887 128.743942 
L 133.488556 128.951231 
L 134.097892 129.78195 
L 136.23057 133.551187 
L 136.535239 133.731878 
L 136.839907 133.73648 
L 137.144575 133.548099 
L 137.449244 133.156425 
L 138.05858 131.757586 
L 138.667917 129.602443 
L 139.581922 125.36722 
L 140.800595 119.489107 
L 141.409932 117.299594 
L 142.019268 116.101062 
L 142.323937 115.967858 
L 142.628605 116.183245 
L 142.933273 116.765945 
L 143.237941 117.725902 
L 143.847278 120.769972 
L 144.456615 125.201607 
L 145.37062 133.822197 
L 147.198629 152.190035 
L 147.807966 156.526565 
L 148.417303 159.063389 
L 148.721971 159.529673 
L 149.026639 159.413395 
L 149.331308 158.693398 
L 149.635976 157.361389 
L 150.245313 152.89587 
L 150.854649 146.223485 
L 151.768654 133.047719 
L 153.901332 100.010001 
L 154.510669 93.67234 
L 155.120005 90.050129 
L 155.424674 89.410919 
L 155.729342 89.605337 
L 156.03401 90.651901 
L 156.338679 92.551487 
L 156.948015 98.822739 
L 157.557352 108.066106 
L 158.471357 126.076595 
L 160.604035 170.477131 
L 161.213371 178.96803 
L 161.822708 183.916622 
L 162.127376 184.877984 
L 162.432045 184.770622 
L 162.736713 183.575878 
L 163.041381 181.297261 
L 163.650718 173.614724 
L 164.260055 162.19492 
L 165.174059 139.880945 
L 167.306738 84.672336 
L 167.916074 73.94953 
L 168.525411 67.488544 
L 168.830079 66.075093 
L 169.134747 65.943541 
L 169.439416 67.11523 
L 169.744084 69.585192 
L 170.353421 78.267531 
L 170.962757 91.428518 
L 171.876762 117.416482 
L 174.00944 182.570297 
L 174.618777 195.524113 
L 175.228113 203.618801 
L 175.532782 205.588986 
L 175.83745 206.091347 
L 176.142118 205.099653 
L 176.446787 202.61765 
L 177.056123 193.348386 
L 177.66546 178.906661 
L 178.579465 149.951854 
L 180.712143 76.003307 
L 181.32148 60.902272 
L 181.930816 51.124625 
L 182.235484 48.523393 
L 182.540153 47.544126 
L 182.844821 48.2197 
L 183.149489 50.549914 
L 183.454158 54.501237 
L 184.063494 66.969632 
L 184.672831 84.722704 
L 185.586836 118.233099 
L 187.414846 187.755072 
L 188.024182 204.836243 
L 188.633519 216.269334 
L 188.938187 219.541715 
L 189.242855 221.073374 
L 189.547524 220.823569 
L 189.852192 218.787086 
L 190.15686 214.994551 
L 190.766197 202.439753 
L 191.375534 184.087063 
L 192.289539 148.857086 
L 194.117548 74.243479 
L 194.726885 55.429955 
L 195.336222 42.447557 
L 195.64089 38.500713 
L 195.945558 36.375407 
L 196.250227 36.120874 
L 196.554895 37.749064 
L 196.859563 41.23427 
L 197.4689 53.487669 
L 198.078236 71.955527 
L 198.992241 108.076288 
L 201.124919 197.018194 
L 201.734256 214.480502 
L 202.343593 225.422002 
L 202.648261 228.145683 
L 202.952929 228.948679 
L 203.257598 227.811568 
L 203.562266 224.753685 
L 204.171602 213.143982 
L 204.780939 195.017796 
L 205.694944 158.830798 
L 207.827622 67.454645 
L 208.436959 48.920518 
L 209.046295 36.850265 
L 209.350964 33.560878 
L 209.655632 32.201761 
L 209.9603 32.799896 
L 210.264969 35.343174 
L 210.569637 39.780651 
L 211.178973 53.947149 
L 211.78831 74.172834 
L 213.006983 126.022896 
L 214.530325 190.719175 
L 215.139661 209.936368 
L 215.748998 222.882056 
L 216.053666 226.667657 
L 216.358335 228.553501 
L 216.663003 228.505602 
L 216.967671 226.528623 
L 217.27234 222.665717 
L 217.881676 209.640781 
L 218.491013 190.491501 
L 219.405018 153.758244 
L 221.233027 76.381949 
L 221.842364 56.921239 
L 222.451701 43.416508 
L 222.756369 39.238992 
L 223.061037 36.892001 
L 223.365706 36.415352 
L 223.670374 37.811393 
L 223.975042 41.045096 
L 224.584379 52.704293 
L 225.193715 70.415301 
L 226.10772 105.05893 
L 227.93573 179.650596 
L 228.545067 198.877727 
L 229.154403 212.571843 
L 229.459072 217.005557 
L 229.76374 219.714207 
L 230.068408 220.653919 
L 230.373077 219.816381 
L 230.677745 217.228813 
L 230.982413 212.953207 
L 231.59175 199.750379 
L 232.201086 181.3281 
L 233.41976 135.176336 
L 234.638433 89.046754 
L 235.552438 63.116771 
L 236.161774 52.553028 
L 236.466443 49.612481 
L 236.771111 48.304447 
L 237.075779 48.641572 
L 237.380448 50.603509 
L 237.685116 54.137601 
L 238.294453 65.558596 
L 238.903789 81.902312 
L 240.122462 123.601682 
L 241.645804 175.08114 
L 242.255141 190.254415 
L 242.864477 200.476043 
L 243.169145 203.493294 
L 243.473814 205.045519 
L 243.778482 205.11788 
L 244.08315 203.725356 
L 244.387819 200.912128 
L 244.997155 191.338462 
L 245.606492 177.274825 
L 246.520497 150.482915 
L 248.348507 94.969874 
L 248.957843 81.236099 
L 249.56718 71.772136 
L 249.871848 68.85292 
L 250.176516 67.204984 
L 250.481185 66.842809 
L 250.785853 67.754771 
L 251.090521 69.903741 
L 251.699858 77.643853 
L 252.309195 89.310245 
L 253.223199 111.833316 
L 255.051209 159.051776 
L 255.660546 170.88244 
L 256.269883 179.164778 
L 256.574551 181.798399 
L 256.879219 183.375239 
L 257.183887 183.884044 
L 257.488556 183.335498 
L 257.793224 181.7616 
L 258.402561 175.765607 
L 259.011897 166.528554 
L 259.925902 148.538923 
L 261.753912 110.705467 
L 262.363249 101.210733 
L 262.972585 94.526752 
L 263.277254 92.371795 
L 263.581922 91.044377 
L 263.88659 90.549468 
L 264.191258 90.874614 
L 264.495927 91.990621 
L 265.105263 96.401231 
L 265.7146 103.259662 
L 266.628605 116.587617 
L 268.456615 144.181347 
L 269.065951 150.953404 
L 269.675288 155.645211 
L 269.979956 157.130571 
L 270.284625 158.026051 
L 270.589293 158.336081 
L 270.893961 158.077771 
L 271.198629 157.280122 
L 271.807966 154.23571 
L 272.417303 149.627497 
L 273.635976 137.880665 
L 274.854649 126.514738 
L 275.463986 122.167657 
L 276.073322 119.11907 
L 276.682659 117.491232 
L 276.987327 117.206803 
L 277.291996 117.255745 
L 277.596664 117.613358 
L 278.206 119.122539 
L 278.815337 121.4201 
L 280.948015 130.441472 
L 281.557352 132.02069 
L 282.166688 132.831089 
L 282.471357 132.943606 
L 282.776025 132.872894 
L 283.080693 132.636128 
L 283.69003 131.761587 
L 285.51804 128.321556 
L 286.127376 127.848707 
L 286.432045 127.873135 
L 286.736713 128.095874 
L 287.041381 128.527109 
L 287.650718 130.019911 
L 288.260055 132.286865 
L 289.174059 136.71543 
L 290.392733 142.870464 
L 291.002069 145.19037 
L 291.611406 146.502601 
L 291.916074 146.683624 
L 292.220742 146.508596 
L 292.525411 145.95778 
L 292.830079 145.020298 
L 293.439416 141.989771 
L 294.048752 137.525924 
L 294.962757 128.767357 
L 296.790767 109.848295 
L 297.400104 105.281529 
L 298.00944 102.515123 
L 298.314109 101.939557 
L 298.618777 101.953088 
L 298.923445 102.578986 
L 299.228113 103.827573 
L 299.83745 108.16573 
L 300.446787 114.773879 
L 301.360792 127.990064 
L 303.49347 161.743722 
L 304.102806 168.396694 
L 304.712143 172.347694 
L 305.016811 173.148755 
L 305.32148 173.110305 
L 305.626148 172.210709 
L 305.930816 170.446063 
L 306.540153 164.397346 
L 307.149489 155.297119 
L 308.063494 137.321901 
L 310.196172 92.143125 
L 310.805509 83.263718 
L 311.414846 77.897017 
L 311.719514 76.725202 
L 312.024182 76.626587 
L 312.328851 77.623893 
L 312.633519 79.717587 
L 313.242855 87.082798 
L 313.852192 98.27732 
L 314.766197 120.469174 
L 316.898875 176.473592 
L 317.508212 187.644464 
L 318.117548 194.60065 
L 318.422217 196.267854 
L 318.726885 196.650766 
L 319.031553 195.72312 
L 319.336222 193.485032 
L 319.945558 185.211475 
L 320.554895 172.35841 
L 321.4689 146.587294 
L 323.601578 80.663274 
L 324.210914 67.216751 
L 324.820251 58.563931 
L 325.124919 56.303165 
L 325.429588 55.509966 
L 325.734256 56.216239 
L 326.038924 58.423868 
L 326.343593 62.104366 
L 326.952929 73.62041 
L 327.562266 89.954691 
L 328.476271 120.742092 
L 330.304281 184.544842 
L 330.913617 200.167544 
L 331.522954 210.55062 
L 331.827622 213.471822 
L 332.13229 214.774404 
L 332.436959 214.419195 
L 332.741627 212.400108 
L 333.046295 208.74452 
L 333.655632 196.798185 
L 334.264969 179.440309 
L 335.178973 146.216479 
L 337.006983 76.039718 
L 337.61632 58.423835 
L 338.225656 46.3546 
L 338.530325 42.741026 
L 338.834993 40.861456 
L 339.139661 40.763403 
L 339.44433 42.458883 
L 339.748998 45.923982 
L 340.358335 57.89017 
L 340.967671 75.780878 
L 341.881676 110.63369 
L 344.014354 196.09803 
L 344.623691 212.758497 
L 345.233027 223.078806 
L 345.537696 225.5681 
L 345.842364 226.18975 
L 346.147032 224.924633 
L 346.451701 221.791338 
L 347.061037 210.180918 
L 347.670374 192.233404 
L 348.584379 156.576138 
L 350.717057 66.967218 
L 351.326394 48.918528 
L 351.93573 37.282601 
L 352.240398 34.187741 
L 352.545067 33.007145 
L 352.849735 33.767606 
L 353.154403 36.457159 
L 353.459072 41.025258 
L 354.068408 55.408506 
L 354.677745 75.796413 
L 355.896418 127.82593 
L 357.41976 192.473985 
L 358.029096 211.569185 
L 358.638433 224.320673 
L 358.943101 227.979442 
L 359.24777 229.717603 
L 359.552438 229.500765 
L 359.857106 227.333585 
L 360.161774 223.259659 
L 360.771111 209.754603 
L 361.380448 190.060787 
L 362.294453 152.444812 
L 364.122462 73.5355 
L 364.427131 62.984391 
L 364.427131 62.984391 
" style="fill:none;stroke:#000000;stroke-linecap:square;stroke-width:1.5;"/>
   </g>
   <g id="line2d_34">
    <path clip-path="url(#p939172e9c8)" d="M 60.063494 131.018518 
L 60.368163 130.929664 
L 60.672831 130.666621 
L 61.282168 129.666411 
L 62.196172 127.324297 
L 63.414846 124.05682 
L 64.024182 123.064717 
L 64.328851 122.856559 
L 64.633519 122.878839 
L 64.938187 123.153256 
L 65.242855 123.694683 
L 65.852192 125.599982 
L 66.461529 128.555846 
L 67.375534 134.550816 
L 69.203543 147.675697 
L 69.81288 150.709805 
L 70.117548 151.721488 
L 70.422217 152.335102 
L 70.726885 152.514083 
L 71.031553 152.230791 
L 71.336222 151.467535 
L 71.64089 150.217384 
L 72.250227 146.285636 
L 72.859563 140.610422 
L 73.773568 129.651171 
L 75.601578 106.296573 
L 76.210914 100.63631 
L 76.820251 97.114841 
L 77.124919 96.306621 
L 77.429588 96.190191 
L 77.734256 96.791074 
L 78.038924 98.11993 
L 78.648261 102.926272 
L 79.257598 110.380675 
L 80.171602 125.432736 
L 82.304281 164.419638 
L 82.913617 172.324873 
L 83.522954 177.241114 
L 83.827622 178.394651 
L 84.13229 178.613009 
L 84.436959 177.870027 
L 84.741627 176.159113 
L 85.350964 169.907811 
L 85.9603 160.207961 
L 86.874305 140.693318 
L 89.006983 90.426992 
L 89.61632 80.179913 
L 90.225656 73.671969 
L 90.530325 72.040706 
L 90.834993 71.568139 
L 91.139661 72.283603 
L 91.44433 74.192502 
L 91.748998 77.275816 
L 92.358335 86.768066 
L 92.967671 100.132839 
L 94.186344 134.350689 
L 95.709686 177.17964 
L 96.319023 189.785941 
L 96.928359 198.018792 
L 97.233027 200.235711 
L 97.537696 201.095824 
L 97.842364 200.564402 
L 98.147032 198.63458 
L 98.451701 195.327827 
L 99.061037 184.809908 
L 99.670374 169.730856 
L 100.584379 141.069868 
L 102.412389 80.982283 
L 103.021725 66.082855 
L 103.631062 56.063505 
L 103.93573 53.182723 
L 104.240398 51.826678 
L 104.545067 52.037265 
L 104.849735 53.82513 
L 105.154403 57.169168 
L 105.76374 68.28407 
L 106.373077 84.599499 
L 107.287082 116.067547 
L 109.115091 183.221585 
L 109.724428 200.263503 
L 110.333765 212.054036 
L 110.638433 215.643029 
L 110.943101 217.573418 
L 111.24777 217.794884 
L 111.552438 216.291131 
L 111.857106 213.080439 
L 112.466443 201.782726 
L 113.075779 184.716911 
L 113.989784 151.227382 
L 116.122462 68.238787 
L 116.731799 51.859514 
L 117.341136 41.588435 
L 117.645804 39.039134 
L 117.950472 38.304781 
L 118.255141 39.408668 
L 118.559809 42.337346 
L 119.169145 53.432892 
L 119.778482 70.771213 
L 120.692487 105.468801 
L 122.825165 193.545999 
L 123.434502 211.488594 
L 124.043838 223.178204 
L 124.348507 226.354579 
L 124.653175 227.64865 
L 124.957843 227.029372 
L 125.262512 224.5039 
L 125.56718 220.117545 
L 126.176516 206.12857 
L 126.785853 186.138542 
L 128.004526 134.753013 
L 129.527868 70.355541 
L 130.137204 51.167774 
L 130.746541 38.235004 
L 131.051209 34.460957 
L 131.355878 32.59663 
L 131.660546 32.680935 
L 131.965214 34.713887 
L 132.269883 38.656567 
L 132.879219 51.926056 
L 133.488556 71.446928 
L 134.402561 108.972847 
L 136.23057 188.375792 
L 136.839907 208.425462 
L 137.449244 222.353721 
L 137.753912 226.65876 
L 138.05858 229.066722 
L 138.363249 229.531354 
L 138.667917 228.045234 
L 138.972585 224.639889 
L 139.581922 212.387574 
L 140.191258 193.761097 
L 141.105263 157.238233 
L 143.237941 67.313075 
L 143.847278 49.598095 
L 144.456615 38.374523 
L 144.761283 35.486122 
L 145.065951 34.495574 
L 145.37062 35.417298 
L 145.675288 38.227517 
L 145.979956 42.864843 
L 146.589293 57.195938 
L 147.198629 77.235835 
L 148.417303 127.64968 
L 149.635976 178.337523 
L 150.549981 206.987834 
L 151.159317 218.708399 
L 151.463986 221.979481 
L 151.768654 223.436808 
L 152.073322 223.059995 
L 152.377991 220.865354 
L 152.682659 216.905396 
L 153.291996 204.072519 
L 153.901332 185.641736 
L 155.120005 138.344539 
L 156.643347 79.431524 
L 157.252684 61.924389 
L 157.86202 50.062726 
L 158.166688 46.537899 
L 158.471357 44.706768 
L 158.776025 44.594064 
L 159.080693 46.190027 
L 159.385362 49.450836 
L 159.994698 60.628754 
L 160.604035 77.154504 
L 161.51804 108.862033 
L 163.34605 175.396314 
L 163.955386 192.082158 
L 164.564723 203.688671 
L 164.869391 207.311761 
L 165.174059 209.393507 
L 165.478728 209.906979 
L 165.783396 208.856876 
L 166.088064 206.279144 
L 166.697401 196.834101 
L 167.306738 182.430968 
L 168.220742 154.308947 
L 170.048752 94.216711 
L 170.658089 78.842893 
L 171.267426 67.914457 
L 171.572094 64.369418 
L 171.876762 62.185626 
L 172.18143 61.389631 
L 172.486099 61.979791 
L 172.790767 63.926643 
L 173.095435 67.173842 
L 173.704772 77.218838 
L 174.618777 99.287312 
L 177.360792 173.764807 
L 177.970128 183.580468 
L 178.579465 188.974669 
L 178.884133 189.910473 
L 179.188801 189.66534 
L 179.49347 188.264149 
L 179.798138 185.75476 
L 180.407475 177.709175 
L 181.016811 166.309386 
L 182.235484 137.684796 
L 183.454158 109.256594 
L 184.368163 93.36021 
L 184.977499 86.836911 
L 185.282168 84.966105 
L 185.586836 84.051661 
L 185.891504 84.090455 
L 186.196172 85.059875 
L 186.500841 86.918704 
L 187.110177 93.054553 
L 187.719514 101.852037 
L 188.938187 123.996725 
L 190.15686 145.890002 
L 191.070865 158.055564 
L 191.680202 163.037286 
L 191.98487 164.474685 
L 192.289539 165.194926 
L 192.594207 165.206181 
L 192.898875 164.53141 
L 193.203543 163.207445 
L 193.81288 158.821214 
L 194.422217 152.568243 
L 195.945558 133.124766 
L 196.859563 122.277798 
L 197.4689 116.602786 
L 198.078236 112.616151 
L 198.687573 110.500684 
L 198.992241 110.151866 
L 199.29691 110.257587 
L 199.601578 110.791741 
L 200.210914 112.99763 
L 200.820251 116.405045 
L 202.343593 127.213446 
L 203.257598 133.037844 
L 203.866934 135.918355 
L 204.476271 137.780305 
L 204.780939 138.31181 
L 205.085607 138.583811 
L 205.390276 138.610841 
L 205.694944 138.414192 
L 206.304281 137.463559 
L 207.218285 135.17537 
L 208.436959 132.140176 
L 209.046295 131.2459 
L 209.350964 131.037601 
L 209.655632 131.004119 
L 209.9603 131.148559 
L 210.264969 131.466987 
L 210.874305 132.57565 
L 211.78831 135.067835 
L 213.006983 138.490688 
L 213.61632 139.531469 
L 213.920988 139.754785 
L 214.225656 139.740858 
L 214.530325 139.467536 
L 214.834993 138.919547 
L 215.44433 136.976965 
L 216.053666 133.950625 
L 216.967671 127.789472 
L 218.795681 114.171679 
L 219.405018 110.956626 
L 220.014354 109.161178 
L 220.319023 108.905173 
L 220.623691 109.118936 
L 220.928359 109.821691 
L 221.233027 111.021812 
L 221.842364 114.890024 
L 222.451701 120.557187 
L 223.365706 131.618299 
L 225.193715 155.554202 
L 225.803052 161.483067 
L 226.412389 165.282981 
L 226.717057 166.227803 
L 227.021725 166.475589 
L 227.326394 165.998197 
L 227.631062 164.782415 
L 228.240398 160.161416 
L 228.849735 152.824047 
L 229.76374 137.792974 
L 232.201086 93.6597 
L 232.810423 86.803646 
L 233.115091 84.572707 
L 233.41976 83.232414 
L 233.724428 82.831128 
L 234.029096 83.398603 
L 234.333765 84.944966 
L 234.638433 87.460097 
L 235.24777 95.254154 
L 235.857106 106.298025 
L 236.771111 127.195617 
L 238.599121 170.8021 
L 239.208457 181.456269 
L 239.817794 188.415718 
L 240.122462 190.278997 
L 240.427131 190.98186 
L 240.731799 190.490475 
L 241.036467 188.79499 
L 241.341136 185.910111 
L 241.950472 176.753745 
L 242.559809 163.620345 
L 243.473814 138.60673 
L 245.301824 85.981503 
L 245.91116 72.919785 
L 246.520497 64.168149 
L 246.825165 61.680062 
L 247.129833 60.547814 
L 247.434502 60.811422 
L 247.73917 62.483028 
L 248.043838 65.546315 
L 248.653175 75.640917 
L 249.262512 90.409932 
L 250.176516 118.874156 
L 252.004526 179.625102 
L 252.613863 195.012972 
L 253.223199 205.603284 
L 253.527868 208.787253 
L 253.832536 210.4506 
L 254.137204 210.545465 
L 254.441873 209.055216 
L 254.746541 205.995072 
L 255.355878 195.384431 
L 255.965214 179.45524 
L 256.879219 148.277793 
L 259.011897 71.195059 
L 259.621234 56.062149 
L 260.23057 46.667967 
L 260.535239 44.402728 
L 260.839907 43.845338 
L 261.144575 45.018658 
L 261.449244 47.910908 
L 262.05858 58.632623 
L 262.667917 75.241249 
L 263.581922 108.345979 
L 265.7146 192.067567 
L 266.323937 209.019223 
L 266.933273 219.958327 
L 267.237941 222.861706 
L 267.54261 223.954434 
L 267.847278 223.206223 
L 268.151946 220.623555 
L 268.456615 216.24971 
L 269.065951 202.480634 
L 269.675288 182.936211 
L 270.893961 132.903435 
L 272.417303 70.442608 
L 273.026639 51.932834 
L 273.635976 39.565152 
L 273.940644 36.024235 
L 274.245313 34.357968 
L 274.549981 34.604656 
L 274.854649 36.764432 
L 275.159317 40.799159 
L 275.768654 54.154332 
L 276.377991 73.64388 
L 277.291996 110.94964 
L 279.120005 189.551279 
L 279.729342 209.285958 
L 280.338679 222.889731 
L 280.643347 227.029846 
L 280.948015 229.271221 
L 281.252684 229.56758 
L 281.557352 227.911471 
L 281.86202 224.334438 
L 282.471357 211.734396 
L 283.080693 192.757741 
L 283.994698 155.723998 
L 286.127376 64.982207 
L 286.736713 47.237493 
L 287.34605 36.118121 
L 287.650718 33.337292 
L 287.955386 32.492993 
L 288.260055 33.600066 
L 288.564723 36.634388 
L 289.174059 48.197375 
L 289.783396 66.24867 
L 290.697401 102.216469 
L 292.830079 192.604938 
L 293.439416 210.863283 
L 294.048752 222.749284 
L 294.353421 225.997547 
L 294.658089 227.357738 
L 294.962757 226.808198 
L 295.267426 224.365436 
L 295.572094 220.083689 
L 296.18143 206.400902 
L 296.790767 186.884809 
L 298.00944 136.999084 
L 299.532782 75.052432 
L 300.142118 56.720332 
L 300.751455 44.386271 
L 301.056123 40.77667 
L 301.360792 38.968434 
L 301.66546 38.988842 
L 301.970128 40.828549 
L 302.274797 44.441945 
L 302.884133 56.633312 
L 303.49347 74.531532 
L 304.407475 108.766511 
L 306.235484 180.463571 
L 306.844821 198.395852 
L 307.454158 210.808985 
L 307.758826 214.643388 
L 308.063494 216.798573 
L 308.368163 217.243414 
L 308.672831 215.981165 
L 308.977499 213.049154 
L 309.586836 202.488955 
L 310.196172 186.489223 
L 311.110177 155.316101 
L 312.938187 88.703498 
L 313.547524 71.663292 
L 314.15686 59.578171 
L 314.461529 55.681087 
L 314.766197 53.309429 
L 315.070865 52.495889 
L 315.375534 53.241669 
L 315.680202 55.516755 
L 315.98487 59.260808 
L 316.594207 70.772477 
L 317.508212 96.017135 
L 320.250227 181.550545 
L 320.859563 192.876433 
L 321.4689 199.087729 
L 321.773568 200.144845 
L 322.078236 199.822226 
L 322.382905 198.144108 
L 322.687573 195.16165 
L 323.29691 185.614242 
L 323.906246 172.063353 
L 325.124919 137.855779 
L 326.343593 103.578933 
L 327.257598 84.222729 
L 327.866934 76.203532 
L 328.171602 73.881631 
L 328.476271 72.729397 
L 328.780939 72.750147 
L 329.085607 73.923409 
L 329.390276 76.205729 
L 329.999612 83.816821 
L 330.608949 94.834547 
L 331.827622 122.952553 
L 333.046295 151.307901 
L 333.9603 167.432172 
L 334.569637 174.216488 
L 334.874305 176.242426 
L 335.178973 177.324168 
L 335.483642 177.461431 
L 335.78831 176.673332 
L 336.092978 174.997574 
L 336.702315 169.219367 
L 337.311652 160.746796 
L 338.530325 139.069842 
L 339.748998 117.319393 
L 340.663003 105.039828 
L 341.27234 99.892727 
L 341.577008 98.351369 
L 341.881676 97.515976 
L 342.186344 97.380799 
L 342.491013 97.925388 
L 342.795681 99.11545 
L 343.405018 103.232761 
L 344.014354 109.231155 
L 345.233027 124.300179 
L 346.451701 138.927248 
L 347.061037 144.593981 
L 347.670374 148.626961 
L 348.279711 150.836038 
L 348.584379 151.246361 
L 348.889047 151.210094 
L 349.193715 150.751869 
L 349.498384 149.905173 
L 350.10772 147.217577 
L 351.021725 141.480535 
L 352.849735 129.415968 
L 353.459072 126.615421 
L 354.068408 124.80267 
L 354.373077 124.284362 
L 354.677745 124.018216 
L 354.982413 123.989993 
L 355.287082 124.17875 
L 355.896418 125.09512 
L 356.810423 127.292434 
L 357.724428 129.553891 
L 358.333765 130.622661 
L 358.638433 130.943241 
L 358.943101 131.097588 
L 359.24777 131.076066 
L 359.552438 130.875979 
L 360.161774 129.964475 
L 360.771111 128.479362 
L 362.903789 122.404114 
L 363.208457 121.946619 
L 363.513126 121.704481 
L 363.817794 121.70641 
L 364.122462 121.975072 
L 364.427131 122.526189 
L 364.427131 122.526189 
" style="fill:none;stroke:#0000ff;stroke-linecap:square;stroke-width:1.5;"/>
   </g>
   <g id="patch_3">
    <path d="M 44.845313 239.758125 
L 44.845313 22.318125 
" style="fill:none;stroke:#000000;stroke-linecap:square;stroke-linejoin:miter;stroke-width:0.8;"/>
   </g>
   <g id="patch_4">
    <path d="M 379.645313 239.758125 
L 379.645313 22.318125 
" style="fill:none;stroke:#000000;stroke-linecap:square;stroke-linejoin:miter;stroke-width:0.8;"/>
   </g>
   <g id="patch_5">
    <path d="M 44.845313 239.758125 
L 379.645313 239.758125 
" style="fill:none;stroke:#000000;stroke-linecap:square;stroke-linejoin:miter;stroke-width:0.8;"/>
   </g>
   <g id="patch_6">
    <path d="M 44.845313 22.318125 
L 379.645313 22.318125 
" style="fill:none;stroke:#000000;stroke-linecap:square;stroke-linejoin:miter;stroke-width:0.8;"/>
   </g>
   <g id="text_17">
    <!-- Weak coupling -->
    <g transform="translate(168.388125 16.318125)scale(0.12 -0.12)">
     <defs>
      <path d="M 3.328125 72.90625 
L 13.28125 72.90625 
L 28.609375 11.28125 
L 43.890625 72.90625 
L 54.984375 72.90625 
L 70.3125 11.28125 
L 85.59375 72.90625 
L 95.609375 72.90625 
L 77.296875 0 
L 64.890625 0 
L 49.515625 63.28125 
L 33.984375 0 
L 21.578125 0 
z
" id="DejaVuSans-87"/>
      <path d="M 56.203125 29.59375 
L 56.203125 25.203125 
L 14.890625 25.203125 
Q 15.484375 15.921875 20.484375 11.0625 
Q 25.484375 6.203125 34.421875 6.203125 
Q 39.59375 6.203125 44.453125 7.46875 
Q 49.3125 8.734375 54.109375 11.28125 
L 54.109375 2.78125 
Q 49.265625 0.734375 44.1875 -0.34375 
Q 39.109375 -1.421875 33.890625 -1.421875 
Q 20.796875 -1.421875 13.15625 6.1875 
Q 5.515625 13.8125 5.515625 26.8125 
Q 5.515625 40.234375 12.765625 48.109375 
Q 20.015625 56 32.328125 56 
Q 43.359375 56 49.78125 48.890625 
Q 56.203125 41.796875 56.203125 29.59375 
z
M 47.21875 32.234375 
Q 47.125 39.59375 43.09375 43.984375 
Q 39.0625 48.390625 32.421875 48.390625 
Q 24.90625 48.390625 20.390625 44.140625 
Q 15.875 39.890625 15.1875 32.171875 
z
" id="DejaVuSans-101"/>
      <path d="M 34.28125 27.484375 
Q 23.390625 27.484375 19.1875 25 
Q 14.984375 22.515625 14.984375 16.5 
Q 14.984375 11.71875 18.140625 8.90625 
Q 21.296875 6.109375 26.703125 6.109375 
Q 34.1875 6.109375 38.703125 11.40625 
Q 43.21875 16.703125 43.21875 25.484375 
L 43.21875 27.484375 
z
M 52.203125 31.203125 
L 52.203125 0 
L 43.21875 0 
L 43.21875 8.296875 
Q 40.140625 3.328125 35.546875 0.953125 
Q 30.953125 -1.421875 24.3125 -1.421875 
Q 15.921875 -1.421875 10.953125 3.296875 
Q 6 8.015625 6 15.921875 
Q 6 25.140625 12.171875 29.828125 
Q 18.359375 34.515625 30.609375 34.515625 
L 43.21875 34.515625 
L 43.21875 35.40625 
Q 43.21875 41.609375 39.140625 45 
Q 35.0625 48.390625 27.6875 48.390625 
Q 23 48.390625 18.546875 47.265625 
Q 14.109375 46.140625 10.015625 43.890625 
L 10.015625 52.203125 
Q 14.9375 54.109375 19.578125 55.046875 
Q 24.21875 56 28.609375 56 
Q 40.484375 56 46.34375 49.84375 
Q 52.203125 43.703125 52.203125 31.203125 
z
" id="DejaVuSans-97"/>
      <path d="M 9.078125 75.984375 
L 18.109375 75.984375 
L 18.109375 31.109375 
L 44.921875 54.6875 
L 56.390625 54.6875 
L 27.390625 29.109375 
L 57.625 0 
L 45.90625 0 
L 18.109375 26.703125 
L 18.109375 0 
L 9.078125 0 
z
" id="DejaVuSans-107"/>
      <path id="DejaVuSans-32"/>
      <path d="M 48.78125 52.59375 
L 48.78125 44.1875 
Q 44.96875 46.296875 41.140625 47.34375 
Q 37.3125 48.390625 33.40625 48.390625 
Q 24.65625 48.390625 19.8125 42.84375 
Q 14.984375 37.3125 14.984375 27.296875 
Q 14.984375 17.28125 19.8125 11.734375 
Q 24.65625 6.203125 33.40625 6.203125 
Q 37.3125 6.203125 41.140625 7.25 
Q 44.96875 8.296875 48.78125 10.40625 
L 48.78125 2.09375 
Q 45.015625 0.34375 40.984375 -0.53125 
Q 36.96875 -1.421875 32.421875 -1.421875 
Q 20.0625 -1.421875 12.78125 6.34375 
Q 5.515625 14.109375 5.515625 27.296875 
Q 5.515625 40.671875 12.859375 48.328125 
Q 20.21875 56 33.015625 56 
Q 37.15625 56 41.109375 55.140625 
Q 45.0625 54.296875 48.78125 52.59375 
z
" id="DejaVuSans-99"/>
      <path d="M 30.609375 48.390625 
Q 23.390625 48.390625 19.1875 42.75 
Q 14.984375 37.109375 14.984375 27.296875 
Q 14.984375 17.484375 19.15625 11.84375 
Q 23.34375 6.203125 30.609375 6.203125 
Q 37.796875 6.203125 41.984375 11.859375 
Q 46.1875 17.53125 46.1875 27.296875 
Q 46.1875 37.015625 41.984375 42.703125 
Q 37.796875 48.390625 30.609375 48.390625 
z
M 30.609375 56 
Q 42.328125 56 49.015625 48.375 
Q 55.71875 40.765625 55.71875 27.296875 
Q 55.71875 13.875 49.015625 6.21875 
Q 42.328125 -1.421875 30.609375 -1.421875 
Q 18.84375 -1.421875 12.171875 6.21875 
Q 5.515625 13.875 5.515625 27.296875 
Q 5.515625 40.765625 12.171875 48.375 
Q 18.84375 56 30.609375 56 
z
" id="DejaVuSans-111"/>
      <path d="M 8.5 21.578125 
L 8.5 54.6875 
L 17.484375 54.6875 
L 17.484375 21.921875 
Q 17.484375 14.15625 20.5 10.265625 
Q 23.53125 6.390625 29.59375 6.390625 
Q 36.859375 6.390625 41.078125 11.03125 
Q 45.3125 15.671875 45.3125 23.6875 
L 45.3125 54.6875 
L 54.296875 54.6875 
L 54.296875 0 
L 45.3125 0 
L 45.3125 8.40625 
Q 42.046875 3.421875 37.71875 1 
Q 33.40625 -1.421875 27.6875 -1.421875 
Q 18.265625 -1.421875 13.375 4.4375 
Q 8.5 10.296875 8.5 21.578125 
z
M 31.109375 56 
z
" id="DejaVuSans-117"/>
      <path d="M 18.109375 8.203125 
L 18.109375 -20.796875 
L 9.078125 -20.796875 
L 9.078125 54.6875 
L 18.109375 54.6875 
L 18.109375 46.390625 
Q 20.953125 51.265625 25.265625 53.625 
Q 29.59375 56 35.59375 56 
Q 45.5625 56 51.78125 48.09375 
Q 58.015625 40.1875 58.015625 27.296875 
Q 58.015625 14.40625 51.78125 6.484375 
Q 45.5625 -1.421875 35.59375 -1.421875 
Q 29.59375 -1.421875 25.265625 0.953125 
Q 20.953125 3.328125 18.109375 8.203125 
z
M 48.6875 27.296875 
Q 48.6875 37.203125 44.609375 42.84375 
Q 40.53125 48.484375 33.40625 48.484375 
Q 26.265625 48.484375 22.1875 42.84375 
Q 18.109375 37.203125 18.109375 27.296875 
Q 18.109375 17.390625 22.1875 11.75 
Q 26.265625 6.109375 33.40625 6.109375 
Q 40.53125 6.109375 44.609375 11.75 
Q 48.6875 17.390625 48.6875 27.296875 
z
" id="DejaVuSans-112"/>
      <path d="M 9.421875 75.984375 
L 18.40625 75.984375 
L 18.40625 0 
L 9.421875 0 
z
" id="DejaVuSans-108"/>
      <path d="M 9.421875 54.6875 
L 18.40625 54.6875 
L 18.40625 0 
L 9.421875 0 
z
M 9.421875 75.984375 
L 18.40625 75.984375 
L 18.40625 64.59375 
L 9.421875 64.59375 
z
" id="DejaVuSans-105"/>
      <path d="M 54.890625 33.015625 
L 54.890625 0 
L 45.90625 0 
L 45.90625 32.71875 
Q 45.90625 40.484375 42.875 44.328125 
Q 39.84375 48.1875 33.796875 48.1875 
Q 26.515625 48.1875 22.3125 43.546875 
Q 18.109375 38.921875 18.109375 30.90625 
L 18.109375 0 
L 9.078125 0 
L 9.078125 54.6875 
L 18.109375 54.6875 
L 18.109375 46.1875 
Q 21.34375 51.125 25.703125 53.5625 
Q 30.078125 56 35.796875 56 
Q 45.21875 56 50.046875 50.171875 
Q 54.890625 44.34375 54.890625 33.015625 
z
" id="DejaVuSans-110"/>
      <path d="M 45.40625 27.984375 
Q 45.40625 37.75 41.375 43.109375 
Q 37.359375 48.484375 30.078125 48.484375 
Q 22.859375 48.484375 18.828125 43.109375 
Q 14.796875 37.75 14.796875 27.984375 
Q 14.796875 18.265625 18.828125 12.890625 
Q 22.859375 7.515625 30.078125 7.515625 
Q 37.359375 7.515625 41.375 12.890625 
Q 45.40625 18.265625 45.40625 27.984375 
z
M 54.390625 6.78125 
Q 54.390625 -7.171875 48.1875 -13.984375 
Q 42 -20.796875 29.203125 -20.796875 
Q 24.46875 -20.796875 20.265625 -20.09375 
Q 16.0625 -19.390625 12.109375 -17.921875 
L 12.109375 -9.1875 
Q 16.0625 -11.328125 19.921875 -12.34375 
Q 23.78125 -13.375 27.78125 -13.375 
Q 36.625 -13.375 41.015625 -8.765625 
Q 45.40625 -4.15625 45.40625 5.171875 
L 45.40625 9.625 
Q 42.625 4.78125 38.28125 2.390625 
Q 33.9375 0 27.875 0 
Q 17.828125 0 11.671875 7.65625 
Q 5.515625 15.328125 5.515625 27.984375 
Q 5.515625 40.671875 11.671875 48.328125 
Q 17.828125 56 27.875 56 
Q 33.9375 56 38.28125 53.609375 
Q 42.625 51.21875 45.40625 46.390625 
L 45.40625 54.6875 
L 54.390625 54.6875 
z
" id="DejaVuSans-103"/>
     </defs>
     <use xlink:href="#DejaVuSans-87"/>
     <use x="93.001953" xlink:href="#DejaVuSans-101"/>
     <use x="154.525391" xlink:href="#DejaVuSans-97"/>
     <use x="215.804688" xlink:href="#DejaVuSans-107"/>
     <use x="273.714844" xlink:href="#DejaVuSans-32"/>
     <use x="305.501953" xlink:href="#DejaVuSans-99"/>
     <use x="360.482422" xlink:href="#DejaVuSans-111"/>
     <use x="421.664062" xlink:href="#DejaVuSans-117"/>
     <use x="485.042969" xlink:href="#DejaVuSans-112"/>
     <use x="548.519531" xlink:href="#DejaVuSans-108"/>
     <use x="576.302734" xlink:href="#DejaVuSans-105"/>
     <use x="604.085938" xlink:href="#DejaVuSans-110"/>
     <use x="667.464844" xlink:href="#DejaVuSans-103"/>
    </g>
   </g>
  </g>
 </g>
 <defs>
  <clipPath id="p939172e9c8">
   <rect height="217.44" width="334.8" x="44.845313" y="22.318125"/>
  </clipPath>
 </defs>
</svg>
