<?xml version="1.0" encoding="utf-8" standalone="no"?>
<!DOCTYPE svg PUBLIC "-//W3C//DTD SVG 1.1//EN"
  "http://www.w3.org/Graphics/SVG/1.1/DTD/svg11.dtd">
<!-- Created with matplotlib (https://matplotlib.org/) -->
<svg height="248.518125pt" version="1.1" viewBox="0 0 372.163495 248.518125" width="372.163495pt" xmlns="http://www.w3.org/2000/svg" xmlns:xlink="http://www.w3.org/1999/xlink">
 <metadata>
  <rdf:RDF xmlns:cc="http://creativecommons.org/ns#" xmlns:dc="http://purl.org/dc/elements/1.1/" xmlns:rdf="http://www.w3.org/1999/02/22-rdf-syntax-ns#">
   <cc:Work>
    <dc:type rdf:resource="http://purl.org/dc/dcmitype/StillImage"/>
    <dc:date>2021-09-14T14:22:08.678131</dc:date>
    <dc:format>image/svg+xml</dc:format>
    <dc:creator>
     <cc:Agent>
      <dc:title>Matplotlib v3.3.4, https://matplotlib.org/</dc:title>
     </cc:Agent>
    </dc:creator>
   </cc:Work>
  </rdf:RDF>
 </metadata>
 <defs>
  <style type="text/css">*{stroke-linecap:butt;stroke-linejoin:round;}</style>
 </defs>
 <g id="figure_1">
  <g id="patch_1">
   <path d="M 0 248.518125 
L 372.163495 248.518125 
L 372.163495 0 
L 0 0 
z
" style="fill:none;"/>
  </g>
  <g id="axes_1">
   <g id="patch_2">
    <path d="M 28.942188 224.64 
L 363.742188 224.64 
L 363.742188 7.2 
L 28.942188 7.2 
z
" style="fill:#ffffff;"/>
   </g>
   <g id="matplotlib.axis_1">
    <g id="xtick_1">
     <g id="line2d_1">
      <path clip-path="url(#pd1ff523aed)" d="M 46.989678 224.64 
L 46.989678 7.2 
" style="fill:none;stroke:#b0b0b0;stroke-linecap:square;stroke-width:0.8;"/>
     </g>
     <g id="line2d_2">
      <defs>
       <path d="M 0 0 
L 0 3.5 
" id="m67ca74cbc3" style="stroke:#000000;stroke-width:0.8;"/>
      </defs>
      <g>
       <use style="stroke:#000000;stroke-width:0.8;" x="46.989678" xlink:href="#m67ca74cbc3" y="224.64"/>
      </g>
     </g>
     <g id="text_1">
      <!-- 0.4 -->
      <g transform="translate(39.038116 239.238437)scale(0.1 -0.1)">
       <defs>
        <path d="M 31.78125 66.40625 
Q 24.171875 66.40625 20.328125 58.90625 
Q 16.5 51.421875 16.5 36.375 
Q 16.5 21.390625 20.328125 13.890625 
Q 24.171875 6.390625 31.78125 6.390625 
Q 39.453125 6.390625 43.28125 13.890625 
Q 47.125 21.390625 47.125 36.375 
Q 47.125 51.421875 43.28125 58.90625 
Q 39.453125 66.40625 31.78125 66.40625 
z
M 31.78125 74.21875 
Q 44.046875 74.21875 50.515625 64.515625 
Q 56.984375 54.828125 56.984375 36.375 
Q 56.984375 17.96875 50.515625 8.265625 
Q 44.046875 -1.421875 31.78125 -1.421875 
Q 19.53125 -1.421875 13.0625 8.265625 
Q 6.59375 17.96875 6.59375 36.375 
Q 6.59375 54.828125 13.0625 64.515625 
Q 19.53125 74.21875 31.78125 74.21875 
z
" id="DejaVuSans-48"/>
        <path d="M 10.6875 12.40625 
L 21 12.40625 
L 21 0 
L 10.6875 0 
z
" id="DejaVuSans-46"/>
        <path d="M 37.796875 64.3125 
L 12.890625 25.390625 
L 37.796875 25.390625 
z
M 35.203125 72.90625 
L 47.609375 72.90625 
L 47.609375 25.390625 
L 58.015625 25.390625 
L 58.015625 17.1875 
L 47.609375 17.1875 
L 47.609375 0 
L 37.796875 0 
L 37.796875 17.1875 
L 4.890625 17.1875 
L 4.890625 26.703125 
z
" id="DejaVuSans-52"/>
       </defs>
       <use xlink:href="#DejaVuSans-48"/>
       <use x="63.623047" xlink:href="#DejaVuSans-46"/>
       <use x="95.410156" xlink:href="#DejaVuSans-52"/>
      </g>
     </g>
    </g>
    <g id="xtick_2">
     <g id="line2d_3">
      <path clip-path="url(#pd1ff523aed)" d="M 85.74246 224.64 
L 85.74246 7.2 
" style="fill:none;stroke:#b0b0b0;stroke-linecap:square;stroke-width:0.8;"/>
     </g>
     <g id="line2d_4">
      <g>
       <use style="stroke:#000000;stroke-width:0.8;" x="85.74246" xlink:href="#m67ca74cbc3" y="224.64"/>
      </g>
     </g>
     <g id="text_2">
      <!-- 0.5 -->
      <g transform="translate(77.790898 239.238437)scale(0.1 -0.1)">
       <defs>
        <path d="M 10.796875 72.90625 
L 49.515625 72.90625 
L 49.515625 64.59375 
L 19.828125 64.59375 
L 19.828125 46.734375 
Q 21.96875 47.46875 24.109375 47.828125 
Q 26.265625 48.1875 28.421875 48.1875 
Q 40.625 48.1875 47.75 41.5 
Q 54.890625 34.8125 54.890625 23.390625 
Q 54.890625 11.625 47.5625 5.09375 
Q 40.234375 -1.421875 26.90625 -1.421875 
Q 22.3125 -1.421875 17.546875 -0.640625 
Q 12.796875 0.140625 7.71875 1.703125 
L 7.71875 11.625 
Q 12.109375 9.234375 16.796875 8.0625 
Q 21.484375 6.890625 26.703125 6.890625 
Q 35.15625 6.890625 40.078125 11.328125 
Q 45.015625 15.765625 45.015625 23.390625 
Q 45.015625 31 40.078125 35.4375 
Q 35.15625 39.890625 26.703125 39.890625 
Q 22.75 39.890625 18.8125 39.015625 
Q 14.890625 38.140625 10.796875 36.28125 
z
" id="DejaVuSans-53"/>
       </defs>
       <use xlink:href="#DejaVuSans-48"/>
       <use x="63.623047" xlink:href="#DejaVuSans-46"/>
       <use x="95.410156" xlink:href="#DejaVuSans-53"/>
      </g>
     </g>
    </g>
    <g id="xtick_3">
     <g id="line2d_5">
      <path clip-path="url(#pd1ff523aed)" d="M 124.495242 224.64 
L 124.495242 7.2 
" style="fill:none;stroke:#b0b0b0;stroke-linecap:square;stroke-width:0.8;"/>
     </g>
     <g id="line2d_6">
      <g>
       <use style="stroke:#000000;stroke-width:0.8;" x="124.495242" xlink:href="#m67ca74cbc3" y="224.64"/>
      </g>
     </g>
     <g id="text_3">
      <!-- 0.6 -->
      <g transform="translate(116.543679 239.238437)scale(0.1 -0.1)">
       <defs>
        <path d="M 33.015625 40.375 
Q 26.375 40.375 22.484375 35.828125 
Q 18.609375 31.296875 18.609375 23.390625 
Q 18.609375 15.53125 22.484375 10.953125 
Q 26.375 6.390625 33.015625 6.390625 
Q 39.65625 6.390625 43.53125 10.953125 
Q 47.40625 15.53125 47.40625 23.390625 
Q 47.40625 31.296875 43.53125 35.828125 
Q 39.65625 40.375 33.015625 40.375 
z
M 52.59375 71.296875 
L 52.59375 62.3125 
Q 48.875 64.0625 45.09375 64.984375 
Q 41.3125 65.921875 37.59375 65.921875 
Q 27.828125 65.921875 22.671875 59.328125 
Q 17.53125 52.734375 16.796875 39.40625 
Q 19.671875 43.65625 24.015625 45.921875 
Q 28.375 48.1875 33.59375 48.1875 
Q 44.578125 48.1875 50.953125 41.515625 
Q 57.328125 34.859375 57.328125 23.390625 
Q 57.328125 12.15625 50.6875 5.359375 
Q 44.046875 -1.421875 33.015625 -1.421875 
Q 20.359375 -1.421875 13.671875 8.265625 
Q 6.984375 17.96875 6.984375 36.375 
Q 6.984375 53.65625 15.1875 63.9375 
Q 23.390625 74.21875 37.203125 74.21875 
Q 40.921875 74.21875 44.703125 73.484375 
Q 48.484375 72.75 52.59375 71.296875 
z
" id="DejaVuSans-54"/>
       </defs>
       <use xlink:href="#DejaVuSans-48"/>
       <use x="63.623047" xlink:href="#DejaVuSans-46"/>
       <use x="95.410156" xlink:href="#DejaVuSans-54"/>
      </g>
     </g>
    </g>
    <g id="xtick_4">
     <g id="line2d_7">
      <path clip-path="url(#pd1ff523aed)" d="M 163.248024 224.64 
L 163.248024 7.2 
" style="fill:none;stroke:#b0b0b0;stroke-linecap:square;stroke-width:0.8;"/>
     </g>
     <g id="line2d_8">
      <g>
       <use style="stroke:#000000;stroke-width:0.8;" x="163.248024" xlink:href="#m67ca74cbc3" y="224.64"/>
      </g>
     </g>
     <g id="text_4">
      <!-- 0.7 -->
      <g transform="translate(155.296461 239.238437)scale(0.1 -0.1)">
       <defs>
        <path d="M 8.203125 72.90625 
L 55.078125 72.90625 
L 55.078125 68.703125 
L 28.609375 0 
L 18.3125 0 
L 43.21875 64.59375 
L 8.203125 64.59375 
z
" id="DejaVuSans-55"/>
       </defs>
       <use xlink:href="#DejaVuSans-48"/>
       <use x="63.623047" xlink:href="#DejaVuSans-46"/>
       <use x="95.410156" xlink:href="#DejaVuSans-55"/>
      </g>
     </g>
    </g>
    <g id="xtick_5">
     <g id="line2d_9">
      <path clip-path="url(#pd1ff523aed)" d="M 202.000805 224.64 
L 202.000805 7.2 
" style="fill:none;stroke:#b0b0b0;stroke-linecap:square;stroke-width:0.8;"/>
     </g>
     <g id="line2d_10">
      <g>
       <use style="stroke:#000000;stroke-width:0.8;" x="202.000805" xlink:href="#m67ca74cbc3" y="224.64"/>
      </g>
     </g>
     <g id="text_5">
      <!-- 0.8 -->
      <g transform="translate(194.049243 239.238437)scale(0.1 -0.1)">
       <defs>
        <path d="M 31.78125 34.625 
Q 24.75 34.625 20.71875 30.859375 
Q 16.703125 27.09375 16.703125 20.515625 
Q 16.703125 13.921875 20.71875 10.15625 
Q 24.75 6.390625 31.78125 6.390625 
Q 38.8125 6.390625 42.859375 10.171875 
Q 46.921875 13.96875 46.921875 20.515625 
Q 46.921875 27.09375 42.890625 30.859375 
Q 38.875 34.625 31.78125 34.625 
z
M 21.921875 38.8125 
Q 15.578125 40.375 12.03125 44.71875 
Q 8.5 49.078125 8.5 55.328125 
Q 8.5 64.0625 14.71875 69.140625 
Q 20.953125 74.21875 31.78125 74.21875 
Q 42.671875 74.21875 48.875 69.140625 
Q 55.078125 64.0625 55.078125 55.328125 
Q 55.078125 49.078125 51.53125 44.71875 
Q 48 40.375 41.703125 38.8125 
Q 48.828125 37.15625 52.796875 32.3125 
Q 56.78125 27.484375 56.78125 20.515625 
Q 56.78125 9.90625 50.3125 4.234375 
Q 43.84375 -1.421875 31.78125 -1.421875 
Q 19.734375 -1.421875 13.25 4.234375 
Q 6.78125 9.90625 6.78125 20.515625 
Q 6.78125 27.484375 10.78125 32.3125 
Q 14.796875 37.15625 21.921875 38.8125 
z
M 18.3125 54.390625 
Q 18.3125 48.734375 21.84375 45.5625 
Q 25.390625 42.390625 31.78125 42.390625 
Q 38.140625 42.390625 41.71875 45.5625 
Q 45.3125 48.734375 45.3125 54.390625 
Q 45.3125 60.0625 41.71875 63.234375 
Q 38.140625 66.40625 31.78125 66.40625 
Q 25.390625 66.40625 21.84375 63.234375 
Q 18.3125 60.0625 18.3125 54.390625 
z
" id="DejaVuSans-56"/>
       </defs>
       <use xlink:href="#DejaVuSans-48"/>
       <use x="63.623047" xlink:href="#DejaVuSans-46"/>
       <use x="95.410156" xlink:href="#DejaVuSans-56"/>
      </g>
     </g>
    </g>
    <g id="xtick_6">
     <g id="line2d_11">
      <path clip-path="url(#pd1ff523aed)" d="M 240.753587 224.64 
L 240.753587 7.2 
" style="fill:none;stroke:#b0b0b0;stroke-linecap:square;stroke-width:0.8;"/>
     </g>
     <g id="line2d_12">
      <g>
       <use style="stroke:#000000;stroke-width:0.8;" x="240.753587" xlink:href="#m67ca74cbc3" y="224.64"/>
      </g>
     </g>
     <g id="text_6">
      <!-- 0.9 -->
      <g transform="translate(232.802025 239.238437)scale(0.1 -0.1)">
       <defs>
        <path d="M 10.984375 1.515625 
L 10.984375 10.5 
Q 14.703125 8.734375 18.5 7.8125 
Q 22.3125 6.890625 25.984375 6.890625 
Q 35.75 6.890625 40.890625 13.453125 
Q 46.046875 20.015625 46.78125 33.40625 
Q 43.953125 29.203125 39.59375 26.953125 
Q 35.25 24.703125 29.984375 24.703125 
Q 19.046875 24.703125 12.671875 31.3125 
Q 6.296875 37.9375 6.296875 49.421875 
Q 6.296875 60.640625 12.9375 67.421875 
Q 19.578125 74.21875 30.609375 74.21875 
Q 43.265625 74.21875 49.921875 64.515625 
Q 56.59375 54.828125 56.59375 36.375 
Q 56.59375 19.140625 48.40625 8.859375 
Q 40.234375 -1.421875 26.421875 -1.421875 
Q 22.703125 -1.421875 18.890625 -0.6875 
Q 15.09375 0.046875 10.984375 1.515625 
z
M 30.609375 32.421875 
Q 37.25 32.421875 41.125 36.953125 
Q 45.015625 41.5 45.015625 49.421875 
Q 45.015625 57.28125 41.125 61.84375 
Q 37.25 66.40625 30.609375 66.40625 
Q 23.96875 66.40625 20.09375 61.84375 
Q 16.21875 57.28125 16.21875 49.421875 
Q 16.21875 41.5 20.09375 36.953125 
Q 23.96875 32.421875 30.609375 32.421875 
z
" id="DejaVuSans-57"/>
       </defs>
       <use xlink:href="#DejaVuSans-48"/>
       <use x="63.623047" xlink:href="#DejaVuSans-46"/>
       <use x="95.410156" xlink:href="#DejaVuSans-57"/>
      </g>
     </g>
    </g>
    <g id="xtick_7">
     <g id="line2d_13">
      <path clip-path="url(#pd1ff523aed)" d="M 279.506369 224.64 
L 279.506369 7.2 
" style="fill:none;stroke:#b0b0b0;stroke-linecap:square;stroke-width:0.8;"/>
     </g>
     <g id="line2d_14">
      <g>
       <use style="stroke:#000000;stroke-width:0.8;" x="279.506369" xlink:href="#m67ca74cbc3" y="224.64"/>
      </g>
     </g>
     <g id="text_7">
      <!-- 1.0 -->
      <g transform="translate(271.554806 239.238437)scale(0.1 -0.1)">
       <defs>
        <path d="M 12.40625 8.296875 
L 28.515625 8.296875 
L 28.515625 63.921875 
L 10.984375 60.40625 
L 10.984375 69.390625 
L 28.421875 72.90625 
L 38.28125 72.90625 
L 38.28125 8.296875 
L 54.390625 8.296875 
L 54.390625 0 
L 12.40625 0 
z
" id="DejaVuSans-49"/>
       </defs>
       <use xlink:href="#DejaVuSans-49"/>
       <use x="63.623047" xlink:href="#DejaVuSans-46"/>
       <use x="95.410156" xlink:href="#DejaVuSans-48"/>
      </g>
     </g>
    </g>
    <g id="xtick_8">
     <g id="line2d_15">
      <path clip-path="url(#pd1ff523aed)" d="M 318.259151 224.64 
L 318.259151 7.2 
" style="fill:none;stroke:#b0b0b0;stroke-linecap:square;stroke-width:0.8;"/>
     </g>
     <g id="line2d_16">
      <g>
       <use style="stroke:#000000;stroke-width:0.8;" x="318.259151" xlink:href="#m67ca74cbc3" y="224.64"/>
      </g>
     </g>
     <g id="text_8">
      <!-- 1.1 -->
      <g transform="translate(310.307588 239.238437)scale(0.1 -0.1)">
       <use xlink:href="#DejaVuSans-49"/>
       <use x="63.623047" xlink:href="#DejaVuSans-46"/>
       <use x="95.410156" xlink:href="#DejaVuSans-49"/>
      </g>
     </g>
    </g>
    <g id="xtick_9">
     <g id="line2d_17">
      <path clip-path="url(#pd1ff523aed)" d="M 357.011932 224.64 
L 357.011932 7.2 
" style="fill:none;stroke:#b0b0b0;stroke-linecap:square;stroke-width:0.8;"/>
     </g>
     <g id="line2d_18">
      <g>
       <use style="stroke:#000000;stroke-width:0.8;" x="357.011932" xlink:href="#m67ca74cbc3" y="224.64"/>
      </g>
     </g>
     <g id="text_9">
      <!-- 1.2 -->
      <g transform="translate(349.06037 239.238437)scale(0.1 -0.1)">
       <defs>
        <path d="M 19.1875 8.296875 
L 53.609375 8.296875 
L 53.609375 0 
L 7.328125 0 
L 7.328125 8.296875 
Q 12.9375 14.109375 22.625 23.890625 
Q 32.328125 33.6875 34.8125 36.53125 
Q 39.546875 41.84375 41.421875 45.53125 
Q 43.3125 49.21875 43.3125 52.78125 
Q 43.3125 58.59375 39.234375 62.25 
Q 35.15625 65.921875 28.609375 65.921875 
Q 23.96875 65.921875 18.8125 64.3125 
Q 13.671875 62.703125 7.8125 59.421875 
L 7.8125 69.390625 
Q 13.765625 71.78125 18.9375 73 
Q 24.125 74.21875 28.421875 74.21875 
Q 39.75 74.21875 46.484375 68.546875 
Q 53.21875 62.890625 53.21875 53.421875 
Q 53.21875 48.921875 51.53125 44.890625 
Q 49.859375 40.875 45.40625 35.40625 
Q 44.1875 33.984375 37.640625 27.21875 
Q 31.109375 20.453125 19.1875 8.296875 
z
" id="DejaVuSans-50"/>
       </defs>
       <use xlink:href="#DejaVuSans-49"/>
       <use x="63.623047" xlink:href="#DejaVuSans-46"/>
       <use x="95.410156" xlink:href="#DejaVuSans-50"/>
      </g>
     </g>
    </g>
   </g>
   <g id="matplotlib.axis_2">
    <g id="ytick_1">
     <g id="line2d_19">
      <path clip-path="url(#pd1ff523aed)" d="M 28.942188 203.97171 
L 363.742188 203.97171 
" style="fill:none;stroke:#b0b0b0;stroke-linecap:square;stroke-width:0.8;"/>
     </g>
     <g id="line2d_20">
      <defs>
       <path d="M 0 0 
L -3.5 0 
" id="mb88c5fd482" style="stroke:#000000;stroke-width:0.8;"/>
      </defs>
      <g>
       <use style="stroke:#000000;stroke-width:0.8;" x="28.942188" xlink:href="#mb88c5fd482" y="203.97171"/>
      </g>
     </g>
     <g id="text_10">
      <!-- −4 -->
      <g transform="translate(7.2 207.770928)scale(0.1 -0.1)">
       <defs>
        <path d="M 10.59375 35.5 
L 73.1875 35.5 
L 73.1875 27.203125 
L 10.59375 27.203125 
z
" id="DejaVuSans-8722"/>
       </defs>
       <use xlink:href="#DejaVuSans-8722"/>
       <use x="83.789062" xlink:href="#DejaVuSans-52"/>
      </g>
     </g>
    </g>
    <g id="ytick_2">
     <g id="line2d_21">
      <path clip-path="url(#pd1ff523aed)" d="M 28.942188 169.354156 
L 363.742188 169.354156 
" style="fill:none;stroke:#b0b0b0;stroke-linecap:square;stroke-width:0.8;"/>
     </g>
     <g id="line2d_22">
      <g>
       <use style="stroke:#000000;stroke-width:0.8;" x="28.942188" xlink:href="#mb88c5fd482" y="169.354156"/>
      </g>
     </g>
     <g id="text_11">
      <!-- −3 -->
      <g transform="translate(7.2 173.153374)scale(0.1 -0.1)">
       <defs>
        <path d="M 40.578125 39.3125 
Q 47.65625 37.796875 51.625 33 
Q 55.609375 28.21875 55.609375 21.1875 
Q 55.609375 10.40625 48.1875 4.484375 
Q 40.765625 -1.421875 27.09375 -1.421875 
Q 22.515625 -1.421875 17.65625 -0.515625 
Q 12.796875 0.390625 7.625 2.203125 
L 7.625 11.71875 
Q 11.71875 9.328125 16.59375 8.109375 
Q 21.484375 6.890625 26.8125 6.890625 
Q 36.078125 6.890625 40.9375 10.546875 
Q 45.796875 14.203125 45.796875 21.1875 
Q 45.796875 27.640625 41.28125 31.265625 
Q 36.765625 34.90625 28.71875 34.90625 
L 20.21875 34.90625 
L 20.21875 43.015625 
L 29.109375 43.015625 
Q 36.375 43.015625 40.234375 45.921875 
Q 44.09375 48.828125 44.09375 54.296875 
Q 44.09375 59.90625 40.109375 62.90625 
Q 36.140625 65.921875 28.71875 65.921875 
Q 24.65625 65.921875 20.015625 65.03125 
Q 15.375 64.15625 9.8125 62.3125 
L 9.8125 71.09375 
Q 15.4375 72.65625 20.34375 73.4375 
Q 25.25 74.21875 29.59375 74.21875 
Q 40.828125 74.21875 47.359375 69.109375 
Q 53.90625 64.015625 53.90625 55.328125 
Q 53.90625 49.265625 50.4375 45.09375 
Q 46.96875 40.921875 40.578125 39.3125 
z
" id="DejaVuSans-51"/>
       </defs>
       <use xlink:href="#DejaVuSans-8722"/>
       <use x="83.789062" xlink:href="#DejaVuSans-51"/>
      </g>
     </g>
    </g>
    <g id="ytick_3">
     <g id="line2d_23">
      <path clip-path="url(#pd1ff523aed)" d="M 28.942188 134.736602 
L 363.742188 134.736602 
" style="fill:none;stroke:#b0b0b0;stroke-linecap:square;stroke-width:0.8;"/>
     </g>
     <g id="line2d_24">
      <g>
       <use style="stroke:#000000;stroke-width:0.8;" x="28.942188" xlink:href="#mb88c5fd482" y="134.736602"/>
      </g>
     </g>
     <g id="text_12">
      <!-- −2 -->
      <g transform="translate(7.2 138.53582)scale(0.1 -0.1)">
       <use xlink:href="#DejaVuSans-8722"/>
       <use x="83.789062" xlink:href="#DejaVuSans-50"/>
      </g>
     </g>
    </g>
    <g id="ytick_4">
     <g id="line2d_25">
      <path clip-path="url(#pd1ff523aed)" d="M 28.942188 100.119048 
L 363.742188 100.119048 
" style="fill:none;stroke:#b0b0b0;stroke-linecap:square;stroke-width:0.8;"/>
     </g>
     <g id="line2d_26">
      <g>
       <use style="stroke:#000000;stroke-width:0.8;" x="28.942188" xlink:href="#mb88c5fd482" y="100.119048"/>
      </g>
     </g>
     <g id="text_13">
      <!-- −1 -->
      <g transform="translate(7.2 103.918266)scale(0.1 -0.1)">
       <use xlink:href="#DejaVuSans-8722"/>
       <use x="83.789062" xlink:href="#DejaVuSans-49"/>
      </g>
     </g>
    </g>
    <g id="ytick_5">
     <g id="line2d_27">
      <path clip-path="url(#pd1ff523aed)" d="M 28.942188 65.501494 
L 363.742188 65.501494 
" style="fill:none;stroke:#b0b0b0;stroke-linecap:square;stroke-width:0.8;"/>
     </g>
     <g id="line2d_28">
      <g>
       <use style="stroke:#000000;stroke-width:0.8;" x="28.942188" xlink:href="#mb88c5fd482" y="65.501494"/>
      </g>
     </g>
     <g id="text_14">
      <!-- 0 -->
      <g transform="translate(15.579688 69.300712)scale(0.1 -0.1)">
       <use xlink:href="#DejaVuSans-48"/>
      </g>
     </g>
    </g>
    <g id="ytick_6">
     <g id="line2d_29">
      <path clip-path="url(#pd1ff523aed)" d="M 28.942188 30.883939 
L 363.742188 30.883939 
" style="fill:none;stroke:#b0b0b0;stroke-linecap:square;stroke-width:0.8;"/>
     </g>
     <g id="line2d_30">
      <g>
       <use style="stroke:#000000;stroke-width:0.8;" x="28.942188" xlink:href="#mb88c5fd482" y="30.883939"/>
      </g>
     </g>
     <g id="text_15">
      <!-- 1 -->
      <g transform="translate(15.579688 34.683158)scale(0.1 -0.1)">
       <use xlink:href="#DejaVuSans-49"/>
      </g>
     </g>
    </g>
   </g>
   <g id="line2d_31">
    <defs>
     <path d="M 0 1.5 
C 0.397805 1.5 0.77937 1.341951 1.06066 1.06066 
C 1.341951 0.77937 1.5 0.397805 1.5 0 
C 1.5 -0.397805 1.341951 -0.77937 1.06066 -1.06066 
C 0.77937 -1.341951 0.397805 -1.5 0 -1.5 
C -0.397805 -1.5 -0.77937 -1.341951 -1.06066 -1.06066 
C -1.341951 -0.77937 -1.5 -0.397805 -1.5 0 
C -1.5 0.397805 -1.341951 0.77937 -1.06066 1.06066 
C -0.77937 1.341951 -0.397805 1.5 0 1.5 
z
" id="mb27f8683a9" style="stroke:#0000ff;"/>
    </defs>
    <g clip-path="url(#pd1ff523aed)">
     <use style="fill:#0000ff;stroke:#0000ff;" x="44.160369" xlink:href="#mb27f8683a9" y="41.023213"/>
     <use style="fill:#0000ff;stroke:#0000ff;" x="50.371872" xlink:href="#mb27f8683a9" y="40.247146"/>
     <use style="fill:#0000ff;stroke:#0000ff;" x="56.583375" xlink:href="#mb27f8683a9" y="39.503492"/>
     <use style="fill:#0000ff;stroke:#0000ff;" x="62.794878" xlink:href="#mb27f8683a9" y="38.786132"/>
     <use style="fill:#0000ff;stroke:#0000ff;" x="69.00638" xlink:href="#mb27f8683a9" y="38.095186"/>
     <use style="fill:#0000ff;stroke:#0000ff;" x="75.217883" xlink:href="#mb27f8683a9" y="37.432076"/>
     <use style="fill:#0000ff;stroke:#0000ff;" x="81.429386" xlink:href="#mb27f8683a9" y="36.798223"/>
     <use style="fill:#0000ff;stroke:#0000ff;" x="87.640889" xlink:href="#mb27f8683a9" y="36.192868"/>
     <use style="fill:#0000ff;stroke:#0000ff;" x="93.852392" xlink:href="#mb27f8683a9" y="35.617997"/>
     <use style="fill:#0000ff;stroke:#0000ff;" x="100.063894" xlink:href="#mb27f8683a9" y="35.073379"/>
     <use style="fill:#0000ff;stroke:#0000ff;" x="106.275397" xlink:href="#mb27f8683a9" y="34.560106"/>
     <use style="fill:#0000ff;stroke:#0000ff;" x="112.4869" xlink:href="#mb27f8683a9" y="34.078577"/>
     <use style="fill:#0000ff;stroke:#0000ff;" x="118.698403" xlink:href="#mb27f8683a9" y="33.629304"/>
     <use style="fill:#0000ff;stroke:#0000ff;" x="124.909905" xlink:href="#mb27f8683a9" y="33.212816"/>
     <use style="fill:#0000ff;stroke:#0000ff;" x="131.121408" xlink:href="#mb27f8683a9" y="32.829479"/>
     <use style="fill:#0000ff;stroke:#0000ff;" x="137.332911" xlink:href="#mb27f8683a9" y="32.479693"/>
     <use style="fill:#0000ff;stroke:#0000ff;" x="143.544414" xlink:href="#mb27f8683a9" y="32.163833"/>
     <use style="fill:#0000ff;stroke:#0000ff;" x="149.755917" xlink:href="#mb27f8683a9" y="31.882146"/>
     <use style="fill:#0000ff;stroke:#0000ff;" x="155.967419" xlink:href="#mb27f8683a9" y="31.63501"/>
     <use style="fill:#0000ff;stroke:#0000ff;" x="162.178922" xlink:href="#mb27f8683a9" y="31.422637"/>
     <use style="fill:#0000ff;stroke:#0000ff;" x="168.390425" xlink:href="#mb27f8683a9" y="31.245288"/>
     <use style="fill:#0000ff;stroke:#0000ff;" x="174.601928" xlink:href="#mb27f8683a9" y="31.103172"/>
     <use style="fill:#0000ff;stroke:#0000ff;" x="180.813431" xlink:href="#mb27f8683a9" y="30.996407"/>
     <use style="fill:#0000ff;stroke:#0000ff;" x="187.024933" xlink:href="#mb27f8683a9" y="30.924985"/>
     <use style="fill:#0000ff;stroke:#0000ff;" x="193.236436" xlink:href="#mb27f8683a9" y="30.889095"/>
     <use style="fill:#0000ff;stroke:#0000ff;" x="199.447939" xlink:href="#mb27f8683a9" y="30.888616"/>
     <use style="fill:#0000ff;stroke:#0000ff;" x="205.659442" xlink:href="#mb27f8683a9" y="30.923706"/>
     <use style="fill:#0000ff;stroke:#0000ff;" x="211.870944" xlink:href="#mb27f8683a9" y="30.99472"/>
     <use style="fill:#0000ff;stroke:#0000ff;" x="218.082447" xlink:href="#mb27f8683a9" y="31.101195"/>
     <use style="fill:#0000ff;stroke:#0000ff;" x="224.29395" xlink:href="#mb27f8683a9" y="31.243105"/>
     <use style="fill:#0000ff;stroke:#0000ff;" x="230.505453" xlink:href="#mb27f8683a9" y="31.420225"/>
     <use style="fill:#0000ff;stroke:#0000ff;" x="236.716956" xlink:href="#mb27f8683a9" y="31.63125"/>
     <use style="fill:#0000ff;stroke:#0000ff;" x="242.928458" xlink:href="#mb27f8683a9" y="31.87708"/>
     <use style="fill:#0000ff;stroke:#0000ff;" x="249.139961" xlink:href="#mb27f8683a9" y="32.158341"/>
     <use style="fill:#0000ff;stroke:#0000ff;" x="255.351464" xlink:href="#mb27f8683a9" y="32.473864"/>
     <use style="fill:#0000ff;stroke:#0000ff;" x="261.562967" xlink:href="#mb27f8683a9" y="32.825381"/>
     <use style="fill:#0000ff;stroke:#0000ff;" x="267.77447" xlink:href="#mb27f8683a9" y="33.210478"/>
     <use style="fill:#0000ff;stroke:#0000ff;" x="273.985972" xlink:href="#mb27f8683a9" y="33.625242"/>
     <use style="fill:#0000ff;stroke:#0000ff;" x="280.197475" xlink:href="#mb27f8683a9" y="34.072764"/>
     <use style="fill:#0000ff;stroke:#0000ff;" x="286.408978" xlink:href="#mb27f8683a9" y="34.551595"/>
     <use style="fill:#0000ff;stroke:#0000ff;" x="292.620481" xlink:href="#mb27f8683a9" y="35.062232"/>
     <use style="fill:#0000ff;stroke:#0000ff;" x="298.831983" xlink:href="#mb27f8683a9" y="35.611215"/>
     <use style="fill:#0000ff;stroke:#0000ff;" x="305.043486" xlink:href="#mb27f8683a9" y="36.190915"/>
     <use style="fill:#0000ff;stroke:#0000ff;" x="311.254989" xlink:href="#mb27f8683a9" y="36.797164"/>
     <use style="fill:#0000ff;stroke:#0000ff;" x="317.466492" xlink:href="#mb27f8683a9" y="37.432911"/>
     <use style="fill:#0000ff;stroke:#0000ff;" x="323.677995" xlink:href="#mb27f8683a9" y="38.092069"/>
     <use style="fill:#0000ff;stroke:#0000ff;" x="329.889497" xlink:href="#mb27f8683a9" y="38.779395"/>
     <use style="fill:#0000ff;stroke:#0000ff;" x="336.101" xlink:href="#mb27f8683a9" y="39.502556"/>
     <use style="fill:#0000ff;stroke:#0000ff;" x="342.312503" xlink:href="#mb27f8683a9" y="40.249909"/>
     <use style="fill:#0000ff;stroke:#0000ff;" x="348.524006" xlink:href="#mb27f8683a9" y="41.023213"/>
    </g>
   </g>
   <g id="line2d_32">
    <g clip-path="url(#pd1ff523aed)">
     <use style="fill:#0000ff;stroke:#0000ff;" x="50.371872" xlink:href="#mb27f8683a9" y="17.083636"/>
     <use style="fill:#0000ff;stroke:#0000ff;" x="56.583375" xlink:href="#mb27f8683a9" y="19.105843"/>
     <use style="fill:#0000ff;stroke:#0000ff;" x="62.794878" xlink:href="#mb27f8683a9" y="20.746321"/>
     <use style="fill:#0000ff;stroke:#0000ff;" x="69.00638" xlink:href="#mb27f8683a9" y="22.394274"/>
     <use style="fill:#0000ff;stroke:#0000ff;" x="75.217883" xlink:href="#mb27f8683a9" y="24.130855"/>
     <use style="fill:#0000ff;stroke:#0000ff;" x="81.429386" xlink:href="#mb27f8683a9" y="25.956204"/>
     <use style="fill:#0000ff;stroke:#0000ff;" x="87.640889" xlink:href="#mb27f8683a9" y="27.734197"/>
     <use style="fill:#0000ff;stroke:#0000ff;" x="93.852392" xlink:href="#mb27f8683a9" y="29.636009"/>
     <use style="fill:#0000ff;stroke:#0000ff;" x="100.063894" xlink:href="#mb27f8683a9" y="31.523475"/>
     <use style="fill:#0000ff;stroke:#0000ff;" x="106.275397" xlink:href="#mb27f8683a9" y="33.479003"/>
     <use style="fill:#0000ff;stroke:#0000ff;" x="112.4869" xlink:href="#mb27f8683a9" y="35.459502"/>
     <use style="fill:#0000ff;stroke:#0000ff;" x="118.698403" xlink:href="#mb27f8683a9" y="37.471935"/>
     <use style="fill:#0000ff;stroke:#0000ff;" x="124.909905" xlink:href="#mb27f8683a9" y="39.517356"/>
     <use style="fill:#0000ff;stroke:#0000ff;" x="131.121408" xlink:href="#mb27f8683a9" y="41.585579"/>
     <use style="fill:#0000ff;stroke:#0000ff;" x="137.332911" xlink:href="#mb27f8683a9" y="43.678752"/>
     <use style="fill:#0000ff;stroke:#0000ff;" x="143.544414" xlink:href="#mb27f8683a9" y="45.795404"/>
     <use style="fill:#0000ff;stroke:#0000ff;" x="149.755917" xlink:href="#mb27f8683a9" y="47.927393"/>
     <use style="fill:#0000ff;stroke:#0000ff;" x="155.967419" xlink:href="#mb27f8683a9" y="50.083"/>
     <use style="fill:#0000ff;stroke:#0000ff;" x="162.178922" xlink:href="#mb27f8683a9" y="52.251791"/>
     <use style="fill:#0000ff;stroke:#0000ff;" x="168.390425" xlink:href="#mb27f8683a9" y="54.436929"/>
     <use style="fill:#0000ff;stroke:#0000ff;" x="174.601928" xlink:href="#mb27f8683a9" y="56.635063"/>
     <use style="fill:#0000ff;stroke:#0000ff;" x="180.813431" xlink:href="#mb27f8683a9" y="58.840563"/>
     <use style="fill:#0000ff;stroke:#0000ff;" x="187.024933" xlink:href="#mb27f8683a9" y="61.045543"/>
     <use style="fill:#0000ff;stroke:#0000ff;" x="193.236436" xlink:href="#mb27f8683a9" y="63.262398"/>
     <use style="fill:#0000ff;stroke:#0000ff;" x="199.447939" xlink:href="#mb27f8683a9" y="65.471552"/>
     <use style="fill:#0000ff;stroke:#0000ff;" x="205.659442" xlink:href="#mb27f8683a9" y="67.690756"/>
     <use style="fill:#0000ff;stroke:#0000ff;" x="211.870944" xlink:href="#mb27f8683a9" y="69.931933"/>
     <use style="fill:#0000ff;stroke:#0000ff;" x="218.082447" xlink:href="#mb27f8683a9" y="72.144354"/>
     <use style="fill:#0000ff;stroke:#0000ff;" x="224.29395" xlink:href="#mb27f8683a9" y="74.355078"/>
     <use style="fill:#0000ff;stroke:#0000ff;" x="230.505453" xlink:href="#mb27f8683a9" y="76.551794"/>
     <use style="fill:#0000ff;stroke:#0000ff;" x="236.716956" xlink:href="#mb27f8683a9" y="78.66709"/>
     <use style="fill:#0000ff;stroke:#0000ff;" x="242.928458" xlink:href="#mb27f8683a9" y="80.838518"/>
     <use style="fill:#0000ff;stroke:#0000ff;" x="249.139961" xlink:href="#mb27f8683a9" y="83.048962"/>
     <use style="fill:#0000ff;stroke:#0000ff;" x="255.351464" xlink:href="#mb27f8683a9" y="85.186628"/>
     <use style="fill:#0000ff;stroke:#0000ff;" x="261.562967" xlink:href="#mb27f8683a9" y="87.432181"/>
     <use style="fill:#0000ff;stroke:#0000ff;" x="267.77447" xlink:href="#mb27f8683a9" y="89.527204"/>
     <use style="fill:#0000ff;stroke:#0000ff;" x="273.985972" xlink:href="#mb27f8683a9" y="91.378084"/>
     <use style="fill:#0000ff;stroke:#0000ff;" x="280.197475" xlink:href="#mb27f8683a9" y="93.421805"/>
     <use style="fill:#0000ff;stroke:#0000ff;" x="286.408978" xlink:href="#mb27f8683a9" y="95.375182"/>
     <use style="fill:#0000ff;stroke:#0000ff;" x="292.620481" xlink:href="#mb27f8683a9" y="97.359508"/>
     <use style="fill:#0000ff;stroke:#0000ff;" x="298.831983" xlink:href="#mb27f8683a9" y="99.751845"/>
     <use style="fill:#0000ff;stroke:#0000ff;" x="305.043486" xlink:href="#mb27f8683a9" y="101.668234"/>
     <use style="fill:#0000ff;stroke:#0000ff;" x="311.254989" xlink:href="#mb27f8683a9" y="103.324589"/>
     <use style="fill:#0000ff;stroke:#0000ff;" x="317.466492" xlink:href="#mb27f8683a9" y="105.164942"/>
     <use style="fill:#0000ff;stroke:#0000ff;" x="323.677995" xlink:href="#mb27f8683a9" y="106.625569"/>
     <use style="fill:#0000ff;stroke:#0000ff;" x="329.889497" xlink:href="#mb27f8683a9" y="108.3829"/>
     <use style="fill:#0000ff;stroke:#0000ff;" x="336.101" xlink:href="#mb27f8683a9" y="110.618539"/>
     <use style="fill:#0000ff;stroke:#0000ff;" x="342.312503" xlink:href="#mb27f8683a9" y="112.127963"/>
     <use style="fill:#0000ff;stroke:#0000ff;" x="348.524006" xlink:href="#mb27f8683a9" y="113.746948"/>
    </g>
   </g>
   <g id="line2d_33">
    <defs>
     <path d="M 0 1.5 
C 0.397805 1.5 0.77937 1.341951 1.06066 1.06066 
C 1.341951 0.77937 1.5 0.397805 1.5 0 
C 1.5 -0.397805 1.341951 -0.77937 1.06066 -1.06066 
C 0.77937 -1.341951 0.397805 -1.5 0 -1.5 
C -0.397805 -1.5 -0.77937 -1.341951 -1.06066 -1.06066 
C -1.341951 -0.77937 -1.5 -0.397805 -1.5 0 
C -1.5 0.397805 -1.341951 0.77937 -1.06066 1.06066 
C -0.77937 1.341951 -0.397805 1.5 0 1.5 
z
" id="mf1c5e5022e" style="stroke:#008000;"/>
    </defs>
    <g clip-path="url(#pd1ff523aed)">
     <use style="fill:#008000;stroke:#008000;" x="56.583375" xlink:href="#mf1c5e5022e" y="191.664406"/>
     <use style="fill:#008000;stroke:#008000;" x="62.794878" xlink:href="#mf1c5e5022e" y="167.848827"/>
     <use style="fill:#008000;stroke:#008000;" x="69.00638" xlink:href="#mf1c5e5022e" y="168.3152"/>
     <use style="fill:#008000;stroke:#008000;" x="75.217883" xlink:href="#mf1c5e5022e" y="173.844639"/>
     <use style="fill:#008000;stroke:#008000;" x="81.429386" xlink:href="#mf1c5e5022e" y="179.382671"/>
     <use style="fill:#008000;stroke:#008000;" x="87.640889" xlink:href="#mf1c5e5022e" y="176.428257"/>
     <use style="fill:#008000;stroke:#008000;" x="93.852392" xlink:href="#mf1c5e5022e" y="184.153143"/>
     <use style="fill:#008000;stroke:#008000;" x="100.063894" xlink:href="#mf1c5e5022e" y="183.258086"/>
     <use style="fill:#008000;stroke:#008000;" x="106.275397" xlink:href="#mf1c5e5022e" y="187.504435"/>
     <use style="fill:#008000;stroke:#008000;" x="112.4869" xlink:href="#mf1c5e5022e" y="189.062336"/>
     <use style="fill:#008000;stroke:#008000;" x="118.698403" xlink:href="#mf1c5e5022e" y="191.054659"/>
     <use style="fill:#008000;stroke:#008000;" x="124.909905" xlink:href="#mf1c5e5022e" y="193.112682"/>
     <use style="fill:#008000;stroke:#008000;" x="131.121408" xlink:href="#mf1c5e5022e" y="194.535346"/>
     <use style="fill:#008000;stroke:#008000;" x="137.332911" xlink:href="#mf1c5e5022e" y="196.091887"/>
     <use style="fill:#008000;stroke:#008000;" x="143.544414" xlink:href="#mf1c5e5022e" y="197.556755"/>
     <use style="fill:#008000;stroke:#008000;" x="149.755917" xlink:href="#mf1c5e5022e" y="198.513588"/>
     <use style="fill:#008000;stroke:#008000;" x="155.967419" xlink:href="#mf1c5e5022e" y="199.987145"/>
     <use style="fill:#008000;stroke:#008000;" x="162.178922" xlink:href="#mf1c5e5022e" y="200.809626"/>
     <use style="fill:#008000;stroke:#008000;" x="168.390425" xlink:href="#mf1c5e5022e" y="201.829444"/>
     <use style="fill:#008000;stroke:#008000;" x="174.601928" xlink:href="#mf1c5e5022e" y="202.640338"/>
     <use style="fill:#008000;stroke:#008000;" x="180.813431" xlink:href="#mf1c5e5022e" y="203.099866"/>
     <use style="fill:#008000;stroke:#008000;" x="187.024933" xlink:href="#mf1c5e5022e" y="203.06738"/>
     <use style="fill:#008000;stroke:#008000;" x="193.236436" xlink:href="#mf1c5e5022e" y="203.808257"/>
     <use style="fill:#008000;stroke:#008000;" x="199.447939" xlink:href="#mf1c5e5022e" y="203.327869"/>
     <use style="fill:#008000;stroke:#008000;" x="205.659442" xlink:href="#mf1c5e5022e" y="203.954832"/>
     <use style="fill:#008000;stroke:#008000;" x="211.870944" xlink:href="#mf1c5e5022e" y="205.325699"/>
     <use style="fill:#008000;stroke:#008000;" x="218.082447" xlink:href="#mf1c5e5022e" y="203.5316"/>
     <use style="fill:#008000;stroke:#008000;" x="224.29395" xlink:href="#mf1c5e5022e" y="203.425822"/>
     <use style="fill:#008000;stroke:#008000;" x="230.505453" xlink:href="#mf1c5e5022e" y="202.551793"/>
     <use style="fill:#008000;stroke:#008000;" x="236.716956" xlink:href="#mf1c5e5022e" y="197.472172"/>
     <use style="fill:#008000;stroke:#008000;" x="242.928458" xlink:href="#mf1c5e5022e" y="200.974112"/>
     <use style="fill:#008000;stroke:#008000;" x="249.139961" xlink:href="#mf1c5e5022e" y="203.408311"/>
     <use style="fill:#008000;stroke:#008000;" x="255.351464" xlink:href="#mf1c5e5022e" y="198.867807"/>
     <use style="fill:#008000;stroke:#008000;" x="261.562967" xlink:href="#mf1c5e5022e" y="205.598669"/>
     <use style="fill:#008000;stroke:#008000;" x="267.77447" xlink:href="#mf1c5e5022e" y="196.207337"/>
     <use style="fill:#008000;stroke:#008000;" x="273.985972" xlink:href="#mf1c5e5022e" y="180.975565"/>
     <use style="fill:#008000;stroke:#008000;" x="280.197475" xlink:href="#mf1c5e5022e" y="193.006673"/>
     <use style="fill:#008000;stroke:#008000;" x="286.408978" xlink:href="#mf1c5e5022e" y="187.370237"/>
     <use style="fill:#008000;stroke:#008000;" x="292.620481" xlink:href="#mf1c5e5022e" y="189.301067"/>
     <use style="fill:#008000;stroke:#008000;" x="298.831983" xlink:href="#mf1c5e5022e" y="214.756364"/>
     <use style="fill:#008000;stroke:#008000;" x="305.043486" xlink:href="#mf1c5e5022e" y="185.062606"/>
     <use style="fill:#008000;stroke:#008000;" x="311.254989" xlink:href="#mf1c5e5022e" y="168.839401"/>
     <use style="fill:#008000;stroke:#008000;" x="317.466492" xlink:href="#mf1c5e5022e" y="180.318808"/>
     <use style="fill:#008000;stroke:#008000;" x="323.677995" xlink:href="#mf1c5e5022e" y="156.628122"/>
     <use style="fill:#008000;stroke:#008000;" x="329.889497" xlink:href="#mf1c5e5022e" y="175.13919"/>
     <use style="fill:#008000;stroke:#008000;" x="336.101" xlink:href="#mf1c5e5022e" y="204.980207"/>
     <use style="fill:#008000;stroke:#008000;" x="342.312503" xlink:href="#mf1c5e5022e" y="159.672502"/>
     <use style="fill:#008000;stroke:#008000;" x="348.524006" xlink:href="#mf1c5e5022e" y="166.50792"/>
    </g>
   </g>
   <g id="patch_3">
    <path d="M 28.942188 224.64 
L 28.942188 7.2 
" style="fill:none;stroke:#000000;stroke-linecap:square;stroke-linejoin:miter;stroke-width:0.8;"/>
   </g>
   <g id="patch_4">
    <path d="M 363.742188 224.64 
L 363.742188 7.2 
" style="fill:none;stroke:#000000;stroke-linecap:square;stroke-linejoin:miter;stroke-width:0.8;"/>
   </g>
   <g id="patch_5">
    <path d="M 28.942188 224.64 
L 363.742188 224.64 
" style="fill:none;stroke:#000000;stroke-linecap:square;stroke-linejoin:miter;stroke-width:0.8;"/>
   </g>
   <g id="patch_6">
    <path d="M 28.942188 7.2 
L 363.742188 7.2 
" style="fill:none;stroke:#000000;stroke-linecap:square;stroke-linejoin:miter;stroke-width:0.8;"/>
   </g>
  </g>
 </g>
 <defs>
  <clipPath id="pd1ff523aed">
   <rect height="217.44" width="334.8" x="28.942188" y="7.2"/>
  </clipPath>
 </defs>
</svg>
