<?xml version="1.0" encoding="utf-8" standalone="no"?>
<!DOCTYPE svg PUBLIC "-//W3C//DTD SVG 1.1//EN"
  "http://www.w3.org/Graphics/SVG/1.1/DTD/svg11.dtd">
<!-- Created with matplotlib (https://matplotlib.org/) -->
<svg height="358.253679pt" version="1.1" viewBox="0 0 873.666618 358.253679" width="873.666618pt" xmlns="http://www.w3.org/2000/svg" xmlns:xlink="http://www.w3.org/1999/xlink">
 <metadata>
  <rdf:RDF xmlns:cc="http://creativecommons.org/ns#" xmlns:dc="http://purl.org/dc/elements/1.1/" xmlns:rdf="http://www.w3.org/1999/02/22-rdf-syntax-ns#">
   <cc:Work>
    <dc:type rdf:resource="http://purl.org/dc/dcmitype/StillImage"/>
    <dc:date>2021-10-10T08:31:13.093504</dc:date>
    <dc:format>image/svg+xml</dc:format>
    <dc:creator>
     <cc:Agent>
      <dc:title>Matplotlib v3.3.4, https://matplotlib.org/</dc:title>
     </cc:Agent>
    </dc:creator>
   </cc:Work>
  </rdf:RDF>
 </metadata>
 <defs>
  <style type="text/css">*{stroke-linecap:butt;stroke-linejoin:round;}</style>
 </defs>
 <g id="figure_1">
  <g id="patch_1">
   <path d="M 0 358.253679 
L 873.666618 358.253679 
L 873.666618 0 
L 0 0 
z
" style="fill:none;"/>
  </g>
  <g id="axes_1">
   <g id="patch_2">
    <path d="M 29.466618 333.36 
L 866.466618 333.36 
L 866.466618 7.2 
L 29.466618 7.2 
z
" style="fill:#ffffff;"/>
   </g>
   <g id="matplotlib.axis_1">
    <g id="xtick_1">
     <g id="line2d_1">
      <path clip-path="url(#p29b919168d)" d="M 67.512073 333.36 
L 67.512073 7.2 
" style="fill:none;stroke:#666666;stroke-linecap:square;stroke-opacity:0.3;stroke-width:0.8;"/>
     </g>
     <g id="line2d_2">
      <defs>
       <path d="M 0 0 
L 0 3.5 
" id="m6cb9a36c96" style="stroke:#000000;stroke-width:0.8;"/>
      </defs>
      <g>
       <use style="stroke:#000000;stroke-width:0.8;" x="67.512073" xlink:href="#m6cb9a36c96" y="333.36"/>
      </g>
     </g>
     <g id="text_1">
      <!-- $\mathdefault{0}$ -->
      <g transform="translate(64.52328 348.465484)scale(0.12 -0.12)">
       <defs>
        <path d="M 25.40625 68 
C 19.90625 68 15.703125 66.296875 12 62.796875 
C 6.203125 57.203125 2.40625 45.6875 2.40625 34 
C 2.40625 23.09375 5.703125 11.390625 10.40625 5.796875 
C 14.09375 1.390625 19.203125 -1 25 -1 
C 30.09375 -1 34.40625 0.6875 38 4.1875 
C 43.796875 9.6875 47.59375 21.296875 47.59375 33.390625 
C 47.59375 53.890625 38.5 68 25.40625 68 
z
M 25.09375 65.390625 
C 33.5 65.390625 38 54.09375 38 33.1875 
C 38 12.296875 33.59375 1.59375 25 1.59375 
C 16.40625 1.59375 12 12.296875 12 33.09375 
C 12 54.296875 16.5 65.390625 25.09375 65.390625 
z
" id="Nimbus_Roman_No9_L_Regular-48"/>
       </defs>
       <use transform="scale(0.996264)" xlink:href="#Nimbus_Roman_No9_L_Regular-48"/>
      </g>
     </g>
    </g>
    <g id="xtick_2">
     <g id="line2d_3">
      <path clip-path="url(#p29b919168d)" d="M 219.693891 333.36 
L 219.693891 7.2 
" style="fill:none;stroke:#666666;stroke-linecap:square;stroke-opacity:0.3;stroke-width:0.8;"/>
     </g>
     <g id="line2d_4">
      <g>
       <use style="stroke:#000000;stroke-width:0.8;" x="219.693891" xlink:href="#m6cb9a36c96" y="333.36"/>
      </g>
     </g>
     <g id="text_2">
      <!-- $\mathdefault{20}$ -->
      <g transform="translate(213.716307 348.465484)scale(0.12 -0.12)">
       <defs>
        <path d="M 47.5 13.734375 
L 46.203125 14.25 
C 42.5 8.5 41.203125 7.59375 36.703125 7.59375 
L 12.796875 7.59375 
L 29.59375 25.328125 
C 38.5 34.703125 42.40625 42.359375 42.40625 50.21875 
C 42.40625 60.28125 34.296875 68 23.90625 68 
C 18.40625 68 13.203125 65.796875 9.5 61.796875 
C 6.296875 58.375 4.796875 55.15625 3.09375 48 
L 5.203125 47.484375 
C 9.203125 57.359375 12.796875 60.59375 19.703125 60.59375 
C 28.09375 60.59375 33.796875 54.84375 33.796875 46.390625 
C 33.796875 38.53125 29.203125 29.15625 20.796875 20.1875 
L 3 1.1875 
L 3 0 
L 42 0 
z
" id="Nimbus_Roman_No9_L_Regular-50"/>
       </defs>
       <use transform="scale(0.996264)" xlink:href="#Nimbus_Roman_No9_L_Regular-50"/>
       <use transform="translate(49.8132 0)scale(0.996264)" xlink:href="#Nimbus_Roman_No9_L_Regular-48"/>
      </g>
     </g>
    </g>
    <g id="xtick_3">
     <g id="line2d_5">
      <path clip-path="url(#p29b919168d)" d="M 371.875709 333.36 
L 371.875709 7.2 
" style="fill:none;stroke:#666666;stroke-linecap:square;stroke-opacity:0.3;stroke-width:0.8;"/>
     </g>
     <g id="line2d_6">
      <g>
       <use style="stroke:#000000;stroke-width:0.8;" x="371.875709" xlink:href="#m6cb9a36c96" y="333.36"/>
      </g>
     </g>
     <g id="text_3">
      <!-- $\mathdefault{40}$ -->
      <g transform="translate(365.898125 348.465484)scale(0.12 -0.12)">
       <defs>
        <path d="M 47.203125 23.390625 
L 37 23.390625 
L 37 68 
L 32.59375 68 
L 1.203125 23.390625 
L 1.203125 17 
L 29.296875 17 
L 29.296875 0 
L 37 0 
L 37 17 
L 47.203125 17 
z
M 29.203125 23.390625 
L 5.203125 23.390625 
L 29.203125 57.765625 
z
" id="Nimbus_Roman_No9_L_Regular-52"/>
       </defs>
       <use transform="scale(0.996264)" xlink:href="#Nimbus_Roman_No9_L_Regular-52"/>
       <use transform="translate(49.8132 0)scale(0.996264)" xlink:href="#Nimbus_Roman_No9_L_Regular-48"/>
      </g>
     </g>
    </g>
    <g id="xtick_4">
     <g id="line2d_7">
      <path clip-path="url(#p29b919168d)" d="M 524.057527 333.36 
L 524.057527 7.2 
" style="fill:none;stroke:#666666;stroke-linecap:square;stroke-opacity:0.3;stroke-width:0.8;"/>
     </g>
     <g id="line2d_8">
      <g>
       <use style="stroke:#000000;stroke-width:0.8;" x="524.057527" xlink:href="#m6cb9a36c96" y="333.36"/>
      </g>
     </g>
     <g id="text_4">
      <!-- $\mathdefault{60}$ -->
      <g transform="translate(518.079943 348.465484)scale(0.12 -0.12)">
       <defs>
        <path d="M 44.59375 68.59375 
C 33.203125 67.59375 27.40625 65.6875 20.09375 60.59375 
C 9.296875 52.890625 3.40625 41.484375 3.40625 28.140625 
C 3.40625 19.5 6.09375 10.75 10.40625 5.765625 
C 14.203125 1.390625 19.59375 -1 25.796875 -1 
C 38.203125 -1 46.796875 8.453125 46.796875 22.1875 
C 46.796875 34.90625 39.5 43 28 43 
C 23.59375 43 21.5 42.296875 15.203125 38.484375 
C 17.90625 53.59375 29.09375 64.390625 44.796875 67 
z
M 24.203125 38.390625 
C 32.796875 38.390625 37.796875 31.234375 37.796875 18.796875 
C 37.796875 7.859375 33.90625 1.796875 26.90625 1.796875 
C 18.09375 1.796875 12.703125 11.140625 12.703125 26.5625 
C 12.703125 31.625 13.5 34.421875 15.5 35.90625 
C 17.59375 37.5 20.703125 38.390625 24.203125 38.390625 
z
" id="Nimbus_Roman_No9_L_Regular-54"/>
       </defs>
       <use transform="scale(0.996264)" xlink:href="#Nimbus_Roman_No9_L_Regular-54"/>
       <use transform="translate(49.8132 0)scale(0.996264)" xlink:href="#Nimbus_Roman_No9_L_Regular-48"/>
      </g>
     </g>
    </g>
    <g id="xtick_5">
     <g id="line2d_9">
      <path clip-path="url(#p29b919168d)" d="M 676.239345 333.36 
L 676.239345 7.2 
" style="fill:none;stroke:#666666;stroke-linecap:square;stroke-opacity:0.3;stroke-width:0.8;"/>
     </g>
     <g id="line2d_10">
      <g>
       <use style="stroke:#000000;stroke-width:0.8;" x="676.239345" xlink:href="#m6cb9a36c96" y="333.36"/>
      </g>
     </g>
     <g id="text_5">
      <!-- $\mathdefault{80}$ -->
      <g transform="translate(670.261761 348.465484)scale(0.12 -0.12)">
       <defs>
        <path d="M 29 37.5 
C 38.90625 42.796875 42.40625 47 42.40625 53.796875 
C 42.40625 62 35.203125 68 25.203125 68 
C 14.296875 68 6.203125 61.296875 6.203125 52.203125 
C 6.203125 45.6875 8.09375 42.796875 18.59375 33.59375 
C 7.796875 25.390625 5.59375 22.296875 5.59375 15.5 
C 5.59375 5.796875 13.5 -1 24.796875 -1 
C 36.796875 -1 44.5 5.59375 44.5 15.890625 
C 44.5 23.59375 41.09375 28.5 29 37.5 
z
M 27.203125 27.1875 
C 34.5 22 36.90625 18.390625 36.90625 12.796875 
C 36.90625 6.296875 32.40625 1.796875 25.90625 1.796875 
C 18.296875 1.796875 13.203125 7.59375 13.203125 16.296875 
C 13.203125 22.6875 15.40625 26.890625 21.203125 31.59375 
z
M 26.09375 39.296875 
C 17.203125 45.09375 13.59375 49.6875 13.59375 55.296875 
C 13.59375 61.09375 18.09375 65.1875 24.40625 65.1875 
C 31.203125 65.1875 35.5 60.796875 35.5 53.890625 
C 35.5 48.1875 32.703125 43.6875 27 39.890625 
C 26.5 39.59375 26.5 39.59375 26.09375 39.296875 
z
" id="Nimbus_Roman_No9_L_Regular-56"/>
       </defs>
       <use transform="scale(0.996264)" xlink:href="#Nimbus_Roman_No9_L_Regular-56"/>
       <use transform="translate(49.8132 0)scale(0.996264)" xlink:href="#Nimbus_Roman_No9_L_Regular-48"/>
      </g>
     </g>
    </g>
    <g id="xtick_6">
     <g id="line2d_11">
      <path clip-path="url(#p29b919168d)" d="M 828.421163 333.36 
L 828.421163 7.2 
" style="fill:none;stroke:#666666;stroke-linecap:square;stroke-opacity:0.3;stroke-width:0.8;"/>
     </g>
     <g id="line2d_12">
      <g>
       <use style="stroke:#000000;stroke-width:0.8;" x="828.421163" xlink:href="#m6cb9a36c96" y="333.36"/>
      </g>
     </g>
     <g id="text_6">
      <!-- $\mathdefault{100}$ -->
      <g transform="translate(819.454787 348.465484)scale(0.12 -0.12)">
       <defs>
        <path d="M 29.09375 68 
L 11.09375 59 
L 11.09375 57.59375 
C 12.296875 58.09375 13.40625 58.484375 13.796875 58.6875 
C 15.59375 59.390625 17.296875 59.78125 18.296875 59.78125 
C 20.40625 59.78125 21.296875 58.296875 21.296875 55.078125 
L 21.296875 9.359375 
C 21.296875 6.03125 20.5 3.71875 18.90625 2.796875 
C 17.40625 1.890625 16 1.59375 11.796875 1.5 
L 11.796875 0 
L 39.40625 0 
L 39.40625 1.5 
C 31.5 1.59375 29.90625 2.609375 29.90625 7.453125 
L 29.90625 67.796875 
z
" id="Nimbus_Roman_No9_L_Regular-49"/>
       </defs>
       <use transform="scale(0.996264)" xlink:href="#Nimbus_Roman_No9_L_Regular-49"/>
       <use transform="translate(49.8132 0)scale(0.996264)" xlink:href="#Nimbus_Roman_No9_L_Regular-48"/>
       <use transform="translate(99.626401 0)scale(0.996264)" xlink:href="#Nimbus_Roman_No9_L_Regular-48"/>
      </g>
     </g>
    </g>
   </g>
   <g id="matplotlib.axis_2">
    <g id="ytick_1">
     <g id="line2d_13">
      <path clip-path="url(#p29b919168d)" d="M 29.466618 283.182769 
L 866.466618 283.182769 
" style="fill:none;stroke:#666666;stroke-linecap:square;stroke-opacity:0.3;stroke-width:0.8;"/>
     </g>
     <g id="line2d_14">
      <defs>
       <path d="M 0 0 
L -3.5 0 
" id="me117dcdafb" style="stroke:#000000;stroke-width:0.8;"/>
      </defs>
      <g>
       <use style="stroke:#000000;stroke-width:0.8;" x="29.466618" xlink:href="#me117dcdafb" y="283.182769"/>
      </g>
     </g>
     <g id="text_7">
      <!-- $\mathdefault{0.2}$ -->
      <g transform="translate(7.2 287.235511)scale(0.12 -0.12)">
       <defs>
        <path d="M 19.203125 5.296875 
C 19.203125 8.1875 16.796875 10.59375 13.90625 10.59375 
C 11 10.59375 8.59375 8.1875 8.59375 5.296875 
C 8.59375 2.390625 11 0 13.90625 0 
C 16.796875 0 19.203125 2.390625 19.203125 5.296875 
z
" id="CMMI10-58"/>
       </defs>
       <use transform="scale(0.996264)" xlink:href="#Nimbus_Roman_No9_L_Regular-48"/>
       <use transform="translate(49.8132 0)scale(0.996264)" xlink:href="#CMMI10-58"/>
       <use transform="translate(77.408707 0)scale(0.996264)" xlink:href="#Nimbus_Roman_No9_L_Regular-50"/>
      </g>
     </g>
    </g>
    <g id="ytick_2">
     <g id="line2d_15">
      <path clip-path="url(#p29b919168d)" d="M 29.466618 215.786627 
L 866.466618 215.786627 
" style="fill:none;stroke:#666666;stroke-linecap:square;stroke-opacity:0.3;stroke-width:0.8;"/>
     </g>
     <g id="line2d_16">
      <g>
       <use style="stroke:#000000;stroke-width:0.8;" x="29.466618" xlink:href="#me117dcdafb" y="215.786627"/>
      </g>
     </g>
     <g id="text_8">
      <!-- $\mathdefault{0.4}$ -->
      <g transform="translate(7.2 219.839369)scale(0.12 -0.12)">
       <use transform="scale(0.996264)" xlink:href="#Nimbus_Roman_No9_L_Regular-48"/>
       <use transform="translate(49.8132 0)scale(0.996264)" xlink:href="#CMMI10-58"/>
       <use transform="translate(77.408707 0)scale(0.996264)" xlink:href="#Nimbus_Roman_No9_L_Regular-52"/>
      </g>
     </g>
    </g>
    <g id="ytick_3">
     <g id="line2d_17">
      <path clip-path="url(#p29b919168d)" d="M 29.466618 148.390485 
L 866.466618 148.390485 
" style="fill:none;stroke:#666666;stroke-linecap:square;stroke-opacity:0.3;stroke-width:0.8;"/>
     </g>
     <g id="line2d_18">
      <g>
       <use style="stroke:#000000;stroke-width:0.8;" x="29.466618" xlink:href="#me117dcdafb" y="148.390485"/>
      </g>
     </g>
     <g id="text_9">
      <!-- $\mathdefault{0.6}$ -->
      <g transform="translate(7.2 152.443227)scale(0.12 -0.12)">
       <use transform="scale(0.996264)" xlink:href="#Nimbus_Roman_No9_L_Regular-48"/>
       <use transform="translate(49.8132 0)scale(0.996264)" xlink:href="#CMMI10-58"/>
       <use transform="translate(77.408707 0)scale(0.996264)" xlink:href="#Nimbus_Roman_No9_L_Regular-54"/>
      </g>
     </g>
    </g>
    <g id="ytick_4">
     <g id="line2d_19">
      <path clip-path="url(#p29b919168d)" d="M 29.466618 80.994343 
L 866.466618 80.994343 
" style="fill:none;stroke:#666666;stroke-linecap:square;stroke-opacity:0.3;stroke-width:0.8;"/>
     </g>
     <g id="line2d_20">
      <g>
       <use style="stroke:#000000;stroke-width:0.8;" x="29.466618" xlink:href="#me117dcdafb" y="80.994343"/>
      </g>
     </g>
     <g id="text_10">
      <!-- $\mathdefault{0.8}$ -->
      <g transform="translate(7.2 85.047085)scale(0.12 -0.12)">
       <use transform="scale(0.996264)" xlink:href="#Nimbus_Roman_No9_L_Regular-48"/>
       <use transform="translate(49.8132 0)scale(0.996264)" xlink:href="#CMMI10-58"/>
       <use transform="translate(77.408707 0)scale(0.996264)" xlink:href="#Nimbus_Roman_No9_L_Regular-56"/>
      </g>
     </g>
    </g>
    <g id="ytick_5">
     <g id="line2d_21">
      <path clip-path="url(#p29b919168d)" d="M 29.466618 13.598201 
L 866.466618 13.598201 
" style="fill:none;stroke:#666666;stroke-linecap:square;stroke-opacity:0.3;stroke-width:0.8;"/>
     </g>
     <g id="line2d_22">
      <g>
       <use style="stroke:#000000;stroke-width:0.8;" x="29.466618" xlink:href="#me117dcdafb" y="13.598201"/>
      </g>
     </g>
     <g id="text_11">
      <!-- $\mathdefault{1.0}$ -->
      <g transform="translate(7.2 17.650943)scale(0.12 -0.12)">
       <use transform="scale(0.996264)" xlink:href="#Nimbus_Roman_No9_L_Regular-49"/>
       <use transform="translate(49.8132 0)scale(0.996264)" xlink:href="#CMMI10-58"/>
       <use transform="translate(77.408707 0)scale(0.996264)" xlink:href="#Nimbus_Roman_No9_L_Regular-48"/>
      </g>
     </g>
    </g>
   </g>
   <g id="line2d_23">
    <path clip-path="url(#p29b919168d)" d="M 67.512073 80.994343 
L 75.121163 140.302948 
L 82.730254 42.230239 
L 90.339345 248.401732 
L 97.948436 72.915856 
L 105.557527 159.961907 
L 113.166618 27.688905 
L 120.775709 297.923032 
L 128.3848 177.309771 
L 135.993891 22.287017 
L 143.602982 317.566265 
L 151.212073 234.442645 
L 158.821163 53.744735 
L 166.430254 212.660728 
L 174.039345 32.839851 
L 181.648436 279.82141 
L 189.257527 132.568131 
L 196.866618 50.403757 
L 204.475709 222.715085 
L 212.0848 41.124725 
L 219.693891 251.994712 
L 227.302982 78.580246 
L 234.912073 146.019382 
L 242.521163 37.079493 
L 250.130254 265.383088 
L 257.739345 102.318466 
L 265.348436 95.667118 
L 272.957527 108.460287 
L 280.566618 84.763329 
L 288.175709 131.647922 
L 295.7848 51.468334 
L 303.393891 219.483295 
L 311.002982 38.206522 
L 318.612073 261.614934 
L 326.221163 95.217813 
L 333.830254 109.361402 
L 341.439345 83.236999 
L 349.048436 135.113341 
L 356.657527 47.561321 
L 364.266618 231.472542 
L 371.875709 50.247582 
L 379.4848 223.191399 
L 387.093891 41.575264 
L 394.702982 250.527023 
L 402.312073 76.23031 
L 409.921163 151.713454 
L 417.530254 32.700845 
L 425.139345 280.301847 
L 432.748436 133.657646 
L 440.357527 49.168655 
L 447.966618 226.49742 
L 455.575709 44.847093 
L 463.1848 240.009541 
L 470.793891 60.849505 
L 478.402982 192.138506 
L 486.012073 23.191646 
L 493.621163 314.229622 
L 501.230254 224.108229 
L 508.839345 42.45726 
L 516.448436 247.6674 
L 524.057527 71.794946 
L 531.666618 162.808976 
L 539.275709 26.324563 
L 546.8848 302.820524 
L 554.493891 190.718463 
L 562.102982 22.884648 
L 569.712073 315.359831 
L 577.321163 227.579908 
L 584.930254 45.973366 
L 592.539345 236.446402 
L 600.148436 56.219406 
L 607.757527 205.380001 
L 615.366618 28.301168 
L 622.975709 295.739235 
L 630.5848 171.509791 
L 638.193891 23.317897 
L 645.802982 313.765462 
L 653.412073 222.691027 
L 661.021163 41.102109 
L 668.630254 252.068512 
L 676.239345 78.699724 
L 683.848436 145.733292 
L 691.457527 37.319292 
L 699.066618 264.578872 
L 706.675709 100.775428 
L 714.2848 98.543766 
L 721.893891 102.801689 
L 729.502982 94.77759 
L 737.112073 110.248832 
L 744.721163 81.752219 
L 752.330254 138.536166 
L 759.939345 43.975196 
L 767.548436 242.788086 
L 775.157527 64.663998 
L 782.766618 181.602341 
L 790.375709 22.025455 
L 797.9848 318.534545 
L 805.593891 237.489893 
L 813.202982 57.544935 
L 820.812073 201.538462 
L 828.421163 26.400908 
" style="fill:none;stroke:#0000ff;stroke-linecap:square;stroke-width:1.5;"/>
   </g>
   <g id="line2d_24">
    <path clip-path="url(#p29b919168d)" d="M 67.512073 80.994343 
L 75.121163 140.302948 
L 82.730254 42.230239 
L 90.339345 248.401732 
L 97.948436 72.915856 
L 105.557527 159.961907 
L 113.166618 27.688905 
L 120.775709 297.923032 
L 128.3848 177.309771 
L 135.993891 22.287017 
L 143.602982 317.566265 
L 151.212073 234.442645 
L 158.821163 53.744735 
L 166.430254 212.660728 
L 174.039345 32.839851 
L 181.648436 279.82141 
L 189.257527 132.568131 
L 196.866618 50.403757 
L 204.475709 222.715085 
L 212.0848 41.124725 
L 219.693891 251.994712 
L 227.302982 78.580246 
L 234.912073 146.019382 
L 242.521163 37.079493 
L 250.130254 265.383088 
L 257.739345 102.318466 
L 265.348436 95.667118 
L 272.957527 108.460287 
L 280.566618 84.76333 
L 288.175709 131.647921 
L 295.7848 51.468335 
L 303.393891 219.483292 
L 311.002982 38.206519 
L 318.612073 261.614943 
L 326.221163 95.21783 
L 333.830254 109.361367 
L 341.439345 83.237057 
L 349.048436 135.113207 
L 356.657527 47.561466 
L 364.266618 231.47209 
L 371.875709 50.247065 
L 379.4848 223.192978 
L 387.093891 41.576766 
L 394.702982 250.522136 
L 402.312073 76.222569 
L 409.921163 151.732421 
L 417.530254 32.687513 
L 425.139345 280.347947 
L 432.748436 133.76247 
L 440.357527 49.051272 
L 447.966618 226.858726 
L 455.575709 45.219998 
L 463.1848 238.826548 
L 470.793891 59.279685 
L 478.402982 196.572393 
L 486.012073 24.450596 
L 493.621163 309.617615 
L 501.230254 210.247967 
L 508.839345 31.199845 
L 516.448436 285.518134 
L 524.057527 145.830822 
L 531.666618 37.237331 
L 539.275709 264.853598 
L 546.8848 101.300857 
L 554.493891 97.558034 
L 562.102982 104.719131 
L 569.712073 91.301191 
L 577.321163 117.414375 
L 584.930254 70.431197 
L 592.539345 166.312065 
L 600.148436 24.903302 
L 607.757527 307.968155 
L 615.366618 205.410446 
L 622.975709 28.317592 
L 630.5848 295.680774 
L 638.193891 171.35604 
L 645.802982 23.355818 
L 653.412073 313.626115 
L 661.021163 222.26654 
L 668.630254 40.705256 
L 676.239345 253.365416 
L 683.848436 80.819924 
L 691.457527 140.71144 
L 699.066618 41.837077 
L 706.675709 249.67629 
L 714.2848 74.891017 
L 721.893891 155.015844 
L 729.502982 30.505203 
L 737.112073 287.949809 
L 744.721163 151.720822 
L 752.330254 32.695665 
L 759.939345 280.319757 
L 767.548436 133.698365 
L 775.157527 49.123027 
L 782.766618 226.637826 
L 790.375709 44.991648 
L 797.9848 239.550577 
L 805.593891 60.236619 
L 813.202982 193.862789 
L 820.812073 23.627164 
L 828.421163 312.630006 
" style="fill:none;stroke:#008000;stroke-linecap:square;stroke-width:1.5;"/>
   </g>
   <g id="line2d_25">
    <path clip-path="url(#p29b919168d)" d="M 67.512073 80.994343 
L 75.121163 140.302948 
L 82.730254 42.230239 
L 90.339345 248.401732 
L 97.948436 72.915856 
L 105.557527 159.961907 
L 113.166618 27.688905 
L 120.775709 297.923032 
L 128.3848 177.309771 
L 135.993891 22.287017 
L 143.602982 317.566265 
L 151.212073 234.442645 
L 158.821163 53.744735 
L 166.430254 212.660728 
L 174.039345 32.839851 
L 181.648436 279.82141 
L 189.257527 132.568131 
L 196.866618 50.403757 
L 204.475709 222.715085 
L 212.0848 41.124725 
L 219.693891 251.994712 
L 227.302982 78.580246 
L 234.912073 146.019382 
L 242.521163 37.079493 
L 250.130254 265.383088 
L 257.739345 102.318466 
L 265.348436 95.667118 
L 272.957527 108.460287 
L 280.566618 84.763329 
L 288.175709 131.647923 
L 295.7848 51.468333 
L 303.393891 219.483298 
L 311.002982 38.206524 
L 318.612073 261.614928 
L 326.221163 95.217801 
L 333.830254 109.361426 
L 341.439345 83.236959 
L 349.048436 135.113431 
L 356.657527 47.561222 
L 364.266618 231.472849 
L 371.875709 50.247933 
L 379.4848 223.190329 
L 387.093891 41.574246 
L 394.702982 250.530334 
L 402.312073 76.235555 
L 409.921163 151.700603 
L 417.530254 32.709882 
L 425.139345 280.270598 
L 432.748436 133.586617 
L 440.357527 49.248337 
L 447.966618 226.252338 
L 455.575709 44.595864 
L 463.1848 240.808348 
L 470.793891 61.927835 
L 478.402982 189.125859 
L 486.012073 22.595874 
L 493.621163 316.424945 
L 501.230254 230.878694 
L 508.839345 49.572849 
L 516.448436 225.255744 
L 524.057527 43.588594 
L 531.666618 244.025736 
L 539.275709 66.420617 
L 546.8848 176.863572 
L 554.493891 22.338677 
L 562.102982 317.375213 
L 569.712073 233.843954 
L 577.321163 53.023373 
L 584.930254 214.809727 
L 592.539345 34.414029 
L 600.148436 274.411903 
L 607.757527 120.669437 
L 615.366618 65.681009 
L 622.975709 178.850082 
L 630.5848 22.144097 
L 638.193891 318.095147 
L 645.802982 236.104385 
L 653.412073 55.790432 
L 661.021163 206.631929 
L 668.630254 28.994248 
L 676.239345 293.277657 
L 683.848436 165.104389 
L 691.457527 25.361193 
L 699.066618 306.304624 
L 706.675709 200.595443 
L 714.2848 25.986652 
L 721.893891 304.04016 
L 729.502982 194.144012 
L 737.112073 23.704722 
L 744.721163 312.345603 
L 752.330254 218.386787 
L 759.939345 37.271336 
L 767.548436 264.739595 
L 775.157527 101.082608 
L 782.766618 97.966703 
L 790.375709 103.921459 
L 797.9848 92.737065 
L 805.593891 114.420847 
L 813.202982 75.016207 
L 820.812073 154.705395 
L 828.421163 30.70086 
" style="fill:none;stroke:#000000;stroke-linecap:square;stroke-width:1.5;"/>
   </g>
   <g id="patch_3">
    <path d="M 29.466618 333.36 
L 29.466618 7.2 
" style="fill:none;stroke:#000000;stroke-linecap:square;stroke-linejoin:miter;stroke-width:0.8;"/>
   </g>
   <g id="patch_4">
    <path d="M 866.466618 333.36 
L 866.466618 7.2 
" style="fill:none;stroke:#000000;stroke-linecap:square;stroke-linejoin:miter;stroke-width:0.8;"/>
   </g>
   <g id="patch_5">
    <path d="M 29.466618 333.36 
L 866.466618 333.36 
" style="fill:none;stroke:#000000;stroke-linecap:square;stroke-linejoin:miter;stroke-width:0.8;"/>
   </g>
   <g id="patch_6">
    <path d="M 29.466618 7.2 
L 866.466618 7.2 
" style="fill:none;stroke:#000000;stroke-linecap:square;stroke-linejoin:miter;stroke-width:0.8;"/>
   </g>
   <g id="legend_1">
    <g id="patch_7">
     <path d="M 742.594044 325.86 
L 855.966618 325.86 
Q 858.966618 325.86 858.966618 322.86 
L 858.966618 251.459754 
Q 858.966618 248.459754 855.966618 248.459754 
L 742.594044 248.459754 
Q 739.594044 248.459754 739.594044 251.459754 
L 739.594044 322.86 
Q 739.594044 325.86 742.594044 325.86 
z
" style="fill:#ffffff;opacity:0.8;stroke:#cccccc;stroke-linejoin:miter;"/>
    </g>
    <g id="line2d_26">
     <path d="M 745.594044 260.60741 
L 775.594044 260.60741 
" style="fill:none;stroke:#0000ff;stroke-linecap:square;stroke-width:1.5;"/>
    </g>
    <g id="line2d_27"/>
    <g id="text_12">
     <!-- $r x (1 - x)$ -->
     <g transform="translate(787.594044 265.85741)scale(0.15 -0.15)">
      <defs>
       <path d="M 12.09375 0 
C 17.296875 16.953125 19 21.25 23.59375 28.828125 
C 26.90625 34.40625 29.703125 37.5 31.40625 37.5 
C 32 37.5 32.5 37.109375 33 36.109375 
C 33.796875 34.40625 34.59375 33.90625 36.59375 33.90625 
C 39.5 33.90625 41.203125 35.703125 41.203125 38.796875 
C 41.203125 41.890625 39.296875 44 36.5 44 
C 34.203125 44 31.5 42.484375 28.90625 39.796875 
C 24.796875 35.609375 20.796875 29.71875 19.203125 25.734375 
L 17.796875 22.140625 
L 23.09375 43.796875 
L 22.796875 44 
C 15.5 42.6875 14.59375 42.484375 7.296875 41.296875 
L 7.296875 39.59375 
C 9.703125 40.09375 10 40.09375 10.703125 40.09375 
C 12.90625 40.09375 14.203125 39.09375 14.203125 37.296875 
C 14.203125 35.90625 14.203125 35.90625 12.59375 29.125 
L 4.5 0 
z
" id="Nimbus_Roman_No9_L_Regular_Italic-114"/>
       <path d="M 40.203125 11.15625 
C 39.40625 10.265625 38.90625 9.65625 38 8.46875 
C 35.703125 5.484375 34.5 4.5 33.40625 4.5 
C 31.90625 4.5 31 5.78125 30.296875 8.5625 
C 30.09375 9.359375 30 9.96875 29.90625 10.265625 
C 27.40625 20.296875 26.296875 24.875 26.296875 26.359375 
C 30.703125 34.015625 34.296875 38.390625 36.09375 38.390625 
C 36.703125 38.390625 37.5 38.09375 38.5 37.59375 
C 39.703125 36.90625 40.40625 36.703125 41.203125 36.703125 
C 43.296875 36.703125 44.703125 38.1875 44.703125 40.296875 
C 44.703125 42.390625 43 44 40.59375 44 
C 36.203125 44 32.40625 40.390625 25.5 29.75 
L 24.40625 35.21875 
C 23 41.984375 21.90625 44 19.203125 44 
C 17 44 13.59375 43.09375 7.5 41.09375 
L 6.40625 40.6875 
L 6.796875 39.1875 
C 10.59375 40.09375 11.5 40.296875 12.40625 40.296875 
C 14.90625 40.296875 15.5 39.390625 16.90625 33.421875 
L 19.796875 21.203125 
L 11.59375 9.5625 
C 9.59375 6.578125 7.59375 4.796875 6.5 4.796875 
C 5.90625 4.796875 4.90625 5.09375 3.90625 5.6875 
C 2.59375 6.390625 1.5 6.6875 0.703125 6.6875 
C -1.203125 6.6875 -2.703125 5.1875 -2.703125 3.1875 
C -2.703125 0.59375 -0.703125 -1 2.296875 -1 
C 5.40625 -1 6.59375 -0.109375 11.59375 5.984375 
C 14.296875 9.171875 16.40625 11.84375 20.59375 17.609375 
L 23.59375 5.6875 
C 24.90625 0.59375 26.203125 -1 29.40625 -1 
C 33.203125 -1 35.796875 1.390625 41.59375 10.359375 
z
" id="Nimbus_Roman_No9_L_Regular_Italic-120"/>
       <path d="M 33.09375 -24 
C 33.09375 -23.703125 33.09375 -23.5 31.40625 -21.8125 
C 18.90625 -9.203125 15.703125 9.6875 15.703125 25 
C 15.703125 42.390625 19.5 59.796875 31.796875 72.296875 
C 33.09375 73.5 33.09375 73.6875 33.09375 74 
C 33.09375 74.6875 32.703125 75 32.09375 75 
C 31.09375 75 22.09375 68.203125 16.203125 55.5 
C 11.09375 44.5 9.90625 33.390625 9.90625 25 
C 9.90625 17.1875 11 5.09375 16.5 -6.203125 
C 22.5 -18.5 31.09375 -25 32.09375 -25 
C 32.703125 -25 33.09375 -24.703125 33.09375 -24 
z
" id="CMR10-40"/>
       <path d="M 65.90625 23 
C 67.59375 23 69.40625 23 69.40625 25 
C 69.40625 27 67.59375 27 65.90625 27 
L 11.796875 27 
C 10.09375 27 8.296875 27 8.296875 25 
C 8.296875 23 10.09375 23 11.796875 23 
z
" id="CMSY10-0"/>
       <path d="M 28.90625 25 
C 28.90625 32.796875 27.796875 44.890625 22.296875 56.203125 
C 16.296875 68.5 7.703125 75 6.703125 75 
C 6.09375 75 5.703125 74.59375 5.703125 74 
C 5.703125 73.6875 5.703125 73.5 7.59375 71.703125 
C 17.40625 61.796875 23.09375 45.890625 23.09375 25 
C 23.09375 7.890625 19.40625 -9.703125 7 -22.3125 
C 5.703125 -23.5 5.703125 -23.703125 5.703125 -24 
C 5.703125 -24.609375 6.09375 -25 6.703125 -25 
C 7.703125 -25 16.703125 -18.203125 22.59375 -5.5 
C 27.703125 5.5 28.90625 16.59375 28.90625 25 
z
" id="CMR10-41"/>
      </defs>
      <use transform="scale(0.996264)" xlink:href="#Nimbus_Roman_No9_L_Regular_Italic-114"/>
      <use transform="translate(41.044888 0)scale(0.996264)" xlink:href="#Nimbus_Roman_No9_L_Regular_Italic-120"/>
      <use transform="translate(85.576306 0)scale(0.996264)" xlink:href="#CMR10-40"/>
      <use transform="translate(124.230151 0)scale(0.996264)" xlink:href="#Nimbus_Roman_No9_L_Regular-49"/>
      <use transform="translate(187.880318 0)scale(0.996264)" xlink:href="#CMSY10-0"/>
      <use transform="translate(279.125992 0)scale(0.996264)" xlink:href="#Nimbus_Roman_No9_L_Regular_Italic-120"/>
      <use transform="translate(323.657409 0)scale(0.996264)" xlink:href="#CMR10-41"/>
     </g>
    </g>
    <g id="line2d_28">
     <path d="M 745.594044 284.765508 
L 775.594044 284.765508 
" style="fill:none;stroke:#008000;stroke-linecap:square;stroke-width:1.5;"/>
    </g>
    <g id="line2d_29"/>
    <g id="text_13">
     <!-- $r (x - x^2)$ -->
     <g transform="translate(787.594044 290.015508)scale(0.15 -0.15)">
      <use transform="scale(0.996264)" xlink:href="#Nimbus_Roman_No9_L_Regular_Italic-114"/>
      <use transform="translate(41.044888 0)scale(0.996264)" xlink:href="#CMR10-40"/>
      <use transform="translate(79.698734 0)scale(0.996264)" xlink:href="#Nimbus_Roman_No9_L_Regular_Italic-120"/>
      <use transform="translate(138.067118 0)scale(0.996264)" xlink:href="#CMSY10-0"/>
      <use transform="translate(229.312791 0)scale(0.996264)" xlink:href="#Nimbus_Roman_No9_L_Regular_Italic-120"/>
      <use transform="translate(273.844208 36.163231)scale(0.737241)" xlink:href="#Nimbus_Roman_No9_L_Regular-50"/>
      <use transform="translate(311.204382 0)scale(0.996264)" xlink:href="#CMR10-41"/>
     </g>
    </g>
    <g id="line2d_30">
     <path d="M 745.594044 309.386956 
L 775.594044 309.386956 
" style="fill:none;stroke:#000000;stroke-linecap:square;stroke-width:1.5;"/>
    </g>
    <g id="line2d_31"/>
    <g id="text_14">
     <!-- $r x^2 \left(\frac{1}{x} - 1\right)$ -->
     <g transform="translate(787.594044 314.636956)scale(0.15 -0.15)">
      <defs>
       <path d="M 51.5 -174.90625 
C 51.703125 -175 52.59375 -176 52.703125 -176 
L 54.90625 -176 
C 55.203125 -176 56 -175.90625 56 -175 
C 56 -174.609375 55.796875 -174.40625 55.59375 -174.109375 
C 52 -170.5 46.59375 -165 40.40625 -154 
C 29.59375 -134.78125 25.59375 -110.078125 25.59375 -86.0625 
C 25.59375 -41.640625 38.203125 -15.53125 55.703125 2.1875 
C 56 2.5 56 2.796875 56 3 
C 56 4 55.296875 4 54.09375 4 
C 52.796875 4 52.59375 4 51.703125 3.1875 
C 42.203125 -5.015625 31.5 -18.921875 24.59375 -40.03125 
C 20.296875 -53.25 18 -69.359375 18 -85.96875 
C 18 -109.671875 22.296875 -136.484375 38 -159.703125 
C 40.703125 -163.609375 44.40625 -167.703125 44.40625 -167.796875 
C 45.40625 -169 46.796875 -170.609375 47.59375 -171.3125 
z
" id="CMEX10-16"/>
       <path d="M 41.59375 -85.96875 
C 41.59375 -57.25 34.90625 -26.734375 15.203125 -4.21875 
C 13.796875 -2.625 10.09375 1.28125 7.703125 3.390625 
C 7 4 6.796875 4 5.5 4 
C 4.5 4 3.59375 4 3.59375 3 
C 3.59375 2.59375 4 2.1875 4.203125 2 
C 7.59375 -1.515625 13 -7.015625 19.203125 -18.03125 
C 30 -37.234375 34 -61.953125 34 -85.96875 
C 34 -129.390625 22 -155.890625 4 -174.203125 
C 3.796875 -174.40625 3.59375 -174.703125 3.59375 -175 
C 3.59375 -176 4.5 -176 5.5 -176 
C 6.796875 -176 7 -176 7.90625 -175.203125 
C 17.40625 -167 28.09375 -153.09375 35 -131.984375 
C 39.40625 -118.28125 41.59375 -102.078125 41.59375 -85.96875 
z
" id="CMEX10-17"/>
      </defs>
      <use transform="scale(0.996264)" xlink:href="#Nimbus_Roman_No9_L_Regular_Italic-114"/>
      <use transform="translate(41.044888 0)scale(0.996264)" xlink:href="#Nimbus_Roman_No9_L_Regular_Italic-120"/>
      <use transform="translate(85.576306 36.163231)scale(0.737241)" xlink:href="#Nimbus_Roman_No9_L_Regular-50"/>
      <use transform="translate(134.006053 110.635532)scale(0.996264)" xlink:href="#CMEX10-16"/>
      <use transform="translate(194.678251 39.252233)scale(0.737241)" xlink:href="#Nimbus_Roman_No9_L_Regular-49"/>
      <use transform="translate(196.632532 -34.370637)scale(0.737241)" xlink:href="#Nimbus_Roman_No9_L_Regular_Italic-120"/>
      <use transform="translate(246.572773 0)scale(0.996264)" xlink:href="#CMSY10-0"/>
      <use transform="translate(337.818447 0)scale(0.996264)" xlink:href="#Nimbus_Roman_No9_L_Regular-49"/>
      <use transform="translate(387.631647 110.635532)scale(0.996264)" xlink:href="#CMEX10-17"/>
      <path d="M 194.678251 22.914559 
L 231.540293 22.914559 
L 231.540293 26.898657 
L 194.678251 26.898657 
L 194.678251 22.914559 
z
"/>
     </g>
    </g>
   </g>
  </g>
 </g>
 <defs>
  <clipPath id="p29b919168d">
   <rect height="326.16" width="837" x="29.466618" y="7.2"/>
  </clipPath>
 </defs>
</svg>
