<?xml version="1.0" encoding="utf-8" standalone="no"?>
<!DOCTYPE svg PUBLIC "-//W3C//DTD SVG 1.1//EN"
  "http://www.w3.org/Graphics/SVG/1.1/DTD/svg11.dtd">
<!-- Created with matplotlib (https://matplotlib.org/) -->
<svg height="248.518125pt" version="1.1" viewBox="0 0 381.70412 248.518125" width="381.70412pt" xmlns="http://www.w3.org/2000/svg" xmlns:xlink="http://www.w3.org/1999/xlink">
 <metadata>
  <rdf:RDF xmlns:cc="http://creativecommons.org/ns#" xmlns:dc="http://purl.org/dc/elements/1.1/" xmlns:rdf="http://www.w3.org/1999/02/22-rdf-syntax-ns#">
   <cc:Work>
    <dc:type rdf:resource="http://purl.org/dc/dcmitype/StillImage"/>
    <dc:date>2021-09-14T14:24:01.648048</dc:date>
    <dc:format>image/svg+xml</dc:format>
    <dc:creator>
     <cc:Agent>
      <dc:title>Matplotlib v3.3.4, https://matplotlib.org/</dc:title>
     </cc:Agent>
    </dc:creator>
   </cc:Work>
  </rdf:RDF>
 </metadata>
 <defs>
  <style type="text/css">*{stroke-linecap:butt;stroke-linejoin:round;}</style>
 </defs>
 <g id="figure_1">
  <g id="patch_1">
   <path d="M -0 248.518125 
L 381.70412 248.518125 
L 381.70412 0 
L -0 0 
z
" style="fill:none;"/>
  </g>
  <g id="axes_1">
   <g id="patch_2">
    <path d="M 38.482813 224.64 
L 373.282813 224.64 
L 373.282813 7.2 
L 38.482813 7.2 
z
" style="fill:#ffffff;"/>
   </g>
   <g id="matplotlib.axis_1">
    <g id="xtick_1">
     <g id="line2d_1">
      <path clip-path="url(#pad2cb454c8)" d="M 56.530303 224.64 
L 56.530303 7.2 
" style="fill:none;stroke:#b0b0b0;stroke-linecap:square;stroke-width:0.8;"/>
     </g>
     <g id="line2d_2">
      <defs>
       <path d="M 0 0 
L 0 3.5 
" id="m960d90e3cd" style="stroke:#000000;stroke-width:0.8;"/>
      </defs>
      <g>
       <use style="stroke:#000000;stroke-width:0.8;" x="56.530303" xlink:href="#m960d90e3cd" y="224.64"/>
      </g>
     </g>
     <g id="text_1">
      <!-- 0.4 -->
      <g transform="translate(48.578741 239.238437)scale(0.1 -0.1)">
       <defs>
        <path d="M 31.78125 66.40625 
Q 24.171875 66.40625 20.328125 58.90625 
Q 16.5 51.421875 16.5 36.375 
Q 16.5 21.390625 20.328125 13.890625 
Q 24.171875 6.390625 31.78125 6.390625 
Q 39.453125 6.390625 43.28125 13.890625 
Q 47.125 21.390625 47.125 36.375 
Q 47.125 51.421875 43.28125 58.90625 
Q 39.453125 66.40625 31.78125 66.40625 
z
M 31.78125 74.21875 
Q 44.046875 74.21875 50.515625 64.515625 
Q 56.984375 54.828125 56.984375 36.375 
Q 56.984375 17.96875 50.515625 8.265625 
Q 44.046875 -1.421875 31.78125 -1.421875 
Q 19.53125 -1.421875 13.0625 8.265625 
Q 6.59375 17.96875 6.59375 36.375 
Q 6.59375 54.828125 13.0625 64.515625 
Q 19.53125 74.21875 31.78125 74.21875 
z
" id="DejaVuSans-48"/>
        <path d="M 10.6875 12.40625 
L 21 12.40625 
L 21 0 
L 10.6875 0 
z
" id="DejaVuSans-46"/>
        <path d="M 37.796875 64.3125 
L 12.890625 25.390625 
L 37.796875 25.390625 
z
M 35.203125 72.90625 
L 47.609375 72.90625 
L 47.609375 25.390625 
L 58.015625 25.390625 
L 58.015625 17.1875 
L 47.609375 17.1875 
L 47.609375 0 
L 37.796875 0 
L 37.796875 17.1875 
L 4.890625 17.1875 
L 4.890625 26.703125 
z
" id="DejaVuSans-52"/>
       </defs>
       <use xlink:href="#DejaVuSans-48"/>
       <use x="63.623047" xlink:href="#DejaVuSans-46"/>
       <use x="95.410156" xlink:href="#DejaVuSans-52"/>
      </g>
     </g>
    </g>
    <g id="xtick_2">
     <g id="line2d_3">
      <path clip-path="url(#pad2cb454c8)" d="M 95.283085 224.64 
L 95.283085 7.2 
" style="fill:none;stroke:#b0b0b0;stroke-linecap:square;stroke-width:0.8;"/>
     </g>
     <g id="line2d_4">
      <g>
       <use style="stroke:#000000;stroke-width:0.8;" x="95.283085" xlink:href="#m960d90e3cd" y="224.64"/>
      </g>
     </g>
     <g id="text_2">
      <!-- 0.5 -->
      <g transform="translate(87.331523 239.238437)scale(0.1 -0.1)">
       <defs>
        <path d="M 10.796875 72.90625 
L 49.515625 72.90625 
L 49.515625 64.59375 
L 19.828125 64.59375 
L 19.828125 46.734375 
Q 21.96875 47.46875 24.109375 47.828125 
Q 26.265625 48.1875 28.421875 48.1875 
Q 40.625 48.1875 47.75 41.5 
Q 54.890625 34.8125 54.890625 23.390625 
Q 54.890625 11.625 47.5625 5.09375 
Q 40.234375 -1.421875 26.90625 -1.421875 
Q 22.3125 -1.421875 17.546875 -0.640625 
Q 12.796875 0.140625 7.71875 1.703125 
L 7.71875 11.625 
Q 12.109375 9.234375 16.796875 8.0625 
Q 21.484375 6.890625 26.703125 6.890625 
Q 35.15625 6.890625 40.078125 11.328125 
Q 45.015625 15.765625 45.015625 23.390625 
Q 45.015625 31 40.078125 35.4375 
Q 35.15625 39.890625 26.703125 39.890625 
Q 22.75 39.890625 18.8125 39.015625 
Q 14.890625 38.140625 10.796875 36.28125 
z
" id="DejaVuSans-53"/>
       </defs>
       <use xlink:href="#DejaVuSans-48"/>
       <use x="63.623047" xlink:href="#DejaVuSans-46"/>
       <use x="95.410156" xlink:href="#DejaVuSans-53"/>
      </g>
     </g>
    </g>
    <g id="xtick_3">
     <g id="line2d_5">
      <path clip-path="url(#pad2cb454c8)" d="M 134.035867 224.64 
L 134.035867 7.2 
" style="fill:none;stroke:#b0b0b0;stroke-linecap:square;stroke-width:0.8;"/>
     </g>
     <g id="line2d_6">
      <g>
       <use style="stroke:#000000;stroke-width:0.8;" x="134.035867" xlink:href="#m960d90e3cd" y="224.64"/>
      </g>
     </g>
     <g id="text_3">
      <!-- 0.6 -->
      <g transform="translate(126.084304 239.238437)scale(0.1 -0.1)">
       <defs>
        <path d="M 33.015625 40.375 
Q 26.375 40.375 22.484375 35.828125 
Q 18.609375 31.296875 18.609375 23.390625 
Q 18.609375 15.53125 22.484375 10.953125 
Q 26.375 6.390625 33.015625 6.390625 
Q 39.65625 6.390625 43.53125 10.953125 
Q 47.40625 15.53125 47.40625 23.390625 
Q 47.40625 31.296875 43.53125 35.828125 
Q 39.65625 40.375 33.015625 40.375 
z
M 52.59375 71.296875 
L 52.59375 62.3125 
Q 48.875 64.0625 45.09375 64.984375 
Q 41.3125 65.921875 37.59375 65.921875 
Q 27.828125 65.921875 22.671875 59.328125 
Q 17.53125 52.734375 16.796875 39.40625 
Q 19.671875 43.65625 24.015625 45.921875 
Q 28.375 48.1875 33.59375 48.1875 
Q 44.578125 48.1875 50.953125 41.515625 
Q 57.328125 34.859375 57.328125 23.390625 
Q 57.328125 12.15625 50.6875 5.359375 
Q 44.046875 -1.421875 33.015625 -1.421875 
Q 20.359375 -1.421875 13.671875 8.265625 
Q 6.984375 17.96875 6.984375 36.375 
Q 6.984375 53.65625 15.1875 63.9375 
Q 23.390625 74.21875 37.203125 74.21875 
Q 40.921875 74.21875 44.703125 73.484375 
Q 48.484375 72.75 52.59375 71.296875 
z
" id="DejaVuSans-54"/>
       </defs>
       <use xlink:href="#DejaVuSans-48"/>
       <use x="63.623047" xlink:href="#DejaVuSans-46"/>
       <use x="95.410156" xlink:href="#DejaVuSans-54"/>
      </g>
     </g>
    </g>
    <g id="xtick_4">
     <g id="line2d_7">
      <path clip-path="url(#pad2cb454c8)" d="M 172.788649 224.64 
L 172.788649 7.2 
" style="fill:none;stroke:#b0b0b0;stroke-linecap:square;stroke-width:0.8;"/>
     </g>
     <g id="line2d_8">
      <g>
       <use style="stroke:#000000;stroke-width:0.8;" x="172.788649" xlink:href="#m960d90e3cd" y="224.64"/>
      </g>
     </g>
     <g id="text_4">
      <!-- 0.7 -->
      <g transform="translate(164.837086 239.238437)scale(0.1 -0.1)">
       <defs>
        <path d="M 8.203125 72.90625 
L 55.078125 72.90625 
L 55.078125 68.703125 
L 28.609375 0 
L 18.3125 0 
L 43.21875 64.59375 
L 8.203125 64.59375 
z
" id="DejaVuSans-55"/>
       </defs>
       <use xlink:href="#DejaVuSans-48"/>
       <use x="63.623047" xlink:href="#DejaVuSans-46"/>
       <use x="95.410156" xlink:href="#DejaVuSans-55"/>
      </g>
     </g>
    </g>
    <g id="xtick_5">
     <g id="line2d_9">
      <path clip-path="url(#pad2cb454c8)" d="M 211.54143 224.64 
L 211.54143 7.2 
" style="fill:none;stroke:#b0b0b0;stroke-linecap:square;stroke-width:0.8;"/>
     </g>
     <g id="line2d_10">
      <g>
       <use style="stroke:#000000;stroke-width:0.8;" x="211.54143" xlink:href="#m960d90e3cd" y="224.64"/>
      </g>
     </g>
     <g id="text_5">
      <!-- 0.8 -->
      <g transform="translate(203.589868 239.238437)scale(0.1 -0.1)">
       <defs>
        <path d="M 31.78125 34.625 
Q 24.75 34.625 20.71875 30.859375 
Q 16.703125 27.09375 16.703125 20.515625 
Q 16.703125 13.921875 20.71875 10.15625 
Q 24.75 6.390625 31.78125 6.390625 
Q 38.8125 6.390625 42.859375 10.171875 
Q 46.921875 13.96875 46.921875 20.515625 
Q 46.921875 27.09375 42.890625 30.859375 
Q 38.875 34.625 31.78125 34.625 
z
M 21.921875 38.8125 
Q 15.578125 40.375 12.03125 44.71875 
Q 8.5 49.078125 8.5 55.328125 
Q 8.5 64.0625 14.71875 69.140625 
Q 20.953125 74.21875 31.78125 74.21875 
Q 42.671875 74.21875 48.875 69.140625 
Q 55.078125 64.0625 55.078125 55.328125 
Q 55.078125 49.078125 51.53125 44.71875 
Q 48 40.375 41.703125 38.8125 
Q 48.828125 37.15625 52.796875 32.3125 
Q 56.78125 27.484375 56.78125 20.515625 
Q 56.78125 9.90625 50.3125 4.234375 
Q 43.84375 -1.421875 31.78125 -1.421875 
Q 19.734375 -1.421875 13.25 4.234375 
Q 6.78125 9.90625 6.78125 20.515625 
Q 6.78125 27.484375 10.78125 32.3125 
Q 14.796875 37.15625 21.921875 38.8125 
z
M 18.3125 54.390625 
Q 18.3125 48.734375 21.84375 45.5625 
Q 25.390625 42.390625 31.78125 42.390625 
Q 38.140625 42.390625 41.71875 45.5625 
Q 45.3125 48.734375 45.3125 54.390625 
Q 45.3125 60.0625 41.71875 63.234375 
Q 38.140625 66.40625 31.78125 66.40625 
Q 25.390625 66.40625 21.84375 63.234375 
Q 18.3125 60.0625 18.3125 54.390625 
z
" id="DejaVuSans-56"/>
       </defs>
       <use xlink:href="#DejaVuSans-48"/>
       <use x="63.623047" xlink:href="#DejaVuSans-46"/>
       <use x="95.410156" xlink:href="#DejaVuSans-56"/>
      </g>
     </g>
    </g>
    <g id="xtick_6">
     <g id="line2d_11">
      <path clip-path="url(#pad2cb454c8)" d="M 250.294212 224.64 
L 250.294212 7.2 
" style="fill:none;stroke:#b0b0b0;stroke-linecap:square;stroke-width:0.8;"/>
     </g>
     <g id="line2d_12">
      <g>
       <use style="stroke:#000000;stroke-width:0.8;" x="250.294212" xlink:href="#m960d90e3cd" y="224.64"/>
      </g>
     </g>
     <g id="text_6">
      <!-- 0.9 -->
      <g transform="translate(242.34265 239.238437)scale(0.1 -0.1)">
       <defs>
        <path d="M 10.984375 1.515625 
L 10.984375 10.5 
Q 14.703125 8.734375 18.5 7.8125 
Q 22.3125 6.890625 25.984375 6.890625 
Q 35.75 6.890625 40.890625 13.453125 
Q 46.046875 20.015625 46.78125 33.40625 
Q 43.953125 29.203125 39.59375 26.953125 
Q 35.25 24.703125 29.984375 24.703125 
Q 19.046875 24.703125 12.671875 31.3125 
Q 6.296875 37.9375 6.296875 49.421875 
Q 6.296875 60.640625 12.9375 67.421875 
Q 19.578125 74.21875 30.609375 74.21875 
Q 43.265625 74.21875 49.921875 64.515625 
Q 56.59375 54.828125 56.59375 36.375 
Q 56.59375 19.140625 48.40625 8.859375 
Q 40.234375 -1.421875 26.421875 -1.421875 
Q 22.703125 -1.421875 18.890625 -0.6875 
Q 15.09375 0.046875 10.984375 1.515625 
z
M 30.609375 32.421875 
Q 37.25 32.421875 41.125 36.953125 
Q 45.015625 41.5 45.015625 49.421875 
Q 45.015625 57.28125 41.125 61.84375 
Q 37.25 66.40625 30.609375 66.40625 
Q 23.96875 66.40625 20.09375 61.84375 
Q 16.21875 57.28125 16.21875 49.421875 
Q 16.21875 41.5 20.09375 36.953125 
Q 23.96875 32.421875 30.609375 32.421875 
z
" id="DejaVuSans-57"/>
       </defs>
       <use xlink:href="#DejaVuSans-48"/>
       <use x="63.623047" xlink:href="#DejaVuSans-46"/>
       <use x="95.410156" xlink:href="#DejaVuSans-57"/>
      </g>
     </g>
    </g>
    <g id="xtick_7">
     <g id="line2d_13">
      <path clip-path="url(#pad2cb454c8)" d="M 289.046994 224.64 
L 289.046994 7.2 
" style="fill:none;stroke:#b0b0b0;stroke-linecap:square;stroke-width:0.8;"/>
     </g>
     <g id="line2d_14">
      <g>
       <use style="stroke:#000000;stroke-width:0.8;" x="289.046994" xlink:href="#m960d90e3cd" y="224.64"/>
      </g>
     </g>
     <g id="text_7">
      <!-- 1.0 -->
      <g transform="translate(281.095431 239.238437)scale(0.1 -0.1)">
       <defs>
        <path d="M 12.40625 8.296875 
L 28.515625 8.296875 
L 28.515625 63.921875 
L 10.984375 60.40625 
L 10.984375 69.390625 
L 28.421875 72.90625 
L 38.28125 72.90625 
L 38.28125 8.296875 
L 54.390625 8.296875 
L 54.390625 0 
L 12.40625 0 
z
" id="DejaVuSans-49"/>
       </defs>
       <use xlink:href="#DejaVuSans-49"/>
       <use x="63.623047" xlink:href="#DejaVuSans-46"/>
       <use x="95.410156" xlink:href="#DejaVuSans-48"/>
      </g>
     </g>
    </g>
    <g id="xtick_8">
     <g id="line2d_15">
      <path clip-path="url(#pad2cb454c8)" d="M 327.799776 224.64 
L 327.799776 7.2 
" style="fill:none;stroke:#b0b0b0;stroke-linecap:square;stroke-width:0.8;"/>
     </g>
     <g id="line2d_16">
      <g>
       <use style="stroke:#000000;stroke-width:0.8;" x="327.799776" xlink:href="#m960d90e3cd" y="224.64"/>
      </g>
     </g>
     <g id="text_8">
      <!-- 1.1 -->
      <g transform="translate(319.848213 239.238437)scale(0.1 -0.1)">
       <use xlink:href="#DejaVuSans-49"/>
       <use x="63.623047" xlink:href="#DejaVuSans-46"/>
       <use x="95.410156" xlink:href="#DejaVuSans-49"/>
      </g>
     </g>
    </g>
    <g id="xtick_9">
     <g id="line2d_17">
      <path clip-path="url(#pad2cb454c8)" d="M 366.552557 224.64 
L 366.552557 7.2 
" style="fill:none;stroke:#b0b0b0;stroke-linecap:square;stroke-width:0.8;"/>
     </g>
     <g id="line2d_18">
      <g>
       <use style="stroke:#000000;stroke-width:0.8;" x="366.552557" xlink:href="#m960d90e3cd" y="224.64"/>
      </g>
     </g>
     <g id="text_9">
      <!-- 1.2 -->
      <g transform="translate(358.600995 239.238437)scale(0.1 -0.1)">
       <defs>
        <path d="M 19.1875 8.296875 
L 53.609375 8.296875 
L 53.609375 0 
L 7.328125 0 
L 7.328125 8.296875 
Q 12.9375 14.109375 22.625 23.890625 
Q 32.328125 33.6875 34.8125 36.53125 
Q 39.546875 41.84375 41.421875 45.53125 
Q 43.3125 49.21875 43.3125 52.78125 
Q 43.3125 58.59375 39.234375 62.25 
Q 35.15625 65.921875 28.609375 65.921875 
Q 23.96875 65.921875 18.8125 64.3125 
Q 13.671875 62.703125 7.8125 59.421875 
L 7.8125 69.390625 
Q 13.765625 71.78125 18.9375 73 
Q 24.125 74.21875 28.421875 74.21875 
Q 39.75 74.21875 46.484375 68.546875 
Q 53.21875 62.890625 53.21875 53.421875 
Q 53.21875 48.921875 51.53125 44.890625 
Q 49.859375 40.875 45.40625 35.40625 
Q 44.1875 33.984375 37.640625 27.21875 
Q 31.109375 20.453125 19.1875 8.296875 
z
" id="DejaVuSans-50"/>
       </defs>
       <use xlink:href="#DejaVuSans-49"/>
       <use x="63.623047" xlink:href="#DejaVuSans-46"/>
       <use x="95.410156" xlink:href="#DejaVuSans-50"/>
      </g>
     </g>
    </g>
   </g>
   <g id="matplotlib.axis_2">
    <g id="ytick_1">
     <g id="line2d_19">
      <path clip-path="url(#pad2cb454c8)" d="M 38.482813 201.116567 
L 373.282813 201.116567 
" style="fill:none;stroke:#b0b0b0;stroke-linecap:square;stroke-width:0.8;"/>
     </g>
     <g id="line2d_20">
      <defs>
       <path d="M 0 0 
L -3.5 0 
" id="m62f589af94" style="stroke:#000000;stroke-width:0.8;"/>
      </defs>
      <g>
       <use style="stroke:#000000;stroke-width:0.8;" x="38.482813" xlink:href="#m62f589af94" y="201.116567"/>
      </g>
     </g>
     <g id="text_10">
      <!-- −0.5 -->
      <g transform="translate(7.2 204.915786)scale(0.1 -0.1)">
       <defs>
        <path d="M 10.59375 35.5 
L 73.1875 35.5 
L 73.1875 27.203125 
L 10.59375 27.203125 
z
" id="DejaVuSans-8722"/>
       </defs>
       <use xlink:href="#DejaVuSans-8722"/>
       <use x="83.789062" xlink:href="#DejaVuSans-48"/>
       <use x="147.412109" xlink:href="#DejaVuSans-46"/>
       <use x="179.199219" xlink:href="#DejaVuSans-53"/>
      </g>
     </g>
    </g>
    <g id="ytick_2">
     <g id="line2d_21">
      <path clip-path="url(#pad2cb454c8)" d="M 38.482813 166.468795 
L 373.282813 166.468795 
" style="fill:none;stroke:#b0b0b0;stroke-linecap:square;stroke-width:0.8;"/>
     </g>
     <g id="line2d_22">
      <g>
       <use style="stroke:#000000;stroke-width:0.8;" x="38.482813" xlink:href="#m62f589af94" y="166.468795"/>
      </g>
     </g>
     <g id="text_11">
      <!-- 0.0 -->
      <g transform="translate(15.579688 170.268014)scale(0.1 -0.1)">
       <use xlink:href="#DejaVuSans-48"/>
       <use x="63.623047" xlink:href="#DejaVuSans-46"/>
       <use x="95.410156" xlink:href="#DejaVuSans-48"/>
      </g>
     </g>
    </g>
    <g id="ytick_3">
     <g id="line2d_23">
      <path clip-path="url(#pad2cb454c8)" d="M 38.482813 131.821022 
L 373.282813 131.821022 
" style="fill:none;stroke:#b0b0b0;stroke-linecap:square;stroke-width:0.8;"/>
     </g>
     <g id="line2d_24">
      <g>
       <use style="stroke:#000000;stroke-width:0.8;" x="38.482813" xlink:href="#m62f589af94" y="131.821022"/>
      </g>
     </g>
     <g id="text_12">
      <!-- 0.5 -->
      <g transform="translate(15.579688 135.620241)scale(0.1 -0.1)">
       <use xlink:href="#DejaVuSans-48"/>
       <use x="63.623047" xlink:href="#DejaVuSans-46"/>
       <use x="95.410156" xlink:href="#DejaVuSans-53"/>
      </g>
     </g>
    </g>
    <g id="ytick_4">
     <g id="line2d_25">
      <path clip-path="url(#pad2cb454c8)" d="M 38.482813 97.17325 
L 373.282813 97.17325 
" style="fill:none;stroke:#b0b0b0;stroke-linecap:square;stroke-width:0.8;"/>
     </g>
     <g id="line2d_26">
      <g>
       <use style="stroke:#000000;stroke-width:0.8;" x="38.482813" xlink:href="#m62f589af94" y="97.17325"/>
      </g>
     </g>
     <g id="text_13">
      <!-- 1.0 -->
      <g transform="translate(15.579688 100.972468)scale(0.1 -0.1)">
       <use xlink:href="#DejaVuSans-49"/>
       <use x="63.623047" xlink:href="#DejaVuSans-46"/>
       <use x="95.410156" xlink:href="#DejaVuSans-48"/>
      </g>
     </g>
    </g>
    <g id="ytick_5">
     <g id="line2d_27">
      <path clip-path="url(#pad2cb454c8)" d="M 38.482813 62.525477 
L 373.282813 62.525477 
" style="fill:none;stroke:#b0b0b0;stroke-linecap:square;stroke-width:0.8;"/>
     </g>
     <g id="line2d_28">
      <g>
       <use style="stroke:#000000;stroke-width:0.8;" x="38.482813" xlink:href="#m62f589af94" y="62.525477"/>
      </g>
     </g>
     <g id="text_14">
      <!-- 1.5 -->
      <g transform="translate(15.579688 66.324696)scale(0.1 -0.1)">
       <use xlink:href="#DejaVuSans-49"/>
       <use x="63.623047" xlink:href="#DejaVuSans-46"/>
       <use x="95.410156" xlink:href="#DejaVuSans-53"/>
      </g>
     </g>
    </g>
    <g id="ytick_6">
     <g id="line2d_29">
      <path clip-path="url(#pad2cb454c8)" d="M 38.482813 27.877705 
L 373.282813 27.877705 
" style="fill:none;stroke:#b0b0b0;stroke-linecap:square;stroke-width:0.8;"/>
     </g>
     <g id="line2d_30">
      <g>
       <use style="stroke:#000000;stroke-width:0.8;" x="38.482813" xlink:href="#m62f589af94" y="27.877705"/>
      </g>
     </g>
     <g id="text_15">
      <!-- 2.0 -->
      <g transform="translate(15.579688 31.676923)scale(0.1 -0.1)">
       <use xlink:href="#DejaVuSans-50"/>
       <use x="63.623047" xlink:href="#DejaVuSans-46"/>
       <use x="95.410156" xlink:href="#DejaVuSans-48"/>
      </g>
     </g>
    </g>
   </g>
   <g id="line2d_31">
    <path clip-path="url(#pad2cb454c8)" d="M 53.700994 117.469499 
L 59.912497 115.91601 
L 66.124 114.427403 
L 72.335503 112.991431 
L 78.547005 111.608333 
L 84.758508 110.280954 
L 90.970011 109.012142 
L 97.181514 107.800376 
L 103.393017 106.64963 
L 109.604519 105.559444 
L 115.816022 104.532 
L 122.027525 103.568102 
L 128.239028 102.668772 
L 134.45053 101.835069 
L 140.662033 101.067726 
L 146.873536 100.367542 
L 153.085039 99.735271 
L 159.296542 99.171405 
L 165.508044 98.676702 
L 171.719547 98.251585 
L 177.93105 97.896578 
L 184.142553 97.612098 
L 190.354056 97.398382 
L 196.565558 97.255412 
L 202.777061 97.183571 
L 208.988564 97.18261 
L 215.200067 97.252853 
L 221.411569 97.395004 
L 227.623072 97.60814 
L 233.834575 97.892208 
L 240.046078 98.246757 
L 246.257581 98.669176 
L 252.469083 99.161265 
L 258.680586 99.724277 
L 264.892089 100.355875 
L 271.103592 101.059523 
L 277.315095 101.830389 
L 283.526597 102.66064 
L 289.7381 103.556465 
L 295.949603 104.514964 
L 302.161106 105.53713 
L 308.372608 106.636054 
L 314.584111 107.796466 
L 320.795614 109.010022 
L 327.007117 110.282626 
L 333.21862 111.602094 
L 339.430122 112.977946 
L 345.641625 114.425529 
L 351.853128 115.921541 
L 358.064631 117.469499 
" style="fill:none;stroke:#000000;stroke-linecap:square;stroke-width:1.5;"/>
   </g>
   <g id="line2d_32">
    <defs>
     <path d="M 0 1.5 
C 0.397805 1.5 0.77937 1.341951 1.06066 1.06066 
C 1.341951 0.77937 1.5 0.397805 1.5 0 
C 1.5 -0.397805 1.341951 -0.77937 1.06066 -1.06066 
C 0.77937 -1.341951 0.397805 -1.5 0 -1.5 
C -0.397805 -1.5 -0.77937 -1.341951 -1.06066 -1.06066 
C -1.341951 -0.77937 -1.5 -0.397805 -1.5 0 
C -1.5 0.397805 -1.341951 0.77937 -1.06066 1.06066 
C -0.77937 1.341951 -0.397805 1.5 0 1.5 
z
" id="mbc34c90847" style="stroke:#0000ff;"/>
    </defs>
    <g clip-path="url(#pad2cb454c8)">
     <use style="fill:#0000ff;stroke:#0000ff;" x="59.912497" xlink:href="#mbc34c90847" y="118.008673"/>
     <use style="fill:#0000ff;stroke:#0000ff;" x="66.124" xlink:href="#mbc34c90847" y="120.032644"/>
     <use style="fill:#0000ff;stroke:#0000ff;" x="72.335503" xlink:href="#mbc34c90847" y="121.674554"/>
     <use style="fill:#0000ff;stroke:#0000ff;" x="78.547005" xlink:href="#mbc34c90847" y="123.323946"/>
     <use style="fill:#0000ff;stroke:#0000ff;" x="84.758508" xlink:href="#mbc34c90847" y="125.062043"/>
     <use style="fill:#0000ff;stroke:#0000ff;" x="90.970011" xlink:href="#mbc34c90847" y="126.888985"/>
     <use style="fill:#0000ff;stroke:#0000ff;" x="97.181514" xlink:href="#mbc34c90847" y="128.66853"/>
     <use style="fill:#0000ff;stroke:#0000ff;" x="103.393017" xlink:href="#mbc34c90847" y="130.572003"/>
     <use style="fill:#0000ff;stroke:#0000ff;" x="109.604519" xlink:href="#mbc34c90847" y="132.461116"/>
     <use style="fill:#0000ff;stroke:#0000ff;" x="115.816022" xlink:href="#mbc34c90847" y="134.418351"/>
     <use style="fill:#0000ff;stroke:#0000ff;" x="122.027525" xlink:href="#mbc34c90847" y="136.400579"/>
     <use style="fill:#0000ff;stroke:#0000ff;" x="128.239028" xlink:href="#mbc34c90847" y="138.414769"/>
     <use style="fill:#0000ff;stroke:#0000ff;" x="134.45053" xlink:href="#mbc34c90847" y="140.461975"/>
     <use style="fill:#0000ff;stroke:#0000ff;" x="140.662033" xlink:href="#mbc34c90847" y="142.532004"/>
     <use style="fill:#0000ff;stroke:#0000ff;" x="146.873536" xlink:href="#mbc34c90847" y="144.627003"/>
     <use style="fill:#0000ff;stroke:#0000ff;" x="153.085039" xlink:href="#mbc34c90847" y="146.745503"/>
     <use style="fill:#0000ff;stroke:#0000ff;" x="159.296542" xlink:href="#mbc34c90847" y="148.879353"/>
     <use style="fill:#0000ff;stroke:#0000ff;" x="165.508044" xlink:href="#mbc34c90847" y="151.036843"/>
     <use style="fill:#0000ff;stroke:#0000ff;" x="171.719547" xlink:href="#mbc34c90847" y="153.207527"/>
     <use style="fill:#0000ff;stroke:#0000ff;" x="177.93105" xlink:href="#mbc34c90847" y="155.394572"/>
     <use style="fill:#0000ff;stroke:#0000ff;" x="184.142553" xlink:href="#mbc34c90847" y="157.594625"/>
     <use style="fill:#0000ff;stroke:#0000ff;" x="190.354056" xlink:href="#mbc34c90847" y="159.80205"/>
     <use style="fill:#0000ff;stroke:#0000ff;" x="196.565558" xlink:href="#mbc34c90847" y="162.008955"/>
     <use style="fill:#0000ff;stroke:#0000ff;" x="202.777061" xlink:href="#mbc34c90847" y="164.227744"/>
     <use style="fill:#0000ff;stroke:#0000ff;" x="208.988564" xlink:href="#mbc34c90847" y="166.438828"/>
     <use style="fill:#0000ff;stroke:#0000ff;" x="215.200067" xlink:href="#mbc34c90847" y="168.659969"/>
     <use style="fill:#0000ff;stroke:#0000ff;" x="221.411569" xlink:href="#mbc34c90847" y="170.903102"/>
     <use style="fill:#0000ff;stroke:#0000ff;" x="227.623072" xlink:href="#mbc34c90847" y="173.117454"/>
     <use style="fill:#0000ff;stroke:#0000ff;" x="233.834575" xlink:href="#mbc34c90847" y="175.330108"/>
     <use style="fill:#0000ff;stroke:#0000ff;" x="240.046078" xlink:href="#mbc34c90847" y="177.528741"/>
     <use style="fill:#0000ff;stroke:#0000ff;" x="246.257581" xlink:href="#mbc34c90847" y="179.645884"/>
     <use style="fill:#0000ff;stroke:#0000ff;" x="252.469083" xlink:href="#mbc34c90847" y="181.819207"/>
     <use style="fill:#0000ff;stroke:#0000ff;" x="258.680586" xlink:href="#mbc34c90847" y="184.031581"/>
     <use style="fill:#0000ff;stroke:#0000ff;" x="264.892089" xlink:href="#mbc34c90847" y="186.171113"/>
     <use style="fill:#0000ff;stroke:#0000ff;" x="271.103592" xlink:href="#mbc34c90847" y="188.418626"/>
     <use style="fill:#0000ff;stroke:#0000ff;" x="277.315095" xlink:href="#mbc34c90847" y="190.515478"/>
     <use style="fill:#0000ff;stroke:#0000ff;" x="283.526597" xlink:href="#mbc34c90847" y="192.367974"/>
     <use style="fill:#0000ff;stroke:#0000ff;" x="289.7381" xlink:href="#mbc34c90847" y="194.413479"/>
     <use style="fill:#0000ff;stroke:#0000ff;" x="295.949603" xlink:href="#mbc34c90847" y="196.368561"/>
     <use style="fill:#0000ff;stroke:#0000ff;" x="302.161106" xlink:href="#mbc34c90847" y="198.354619"/>
     <use style="fill:#0000ff;stroke:#0000ff;" x="308.372608" xlink:href="#mbc34c90847" y="200.749044"/>
     <use style="fill:#0000ff;stroke:#0000ff;" x="314.584111" xlink:href="#mbc34c90847" y="202.667106"/>
     <use style="fill:#0000ff;stroke:#0000ff;" x="320.795614" xlink:href="#mbc34c90847" y="204.324907"/>
     <use style="fill:#0000ff;stroke:#0000ff;" x="327.007117" xlink:href="#mbc34c90847" y="206.166867"/>
     <use style="fill:#0000ff;stroke:#0000ff;" x="333.21862" xlink:href="#mbc34c90847" y="207.628768"/>
     <use style="fill:#0000ff;stroke:#0000ff;" x="339.430122" xlink:href="#mbc34c90847" y="209.387634"/>
     <use style="fill:#0000ff;stroke:#0000ff;" x="345.641625" xlink:href="#mbc34c90847" y="211.625225"/>
     <use style="fill:#0000ff;stroke:#0000ff;" x="351.853128" xlink:href="#mbc34c90847" y="213.135965"/>
     <use style="fill:#0000ff;stroke:#0000ff;" x="358.064631" xlink:href="#mbc34c90847" y="214.756364"/>
    </g>
   </g>
   <g id="line2d_33">
    <defs>
     <path d="M 0 1.5 
C 0.397805 1.5 0.77937 1.341951 1.06066 1.06066 
C 1.341951 0.77937 1.5 0.397805 1.5 0 
C 1.5 -0.397805 1.341951 -0.77937 1.06066 -1.06066 
C 0.77937 -1.341951 0.397805 -1.5 0 -1.5 
C -0.397805 -1.5 -0.77937 -1.341951 -1.06066 -1.06066 
C -1.341951 -0.77937 -1.5 -0.397805 -1.5 0 
C -1.5 0.397805 -1.341951 0.77937 -1.06066 1.06066 
C -0.77937 1.341951 -0.397805 1.5 0 1.5 
z
" id="ma39d66326a" style="stroke:#008000;"/>
    </defs>
    <g clip-path="url(#pad2cb454c8)">
     <use style="fill:#008000;stroke:#008000;" x="66.124" xlink:href="#ma39d66326a" y="40.195752"/>
     <use style="fill:#008000;stroke:#008000;" x="72.335503" xlink:href="#ma39d66326a" y="64.03212"/>
     <use style="fill:#008000;stroke:#008000;" x="78.547005" xlink:href="#ma39d66326a" y="63.56534"/>
     <use style="fill:#008000;stroke:#008000;" x="84.758508" xlink:href="#ma39d66326a" y="58.031074"/>
     <use style="fill:#008000;stroke:#008000;" x="90.970011" xlink:href="#ma39d66326a" y="52.488207"/>
     <use style="fill:#008000;stroke:#008000;" x="97.181514" xlink:href="#ma39d66326a" y="55.445201"/>
     <use style="fill:#008000;stroke:#008000;" x="103.393017" xlink:href="#ma39d66326a" y="47.713571"/>
     <use style="fill:#008000;stroke:#008000;" x="109.604519" xlink:href="#ma39d66326a" y="48.60941"/>
     <use style="fill:#008000;stroke:#008000;" x="115.816022" xlink:href="#ma39d66326a" y="44.359354"/>
     <use style="fill:#008000;stroke:#008000;" x="122.027525" xlink:href="#ma39d66326a" y="42.800093"/>
     <use style="fill:#008000;stroke:#008000;" x="128.239028" xlink:href="#ma39d66326a" y="40.806031"/>
     <use style="fill:#008000;stroke:#008000;" x="134.45053" xlink:href="#ma39d66326a" y="38.746211"/>
     <use style="fill:#008000;stroke:#008000;" x="140.662033" xlink:href="#ma39d66326a" y="37.322306"/>
     <use style="fill:#008000;stroke:#008000;" x="146.873536" xlink:href="#ma39d66326a" y="35.764405"/>
     <use style="fill:#008000;stroke:#008000;" x="153.085039" xlink:href="#ma39d66326a" y="34.298259"/>
     <use style="fill:#008000;stroke:#008000;" x="159.296542" xlink:href="#ma39d66326a" y="33.340591"/>
     <use style="fill:#008000;stroke:#008000;" x="165.508044" xlink:href="#ma39d66326a" y="31.865747"/>
     <use style="fill:#008000;stroke:#008000;" x="171.719547" xlink:href="#ma39d66326a" y="31.042548"/>
     <use style="fill:#008000;stroke:#008000;" x="177.93105" xlink:href="#ma39d66326a" y="30.021841"/>
     <use style="fill:#008000;stroke:#008000;" x="184.142553" xlink:href="#ma39d66326a" y="29.210239"/>
     <use style="fill:#008000;stroke:#008000;" x="190.354056" xlink:href="#ma39d66326a" y="28.75031"/>
     <use style="fill:#008000;stroke:#008000;" x="196.565558" xlink:href="#ma39d66326a" y="28.782823"/>
     <use style="fill:#008000;stroke:#008000;" x="202.777061" xlink:href="#ma39d66326a" y="28.0413"/>
     <use style="fill:#008000;stroke:#008000;" x="208.988564" xlink:href="#ma39d66326a" y="28.522108"/>
     <use style="fill:#008000;stroke:#008000;" x="215.200067" xlink:href="#ma39d66326a" y="27.894597"/>
     <use style="fill:#008000;stroke:#008000;" x="221.411569" xlink:href="#ma39d66326a" y="26.522533"/>
     <use style="fill:#008000;stroke:#008000;" x="227.623072" xlink:href="#ma39d66326a" y="28.318198"/>
     <use style="fill:#008000;stroke:#008000;" x="233.834575" xlink:href="#ma39d66326a" y="28.424069"/>
     <use style="fill:#008000;stroke:#008000;" x="240.046078" xlink:href="#ma39d66326a" y="29.29886"/>
     <use style="fill:#008000;stroke:#008000;" x="246.257581" xlink:href="#ma39d66326a" y="34.382916"/>
     <use style="fill:#008000;stroke:#008000;" x="252.469083" xlink:href="#ma39d66326a" y="30.877919"/>
     <use style="fill:#008000;stroke:#008000;" x="258.680586" xlink:href="#ma39d66326a" y="28.441595"/>
     <use style="fill:#008000;stroke:#008000;" x="264.892089" xlink:href="#ma39d66326a" y="32.986062"/>
     <use style="fill:#008000;stroke:#008000;" x="271.103592" xlink:href="#ma39d66326a" y="26.249325"/>
     <use style="fill:#008000;stroke:#008000;" x="277.315095" xlink:href="#ma39d66326a" y="35.648855"/>
     <use style="fill:#008000;stroke:#008000;" x="283.526597" xlink:href="#ma39d66326a" y="50.893924"/>
     <use style="fill:#008000;stroke:#008000;" x="289.7381" xlink:href="#ma39d66326a" y="38.852313"/>
     <use style="fill:#008000;stroke:#008000;" x="295.949603" xlink:href="#ma39d66326a" y="44.493669"/>
     <use style="fill:#008000;stroke:#008000;" x="302.161106" xlink:href="#ma39d66326a" y="42.561154"/>
     <use style="fill:#008000;stroke:#008000;" x="308.372608" xlink:href="#ma39d66326a" y="17.083636"/>
     <use style="fill:#008000;stroke:#008000;" x="314.584111" xlink:href="#ma39d66326a" y="46.803315"/>
     <use style="fill:#008000;stroke:#008000;" x="320.795614" xlink:href="#ma39d66326a" y="63.040681"/>
     <use style="fill:#008000;stroke:#008000;" x="327.007117" xlink:href="#ma39d66326a" y="51.551253"/>
     <use style="fill:#008000;stroke:#008000;" x="333.21862" xlink:href="#ma39d66326a" y="75.26262"/>
     <use style="fill:#008000;stroke:#008000;" x="339.430122" xlink:href="#ma39d66326a" y="56.735392"/>
     <use style="fill:#008000;stroke:#008000;" x="345.641625" xlink:href="#ma39d66326a" y="26.868327"/>
     <use style="fill:#008000;stroke:#008000;" x="351.853128" xlink:href="#ma39d66326a" y="72.215582"/>
     <use style="fill:#008000;stroke:#008000;" x="358.064631" xlink:href="#ma39d66326a" y="65.374197"/>
    </g>
   </g>
   <g id="patch_3">
    <path d="M 38.482813 224.64 
L 38.482813 7.2 
" style="fill:none;stroke:#000000;stroke-linecap:square;stroke-linejoin:miter;stroke-width:0.8;"/>
   </g>
   <g id="patch_4">
    <path d="M 373.282813 224.64 
L 373.282813 7.2 
" style="fill:none;stroke:#000000;stroke-linecap:square;stroke-linejoin:miter;stroke-width:0.8;"/>
   </g>
   <g id="patch_5">
    <path d="M 38.482812 224.64 
L 373.282812 224.64 
" style="fill:none;stroke:#000000;stroke-linecap:square;stroke-linejoin:miter;stroke-width:0.8;"/>
   </g>
   <g id="patch_6">
    <path d="M 38.482812 7.2 
L 373.282812 7.2 
" style="fill:none;stroke:#000000;stroke-linecap:square;stroke-linejoin:miter;stroke-width:0.8;"/>
   </g>
  </g>
 </g>
 <defs>
  <clipPath id="pad2cb454c8">
   <rect height="217.44" width="334.8" x="38.482813" y="7.2"/>
  </clipPath>
 </defs>
</svg>
