<?xml version="1.0" encoding="utf-8" standalone="no"?>
<!DOCTYPE svg PUBLIC "-//W3C//DTD SVG 1.1//EN"
  "http://www.w3.org/Graphics/SVG/1.1/DTD/svg11.dtd">
<!-- Created with matplotlib (https://matplotlib.org/) -->
<svg height="263.63625pt" version="1.1" viewBox="0 0 405.932812 263.63625" width="405.932812pt" xmlns="http://www.w3.org/2000/svg" xmlns:xlink="http://www.w3.org/1999/xlink">
 <metadata>
  <rdf:RDF xmlns:cc="http://creativecommons.org/ns#" xmlns:dc="http://purl.org/dc/elements/1.1/" xmlns:rdf="http://www.w3.org/1999/02/22-rdf-syntax-ns#">
   <cc:Work>
    <dc:type rdf:resource="http://purl.org/dc/dcmitype/StillImage"/>
    <dc:date>2021-10-05T17:25:45.725290</dc:date>
    <dc:format>image/svg+xml</dc:format>
    <dc:creator>
     <cc:Agent>
      <dc:title>Matplotlib v3.3.4, https://matplotlib.org/</dc:title>
     </cc:Agent>
    </dc:creator>
   </cc:Work>
  </rdf:RDF>
 </metadata>
 <defs>
  <style type="text/css">*{stroke-linecap:butt;stroke-linejoin:round;}</style>
 </defs>
 <g id="figure_1">
  <g id="patch_1">
   <path d="M 0 263.63625 
L 405.932812 263.63625 
L 405.932812 0 
L 0 0 
z
" style="fill:none;"/>
  </g>
  <g id="axes_1">
   <g id="patch_2">
    <path d="M 63.932812 239.758125 
L 398.732813 239.758125 
L 398.732813 22.318125 
L 63.932812 22.318125 
z
" style="fill:#ffffff;"/>
   </g>
   <g id="matplotlib.axis_1">
    <g id="xtick_1">
     <g id="line2d_1">
      <path clip-path="url(#p1be7c95dff)" d="M 79.150994 239.758125 
L 79.150994 22.318125 
" style="fill:none;stroke:#b0b0b0;stroke-linecap:square;stroke-width:0.8;"/>
     </g>
     <g id="line2d_2">
      <defs>
       <path d="M 0 0 
L 0 3.5 
" id="mff8f66b417" style="stroke:#000000;stroke-width:0.8;"/>
      </defs>
      <g>
       <use style="stroke:#000000;stroke-width:0.8;" x="79.150994" xlink:href="#mff8f66b417" y="239.758125"/>
      </g>
     </g>
     <g id="text_1">
      <!-- 0.0 -->
      <g transform="translate(71.199432 254.356563)scale(0.1 -0.1)">
       <defs>
        <path d="M 31.78125 66.40625 
Q 24.171875 66.40625 20.328125 58.90625 
Q 16.5 51.421875 16.5 36.375 
Q 16.5 21.390625 20.328125 13.890625 
Q 24.171875 6.390625 31.78125 6.390625 
Q 39.453125 6.390625 43.28125 13.890625 
Q 47.125 21.390625 47.125 36.375 
Q 47.125 51.421875 43.28125 58.90625 
Q 39.453125 66.40625 31.78125 66.40625 
z
M 31.78125 74.21875 
Q 44.046875 74.21875 50.515625 64.515625 
Q 56.984375 54.828125 56.984375 36.375 
Q 56.984375 17.96875 50.515625 8.265625 
Q 44.046875 -1.421875 31.78125 -1.421875 
Q 19.53125 -1.421875 13.0625 8.265625 
Q 6.59375 17.96875 6.59375 36.375 
Q 6.59375 54.828125 13.0625 64.515625 
Q 19.53125 74.21875 31.78125 74.21875 
z
" id="DejaVuSans-48"/>
        <path d="M 10.6875 12.40625 
L 21 12.40625 
L 21 0 
L 10.6875 0 
z
" id="DejaVuSans-46"/>
       </defs>
       <use xlink:href="#DejaVuSans-48"/>
       <use x="63.623047" xlink:href="#DejaVuSans-46"/>
       <use x="95.410156" xlink:href="#DejaVuSans-48"/>
      </g>
     </g>
    </g>
    <g id="xtick_2">
     <g id="line2d_3">
      <path clip-path="url(#p1be7c95dff)" d="M 117.196449 239.758125 
L 117.196449 22.318125 
" style="fill:none;stroke:#b0b0b0;stroke-linecap:square;stroke-width:0.8;"/>
     </g>
     <g id="line2d_4">
      <g>
       <use style="stroke:#000000;stroke-width:0.8;" x="117.196449" xlink:href="#mff8f66b417" y="239.758125"/>
      </g>
     </g>
     <g id="text_2">
      <!-- 2.5 -->
      <g transform="translate(109.244886 254.356563)scale(0.1 -0.1)">
       <defs>
        <path d="M 19.1875 8.296875 
L 53.609375 8.296875 
L 53.609375 0 
L 7.328125 0 
L 7.328125 8.296875 
Q 12.9375 14.109375 22.625 23.890625 
Q 32.328125 33.6875 34.8125 36.53125 
Q 39.546875 41.84375 41.421875 45.53125 
Q 43.3125 49.21875 43.3125 52.78125 
Q 43.3125 58.59375 39.234375 62.25 
Q 35.15625 65.921875 28.609375 65.921875 
Q 23.96875 65.921875 18.8125 64.3125 
Q 13.671875 62.703125 7.8125 59.421875 
L 7.8125 69.390625 
Q 13.765625 71.78125 18.9375 73 
Q 24.125 74.21875 28.421875 74.21875 
Q 39.75 74.21875 46.484375 68.546875 
Q 53.21875 62.890625 53.21875 53.421875 
Q 53.21875 48.921875 51.53125 44.890625 
Q 49.859375 40.875 45.40625 35.40625 
Q 44.1875 33.984375 37.640625 27.21875 
Q 31.109375 20.453125 19.1875 8.296875 
z
" id="DejaVuSans-50"/>
        <path d="M 10.796875 72.90625 
L 49.515625 72.90625 
L 49.515625 64.59375 
L 19.828125 64.59375 
L 19.828125 46.734375 
Q 21.96875 47.46875 24.109375 47.828125 
Q 26.265625 48.1875 28.421875 48.1875 
Q 40.625 48.1875 47.75 41.5 
Q 54.890625 34.8125 54.890625 23.390625 
Q 54.890625 11.625 47.5625 5.09375 
Q 40.234375 -1.421875 26.90625 -1.421875 
Q 22.3125 -1.421875 17.546875 -0.640625 
Q 12.796875 0.140625 7.71875 1.703125 
L 7.71875 11.625 
Q 12.109375 9.234375 16.796875 8.0625 
Q 21.484375 6.890625 26.703125 6.890625 
Q 35.15625 6.890625 40.078125 11.328125 
Q 45.015625 15.765625 45.015625 23.390625 
Q 45.015625 31 40.078125 35.4375 
Q 35.15625 39.890625 26.703125 39.890625 
Q 22.75 39.890625 18.8125 39.015625 
Q 14.890625 38.140625 10.796875 36.28125 
z
" id="DejaVuSans-53"/>
       </defs>
       <use xlink:href="#DejaVuSans-50"/>
       <use x="63.623047" xlink:href="#DejaVuSans-46"/>
       <use x="95.410156" xlink:href="#DejaVuSans-53"/>
      </g>
     </g>
    </g>
    <g id="xtick_3">
     <g id="line2d_5">
      <path clip-path="url(#p1be7c95dff)" d="M 155.241903 239.758125 
L 155.241903 22.318125 
" style="fill:none;stroke:#b0b0b0;stroke-linecap:square;stroke-width:0.8;"/>
     </g>
     <g id="line2d_6">
      <g>
       <use style="stroke:#000000;stroke-width:0.8;" x="155.241903" xlink:href="#mff8f66b417" y="239.758125"/>
      </g>
     </g>
     <g id="text_3">
      <!-- 5.0 -->
      <g transform="translate(147.290341 254.356563)scale(0.1 -0.1)">
       <use xlink:href="#DejaVuSans-53"/>
       <use x="63.623047" xlink:href="#DejaVuSans-46"/>
       <use x="95.410156" xlink:href="#DejaVuSans-48"/>
      </g>
     </g>
    </g>
    <g id="xtick_4">
     <g id="line2d_7">
      <path clip-path="url(#p1be7c95dff)" d="M 193.287358 239.758125 
L 193.287358 22.318125 
" style="fill:none;stroke:#b0b0b0;stroke-linecap:square;stroke-width:0.8;"/>
     </g>
     <g id="line2d_8">
      <g>
       <use style="stroke:#000000;stroke-width:0.8;" x="193.287358" xlink:href="#mff8f66b417" y="239.758125"/>
      </g>
     </g>
     <g id="text_4">
      <!-- 7.5 -->
      <g transform="translate(185.335795 254.356563)scale(0.1 -0.1)">
       <defs>
        <path d="M 8.203125 72.90625 
L 55.078125 72.90625 
L 55.078125 68.703125 
L 28.609375 0 
L 18.3125 0 
L 43.21875 64.59375 
L 8.203125 64.59375 
z
" id="DejaVuSans-55"/>
       </defs>
       <use xlink:href="#DejaVuSans-55"/>
       <use x="63.623047" xlink:href="#DejaVuSans-46"/>
       <use x="95.410156" xlink:href="#DejaVuSans-53"/>
      </g>
     </g>
    </g>
    <g id="xtick_5">
     <g id="line2d_9">
      <path clip-path="url(#p1be7c95dff)" d="M 231.332812 239.758125 
L 231.332812 22.318125 
" style="fill:none;stroke:#b0b0b0;stroke-linecap:square;stroke-width:0.8;"/>
     </g>
     <g id="line2d_10">
      <g>
       <use style="stroke:#000000;stroke-width:0.8;" x="231.332812" xlink:href="#mff8f66b417" y="239.758125"/>
      </g>
     </g>
     <g id="text_5">
      <!-- 10.0 -->
      <g transform="translate(220.2 254.356563)scale(0.1 -0.1)">
       <defs>
        <path d="M 12.40625 8.296875 
L 28.515625 8.296875 
L 28.515625 63.921875 
L 10.984375 60.40625 
L 10.984375 69.390625 
L 28.421875 72.90625 
L 38.28125 72.90625 
L 38.28125 8.296875 
L 54.390625 8.296875 
L 54.390625 0 
L 12.40625 0 
z
" id="DejaVuSans-49"/>
       </defs>
       <use xlink:href="#DejaVuSans-49"/>
       <use x="63.623047" xlink:href="#DejaVuSans-48"/>
       <use x="127.246094" xlink:href="#DejaVuSans-46"/>
       <use x="159.033203" xlink:href="#DejaVuSans-48"/>
      </g>
     </g>
    </g>
    <g id="xtick_6">
     <g id="line2d_11">
      <path clip-path="url(#p1be7c95dff)" d="M 269.378267 239.758125 
L 269.378267 22.318125 
" style="fill:none;stroke:#b0b0b0;stroke-linecap:square;stroke-width:0.8;"/>
     </g>
     <g id="line2d_12">
      <g>
       <use style="stroke:#000000;stroke-width:0.8;" x="269.378267" xlink:href="#mff8f66b417" y="239.758125"/>
      </g>
     </g>
     <g id="text_6">
      <!-- 12.5 -->
      <g transform="translate(258.245455 254.356563)scale(0.1 -0.1)">
       <use xlink:href="#DejaVuSans-49"/>
       <use x="63.623047" xlink:href="#DejaVuSans-50"/>
       <use x="127.246094" xlink:href="#DejaVuSans-46"/>
       <use x="159.033203" xlink:href="#DejaVuSans-53"/>
      </g>
     </g>
    </g>
    <g id="xtick_7">
     <g id="line2d_13">
      <path clip-path="url(#p1be7c95dff)" d="M 307.423722 239.758125 
L 307.423722 22.318125 
" style="fill:none;stroke:#b0b0b0;stroke-linecap:square;stroke-width:0.8;"/>
     </g>
     <g id="line2d_14">
      <g>
       <use style="stroke:#000000;stroke-width:0.8;" x="307.423722" xlink:href="#mff8f66b417" y="239.758125"/>
      </g>
     </g>
     <g id="text_7">
      <!-- 15.0 -->
      <g transform="translate(296.290909 254.356563)scale(0.1 -0.1)">
       <use xlink:href="#DejaVuSans-49"/>
       <use x="63.623047" xlink:href="#DejaVuSans-53"/>
       <use x="127.246094" xlink:href="#DejaVuSans-46"/>
       <use x="159.033203" xlink:href="#DejaVuSans-48"/>
      </g>
     </g>
    </g>
    <g id="xtick_8">
     <g id="line2d_15">
      <path clip-path="url(#p1be7c95dff)" d="M 345.469176 239.758125 
L 345.469176 22.318125 
" style="fill:none;stroke:#b0b0b0;stroke-linecap:square;stroke-width:0.8;"/>
     </g>
     <g id="line2d_16">
      <g>
       <use style="stroke:#000000;stroke-width:0.8;" x="345.469176" xlink:href="#mff8f66b417" y="239.758125"/>
      </g>
     </g>
     <g id="text_8">
      <!-- 17.5 -->
      <g transform="translate(334.336364 254.356563)scale(0.1 -0.1)">
       <use xlink:href="#DejaVuSans-49"/>
       <use x="63.623047" xlink:href="#DejaVuSans-55"/>
       <use x="127.246094" xlink:href="#DejaVuSans-46"/>
       <use x="159.033203" xlink:href="#DejaVuSans-53"/>
      </g>
     </g>
    </g>
    <g id="xtick_9">
     <g id="line2d_17">
      <path clip-path="url(#p1be7c95dff)" d="M 383.514631 239.758125 
L 383.514631 22.318125 
" style="fill:none;stroke:#b0b0b0;stroke-linecap:square;stroke-width:0.8;"/>
     </g>
     <g id="line2d_18">
      <g>
       <use style="stroke:#000000;stroke-width:0.8;" x="383.514631" xlink:href="#mff8f66b417" y="239.758125"/>
      </g>
     </g>
     <g id="text_9">
      <!-- 20.0 -->
      <g transform="translate(372.381818 254.356563)scale(0.1 -0.1)">
       <use xlink:href="#DejaVuSans-50"/>
       <use x="63.623047" xlink:href="#DejaVuSans-48"/>
       <use x="127.246094" xlink:href="#DejaVuSans-46"/>
       <use x="159.033203" xlink:href="#DejaVuSans-48"/>
      </g>
     </g>
    </g>
   </g>
   <g id="matplotlib.axis_2">
    <g id="ytick_1">
     <g id="line2d_19">
      <path clip-path="url(#p1be7c95dff)" d="M 63.932812 229.874489 
L 398.732813 229.874489 
" style="fill:none;stroke:#b0b0b0;stroke-linecap:square;stroke-width:0.8;"/>
     </g>
     <g id="line2d_20">
      <defs>
       <path d="M 0 0 
L -3.5 0 
" id="md37a28726a" style="stroke:#000000;stroke-width:0.8;"/>
      </defs>
      <g>
       <use style="stroke:#000000;stroke-width:0.8;" x="63.932812" xlink:href="#md37a28726a" y="229.874489"/>
      </g>
     </g>
     <g id="text_10">
      <!-- −0.00100 -->
      <g transform="translate(7.2 233.673707)scale(0.1 -0.1)">
       <defs>
        <path d="M 10.59375 35.5 
L 73.1875 35.5 
L 73.1875 27.203125 
L 10.59375 27.203125 
z
" id="DejaVuSans-8722"/>
       </defs>
       <use xlink:href="#DejaVuSans-8722"/>
       <use x="83.789062" xlink:href="#DejaVuSans-48"/>
       <use x="147.412109" xlink:href="#DejaVuSans-46"/>
       <use x="179.199219" xlink:href="#DejaVuSans-48"/>
       <use x="242.822266" xlink:href="#DejaVuSans-48"/>
       <use x="306.445312" xlink:href="#DejaVuSans-49"/>
       <use x="370.068359" xlink:href="#DejaVuSans-48"/>
       <use x="433.691406" xlink:href="#DejaVuSans-48"/>
      </g>
     </g>
    </g>
    <g id="ytick_2">
     <g id="line2d_21">
      <path clip-path="url(#p1be7c95dff)" d="M 63.932812 204.721409 
L 398.732813 204.721409 
" style="fill:none;stroke:#b0b0b0;stroke-linecap:square;stroke-width:0.8;"/>
     </g>
     <g id="line2d_22">
      <g>
       <use style="stroke:#000000;stroke-width:0.8;" x="63.932812" xlink:href="#md37a28726a" y="204.721409"/>
      </g>
     </g>
     <g id="text_11">
      <!-- −0.00075 -->
      <g transform="translate(7.2 208.520628)scale(0.1 -0.1)">
       <use xlink:href="#DejaVuSans-8722"/>
       <use x="83.789062" xlink:href="#DejaVuSans-48"/>
       <use x="147.412109" xlink:href="#DejaVuSans-46"/>
       <use x="179.199219" xlink:href="#DejaVuSans-48"/>
       <use x="242.822266" xlink:href="#DejaVuSans-48"/>
       <use x="306.445312" xlink:href="#DejaVuSans-48"/>
       <use x="370.068359" xlink:href="#DejaVuSans-55"/>
       <use x="433.691406" xlink:href="#DejaVuSans-53"/>
      </g>
     </g>
    </g>
    <g id="ytick_3">
     <g id="line2d_23">
      <path clip-path="url(#p1be7c95dff)" d="M 63.932812 179.56833 
L 398.732813 179.56833 
" style="fill:none;stroke:#b0b0b0;stroke-linecap:square;stroke-width:0.8;"/>
     </g>
     <g id="line2d_24">
      <g>
       <use style="stroke:#000000;stroke-width:0.8;" x="63.932812" xlink:href="#md37a28726a" y="179.56833"/>
      </g>
     </g>
     <g id="text_12">
      <!-- −0.00050 -->
      <g transform="translate(7.2 183.367549)scale(0.1 -0.1)">
       <use xlink:href="#DejaVuSans-8722"/>
       <use x="83.789062" xlink:href="#DejaVuSans-48"/>
       <use x="147.412109" xlink:href="#DejaVuSans-46"/>
       <use x="179.199219" xlink:href="#DejaVuSans-48"/>
       <use x="242.822266" xlink:href="#DejaVuSans-48"/>
       <use x="306.445312" xlink:href="#DejaVuSans-48"/>
       <use x="370.068359" xlink:href="#DejaVuSans-53"/>
       <use x="433.691406" xlink:href="#DejaVuSans-48"/>
      </g>
     </g>
    </g>
    <g id="ytick_4">
     <g id="line2d_25">
      <path clip-path="url(#p1be7c95dff)" d="M 63.932812 154.41525 
L 398.732813 154.41525 
" style="fill:none;stroke:#b0b0b0;stroke-linecap:square;stroke-width:0.8;"/>
     </g>
     <g id="line2d_26">
      <g>
       <use style="stroke:#000000;stroke-width:0.8;" x="63.932812" xlink:href="#md37a28726a" y="154.41525"/>
      </g>
     </g>
     <g id="text_13">
      <!-- −0.00025 -->
      <g transform="translate(7.2 158.214469)scale(0.1 -0.1)">
       <use xlink:href="#DejaVuSans-8722"/>
       <use x="83.789062" xlink:href="#DejaVuSans-48"/>
       <use x="147.412109" xlink:href="#DejaVuSans-46"/>
       <use x="179.199219" xlink:href="#DejaVuSans-48"/>
       <use x="242.822266" xlink:href="#DejaVuSans-48"/>
       <use x="306.445312" xlink:href="#DejaVuSans-48"/>
       <use x="370.068359" xlink:href="#DejaVuSans-50"/>
       <use x="433.691406" xlink:href="#DejaVuSans-53"/>
      </g>
     </g>
    </g>
    <g id="ytick_5">
     <g id="line2d_27">
      <path clip-path="url(#p1be7c95dff)" d="M 63.932812 129.262171 
L 398.732813 129.262171 
" style="fill:none;stroke:#b0b0b0;stroke-linecap:square;stroke-width:0.8;"/>
     </g>
     <g id="line2d_28">
      <g>
       <use style="stroke:#000000;stroke-width:0.8;" x="63.932812" xlink:href="#md37a28726a" y="129.262171"/>
      </g>
     </g>
     <g id="text_14">
      <!-- 0.00000 -->
      <g transform="translate(15.579687 133.06139)scale(0.1 -0.1)">
       <use xlink:href="#DejaVuSans-48"/>
       <use x="63.623047" xlink:href="#DejaVuSans-46"/>
       <use x="95.410156" xlink:href="#DejaVuSans-48"/>
       <use x="159.033203" xlink:href="#DejaVuSans-48"/>
       <use x="222.65625" xlink:href="#DejaVuSans-48"/>
       <use x="286.279297" xlink:href="#DejaVuSans-48"/>
       <use x="349.902344" xlink:href="#DejaVuSans-48"/>
      </g>
     </g>
    </g>
    <g id="ytick_6">
     <g id="line2d_29">
      <path clip-path="url(#p1be7c95dff)" d="M 63.932812 104.109092 
L 398.732813 104.109092 
" style="fill:none;stroke:#b0b0b0;stroke-linecap:square;stroke-width:0.8;"/>
     </g>
     <g id="line2d_30">
      <g>
       <use style="stroke:#000000;stroke-width:0.8;" x="63.932812" xlink:href="#md37a28726a" y="104.109092"/>
      </g>
     </g>
     <g id="text_15">
      <!-- 0.00025 -->
      <g transform="translate(15.579687 107.90831)scale(0.1 -0.1)">
       <use xlink:href="#DejaVuSans-48"/>
       <use x="63.623047" xlink:href="#DejaVuSans-46"/>
       <use x="95.410156" xlink:href="#DejaVuSans-48"/>
       <use x="159.033203" xlink:href="#DejaVuSans-48"/>
       <use x="222.65625" xlink:href="#DejaVuSans-48"/>
       <use x="286.279297" xlink:href="#DejaVuSans-50"/>
       <use x="349.902344" xlink:href="#DejaVuSans-53"/>
      </g>
     </g>
    </g>
    <g id="ytick_7">
     <g id="line2d_31">
      <path clip-path="url(#p1be7c95dff)" d="M 63.932812 78.956012 
L 398.732813 78.956012 
" style="fill:none;stroke:#b0b0b0;stroke-linecap:square;stroke-width:0.8;"/>
     </g>
     <g id="line2d_32">
      <g>
       <use style="stroke:#000000;stroke-width:0.8;" x="63.932812" xlink:href="#md37a28726a" y="78.956012"/>
      </g>
     </g>
     <g id="text_16">
      <!-- 0.00050 -->
      <g transform="translate(15.579687 82.755231)scale(0.1 -0.1)">
       <use xlink:href="#DejaVuSans-48"/>
       <use x="63.623047" xlink:href="#DejaVuSans-46"/>
       <use x="95.410156" xlink:href="#DejaVuSans-48"/>
       <use x="159.033203" xlink:href="#DejaVuSans-48"/>
       <use x="222.65625" xlink:href="#DejaVuSans-48"/>
       <use x="286.279297" xlink:href="#DejaVuSans-53"/>
       <use x="349.902344" xlink:href="#DejaVuSans-48"/>
      </g>
     </g>
    </g>
    <g id="ytick_8">
     <g id="line2d_33">
      <path clip-path="url(#p1be7c95dff)" d="M 63.932812 53.802933 
L 398.732813 53.802933 
" style="fill:none;stroke:#b0b0b0;stroke-linecap:square;stroke-width:0.8;"/>
     </g>
     <g id="line2d_34">
      <g>
       <use style="stroke:#000000;stroke-width:0.8;" x="63.932812" xlink:href="#md37a28726a" y="53.802933"/>
      </g>
     </g>
     <g id="text_17">
      <!-- 0.00075 -->
      <g transform="translate(15.579687 57.602152)scale(0.1 -0.1)">
       <use xlink:href="#DejaVuSans-48"/>
       <use x="63.623047" xlink:href="#DejaVuSans-46"/>
       <use x="95.410156" xlink:href="#DejaVuSans-48"/>
       <use x="159.033203" xlink:href="#DejaVuSans-48"/>
       <use x="222.65625" xlink:href="#DejaVuSans-48"/>
       <use x="286.279297" xlink:href="#DejaVuSans-55"/>
       <use x="349.902344" xlink:href="#DejaVuSans-53"/>
      </g>
     </g>
    </g>
    <g id="ytick_9">
     <g id="line2d_35">
      <path clip-path="url(#p1be7c95dff)" d="M 63.932812 28.649853 
L 398.732813 28.649853 
" style="fill:none;stroke:#b0b0b0;stroke-linecap:square;stroke-width:0.8;"/>
     </g>
     <g id="line2d_36">
      <g>
       <use style="stroke:#000000;stroke-width:0.8;" x="63.932812" xlink:href="#md37a28726a" y="28.649853"/>
      </g>
     </g>
     <g id="text_18">
      <!-- 0.00100 -->
      <g transform="translate(15.579687 32.449072)scale(0.1 -0.1)">
       <use xlink:href="#DejaVuSans-48"/>
       <use x="63.623047" xlink:href="#DejaVuSans-46"/>
       <use x="95.410156" xlink:href="#DejaVuSans-48"/>
       <use x="159.033203" xlink:href="#DejaVuSans-48"/>
       <use x="222.65625" xlink:href="#DejaVuSans-49"/>
       <use x="286.279297" xlink:href="#DejaVuSans-48"/>
       <use x="349.902344" xlink:href="#DejaVuSans-48"/>
      </g>
     </g>
    </g>
   </g>
   <g id="line2d_37">
    <path clip-path="url(#p1be7c95dff)" d="M 79.150994 229.874489 
L 79.455663 229.783795 
L 79.760331 229.512004 
L 80.369668 228.429213 
L 80.979004 226.639995 
L 81.588341 224.167347 
L 82.502346 219.248684 
L 83.416351 213.008232 
L 84.635024 202.947551 
L 86.158365 188.311864 
L 91.033058 139.471556 
L 92.251731 129.934779 
L 93.165736 124.121434 
L 94.079741 119.616871 
L 94.689078 117.39188 
L 95.298414 115.81214 
L 95.907751 114.886907 
L 96.212419 114.670078 
L 96.517088 114.616137 
L 96.821756 114.72363 
L 97.126424 114.990526 
L 97.735761 115.991669 
L 98.345098 117.592199 
L 98.954434 119.756279 
L 99.868439 123.961098 
L 101.087112 131.07094 
L 102.610454 141.645997 
L 106.266473 167.988602 
L 107.485147 174.930682 
L 108.399152 178.959748 
L 109.008488 180.98033 
L 109.617825 182.414476 
L 110.227161 183.224702 
L 110.53183 183.386424 
L 110.836498 183.381922 
L 111.141166 183.20896 
L 111.445835 182.865856 
L 112.055171 181.665339 
L 112.664508 179.778502 
L 113.273844 177.212746 
L 114.187849 172.130158 
L 115.101854 165.653774 
L 116.320527 155.092664 
L 117.843869 139.418279 
L 120.281215 111.175176 
L 122.718562 83.425041 
L 124.241903 68.536782 
L 125.460577 58.84062 
L 126.374582 53.133688 
L 127.288586 48.909677 
L 127.897923 46.958946 
L 128.50726 45.716194 
L 128.811928 45.361641 
L 129.116596 45.184497 
L 129.421265 45.183673 
L 129.725933 45.357527 
L 130.030601 45.703835 
L 130.639938 46.902096 
L 131.249274 48.749531 
L 131.858611 51.208753 
L 132.772616 55.943506 
L 133.991289 63.915432 
L 135.514631 75.804599 
L 139.779987 110.796346 
L 140.99866 118.646247 
L 141.912665 123.3079 
L 142.82667 126.740462 
L 143.436007 128.286232 
L 144.045343 129.208554 
L 144.350012 129.430824 
L 144.65468 129.492292 
L 144.959348 129.392508 
L 145.264016 129.131592 
L 145.873353 128.129793 
L 146.48269 126.499527 
L 147.092026 124.262486 
L 148.006031 119.838179 
L 148.920036 114.256704 
L 150.138709 105.322899 
L 151.966719 89.779629 
L 155.31807 60.777337 
L 156.536744 52.098811 
L 157.450749 46.797258 
L 158.364754 42.74483 
L 158.97409 40.815022 
L 159.583427 39.545704 
L 160.192763 38.964165 
L 160.497432 38.937398 
L 160.8021 39.088763 
L 161.106768 39.419092 
L 161.716105 40.617193 
L 162.325441 42.526918 
L 162.934778 45.134101 
L 163.848783 50.299528 
L 164.762788 56.86468 
L 165.981461 67.520752 
L 167.504803 83.223156 
L 170.246817 114.722824 
L 172.379496 138.223038 
L 173.902837 152.494125 
L 175.12151 161.654294 
L 176.035515 166.963563 
L 176.94952 170.817033 
L 177.558857 172.546969 
L 178.168193 173.597855 
L 178.472862 173.869501 
L 178.77753 173.973544 
L 179.082198 173.911896 
L 179.386867 173.687042 
L 179.996203 172.760439 
L 180.60554 171.22458 
L 181.214876 169.118621 
L 182.128881 164.995348 
L 183.347555 157.997604 
L 184.870896 147.590839 
L 188.526916 121.848084 
L 189.745589 115.149845 
L 190.659594 111.302193 
L 191.26893 109.396489 
L 191.878267 108.068537 
L 192.487604 107.352324 
L 192.792272 107.231902 
L 193.09694 107.273231 
L 193.401609 107.478117 
L 194.010945 108.382729 
L 194.620282 109.948316 
L 195.229618 112.168267 
L 196.143623 116.687896 
L 197.057628 122.550679 
L 198.276301 132.219614 
L 199.799643 146.668236 
L 202.236989 172.719722 
L 204.674336 198.024516 
L 205.893009 208.846528 
L 207.111682 217.721565 
L 208.025687 222.837373 
L 208.939692 226.476551 
L 209.549029 228.033713 
L 210.158365 228.874692 
L 210.463034 229.023852 
L 210.767702 228.991835 
L 211.07237 228.77914 
L 211.681707 227.816621 
L 212.291043 226.151955 
L 212.90038 223.809796 
L 213.814385 219.101726 
L 214.72839 213.093428 
L 215.947063 203.382564 
L 217.470405 189.258742 
L 222.040429 145.132998 
L 223.259102 135.800319 
L 224.173107 130.091525 
L 225.087112 125.657781 
L 225.696449 123.465148 
L 226.305785 121.908776 
L 226.915122 121.000456 
L 227.21979 120.790486 
L 227.524459 120.742765 
L 227.829127 120.85614 
L 228.133795 121.128924 
L 228.743132 122.143089 
L 229.352469 123.760145 
L 229.961805 125.946728 
L 230.87581 130.201149 
L 232.094483 137.416504 
L 233.617825 148.203112 
L 237.578513 177.45064 
L 238.797186 184.418986 
L 239.711191 188.417342 
L 240.320527 190.395821 
L 240.929864 191.772366 
L 241.539201 192.511109 
L 241.843869 192.632395 
L 242.148537 192.584671 
L 242.453206 192.365882 
L 243.062542 191.409929 
L 243.671879 189.759871 
L 244.281215 187.42039 
L 245.19522 182.651494 
L 246.109225 176.450022 
L 247.327898 166.18104 
L 248.85124 150.72967 
L 250.983918 126.101894 
L 254.030601 90.915578 
L 255.553943 75.990226 
L 256.772616 66.286375 
L 257.686621 60.579249 
L 258.600626 56.353959 
L 259.209962 54.398884 
L 259.819299 53.146924 
L 260.123967 52.785375 
L 260.428636 52.599349 
L 260.733304 52.587554 
L 261.037972 52.748116 
L 261.342641 53.078584 
L 261.951977 54.236701 
L 262.561314 56.031365 
L 263.17065 58.423563 
L 264.084655 63.028117 
L 265.303328 70.764868 
L 266.82667 82.251428 
L 270.787358 113.404043 
L 272.006031 121.003541 
L 272.920036 125.512255 
L 273.834041 128.814464 
L 274.443378 130.282207 
L 275.052714 131.13082 
L 275.357383 131.317094 
L 275.662051 131.342715 
L 275.966719 131.206898 
L 276.271387 130.909476 
L 276.880724 129.831968 
L 277.490061 128.120263 
L 278.099397 125.793688 
L 279.013402 121.214707 
L 279.927407 115.447992 
L 281.14608 106.208651 
L 282.97409 90.059297 
L 286.63011 56.945652 
L 287.848783 47.935309 
L 288.762788 42.424924 
L 289.676793 38.19366 
L 290.286129 36.159011 
L 290.895466 34.794551 
L 291.504803 34.125949 
L 291.809471 34.058159 
L 292.114139 34.169872 
L 292.418808 34.461736 
L 293.028144 35.585539 
L 293.637481 37.422971 
L 294.246817 39.958271 
L 295.160822 45.012568 
L 296.074827 51.45847 
L 297.2935 61.934629 
L 298.816842 77.366294 
L 301.863525 111.646639 
L 303.691535 131.082702 
L 305.214876 144.842749 
L 306.43355 153.576925 
L 307.347555 158.565317 
L 308.261559 162.103684 
L 308.870896 163.629955 
L 309.480233 164.484627 
L 309.784901 164.661545 
L 310.089569 164.673451 
L 310.394238 164.522488 
L 311.003574 163.743422 
L 311.612911 162.352632 
L 312.222247 160.386973 
L 313.136252 156.46045 
L 314.050257 151.523787 
L 315.26893 143.740496 
L 318.010945 124.063127 
L 319.534287 113.868401 
L 320.75296 107.098245 
L 321.666965 103.17035 
L 322.276301 101.202203 
L 322.885638 99.807129 
L 323.494975 99.021547 
L 323.799643 98.866337 
L 324.104311 98.873282 
L 324.40898 99.044439 
L 324.713648 99.381351 
L 325.322984 100.555671 
L 325.932321 102.396833 
L 326.541658 104.896151 
L 327.455663 109.837675 
L 328.369668 116.119886 
L 329.588341 126.333807 
L 331.111682 141.423553 
L 333.853697 171.774613 
L 335.986375 194.376809 
L 337.205048 205.485043 
L 338.423722 214.611308 
L 339.337727 219.898481 
L 340.251731 223.699933 
L 340.861068 225.362924 
L 341.470405 226.309798 
L 341.775073 226.512484 
L 342.079741 226.534646 
L 342.38441 226.377001 
L 342.689078 226.040853 
L 343.298414 224.841193 
L 343.907751 222.957394 
L 344.517088 220.420368 
L 345.431093 215.477381 
L 346.345098 209.318397 
L 347.563771 199.562982 
L 349.391781 182.760067 
L 352.743132 151.536421 
L 353.961805 142.046888 
L 355.180478 134.379582 
L 356.094483 130.059784 
L 356.70382 127.929037 
L 357.313156 126.426075 
L 357.922493 125.565202 
L 358.227161 125.377508 
L 358.53183 125.351511 
L 358.836498 125.48638 
L 359.141166 125.780736 
L 359.750503 126.83949 
L 360.35984 128.505311 
L 360.969176 130.747004 
L 361.883181 135.100777 
L 363.101854 142.489614 
L 364.625196 153.57585 
L 368.890552 186.118472 
L 370.109225 193.190544 
L 371.02323 197.218339 
L 371.632567 199.195855 
L 372.241903 200.556707 
L 372.85124 201.26675 
L 373.155908 201.369322 
L 373.460577 201.300246 
L 373.765245 201.057728 
L 374.374582 200.048035 
L 374.983918 198.337431 
L 375.593255 195.932435 
L 376.50726 191.059935 
L 377.421265 184.753723 
L 378.639938 174.352753 
L 380.163279 158.763948 
L 382.295957 134.02283 
L 383.514631 119.492657 
L 383.514631 119.492657 
" style="fill:none;stroke:#000000;stroke-linecap:square;stroke-width:1.5;"/>
   </g>
   <g id="line2d_38">
    <path clip-path="url(#p1be7c95dff)" d="M 79.150994 129.262171 
L 79.455663 129.181559 
L 79.760331 128.940009 
L 80.369668 127.978153 
L 80.979004 126.390386 
L 81.588341 124.199545 
L 82.502346 119.853748 
L 83.416351 114.365405 
L 84.635024 105.583966 
L 86.463034 90.340297 
L 89.509717 64.446512 
L 90.72839 55.72782 
L 91.642395 50.333213 
L 92.5564 46.141817 
L 93.165736 44.09808 
L 93.775073 42.701029 
L 94.38441 41.980969 
L 94.689078 41.881865 
L 94.993746 41.959351 
L 95.298414 42.214674 
L 95.907751 43.260981 
L 96.517088 45.019163 
L 97.126424 47.478288 
L 98.040429 52.434871 
L 98.954434 58.81604 
L 100.173107 69.280589 
L 101.696449 84.854566 
L 104.133795 112.921376 
L 106.571142 140.45056 
L 108.094483 155.203197 
L 109.313156 164.818503 
L 110.227161 170.495783 
L 111.141166 174.728803 
L 111.750503 176.712804 
L 112.35984 178.014786 
L 112.969176 178.635216 
L 113.273844 178.692545 
L 113.578513 178.583902 
L 113.883181 178.311919 
L 114.492518 177.291229 
L 115.101854 175.662827 
L 115.711191 173.466909 
L 116.625196 169.21603 
L 117.843869 162.066814 
L 119.367211 151.508908 
L 122.718562 127.509589 
L 123.937235 120.4253 
L 124.85124 116.225346 
L 125.765245 113.184109 
L 126.374582 111.873427 
L 126.983918 111.175636 
L 127.288586 111.064491 
L 127.593255 111.114938 
L 127.897923 111.328578 
L 128.50726 112.24905 
L 129.116596 113.827247 
L 129.725933 116.055149 
L 130.639938 120.575274 
L 131.553943 126.421199 
L 132.772616 136.034155 
L 134.295957 150.348554 
L 137.037972 179.259333 
L 139.17065 200.716667 
L 140.389324 211.163513 
L 141.607997 219.622837 
L 142.522002 224.405597 
L 143.131338 226.772791 
L 143.740675 228.447968 
L 144.350012 229.411118 
L 144.65468 229.621958 
L 144.959348 229.651479 
L 145.264016 229.499778 
L 145.568685 229.167545 
L 146.178021 227.967151 
L 146.787358 226.067406 
L 147.396695 223.494405 
L 148.310699 218.450797 
L 149.224704 212.123591 
L 150.443378 202.019706 
L 152.271387 184.391414 
L 156.232075 145.14297 
L 157.450749 135.25759 
L 158.669422 127.30518 
L 159.583427 122.829926 
L 160.192763 120.616983 
L 160.8021 119.044729 
L 161.411437 118.123695 
L 161.716105 117.908153 
L 162.020773 117.855174 
L 162.325441 117.963466 
L 162.63011 118.231142 
L 163.239446 119.23441 
L 163.848783 120.838879 
L 164.45812 123.009696 
L 165.372125 127.232526 
L 166.590798 134.385881 
L 168.114139 145.054737 
L 171.770159 171.82713 
L 172.988832 178.971252 
L 173.902837 183.165901 
L 174.816842 186.153373 
L 175.426179 187.398502 
L 176.035515 188.004896 
L 176.340184 188.060059 
L 176.644852 187.946455 
L 176.94952 187.662243 
L 177.558857 186.577418 
L 178.168193 184.802297 
L 178.77753 182.342998 
L 179.691535 177.40713 
L 180.60554 171.057932 
L 181.824213 160.628965 
L 183.347555 145.0483 
L 185.480233 120.391828 
L 188.222247 88.726799 
L 189.745589 73.542039 
L 190.964262 63.554023 
L 191.878267 57.602107 
L 192.792272 53.115592 
L 193.401609 50.982371 
L 194.010945 49.552831 
L 194.620282 48.831421 
L 194.92495 48.735137 
L 195.229618 48.813364 
L 195.534287 49.064047 
L 196.143623 50.071746 
L 196.75296 51.730683 
L 197.362297 54.004778 
L 198.276301 58.470822 
L 199.190306 64.040637 
L 200.40898 72.815344 
L 202.541658 90.247863 
L 204.674336 107.463174 
L 205.893009 115.949514 
L 207.111682 122.786666 
L 208.025687 126.573447 
L 208.635024 128.380691 
L 209.24436 129.578269 
L 209.853697 130.145315 
L 210.158365 130.188358 
L 210.463034 130.070064 
L 210.767702 129.790425 
L 211.377039 128.749879 
L 211.986375 127.078044 
L 212.595712 124.795474 
L 213.509717 120.292807 
L 214.423722 114.617922 
L 215.642395 105.530696 
L 217.470405 89.684473 
L 220.821756 59.878079 
L 222.040429 50.833289 
L 222.954434 45.236564 
L 223.868439 40.875365 
L 224.477776 38.734141 
L 225.087112 37.250431 
L 225.696449 36.452931 
L 226.001117 36.318059 
L 226.305785 36.361435 
L 226.610454 36.584114 
L 227.21979 37.568648 
L 227.829127 39.268283 
L 228.438464 41.670384 
L 229.352469 46.540357 
L 230.266473 52.828994 
L 231.485147 63.152691 
L 233.008488 78.509409 
L 235.445835 106.107236 
L 237.883181 133.013753 
L 239.406523 147.316452 
L 240.625196 156.553683 
L 241.539201 161.945161 
L 242.453206 165.897209 
L 243.062542 167.69975 
L 243.671879 168.827192 
L 243.976547 169.138157 
L 244.281215 169.281988 
L 244.585884 169.260441 
L 244.890552 169.075846 
L 245.499889 168.229546 
L 246.109225 166.772671 
L 246.718562 164.74315 
L 247.632567 160.7276 
L 248.546572 155.712805 
L 249.765245 147.846911 
L 254.639938 114.36175 
L 255.553943 109.781259 
L 256.467948 106.282827 
L 257.077284 104.634464 
L 257.686621 103.580109 
L 257.991289 103.285757 
L 258.295957 103.150832 
L 258.600626 103.177864 
L 258.905294 103.368811 
L 259.514631 104.247221 
L 260.123967 105.790045 
L 260.733304 107.991895 
L 261.647309 112.495944 
L 262.561314 118.360752 
L 263.779987 128.066001 
L 265.303328 142.62447 
L 267.740675 169.023456 
L 270.178021 194.89616 
L 271.701363 208.595187 
L 272.920036 217.323707 
L 273.834041 222.290291 
L 274.443378 224.774141 
L 275.052714 226.563121 
L 275.662051 227.63889 
L 275.966719 227.906106 
L 276.271387 227.992339 
L 276.576056 227.897904 
L 276.880724 227.623701 
L 277.490061 226.542482 
L 278.099397 224.767503 
L 278.708734 222.326368 
L 279.622739 217.497454 
L 280.536744 211.40911 
L 281.755417 201.667925 
L 283.583427 184.690983 
L 287.239446 149.861711 
L 288.45812 140.22902 
L 289.676793 132.454576 
L 290.590798 128.07346 
L 291.200134 125.908792 
L 291.809471 124.376104 
L 292.418808 123.48844 
L 292.723476 123.288058 
L 293.028144 123.249643 
L 293.332812 123.372201 
L 293.637481 123.654208 
L 294.246817 124.687522 
L 294.856154 126.325702 
L 295.465491 128.536525 
L 296.379496 132.835518 
L 297.598169 140.130522 
L 299.12151 151.0575 
L 303.082198 180.913986 
L 304.300871 188.134397 
L 305.214876 192.335969 
L 305.824213 194.454794 
L 306.43355 195.974201 
L 307.042886 196.857088 
L 307.347555 197.050536 
L 307.652223 197.074782 
L 307.956891 196.92762 
L 308.261559 196.607444 
L 308.870896 195.444394 
L 309.480233 193.584243 
L 310.089569 191.034921 
L 311.003574 185.958743 
L 311.917579 179.468136 
L 313.136252 168.858686 
L 314.659594 153.081012 
L 317.09694 124.583432 
L 319.534287 96.475797 
L 321.057628 81.309835 
L 322.276301 71.359008 
L 323.190306 65.440563 
L 324.104311 60.986285 
L 324.713648 58.87098 
L 325.322984 57.454396 
L 325.932321 56.739202 
L 326.236989 56.642916 
L 326.541658 56.718761 
L 326.846326 56.96448 
L 327.455663 57.953676 
L 328.064999 59.581154 
L 328.674336 61.809365 
L 329.588341 66.176149 
L 330.502346 71.606615 
L 331.721019 80.12733 
L 334.158365 99.353795 
L 335.986375 113.234647 
L 337.205048 121.106232 
L 338.119053 125.91111 
L 339.033058 129.571856 
L 339.642395 131.304869 
L 340.251731 132.433407 
L 340.861068 132.934185 
L 341.165736 132.944339 
L 341.470405 132.792933 
L 341.775073 132.479613 
L 342.38441 131.36875 
L 342.993746 129.620627 
L 343.603083 127.253261 
L 344.517088 122.602574 
L 345.431093 116.748022 
L 346.649766 107.361105 
L 348.173107 93.785911 
L 352.438464 54.398773 
L 353.657137 45.434834 
L 354.571142 40.016994 
L 355.485147 35.919227 
L 356.094483 33.991824 
L 356.70382 32.745906 
L 357.008488 32.38592 
L 357.313156 32.204065 
L 357.617825 32.201761 
L 357.922493 32.379838 
L 358.227161 32.738531 
L 358.836498 33.995757 
L 359.445835 35.963682 
L 360.055171 38.623376 
L 360.969176 43.846559 
L 361.883181 50.431489 
L 363.101854 61.03198 
L 364.625196 76.498691 
L 370.109225 134.902696 
L 371.327898 144.728548 
L 372.241903 150.66805 
L 373.155908 155.235146 
L 373.765245 157.473183 
L 374.374582 159.048057 
L 374.983918 159.954883 
L 375.288586 160.158797 
L 375.593255 160.198082 
L 375.897923 160.074731 
L 376.202591 159.791305 
L 376.811928 158.757216 
L 377.421265 157.127209 
L 378.030601 154.940948 
L 378.944606 150.72413 
L 380.163279 143.654001 
L 381.686621 133.243869 
L 383.514631 119.992597 
L 383.514631 119.992597 
" style="fill:none;stroke:#0000ff;stroke-linecap:square;stroke-width:1.5;"/>
   </g>
   <g id="patch_3">
    <path d="M 63.932812 239.758125 
L 63.932812 22.318125 
" style="fill:none;stroke:#000000;stroke-linecap:square;stroke-linejoin:miter;stroke-width:0.8;"/>
   </g>
   <g id="patch_4">
    <path d="M 398.732813 239.758125 
L 398.732813 22.318125 
" style="fill:none;stroke:#000000;stroke-linecap:square;stroke-linejoin:miter;stroke-width:0.8;"/>
   </g>
   <g id="patch_5">
    <path d="M 63.932812 239.758125 
L 398.732813 239.758125 
" style="fill:none;stroke:#000000;stroke-linecap:square;stroke-linejoin:miter;stroke-width:0.8;"/>
   </g>
   <g id="patch_6">
    <path d="M 63.932812 22.318125 
L 398.732813 22.318125 
" style="fill:none;stroke:#000000;stroke-linecap:square;stroke-linejoin:miter;stroke-width:0.8;"/>
   </g>
   <g id="text_19">
    <!-- Unknown mode -->
    <g transform="translate(184.558125 16.318125)scale(0.12 -0.12)">
     <defs>
      <path d="M 8.6875 72.90625 
L 18.609375 72.90625 
L 18.609375 28.609375 
Q 18.609375 16.890625 22.84375 11.734375 
Q 27.09375 6.59375 36.625 6.59375 
Q 46.09375 6.59375 50.34375 11.734375 
Q 54.59375 16.890625 54.59375 28.609375 
L 54.59375 72.90625 
L 64.5 72.90625 
L 64.5 27.390625 
Q 64.5 13.140625 57.4375 5.859375 
Q 50.390625 -1.421875 36.625 -1.421875 
Q 22.796875 -1.421875 15.734375 5.859375 
Q 8.6875 13.140625 8.6875 27.390625 
z
" id="DejaVuSans-85"/>
      <path d="M 54.890625 33.015625 
L 54.890625 0 
L 45.90625 0 
L 45.90625 32.71875 
Q 45.90625 40.484375 42.875 44.328125 
Q 39.84375 48.1875 33.796875 48.1875 
Q 26.515625 48.1875 22.3125 43.546875 
Q 18.109375 38.921875 18.109375 30.90625 
L 18.109375 0 
L 9.078125 0 
L 9.078125 54.6875 
L 18.109375 54.6875 
L 18.109375 46.1875 
Q 21.34375 51.125 25.703125 53.5625 
Q 30.078125 56 35.796875 56 
Q 45.21875 56 50.046875 50.171875 
Q 54.890625 44.34375 54.890625 33.015625 
z
" id="DejaVuSans-110"/>
      <path d="M 9.078125 75.984375 
L 18.109375 75.984375 
L 18.109375 31.109375 
L 44.921875 54.6875 
L 56.390625 54.6875 
L 27.390625 29.109375 
L 57.625 0 
L 45.90625 0 
L 18.109375 26.703125 
L 18.109375 0 
L 9.078125 0 
z
" id="DejaVuSans-107"/>
      <path d="M 30.609375 48.390625 
Q 23.390625 48.390625 19.1875 42.75 
Q 14.984375 37.109375 14.984375 27.296875 
Q 14.984375 17.484375 19.15625 11.84375 
Q 23.34375 6.203125 30.609375 6.203125 
Q 37.796875 6.203125 41.984375 11.859375 
Q 46.1875 17.53125 46.1875 27.296875 
Q 46.1875 37.015625 41.984375 42.703125 
Q 37.796875 48.390625 30.609375 48.390625 
z
M 30.609375 56 
Q 42.328125 56 49.015625 48.375 
Q 55.71875 40.765625 55.71875 27.296875 
Q 55.71875 13.875 49.015625 6.21875 
Q 42.328125 -1.421875 30.609375 -1.421875 
Q 18.84375 -1.421875 12.171875 6.21875 
Q 5.515625 13.875 5.515625 27.296875 
Q 5.515625 40.765625 12.171875 48.375 
Q 18.84375 56 30.609375 56 
z
" id="DejaVuSans-111"/>
      <path d="M 4.203125 54.6875 
L 13.1875 54.6875 
L 24.421875 12.015625 
L 35.59375 54.6875 
L 46.1875 54.6875 
L 57.421875 12.015625 
L 68.609375 54.6875 
L 77.59375 54.6875 
L 63.28125 0 
L 52.6875 0 
L 40.921875 44.828125 
L 29.109375 0 
L 18.5 0 
z
" id="DejaVuSans-119"/>
      <path id="DejaVuSans-32"/>
      <path d="M 52 44.1875 
Q 55.375 50.25 60.0625 53.125 
Q 64.75 56 71.09375 56 
Q 79.640625 56 84.28125 50.015625 
Q 88.921875 44.046875 88.921875 33.015625 
L 88.921875 0 
L 79.890625 0 
L 79.890625 32.71875 
Q 79.890625 40.578125 77.09375 44.375 
Q 74.3125 48.1875 68.609375 48.1875 
Q 61.625 48.1875 57.5625 43.546875 
Q 53.515625 38.921875 53.515625 30.90625 
L 53.515625 0 
L 44.484375 0 
L 44.484375 32.71875 
Q 44.484375 40.625 41.703125 44.40625 
Q 38.921875 48.1875 33.109375 48.1875 
Q 26.21875 48.1875 22.15625 43.53125 
Q 18.109375 38.875 18.109375 30.90625 
L 18.109375 0 
L 9.078125 0 
L 9.078125 54.6875 
L 18.109375 54.6875 
L 18.109375 46.1875 
Q 21.1875 51.21875 25.484375 53.609375 
Q 29.78125 56 35.6875 56 
Q 41.65625 56 45.828125 52.96875 
Q 50 49.953125 52 44.1875 
z
" id="DejaVuSans-109"/>
      <path d="M 45.40625 46.390625 
L 45.40625 75.984375 
L 54.390625 75.984375 
L 54.390625 0 
L 45.40625 0 
L 45.40625 8.203125 
Q 42.578125 3.328125 38.25 0.953125 
Q 33.9375 -1.421875 27.875 -1.421875 
Q 17.96875 -1.421875 11.734375 6.484375 
Q 5.515625 14.40625 5.515625 27.296875 
Q 5.515625 40.1875 11.734375 48.09375 
Q 17.96875 56 27.875 56 
Q 33.9375 56 38.25 53.625 
Q 42.578125 51.265625 45.40625 46.390625 
z
M 14.796875 27.296875 
Q 14.796875 17.390625 18.875 11.75 
Q 22.953125 6.109375 30.078125 6.109375 
Q 37.203125 6.109375 41.296875 11.75 
Q 45.40625 17.390625 45.40625 27.296875 
Q 45.40625 37.203125 41.296875 42.84375 
Q 37.203125 48.484375 30.078125 48.484375 
Q 22.953125 48.484375 18.875 42.84375 
Q 14.796875 37.203125 14.796875 27.296875 
z
" id="DejaVuSans-100"/>
      <path d="M 56.203125 29.59375 
L 56.203125 25.203125 
L 14.890625 25.203125 
Q 15.484375 15.921875 20.484375 11.0625 
Q 25.484375 6.203125 34.421875 6.203125 
Q 39.59375 6.203125 44.453125 7.46875 
Q 49.3125 8.734375 54.109375 11.28125 
L 54.109375 2.78125 
Q 49.265625 0.734375 44.1875 -0.34375 
Q 39.109375 -1.421875 33.890625 -1.421875 
Q 20.796875 -1.421875 13.15625 6.1875 
Q 5.515625 13.8125 5.515625 26.8125 
Q 5.515625 40.234375 12.765625 48.109375 
Q 20.015625 56 32.328125 56 
Q 43.359375 56 49.78125 48.890625 
Q 56.203125 41.796875 56.203125 29.59375 
z
M 47.21875 32.234375 
Q 47.125 39.59375 43.09375 43.984375 
Q 39.0625 48.390625 32.421875 48.390625 
Q 24.90625 48.390625 20.390625 44.140625 
Q 15.875 39.890625 15.1875 32.171875 
z
" id="DejaVuSans-101"/>
     </defs>
     <use xlink:href="#DejaVuSans-85"/>
     <use x="73.193359" xlink:href="#DejaVuSans-110"/>
     <use x="136.572266" xlink:href="#DejaVuSans-107"/>
     <use x="194.482422" xlink:href="#DejaVuSans-110"/>
     <use x="257.861328" xlink:href="#DejaVuSans-111"/>
     <use x="319.042969" xlink:href="#DejaVuSans-119"/>
     <use x="400.830078" xlink:href="#DejaVuSans-110"/>
     <use x="464.208984" xlink:href="#DejaVuSans-32"/>
     <use x="495.996094" xlink:href="#DejaVuSans-109"/>
     <use x="593.408203" xlink:href="#DejaVuSans-111"/>
     <use x="654.589844" xlink:href="#DejaVuSans-100"/>
     <use x="718.066406" xlink:href="#DejaVuSans-101"/>
    </g>
   </g>
  </g>
 </g>
 <defs>
  <clipPath id="p1be7c95dff">
   <rect height="217.44" width="334.8" x="63.932812" y="22.318125"/>
  </clipPath>
 </defs>
</svg>
