<?xml version="1.0" encoding="utf-8" standalone="no"?>
<!DOCTYPE svg PUBLIC "-//W3C//DTD SVG 1.1//EN"
  "http://www.w3.org/Graphics/SVG/1.1/DTD/svg11.dtd">
<!-- Created with matplotlib (https://matplotlib.org/) -->
<svg height="248.518125pt" version="1.1" viewBox="0 0 384.828125 248.518125" width="384.828125pt" xmlns="http://www.w3.org/2000/svg" xmlns:xlink="http://www.w3.org/1999/xlink">
 <metadata>
  <rdf:RDF xmlns:cc="http://creativecommons.org/ns#" xmlns:dc="http://purl.org/dc/elements/1.1/" xmlns:rdf="http://www.w3.org/1999/02/22-rdf-syntax-ns#">
   <cc:Work>
    <dc:type rdf:resource="http://purl.org/dc/dcmitype/StillImage"/>
    <dc:date>2021-09-29T15:36:43.153234</dc:date>
    <dc:format>image/svg+xml</dc:format>
    <dc:creator>
     <cc:Agent>
      <dc:title>Matplotlib v3.3.4, https://matplotlib.org/</dc:title>
     </cc:Agent>
    </dc:creator>
   </cc:Work>
  </rdf:RDF>
 </metadata>
 <defs>
  <style type="text/css">*{stroke-linecap:butt;stroke-linejoin:round;}</style>
 </defs>
 <g id="figure_1">
  <g id="patch_1">
   <path d="M 0 248.518125 
L 384.828125 248.518125 
L 384.828125 0 
L 0 0 
z
" style="fill:none;"/>
  </g>
  <g id="axes_1">
   <g id="patch_2">
    <path d="M 42.828125 224.64 
L 377.628125 224.64 
L 377.628125 7.2 
L 42.828125 7.2 
z
" style="fill:#ffffff;"/>
   </g>
   <g id="matplotlib.axis_1">
    <g id="xtick_1">
     <g id="line2d_1">
      <path clip-path="url(#p27a3b2af85)" d="M 51.705398 224.64 
L 51.705398 7.2 
" style="fill:none;stroke:#b0b0b0;stroke-linecap:square;stroke-width:0.8;"/>
     </g>
     <g id="line2d_2">
      <defs>
       <path d="M 0 0 
L 0 3.5 
" id="m282a9cd4b5" style="stroke:#000000;stroke-width:0.8;"/>
      </defs>
      <g>
       <use style="stroke:#000000;stroke-width:0.8;" x="51.705398" xlink:href="#m282a9cd4b5" y="224.64"/>
      </g>
     </g>
     <g id="text_1">
      <!-- 0.0 -->
      <g transform="translate(43.753835 239.238437)scale(0.1 -0.1)">
       <defs>
        <path d="M 31.78125 66.40625 
Q 24.171875 66.40625 20.328125 58.90625 
Q 16.5 51.421875 16.5 36.375 
Q 16.5 21.390625 20.328125 13.890625 
Q 24.171875 6.390625 31.78125 6.390625 
Q 39.453125 6.390625 43.28125 13.890625 
Q 47.125 21.390625 47.125 36.375 
Q 47.125 51.421875 43.28125 58.90625 
Q 39.453125 66.40625 31.78125 66.40625 
z
M 31.78125 74.21875 
Q 44.046875 74.21875 50.515625 64.515625 
Q 56.984375 54.828125 56.984375 36.375 
Q 56.984375 17.96875 50.515625 8.265625 
Q 44.046875 -1.421875 31.78125 -1.421875 
Q 19.53125 -1.421875 13.0625 8.265625 
Q 6.59375 17.96875 6.59375 36.375 
Q 6.59375 54.828125 13.0625 64.515625 
Q 19.53125 74.21875 31.78125 74.21875 
z
" id="DejaVuSans-48"/>
        <path d="M 10.6875 12.40625 
L 21 12.40625 
L 21 0 
L 10.6875 0 
z
" id="DejaVuSans-46"/>
       </defs>
       <use xlink:href="#DejaVuSans-48"/>
       <use x="63.623047" xlink:href="#DejaVuSans-46"/>
       <use x="95.410156" xlink:href="#DejaVuSans-48"/>
      </g>
     </g>
    </g>
    <g id="xtick_2">
     <g id="line2d_3">
      <path clip-path="url(#p27a3b2af85)" d="M 113.524846 224.64 
L 113.524846 7.2 
" style="fill:none;stroke:#b0b0b0;stroke-linecap:square;stroke-width:0.8;"/>
     </g>
     <g id="line2d_4">
      <g>
       <use style="stroke:#000000;stroke-width:0.8;" x="113.524846" xlink:href="#m282a9cd4b5" y="224.64"/>
      </g>
     </g>
     <g id="text_2">
      <!-- 0.1 -->
      <g transform="translate(105.573283 239.238437)scale(0.1 -0.1)">
       <defs>
        <path d="M 12.40625 8.296875 
L 28.515625 8.296875 
L 28.515625 63.921875 
L 10.984375 60.40625 
L 10.984375 69.390625 
L 28.421875 72.90625 
L 38.28125 72.90625 
L 38.28125 8.296875 
L 54.390625 8.296875 
L 54.390625 0 
L 12.40625 0 
z
" id="DejaVuSans-49"/>
       </defs>
       <use xlink:href="#DejaVuSans-48"/>
       <use x="63.623047" xlink:href="#DejaVuSans-46"/>
       <use x="95.410156" xlink:href="#DejaVuSans-49"/>
      </g>
     </g>
    </g>
    <g id="xtick_3">
     <g id="line2d_5">
      <path clip-path="url(#p27a3b2af85)" d="M 175.344294 224.64 
L 175.344294 7.2 
" style="fill:none;stroke:#b0b0b0;stroke-linecap:square;stroke-width:0.8;"/>
     </g>
     <g id="line2d_6">
      <g>
       <use style="stroke:#000000;stroke-width:0.8;" x="175.344294" xlink:href="#m282a9cd4b5" y="224.64"/>
      </g>
     </g>
     <g id="text_3">
      <!-- 0.2 -->
      <g transform="translate(167.392731 239.238437)scale(0.1 -0.1)">
       <defs>
        <path d="M 19.1875 8.296875 
L 53.609375 8.296875 
L 53.609375 0 
L 7.328125 0 
L 7.328125 8.296875 
Q 12.9375 14.109375 22.625 23.890625 
Q 32.328125 33.6875 34.8125 36.53125 
Q 39.546875 41.84375 41.421875 45.53125 
Q 43.3125 49.21875 43.3125 52.78125 
Q 43.3125 58.59375 39.234375 62.25 
Q 35.15625 65.921875 28.609375 65.921875 
Q 23.96875 65.921875 18.8125 64.3125 
Q 13.671875 62.703125 7.8125 59.421875 
L 7.8125 69.390625 
Q 13.765625 71.78125 18.9375 73 
Q 24.125 74.21875 28.421875 74.21875 
Q 39.75 74.21875 46.484375 68.546875 
Q 53.21875 62.890625 53.21875 53.421875 
Q 53.21875 48.921875 51.53125 44.890625 
Q 49.859375 40.875 45.40625 35.40625 
Q 44.1875 33.984375 37.640625 27.21875 
Q 31.109375 20.453125 19.1875 8.296875 
z
" id="DejaVuSans-50"/>
       </defs>
       <use xlink:href="#DejaVuSans-48"/>
       <use x="63.623047" xlink:href="#DejaVuSans-46"/>
       <use x="95.410156" xlink:href="#DejaVuSans-50"/>
      </g>
     </g>
    </g>
    <g id="xtick_4">
     <g id="line2d_7">
      <path clip-path="url(#p27a3b2af85)" d="M 237.163742 224.64 
L 237.163742 7.2 
" style="fill:none;stroke:#b0b0b0;stroke-linecap:square;stroke-width:0.8;"/>
     </g>
     <g id="line2d_8">
      <g>
       <use style="stroke:#000000;stroke-width:0.8;" x="237.163742" xlink:href="#m282a9cd4b5" y="224.64"/>
      </g>
     </g>
     <g id="text_4">
      <!-- 0.3 -->
      <g transform="translate(229.212179 239.238437)scale(0.1 -0.1)">
       <defs>
        <path d="M 40.578125 39.3125 
Q 47.65625 37.796875 51.625 33 
Q 55.609375 28.21875 55.609375 21.1875 
Q 55.609375 10.40625 48.1875 4.484375 
Q 40.765625 -1.421875 27.09375 -1.421875 
Q 22.515625 -1.421875 17.65625 -0.515625 
Q 12.796875 0.390625 7.625 2.203125 
L 7.625 11.71875 
Q 11.71875 9.328125 16.59375 8.109375 
Q 21.484375 6.890625 26.8125 6.890625 
Q 36.078125 6.890625 40.9375 10.546875 
Q 45.796875 14.203125 45.796875 21.1875 
Q 45.796875 27.640625 41.28125 31.265625 
Q 36.765625 34.90625 28.71875 34.90625 
L 20.21875 34.90625 
L 20.21875 43.015625 
L 29.109375 43.015625 
Q 36.375 43.015625 40.234375 45.921875 
Q 44.09375 48.828125 44.09375 54.296875 
Q 44.09375 59.90625 40.109375 62.90625 
Q 36.140625 65.921875 28.71875 65.921875 
Q 24.65625 65.921875 20.015625 65.03125 
Q 15.375 64.15625 9.8125 62.3125 
L 9.8125 71.09375 
Q 15.4375 72.65625 20.34375 73.4375 
Q 25.25 74.21875 29.59375 74.21875 
Q 40.828125 74.21875 47.359375 69.109375 
Q 53.90625 64.015625 53.90625 55.328125 
Q 53.90625 49.265625 50.4375 45.09375 
Q 46.96875 40.921875 40.578125 39.3125 
z
" id="DejaVuSans-51"/>
       </defs>
       <use xlink:href="#DejaVuSans-48"/>
       <use x="63.623047" xlink:href="#DejaVuSans-46"/>
       <use x="95.410156" xlink:href="#DejaVuSans-51"/>
      </g>
     </g>
    </g>
    <g id="xtick_5">
     <g id="line2d_9">
      <path clip-path="url(#p27a3b2af85)" d="M 298.98319 224.64 
L 298.98319 7.2 
" style="fill:none;stroke:#b0b0b0;stroke-linecap:square;stroke-width:0.8;"/>
     </g>
     <g id="line2d_10">
      <g>
       <use style="stroke:#000000;stroke-width:0.8;" x="298.98319" xlink:href="#m282a9cd4b5" y="224.64"/>
      </g>
     </g>
     <g id="text_5">
      <!-- 0.4 -->
      <g transform="translate(291.031627 239.238437)scale(0.1 -0.1)">
       <defs>
        <path d="M 37.796875 64.3125 
L 12.890625 25.390625 
L 37.796875 25.390625 
z
M 35.203125 72.90625 
L 47.609375 72.90625 
L 47.609375 25.390625 
L 58.015625 25.390625 
L 58.015625 17.1875 
L 47.609375 17.1875 
L 47.609375 0 
L 37.796875 0 
L 37.796875 17.1875 
L 4.890625 17.1875 
L 4.890625 26.703125 
z
" id="DejaVuSans-52"/>
       </defs>
       <use xlink:href="#DejaVuSans-48"/>
       <use x="63.623047" xlink:href="#DejaVuSans-46"/>
       <use x="95.410156" xlink:href="#DejaVuSans-52"/>
      </g>
     </g>
    </g>
    <g id="xtick_6">
     <g id="line2d_11">
      <path clip-path="url(#p27a3b2af85)" d="M 360.802638 224.64 
L 360.802638 7.2 
" style="fill:none;stroke:#b0b0b0;stroke-linecap:square;stroke-width:0.8;"/>
     </g>
     <g id="line2d_12">
      <g>
       <use style="stroke:#000000;stroke-width:0.8;" x="360.802638" xlink:href="#m282a9cd4b5" y="224.64"/>
      </g>
     </g>
     <g id="text_6">
      <!-- 0.5 -->
      <g transform="translate(352.851075 239.238437)scale(0.1 -0.1)">
       <defs>
        <path d="M 10.796875 72.90625 
L 49.515625 72.90625 
L 49.515625 64.59375 
L 19.828125 64.59375 
L 19.828125 46.734375 
Q 21.96875 47.46875 24.109375 47.828125 
Q 26.265625 48.1875 28.421875 48.1875 
Q 40.625 48.1875 47.75 41.5 
Q 54.890625 34.8125 54.890625 23.390625 
Q 54.890625 11.625 47.5625 5.09375 
Q 40.234375 -1.421875 26.90625 -1.421875 
Q 22.3125 -1.421875 17.546875 -0.640625 
Q 12.796875 0.140625 7.71875 1.703125 
L 7.71875 11.625 
Q 12.109375 9.234375 16.796875 8.0625 
Q 21.484375 6.890625 26.703125 6.890625 
Q 35.15625 6.890625 40.078125 11.328125 
Q 45.015625 15.765625 45.015625 23.390625 
Q 45.015625 31 40.078125 35.4375 
Q 35.15625 39.890625 26.703125 39.890625 
Q 22.75 39.890625 18.8125 39.015625 
Q 14.890625 38.140625 10.796875 36.28125 
z
" id="DejaVuSans-53"/>
       </defs>
       <use xlink:href="#DejaVuSans-48"/>
       <use x="63.623047" xlink:href="#DejaVuSans-46"/>
       <use x="95.410156" xlink:href="#DejaVuSans-53"/>
      </g>
     </g>
    </g>
   </g>
   <g id="matplotlib.axis_2">
    <g id="ytick_1">
     <g id="line2d_13">
      <path clip-path="url(#p27a3b2af85)" d="M 42.828125 214.80827 
L 377.628125 214.80827 
" style="fill:none;stroke:#b0b0b0;stroke-linecap:square;stroke-width:0.8;"/>
     </g>
     <g id="line2d_14">
      <defs>
       <path d="M 0 0 
L -3.5 0 
" id="mb79d042ee9" style="stroke:#000000;stroke-width:0.8;"/>
      </defs>
      <g>
       <use style="stroke:#000000;stroke-width:0.8;" x="42.828125" xlink:href="#mb79d042ee9" y="214.80827"/>
      </g>
     </g>
     <g id="text_7">
      <!-- 0.000 -->
      <g transform="translate(7.2 218.607488)scale(0.1 -0.1)">
       <use xlink:href="#DejaVuSans-48"/>
       <use x="63.623047" xlink:href="#DejaVuSans-46"/>
       <use x="95.410156" xlink:href="#DejaVuSans-48"/>
       <use x="159.033203" xlink:href="#DejaVuSans-48"/>
       <use x="222.65625" xlink:href="#DejaVuSans-48"/>
      </g>
     </g>
    </g>
    <g id="ytick_2">
     <g id="line2d_15">
      <path clip-path="url(#p27a3b2af85)" d="M 42.828125 182.133572 
L 377.628125 182.133572 
" style="fill:none;stroke:#b0b0b0;stroke-linecap:square;stroke-width:0.8;"/>
     </g>
     <g id="line2d_16">
      <g>
       <use style="stroke:#000000;stroke-width:0.8;" x="42.828125" xlink:href="#mb79d042ee9" y="182.133572"/>
      </g>
     </g>
     <g id="text_8">
      <!-- 0.005 -->
      <g transform="translate(7.2 185.932791)scale(0.1 -0.1)">
       <use xlink:href="#DejaVuSans-48"/>
       <use x="63.623047" xlink:href="#DejaVuSans-46"/>
       <use x="95.410156" xlink:href="#DejaVuSans-48"/>
       <use x="159.033203" xlink:href="#DejaVuSans-48"/>
       <use x="222.65625" xlink:href="#DejaVuSans-53"/>
      </g>
     </g>
    </g>
    <g id="ytick_3">
     <g id="line2d_17">
      <path clip-path="url(#p27a3b2af85)" d="M 42.828125 149.458875 
L 377.628125 149.458875 
" style="fill:none;stroke:#b0b0b0;stroke-linecap:square;stroke-width:0.8;"/>
     </g>
     <g id="line2d_18">
      <g>
       <use style="stroke:#000000;stroke-width:0.8;" x="42.828125" xlink:href="#mb79d042ee9" y="149.458875"/>
      </g>
     </g>
     <g id="text_9">
      <!-- 0.010 -->
      <g transform="translate(7.2 153.258094)scale(0.1 -0.1)">
       <use xlink:href="#DejaVuSans-48"/>
       <use x="63.623047" xlink:href="#DejaVuSans-46"/>
       <use x="95.410156" xlink:href="#DejaVuSans-48"/>
       <use x="159.033203" xlink:href="#DejaVuSans-49"/>
       <use x="222.65625" xlink:href="#DejaVuSans-48"/>
      </g>
     </g>
    </g>
    <g id="ytick_4">
     <g id="line2d_19">
      <path clip-path="url(#p27a3b2af85)" d="M 42.828125 116.784178 
L 377.628125 116.784178 
" style="fill:none;stroke:#b0b0b0;stroke-linecap:square;stroke-width:0.8;"/>
     </g>
     <g id="line2d_20">
      <g>
       <use style="stroke:#000000;stroke-width:0.8;" x="42.828125" xlink:href="#mb79d042ee9" y="116.784178"/>
      </g>
     </g>
     <g id="text_10">
      <!-- 0.015 -->
      <g transform="translate(7.2 120.583397)scale(0.1 -0.1)">
       <use xlink:href="#DejaVuSans-48"/>
       <use x="63.623047" xlink:href="#DejaVuSans-46"/>
       <use x="95.410156" xlink:href="#DejaVuSans-48"/>
       <use x="159.033203" xlink:href="#DejaVuSans-49"/>
       <use x="222.65625" xlink:href="#DejaVuSans-53"/>
      </g>
     </g>
    </g>
    <g id="ytick_5">
     <g id="line2d_21">
      <path clip-path="url(#p27a3b2af85)" d="M 42.828125 84.109481 
L 377.628125 84.109481 
" style="fill:none;stroke:#b0b0b0;stroke-linecap:square;stroke-width:0.8;"/>
     </g>
     <g id="line2d_22">
      <g>
       <use style="stroke:#000000;stroke-width:0.8;" x="42.828125" xlink:href="#mb79d042ee9" y="84.109481"/>
      </g>
     </g>
     <g id="text_11">
      <!-- 0.020 -->
      <g transform="translate(7.2 87.9087)scale(0.1 -0.1)">
       <use xlink:href="#DejaVuSans-48"/>
       <use x="63.623047" xlink:href="#DejaVuSans-46"/>
       <use x="95.410156" xlink:href="#DejaVuSans-48"/>
       <use x="159.033203" xlink:href="#DejaVuSans-50"/>
       <use x="222.65625" xlink:href="#DejaVuSans-48"/>
      </g>
     </g>
    </g>
    <g id="ytick_6">
     <g id="line2d_23">
      <path clip-path="url(#p27a3b2af85)" d="M 42.828125 51.434784 
L 377.628125 51.434784 
" style="fill:none;stroke:#b0b0b0;stroke-linecap:square;stroke-width:0.8;"/>
     </g>
     <g id="line2d_24">
      <g>
       <use style="stroke:#000000;stroke-width:0.8;" x="42.828125" xlink:href="#mb79d042ee9" y="51.434784"/>
      </g>
     </g>
     <g id="text_12">
      <!-- 0.025 -->
      <g transform="translate(7.2 55.234002)scale(0.1 -0.1)">
       <use xlink:href="#DejaVuSans-48"/>
       <use x="63.623047" xlink:href="#DejaVuSans-46"/>
       <use x="95.410156" xlink:href="#DejaVuSans-48"/>
       <use x="159.033203" xlink:href="#DejaVuSans-50"/>
       <use x="222.65625" xlink:href="#DejaVuSans-53"/>
      </g>
     </g>
    </g>
    <g id="ytick_7">
     <g id="line2d_25">
      <path clip-path="url(#p27a3b2af85)" d="M 42.828125 18.760086 
L 377.628125 18.760086 
" style="fill:none;stroke:#b0b0b0;stroke-linecap:square;stroke-width:0.8;"/>
     </g>
     <g id="line2d_26">
      <g>
       <use style="stroke:#000000;stroke-width:0.8;" x="42.828125" xlink:href="#mb79d042ee9" y="18.760086"/>
      </g>
     </g>
     <g id="text_13">
      <!-- 0.030 -->
      <g transform="translate(7.2 22.559305)scale(0.1 -0.1)">
       <use xlink:href="#DejaVuSans-48"/>
       <use x="63.623047" xlink:href="#DejaVuSans-46"/>
       <use x="95.410156" xlink:href="#DejaVuSans-48"/>
       <use x="159.033203" xlink:href="#DejaVuSans-51"/>
       <use x="222.65625" xlink:href="#DejaVuSans-48"/>
      </g>
     </g>
    </g>
   </g>
   <g id="line2d_27">
    <defs>
     <path d="M 0 1.5 
C 0.397805 1.5 0.77937 1.341951 1.06066 1.06066 
C 1.341951 0.77937 1.5 0.397805 1.5 0 
C 1.5 -0.397805 1.341951 -0.77937 1.06066 -1.06066 
C 0.77937 -1.341951 0.397805 -1.5 0 -1.5 
C -0.397805 -1.5 -0.77937 -1.341951 -1.06066 -1.06066 
C -1.341951 -0.77937 -1.5 -0.397805 -1.5 0 
C -1.5 0.397805 -1.341951 0.77937 -1.06066 1.06066 
C -0.77937 1.341951 -0.397805 1.5 0 1.5 
z
" id="mf87ab8a231" style="stroke:#ff0000;"/>
    </defs>
    <g clip-path="url(#p27a3b2af85)">
     <use style="fill:#ff0000;stroke:#ff0000;" x="58.046307" xlink:href="#mf87ab8a231" y="20.057694"/>
     <use style="fill:#ff0000;stroke:#ff0000;" x="64.387216" xlink:href="#mf87ab8a231" y="19.86714"/>
     <use style="fill:#ff0000;stroke:#ff0000;" x="70.728125" xlink:href="#mf87ab8a231" y="19.668744"/>
     <use style="fill:#ff0000;stroke:#ff0000;" x="77.069034" xlink:href="#mf87ab8a231" y="19.487663"/>
     <use style="fill:#ff0000;stroke:#ff0000;" x="83.409943" xlink:href="#mf87ab8a231" y="19.294555"/>
     <use style="fill:#ff0000;stroke:#ff0000;" x="89.750852" xlink:href="#mf87ab8a231" y="19.105268"/>
     <use style="fill:#ff0000;stroke:#ff0000;" x="96.091761" xlink:href="#mf87ab8a231" y="18.920755"/>
     <use style="fill:#ff0000;stroke:#ff0000;" x="102.43267" xlink:href="#mf87ab8a231" y="18.719728"/>
     <use style="fill:#ff0000;stroke:#ff0000;" x="108.77358" xlink:href="#mf87ab8a231" y="18.546794"/>
     <use style="fill:#ff0000;stroke:#ff0000;" x="115.114489" xlink:href="#mf87ab8a231" y="18.362722"/>
     <use style="fill:#ff0000;stroke:#ff0000;" x="121.455398" xlink:href="#mf87ab8a231" y="18.20427"/>
     <use style="fill:#ff0000;stroke:#ff0000;" x="127.796307" xlink:href="#mf87ab8a231" y="18.068789"/>
     <use style="fill:#ff0000;stroke:#ff0000;" x="134.137216" xlink:href="#mf87ab8a231" y="17.927433"/>
     <use style="fill:#ff0000;stroke:#ff0000;" x="140.478125" xlink:href="#mf87ab8a231" y="17.832408"/>
     <use style="fill:#ff0000;stroke:#ff0000;" x="146.819034" xlink:href="#mf87ab8a231" y="17.710523"/>
     <use style="fill:#ff0000;stroke:#ff0000;" x="153.159943" xlink:href="#mf87ab8a231" y="17.609953"/>
     <use style="fill:#ff0000;stroke:#ff0000;" x="159.500852" xlink:href="#mf87ab8a231" y="17.509485"/>
     <use style="fill:#ff0000;stroke:#ff0000;" x="165.841761" xlink:href="#mf87ab8a231" y="17.378721"/>
     <use style="fill:#ff0000;stroke:#ff0000;" x="172.18267" xlink:href="#mf87ab8a231" y="17.301248"/>
     <use style="fill:#ff0000;stroke:#ff0000;" x="178.52358" xlink:href="#mf87ab8a231" y="17.186986"/>
     <use style="fill:#ff0000;stroke:#ff0000;" x="184.864489" xlink:href="#mf87ab8a231" y="17.133751"/>
     <use style="fill:#ff0000;stroke:#ff0000;" x="191.205398" xlink:href="#mf87ab8a231" y="17.111722"/>
     <use style="fill:#ff0000;stroke:#ff0000;" x="197.546307" xlink:href="#mf87ab8a231" y="17.083636"/>
     <use style="fill:#ff0000;stroke:#ff0000;" x="203.887216" xlink:href="#mf87ab8a231" y="17.148333"/>
     <use style="fill:#ff0000;stroke:#ff0000;" x="210.228125" xlink:href="#mf87ab8a231" y="17.145876"/>
     <use style="fill:#ff0000;stroke:#ff0000;" x="216.569034" xlink:href="#mf87ab8a231" y="17.188236"/>
     <use style="fill:#ff0000;stroke:#ff0000;" x="222.909943" xlink:href="#mf87ab8a231" y="17.211356"/>
     <use style="fill:#ff0000;stroke:#ff0000;" x="229.250852" xlink:href="#mf87ab8a231" y="17.165747"/>
     <use style="fill:#ff0000;stroke:#ff0000;" x="235.591761" xlink:href="#mf87ab8a231" y="17.213921"/>
     <use style="fill:#ff0000;stroke:#ff0000;" x="241.93267" xlink:href="#mf87ab8a231" y="17.184469"/>
     <use style="fill:#ff0000;stroke:#ff0000;" x="248.27358" xlink:href="#mf87ab8a231" y="17.256879"/>
     <use style="fill:#ff0000;stroke:#ff0000;" x="254.614489" xlink:href="#mf87ab8a231" y="17.382669"/>
     <use style="fill:#ff0000;stroke:#ff0000;" x="260.955398" xlink:href="#mf87ab8a231" y="17.478231"/>
     <use style="fill:#ff0000;stroke:#ff0000;" x="267.296307" xlink:href="#mf87ab8a231" y="17.713747"/>
     <use style="fill:#ff0000;stroke:#ff0000;" x="273.637216" xlink:href="#mf87ab8a231" y="17.830938"/>
     <use style="fill:#ff0000;stroke:#ff0000;" x="279.978125" xlink:href="#mf87ab8a231" y="17.976671"/>
     <use style="fill:#ff0000;stroke:#ff0000;" x="286.319034" xlink:href="#mf87ab8a231" y="18.113432"/>
     <use style="fill:#ff0000;stroke:#ff0000;" x="292.659943" xlink:href="#mf87ab8a231" y="18.12497"/>
     <use style="fill:#ff0000;stroke:#ff0000;" x="299.000852" xlink:href="#mf87ab8a231" y="18.278929"/>
     <use style="fill:#ff0000;stroke:#ff0000;" x="305.341761" xlink:href="#mf87ab8a231" y="18.385997"/>
     <use style="fill:#ff0000;stroke:#ff0000;" x="311.68267" xlink:href="#mf87ab8a231" y="18.554741"/>
     <use style="fill:#ff0000;stroke:#ff0000;" x="318.02358" xlink:href="#mf87ab8a231" y="18.836275"/>
     <use style="fill:#ff0000;stroke:#ff0000;" x="324.364489" xlink:href="#mf87ab8a231" y="19.017182"/>
     <use style="fill:#ff0000;stroke:#ff0000;" x="330.705398" xlink:href="#mf87ab8a231" y="19.248165"/>
     <use style="fill:#ff0000;stroke:#ff0000;" x="337.046307" xlink:href="#mf87ab8a231" y="19.392881"/>
     <use style="fill:#ff0000;stroke:#ff0000;" x="343.387216" xlink:href="#mf87ab8a231" y="19.559698"/>
     <use style="fill:#ff0000;stroke:#ff0000;" x="349.728125" xlink:href="#mf87ab8a231" y="19.770084"/>
     <use style="fill:#ff0000;stroke:#ff0000;" x="356.069034" xlink:href="#mf87ab8a231" y="19.967904"/>
     <use style="fill:#ff0000;stroke:#ff0000;" x="362.409943" xlink:href="#mf87ab8a231" y="20.166752"/>
    </g>
   </g>
   <g id="line2d_28">
    <defs>
     <path d="M 0 1.5 
C 0.397805 1.5 0.77937 1.341951 1.06066 1.06066 
C 1.341951 0.77937 1.5 0.397805 1.5 0 
C 1.5 -0.397805 1.341951 -0.77937 1.06066 -1.06066 
C 0.77937 -1.341951 0.397805 -1.5 0 -1.5 
C -0.397805 -1.5 -0.77937 -1.341951 -1.06066 -1.06066 
C -1.341951 -0.77937 -1.5 -0.397805 -1.5 0 
C -1.5 0.397805 -1.341951 0.77937 -1.06066 1.06066 
C -0.77937 1.341951 -0.397805 1.5 0 1.5 
z
" id="m081abf1a77" style="stroke:#0000ff;"/>
    </defs>
    <g clip-path="url(#p27a3b2af85)">
     <use style="fill:#0000ff;stroke:#0000ff;" x="58.046307" xlink:href="#m081abf1a77" y="20.258284"/>
     <use style="fill:#0000ff;stroke:#0000ff;" x="64.387216" xlink:href="#m081abf1a77" y="20.668646"/>
     <use style="fill:#0000ff;stroke:#0000ff;" x="70.728125" xlink:href="#m081abf1a77" y="21.468998"/>
     <use style="fill:#0000ff;stroke:#0000ff;" x="77.069034" xlink:href="#m081abf1a77" y="22.680284"/>
     <use style="fill:#0000ff;stroke:#0000ff;" x="83.409943" xlink:href="#m081abf1a77" y="24.267411"/>
     <use style="fill:#0000ff;stroke:#0000ff;" x="89.750852" xlink:href="#m081abf1a77" y="26.238834"/>
     <use style="fill:#0000ff;stroke:#0000ff;" x="96.091761" xlink:href="#m081abf1a77" y="28.586538"/>
     <use style="fill:#0000ff;stroke:#0000ff;" x="102.43267" xlink:href="#m081abf1a77" y="31.278907"/>
     <use style="fill:#0000ff;stroke:#0000ff;" x="108.77358" xlink:href="#m081abf1a77" y="34.348404"/>
     <use style="fill:#0000ff;stroke:#0000ff;" x="115.114489" xlink:href="#m081abf1a77" y="37.742542"/>
     <use style="fill:#0000ff;stroke:#0000ff;" x="121.455398" xlink:href="#m081abf1a77" y="41.48309"/>
     <use style="fill:#0000ff;stroke:#0000ff;" x="127.796307" xlink:href="#m081abf1a77" y="45.551052"/>
     <use style="fill:#0000ff;stroke:#0000ff;" x="134.137216" xlink:href="#m081abf1a77" y="49.900331"/>
     <use style="fill:#0000ff;stroke:#0000ff;" x="140.478125" xlink:href="#m081abf1a77" y="54.563983"/>
     <use style="fill:#0000ff;stroke:#0000ff;" x="146.819034" xlink:href="#m081abf1a77" y="59.449608"/>
     <use style="fill:#0000ff;stroke:#0000ff;" x="153.159943" xlink:href="#m081abf1a77" y="64.584482"/>
     <use style="fill:#0000ff;stroke:#0000ff;" x="159.500852" xlink:href="#m081abf1a77" y="69.925922"/>
     <use style="fill:#0000ff;stroke:#0000ff;" x="165.841761" xlink:href="#m081abf1a77" y="75.421898"/>
     <use style="fill:#0000ff;stroke:#0000ff;" x="172.18267" xlink:href="#m081abf1a77" y="81.132013"/>
     <use style="fill:#0000ff;stroke:#0000ff;" x="178.52358" xlink:href="#m081abf1a77" y="86.943438"/>
     <use style="fill:#0000ff;stroke:#0000ff;" x="184.864489" xlink:href="#m081abf1a77" y="92.928537"/>
     <use style="fill:#0000ff;stroke:#0000ff;" x="191.205398" xlink:href="#m081abf1a77" y="99.03212"/>
     <use style="fill:#0000ff;stroke:#0000ff;" x="197.546307" xlink:href="#m081abf1a77" y="105.192164"/>
     <use style="fill:#0000ff;stroke:#0000ff;" x="203.887216" xlink:href="#m081abf1a77" y="111.479676"/>
     <use style="fill:#0000ff;stroke:#0000ff;" x="210.228125" xlink:href="#m081abf1a77" y="117.711358"/>
     <use style="fill:#0000ff;stroke:#0000ff;" x="216.569034" xlink:href="#m081abf1a77" y="123.9725"/>
     <use style="fill:#0000ff;stroke:#0000ff;" x="222.909943" xlink:href="#m081abf1a77" y="130.17453"/>
     <use style="fill:#0000ff;stroke:#0000ff;" x="229.250852" xlink:href="#m081abf1a77" y="136.245708"/>
     <use style="fill:#0000ff;stroke:#0000ff;" x="235.591761" xlink:href="#m081abf1a77" y="142.320548"/>
     <use style="fill:#0000ff;stroke:#0000ff;" x="241.93267" xlink:href="#m081abf1a77" y="148.206828"/>
     <use style="fill:#0000ff;stroke:#0000ff;" x="248.27358" xlink:href="#m081abf1a77" y="154.056137"/>
     <use style="fill:#0000ff;stroke:#0000ff;" x="254.614489" xlink:href="#m081abf1a77" y="159.794326"/>
     <use style="fill:#0000ff;stroke:#0000ff;" x="260.955398" xlink:href="#m081abf1a77" y="165.316806"/>
     <use style="fill:#0000ff;stroke:#0000ff;" x="267.296307" xlink:href="#m081abf1a77" y="170.764336"/>
     <use style="fill:#0000ff;stroke:#0000ff;" x="273.637216" xlink:href="#m081abf1a77" y="175.864363"/>
     <use style="fill:#0000ff;stroke:#0000ff;" x="279.978125" xlink:href="#m081abf1a77" y="180.74222"/>
     <use style="fill:#0000ff;stroke:#0000ff;" x="286.319034" xlink:href="#m081abf1a77" y="185.342272"/>
     <use style="fill:#0000ff;stroke:#0000ff;" x="292.659943" xlink:href="#m081abf1a77" y="189.540417"/>
     <use style="fill:#0000ff;stroke:#0000ff;" x="299.000852" xlink:href="#m081abf1a77" y="193.577175"/>
     <use style="fill:#0000ff;stroke:#0000ff;" x="305.341761" xlink:href="#m081abf1a77" y="197.252494"/>
     <use style="fill:#0000ff;stroke:#0000ff;" x="311.68267" xlink:href="#m081abf1a77" y="200.655461"/>
     <use style="fill:#0000ff;stroke:#0000ff;" x="318.02358" xlink:href="#m081abf1a77" y="203.811718"/>
     <use style="fill:#0000ff;stroke:#0000ff;" x="324.364489" xlink:href="#m081abf1a77" y="206.508275"/>
     <use style="fill:#0000ff;stroke:#0000ff;" x="330.705398" xlink:href="#m081abf1a77" y="208.8787"/>
     <use style="fill:#0000ff;stroke:#0000ff;" x="337.046307" xlink:href="#m081abf1a77" y="210.792995"/>
     <use style="fill:#0000ff;stroke:#0000ff;" x="343.387216" xlink:href="#m081abf1a77" y="212.350084"/>
     <use style="fill:#0000ff;stroke:#0000ff;" x="349.728125" xlink:href="#m081abf1a77" y="213.555871"/>
     <use style="fill:#0000ff;stroke:#0000ff;" x="356.069034" xlink:href="#m081abf1a77" y="214.354248"/>
     <use style="fill:#0000ff;stroke:#0000ff;" x="362.409943" xlink:href="#m081abf1a77" y="214.756364"/>
    </g>
   </g>
   <g id="line2d_29">
    <defs>
     <path d="M 0 1.5 
C 0.397805 1.5 0.77937 1.341951 1.06066 1.06066 
C 1.341951 0.77937 1.5 0.397805 1.5 0 
C 1.5 -0.397805 1.341951 -0.77937 1.06066 -1.06066 
C 0.77937 -1.341951 0.397805 -1.5 0 -1.5 
C -0.397805 -1.5 -0.77937 -1.341951 -1.06066 -1.06066 
C -1.341951 -0.77937 -1.5 -0.397805 -1.5 0 
C -1.5 0.397805 -1.341951 0.77937 -1.06066 1.06066 
C -0.77937 1.341951 -0.397805 1.5 0 1.5 
z
" id="m0c6ada37fe" style="stroke:#008000;"/>
    </defs>
    <g clip-path="url(#p27a3b2af85)">
     <use style="fill:#008000;stroke:#008000;" x="58.046307" xlink:href="#m0c6ada37fe" y="214.60768"/>
     <use style="fill:#008000;stroke:#008000;" x="64.387216" xlink:href="#m0c6ada37fe" y="214.006763"/>
     <use style="fill:#008000;stroke:#008000;" x="70.728125" xlink:href="#m0c6ada37fe" y="213.008016"/>
     <use style="fill:#008000;stroke:#008000;" x="77.069034" xlink:href="#m0c6ada37fe" y="211.615649"/>
     <use style="fill:#008000;stroke:#008000;" x="83.409943" xlink:href="#m0c6ada37fe" y="209.835414"/>
     <use style="fill:#008000;stroke:#008000;" x="89.750852" xlink:href="#m0c6ada37fe" y="207.674703"/>
     <use style="fill:#008000;stroke:#008000;" x="96.091761" xlink:href="#m0c6ada37fe" y="205.142486"/>
     <use style="fill:#008000;stroke:#008000;" x="102.43267" xlink:href="#m0c6ada37fe" y="202.249091"/>
     <use style="fill:#008000;stroke:#008000;" x="108.77358" xlink:href="#m0c6ada37fe" y="199.006659"/>
     <use style="fill:#008000;stroke:#008000;" x="115.114489" xlink:href="#m0c6ada37fe" y="195.42845"/>
     <use style="fill:#008000;stroke:#008000;" x="121.455398" xlink:href="#m0c6ada37fe" y="191.52945"/>
     <use style="fill:#008000;stroke:#008000;" x="127.796307" xlink:href="#m0c6ada37fe" y="187.326006"/>
     <use style="fill:#008000;stroke:#008000;" x="134.137216" xlink:href="#m0c6ada37fe" y="182.835371"/>
     <use style="fill:#008000;stroke:#008000;" x="140.478125" xlink:href="#m0c6ada37fe" y="178.076695"/>
     <use style="fill:#008000;stroke:#008000;" x="146.819034" xlink:href="#m0c6ada37fe" y="173.069185"/>
     <use style="fill:#008000;stroke:#008000;" x="153.159943" xlink:href="#m0c6ada37fe" y="167.833741"/>
     <use style="fill:#008000;stroke:#008000;" x="159.500852" xlink:href="#m0c6ada37fe" y="162.391832"/>
     <use style="fill:#008000;stroke:#008000;" x="165.841761" xlink:href="#m0c6ada37fe" y="156.765092"/>
     <use style="fill:#008000;stroke:#008000;" x="172.18267" xlink:href="#m0c6ada37fe" y="150.977505"/>
     <use style="fill:#008000;stroke:#008000;" x="178.52358" xlink:href="#m0c6ada37fe" y="145.051817"/>
     <use style="fill:#008000;stroke:#008000;" x="184.864489" xlink:href="#m0c6ada37fe" y="139.013484"/>
     <use style="fill:#008000;stroke:#008000;" x="191.205398" xlink:href="#m0c6ada37fe" y="132.887872"/>
     <use style="fill:#008000;stroke:#008000;" x="197.546307" xlink:href="#m0c6ada37fe" y="126.699742"/>
     <use style="fill:#008000;stroke:#008000;" x="203.887216" xlink:href="#m0c6ada37fe" y="120.476927"/>
     <use style="fill:#008000;stroke:#008000;" x="210.228125" xlink:href="#m0c6ada37fe" y="114.242788"/>
     <use style="fill:#008000;stroke:#008000;" x="216.569034" xlink:href="#m0c6ada37fe" y="108.024006"/>
     <use style="fill:#008000;stroke:#008000;" x="222.909943" xlink:href="#m0c6ada37fe" y="101.845095"/>
     <use style="fill:#008000;stroke:#008000;" x="229.250852" xlink:href="#m0c6ada37fe" y="95.728309"/>
     <use style="fill:#008000;stroke:#008000;" x="235.591761" xlink:href="#m0c6ada37fe" y="89.701642"/>
     <use style="fill:#008000;stroke:#008000;" x="241.93267" xlink:href="#m0c6ada37fe" y="83.785911"/>
     <use style="fill:#008000;stroke:#008000;" x="248.27358" xlink:href="#m0c6ada37fe" y="78.009012"/>
     <use style="fill:#008000;stroke:#008000;" x="254.614489" xlink:href="#m0c6ada37fe" y="72.396613"/>
     <use style="fill:#008000;stroke:#008000;" x="260.955398" xlink:href="#m0c6ada37fe" y="66.969695"/>
     <use style="fill:#008000;stroke:#008000;" x="267.296307" xlink:href="#m0c6ada37fe" y="61.757681"/>
     <use style="fill:#008000;stroke:#008000;" x="273.637216" xlink:href="#m0c6ada37fe" y="56.774845"/>
     <use style="fill:#008000;stroke:#008000;" x="279.978125" xlink:href="#m0c6ada37fe" y="52.042721"/>
     <use style="fill:#008000;stroke:#008000;" x="286.319034" xlink:href="#m0c6ada37fe" y="47.579429"/>
     <use style="fill:#008000;stroke:#008000;" x="292.659943" xlink:href="#m0c6ada37fe" y="43.392822"/>
     <use style="fill:#008000;stroke:#008000;" x="299.000852" xlink:href="#m0c6ada37fe" y="39.510024"/>
     <use style="fill:#008000;stroke:#008000;" x="305.341761" xlink:href="#m0c6ada37fe" y="35.941773"/>
     <use style="fill:#008000;stroke:#008000;" x="311.68267" xlink:href="#m0c6ada37fe" y="32.70755"/>
     <use style="fill:#008000;stroke:#008000;" x="318.02358" xlink:href="#m0c6ada37fe" y="29.832827"/>
     <use style="fill:#008000;stroke:#008000;" x="324.364489" xlink:href="#m0c6ada37fe" y="27.317177"/>
     <use style="fill:#008000;stroke:#008000;" x="330.705398" xlink:href="#m0c6ada37fe" y="25.177734"/>
     <use style="fill:#008000;stroke:#008000;" x="337.046307" xlink:href="#m0c6ada37fe" y="23.408156"/>
     <use style="fill:#008000;stroke:#008000;" x="343.387216" xlink:href="#m0c6ada37fe" y="22.017883"/>
     <use style="fill:#008000;stroke:#008000;" x="349.728125" xlink:href="#m0c6ada37fe" y="21.022482"/>
     <use style="fill:#008000;stroke:#008000;" x="356.069034" xlink:href="#m0c6ada37fe" y="20.421926"/>
     <use style="fill:#008000;stroke:#008000;" x="362.409943" xlink:href="#m0c6ada37fe" y="20.218658"/>
    </g>
   </g>
   <g id="patch_3">
    <path d="M 42.828125 224.64 
L 42.828125 7.2 
" style="fill:none;stroke:#000000;stroke-linecap:square;stroke-linejoin:miter;stroke-width:0.8;"/>
   </g>
   <g id="patch_4">
    <path d="M 377.628125 224.64 
L 377.628125 7.2 
" style="fill:none;stroke:#000000;stroke-linecap:square;stroke-linejoin:miter;stroke-width:0.8;"/>
   </g>
   <g id="patch_5">
    <path d="M 42.828125 224.64 
L 377.628125 224.64 
" style="fill:none;stroke:#000000;stroke-linecap:square;stroke-linejoin:miter;stroke-width:0.8;"/>
   </g>
   <g id="patch_6">
    <path d="M 42.828125 7.2 
L 377.628125 7.2 
" style="fill:none;stroke:#000000;stroke-linecap:square;stroke-linejoin:miter;stroke-width:0.8;"/>
   </g>
  </g>
 </g>
 <defs>
  <clipPath id="p27a3b2af85">
   <rect height="217.44" width="334.8" x="42.828125" y="7.2"/>
  </clipPath>
 </defs>
</svg>
