<?xml version="1.0" encoding="utf-8" standalone="no"?>
<!DOCTYPE svg PUBLIC "-//W3C//DTD SVG 1.1//EN"
  "http://www.w3.org/Graphics/SVG/1.1/DTD/svg11.dtd">
<!-- Created with matplotlib (https://matplotlib.org/) -->
<svg height="263.63625pt" version="1.1" viewBox="0 0 399.570313 263.63625" width="399.570313pt" xmlns="http://www.w3.org/2000/svg" xmlns:xlink="http://www.w3.org/1999/xlink">
 <metadata>
  <rdf:RDF xmlns:cc="http://creativecommons.org/ns#" xmlns:dc="http://purl.org/dc/elements/1.1/" xmlns:rdf="http://www.w3.org/1999/02/22-rdf-syntax-ns#">
   <cc:Work>
    <dc:type rdf:resource="http://purl.org/dc/dcmitype/StillImage"/>
    <dc:date>2021-10-05T17:12:42.384331</dc:date>
    <dc:format>image/svg+xml</dc:format>
    <dc:creator>
     <cc:Agent>
      <dc:title>Matplotlib v3.3.4, https://matplotlib.org/</dc:title>
     </cc:Agent>
    </dc:creator>
   </cc:Work>
  </rdf:RDF>
 </metadata>
 <defs>
  <style type="text/css">*{stroke-linecap:butt;stroke-linejoin:round;}</style>
 </defs>
 <g id="figure_1">
  <g id="patch_1">
   <path d="M 0 263.63625 
L 399.570313 263.63625 
L 399.570313 0 
L 0 0 
z
" style="fill:none;"/>
  </g>
  <g id="axes_1">
   <g id="patch_2">
    <path d="M 57.570313 239.758125 
L 392.370313 239.758125 
L 392.370313 22.318125 
L 57.570313 22.318125 
z
" style="fill:#ffffff;"/>
   </g>
   <g id="matplotlib.axis_1">
    <g id="xtick_1">
     <g id="line2d_1">
      <path clip-path="url(#p524f7853b2)" d="M 72.788494 239.758125 
L 72.788494 22.318125 
" style="fill:none;stroke:#b0b0b0;stroke-linecap:square;stroke-width:0.8;"/>
     </g>
     <g id="line2d_2">
      <defs>
       <path d="M 0 0 
L 0 3.5 
" id="mf44e25171f" style="stroke:#000000;stroke-width:0.8;"/>
      </defs>
      <g>
       <use style="stroke:#000000;stroke-width:0.8;" x="72.788494" xlink:href="#mf44e25171f" y="239.758125"/>
      </g>
     </g>
     <g id="text_1">
      <!-- 0.0 -->
      <g transform="translate(64.836932 254.356563)scale(0.1 -0.1)">
       <defs>
        <path d="M 31.78125 66.40625 
Q 24.171875 66.40625 20.328125 58.90625 
Q 16.5 51.421875 16.5 36.375 
Q 16.5 21.390625 20.328125 13.890625 
Q 24.171875 6.390625 31.78125 6.390625 
Q 39.453125 6.390625 43.28125 13.890625 
Q 47.125 21.390625 47.125 36.375 
Q 47.125 51.421875 43.28125 58.90625 
Q 39.453125 66.40625 31.78125 66.40625 
z
M 31.78125 74.21875 
Q 44.046875 74.21875 50.515625 64.515625 
Q 56.984375 54.828125 56.984375 36.375 
Q 56.984375 17.96875 50.515625 8.265625 
Q 44.046875 -1.421875 31.78125 -1.421875 
Q 19.53125 -1.421875 13.0625 8.265625 
Q 6.59375 17.96875 6.59375 36.375 
Q 6.59375 54.828125 13.0625 64.515625 
Q 19.53125 74.21875 31.78125 74.21875 
z
" id="DejaVuSans-48"/>
        <path d="M 10.6875 12.40625 
L 21 12.40625 
L 21 0 
L 10.6875 0 
z
" id="DejaVuSans-46"/>
       </defs>
       <use xlink:href="#DejaVuSans-48"/>
       <use x="63.623047" xlink:href="#DejaVuSans-46"/>
       <use x="95.410156" xlink:href="#DejaVuSans-48"/>
      </g>
     </g>
    </g>
    <g id="xtick_2">
     <g id="line2d_3">
      <path clip-path="url(#p524f7853b2)" d="M 110.833949 239.758125 
L 110.833949 22.318125 
" style="fill:none;stroke:#b0b0b0;stroke-linecap:square;stroke-width:0.8;"/>
     </g>
     <g id="line2d_4">
      <g>
       <use style="stroke:#000000;stroke-width:0.8;" x="110.833949" xlink:href="#mf44e25171f" y="239.758125"/>
      </g>
     </g>
     <g id="text_2">
      <!-- 2.5 -->
      <g transform="translate(102.882386 254.356563)scale(0.1 -0.1)">
       <defs>
        <path d="M 19.1875 8.296875 
L 53.609375 8.296875 
L 53.609375 0 
L 7.328125 0 
L 7.328125 8.296875 
Q 12.9375 14.109375 22.625 23.890625 
Q 32.328125 33.6875 34.8125 36.53125 
Q 39.546875 41.84375 41.421875 45.53125 
Q 43.3125 49.21875 43.3125 52.78125 
Q 43.3125 58.59375 39.234375 62.25 
Q 35.15625 65.921875 28.609375 65.921875 
Q 23.96875 65.921875 18.8125 64.3125 
Q 13.671875 62.703125 7.8125 59.421875 
L 7.8125 69.390625 
Q 13.765625 71.78125 18.9375 73 
Q 24.125 74.21875 28.421875 74.21875 
Q 39.75 74.21875 46.484375 68.546875 
Q 53.21875 62.890625 53.21875 53.421875 
Q 53.21875 48.921875 51.53125 44.890625 
Q 49.859375 40.875 45.40625 35.40625 
Q 44.1875 33.984375 37.640625 27.21875 
Q 31.109375 20.453125 19.1875 8.296875 
z
" id="DejaVuSans-50"/>
        <path d="M 10.796875 72.90625 
L 49.515625 72.90625 
L 49.515625 64.59375 
L 19.828125 64.59375 
L 19.828125 46.734375 
Q 21.96875 47.46875 24.109375 47.828125 
Q 26.265625 48.1875 28.421875 48.1875 
Q 40.625 48.1875 47.75 41.5 
Q 54.890625 34.8125 54.890625 23.390625 
Q 54.890625 11.625 47.5625 5.09375 
Q 40.234375 -1.421875 26.90625 -1.421875 
Q 22.3125 -1.421875 17.546875 -0.640625 
Q 12.796875 0.140625 7.71875 1.703125 
L 7.71875 11.625 
Q 12.109375 9.234375 16.796875 8.0625 
Q 21.484375 6.890625 26.703125 6.890625 
Q 35.15625 6.890625 40.078125 11.328125 
Q 45.015625 15.765625 45.015625 23.390625 
Q 45.015625 31 40.078125 35.4375 
Q 35.15625 39.890625 26.703125 39.890625 
Q 22.75 39.890625 18.8125 39.015625 
Q 14.890625 38.140625 10.796875 36.28125 
z
" id="DejaVuSans-53"/>
       </defs>
       <use xlink:href="#DejaVuSans-50"/>
       <use x="63.623047" xlink:href="#DejaVuSans-46"/>
       <use x="95.410156" xlink:href="#DejaVuSans-53"/>
      </g>
     </g>
    </g>
    <g id="xtick_3">
     <g id="line2d_5">
      <path clip-path="url(#p524f7853b2)" d="M 148.879403 239.758125 
L 148.879403 22.318125 
" style="fill:none;stroke:#b0b0b0;stroke-linecap:square;stroke-width:0.8;"/>
     </g>
     <g id="line2d_6">
      <g>
       <use style="stroke:#000000;stroke-width:0.8;" x="148.879403" xlink:href="#mf44e25171f" y="239.758125"/>
      </g>
     </g>
     <g id="text_3">
      <!-- 5.0 -->
      <g transform="translate(140.927841 254.356563)scale(0.1 -0.1)">
       <use xlink:href="#DejaVuSans-53"/>
       <use x="63.623047" xlink:href="#DejaVuSans-46"/>
       <use x="95.410156" xlink:href="#DejaVuSans-48"/>
      </g>
     </g>
    </g>
    <g id="xtick_4">
     <g id="line2d_7">
      <path clip-path="url(#p524f7853b2)" d="M 186.924858 239.758125 
L 186.924858 22.318125 
" style="fill:none;stroke:#b0b0b0;stroke-linecap:square;stroke-width:0.8;"/>
     </g>
     <g id="line2d_8">
      <g>
       <use style="stroke:#000000;stroke-width:0.8;" x="186.924858" xlink:href="#mf44e25171f" y="239.758125"/>
      </g>
     </g>
     <g id="text_4">
      <!-- 7.5 -->
      <g transform="translate(178.973295 254.356563)scale(0.1 -0.1)">
       <defs>
        <path d="M 8.203125 72.90625 
L 55.078125 72.90625 
L 55.078125 68.703125 
L 28.609375 0 
L 18.3125 0 
L 43.21875 64.59375 
L 8.203125 64.59375 
z
" id="DejaVuSans-55"/>
       </defs>
       <use xlink:href="#DejaVuSans-55"/>
       <use x="63.623047" xlink:href="#DejaVuSans-46"/>
       <use x="95.410156" xlink:href="#DejaVuSans-53"/>
      </g>
     </g>
    </g>
    <g id="xtick_5">
     <g id="line2d_9">
      <path clip-path="url(#p524f7853b2)" d="M 224.970313 239.758125 
L 224.970313 22.318125 
" style="fill:none;stroke:#b0b0b0;stroke-linecap:square;stroke-width:0.8;"/>
     </g>
     <g id="line2d_10">
      <g>
       <use style="stroke:#000000;stroke-width:0.8;" x="224.970313" xlink:href="#mf44e25171f" y="239.758125"/>
      </g>
     </g>
     <g id="text_5">
      <!-- 10.0 -->
      <g transform="translate(213.8375 254.356563)scale(0.1 -0.1)">
       <defs>
        <path d="M 12.40625 8.296875 
L 28.515625 8.296875 
L 28.515625 63.921875 
L 10.984375 60.40625 
L 10.984375 69.390625 
L 28.421875 72.90625 
L 38.28125 72.90625 
L 38.28125 8.296875 
L 54.390625 8.296875 
L 54.390625 0 
L 12.40625 0 
z
" id="DejaVuSans-49"/>
       </defs>
       <use xlink:href="#DejaVuSans-49"/>
       <use x="63.623047" xlink:href="#DejaVuSans-48"/>
       <use x="127.246094" xlink:href="#DejaVuSans-46"/>
       <use x="159.033203" xlink:href="#DejaVuSans-48"/>
      </g>
     </g>
    </g>
    <g id="xtick_6">
     <g id="line2d_11">
      <path clip-path="url(#p524f7853b2)" d="M 263.015767 239.758125 
L 263.015767 22.318125 
" style="fill:none;stroke:#b0b0b0;stroke-linecap:square;stroke-width:0.8;"/>
     </g>
     <g id="line2d_12">
      <g>
       <use style="stroke:#000000;stroke-width:0.8;" x="263.015767" xlink:href="#mf44e25171f" y="239.758125"/>
      </g>
     </g>
     <g id="text_6">
      <!-- 12.5 -->
      <g transform="translate(251.882955 254.356563)scale(0.1 -0.1)">
       <use xlink:href="#DejaVuSans-49"/>
       <use x="63.623047" xlink:href="#DejaVuSans-50"/>
       <use x="127.246094" xlink:href="#DejaVuSans-46"/>
       <use x="159.033203" xlink:href="#DejaVuSans-53"/>
      </g>
     </g>
    </g>
    <g id="xtick_7">
     <g id="line2d_13">
      <path clip-path="url(#p524f7853b2)" d="M 301.061222 239.758125 
L 301.061222 22.318125 
" style="fill:none;stroke:#b0b0b0;stroke-linecap:square;stroke-width:0.8;"/>
     </g>
     <g id="line2d_14">
      <g>
       <use style="stroke:#000000;stroke-width:0.8;" x="301.061222" xlink:href="#mf44e25171f" y="239.758125"/>
      </g>
     </g>
     <g id="text_7">
      <!-- 15.0 -->
      <g transform="translate(289.928409 254.356563)scale(0.1 -0.1)">
       <use xlink:href="#DejaVuSans-49"/>
       <use x="63.623047" xlink:href="#DejaVuSans-53"/>
       <use x="127.246094" xlink:href="#DejaVuSans-46"/>
       <use x="159.033203" xlink:href="#DejaVuSans-48"/>
      </g>
     </g>
    </g>
    <g id="xtick_8">
     <g id="line2d_15">
      <path clip-path="url(#p524f7853b2)" d="M 339.106676 239.758125 
L 339.106676 22.318125 
" style="fill:none;stroke:#b0b0b0;stroke-linecap:square;stroke-width:0.8;"/>
     </g>
     <g id="line2d_16">
      <g>
       <use style="stroke:#000000;stroke-width:0.8;" x="339.106676" xlink:href="#mf44e25171f" y="239.758125"/>
      </g>
     </g>
     <g id="text_8">
      <!-- 17.5 -->
      <g transform="translate(327.973864 254.356563)scale(0.1 -0.1)">
       <use xlink:href="#DejaVuSans-49"/>
       <use x="63.623047" xlink:href="#DejaVuSans-55"/>
       <use x="127.246094" xlink:href="#DejaVuSans-46"/>
       <use x="159.033203" xlink:href="#DejaVuSans-53"/>
      </g>
     </g>
    </g>
    <g id="xtick_9">
     <g id="line2d_17">
      <path clip-path="url(#p524f7853b2)" d="M 377.152131 239.758125 
L 377.152131 22.318125 
" style="fill:none;stroke:#b0b0b0;stroke-linecap:square;stroke-width:0.8;"/>
     </g>
     <g id="line2d_18">
      <g>
       <use style="stroke:#000000;stroke-width:0.8;" x="377.152131" xlink:href="#mf44e25171f" y="239.758125"/>
      </g>
     </g>
     <g id="text_9">
      <!-- 20.0 -->
      <g transform="translate(366.019318 254.356563)scale(0.1 -0.1)">
       <use xlink:href="#DejaVuSans-50"/>
       <use x="63.623047" xlink:href="#DejaVuSans-48"/>
       <use x="127.246094" xlink:href="#DejaVuSans-46"/>
       <use x="159.033203" xlink:href="#DejaVuSans-48"/>
      </g>
     </g>
    </g>
   </g>
   <g id="matplotlib.axis_2">
    <g id="ytick_1">
     <g id="line2d_19">
      <path clip-path="url(#p524f7853b2)" d="M 57.570313 229.874489 
L 392.370313 229.874489 
" style="fill:none;stroke:#b0b0b0;stroke-linecap:square;stroke-width:0.8;"/>
     </g>
     <g id="line2d_20">
      <defs>
       <path d="M 0 0 
L -3.5 0 
" id="m8a5a7da556" style="stroke:#000000;stroke-width:0.8;"/>
      </defs>
      <g>
       <use style="stroke:#000000;stroke-width:0.8;" x="57.570313" xlink:href="#m8a5a7da556" y="229.874489"/>
      </g>
     </g>
     <g id="text_10">
      <!-- −0.0100 -->
      <g transform="translate(7.2 233.673707)scale(0.1 -0.1)">
       <defs>
        <path d="M 10.59375 35.5 
L 73.1875 35.5 
L 73.1875 27.203125 
L 10.59375 27.203125 
z
" id="DejaVuSans-8722"/>
       </defs>
       <use xlink:href="#DejaVuSans-8722"/>
       <use x="83.789062" xlink:href="#DejaVuSans-48"/>
       <use x="147.412109" xlink:href="#DejaVuSans-46"/>
       <use x="179.199219" xlink:href="#DejaVuSans-48"/>
       <use x="242.822266" xlink:href="#DejaVuSans-49"/>
       <use x="306.445312" xlink:href="#DejaVuSans-48"/>
       <use x="370.068359" xlink:href="#DejaVuSans-48"/>
      </g>
     </g>
    </g>
    <g id="ytick_2">
     <g id="line2d_21">
      <path clip-path="url(#p524f7853b2)" d="M 57.570313 205.125957 
L 392.370313 205.125957 
" style="fill:none;stroke:#b0b0b0;stroke-linecap:square;stroke-width:0.8;"/>
     </g>
     <g id="line2d_22">
      <g>
       <use style="stroke:#000000;stroke-width:0.8;" x="57.570313" xlink:href="#m8a5a7da556" y="205.125957"/>
      </g>
     </g>
     <g id="text_11">
      <!-- −0.0075 -->
      <g transform="translate(7.2 208.925176)scale(0.1 -0.1)">
       <use xlink:href="#DejaVuSans-8722"/>
       <use x="83.789062" xlink:href="#DejaVuSans-48"/>
       <use x="147.412109" xlink:href="#DejaVuSans-46"/>
       <use x="179.199219" xlink:href="#DejaVuSans-48"/>
       <use x="242.822266" xlink:href="#DejaVuSans-48"/>
       <use x="306.445312" xlink:href="#DejaVuSans-55"/>
       <use x="370.068359" xlink:href="#DejaVuSans-53"/>
      </g>
     </g>
    </g>
    <g id="ytick_3">
     <g id="line2d_23">
      <path clip-path="url(#p524f7853b2)" d="M 57.570313 180.377426 
L 392.370313 180.377426 
" style="fill:none;stroke:#b0b0b0;stroke-linecap:square;stroke-width:0.8;"/>
     </g>
     <g id="line2d_24">
      <g>
       <use style="stroke:#000000;stroke-width:0.8;" x="57.570313" xlink:href="#m8a5a7da556" y="180.377426"/>
      </g>
     </g>
     <g id="text_12">
      <!-- −0.0050 -->
      <g transform="translate(7.2 184.176645)scale(0.1 -0.1)">
       <use xlink:href="#DejaVuSans-8722"/>
       <use x="83.789062" xlink:href="#DejaVuSans-48"/>
       <use x="147.412109" xlink:href="#DejaVuSans-46"/>
       <use x="179.199219" xlink:href="#DejaVuSans-48"/>
       <use x="242.822266" xlink:href="#DejaVuSans-48"/>
       <use x="306.445312" xlink:href="#DejaVuSans-53"/>
       <use x="370.068359" xlink:href="#DejaVuSans-48"/>
      </g>
     </g>
    </g>
    <g id="ytick_4">
     <g id="line2d_25">
      <path clip-path="url(#p524f7853b2)" d="M 57.570313 155.628895 
L 392.370313 155.628895 
" style="fill:none;stroke:#b0b0b0;stroke-linecap:square;stroke-width:0.8;"/>
     </g>
     <g id="line2d_26">
      <g>
       <use style="stroke:#000000;stroke-width:0.8;" x="57.570313" xlink:href="#m8a5a7da556" y="155.628895"/>
      </g>
     </g>
     <g id="text_13">
      <!-- −0.0025 -->
      <g transform="translate(7.2 159.428113)scale(0.1 -0.1)">
       <use xlink:href="#DejaVuSans-8722"/>
       <use x="83.789062" xlink:href="#DejaVuSans-48"/>
       <use x="147.412109" xlink:href="#DejaVuSans-46"/>
       <use x="179.199219" xlink:href="#DejaVuSans-48"/>
       <use x="242.822266" xlink:href="#DejaVuSans-48"/>
       <use x="306.445312" xlink:href="#DejaVuSans-50"/>
       <use x="370.068359" xlink:href="#DejaVuSans-53"/>
      </g>
     </g>
    </g>
    <g id="ytick_5">
     <g id="line2d_27">
      <path clip-path="url(#p524f7853b2)" d="M 57.570313 130.880363 
L 392.370313 130.880363 
" style="fill:none;stroke:#b0b0b0;stroke-linecap:square;stroke-width:0.8;"/>
     </g>
     <g id="line2d_28">
      <g>
       <use style="stroke:#000000;stroke-width:0.8;" x="57.570313" xlink:href="#m8a5a7da556" y="130.880363"/>
      </g>
     </g>
     <g id="text_14">
      <!-- 0.0000 -->
      <g transform="translate(15.579688 134.679582)scale(0.1 -0.1)">
       <use xlink:href="#DejaVuSans-48"/>
       <use x="63.623047" xlink:href="#DejaVuSans-46"/>
       <use x="95.410156" xlink:href="#DejaVuSans-48"/>
       <use x="159.033203" xlink:href="#DejaVuSans-48"/>
       <use x="222.65625" xlink:href="#DejaVuSans-48"/>
       <use x="286.279297" xlink:href="#DejaVuSans-48"/>
      </g>
     </g>
    </g>
    <g id="ytick_6">
     <g id="line2d_29">
      <path clip-path="url(#p524f7853b2)" d="M 57.570313 106.131832 
L 392.370313 106.131832 
" style="fill:none;stroke:#b0b0b0;stroke-linecap:square;stroke-width:0.8;"/>
     </g>
     <g id="line2d_30">
      <g>
       <use style="stroke:#000000;stroke-width:0.8;" x="57.570313" xlink:href="#m8a5a7da556" y="106.131832"/>
      </g>
     </g>
     <g id="text_15">
      <!-- 0.0025 -->
      <g transform="translate(15.579688 109.931051)scale(0.1 -0.1)">
       <use xlink:href="#DejaVuSans-48"/>
       <use x="63.623047" xlink:href="#DejaVuSans-46"/>
       <use x="95.410156" xlink:href="#DejaVuSans-48"/>
       <use x="159.033203" xlink:href="#DejaVuSans-48"/>
       <use x="222.65625" xlink:href="#DejaVuSans-50"/>
       <use x="286.279297" xlink:href="#DejaVuSans-53"/>
      </g>
     </g>
    </g>
    <g id="ytick_7">
     <g id="line2d_31">
      <path clip-path="url(#p524f7853b2)" d="M 57.570313 81.383301 
L 392.370313 81.383301 
" style="fill:none;stroke:#b0b0b0;stroke-linecap:square;stroke-width:0.8;"/>
     </g>
     <g id="line2d_32">
      <g>
       <use style="stroke:#000000;stroke-width:0.8;" x="57.570313" xlink:href="#m8a5a7da556" y="81.383301"/>
      </g>
     </g>
     <g id="text_16">
      <!-- 0.0050 -->
      <g transform="translate(15.579688 85.18252)scale(0.1 -0.1)">
       <use xlink:href="#DejaVuSans-48"/>
       <use x="63.623047" xlink:href="#DejaVuSans-46"/>
       <use x="95.410156" xlink:href="#DejaVuSans-48"/>
       <use x="159.033203" xlink:href="#DejaVuSans-48"/>
       <use x="222.65625" xlink:href="#DejaVuSans-53"/>
       <use x="286.279297" xlink:href="#DejaVuSans-48"/>
      </g>
     </g>
    </g>
    <g id="ytick_8">
     <g id="line2d_33">
      <path clip-path="url(#p524f7853b2)" d="M 57.570313 56.63477 
L 392.370313 56.63477 
" style="fill:none;stroke:#b0b0b0;stroke-linecap:square;stroke-width:0.8;"/>
     </g>
     <g id="line2d_34">
      <g>
       <use style="stroke:#000000;stroke-width:0.8;" x="57.570313" xlink:href="#m8a5a7da556" y="56.63477"/>
      </g>
     </g>
     <g id="text_17">
      <!-- 0.0075 -->
      <g transform="translate(15.579688 60.433988)scale(0.1 -0.1)">
       <use xlink:href="#DejaVuSans-48"/>
       <use x="63.623047" xlink:href="#DejaVuSans-46"/>
       <use x="95.410156" xlink:href="#DejaVuSans-48"/>
       <use x="159.033203" xlink:href="#DejaVuSans-48"/>
       <use x="222.65625" xlink:href="#DejaVuSans-55"/>
       <use x="286.279297" xlink:href="#DejaVuSans-53"/>
      </g>
     </g>
    </g>
    <g id="ytick_9">
     <g id="line2d_35">
      <path clip-path="url(#p524f7853b2)" d="M 57.570313 31.886238 
L 392.370313 31.886238 
" style="fill:none;stroke:#b0b0b0;stroke-linecap:square;stroke-width:0.8;"/>
     </g>
     <g id="line2d_36">
      <g>
       <use style="stroke:#000000;stroke-width:0.8;" x="57.570313" xlink:href="#m8a5a7da556" y="31.886238"/>
      </g>
     </g>
     <g id="text_18">
      <!-- 0.0100 -->
      <g transform="translate(15.579688 35.685457)scale(0.1 -0.1)">
       <use xlink:href="#DejaVuSans-48"/>
       <use x="63.623047" xlink:href="#DejaVuSans-46"/>
       <use x="95.410156" xlink:href="#DejaVuSans-48"/>
       <use x="159.033203" xlink:href="#DejaVuSans-49"/>
       <use x="222.65625" xlink:href="#DejaVuSans-48"/>
       <use x="286.279297" xlink:href="#DejaVuSans-48"/>
      </g>
     </g>
    </g>
   </g>
   <g id="line2d_37">
    <path clip-path="url(#p524f7853b2)" d="M 72.788494 229.874489 
L 73.093163 229.77532 
L 73.397831 229.478063 
L 74.007168 228.292738 
L 74.616504 226.330334 
L 75.225841 223.610484 
L 76.139846 218.171949 
L 77.053851 211.213769 
L 78.272524 199.845031 
L 79.795865 182.917312 
L 81.928543 156.026449 
L 85.584563 109.629291 
L 87.107905 93.173728 
L 88.326578 82.150445 
L 89.240583 75.355756 
L 90.154588 69.936929 
L 91.068593 65.957207 
L 91.677929 64.118051 
L 92.287266 62.929544 
L 92.896602 62.383096 
L 93.201271 62.346035 
L 93.505939 62.463104 
L 94.115276 63.147225 
L 94.724612 64.40673 
L 95.333949 66.206937 
L 96.247954 69.831884 
L 97.161959 74.426385 
L 98.380632 81.754835 
L 100.208642 94.388958 
L 103.559993 117.822295 
L 104.778666 124.999487 
L 105.99734 130.905893 
L 106.911344 134.357186 
L 107.825349 136.896126 
L 108.434686 138.064901 
L 109.044023 138.812075 
L 109.653359 139.142703 
L 110.262696 139.068132 
L 110.872032 138.6058 
L 111.481369 137.778963 
L 112.090706 136.616347 
L 113.004711 134.317964 
L 114.223384 130.430141 
L 116.051394 123.591189 
L 118.184072 115.73759 
L 119.402745 112.116351 
L 120.31675 110.1069 
L 120.926086 109.181841 
L 121.535423 108.630349 
L 122.14476 108.482857 
L 122.754096 108.764392 
L 123.363433 109.494188 
L 123.97277 110.685358 
L 124.582106 112.344659 
L 125.496111 115.710043 
L 126.410116 120.100562 
L 127.628789 127.440293 
L 128.847462 136.260585 
L 130.675472 151.538871 
L 135.245497 191.287689 
L 136.46417 199.78447 
L 137.378175 204.993126 
L 138.29218 209.011172 
L 138.901516 210.954616 
L 139.510853 212.266377 
L 140.12019 212.916165 
L 140.424858 212.985189 
L 140.729526 212.880421 
L 141.034195 212.600012 
L 141.643531 211.507167 
L 142.252868 209.701126 
L 142.862204 207.183895 
L 143.776209 202.097661 
L 144.690214 195.49887 
L 145.908887 184.527917 
L 147.127561 171.388182 
L 148.650902 152.581855 
L 151.392917 115.239453 
L 153.830263 82.944999 
L 155.353605 65.407165 
L 156.572278 53.682478 
L 157.486283 46.517501 
L 158.400288 40.907866 
L 159.009625 38.08573 
L 159.618961 36.024355 
L 160.228298 34.737935 
L 160.532966 34.387624 
L 160.837634 34.232815 
L 161.142303 34.273067 
L 161.446971 34.507451 
L 162.056308 35.552461 
L 162.665644 37.35076 
L 163.274981 39.877784 
L 164.188986 44.963395 
L 165.102991 51.4804 
L 166.321664 62.105771 
L 167.845005 77.834743 
L 170.282352 106.177943 
L 173.024367 137.778126 
L 174.547708 153.083985 
L 175.766381 163.439263 
L 176.985055 171.773811 
L 177.899059 176.571215 
L 178.813064 180.068773 
L 179.422401 181.671967 
L 180.031738 182.698092 
L 180.641074 183.159739 
L 180.945742 183.184615 
L 181.250411 183.076043 
L 181.859747 182.472365 
L 182.469084 181.379876 
L 183.078421 179.835103 
L 183.992426 176.761492 
L 185.211099 171.499809 
L 186.73444 163.64242 
L 190.695128 142.497015 
L 191.913801 137.392152 
L 192.827806 134.363156 
L 193.741811 132.126223 
L 194.351148 131.108021 
L 194.960484 130.482517 
L 195.569821 130.254838 
L 196.179158 130.423752 
L 196.788494 130.981712 
L 197.397831 131.914952 
L 198.007168 133.203696 
L 198.921172 135.746061 
L 200.139846 140.097842 
L 201.663187 146.619783 
L 205.014539 161.544998 
L 206.233212 165.835377 
L 207.147217 168.252883 
L 207.756553 169.399719 
L 208.36589 170.129033 
L 208.975227 170.407063 
L 209.279895 170.367751 
L 209.889231 169.917374 
L 210.498568 168.95564 
L 211.107905 167.46926 
L 211.717241 165.451515 
L 212.631246 161.430548 
L 213.545251 156.244723 
L 214.763924 147.632964 
L 215.982598 137.309451 
L 217.505939 122.522257 
L 220.85729 86.805918 
L 222.6853 68.558938 
L 223.903973 58.060379 
L 225.122647 49.471595 
L 226.036652 44.540604 
L 226.645988 42.05705 
L 227.255325 40.25936 
L 227.864661 39.176762 
L 228.16933 38.910825 
L 228.473998 38.83139 
L 228.778666 38.940062 
L 229.083335 39.237974 
L 229.692671 40.403639 
L 230.302008 42.327756 
L 230.911344 45.001905 
L 231.825349 50.381956 
L 232.739354 57.324874 
L 233.958027 68.795313 
L 235.176701 82.436957 
L 237.004711 105.910369 
L 242.48874 179.622376 
L 244.012082 195.85208 
L 245.230755 206.241709 
L 246.14476 212.295426 
L 247.058765 216.746775 
L 247.668101 218.79286 
L 248.277438 220.091069 
L 248.582106 220.45928 
L 248.886774 220.640955 
L 249.191443 220.63724 
L 249.496111 220.449754 
L 249.800779 220.080583 
L 250.410116 218.807801 
L 251.019453 216.844555 
L 251.628789 214.223352 
L 252.542794 209.144585 
L 253.456799 202.829919 
L 254.675472 192.803858 
L 256.198814 178.3781 
L 261.682843 124.389699 
L 262.901516 114.966394 
L 264.12019 107.283236 
L 265.034195 102.789348 
L 265.948199 99.437984 
L 266.557536 97.846111 
L 267.166873 96.76364 
L 267.776209 96.179314 
L 268.385546 96.075536 
L 268.994883 96.428685 
L 269.604219 97.209491 
L 270.213556 98.383496 
L 271.127561 100.794994 
L 272.041566 103.853397 
L 273.564907 109.93581 
L 276.916258 123.970592 
L 278.134932 128.020587 
L 279.048937 130.342288 
L 279.658273 131.485286 
L 280.26761 132.272864 
L 280.876946 132.684295 
L 281.486283 132.704801 
L 282.09562 132.325783 
L 282.704956 131.544953 
L 283.314293 130.366394 
L 284.228298 127.877309 
L 285.142303 124.579473 
L 286.360976 119.085743 
L 287.884317 110.877928 
L 292.454342 84.794231 
L 293.673015 79.580785 
L 294.58702 76.66769 
L 295.196357 75.285647 
L 295.805693 74.397555 
L 296.41503 74.036957 
L 296.719698 74.063396 
L 297.024367 74.231666 
L 297.633703 75.003333 
L 298.24304 76.367094 
L 298.852376 78.33129 
L 299.766381 82.404406 
L 300.680386 87.804378 
L 301.594391 94.469737 
L 302.813064 105.153565 
L 304.336406 120.929308 
L 306.469084 146.00947 
L 310.125104 189.491148 
L 311.648445 204.762951 
L 312.867118 214.732884 
L 313.781123 220.61182 
L 314.695128 224.954733 
L 315.304465 226.939238 
L 315.913801 228.165308 
L 316.21847 228.488278 
L 316.523138 228.615817 
L 316.827806 228.546992 
L 317.132475 228.281374 
L 317.741811 227.160463 
L 318.351148 225.259492 
L 318.960484 222.592706 
L 319.874489 217.206764 
L 320.788494 210.254463 
L 322.007168 198.796395 
L 323.530509 181.564336 
L 325.358519 157.957063 
L 329.928543 97.574371 
L 331.451885 80.936216 
L 332.670558 69.976311 
L 333.584563 63.353109 
L 334.498568 58.212108 
L 335.107905 55.640556 
L 335.717241 53.765361 
L 336.326578 52.588103 
L 336.631246 52.259649 
L 336.935914 52.102896 
L 337.240583 52.115963 
L 337.545251 52.296531 
L 338.154588 53.148721 
L 338.763924 54.632411 
L 339.373261 56.71417 
L 340.287266 60.870652 
L 341.201271 66.128165 
L 342.419944 74.54154 
L 344.247954 89.206496 
L 348.208642 122.036688 
L 349.731983 132.470022 
L 350.950656 139.199497 
L 351.864661 143.153712 
L 352.778666 146.108149 
L 353.388003 147.510594 
L 353.99734 148.460628 
L 354.606676 148.966655 
L 355.216013 149.043348 
L 355.825349 148.711389 
L 356.434686 147.997128 
L 357.044023 146.932182 
L 357.958027 144.758055 
L 359.176701 141.005763 
L 361.004711 134.329245 
L 363.137389 126.615783 
L 364.356062 123.038627 
L 365.270067 121.033831 
L 365.879403 120.093513 
L 366.48874 119.508604 
L 367.098077 119.306268 
L 367.707413 119.508101 
L 368.31675 120.129775 
L 368.926086 121.180787 
L 369.535423 122.664271 
L 370.449428 125.69134 
L 371.363433 129.643986 
L 372.582106 136.2276 
L 373.800779 144.077335 
L 375.628789 157.472602 
L 377.152131 169.215576 
L 377.152131 169.215576 
" style="fill:none;stroke:#000000;stroke-linecap:square;stroke-width:1.5;"/>
   </g>
   <g id="line2d_38">
    <path clip-path="url(#p524f7853b2)" d="M 72.788494 130.880363 
L 73.397831 130.682254 
L 74.007168 130.091085 
L 74.616504 129.116306 
L 75.225841 127.773588 
L 76.139846 125.118577 
L 77.053851 121.782449 
L 78.272524 116.490021 
L 80.405202 105.929249 
L 82.53788 95.638083 
L 83.756553 90.780044 
L 84.670558 87.943449 
L 85.279895 86.524355 
L 85.889231 85.531257 
L 86.498568 85.000417 
L 86.803236 84.91827 
L 87.107905 84.962903 
L 87.412573 85.137303 
L 88.02191 85.885449 
L 88.631246 87.178796 
L 89.240583 89.026871 
L 90.154588 92.843191 
L 91.068593 97.892202 
L 91.982598 104.11879 
L 93.201271 114.093274 
L 94.724612 128.808438 
L 96.85729 152.14761 
L 100.208642 189.172873 
L 101.731983 203.495025 
L 102.950656 212.845339 
L 103.864661 218.337907 
L 104.778666 222.356394 
L 105.388003 224.155869 
L 105.99734 225.219286 
L 106.302008 225.468544 
L 106.606676 225.527008 
L 106.911344 225.393411 
L 107.216013 225.066966 
L 107.825349 223.834833 
L 108.434686 221.834117 
L 109.044023 219.076166 
L 109.958027 213.563278 
L 110.872032 206.487519 
L 112.090706 194.855581 
L 113.614047 177.367893 
L 115.442057 153.369125 
L 120.012082 91.609376 
L 121.535423 74.469828 
L 122.754096 63.144267 
L 123.668101 56.286408 
L 124.582106 50.958856 
L 125.191443 48.295986 
L 125.800779 46.360237 
L 126.410116 45.156749 
L 126.714784 44.829111 
L 127.019453 44.682997 
L 127.324121 44.716912 
L 127.628789 44.928895 
L 128.238126 45.876977 
L 128.847462 47.502664 
L 129.456799 49.774615 
L 130.370804 54.310247 
L 131.284809 60.062579 
L 132.503482 69.317054 
L 134.026824 82.759823 
L 139.510853 133.406983 
L 140.729526 142.209114 
L 141.948199 149.341619 
L 142.862204 153.475246 
L 143.776209 156.516075 
L 144.385546 157.930347 
L 144.994883 158.859868 
L 145.604219 159.316731 
L 146.213556 159.319254 
L 146.822892 158.891667 
L 147.432229 158.063715 
L 148.041566 156.870215 
L 148.95557 154.481767 
L 150.174244 150.416715 
L 152.002254 143.243064 
L 154.134932 134.934598 
L 155.353605 131.006913 
L 156.26761 128.727098 
L 156.876946 127.594273 
L 157.486283 126.806985 
L 158.09562 126.389998 
L 158.704956 126.362342 
L 159.314293 126.737026 
L 159.923629 127.520832 
L 160.532966 128.714185 
L 161.142303 130.311116 
L 162.056308 133.434534 
L 162.970312 137.369057 
L 164.188986 143.704207 
L 165.712327 152.930724 
L 169.977684 179.955322 
L 171.196357 186.030265 
L 172.110362 189.596119 
L 173.024367 192.134093 
L 173.633703 193.186392 
L 174.24304 193.686452 
L 174.547708 193.720346 
L 174.852376 193.606092 
L 175.157045 193.341155 
L 175.766381 192.351159 
L 176.375718 190.7385 
L 176.985055 188.498344 
L 177.899059 183.96864 
L 178.813064 178.072429 
L 180.031738 168.219328 
L 181.250411 156.346675 
L 182.773752 139.243111 
L 185.211099 108.875757 
L 187.953113 75.227225 
L 189.476455 59.095884 
L 190.695128 48.407752 
L 191.609133 41.979083 
L 192.523138 37.081762 
L 193.132475 34.727178 
L 193.741811 33.132127 
L 194.351148 32.314989 
L 194.655816 32.201761 
L 194.960484 32.28638 
L 195.265153 32.56894 
L 195.874489 33.725773 
L 196.483826 35.663113 
L 197.093163 38.363983 
L 198.007168 43.791009 
L 198.921172 50.764944 
L 200.139846 62.208805 
L 201.663187 79.334277 
L 203.795865 106.716799 
L 207.451885 154.483301 
L 208.975227 171.630962 
L 210.1939 183.215499 
L 211.412573 192.511671 
L 212.326578 197.827618 
L 213.240583 201.650457 
L 213.849919 203.35531 
L 214.459256 204.386081 
L 214.763924 204.651212 
L 215.068593 204.751758 
L 215.373261 204.689951 
L 215.677929 204.468455 
L 216.287266 203.559122 
L 216.896602 202.053198 
L 217.505939 199.986179 
L 218.419944 195.924798 
L 219.333949 190.853548 
L 220.552622 182.833665 
L 222.380632 169.065036 
L 225.731983 143.377606 
L 227.255325 133.558967 
L 228.473998 127.205383 
L 229.388003 123.471838 
L 230.302008 120.691227 
L 230.911344 119.381414 
L 231.520681 118.507438 
L 232.130018 118.062662 
L 232.739354 118.034164 
L 233.348691 118.402972 
L 233.958027 119.144365 
L 234.567364 120.228259 
L 235.481369 122.418494 
L 236.700042 126.1754 
L 238.528052 132.835853 
L 240.66073 140.504553 
L 241.879403 144.038726 
L 242.793408 145.997875 
L 243.402745 146.899117 
L 244.012082 147.436406 
L 244.621418 147.581034 
L 245.230755 147.309784 
L 245.840091 146.6053 
L 246.449428 145.456374 
L 247.058765 143.858162 
L 247.97277 140.62383 
L 248.886774 136.417006 
L 250.105448 129.413396 
L 251.324121 121.042978 
L 253.152131 106.667084 
L 257.112819 74.575247 
L 258.331492 66.43834 
L 259.245497 61.395675 
L 260.159502 57.457524 
L 260.768838 55.521819 
L 261.378175 54.183521 
L 261.987512 53.47511 
L 262.29218 53.365522 
L 262.596848 53.422665 
L 262.901516 53.648735 
L 263.510853 54.614221 
L 264.12019 56.270558 
L 264.729526 58.618922 
L 265.643531 63.423151 
L 266.557536 69.715566 
L 267.471541 77.406089 
L 268.690214 89.613184 
L 270.213556 107.450405 
L 272.346234 135.498453 
L 275.697585 179.9444 
L 277.220927 197.43445 
L 278.4396 209.185117 
L 279.353605 216.397284 
L 280.26761 222.069272 
L 281.181615 226.087145 
L 281.790951 227.807362 
L 282.400288 228.744515 
L 282.704956 228.917512 
L 283.009625 228.893419 
L 283.314293 228.672824 
L 283.618961 228.256808 
L 284.228298 226.845278 
L 284.837634 224.677154 
L 285.446971 221.778264 
L 286.360976 216.133837 
L 287.274981 209.060708 
L 288.493654 197.705749 
L 290.016996 181.09893 
L 292.454342 151.478951 
L 295.196357 118.719594 
L 296.719698 102.933781 
L 297.938371 92.292274 
L 299.157045 83.765291 
L 300.07105 78.888143 
L 300.985055 75.367934 
L 301.594391 73.781872 
L 302.203728 72.798874 
L 302.813064 72.406395 
L 303.117733 72.42585 
L 303.422401 72.585228 
L 304.031738 73.309831 
L 304.641074 74.548725 
L 305.250411 76.264961 
L 306.164416 79.64151 
L 307.383089 85.388693 
L 308.90643 93.973611 
L 313.171787 119.084372 
L 314.39046 124.738276 
L 315.304465 128.148998 
L 316.21847 130.745228 
L 316.827806 131.992305 
L 317.437143 132.839554 
L 318.04648 133.283096 
L 318.655816 133.325443 
L 319.265153 132.975394 
L 319.874489 132.247935 
L 320.483826 131.163987 
L 321.397831 128.929221 
L 322.311836 126.064817 
L 323.530509 121.501612 
L 328.100534 103.250259 
L 329.014539 100.674814 
L 329.928543 98.841664 
L 330.53788 98.099021 
L 331.147217 97.780272 
L 331.451885 97.789065 
L 332.061222 98.158344 
L 332.670558 99.012705 
L 333.279895 100.366079 
L 333.889231 102.225947 
L 334.803236 105.965399 
L 335.717241 110.819068 
L 336.935914 118.915811 
L 338.154588 128.651127 
L 339.677929 142.617097 
L 345.466627 198.452466 
L 346.6853 207.28758 
L 347.599305 212.552359 
L 348.51331 216.468447 
L 349.122647 218.263052 
L 349.731983 219.367149 
L 350.036652 219.6523 
L 350.34132 219.756164 
L 350.645988 219.676797 
L 350.950656 219.412721 
L 351.559993 218.326892 
L 352.16933 216.496388 
L 352.778666 213.926639 
L 353.692671 208.716783 
L 354.606676 201.9514 
L 355.825349 190.712361 
L 357.044023 177.27692 
L 358.567364 158.098743 
L 361.614047 115.938937 
L 363.746725 87.55132 
L 365.270067 69.872457 
L 366.48874 58.054755 
L 367.402745 50.819589 
L 368.31675 45.129312 
L 369.230755 41.079401 
L 369.840091 39.320668 
L 370.449428 38.32454 
L 370.754096 38.112592 
L 371.058765 38.090491 
L 371.363433 38.256961 
L 371.668101 38.610247 
L 372.277438 39.867922 
L 372.886774 41.840252 
L 373.496111 44.496903 
L 374.410116 49.682312 
L 375.324121 56.172166 
L 376.542794 66.543876 
L 377.152131 72.331776 
L 377.152131 72.331776 
" style="fill:none;stroke:#0000ff;stroke-linecap:square;stroke-width:1.5;"/>
   </g>
   <g id="patch_3">
    <path d="M 57.570313 239.758125 
L 57.570313 22.318125 
" style="fill:none;stroke:#000000;stroke-linecap:square;stroke-linejoin:miter;stroke-width:0.8;"/>
   </g>
   <g id="patch_4">
    <path d="M 392.370313 239.758125 
L 392.370313 22.318125 
" style="fill:none;stroke:#000000;stroke-linecap:square;stroke-linejoin:miter;stroke-width:0.8;"/>
   </g>
   <g id="patch_5">
    <path d="M 57.570312 239.758125 
L 392.370313 239.758125 
" style="fill:none;stroke:#000000;stroke-linecap:square;stroke-linejoin:miter;stroke-width:0.8;"/>
   </g>
   <g id="patch_6">
    <path d="M 57.570312 22.318125 
L 392.370313 22.318125 
" style="fill:none;stroke:#000000;stroke-linecap:square;stroke-linejoin:miter;stroke-width:0.8;"/>
   </g>
   <g id="text_19">
    <!-- Unknown mode -->
    <g transform="translate(178.195625 16.318125)scale(0.12 -0.12)">
     <defs>
      <path d="M 8.6875 72.90625 
L 18.609375 72.90625 
L 18.609375 28.609375 
Q 18.609375 16.890625 22.84375 11.734375 
Q 27.09375 6.59375 36.625 6.59375 
Q 46.09375 6.59375 50.34375 11.734375 
Q 54.59375 16.890625 54.59375 28.609375 
L 54.59375 72.90625 
L 64.5 72.90625 
L 64.5 27.390625 
Q 64.5 13.140625 57.4375 5.859375 
Q 50.390625 -1.421875 36.625 -1.421875 
Q 22.796875 -1.421875 15.734375 5.859375 
Q 8.6875 13.140625 8.6875 27.390625 
z
" id="DejaVuSans-85"/>
      <path d="M 54.890625 33.015625 
L 54.890625 0 
L 45.90625 0 
L 45.90625 32.71875 
Q 45.90625 40.484375 42.875 44.328125 
Q 39.84375 48.1875 33.796875 48.1875 
Q 26.515625 48.1875 22.3125 43.546875 
Q 18.109375 38.921875 18.109375 30.90625 
L 18.109375 0 
L 9.078125 0 
L 9.078125 54.6875 
L 18.109375 54.6875 
L 18.109375 46.1875 
Q 21.34375 51.125 25.703125 53.5625 
Q 30.078125 56 35.796875 56 
Q 45.21875 56 50.046875 50.171875 
Q 54.890625 44.34375 54.890625 33.015625 
z
" id="DejaVuSans-110"/>
      <path d="M 9.078125 75.984375 
L 18.109375 75.984375 
L 18.109375 31.109375 
L 44.921875 54.6875 
L 56.390625 54.6875 
L 27.390625 29.109375 
L 57.625 0 
L 45.90625 0 
L 18.109375 26.703125 
L 18.109375 0 
L 9.078125 0 
z
" id="DejaVuSans-107"/>
      <path d="M 30.609375 48.390625 
Q 23.390625 48.390625 19.1875 42.75 
Q 14.984375 37.109375 14.984375 27.296875 
Q 14.984375 17.484375 19.15625 11.84375 
Q 23.34375 6.203125 30.609375 6.203125 
Q 37.796875 6.203125 41.984375 11.859375 
Q 46.1875 17.53125 46.1875 27.296875 
Q 46.1875 37.015625 41.984375 42.703125 
Q 37.796875 48.390625 30.609375 48.390625 
z
M 30.609375 56 
Q 42.328125 56 49.015625 48.375 
Q 55.71875 40.765625 55.71875 27.296875 
Q 55.71875 13.875 49.015625 6.21875 
Q 42.328125 -1.421875 30.609375 -1.421875 
Q 18.84375 -1.421875 12.171875 6.21875 
Q 5.515625 13.875 5.515625 27.296875 
Q 5.515625 40.765625 12.171875 48.375 
Q 18.84375 56 30.609375 56 
z
" id="DejaVuSans-111"/>
      <path d="M 4.203125 54.6875 
L 13.1875 54.6875 
L 24.421875 12.015625 
L 35.59375 54.6875 
L 46.1875 54.6875 
L 57.421875 12.015625 
L 68.609375 54.6875 
L 77.59375 54.6875 
L 63.28125 0 
L 52.6875 0 
L 40.921875 44.828125 
L 29.109375 0 
L 18.5 0 
z
" id="DejaVuSans-119"/>
      <path id="DejaVuSans-32"/>
      <path d="M 52 44.1875 
Q 55.375 50.25 60.0625 53.125 
Q 64.75 56 71.09375 56 
Q 79.640625 56 84.28125 50.015625 
Q 88.921875 44.046875 88.921875 33.015625 
L 88.921875 0 
L 79.890625 0 
L 79.890625 32.71875 
Q 79.890625 40.578125 77.09375 44.375 
Q 74.3125 48.1875 68.609375 48.1875 
Q 61.625 48.1875 57.5625 43.546875 
Q 53.515625 38.921875 53.515625 30.90625 
L 53.515625 0 
L 44.484375 0 
L 44.484375 32.71875 
Q 44.484375 40.625 41.703125 44.40625 
Q 38.921875 48.1875 33.109375 48.1875 
Q 26.21875 48.1875 22.15625 43.53125 
Q 18.109375 38.875 18.109375 30.90625 
L 18.109375 0 
L 9.078125 0 
L 9.078125 54.6875 
L 18.109375 54.6875 
L 18.109375 46.1875 
Q 21.1875 51.21875 25.484375 53.609375 
Q 29.78125 56 35.6875 56 
Q 41.65625 56 45.828125 52.96875 
Q 50 49.953125 52 44.1875 
z
" id="DejaVuSans-109"/>
      <path d="M 45.40625 46.390625 
L 45.40625 75.984375 
L 54.390625 75.984375 
L 54.390625 0 
L 45.40625 0 
L 45.40625 8.203125 
Q 42.578125 3.328125 38.25 0.953125 
Q 33.9375 -1.421875 27.875 -1.421875 
Q 17.96875 -1.421875 11.734375 6.484375 
Q 5.515625 14.40625 5.515625 27.296875 
Q 5.515625 40.1875 11.734375 48.09375 
Q 17.96875 56 27.875 56 
Q 33.9375 56 38.25 53.625 
Q 42.578125 51.265625 45.40625 46.390625 
z
M 14.796875 27.296875 
Q 14.796875 17.390625 18.875 11.75 
Q 22.953125 6.109375 30.078125 6.109375 
Q 37.203125 6.109375 41.296875 11.75 
Q 45.40625 17.390625 45.40625 27.296875 
Q 45.40625 37.203125 41.296875 42.84375 
Q 37.203125 48.484375 30.078125 48.484375 
Q 22.953125 48.484375 18.875 42.84375 
Q 14.796875 37.203125 14.796875 27.296875 
z
" id="DejaVuSans-100"/>
      <path d="M 56.203125 29.59375 
L 56.203125 25.203125 
L 14.890625 25.203125 
Q 15.484375 15.921875 20.484375 11.0625 
Q 25.484375 6.203125 34.421875 6.203125 
Q 39.59375 6.203125 44.453125 7.46875 
Q 49.3125 8.734375 54.109375 11.28125 
L 54.109375 2.78125 
Q 49.265625 0.734375 44.1875 -0.34375 
Q 39.109375 -1.421875 33.890625 -1.421875 
Q 20.796875 -1.421875 13.15625 6.1875 
Q 5.515625 13.8125 5.515625 26.8125 
Q 5.515625 40.234375 12.765625 48.109375 
Q 20.015625 56 32.328125 56 
Q 43.359375 56 49.78125 48.890625 
Q 56.203125 41.796875 56.203125 29.59375 
z
M 47.21875 32.234375 
Q 47.125 39.59375 43.09375 43.984375 
Q 39.0625 48.390625 32.421875 48.390625 
Q 24.90625 48.390625 20.390625 44.140625 
Q 15.875 39.890625 15.1875 32.171875 
z
" id="DejaVuSans-101"/>
     </defs>
     <use xlink:href="#DejaVuSans-85"/>
     <use x="73.193359" xlink:href="#DejaVuSans-110"/>
     <use x="136.572266" xlink:href="#DejaVuSans-107"/>
     <use x="194.482422" xlink:href="#DejaVuSans-110"/>
     <use x="257.861328" xlink:href="#DejaVuSans-111"/>
     <use x="319.042969" xlink:href="#DejaVuSans-119"/>
     <use x="400.830078" xlink:href="#DejaVuSans-110"/>
     <use x="464.208984" xlink:href="#DejaVuSans-32"/>
     <use x="495.996094" xlink:href="#DejaVuSans-109"/>
     <use x="593.408203" xlink:href="#DejaVuSans-111"/>
     <use x="654.589844" xlink:href="#DejaVuSans-100"/>
     <use x="718.066406" xlink:href="#DejaVuSans-101"/>
    </g>
   </g>
  </g>
 </g>
 <defs>
  <clipPath id="p524f7853b2">
   <rect height="217.44" width="334.8" x="57.570313" y="22.318125"/>
  </clipPath>
 </defs>
</svg>
