<?xml version="1.0" encoding="utf-8" standalone="no"?>
<!DOCTYPE svg PUBLIC "-//W3C//DTD SVG 1.1//EN"
  "http://www.w3.org/Graphics/SVG/1.1/DTD/svg11.dtd">
<!-- Created with matplotlib (https://matplotlib.org/) -->
<svg height="356.471406pt" version="1.1" viewBox="0 0 881.463217 356.471406" width="881.463217pt" xmlns="http://www.w3.org/2000/svg" xmlns:xlink="http://www.w3.org/1999/xlink">
 <metadata>
  <rdf:RDF xmlns:cc="http://creativecommons.org/ns#" xmlns:dc="http://purl.org/dc/elements/1.1/" xmlns:rdf="http://www.w3.org/1999/02/22-rdf-syntax-ns#">
   <cc:Work>
    <dc:type rdf:resource="http://purl.org/dc/dcmitype/StillImage"/>
    <dc:date>2021-04-19T18:40:09.643449</dc:date>
    <dc:format>image/svg+xml</dc:format>
    <dc:creator>
     <cc:Agent>
      <dc:title>Matplotlib v3.3.4, https://matplotlib.org/</dc:title>
     </cc:Agent>
    </dc:creator>
   </cc:Work>
  </rdf:RDF>
 </metadata>
 <defs>
  <style type="text/css">*{stroke-linecap:butt;stroke-linejoin:round;}</style>
 </defs>
 <g id="figure_1">
  <g id="patch_1">
   <path d="M 0 356.471406 
L 881.463217 356.471406 
L 881.463217 0 
L 0 0 
z
" style="fill:none;"/>
  </g>
  <g id="axes_1">
   <g id="patch_2">
    <path d="M 37.263217 333.36 
L 874.263217 333.36 
L 874.263217 7.2 
L 37.263217 7.2 
z
" style="fill:#ffffff;"/>
   </g>
   <g id="matplotlib.axis_1">
    <g id="xtick_1">
     <g id="line2d_1">
      <path clip-path="url(#p2d652bc42d)" d="M 75.308671 333.36 
L 75.308671 7.2 
" style="fill:none;stroke:#666666;stroke-linecap:square;stroke-opacity:0.3;stroke-width:0.8;"/>
     </g>
     <g id="line2d_2">
      <defs>
       <path d="M 0 0 
L 0 3.5 
" id="m3d104fc583" style="stroke:#000000;stroke-width:0.8;"/>
      </defs>
      <g>
       <use style="stroke:#000000;stroke-width:0.8;" x="75.308671" xlink:href="#m3d104fc583" y="333.36"/>
      </g>
     </g>
     <g id="text_1">
      <!-- $\mathdefault{10^{0}}$ -->
      <g transform="translate(68.484265 347.114578)scale(0.1 -0.1)">
       <defs>
        <path d="M 29.09375 68 
L 11.09375 59 
L 11.09375 57.59375 
C 12.296875 58.09375 13.40625 58.484375 13.796875 58.6875 
C 15.59375 59.390625 17.296875 59.78125 18.296875 59.78125 
C 20.40625 59.78125 21.296875 58.296875 21.296875 55.078125 
L 21.296875 9.359375 
C 21.296875 6.03125 20.5 3.71875 18.90625 2.796875 
C 17.40625 1.890625 16 1.59375 11.796875 1.5 
L 11.796875 0 
L 39.40625 0 
L 39.40625 1.5 
C 31.5 1.59375 29.90625 2.609375 29.90625 7.453125 
L 29.90625 67.796875 
z
" id="Nimbus_Roman_No9_L_Regular-49"/>
        <path d="M 25.40625 68 
C 19.90625 68 15.703125 66.296875 12 62.796875 
C 6.203125 57.203125 2.40625 45.6875 2.40625 34 
C 2.40625 23.09375 5.703125 11.390625 10.40625 5.796875 
C 14.09375 1.390625 19.203125 -1 25 -1 
C 30.09375 -1 34.40625 0.6875 38 4.1875 
C 43.796875 9.6875 47.59375 21.296875 47.59375 33.390625 
C 47.59375 53.890625 38.5 68 25.40625 68 
z
M 25.09375 65.390625 
C 33.5 65.390625 38 54.09375 38 33.1875 
C 38 12.296875 33.59375 1.59375 25 1.59375 
C 16.40625 1.59375 12 12.296875 12 33.09375 
C 12 54.296875 16.5 65.390625 25.09375 65.390625 
z
" id="Nimbus_Roman_No9_L_Regular-48"/>
       </defs>
       <use transform="scale(0.996264)" xlink:href="#Nimbus_Roman_No9_L_Regular-49"/>
       <use transform="translate(49.8132 0)scale(0.996264)" xlink:href="#Nimbus_Roman_No9_L_Regular-48"/>
       <use transform="translate(99.626401 36.163231)scale(0.737241)" xlink:href="#Nimbus_Roman_No9_L_Regular-48"/>
      </g>
     </g>
    </g>
    <g id="xtick_2">
     <g id="line2d_3">
      <path clip-path="url(#p2d652bc42d)" d="M 313.151742 333.36 
L 313.151742 7.2 
" style="fill:none;stroke:#666666;stroke-linecap:square;stroke-opacity:0.3;stroke-width:0.8;"/>
     </g>
     <g id="line2d_4">
      <g>
       <use style="stroke:#000000;stroke-width:0.8;" x="313.151742" xlink:href="#m3d104fc583" y="333.36"/>
      </g>
     </g>
     <g id="text_2">
      <!-- $\mathdefault{10^{1}}$ -->
      <g transform="translate(306.327335 347.114578)scale(0.1 -0.1)">
       <use transform="scale(0.996264)" xlink:href="#Nimbus_Roman_No9_L_Regular-49"/>
       <use transform="translate(49.8132 0)scale(0.996264)" xlink:href="#Nimbus_Roman_No9_L_Regular-48"/>
       <use transform="translate(99.626401 36.163231)scale(0.737241)" xlink:href="#Nimbus_Roman_No9_L_Regular-49"/>
      </g>
     </g>
    </g>
    <g id="xtick_3">
     <g id="line2d_5">
      <path clip-path="url(#p2d652bc42d)" d="M 550.994812 333.36 
L 550.994812 7.2 
" style="fill:none;stroke:#666666;stroke-linecap:square;stroke-opacity:0.3;stroke-width:0.8;"/>
     </g>
     <g id="line2d_6">
      <g>
       <use style="stroke:#000000;stroke-width:0.8;" x="550.994812" xlink:href="#m3d104fc583" y="333.36"/>
      </g>
     </g>
     <g id="text_3">
      <!-- $\mathdefault{10^{2}}$ -->
      <g transform="translate(544.170405 347.114578)scale(0.1 -0.1)">
       <defs>
        <path d="M 47.5 13.734375 
L 46.203125 14.25 
C 42.5 8.5 41.203125 7.59375 36.703125 7.59375 
L 12.796875 7.59375 
L 29.59375 25.328125 
C 38.5 34.703125 42.40625 42.359375 42.40625 50.21875 
C 42.40625 60.28125 34.296875 68 23.90625 68 
C 18.40625 68 13.203125 65.796875 9.5 61.796875 
C 6.296875 58.375 4.796875 55.15625 3.09375 48 
L 5.203125 47.484375 
C 9.203125 57.359375 12.796875 60.59375 19.703125 60.59375 
C 28.09375 60.59375 33.796875 54.84375 33.796875 46.390625 
C 33.796875 38.53125 29.203125 29.15625 20.796875 20.1875 
L 3 1.1875 
L 3 0 
L 42 0 
z
" id="Nimbus_Roman_No9_L_Regular-50"/>
       </defs>
       <use transform="scale(0.996264)" xlink:href="#Nimbus_Roman_No9_L_Regular-49"/>
       <use transform="translate(49.8132 0)scale(0.996264)" xlink:href="#Nimbus_Roman_No9_L_Regular-48"/>
       <use transform="translate(99.626401 36.163231)scale(0.737241)" xlink:href="#Nimbus_Roman_No9_L_Regular-50"/>
      </g>
     </g>
    </g>
    <g id="xtick_4">
     <g id="line2d_7">
      <path clip-path="url(#p2d652bc42d)" d="M 788.837882 333.36 
L 788.837882 7.2 
" style="fill:none;stroke:#666666;stroke-linecap:square;stroke-opacity:0.3;stroke-width:0.8;"/>
     </g>
     <g id="line2d_8">
      <g>
       <use style="stroke:#000000;stroke-width:0.8;" x="788.837882" xlink:href="#m3d104fc583" y="333.36"/>
      </g>
     </g>
     <g id="text_4">
      <!-- $\mathdefault{10^{3}}$ -->
      <g transform="translate(782.013475 347.114578)scale(0.1 -0.1)">
       <defs>
        <path d="M 15.296875 33.390625 
C 21.203125 33.390625 23.5 33.1875 25.90625 32.296875 
C 32.09375 30.09375 36 24.390625 36 17.5 
C 36 9.09375 30.296875 2.59375 22.90625 2.59375 
C 20.203125 2.59375 18.203125 3.296875 14.5 5.6875 
C 11.5 7.5 9.796875 8.1875 8.09375 8.1875 
C 5.796875 8.1875 4.296875 6.796875 4.296875 4.6875 
C 4.296875 1.1875 8.59375 -1 15.59375 -1 
C 23.296875 -1 31.203125 1.59375 35.90625 5.6875 
C 40.59375 9.796875 43.203125 15.59375 43.203125 22.296875 
C 43.203125 27.390625 41.59375 32.09375 38.703125 35.1875 
C 36.703125 37.390625 34.796875 38.59375 30.40625 40.5 
C 37.296875 45.1875 39.796875 48.890625 39.796875 54.296875 
C 39.796875 62.390625 33.40625 68 24.203125 68 
C 19.203125 68 14.796875 66.296875 11.203125 63.09375 
C 8.203125 60.390625 6.703125 57.796875 4.5 51.796875 
L 6 51.390625 
C 10.09375 58.703125 14.59375 61.984375 20.90625 61.984375 
C 27.40625 61.984375 31.90625 57.59375 31.90625 51.296875 
C 31.90625 47.6875 30.40625 44.09375 27.90625 41.59375 
C 24.90625 38.59375 22.09375 37.09375 15.296875 34.6875 
z
" id="Nimbus_Roman_No9_L_Regular-51"/>
       </defs>
       <use transform="scale(0.996264)" xlink:href="#Nimbus_Roman_No9_L_Regular-49"/>
       <use transform="translate(49.8132 0)scale(0.996264)" xlink:href="#Nimbus_Roman_No9_L_Regular-48"/>
       <use transform="translate(99.626401 36.163231)scale(0.737241)" xlink:href="#Nimbus_Roman_No9_L_Regular-51"/>
      </g>
     </g>
    </g>
    <g id="xtick_5">
     <g id="line2d_9">
      <defs>
       <path d="M 0 0 
L 0 2 
" id="m705863701a" style="stroke:#000000;stroke-width:0.6;"/>
      </defs>
      <g>
       <use style="stroke:#000000;stroke-width:0.6;" x="38.466314" xlink:href="#m705863701a" y="333.36"/>
      </g>
     </g>
    </g>
    <g id="xtick_6">
     <g id="line2d_10">
      <g>
       <use style="stroke:#000000;stroke-width:0.6;" x="52.259296" xlink:href="#m705863701a" y="333.36"/>
      </g>
     </g>
    </g>
    <g id="xtick_7">
     <g id="line2d_11">
      <g>
       <use style="stroke:#000000;stroke-width:0.6;" x="64.425569" xlink:href="#m705863701a" y="333.36"/>
      </g>
     </g>
    </g>
    <g id="xtick_8">
     <g id="line2d_12">
      <g>
       <use style="stroke:#000000;stroke-width:0.6;" x="146.90657" xlink:href="#m705863701a" y="333.36"/>
      </g>
     </g>
    </g>
    <g id="xtick_9">
     <g id="line2d_13">
      <g>
       <use style="stroke:#000000;stroke-width:0.6;" x="188.788655" xlink:href="#m705863701a" y="333.36"/>
      </g>
     </g>
    </g>
    <g id="xtick_10">
     <g id="line2d_14">
      <g>
       <use style="stroke:#000000;stroke-width:0.6;" x="218.504468" xlink:href="#m705863701a" y="333.36"/>
      </g>
     </g>
    </g>
    <g id="xtick_11">
     <g id="line2d_15">
      <g>
       <use style="stroke:#000000;stroke-width:0.6;" x="241.553843" xlink:href="#m705863701a" y="333.36"/>
      </g>
     </g>
    </g>
    <g id="xtick_12">
     <g id="line2d_16">
      <g>
       <use style="stroke:#000000;stroke-width:0.6;" x="260.386554" xlink:href="#m705863701a" y="333.36"/>
      </g>
     </g>
    </g>
    <g id="xtick_13">
     <g id="line2d_17">
      <g>
       <use style="stroke:#000000;stroke-width:0.6;" x="276.309384" xlink:href="#m705863701a" y="333.36"/>
      </g>
     </g>
    </g>
    <g id="xtick_14">
     <g id="line2d_18">
      <g>
       <use style="stroke:#000000;stroke-width:0.6;" x="290.102367" xlink:href="#m705863701a" y="333.36"/>
      </g>
     </g>
    </g>
    <g id="xtick_15">
     <g id="line2d_19">
      <g>
       <use style="stroke:#000000;stroke-width:0.6;" x="302.26864" xlink:href="#m705863701a" y="333.36"/>
      </g>
     </g>
    </g>
    <g id="xtick_16">
     <g id="line2d_20">
      <g>
       <use style="stroke:#000000;stroke-width:0.6;" x="384.74964" xlink:href="#m705863701a" y="333.36"/>
      </g>
     </g>
    </g>
    <g id="xtick_17">
     <g id="line2d_21">
      <g>
       <use style="stroke:#000000;stroke-width:0.6;" x="426.631726" xlink:href="#m705863701a" y="333.36"/>
      </g>
     </g>
    </g>
    <g id="xtick_18">
     <g id="line2d_22">
      <g>
       <use style="stroke:#000000;stroke-width:0.6;" x="456.347538" xlink:href="#m705863701a" y="333.36"/>
      </g>
     </g>
    </g>
    <g id="xtick_19">
     <g id="line2d_23">
      <g>
       <use style="stroke:#000000;stroke-width:0.6;" x="479.396913" xlink:href="#m705863701a" y="333.36"/>
      </g>
     </g>
    </g>
    <g id="xtick_20">
     <g id="line2d_24">
      <g>
       <use style="stroke:#000000;stroke-width:0.6;" x="498.229624" xlink:href="#m705863701a" y="333.36"/>
      </g>
     </g>
    </g>
    <g id="xtick_21">
     <g id="line2d_25">
      <g>
       <use style="stroke:#000000;stroke-width:0.6;" x="514.152454" xlink:href="#m705863701a" y="333.36"/>
      </g>
     </g>
    </g>
    <g id="xtick_22">
     <g id="line2d_26">
      <g>
       <use style="stroke:#000000;stroke-width:0.6;" x="527.945437" xlink:href="#m705863701a" y="333.36"/>
      </g>
     </g>
    </g>
    <g id="xtick_23">
     <g id="line2d_27">
      <g>
       <use style="stroke:#000000;stroke-width:0.6;" x="540.11171" xlink:href="#m705863701a" y="333.36"/>
      </g>
     </g>
    </g>
    <g id="xtick_24">
     <g id="line2d_28">
      <g>
       <use style="stroke:#000000;stroke-width:0.6;" x="622.59271" xlink:href="#m705863701a" y="333.36"/>
      </g>
     </g>
    </g>
    <g id="xtick_25">
     <g id="line2d_29">
      <g>
       <use style="stroke:#000000;stroke-width:0.6;" x="664.474796" xlink:href="#m705863701a" y="333.36"/>
      </g>
     </g>
    </g>
    <g id="xtick_26">
     <g id="line2d_30">
      <g>
       <use style="stroke:#000000;stroke-width:0.6;" x="694.190608" xlink:href="#m705863701a" y="333.36"/>
      </g>
     </g>
    </g>
    <g id="xtick_27">
     <g id="line2d_31">
      <g>
       <use style="stroke:#000000;stroke-width:0.6;" x="717.239983" xlink:href="#m705863701a" y="333.36"/>
      </g>
     </g>
    </g>
    <g id="xtick_28">
     <g id="line2d_32">
      <g>
       <use style="stroke:#000000;stroke-width:0.6;" x="736.072694" xlink:href="#m705863701a" y="333.36"/>
      </g>
     </g>
    </g>
    <g id="xtick_29">
     <g id="line2d_33">
      <g>
       <use style="stroke:#000000;stroke-width:0.6;" x="751.995524" xlink:href="#m705863701a" y="333.36"/>
      </g>
     </g>
    </g>
    <g id="xtick_30">
     <g id="line2d_34">
      <g>
       <use style="stroke:#000000;stroke-width:0.6;" x="765.788507" xlink:href="#m705863701a" y="333.36"/>
      </g>
     </g>
    </g>
    <g id="xtick_31">
     <g id="line2d_35">
      <g>
       <use style="stroke:#000000;stroke-width:0.6;" x="777.95478" xlink:href="#m705863701a" y="333.36"/>
      </g>
     </g>
    </g>
    <g id="xtick_32">
     <g id="line2d_36">
      <g>
       <use style="stroke:#000000;stroke-width:0.6;" x="860.43578" xlink:href="#m705863701a" y="333.36"/>
      </g>
     </g>
    </g>
   </g>
   <g id="matplotlib.axis_2">
    <g id="ytick_1">
     <g id="line2d_37">
      <path clip-path="url(#p2d652bc42d)" d="M 37.263217 277.46799 
L 874.263217 277.46799 
" style="fill:none;stroke:#666666;stroke-linecap:square;stroke-opacity:0.3;stroke-width:0.8;"/>
     </g>
     <g id="line2d_38">
      <defs>
       <path d="M 0 0 
L -3.5 0 
" id="mc69c17fb8d" style="stroke:#000000;stroke-width:0.8;"/>
      </defs>
      <g>
       <use style="stroke:#000000;stroke-width:0.8;" x="37.263217" xlink:href="#mc69c17fb8d" y="277.46799"/>
      </g>
     </g>
     <g id="text_5">
      <!-- $\mathdefault{10^{-15}}$ -->
      <g transform="translate(7.2 280.845279)scale(0.1 -0.1)">
       <defs>
        <path d="M 65.90625 23 
C 67.59375 23 69.40625 23 69.40625 25 
C 69.40625 27 67.59375 27 65.90625 27 
L 11.796875 27 
C 10.09375 27 8.296875 27 8.296875 25 
C 8.296875 23 10.09375 23 11.796875 23 
z
" id="CMSY10-0"/>
        <path d="M 18.09375 58.09375 
L 37.703125 58.09375 
C 39.296875 58.09375 39.703125 58.296875 40 58.984375 
L 43.796875 67.890625 
L 42.90625 68.59375 
C 41.40625 66.5 40.40625 66 38.296875 66 
L 17.40625 66 
L 6.5 42.453125 
C 6.40625 42.265625 6.40625 42.15625 6.40625 41.96875 
C 6.40625 41.46875 6.796875 41.171875 7.59375 41.171875 
C 10.796875 41.171875 14.796875 40.484375 18.90625 39.1875 
C 30.40625 35.53125 35.703125 29.40625 35.703125 19.609375 
C 35.703125 10.109375 29.59375 2.6875 21.796875 2.6875 
C 19.796875 2.6875 18.09375 3.390625 15.09375 5.5625 
C 11.90625 7.84375 9.59375 8.828125 7.5 8.828125 
C 4.59375 8.828125 3.203125 7.640625 3.203125 5.171875 
C 3.203125 1.390625 7.90625 -1 15.40625 -1 
C 23.796875 -1 31 1.6875 36 6.75 
C 40.59375 11.203125 42.703125 16.84375 42.703125 24.359375 
C 42.703125 31.484375 40.796875 36.03125 35.796875 40.96875 
C 31.40625 45.328125 25.703125 47.609375 13.90625 49.6875 
z
" id="Nimbus_Roman_No9_L_Regular-53"/>
       </defs>
       <use transform="scale(0.996264)" xlink:href="#Nimbus_Roman_No9_L_Regular-49"/>
       <use transform="translate(49.8132 0)scale(0.996264)" xlink:href="#Nimbus_Roman_No9_L_Regular-48"/>
       <use transform="translate(99.626401 36.163231)scale(0.737241)" xlink:href="#CMSY10-0"/>
       <use transform="translate(156.909271 36.163231)scale(0.737241)" xlink:href="#Nimbus_Roman_No9_L_Regular-49"/>
       <use transform="translate(193.771313 36.163231)scale(0.737241)" xlink:href="#Nimbus_Roman_No9_L_Regular-53"/>
      </g>
     </g>
    </g>
    <g id="ytick_2">
     <g id="line2d_39">
      <path clip-path="url(#p2d652bc42d)" d="M 37.263217 214.632797 
L 874.263217 214.632797 
" style="fill:none;stroke:#666666;stroke-linecap:square;stroke-opacity:0.3;stroke-width:0.8;"/>
     </g>
     <g id="line2d_40">
      <g>
       <use style="stroke:#000000;stroke-width:0.8;" x="37.263217" xlink:href="#mc69c17fb8d" y="214.632797"/>
      </g>
     </g>
     <g id="text_6">
      <!-- $\mathdefault{10^{-14}}$ -->
      <g transform="translate(7.2 218.010086)scale(0.1 -0.1)">
       <defs>
        <path d="M 47.203125 23.390625 
L 37 23.390625 
L 37 68 
L 32.59375 68 
L 1.203125 23.390625 
L 1.203125 17 
L 29.296875 17 
L 29.296875 0 
L 37 0 
L 37 17 
L 47.203125 17 
z
M 29.203125 23.390625 
L 5.203125 23.390625 
L 29.203125 57.765625 
z
" id="Nimbus_Roman_No9_L_Regular-52"/>
       </defs>
       <use transform="scale(0.996264)" xlink:href="#Nimbus_Roman_No9_L_Regular-49"/>
       <use transform="translate(49.8132 0)scale(0.996264)" xlink:href="#Nimbus_Roman_No9_L_Regular-48"/>
       <use transform="translate(99.626401 36.163231)scale(0.737241)" xlink:href="#CMSY10-0"/>
       <use transform="translate(156.909271 36.163231)scale(0.737241)" xlink:href="#Nimbus_Roman_No9_L_Regular-49"/>
       <use transform="translate(193.771313 36.163231)scale(0.737241)" xlink:href="#Nimbus_Roman_No9_L_Regular-52"/>
      </g>
     </g>
    </g>
    <g id="ytick_3">
     <g id="line2d_41">
      <path clip-path="url(#p2d652bc42d)" d="M 37.263217 151.797603 
L 874.263217 151.797603 
" style="fill:none;stroke:#666666;stroke-linecap:square;stroke-opacity:0.3;stroke-width:0.8;"/>
     </g>
     <g id="line2d_42">
      <g>
       <use style="stroke:#000000;stroke-width:0.8;" x="37.263217" xlink:href="#mc69c17fb8d" y="151.797603"/>
      </g>
     </g>
     <g id="text_7">
      <!-- $\mathdefault{10^{-13}}$ -->
      <g transform="translate(7.2 155.174892)scale(0.1 -0.1)">
       <use transform="scale(0.996264)" xlink:href="#Nimbus_Roman_No9_L_Regular-49"/>
       <use transform="translate(49.8132 0)scale(0.996264)" xlink:href="#Nimbus_Roman_No9_L_Regular-48"/>
       <use transform="translate(99.626401 36.163231)scale(0.737241)" xlink:href="#CMSY10-0"/>
       <use transform="translate(156.909271 36.163231)scale(0.737241)" xlink:href="#Nimbus_Roman_No9_L_Regular-49"/>
       <use transform="translate(193.771313 36.163231)scale(0.737241)" xlink:href="#Nimbus_Roman_No9_L_Regular-51"/>
      </g>
     </g>
    </g>
    <g id="ytick_4">
     <g id="line2d_43">
      <path clip-path="url(#p2d652bc42d)" d="M 37.263217 88.96241 
L 874.263217 88.96241 
" style="fill:none;stroke:#666666;stroke-linecap:square;stroke-opacity:0.3;stroke-width:0.8;"/>
     </g>
     <g id="line2d_44">
      <g>
       <use style="stroke:#000000;stroke-width:0.8;" x="37.263217" xlink:href="#mc69c17fb8d" y="88.96241"/>
      </g>
     </g>
     <g id="text_8">
      <!-- $\mathdefault{10^{-12}}$ -->
      <g transform="translate(7.2 92.339699)scale(0.1 -0.1)">
       <use transform="scale(0.996264)" xlink:href="#Nimbus_Roman_No9_L_Regular-49"/>
       <use transform="translate(49.8132 0)scale(0.996264)" xlink:href="#Nimbus_Roman_No9_L_Regular-48"/>
       <use transform="translate(99.626401 36.163231)scale(0.737241)" xlink:href="#CMSY10-0"/>
       <use transform="translate(156.909271 36.163231)scale(0.737241)" xlink:href="#Nimbus_Roman_No9_L_Regular-49"/>
       <use transform="translate(193.771313 36.163231)scale(0.737241)" xlink:href="#Nimbus_Roman_No9_L_Regular-50"/>
      </g>
     </g>
    </g>
    <g id="ytick_5">
     <g id="line2d_45">
      <path clip-path="url(#p2d652bc42d)" d="M 37.263217 26.127216 
L 874.263217 26.127216 
" style="fill:none;stroke:#666666;stroke-linecap:square;stroke-opacity:0.3;stroke-width:0.8;"/>
     </g>
     <g id="line2d_46">
      <g>
       <use style="stroke:#000000;stroke-width:0.8;" x="37.263217" xlink:href="#mc69c17fb8d" y="26.127216"/>
      </g>
     </g>
     <g id="text_9">
      <!-- $\mathdefault{10^{-11}}$ -->
      <g transform="translate(7.2 29.504505)scale(0.1 -0.1)">
       <use transform="scale(0.996264)" xlink:href="#Nimbus_Roman_No9_L_Regular-49"/>
       <use transform="translate(49.8132 0)scale(0.996264)" xlink:href="#Nimbus_Roman_No9_L_Regular-48"/>
       <use transform="translate(99.626401 36.163231)scale(0.737241)" xlink:href="#CMSY10-0"/>
       <use transform="translate(156.909271 36.163231)scale(0.737241)" xlink:href="#Nimbus_Roman_No9_L_Regular-49"/>
       <use transform="translate(193.771313 36.163231)scale(0.737241)" xlink:href="#Nimbus_Roman_No9_L_Regular-49"/>
      </g>
     </g>
    </g>
    <g id="ytick_6">
     <g id="line2d_47">
      <defs>
       <path d="M 0 0 
L -2 0 
" id="m0324e39a07" style="stroke:#000000;stroke-width:0.6;"/>
      </defs>
      <g>
       <use style="stroke:#000000;stroke-width:0.6;" x="37.263217" xlink:href="#m0324e39a07" y="321.387906"/>
      </g>
     </g>
    </g>
    <g id="ytick_7">
     <g id="line2d_48">
      <g>
       <use style="stroke:#000000;stroke-width:0.6;" x="37.263217" xlink:href="#m0324e39a07" y="310.323178"/>
      </g>
     </g>
    </g>
    <g id="ytick_8">
     <g id="line2d_49">
      <g>
       <use style="stroke:#000000;stroke-width:0.6;" x="37.263217" xlink:href="#m0324e39a07" y="302.472628"/>
      </g>
     </g>
    </g>
    <g id="ytick_9">
     <g id="line2d_50">
      <g>
       <use style="stroke:#000000;stroke-width:0.6;" x="37.263217" xlink:href="#m0324e39a07" y="296.383269"/>
      </g>
     </g>
    </g>
    <g id="ytick_10">
     <g id="line2d_51">
      <g>
       <use style="stroke:#000000;stroke-width:0.6;" x="37.263217" xlink:href="#m0324e39a07" y="291.4079"/>
      </g>
     </g>
    </g>
    <g id="ytick_11">
     <g id="line2d_52">
      <g>
       <use style="stroke:#000000;stroke-width:0.6;" x="37.263217" xlink:href="#m0324e39a07" y="287.201285"/>
      </g>
     </g>
    </g>
    <g id="ytick_12">
     <g id="line2d_53">
      <g>
       <use style="stroke:#000000;stroke-width:0.6;" x="37.263217" xlink:href="#m0324e39a07" y="283.55735"/>
      </g>
     </g>
    </g>
    <g id="ytick_13">
     <g id="line2d_54">
      <g>
       <use style="stroke:#000000;stroke-width:0.6;" x="37.263217" xlink:href="#m0324e39a07" y="280.343171"/>
      </g>
     </g>
    </g>
    <g id="ytick_14">
     <g id="line2d_55">
      <g>
       <use style="stroke:#000000;stroke-width:0.6;" x="37.263217" xlink:href="#m0324e39a07" y="258.552712"/>
      </g>
     </g>
    </g>
    <g id="ytick_15">
     <g id="line2d_56">
      <g>
       <use style="stroke:#000000;stroke-width:0.6;" x="37.263217" xlink:href="#m0324e39a07" y="247.487984"/>
      </g>
     </g>
    </g>
    <g id="ytick_16">
     <g id="line2d_57">
      <g>
       <use style="stroke:#000000;stroke-width:0.6;" x="37.263217" xlink:href="#m0324e39a07" y="239.637434"/>
      </g>
     </g>
    </g>
    <g id="ytick_17">
     <g id="line2d_58">
      <g>
       <use style="stroke:#000000;stroke-width:0.6;" x="37.263217" xlink:href="#m0324e39a07" y="233.548075"/>
      </g>
     </g>
    </g>
    <g id="ytick_18">
     <g id="line2d_59">
      <g>
       <use style="stroke:#000000;stroke-width:0.6;" x="37.263217" xlink:href="#m0324e39a07" y="228.572706"/>
      </g>
     </g>
    </g>
    <g id="ytick_19">
     <g id="line2d_60">
      <g>
       <use style="stroke:#000000;stroke-width:0.6;" x="37.263217" xlink:href="#m0324e39a07" y="224.366092"/>
      </g>
     </g>
    </g>
    <g id="ytick_20">
     <g id="line2d_61">
      <g>
       <use style="stroke:#000000;stroke-width:0.6;" x="37.263217" xlink:href="#m0324e39a07" y="220.722156"/>
      </g>
     </g>
    </g>
    <g id="ytick_21">
     <g id="line2d_62">
      <g>
       <use style="stroke:#000000;stroke-width:0.6;" x="37.263217" xlink:href="#m0324e39a07" y="217.507978"/>
      </g>
     </g>
    </g>
    <g id="ytick_22">
     <g id="line2d_63">
      <g>
       <use style="stroke:#000000;stroke-width:0.6;" x="37.263217" xlink:href="#m0324e39a07" y="195.717519"/>
      </g>
     </g>
    </g>
    <g id="ytick_23">
     <g id="line2d_64">
      <g>
       <use style="stroke:#000000;stroke-width:0.6;" x="37.263217" xlink:href="#m0324e39a07" y="184.65279"/>
      </g>
     </g>
    </g>
    <g id="ytick_24">
     <g id="line2d_65">
      <g>
       <use style="stroke:#000000;stroke-width:0.6;" x="37.263217" xlink:href="#m0324e39a07" y="176.802241"/>
      </g>
     </g>
    </g>
    <g id="ytick_25">
     <g id="line2d_66">
      <g>
       <use style="stroke:#000000;stroke-width:0.6;" x="37.263217" xlink:href="#m0324e39a07" y="170.712881"/>
      </g>
     </g>
    </g>
    <g id="ytick_26">
     <g id="line2d_67">
      <g>
       <use style="stroke:#000000;stroke-width:0.6;" x="37.263217" xlink:href="#m0324e39a07" y="165.737512"/>
      </g>
     </g>
    </g>
    <g id="ytick_27">
     <g id="line2d_68">
      <g>
       <use style="stroke:#000000;stroke-width:0.6;" x="37.263217" xlink:href="#m0324e39a07" y="161.530898"/>
      </g>
     </g>
    </g>
    <g id="ytick_28">
     <g id="line2d_69">
      <g>
       <use style="stroke:#000000;stroke-width:0.6;" x="37.263217" xlink:href="#m0324e39a07" y="157.886963"/>
      </g>
     </g>
    </g>
    <g id="ytick_29">
     <g id="line2d_70">
      <g>
       <use style="stroke:#000000;stroke-width:0.6;" x="37.263217" xlink:href="#m0324e39a07" y="154.672784"/>
      </g>
     </g>
    </g>
    <g id="ytick_30">
     <g id="line2d_71">
      <g>
       <use style="stroke:#000000;stroke-width:0.6;" x="37.263217" xlink:href="#m0324e39a07" y="132.882325"/>
      </g>
     </g>
    </g>
    <g id="ytick_31">
     <g id="line2d_72">
      <g>
       <use style="stroke:#000000;stroke-width:0.6;" x="37.263217" xlink:href="#m0324e39a07" y="121.817597"/>
      </g>
     </g>
    </g>
    <g id="ytick_32">
     <g id="line2d_73">
      <g>
       <use style="stroke:#000000;stroke-width:0.6;" x="37.263217" xlink:href="#m0324e39a07" y="113.967047"/>
      </g>
     </g>
    </g>
    <g id="ytick_33">
     <g id="line2d_74">
      <g>
       <use style="stroke:#000000;stroke-width:0.6;" x="37.263217" xlink:href="#m0324e39a07" y="107.877688"/>
      </g>
     </g>
    </g>
    <g id="ytick_34">
     <g id="line2d_75">
      <g>
       <use style="stroke:#000000;stroke-width:0.6;" x="37.263217" xlink:href="#m0324e39a07" y="102.902319"/>
      </g>
     </g>
    </g>
    <g id="ytick_35">
     <g id="line2d_76">
      <g>
       <use style="stroke:#000000;stroke-width:0.6;" x="37.263217" xlink:href="#m0324e39a07" y="98.695704"/>
      </g>
     </g>
    </g>
    <g id="ytick_36">
     <g id="line2d_77">
      <g>
       <use style="stroke:#000000;stroke-width:0.6;" x="37.263217" xlink:href="#m0324e39a07" y="95.051769"/>
      </g>
     </g>
    </g>
    <g id="ytick_37">
     <g id="line2d_78">
      <g>
       <use style="stroke:#000000;stroke-width:0.6;" x="37.263217" xlink:href="#m0324e39a07" y="91.83759"/>
      </g>
     </g>
    </g>
    <g id="ytick_38">
     <g id="line2d_79">
      <g>
       <use style="stroke:#000000;stroke-width:0.6;" x="37.263217" xlink:href="#m0324e39a07" y="70.047132"/>
      </g>
     </g>
    </g>
    <g id="ytick_39">
     <g id="line2d_80">
      <g>
       <use style="stroke:#000000;stroke-width:0.6;" x="37.263217" xlink:href="#m0324e39a07" y="58.982403"/>
      </g>
     </g>
    </g>
    <g id="ytick_40">
     <g id="line2d_81">
      <g>
       <use style="stroke:#000000;stroke-width:0.6;" x="37.263217" xlink:href="#m0324e39a07" y="51.131854"/>
      </g>
     </g>
    </g>
    <g id="ytick_41">
     <g id="line2d_82">
      <g>
       <use style="stroke:#000000;stroke-width:0.6;" x="37.263217" xlink:href="#m0324e39a07" y="45.042494"/>
      </g>
     </g>
    </g>
    <g id="ytick_42">
     <g id="line2d_83">
      <g>
       <use style="stroke:#000000;stroke-width:0.6;" x="37.263217" xlink:href="#m0324e39a07" y="40.067125"/>
      </g>
     </g>
    </g>
    <g id="ytick_43">
     <g id="line2d_84">
      <g>
       <use style="stroke:#000000;stroke-width:0.6;" x="37.263217" xlink:href="#m0324e39a07" y="35.860511"/>
      </g>
     </g>
    </g>
    <g id="ytick_44">
     <g id="line2d_85">
      <g>
       <use style="stroke:#000000;stroke-width:0.6;" x="37.263217" xlink:href="#m0324e39a07" y="32.216576"/>
      </g>
     </g>
    </g>
    <g id="ytick_45">
     <g id="line2d_86">
      <g>
       <use style="stroke:#000000;stroke-width:0.6;" x="37.263217" xlink:href="#m0324e39a07" y="29.002397"/>
      </g>
     </g>
    </g>
    <g id="ytick_46">
     <g id="line2d_87">
      <g>
       <use style="stroke:#000000;stroke-width:0.6;" x="37.263217" xlink:href="#m0324e39a07" y="7.211938"/>
      </g>
     </g>
    </g>
   </g>
   <g id="line2d_88">
    <path clip-path="url(#p2d652bc42d)" d="M 146.861497 357.471406 
L 146.90657 318.534545 
L 146.932935 357.471406 
M 218.48045 357.471406 
L 218.504468 307.469817 
L 241.553843 299.619267 
L 260.386554 288.554539 
L 276.309384 318.534545 
L 302.26864 318.534545 
L 313.151742 299.619267 
L 331.984452 299.619267 
L 340.252378 293.529908 
L 347.907282 284.347925 
L 373.866538 284.347925 
L 379.451354 293.529908 
L 384.74964 284.347925 
L 394.594603 284.347925 
L 399.186201 280.703989 
L 403.582351 274.61463 
L 411.850277 274.61463 
L 415.748624 280.703989 
L 419.505181 274.61463 
L 423.129901 274.61463 
L 426.631726 280.703989 
L 430.018715 284.347925 
L 433.298163 280.703989 
L 436.476689 284.347925 
L 439.560319 280.703989 
L 442.554556 280.703989 
L 445.464436 274.61463 
L 448.294584 267.454977 
L 451.049252 267.454977 
L 453.732362 269.639261 
L 456.347538 269.639261 
L 458.898135 263.549902 
L 461.387266 260.134327 
L 463.817824 260.134327 
L 466.192502 263.549902 
L 468.513811 260.134327 
L 470.784099 260.134327 
L 473.00556 263.549902 
L 475.180249 260.134327 
L 477.310096 260.134327 
L 479.396913 263.549902 
L 481.442405 263.549902 
L 483.448175 260.134327 
L 487.346522 260.134327 
L 489.241877 267.454977 
L 491.103079 263.549902 
L 492.931338 260.134327 
L 494.727799 263.549902 
L 499.937001 263.549902 
L 501.616614 260.134327 
L 506.49755 260.134327 
L 508.074587 258.574533 
L 509.627909 255.699352 
L 512.666185 255.699352 
L 514.152454 258.574533 
L 515.617641 255.699352 
L 517.062335 255.699352 
L 518.487101 254.367918 
L 519.892482 254.367918 
L 521.278999 255.699352 
L 523.997417 255.699352 
L 525.330261 254.367918 
L 526.646125 254.367918 
L 527.945437 255.699352 
L 529.228608 254.367918 
L 530.496034 255.699352 
L 531.748097 254.367918 
L 532.985165 249.609992 
L 534.207592 248.539699 
L 536.609885 244.634624 
L 537.7904 248.539699 
L 538.957575 251.885391 
L 540.11171 249.609992 
L 542.381997 249.609992 
L 543.498699 251.885391 
L 545.696526 251.885391 
L 546.778147 254.367918 
L 548.907995 254.367918 
L 549.956673 251.885391 
L 555.046073 251.885391 
L 556.03454 249.609992 
L 557.013636 248.539699 
L 557.98354 251.885391 
L 558.94442 249.609992 
L 559.896445 251.885391 
L 560.839775 249.609992 
L 561.774568 249.609992 
L 562.700977 248.539699 
L 563.619152 246.517368 
L 568.091449 246.517368 
L 568.963133 248.539699 
L 569.827522 249.609992 
L 571.534899 249.609992 
L 572.378119 246.517368 
L 573.214512 244.634624 
L 574.044187 243.739823 
L 578.095448 243.739823 
L 578.886977 242.033706 
L 579.672486 241.219049 
L 581.225807 241.219049 
L 581.993795 239.659255 
L 584.264083 239.659255 
L 585.009891 238.183815 
L 585.750352 237.474971 
L 586.485544 237.474971 
L 587.215539 236.110238 
L 587.940412 236.110238 
L 588.660233 237.474971 
L 589.375073 236.110238 
L 590.084999 236.110238 
L 590.79008 234.810517 
L 592.185965 237.474971 
L 592.876897 238.183815 
L 593.563238 237.474971 
L 595.595316 237.474971 
L 596.263887 238.183815 
L 596.928159 238.183815 
L 597.588186 237.474971 
L 598.244023 237.474971 
L 598.895722 238.183815 
L 599.543335 238.183815 
L 600.186913 239.659255 
L 600.826506 237.474971 
L 601.462163 237.474971 
L 602.093932 236.110238 
L 602.721861 237.474971 
L 603.345995 238.183815 
L 603.966381 238.183815 
L 604.583063 237.474971 
L 607.013621 237.474971 
L 607.612428 238.183815 
L 608.207783 238.183815 
L 609.388298 241.219049 
L 609.973535 239.659255 
L 610.555474 241.219049 
L 611.134153 239.659255 
L 611.709608 241.219049 
L 613.416985 241.219049 
L 614.539756 238.183815 
L 615.096598 237.474971 
L 615.650454 237.474971 
L 616.201356 236.110238 
L 616.749336 234.183156 
L 617.294424 234.183156 
L 617.836651 234.810517 
L 618.376046 234.183156 
L 618.912639 232.970113 
L 619.446459 234.183156 
L 619.977534 232.970113 
L 620.505893 232.383231 
L 621.031563 232.383231 
L 621.554571 231.246026 
L 622.074945 231.246026 
L 622.59271 229.624421 
L 623.620519 229.624421 
L 624.130613 230.154321 
L 624.638201 232.383231 
L 625.143307 232.970113 
L 626.146169 232.970113 
L 626.643972 234.183156 
L 627.139387 234.183156 
L 627.632438 232.383231 
L 628.123146 232.383231 
L 628.611535 231.246026 
L 629.097625 232.383231 
L 629.581438 232.970113 
L 630.062996 232.970113 
L 630.542319 234.810517 
L 631.494343 234.810517 
L 631.967085 236.110238 
L 634.298876 236.110238 
L 634.758983 238.183815 
L 635.21705 239.659255 
L 635.673095 238.183815 
L 636.579188 238.183815 
L 637.029271 237.474971 
L 637.477401 237.474971 
L 637.923596 236.110238 
L 638.810245 236.110238 
L 639.250731 234.810517 
L 639.689347 234.183156 
L 640.126109 232.970113 
L 640.561031 232.970113 
L 640.99413 232.383231 
L 641.425421 232.383231 
L 641.854918 232.970113 
L 642.282637 232.383231 
L 642.708592 232.970113 
L 643.132797 234.183156 
L 643.976018 234.183156 
L 644.395061 234.810517 
L 644.81241 234.183156 
L 645.228081 234.810517 
L 645.642085 234.810517 
L 646.054437 234.183156 
L 647.687576 234.183156 
L 648.091858 232.970113 
L 648.494564 232.383231 
L 648.895706 232.383231 
L 649.295296 231.246026 
L 649.693347 231.246026 
L 650.089869 230.154321 
L 650.484875 231.246026 
L 650.878376 231.246026 
L 651.270384 229.624421 
L 651.66091 230.154321 
L 652.049965 230.154321 
L 652.43756 228.594526 
L 653.208413 228.594526 
L 653.591694 227.60209 
L 654.354014 227.60209 
L 655.110749 229.624421 
L 655.487048 228.594526 
L 655.861981 228.594526 
L 656.235558 227.60209 
L 656.607789 228.594526 
L 656.978683 228.594526 
L 657.348251 227.60209 
L 657.7165 227.119087 
L 658.083442 228.594526 
L 658.449085 228.594526 
L 658.813437 227.60209 
L 659.17651 228.594526 
L 659.53831 228.594526 
L 659.898848 229.624421 
L 660.258131 229.624421 
L 660.61617 230.154321 
L 660.972971 231.246026 
L 661.328544 231.246026 
L 661.682898 230.154321 
L 662.03604 229.624421 
L 662.387979 229.624421 
L 662.738722 228.594526 
L 663.436657 228.594526 
L 663.783864 229.624421 
L 664.474796 229.624421 
L 664.818536 230.154321 
L 665.161137 229.624421 
L 665.842947 229.624421 
L 666.182172 230.154321 
L 666.857298 230.154321 
L 667.193214 231.246026 
L 667.528041 231.246026 
L 667.861785 232.970113 
L 668.194455 232.383231 
L 668.526057 232.383231 
L 669.186085 230.154321 
L 669.841921 232.383231 
L 670.49362 230.154321 
L 670.817934 231.246026 
L 671.141233 230.154321 
L 671.463524 231.246026 
L 671.784811 230.154321 
L 672.105103 230.154321 
L 672.424404 231.246026 
L 672.742722 230.154321 
L 673.060061 229.624421 
L 673.69183 229.624421 
L 674.006272 227.60209 
L 674.319759 228.594526 
L 674.632298 227.60209 
L 675.254552 229.624421 
L 675.564279 230.154321 
L 676.487927 230.154321 
L 676.793983 229.624421 
L 677.403389 227.60209 
L 677.706749 227.60209 
L 678.00922 227.119087 
L 678.611519 227.119087 
L 678.911356 227.60209 
L 679.210326 227.60209 
L 679.508433 227.119087 
L 679.805682 227.119087 
L 680.102078 226.177995 
L 680.397626 227.119087 
L 680.69233 227.119087 
L 680.986197 227.60209 
L 681.279229 228.594526 
L 681.571433 227.60209 
L 681.862812 227.119087 
L 682.153372 227.60209 
L 682.732051 227.60209 
L 683.02018 228.594526 
L 683.879773 228.594526 
L 684.164722 227.60209 
L 684.448887 227.60209 
L 684.732273 228.594526 
L 685.014883 228.594526 
L 685.296722 227.119087 
L 685.577794 227.119087 
L 685.858103 227.60209 
L 686.137654 227.119087 
L 686.41645 227.119087 
L 686.694496 226.177995 
L 688.073608 226.177995 
L 688.347234 225.719345 
L 688.620138 223.958155 
L 689.434549 223.958155 
L 689.704599 224.824545 
L 689.973944 224.824545 
L 690.242589 225.719345 
L 690.510537 224.824545 
L 691.044357 224.824545 
L 691.310236 223.958155 
L 691.575432 223.958155 
L 691.83995 223.535062 
L 692.103791 222.70806 
L 692.366961 223.535062 
L 692.629461 222.70806 
L 692.891297 222.70806 
L 693.15247 221.905385 
L 693.412984 221.905385 
L 693.672843 222.70806 
L 693.93205 222.70806 
L 694.190608 221.905385 
L 694.448521 221.512731 
L 694.962422 221.512731 
L 695.473779 219.629986 
L 695.728512 219.629986 
L 695.982617 220.367571 
L 696.2361 220.743977 
L 696.488961 221.512731 
L 696.741205 221.905385 
L 696.992835 221.512731 
L 697.243853 221.905385 
L 698.24187 224.824545 
L 698.489875 224.824545 
L 698.737286 223.958155 
L 698.984105 223.958155 
L 699.230336 223.535062 
L 699.475982 222.70806 
L 699.721045 222.70806 
L 699.965528 223.535062 
L 700.452764 221.905385 
L 700.695523 223.535062 
L 700.937713 222.70806 
L 701.179336 223.535062 
L 701.420396 222.70806 
L 701.660894 222.70806 
L 701.900834 223.535062 
L 703.092242 223.535062 
L 703.328883 222.70806 
L 703.564984 223.535062 
L 703.800546 224.824545 
L 704.035572 224.824545 
L 704.270064 223.958155 
L 704.504026 223.535062 
L 704.737458 223.958155 
L 704.970365 223.958155 
L 705.434608 225.719345 
L 705.665949 223.958155 
L 705.896774 223.535062 
L 706.127084 223.535062 
L 706.586169 221.905385 
L 707.043222 221.905385 
L 707.270993 221.512731 
L 707.951307 221.512731 
L 708.177086 220.743977 
L 708.627169 220.743977 
L 708.851477 221.512731 
L 709.0753 221.512731 
L 709.298638 221.905385 
L 709.521494 221.512731 
L 709.743871 221.512731 
L 709.96577 221.905385 
L 710.408143 221.905385 
L 710.628621 222.70806 
L 710.84863 221.905385 
L 711.06817 223.535062 
L 711.287246 223.958155 
L 711.724007 223.958155 
L 712.15893 225.719345 
L 713.452816 225.719345 
L 713.666897 224.824545 
L 713.880535 224.824545 
L 714.093732 223.958155 
L 714.518811 223.958155 
L 714.730696 223.535062 
L 715.153166 223.535062 
L 715.573916 221.512731 
L 715.78365 221.512731 
L 715.992959 221.905385 
L 716.410309 223.535062 
L 716.825979 221.905385 
L 717.033189 221.905385 
L 717.239983 221.512731 
L 717.446365 221.905385 
L 717.652335 222.70806 
L 717.857895 222.70806 
L 718.063047 221.905385 
L 718.676069 221.905385 
L 718.879604 222.70806 
L 719.082739 222.70806 
L 719.285475 221.905385 
L 719.891306 221.905385 
L 720.092463 222.70806 
L 720.293228 221.905385 
L 720.493605 221.905385 
L 720.693593 221.512731 
L 721.291245 221.512731 
L 721.489697 220.743977 
L 721.885459 220.743977 
L 722.082773 220.367571 
L 722.279711 220.743977 
L 722.868282 220.743977 
L 723.258808 221.905385 
L 723.453519 221.905385 
L 723.647863 222.70806 
L 723.841842 221.905385 
L 724.035458 222.70806 
L 724.228711 221.905385 
L 724.421604 221.905385 
L 724.614137 222.70806 
L 724.806312 222.70806 
L 725.3807 220.367571 
L 725.761859 220.367571 
L 725.951912 220.743977 
L 726.141617 220.743977 
L 726.330973 220.367571 
L 726.519983 220.367571 
L 726.708648 219.629986 
L 726.896969 220.743977 
L 727.084947 220.743977 
L 727.272583 220.367571 
L 727.45988 218.911814 
L 727.646837 218.559693 
L 728.01974 218.559693 
L 728.205688 217.868796 
L 728.576582 217.868796 
L 728.761531 218.911814 
L 729.130438 217.19496 
L 729.314399 216.86418 
L 729.498032 216.86418 
L 729.68134 216.214412 
L 729.864323 216.214412 
L 730.046983 215.895239 
L 730.774408 215.895239 
L 730.955467 215.267878 
L 731.316635 215.267878 
L 731.496746 214.654617 
L 732.035204 216.214412 
L 732.214068 215.895239 
L 732.392623 215.267878 
L 732.570869 215.895239 
L 732.748809 215.895239 
L 732.926443 216.214412 
L 733.103771 216.86418 
L 733.280796 215.895239 
L 733.810057 215.895239 
L 733.985877 214.654617 
L 734.686178 214.654617 
L 734.860513 215.267878 
L 735.034555 215.267878 
L 735.554929 216.86418 
L 736.416435 216.86418 
L 736.587877 217.19496 
L 736.759035 217.868796 
L 737.100503 216.86418 
L 737.270814 216.86418 
L 737.440846 217.19496 
L 737.780071 217.19496 
L 738.118185 218.559693 
L 738.455197 218.559693 
L 738.623291 217.868796 
L 738.791112 218.559693 
L 738.958661 217.868796 
L 739.125939 217.868796 
L 739.292946 217.19496 
L 739.459684 217.19496 
L 739.626153 217.868796 
L 739.792354 217.868796 
L 740.123956 218.911814 
L 740.289358 218.911814 
L 740.454497 219.629986 
L 740.948333 219.629986 
L 741.112422 218.911814 
L 741.276251 218.911814 
L 741.43982 218.559693 
L 741.928979 218.559693 
L 742.091519 218.911814 
L 742.253803 218.559693 
L 742.415833 218.559693 
L 742.900403 216.86418 
L 743.38271 216.86418 
L 743.54298 216.214412 
L 743.703001 216.214412 
L 744.022303 217.19496 
L 744.181584 216.86418 
L 744.34062 217.19496 
L 744.816265 217.19496 
L 744.974327 216.86418 
L 745.132148 216.86418 
L 745.289729 217.19496 
L 745.917657 217.19496 
L 746.074045 216.86418 
L 746.230196 217.19496 
L 746.386111 217.868796 
L 746.85245 217.868796 
L 747.00743 217.19496 
L 747.162178 217.868796 
L 747.470979 217.868796 
L 747.625034 218.559693 
L 747.77886 218.559693 
L 747.932457 218.911814 
L 748.085826 218.911814 
L 748.238967 220.367571 
L 748.391882 220.367571 
L 748.544571 220.743977 
L 748.849273 221.905385 
L 749.001287 221.512731 
L 749.153079 220.743977 
L 749.304647 221.512731 
L 749.455994 221.512731 
L 749.607119 220.743977 
L 749.758023 221.512731 
L 749.908707 221.512731 
L 750.059172 221.905385 
L 750.209417 222.70806 
L 750.359445 221.905385 
L 750.509255 222.70806 
L 750.658848 221.905385 
L 750.808224 221.905385 
L 750.957385 221.512731 
L 751.106331 220.367571 
L 751.255063 220.367571 
L 751.699976 218.559693 
L 751.847856 218.559693 
L 752.437266 215.895239 
L 752.730715 215.895239 
L 752.877128 214.654617 
L 753.023333 215.267878 
L 753.169331 215.267878 
L 753.460711 216.86418 
L 753.606093 216.214412 
L 754.041015 216.214412 
L 754.185583 215.895239 
L 754.32995 215.267878 
L 754.474114 215.895239 
L 754.618078 215.895239 
L 754.761841 216.214412 
L 754.905405 215.895239 
L 755.191935 215.895239 
L 755.334902 216.214412 
L 755.477672 216.86418 
L 755.762621 216.86418 
L 755.904801 217.19496 
L 756.046786 217.19496 
L 756.188576 217.868796 
L 756.330171 217.19496 
L 756.471573 217.868796 
L 756.612781 217.868796 
L 756.753797 218.559693 
L 757.035252 218.559693 
L 757.175692 218.911814 
L 757.315942 217.868796 
L 757.456002 218.559693 
L 757.595872 217.868796 
L 757.735553 218.559693 
L 757.875045 218.559693 
L 758.014349 217.19496 
L 758.153465 217.19496 
L 758.292394 216.86418 
L 758.431137 217.19496 
L 758.569694 216.86418 
L 758.708065 216.214412 
L 758.846251 216.214412 
L 759.122069 214.654617 
L 759.259703 214.654617 
L 759.397153 215.267878 
L 759.534421 215.267878 
L 759.671506 214.654617 
L 760.081675 216.214412 
L 760.218036 216.214412 
L 760.354218 215.895239 
L 760.490221 216.214412 
L 760.626044 215.895239 
L 761.032447 215.895239 
L 761.16756 216.214412 
L 761.302497 216.86418 
L 761.840487 216.86418 
L 761.974548 217.19496 
L 762.108435 216.86418 
L 762.509059 216.86418 
L 762.642255 216.214412 
L 763.040818 216.214412 
L 763.173331 215.895239 
L 763.833358 213.179178 
L 763.964859 213.179178 
L 764.096193 212.893427 
L 764.22736 212.893427 
L 764.35836 212.330748 
L 764.880707 212.330748 
L 765.010883 212.893427 
L 765.140894 212.330748 
L 765.270742 212.893427 
L 765.659309 212.893427 
L 765.788507 212.330748 
L 765.917544 212.330748 
L 766.046419 212.0537 
L 766.175135 211.507902 
L 766.432085 212.330748 
L 766.560321 212.0537 
L 766.688397 212.330748 
L 766.816316 212.893427 
L 766.944076 212.330748 
L 767.071678 212.330748 
L 767.199122 213.179178 
L 767.32641 213.179178 
L 767.453541 213.759816 
L 767.580516 213.759816 
L 767.707335 213.179178 
L 767.960506 213.179178 
L 768.08686 213.759816 
L 768.213059 213.179178 
L 769.092161 213.179178 
L 769.217139 212.330748 
L 769.466641 212.330748 
L 769.591167 212.893427 
L 769.963845 212.893427 
L 770.087773 212.330748 
L 770.211553 212.330748 
L 770.335184 212.893427 
L 770.458667 212.893427 
L 770.582004 213.179178 
L 770.705192 213.179178 
L 771.07388 214.654617 
L 771.196484 213.759816 
L 771.441257 214.654617 
L 771.685451 214.654617 
L 771.807331 215.267878 
L 771.929069 215.267878 
L 772.050662 214.654617 
L 772.172113 215.267878 
L 772.293421 215.267878 
L 772.414587 214.654617 
L 772.535611 214.654617 
L 772.656494 213.759816 
L 773.018294 213.759816 
L 773.138613 213.179178 
L 773.258792 213.179178 
L 773.498732 212.893427 
L 773.738115 213.179178 
L 773.857599 213.179178 
L 773.976945 213.759816 
L 774.096154 213.759816 
L 774.452955 212.330748 
L 774.571616 212.0537 
L 774.808528 212.330748 
L 775.162882 211.507902 
L 775.28073 212.0537 
L 775.63347 210.709143 
L 775.867963 210.972807 
L 775.98501 210.972807 
L 776.218706 210.709143 
L 776.335357 210.972807 
L 776.568263 212.330748 
L 776.68452 212.893427 
L 776.916641 212.893427 
L 777.379325 213.759816 
L 777.724982 213.759816 
L 777.839945 214.353078 
L 777.95478 213.759816 
L 778.184067 213.759816 
L 778.412847 214.654617 
L 778.527047 214.654617 
L 778.641121 214.353078 
L 778.755069 213.179178 
L 778.868891 213.759816 
L 778.982589 213.759816 
L 779.096161 213.179178 
L 779.43613 214.654617 
L 779.662156 214.654617 
L 780.000271 213.759816 
L 780.225067 214.353078 
L 780.337283 214.353078 
L 780.449376 214.654617 
L 780.896536 213.759816 
L 781.230641 213.759816 
L 781.452779 212.893427 
L 781.785092 213.759816 
L 782.006041 212.893427 
L 782.116339 212.893427 
L 782.336582 212.330748 
L 782.556357 212.330748 
L 782.666069 212.0537 
L 783.212888 213.179178 
L 783.430808 212.893427 
L 783.973604 212.893427 
L 784.081822 212.330748 
L 784.297918 212.893427 
L 784.513563 212.0537 
L 784.621217 212.330748 
L 784.836189 212.0537 
L 784.943508 212.330748 
L 785.050715 212.0537 
L 785.264795 212.893427 
L 785.37167 212.330748 
L 785.585087 212.893427 
L 785.904388 211.507902 
L 786.010603 211.507902 
L 786.222706 212.330748 
L 786.328594 212.330748 
L 786.540045 212.893427 
L 786.751065 212.330748 
L 786.961654 212.0537 
L 787.171814 212.330748 
L 787.381548 212.330748 
L 787.590857 212.893427 
L 788.008207 210.709143 
L 788.112282 210.709143 
L 788.216251 210.189337 
L 788.423877 210.709143 
L 788.527534 210.709143 
L 788.631087 210.189337 
L 788.837882 210.972807 
L 789.044263 210.709143 
L 789.250233 210.709143 
L 789.55842 209.679248 
L 789.660945 209.679248 
L 790.070031 208.931558 
L 790.273968 209.427735 
L 790.375785 209.427735 
L 790.477502 209.679248 
L 790.680637 209.427735 
L 790.984592 210.189337 
L 791.186733 209.679248 
L 791.891127 209.679248 
L 792.191546 210.972807 
L 792.39134 210.189337 
L 792.491093 210.709143 
L 792.59075 210.189337 
L 792.789775 210.709143 
L 792.889143 210.709143 
L 793.186678 208.931558 
L 793.384559 209.427735 
L 793.975938 209.427735 
L 794.172314 209.679248 
L 794.270363 209.679248 
L 794.368318 210.189337 
L 794.466181 209.427735 
L 794.661628 209.679248 
L 795.051417 209.679248 
L 795.245761 209.427735 
L 795.439741 209.679248 
L 795.536594 209.427735 
L 795.730028 209.679248 
L 796.115814 209.679248 
L 796.78749 208.203809 
L 796.978599 208.203809 
L 797.169354 207.729206 
L 797.359757 207.032428 
L 797.549811 207.494965 
L 797.644706 207.494965 
L 797.739515 207.729206 
L 797.928871 207.494965 
L 798.117881 207.494965 
L 798.306546 207.729206 
L 798.494867 207.729206 
L 798.588899 207.494965 
L 798.776706 208.203809 
L 799.151299 206.577602 
L 799.244736 206.577602 
L 799.338087 206.353 
L 799.524539 206.577602 
L 799.617638 207.494965 
L 799.803586 206.577602 
L 799.896434 207.032428 
L 799.9892 206.353 
L 800.17448 207.032428 
L 800.451779 205.472634 
L 800.544047 205.256909 
L 800.636233 205.909267 
L 800.820358 205.472634 
L 800.912297 205.472634 
L 801.004155 205.256909 
L 801.462222 206.577602 
L 801.553592 207.032428 
L 801.73609 206.577602 
L 802.281658 206.577602 
L 802.462875 206.353 
L 802.914533 206.353 
L 803.094644 207.494965 
L 803.184583 207.494965 
L 803.364224 208.203809 
L 803.543554 209.427735 
L 803.811966 208.444242 
L 803.901282 208.444242 
L 804.079683 208.203809 
L 804.257776 208.444242 
L 804.435562 207.729206 
L 804.613043 208.203809 
L 804.878695 208.931558 
L 804.967093 208.444242 
L 805.143664 209.679248 
L 805.231837 209.679248 
L 805.407956 210.189337 
L 805.495903 210.189337 
L 805.583775 209.679248 
L 805.759296 210.189337 
L 806.022019 210.189337 
L 806.196798 209.427735 
L 806.284076 209.427735 
L 806.371281 208.931558 
L 806.545469 209.679248 
L 806.719365 208.931558 
L 806.806203 208.931558 
L 806.979661 208.203809 
L 807.06628 208.203809 
L 807.152827 208.444242 
L 807.325704 207.494965 
L 807.498292 208.203809 
L 807.670592 207.729206 
L 807.842606 207.494965 
L 807.928505 207.729206 
L 808.014333 207.032428 
L 808.10009 207.494965 
L 808.27139 207.032428 
L 808.356933 207.494965 
L 808.698401 205.909267 
L 808.783592 205.909267 
L 808.868713 205.256909 
L 809.038744 205.472634 
L 809.123655 205.472634 
L 809.208496 205.909267 
L 809.377969 205.472634 
L 809.884727 205.472634 
L 809.968945 205.909267 
L 810.137177 205.472634 
L 810.305134 205.256909 
L 810.389011 205.256909 
L 810.55656 204.83051 
L 810.640232 204.619784 
L 810.807375 204.83051 
L 810.890845 204.83051 
L 811.057582 205.256909 
L 811.14085 205.256909 
L 811.307185 204.619784 
L 811.390252 204.619784 
L 811.473253 204.20315 
L 811.639053 205.256909 
L 811.804589 204.83051 
L 812.052395 204.20315 
L 812.21727 204.83051 
L 812.381882 204.20315 
L 812.628309 203.188573 
L 812.71032 203.188573 
L 812.874149 203.589889 
L 812.955966 203.589889 
L 813.119406 202.597453 
L 813.201029 202.793074 
L 813.282587 203.188573 
L 813.364082 202.793074 
L 813.445512 203.188573 
L 813.689417 202.210369 
L 813.851701 202.018866 
L 814.013731 202.018866 
L 814.175507 202.210369 
L 814.498301 200.714708 
L 814.578842 200.714708 
L 814.739736 200.174315 
L 814.90038 200.174315 
L 815.140878 199.470044 
L 815.22092 199.819907 
L 815.380818 199.470044 
L 815.540468 199.470044 
L 815.620201 200.174315 
L 815.699872 199.819907 
L 815.859031 200.174315 
L 816.017945 199.819907 
L 816.176615 199.819907 
L 816.335041 200.174315 
L 816.651166 200.174315 
L 816.966327 201.639847 
L 817.202069 201.639847 
L 817.28053 201.266019 
L 817.515556 202.210369 
L 817.671943 202.210369 
L 817.750048 202.597453 
L 817.828094 202.210369 
L 817.98401 202.793074 
L 818.372772 201.639847 
L 818.527868 201.266019 
L 818.605329 201.081008 
L 818.760076 201.266019 
L 818.837363 201.266019 
L 818.914592 201.639847 
L 819.145934 200.714708 
L 819.222932 201.081008 
L 819.376758 200.174315 
L 819.453585 200.174315 
L 819.530355 200.353259 
L 819.98978 199.470044 
L 820.142469 199.819907 
L 820.218729 199.470044 
L 820.37108 199.819907 
L 820.523206 199.819907 
L 820.675109 199.470044 
L 820.826789 199.470044 
L 820.902546 199.29678 
L 821.053892 199.470044 
L 821.205017 198.953518 
L 821.355921 199.29678 
L 821.807316 199.29678 
L 821.882357 199.470044 
L 821.957343 199.29678 
L 822.107153 199.819907 
L 822.331461 199.819907 
L 822.48073 199.470044 
L 822.555284 199.470044 
L 822.70423 199.29678 
L 822.778622 199.29678 
L 822.852961 199.470044 
L 823.001478 198.953518 
L 823.075657 199.470044 
L 823.149783 199.29678 
L 823.223855 199.29678 
L 823.445754 198.783492 
L 823.519615 198.783492 
L 823.667177 198.953518 
L 823.74088 198.953518 
L 823.888127 198.783492 
L 824.035165 198.953518 
L 824.181993 198.953518 
L 824.401846 199.470044 
L 824.475026 199.470044 
L 824.76723 200.353259 
L 824.840152 200.353259 
L 824.913022 200.174315 
L 825.349169 201.081008 
L 825.421681 201.081008 
L 825.494143 201.266019 
L 825.638914 200.714708 
L 825.85569 200.714708 
L 825.999955 201.266019 
L 826.215976 200.714708 
L 826.57501 202.018866 
L 826.646667 202.018866 
L 826.9328 201.081008 
L 827.00421 201.081008 
L 827.218143 200.353259 
L 827.289355 200.353259 
L 827.431634 200.714708 
L 827.573716 200.714708 
L 827.715603 201.081008 
L 827.857296 200.714708 
L 827.998795 201.081008 
L 828.281212 200.174315 
L 828.351695 200.174315 
L 828.422131 199.470044 
L 828.492519 199.819907 
L 828.703394 199.29678 
L 828.773591 199.29678 
L 828.913841 198.953518 
L 829.0539 198.953518 
L 829.333451 199.819907 
L 829.472943 199.819907 
L 829.612247 199.470044 
L 829.681829 199.470044 
L 829.751364 199.29678 
L 829.820852 199.470044 
L 829.890293 198.953518 
L 830.098337 199.470044 
L 830.375079 199.470044 
L 830.444149 198.953518 
L 830.58215 199.29678 
L 830.719967 199.29678 
L 830.788807 198.953518 
L 830.926349 199.29678 
L 831.063708 199.29678 
L 831.269405 199.819907 
L 831.543031 198.953518 
L 831.679573 198.783492 
L 831.815935 199.29678 
L 831.952116 199.29678 
L 832.156053 198.783492 
L 832.291788 198.783492 
L 832.630346 199.819907 
L 832.697924 199.470044 
L 832.900395 200.174315 
L 832.967798 199.819907 
L 833.10247 200.174315 
L 833.236968 200.174315 
L 833.304151 199.819907 
L 833.37129 200.174315 
L 833.572447 199.470044 
L 833.973589 201.081008 
L 834.240154 201.081008 
L 834.306688 201.266019 
L 834.572396 200.714708 
L 834.704994 201.081008 
L 834.837422 200.353259 
L 835.10177 201.266019 
L 835.167751 201.266019 
L 835.299588 201.639847 
L 835.365443 201.639847 
L 835.628445 202.597453 
L 835.694091 202.793074 
L 835.956259 202.210369 
L 836.021697 202.210369 
L 836.152448 202.018866 
L 836.217762 202.018866 
L 836.217762 202.018866 
" style="fill:none;stroke:#0000ff;stroke-linecap:square;stroke-width:1.5;"/>
   </g>
   <g id="line2d_89">
    <path clip-path="url(#p2d652bc42d)" d="M 146.861497 357.471406 
L 146.90657 318.534545 
L 188.788655 299.619267 
L 218.504468 318.534545 
L 218.518978 357.471406 
M 260.36558 357.471406 
L 260.386554 288.554539 
L 290.102367 288.554539 
L 302.26864 269.639261 
L 313.151742 265.432647 
L 322.996705 235.45264 
L 331.984452 230.694714 
L 340.252378 226.644484 
L 347.907282 219.268537 
L 355.033827 219.268537 
L 361.700265 234.183156 
L 367.962421 258.574533 
L 373.866538 258.574533 
L 379.451354 232.970113 
L 384.74964 255.699352 
L 389.789368 238.911565 
L 394.594603 222.303771 
L 399.186201 214.654617 
L 403.582351 225.719345 
L 407.799015 226.644484 
L 411.850277 231.808705 
L 415.748624 214.054835 
L 419.505181 221.512731 
L 423.129901 236.784074 
L 426.631726 248.539699 
L 430.018715 230.694714 
L 433.298163 224.824545 
L 436.476689 225.719345 
L 439.560319 228.093797 
L 442.554556 293.529908 
L 445.464436 255.699352 
L 448.294584 210.972807 
L 451.049252 212.610637 
L 453.732362 240.428009 
L 456.347538 238.183815 
L 458.898135 240.428009 
L 461.387266 210.189337 
L 463.817824 217.868796 
L 466.192502 213.179178 
L 468.513811 196.821763 
L 470.784099 267.454977 
L 473.00556 231.808705 
L 475.180249 230.694714 
L 477.310096 267.454977 
L 479.396913 214.353078 
L 481.442405 189.050198 
L 483.448175 175.564916 
L 485.415738 192.190322 
L 487.346522 212.0537 
L 489.241877 203.388493 
L 491.103079 219.996287 
L 492.931338 193.555055 
L 494.727799 196.664478 
L 496.493551 190.263241 
L 498.229624 192.057529 
L 499.937001 185.081916 
L 501.616614 195.4378 
L 503.269352 184.979519 
L 504.896062 184.979519 
L 506.49755 190.890601 
L 508.074587 201.266019 
L 509.627909 227.60209 
L 511.158217 239.659255 
L 512.666185 207.032428 
L 514.152454 185.495394 
L 515.617641 174.500191 
L 517.062335 156.041203 
L 518.487101 152.901848 
L 519.892482 154.193875 
L 521.278999 152.650624 
L 522.647151 147.664838 
L 523.997417 147.847723 
L 525.330261 159.468578 
L 526.646125 172.423218 
L 527.945437 165.40786 
L 529.228608 156.254399 
L 530.496034 154.493209 
L 531.748097 154.426406 
L 532.985165 153.669701 
L 534.207592 152.185724 
L 535.415722 147.586832 
L 536.609885 143.584993 
L 537.7904 144.335174 
L 538.957575 145.488567 
L 540.11171 143.991624 
L 541.253091 144.988275 
L 542.381997 144.220176 
L 544.603458 144.358232 
L 545.696526 145.998203 
L 546.778147 139.471433 
L 547.84856 138.78584 
L 548.907995 141.931928 
L 549.956673 139.069413 
L 550.994812 141.285388 
L 552.02262 140.613562 
L 553.040303 141.347291 
L 554.048057 141.347291 
L 555.046073 141.763607 
L 556.03454 142.35733 
L 557.013636 144.613163 
L 557.98354 145.225366 
L 558.94442 145.344688 
L 559.896445 148.190653 
L 560.839775 147.97911 
L 561.774568 142.594159 
L 562.700977 149.63514 
L 563.619152 154.493209 
L 564.529236 155.724499 
L 565.431372 147.97911 
L 567.212346 141.141491 
L 568.091449 136.63485 
L 568.963133 141.388638 
L 569.827522 138.338163 
L 570.684738 134.608795 
L 571.534899 132.363752 
L 572.378119 132.707767 
L 573.214512 132.009345 
L 574.044187 129.730425 
L 574.86725 130.622077 
L 575.683807 133.117223 
L 576.49396 134.351804 
L 577.297808 132.722823 
L 578.095448 132.038703 
L 578.886977 130.705871 
L 579.672486 128.272039 
L 580.452066 122.785475 
L 581.225807 123.517184 
L 581.993795 129.542132 
L 582.756116 131.980017 
L 583.512851 129.15618 
L 584.264083 136.63485 
L 585.009891 157.197995 
L 585.750352 167.426353 
L 586.485544 223.118428 
L 587.215539 222.70806 
L 587.940412 213.467953 
L 588.660233 193.836388 
L 589.375073 188.579686 
L 590.084999 227.119087 
L 590.79008 189.528964 
L 591.490381 234.183156 
L 592.185965 195.739339 
L 592.876897 231.808705 
L 593.563238 207.965476 
L 594.245049 172.878587 
L 594.922389 180.554766 
L 595.595316 207.262716 
L 596.263887 165.50782 
L 596.928159 148.484229 
L 597.588186 161.901464 
L 598.244023 144.358232 
L 598.895722 148.645703 
L 599.543335 160.952936 
L 600.186913 167.105931 
L 600.826506 208.686812 
L 601.462163 179.198513 
L 602.093932 223.958155 
L 602.721861 198.279682 
L 603.345995 217.868796 
L 603.966381 184.979519 
L 604.583063 176.522522 
L 605.196085 227.60209 
L 605.805491 245.559762 
L 606.411322 245.559762 
L 607.013621 194.698216 
L 607.612428 192.728053 
L 608.207783 230.694714 
L 608.799727 198.953518 
L 609.388298 154.160818 
L 609.973535 156.940723 
L 611.134153 130.165752 
L 612.281875 140.63368 
L 612.850989 154.160818 
L 613.416985 154.226973 
L 613.979896 150.286594 
L 614.539756 161.294053 
L 615.096598 230.694714 
L 615.650454 205.042877 
L 616.201356 236.110238 
L 616.749336 208.444242 
L 617.294424 163.903553 
L 617.836651 153.347132 
L 618.376046 150.895296 
L 618.912639 135.779326 
L 619.446459 135.212522 
L 619.977534 132.557662 
L 620.505893 132.393495 
L 621.031563 134.351804 
L 621.554571 132.75296 
L 622.074945 136.22085 
L 623.107893 150.286594 
L 623.620519 173.542585 
L 624.130613 178.464236 
L 624.638201 200.897244 
L 625.143307 207.262716 
L 625.645955 191.14564 
L 626.643972 152.807368 
L 627.139387 168.299675 
L 627.632438 210.709143 
L 628.123146 201.081008 
L 628.611535 185.287872 
L 629.097625 222.70806 
L 629.581438 186.557356 
L 630.062996 204.619784 
L 630.542319 182.537015 
L 631.019428 261.788711 
L 631.494343 160.118346 
L 631.967085 158.755617 
L 632.437673 177.437322 
L 632.906127 181.259036 
L 633.372466 173.677346 
L 633.83671 183.682175 
L 634.298876 148.190653 
L 636.127135 128.542038 
L 636.579188 133.301194 
L 637.029271 126.766315 
L 637.477401 123.2498 
L 637.923596 125.076346 
L 638.367872 129.328518 
L 638.810245 123.939605 
L 639.689347 129.063831 
L 640.126109 132.813333 
L 640.561031 127.378476 
L 640.99413 127.677263 
L 641.425421 126.717931 
L 641.854918 126.742112 
L 642.282637 124.692147 
L 642.708592 118.334809 
L 643.132797 123.722162 
L 643.555268 120.306588 
L 643.976018 117.946472 
L 644.395061 122.328919 
L 644.81241 119.385908 
L 645.228081 120.536876 
L 645.642085 119.701821 
L 646.054437 114.095198 
L 646.465149 112.904001 
L 646.874234 111.332876 
L 647.281706 112.527795 
L 647.687576 109.886409 
L 648.091858 110.22769 
L 648.494564 110.240902 
L 648.895706 112.59974 
L 649.295296 112.976946 
L 649.693347 109.38236 
L 650.089869 111.154651 
L 650.484875 120.363978 
L 651.66091 107.335344 
L 652.049965 112.001211 
L 652.43756 114.742033 
L 652.823706 106.620103 
L 653.208413 111.250474 
L 653.591694 111.291644 
L 653.973557 120.383135 
L 654.354014 113.898055 
L 654.733075 104.027603 
L 655.110749 103.985539 
L 655.487048 107.948065 
L 655.861981 104.763602 
L 656.235558 107.814741 
L 656.607789 100.442931 
L 656.978683 101.863566 
L 658.083442 114.820068 
L 658.449085 111.100046 
L 658.813437 111.90272 
L 659.17651 112.427388 
L 659.53831 115.356711 
L 659.898848 106.805901 
L 660.258131 103.891132 
L 660.61617 104.709597 
L 660.972971 104.4198 
L 661.682898 99.437314 
L 662.03604 99.44621 
L 662.387979 97.889876 
L 662.738722 97.381966 
L 663.088279 98.553419 
L 663.436657 98.934968 
L 664.129907 98.083864 
L 664.474796 97.90669 
L 664.818536 95.663603 
L 665.502605 100.498358 
L 665.842947 101.343577 
L 666.520287 107.145918 
L 666.857298 114.263131 
L 667.193214 113.687329 
L 667.528041 106.724459 
L 667.861785 113.717333 
L 668.194455 115.468518 
L 668.526057 113.507992 
L 668.856598 118.175275 
L 669.186085 115.08707 
L 669.841921 112.298835 
L 670.49362 105.50889 
L 670.817934 111.888679 
L 671.141233 112.128367 
L 671.463524 123.592523 
L 671.784811 113.702327 
L 672.105103 122.062683 
L 672.424404 120.154135 
L 672.742722 122.267249 
L 673.060061 116.495951 
L 673.376429 118.764847 
L 673.69183 117.85898 
L 674.006272 112.991559 
L 674.319759 117.374137 
L 674.632298 111.456949 
L 674.943893 113.702327 
L 675.254552 109.12744 
L 675.564279 115.293026 
L 675.873081 116.165572 
L 676.180961 112.831249 
L 676.793983 126.215004 
L 677.099136 115.213628 
L 677.706749 118.069436 
L 678.00922 118.406013 
L 678.310809 135.982219 
L 678.611519 136.084234 
L 678.911356 139.413637 
L 679.210326 121.239635 
L 679.508433 133.270446 
L 679.805682 131.342666 
L 680.102078 134.851942 
L 680.397626 123.484959 
L 680.69233 134.144767 
L 680.986197 134.176517 
L 681.279229 137.625998 
L 681.571433 146.642659 
L 681.862812 149.888208 
L 682.153372 213.467953 
L 682.732051 140.075929 
L 683.02018 142.63744 
L 683.307506 246.517368 
L 683.594036 142.594159 
L 683.879773 176.522522 
L 684.164722 193.978149 
L 684.448887 179.198513 
L 684.732273 141.347291 
L 685.014883 143.742408 
L 685.296722 144.335174 
L 685.577794 165.557937 
L 685.858103 172.747704 
L 686.137654 151.940978 
L 686.41645 151.940978 
L 686.694496 152.557008 
L 686.971795 164.18831 
L 687.248352 168.078711 
L 687.524171 251.885391 
L 687.799255 219.268537 
L 688.073608 253.098434 
L 688.620138 153.669701 
L 688.892322 299.619267 
L 689.434549 162.165979 
L 689.704599 217.19496 
L 689.973944 174.292142 
L 690.242589 162.165979 
L 690.510537 208.686812 
L 690.777792 198.279682 
L 691.044357 194.2639 
L 691.310236 144.659771 
L 691.575432 154.426406 
L 691.83995 307.469817 
L 692.103791 152.933414 
L 692.366961 177.128969 
L 692.629461 179.868214 
L 692.891297 143.810151 
L 693.15247 175.637397 
L 693.93205 125.674611 
L 694.190608 133.860669 
L 694.448521 130.248154 
L 694.962422 167.105931 
L 695.218417 165.457794 
L 695.473779 144.520185 
L 695.728512 167.750583 
L 695.982617 168.133784 
L 696.2361 199.644415 
L 696.488961 190.263241 
L 696.741205 139.490725 
L 696.992835 153.123582 
L 697.243853 151.219642 
L 697.494263 159.548958 
L 697.744067 157.383257 
L 698.24187 124.692147 
L 698.489875 141.03917 
L 698.737286 139.645556 
L 698.984105 136.084234 
L 699.230336 118.548981 
L 699.475982 127.652239 
L 699.721045 126.143908 
L 699.965528 115.709659 
L 700.209433 114.432103 
L 700.452764 111.319125 
L 700.695523 113.123425 
L 701.179336 100.767858 
L 701.420396 99.949082 
L 701.660894 100.85204 
L 701.900834 106.138318 
L 702.140217 107.960218 
L 702.379047 116.363319 
L 702.617326 118.602788 
L 702.855057 112.773188 
L 703.092242 113.56764 
L 703.328883 111.832587 
L 703.564984 103.964532 
L 703.800546 108.937801 
L 704.035572 110.896243 
L 704.504026 104.9807 
L 704.737458 103.198402 
L 704.970365 110.22769 
L 705.202747 113.56764 
L 705.434608 106.320853 
L 705.665949 104.601906 
L 705.896774 112.029417 
L 706.586169 116.446138 
L 706.814948 116.629231 
L 707.043222 122.995553 
L 707.270993 116.880898 
L 707.498262 118.069436 
L 707.725033 123.420623 
L 707.951307 122.123892 
L 708.177086 114.726452 
L 708.402373 111.664998 
L 708.851477 99.786432 
L 709.0753 101.980477 
L 709.743871 87.240101 
L 709.96577 88.065965 
L 710.187193 90.117178 
L 710.408143 90.250249 
L 710.628621 91.758527 
L 710.84863 94.348035 
L 711.287246 92.875315 
L 711.505857 92.980421 
L 711.724007 97.31605 
L 711.941697 93.655661 
L 712.15893 92.680194 
L 712.375706 95.881356 
L 712.592029 96.907647 
L 712.807899 100.158333 
L 713.452816 103.703291 
L 713.666897 104.785235 
L 713.880535 104.774416 
L 714.093732 102.522823 
L 714.30649 97.722304 
L 714.518811 97.291373 
L 714.942147 103.975034 
L 715.153166 99.517484 
L 715.363755 100.609553 
L 715.573916 98.066941 
L 716.201845 104.709597 
L 716.410309 107.454406 
L 716.618353 99.083825 
L 716.825979 98.117743 
L 717.033189 100.711881 
L 717.239983 100.814594 
L 717.446365 104.4198 
L 717.652335 98.262197 
L 717.857895 98.544809 
L 718.063047 95.493722 
L 718.267792 98.760875 
L 719.082739 88.366657 
L 719.285475 91.266221 
L 719.487813 89.903096 
L 719.689757 91.160934 
L 720.092463 91.003762 
L 720.293228 92.500251 
L 720.693593 91.114999 
L 720.893195 93.419205 
L 721.092412 91.003762 
L 721.489697 97.78921 
L 721.885459 107.347226 
L 722.279711 92.603919 
L 722.672464 84.939228 
L 723.06373 85.044004 
L 723.258808 80.628982 
L 723.453519 81.138229 
L 723.647863 85.967514 
L 723.841842 83.762356 
L 724.035458 86.560299 
L 724.228711 87.18895 
L 724.421604 95.764486 
L 724.806312 102.99498 
L 725.189592 124.224897 
L 725.3807 119.256882 
L 725.571455 133.362795 
L 725.951912 105.732023 
L 726.141617 102.463132 
L 726.330973 113.418764 
L 726.519983 132.453078 
L 726.708648 122.246723 
L 726.896969 100.964689 
L 727.084947 108.253519 
L 727.272583 103.259726 
L 727.45988 103.025397 
L 727.646837 91.187218 
L 727.833457 92.51405 
L 728.01974 91.859411 
L 728.205688 99.375122 
L 728.391301 87.890623 
L 728.761531 95.975213 
L 729.130438 104.666469 
L 729.314399 104.04866 
L 729.68134 92.212056 
L 730.046983 100.814594 
L 730.411336 117.684831 
L 730.593031 125.791181 
L 730.774408 119.534118 
L 731.136208 122.890312 
L 731.316635 121.458028 
L 731.496746 118.370387 
L 731.676544 119.201772 
L 731.85603 140.835671 
L 732.035204 208.203809 
L 732.214068 185.081916 
L 732.392623 138.654507 
L 732.570869 134.754423 
L 732.748809 186.127599 
L 732.926443 148.45741 
L 733.103771 195.4378 
L 733.280796 128.658575 
L 733.457518 123.463497 
L 733.633938 130.944695 
L 733.810057 132.512791 
L 734.161398 97.460448 
L 734.336621 90.336138 
L 734.511547 90.221679 
L 734.860513 86.624185 
L 735.034555 91.026627 
L 735.208305 98.270718 
L 735.381762 116.181996 
L 735.554929 121.180376 
L 735.727806 121.768759 
L 735.900394 128.361742 
L 736.244707 167.968896 
L 736.416435 158.677537 
L 736.587877 122.04231 
L 736.92991 163.809291 
L 737.100503 127.777591 
L 737.270814 137.303472 
L 737.440846 186.557356 
L 737.610597 184.573727 
L 737.780071 146.919963 
L 738.118185 135.644897 
L 738.286829 114.293775 
L 738.455197 114.77322 
L 738.623291 101.205621 
L 738.791112 100.419869 
L 738.958661 109.267351 
L 739.125939 124.424168 
L 739.292946 115.261239 
L 739.459684 136.63485 
L 739.792354 112.867601 
L 739.958288 114.439809 
L 740.123956 129.784462 
L 740.289358 111.031942 
L 740.454497 124.413059 
L 740.783983 92.205232 
L 741.43982 86.671501 
L 741.60313 87.85278 
L 741.766183 85.049254 
L 742.253803 90.805319 
L 742.415833 86.97403 
L 742.577609 87.55479 
L 742.739132 87.474342 
L 742.900403 86.621404 
L 743.222191 78.477001 
L 743.38271 75.166485 
L 743.54298 76.676769 
L 743.862775 70.132701 
L 744.022303 69.396595 
L 744.181584 65.177094 
L 744.34062 67.771549 
L 744.499412 67.018322 
L 744.65796 63.962618 
L 745.60417 72.849963 
L 745.917657 68.589204 
L 746.074045 67.610363 
L 746.230196 65.59209 
L 746.386111 66.870949 
L 746.541792 64.451812 
L 746.697238 66.166807 
L 747.00743 62.160475 
L 747.162178 59.575137 
L 747.625034 64.855843 
L 747.932457 65.465006 
L 748.085826 63.262601 
L 748.238967 65.894844 
L 748.391882 65.750811 
L 748.544571 65.044356 
L 748.697034 67.756223 
L 748.849273 66.28137 
L 749.153079 68.609316 
L 749.455994 70.188984 
L 749.607119 70.421427 
L 749.758023 67.779912 
L 749.908707 71.165576 
L 750.059172 71.531003 
L 750.209417 71.330207 
L 750.509255 68.160345 
L 750.658848 68.821391 
L 750.808224 71.338147 
L 750.957385 71.69625 
L 751.106331 72.690951 
L 751.40358 65.556087 
L 751.551884 65.943024 
L 751.699976 64.527191 
L 751.847856 66.317022 
L 752.142982 63.741702 
L 752.290229 63.365577 
L 752.437266 61.553442 
L 752.584095 61.16889 
L 752.877128 62.774355 
L 753.023333 61.113146 
L 753.169331 61.028109 
L 753.460711 59.507105 
L 753.606093 59.555535 
L 753.751271 60.507359 
L 753.896245 60.402901 
L 754.185583 57.865018 
L 754.32995 59.887572 
L 754.474114 59.67854 
L 754.761841 55.336547 
L 754.905405 56.142691 
L 755.048769 55.367491 
L 755.191935 55.917917 
L 755.334902 55.530744 
L 755.762621 56.089957 
L 755.904801 57.343657 
L 756.046786 55.230721 
L 756.188576 55.364837 
L 756.330171 54.990612 
L 756.471573 55.128811 
L 756.612781 54.618868 
L 756.753797 53.099842 
L 757.175692 54.448132 
L 757.456002 56.666435 
L 757.595872 57.25251 
L 757.735553 56.494421 
L 757.875045 56.955555 
L 758.014349 55.727229 
L 758.153465 56.778921 
L 758.846251 66.509288 
L 758.984252 66.885786 
L 759.122069 68.72164 
L 759.259703 67.946313 
L 759.397153 71.099372 
L 759.534421 71.149799 
L 759.671506 72.122788 
L 759.945133 67.851102 
L 760.081675 66.268178 
L 760.218036 67.063097 
L 760.354218 65.215138 
L 760.490221 65.491914 
L 760.626044 64.840818 
L 761.032447 66.111673 
L 761.16756 66.432219 
L 761.437257 69.944918 
L 761.571842 69.559789 
L 761.706252 66.989867 
L 761.974548 67.958939 
L 762.242149 65.187233 
L 762.37569 64.743357 
L 762.509059 65.132776 
L 762.77528 61.586752 
L 762.908134 62.128723 
L 763.040818 60.680915 
L 763.173331 61.054246 
L 763.437848 60.141386 
L 763.569853 62.434154 
L 763.70169 62.751156 
L 763.833358 64.688533 
L 763.964859 64.709702 
L 764.096193 63.989297 
L 764.35836 64.738369 
L 764.489195 64.042733 
L 764.880707 59.979595 
L 765.010883 62.083429 
L 765.140894 62.218402 
L 765.400426 58.620841 
L 765.529949 59.090269 
L 765.659309 58.988057 
L 765.788507 56.736103 
L 765.917544 57.702646 
L 766.046419 55.04913 
L 766.30369 54.667108 
L 766.432085 52.420486 
L 766.560321 52.210083 
L 766.688397 50.36324 
L 766.816316 51.369807 
L 767.071678 49.068229 
L 767.199122 49.010705 
L 767.32641 48.404997 
L 767.580516 48.554135 
L 767.707335 48.211717 
L 768.08686 46.175147 
L 768.213059 47.147261 
L 768.464995 45.518647 
L 768.590734 44.19711 
L 768.967032 44.766974 
L 769.341965 43.60784 
L 769.466641 44.378057 
L 769.591167 44.410009 
L 769.715542 43.889846 
L 769.839768 45.251734 
L 769.963845 45.251734 
L 770.087773 44.872753 
L 770.211553 45.392535 
L 770.335184 44.306006 
L 770.582004 46.827122 
L 770.705192 46.680028 
L 770.828235 45.568637 
L 770.951131 46.441723 
L 771.07388 46.21054 
L 771.196484 46.256113 
L 771.318943 46.115209 
L 771.441257 45.59274 
L 771.563426 46.849772 
L 771.807331 45.68688 
L 772.050662 48.351589 
L 772.535611 44.260629 
L 772.897835 46.465971 
L 773.018294 46.248513 
L 773.138613 46.286538 
L 773.258792 45.910523 
L 773.378832 46.801259 
L 773.498732 46.639524 
L 773.857599 43.701134 
L 773.976945 44.178318 
L 774.096154 44.082796 
L 774.334158 44.870946 
L 774.452955 44.681928 
L 774.69014 46.062321 
L 774.808528 45.780724 
L 774.926781 47.4765 
L 775.044899 47.53486 
L 775.398444 45.709845 
L 775.516024 45.996355 
L 775.63347 46.99323 
L 775.750783 46.393929 
L 775.867963 46.390109 
L 776.101924 47.296902 
L 776.218706 47.217385 
L 776.335357 45.778234 
L 776.451876 46.203584 
L 776.68452 45.341028 
L 776.916641 44.722621 
L 777.148242 43.509708 
L 777.379325 45.796915 
L 777.494672 46.018954 
L 777.724982 47.259415 
L 777.95478 46.243447 
L 778.184067 45.616863 
L 778.412847 44.652643 
L 778.527047 44.60609 
L 778.755069 46.052887 
L 778.982589 43.699404 
L 779.096161 45.086154 
L 779.322931 44.005102 
L 779.549205 44.966855 
L 779.662156 44.569738 
L 779.774984 45.859279 
L 780.11273 44.376874 
L 780.225067 43.884038 
L 780.449376 42.003655 
L 780.673198 43.386825 
L 780.784928 42.878911 
L 780.896536 43.196451 
L 781.008025 42.458436 
L 781.119393 42.669808 
L 781.230641 44.147808 
L 781.563668 42.189679 
L 781.785092 43.121237 
L 782.006041 43.61359 
L 782.116339 42.970865 
L 782.22652 43.150054 
L 782.336582 43.975368 
L 782.446528 43.474788 
L 782.556357 43.660207 
L 782.775665 45.261506 
L 782.885144 45.597686 
L 782.994508 44.429554 
L 783.103756 44.59655 
L 783.212888 45.035827 
L 783.321906 44.825823 
L 783.539596 45.521113 
L 783.648269 45.268837 
L 783.756828 46.129078 
L 783.865273 45.793801 
L 783.973604 46.251046 
L 784.189927 47.817809 
L 784.513563 45.875517 
L 784.728759 46.764446 
L 784.943508 44.839051 
L 785.050715 44.96625 
L 785.15781 45.560608 
L 785.264795 44.070514 
L 785.37167 44.117333 
L 785.478433 43.448483 
L 785.69163 41.539802 
L 785.904388 42.267292 
L 786.010603 42.146051 
L 786.116709 42.230644 
L 786.328594 39.902101 
L 786.540045 40.637678 
L 786.751065 41.035003 
L 786.961654 39.342239 
L 787.381548 42.635945 
L 787.486256 42.51582 
L 787.590857 41.687293 
L 787.799743 42.440253 
L 787.904028 41.113068 
L 788.008207 42.274956 
L 788.216251 40.254189 
L 788.423877 40.468053 
L 788.631087 39.787407 
L 788.837882 41.743614 
L 789.044263 41.003108 
L 789.1473 40.855621 
L 789.250233 42.425384 
L 789.353065 42.094333 
L 789.455793 43.561887 
L 789.660945 43.267899 
L 789.763369 43.98003 
L 789.865691 43.906696 
L 789.967911 43.592322 
L 790.070031 43.678645 
L 790.172049 42.987158 
L 790.273968 44.25533 
L 790.375785 42.664809 
L 790.477502 43.048482 
L 790.57912 42.72096 
L 790.782055 41.054891 
L 790.883373 40.458831 
L 790.984592 40.603669 
L 791.388479 37.042835 
L 791.690361 35.394221 
L 791.891127 32.338639 
L 792.091503 36.224058 
L 792.191546 36.001275 
L 792.291491 36.915225 
L 792.39134 36.637277 
L 792.59075 35.378483 
L 792.69031 35.938266 
L 792.889143 35.130848 
L 792.988417 35.668756 
L 793.186678 35.300352 
L 793.384559 37.935934 
L 793.779188 35.78936 
L 793.87761 36.543479 
L 794.074173 33.638935 
L 794.172314 36.103267 
L 794.270363 35.063929 
L 794.368318 35.143914 
L 794.466181 35.36913 
L 794.563951 34.837039 
L 794.661628 35.518745 
L 794.759213 33.837547 
L 794.856706 34.6083 
L 794.954108 34.425775 
L 795.148635 37.180583 
L 795.245761 39.193656 
L 795.342796 37.685368 
L 795.439741 38.526512 
L 795.536594 38.171858 
L 795.730028 35.873669 
L 795.82661 36.456193 
L 796.019502 34.527805 
L 796.115814 34.76834 
L 796.212035 33.088358 
L 796.40421 35.122 
L 796.596028 33.700446 
L 796.691804 35.377207 
L 796.78749 33.566419 
L 796.978599 34.774995 
L 797.07402 36.005191 
L 797.169354 35.493539 
L 797.644706 27.783094 
L 797.739515 28.127134 
L 797.834237 28.963306 
L 797.928871 28.802763 
L 798.02342 28.417515 
L 798.117881 28.613607 
L 798.306546 27.547501 
L 798.494867 28.326726 
L 798.588899 27.178197 
L 798.776706 28.973392 
L 798.870482 29.750382 
L 798.964172 28.931726 
L 799.057778 30.00762 
L 799.151299 29.654022 
L 799.338087 32.298726 
L 799.524539 28.887107 
L 799.617638 30.026837 
L 799.710654 28.868006 
L 799.803586 29.195902 
L 799.896434 30.287413 
L 799.9892 29.107221 
L 800.081881 29.583436 
L 800.359429 27.872089 
L 800.820358 32.619297 
L 800.912297 32.444216 
L 801.095931 33.87857 
L 801.370771 30.853231 
L 801.644881 30.431407 
L 801.827218 30.030682 
L 802.281658 28.648144 
L 802.372306 28.997615 
L 802.462875 29.940296 
L 802.553365 29.399055 
L 802.643775 29.927756 
L 802.734107 31.900895 
L 802.824359 30.787384 
L 802.914533 31.82538 
L 803.094644 29.804756 
L 803.184583 30.048865 
L 803.543554 27.510186 
L 803.633102 28.628878 
L 803.722573 27.23714 
L 803.990521 29.463344 
L 804.079683 28.748347 
L 804.168768 28.902531 
L 804.346707 28.232311 
L 804.878695 33.064127 
L 804.967093 32.187277 
L 805.143664 29.854028 
L 805.407956 32.500028 
L 805.583775 30.818669 
L 805.671573 30.414031 
L 805.846945 27.642775 
L 805.934519 27.81466 
L 806.109445 28.902866 
L 806.284076 27.452559 
L 806.371281 28.364189 
L 806.545469 27.463374 
L 806.632454 28.516873 
L 806.892968 27.281984 
L 806.979661 27.576879 
L 807.239302 24.628249 
L 807.325704 25.355657 
L 807.670592 22.285552 
L 807.842606 23.625409 
L 808.27139 27.262711 
L 808.356933 26.244107 
L 808.442406 27.813049 
L 808.527808 27.592219 
L 808.698401 27.38712 
L 808.868713 26.552546 
L 809.123655 28.6977 
L 809.208496 28.373399 
L 809.377969 26.13782 
L 809.462602 26.35417 
L 809.547165 26.138123 
L 809.631659 25.566761 
L 809.716084 26.741529 
L 809.80044 25.724226 
L 809.884727 26.700348 
L 810.137177 24.923209 
L 810.22119 25.37746 
L 810.723837 22.025455 
L 810.807375 22.319524 
L 811.057582 24.349498 
L 811.224051 25.726316 
L 811.307185 25.686042 
L 811.390252 25.095367 
L 811.473253 26.411358 
L 811.556186 26.139335 
L 811.639053 24.814426 
L 811.721854 24.925238 
L 811.804589 25.040868 
L 812.299608 28.873031 
L 812.464089 27.672256 
L 812.874149 25.708111 
L 813.037718 28.852267 
L 813.119406 27.463692 
L 813.201029 28.171507 
L 813.282587 27.568574 
L 813.445512 30.635428 
L 813.526877 29.539112 
L 813.608179 28.875377 
L 813.932748 31.273263 
L 814.094651 30.223267 
L 814.33703 33.194527 
L 814.417697 31.669405 
L 814.498301 32.011178 
L 814.65932 33.815452 
L 814.90038 30.310005 
L 814.980608 28.94516 
L 815.060774 29.317204 
L 815.140878 30.544801 
L 815.22092 29.387786 
L 815.3009 29.611993 
L 815.380818 30.357369 
L 815.460674 28.476558 
L 815.540468 30.00343 
L 815.620201 29.586531 
L 815.699872 28.732343 
L 815.779482 28.929376 
L 815.938519 29.526413 
L 816.09731 27.894383 
L 816.176615 29.263792 
L 816.335041 26.540855 
L 816.651166 30.265544 
L 816.730047 30.292 
L 816.887627 32.722496 
L 816.966327 31.477065 
L 817.123548 33.817058 
L 817.202069 33.754483 
L 817.28053 34.796632 
L 817.671943 30.447374 
L 817.750048 30.196877 
L 817.906081 30.469034 
L 817.98401 30.290589 
L 818.295136 34.482091 
L 818.372772 35.280854 
L 818.450349 33.668076 
L 818.682731 36.548361 
L 818.760076 36.481863 
L 818.914592 39.436811 
L 818.991763 38.905184 
L 819.068877 40.010728 
L 819.145934 39.288204 
L 819.222932 39.902603 
L 819.299874 41.808661 
L 819.376758 41.384624 
L 819.453585 42.053029 
L 819.530355 40.20035 
L 819.683724 42.853734 
L 820.066153 47.203608 
L 820.142469 46.060434 
L 820.218729 46.493435 
L 820.294932 48.761667 
L 820.37108 48.585854 
L 820.447171 46.222559 
L 820.523206 46.317632 
L 820.599186 49.187169 
L 820.675109 46.199159 
L 820.750977 46.581123 
L 820.902546 45.657117 
L 820.978246 49.49501 
L 821.053892 49.369752 
L 821.129482 50.253005 
L 821.280497 47.587357 
L 821.431291 50.483536 
L 821.65707 49.338527 
L 821.73222 50.122038 
L 821.807316 47.923329 
L 821.882357 48.162761 
L 822.107153 58.746702 
L 822.181977 57.496248 
L 822.256746 58.737693 
L 822.331461 64.348352 
L 822.406123 60.673393 
L 822.629783 70.384594 
L 822.70423 66.569233 
L 822.778622 70.426035 
L 823.075657 56.359238 
L 823.149783 55.645784 
L 823.223855 56.279546 
L 823.297874 60.090855 
L 823.371841 55.682449 
L 823.445754 57.662204 
L 823.667177 50.273548 
L 823.74088 50.58654 
L 823.961672 54.556112 
L 824.035165 51.462415 
L 824.108605 51.607698 
L 824.181993 51.307989 
L 824.401846 44.588802 
L 824.475026 43.87707 
L 824.913022 50.781754 
L 824.985841 50.792225 
L 825.058609 50.995704 
L 825.276606 46.868554 
L 825.349169 46.77994 
L 825.421681 46.495352 
L 825.638914 40.794359 
L 825.783482 39.134546 
L 825.927848 36.396098 
L 825.999955 37.062277 
L 826.144019 40.055613 
L 826.287883 37.464608 
L 826.35974 37.643752 
L 826.431546 37.5515 
L 826.57501 39.173124 
L 826.789833 36.678723 
L 827.218143 40.588224 
L 827.289355 40.13244 
L 827.431634 36.470353 
L 827.502699 36.481863 
L 827.644684 38.891639 
L 827.715603 38.348135 
L 827.857296 39.007964 
L 827.92807 37.291649 
L 827.998795 38.579536 
L 828.069471 38.330598 
L 828.1401 38.278055 
L 828.281212 36.396981 
L 828.562858 40.447052 
L 828.703394 37.493082 
L 828.773591 37.717316 
L 828.843739 37.349181 
L 828.913841 35.244439 
L 828.983894 36.065303 
L 829.0539 35.752692 
L 829.123859 36.058762 
L 829.19377 35.855488 
L 829.542619 41.136689 
L 829.612247 40.844189 
L 829.681829 41.269344 
L 829.751364 41.156651 
L 829.959688 36.177166 
L 830.029036 38.72865 
L 830.098337 38.527944 
L 830.167592 37.600816 
L 830.236801 38.025279 
L 830.444149 40.379038 
L 830.513173 39.045391 
L 830.58215 40.429649 
L 830.651082 40.154214 
L 830.788807 40.546053 
L 831.063708 37.008055 
L 831.132319 36.946734 
L 831.337879 32.969362 
L 831.543031 31.024529 
L 831.611325 31.196908 
L 831.952116 35.510198 
L 832.088119 38.444076 
L 832.156053 37.941071 
L 832.223943 35.25248 
L 832.291788 35.582934 
L 832.359588 35.326654 
L 832.427344 33.885816 
L 832.495056 36.196877 
L 832.562723 36.054403 
L 832.630346 35.657154 
L 832.697924 34.426596 
L 832.765459 34.565752 
L 833.10247 38.997766 
L 833.37129 35.917006 
L 833.438386 36.256535 
L 833.572447 40.148642 
L 833.639412 39.413137 
L 833.706334 38.330124 
L 834.439627 50.997212 
L 834.572396 45.658356 
L 834.638716 46.863372 
L 834.704994 47.016019 
L 834.903572 54.091253 
L 834.969681 53.401073 
L 835.035746 53.734814 
L 835.10177 49.325055 
L 835.167751 49.888015 
L 835.233691 49.870652 
L 835.431257 57.085252 
L 835.759695 48.180429 
L 836.021697 46.432158 
L 836.087093 45.060676 
L 836.217762 47.734087 
L 836.217762 47.734087 
" style="fill:none;stroke:#008000;stroke-linecap:square;stroke-width:1.5;"/>
   </g>
   <g id="patch_3">
    <path d="M 37.263217 333.36 
L 37.263217 7.2 
" style="fill:none;stroke:#000000;stroke-linecap:square;stroke-linejoin:miter;stroke-width:0.8;"/>
   </g>
   <g id="patch_4">
    <path d="M 874.263217 333.36 
L 874.263217 7.2 
" style="fill:none;stroke:#000000;stroke-linecap:square;stroke-linejoin:miter;stroke-width:0.8;"/>
   </g>
   <g id="patch_5">
    <path d="M 37.263217 333.36 
L 874.263217 333.36 
" style="fill:none;stroke:#000000;stroke-linecap:square;stroke-linejoin:miter;stroke-width:0.8;"/>
   </g>
   <g id="patch_6">
    <path d="M 37.263217 7.2 
L 874.263217 7.2 
" style="fill:none;stroke:#000000;stroke-linecap:square;stroke-linejoin:miter;stroke-width:0.8;"/>
   </g>
  </g>
 </g>
 <defs>
  <clipPath id="p2d652bc42d">
   <rect height="326.16" width="837" x="37.263217" y="7.2"/>
  </clipPath>
 </defs>
</svg>
