<?xml version="1.0" encoding="utf-8" standalone="no"?>
<!DOCTYPE svg PUBLIC "-//W3C//DTD SVG 1.1//EN"
  "http://www.w3.org/Graphics/SVG/1.1/DTD/svg11.dtd">
<!-- Created with matplotlib (https://matplotlib.org/) -->
<svg height="263.63625pt" version="1.1" viewBox="0 0 405.932812 263.63625" width="405.932812pt" xmlns="http://www.w3.org/2000/svg" xmlns:xlink="http://www.w3.org/1999/xlink">
 <metadata>
  <rdf:RDF xmlns:cc="http://creativecommons.org/ns#" xmlns:dc="http://purl.org/dc/elements/1.1/" xmlns:rdf="http://www.w3.org/1999/02/22-rdf-syntax-ns#">
   <cc:Work>
    <dc:type rdf:resource="http://purl.org/dc/dcmitype/StillImage"/>
    <dc:date>2021-10-05T17:41:13.981108</dc:date>
    <dc:format>image/svg+xml</dc:format>
    <dc:creator>
     <cc:Agent>
      <dc:title>Matplotlib v3.3.4, https://matplotlib.org/</dc:title>
     </cc:Agent>
    </dc:creator>
   </cc:Work>
  </rdf:RDF>
 </metadata>
 <defs>
  <style type="text/css">*{stroke-linecap:butt;stroke-linejoin:round;}</style>
 </defs>
 <g id="figure_1">
  <g id="patch_1">
   <path d="M 0 263.63625 
L 405.932812 263.63625 
L 405.932812 0 
L 0 0 
z
" style="fill:none;"/>
  </g>
  <g id="axes_1">
   <g id="patch_2">
    <path d="M 63.932812 239.758125 
L 398.732813 239.758125 
L 398.732813 22.318125 
L 63.932812 22.318125 
z
" style="fill:#ffffff;"/>
   </g>
   <g id="matplotlib.axis_1">
    <g id="xtick_1">
     <g id="line2d_1">
      <path clip-path="url(#p673feb4453)" d="M 79.150994 239.758125 
L 79.150994 22.318125 
" style="fill:none;stroke:#b0b0b0;stroke-linecap:square;stroke-width:0.8;"/>
     </g>
     <g id="line2d_2">
      <defs>
       <path d="M 0 0 
L 0 3.5 
" id="m25850f6ff8" style="stroke:#000000;stroke-width:0.8;"/>
      </defs>
      <g>
       <use style="stroke:#000000;stroke-width:0.8;" x="79.150994" xlink:href="#m25850f6ff8" y="239.758125"/>
      </g>
     </g>
     <g id="text_1">
      <!-- 0 -->
      <g transform="translate(75.969744 254.356563)scale(0.1 -0.1)">
       <defs>
        <path d="M 31.78125 66.40625 
Q 24.171875 66.40625 20.328125 58.90625 
Q 16.5 51.421875 16.5 36.375 
Q 16.5 21.390625 20.328125 13.890625 
Q 24.171875 6.390625 31.78125 6.390625 
Q 39.453125 6.390625 43.28125 13.890625 
Q 47.125 21.390625 47.125 36.375 
Q 47.125 51.421875 43.28125 58.90625 
Q 39.453125 66.40625 31.78125 66.40625 
z
M 31.78125 74.21875 
Q 44.046875 74.21875 50.515625 64.515625 
Q 56.984375 54.828125 56.984375 36.375 
Q 56.984375 17.96875 50.515625 8.265625 
Q 44.046875 -1.421875 31.78125 -1.421875 
Q 19.53125 -1.421875 13.0625 8.265625 
Q 6.59375 17.96875 6.59375 36.375 
Q 6.59375 54.828125 13.0625 64.515625 
Q 19.53125 74.21875 31.78125 74.21875 
z
" id="DejaVuSans-48"/>
       </defs>
       <use xlink:href="#DejaVuSans-48"/>
      </g>
     </g>
    </g>
    <g id="xtick_2">
     <g id="line2d_3">
      <path clip-path="url(#p673feb4453)" d="M 134.489837 239.758125 
L 134.489837 22.318125 
" style="fill:none;stroke:#b0b0b0;stroke-linecap:square;stroke-width:0.8;"/>
     </g>
     <g id="line2d_4">
      <g>
       <use style="stroke:#000000;stroke-width:0.8;" x="134.489837" xlink:href="#m25850f6ff8" y="239.758125"/>
      </g>
     </g>
     <g id="text_2">
      <!-- 10 -->
      <g transform="translate(128.127337 254.356563)scale(0.1 -0.1)">
       <defs>
        <path d="M 12.40625 8.296875 
L 28.515625 8.296875 
L 28.515625 63.921875 
L 10.984375 60.40625 
L 10.984375 69.390625 
L 28.421875 72.90625 
L 38.28125 72.90625 
L 38.28125 8.296875 
L 54.390625 8.296875 
L 54.390625 0 
L 12.40625 0 
z
" id="DejaVuSans-49"/>
       </defs>
       <use xlink:href="#DejaVuSans-49"/>
       <use x="63.623047" xlink:href="#DejaVuSans-48"/>
      </g>
     </g>
    </g>
    <g id="xtick_3">
     <g id="line2d_5">
      <path clip-path="url(#p673feb4453)" d="M 189.82868 239.758125 
L 189.82868 22.318125 
" style="fill:none;stroke:#b0b0b0;stroke-linecap:square;stroke-width:0.8;"/>
     </g>
     <g id="line2d_6">
      <g>
       <use style="stroke:#000000;stroke-width:0.8;" x="189.82868" xlink:href="#m25850f6ff8" y="239.758125"/>
      </g>
     </g>
     <g id="text_3">
      <!-- 20 -->
      <g transform="translate(183.46618 254.356563)scale(0.1 -0.1)">
       <defs>
        <path d="M 19.1875 8.296875 
L 53.609375 8.296875 
L 53.609375 0 
L 7.328125 0 
L 7.328125 8.296875 
Q 12.9375 14.109375 22.625 23.890625 
Q 32.328125 33.6875 34.8125 36.53125 
Q 39.546875 41.84375 41.421875 45.53125 
Q 43.3125 49.21875 43.3125 52.78125 
Q 43.3125 58.59375 39.234375 62.25 
Q 35.15625 65.921875 28.609375 65.921875 
Q 23.96875 65.921875 18.8125 64.3125 
Q 13.671875 62.703125 7.8125 59.421875 
L 7.8125 69.390625 
Q 13.765625 71.78125 18.9375 73 
Q 24.125 74.21875 28.421875 74.21875 
Q 39.75 74.21875 46.484375 68.546875 
Q 53.21875 62.890625 53.21875 53.421875 
Q 53.21875 48.921875 51.53125 44.890625 
Q 49.859375 40.875 45.40625 35.40625 
Q 44.1875 33.984375 37.640625 27.21875 
Q 31.109375 20.453125 19.1875 8.296875 
z
" id="DejaVuSans-50"/>
       </defs>
       <use xlink:href="#DejaVuSans-50"/>
       <use x="63.623047" xlink:href="#DejaVuSans-48"/>
      </g>
     </g>
    </g>
    <g id="xtick_4">
     <g id="line2d_7">
      <path clip-path="url(#p673feb4453)" d="M 245.167523 239.758125 
L 245.167523 22.318125 
" style="fill:none;stroke:#b0b0b0;stroke-linecap:square;stroke-width:0.8;"/>
     </g>
     <g id="line2d_8">
      <g>
       <use style="stroke:#000000;stroke-width:0.8;" x="245.167523" xlink:href="#m25850f6ff8" y="239.758125"/>
      </g>
     </g>
     <g id="text_4">
      <!-- 30 -->
      <g transform="translate(238.805023 254.356563)scale(0.1 -0.1)">
       <defs>
        <path d="M 40.578125 39.3125 
Q 47.65625 37.796875 51.625 33 
Q 55.609375 28.21875 55.609375 21.1875 
Q 55.609375 10.40625 48.1875 4.484375 
Q 40.765625 -1.421875 27.09375 -1.421875 
Q 22.515625 -1.421875 17.65625 -0.515625 
Q 12.796875 0.390625 7.625 2.203125 
L 7.625 11.71875 
Q 11.71875 9.328125 16.59375 8.109375 
Q 21.484375 6.890625 26.8125 6.890625 
Q 36.078125 6.890625 40.9375 10.546875 
Q 45.796875 14.203125 45.796875 21.1875 
Q 45.796875 27.640625 41.28125 31.265625 
Q 36.765625 34.90625 28.71875 34.90625 
L 20.21875 34.90625 
L 20.21875 43.015625 
L 29.109375 43.015625 
Q 36.375 43.015625 40.234375 45.921875 
Q 44.09375 48.828125 44.09375 54.296875 
Q 44.09375 59.90625 40.109375 62.90625 
Q 36.140625 65.921875 28.71875 65.921875 
Q 24.65625 65.921875 20.015625 65.03125 
Q 15.375 64.15625 9.8125 62.3125 
L 9.8125 71.09375 
Q 15.4375 72.65625 20.34375 73.4375 
Q 25.25 74.21875 29.59375 74.21875 
Q 40.828125 74.21875 47.359375 69.109375 
Q 53.90625 64.015625 53.90625 55.328125 
Q 53.90625 49.265625 50.4375 45.09375 
Q 46.96875 40.921875 40.578125 39.3125 
z
" id="DejaVuSans-51"/>
       </defs>
       <use xlink:href="#DejaVuSans-51"/>
       <use x="63.623047" xlink:href="#DejaVuSans-48"/>
      </g>
     </g>
    </g>
    <g id="xtick_5">
     <g id="line2d_9">
      <path clip-path="url(#p673feb4453)" d="M 300.506366 239.758125 
L 300.506366 22.318125 
" style="fill:none;stroke:#b0b0b0;stroke-linecap:square;stroke-width:0.8;"/>
     </g>
     <g id="line2d_10">
      <g>
       <use style="stroke:#000000;stroke-width:0.8;" x="300.506366" xlink:href="#m25850f6ff8" y="239.758125"/>
      </g>
     </g>
     <g id="text_5">
      <!-- 40 -->
      <g transform="translate(294.143866 254.356563)scale(0.1 -0.1)">
       <defs>
        <path d="M 37.796875 64.3125 
L 12.890625 25.390625 
L 37.796875 25.390625 
z
M 35.203125 72.90625 
L 47.609375 72.90625 
L 47.609375 25.390625 
L 58.015625 25.390625 
L 58.015625 17.1875 
L 47.609375 17.1875 
L 47.609375 0 
L 37.796875 0 
L 37.796875 17.1875 
L 4.890625 17.1875 
L 4.890625 26.703125 
z
" id="DejaVuSans-52"/>
       </defs>
       <use xlink:href="#DejaVuSans-52"/>
       <use x="63.623047" xlink:href="#DejaVuSans-48"/>
      </g>
     </g>
    </g>
    <g id="xtick_6">
     <g id="line2d_11">
      <path clip-path="url(#p673feb4453)" d="M 355.845209 239.758125 
L 355.845209 22.318125 
" style="fill:none;stroke:#b0b0b0;stroke-linecap:square;stroke-width:0.8;"/>
     </g>
     <g id="line2d_12">
      <g>
       <use style="stroke:#000000;stroke-width:0.8;" x="355.845209" xlink:href="#m25850f6ff8" y="239.758125"/>
      </g>
     </g>
     <g id="text_6">
      <!-- 50 -->
      <g transform="translate(349.482709 254.356563)scale(0.1 -0.1)">
       <defs>
        <path d="M 10.796875 72.90625 
L 49.515625 72.90625 
L 49.515625 64.59375 
L 19.828125 64.59375 
L 19.828125 46.734375 
Q 21.96875 47.46875 24.109375 47.828125 
Q 26.265625 48.1875 28.421875 48.1875 
Q 40.625 48.1875 47.75 41.5 
Q 54.890625 34.8125 54.890625 23.390625 
Q 54.890625 11.625 47.5625 5.09375 
Q 40.234375 -1.421875 26.90625 -1.421875 
Q 22.3125 -1.421875 17.546875 -0.640625 
Q 12.796875 0.140625 7.71875 1.703125 
L 7.71875 11.625 
Q 12.109375 9.234375 16.796875 8.0625 
Q 21.484375 6.890625 26.703125 6.890625 
Q 35.15625 6.890625 40.078125 11.328125 
Q 45.015625 15.765625 45.015625 23.390625 
Q 45.015625 31 40.078125 35.4375 
Q 35.15625 39.890625 26.703125 39.890625 
Q 22.75 39.890625 18.8125 39.015625 
Q 14.890625 38.140625 10.796875 36.28125 
z
" id="DejaVuSans-53"/>
       </defs>
       <use xlink:href="#DejaVuSans-53"/>
       <use x="63.623047" xlink:href="#DejaVuSans-48"/>
      </g>
     </g>
    </g>
   </g>
   <g id="matplotlib.axis_2">
    <g id="ytick_1">
     <g id="line2d_13">
      <path clip-path="url(#p673feb4453)" d="M 63.932812 230.182433 
L 398.732813 230.182433 
" style="fill:none;stroke:#b0b0b0;stroke-linecap:square;stroke-width:0.8;"/>
     </g>
     <g id="line2d_14">
      <defs>
       <path d="M 0 0 
L -3.5 0 
" id="mc492052a00" style="stroke:#000000;stroke-width:0.8;"/>
      </defs>
      <g>
       <use style="stroke:#000000;stroke-width:0.8;" x="63.932812" xlink:href="#mc492052a00" y="230.182433"/>
      </g>
     </g>
     <g id="text_7">
      <!-- −0.00100 -->
      <g transform="translate(7.2 233.981652)scale(0.1 -0.1)">
       <defs>
        <path d="M 10.59375 35.5 
L 73.1875 35.5 
L 73.1875 27.203125 
L 10.59375 27.203125 
z
" id="DejaVuSans-8722"/>
        <path d="M 10.6875 12.40625 
L 21 12.40625 
L 21 0 
L 10.6875 0 
z
" id="DejaVuSans-46"/>
       </defs>
       <use xlink:href="#DejaVuSans-8722"/>
       <use x="83.789062" xlink:href="#DejaVuSans-48"/>
       <use x="147.412109" xlink:href="#DejaVuSans-46"/>
       <use x="179.199219" xlink:href="#DejaVuSans-48"/>
       <use x="242.822266" xlink:href="#DejaVuSans-48"/>
       <use x="306.445312" xlink:href="#DejaVuSans-49"/>
       <use x="370.068359" xlink:href="#DejaVuSans-48"/>
       <use x="433.691406" xlink:href="#DejaVuSans-48"/>
      </g>
     </g>
    </g>
    <g id="ytick_2">
     <g id="line2d_15">
      <path clip-path="url(#p673feb4453)" d="M 63.932812 205.390963 
L 398.732813 205.390963 
" style="fill:none;stroke:#b0b0b0;stroke-linecap:square;stroke-width:0.8;"/>
     </g>
     <g id="line2d_16">
      <g>
       <use style="stroke:#000000;stroke-width:0.8;" x="63.932812" xlink:href="#mc492052a00" y="205.390963"/>
      </g>
     </g>
     <g id="text_8">
      <!-- −0.00075 -->
      <g transform="translate(7.2 209.190182)scale(0.1 -0.1)">
       <defs>
        <path d="M 8.203125 72.90625 
L 55.078125 72.90625 
L 55.078125 68.703125 
L 28.609375 0 
L 18.3125 0 
L 43.21875 64.59375 
L 8.203125 64.59375 
z
" id="DejaVuSans-55"/>
       </defs>
       <use xlink:href="#DejaVuSans-8722"/>
       <use x="83.789062" xlink:href="#DejaVuSans-48"/>
       <use x="147.412109" xlink:href="#DejaVuSans-46"/>
       <use x="179.199219" xlink:href="#DejaVuSans-48"/>
       <use x="242.822266" xlink:href="#DejaVuSans-48"/>
       <use x="306.445312" xlink:href="#DejaVuSans-48"/>
       <use x="370.068359" xlink:href="#DejaVuSans-55"/>
       <use x="433.691406" xlink:href="#DejaVuSans-53"/>
      </g>
     </g>
    </g>
    <g id="ytick_3">
     <g id="line2d_17">
      <path clip-path="url(#p673feb4453)" d="M 63.932812 180.599493 
L 398.732813 180.599493 
" style="fill:none;stroke:#b0b0b0;stroke-linecap:square;stroke-width:0.8;"/>
     </g>
     <g id="line2d_18">
      <g>
       <use style="stroke:#000000;stroke-width:0.8;" x="63.932812" xlink:href="#mc492052a00" y="180.599493"/>
      </g>
     </g>
     <g id="text_9">
      <!-- −0.00050 -->
      <g transform="translate(7.2 184.398712)scale(0.1 -0.1)">
       <use xlink:href="#DejaVuSans-8722"/>
       <use x="83.789062" xlink:href="#DejaVuSans-48"/>
       <use x="147.412109" xlink:href="#DejaVuSans-46"/>
       <use x="179.199219" xlink:href="#DejaVuSans-48"/>
       <use x="242.822266" xlink:href="#DejaVuSans-48"/>
       <use x="306.445312" xlink:href="#DejaVuSans-48"/>
       <use x="370.068359" xlink:href="#DejaVuSans-53"/>
       <use x="433.691406" xlink:href="#DejaVuSans-48"/>
      </g>
     </g>
    </g>
    <g id="ytick_4">
     <g id="line2d_19">
      <path clip-path="url(#p673feb4453)" d="M 63.932812 155.808023 
L 398.732813 155.808023 
" style="fill:none;stroke:#b0b0b0;stroke-linecap:square;stroke-width:0.8;"/>
     </g>
     <g id="line2d_20">
      <g>
       <use style="stroke:#000000;stroke-width:0.8;" x="63.932812" xlink:href="#mc492052a00" y="155.808023"/>
      </g>
     </g>
     <g id="text_10">
      <!-- −0.00025 -->
      <g transform="translate(7.2 159.607242)scale(0.1 -0.1)">
       <use xlink:href="#DejaVuSans-8722"/>
       <use x="83.789062" xlink:href="#DejaVuSans-48"/>
       <use x="147.412109" xlink:href="#DejaVuSans-46"/>
       <use x="179.199219" xlink:href="#DejaVuSans-48"/>
       <use x="242.822266" xlink:href="#DejaVuSans-48"/>
       <use x="306.445312" xlink:href="#DejaVuSans-48"/>
       <use x="370.068359" xlink:href="#DejaVuSans-50"/>
       <use x="433.691406" xlink:href="#DejaVuSans-53"/>
      </g>
     </g>
    </g>
    <g id="ytick_5">
     <g id="line2d_21">
      <path clip-path="url(#p673feb4453)" d="M 63.932812 131.016553 
L 398.732813 131.016553 
" style="fill:none;stroke:#b0b0b0;stroke-linecap:square;stroke-width:0.8;"/>
     </g>
     <g id="line2d_22">
      <g>
       <use style="stroke:#000000;stroke-width:0.8;" x="63.932812" xlink:href="#mc492052a00" y="131.016553"/>
      </g>
     </g>
     <g id="text_11">
      <!-- 0.00000 -->
      <g transform="translate(15.579687 134.815772)scale(0.1 -0.1)">
       <use xlink:href="#DejaVuSans-48"/>
       <use x="63.623047" xlink:href="#DejaVuSans-46"/>
       <use x="95.410156" xlink:href="#DejaVuSans-48"/>
       <use x="159.033203" xlink:href="#DejaVuSans-48"/>
       <use x="222.65625" xlink:href="#DejaVuSans-48"/>
       <use x="286.279297" xlink:href="#DejaVuSans-48"/>
       <use x="349.902344" xlink:href="#DejaVuSans-48"/>
      </g>
     </g>
    </g>
    <g id="ytick_6">
     <g id="line2d_23">
      <path clip-path="url(#p673feb4453)" d="M 63.932812 106.225083 
L 398.732813 106.225083 
" style="fill:none;stroke:#b0b0b0;stroke-linecap:square;stroke-width:0.8;"/>
     </g>
     <g id="line2d_24">
      <g>
       <use style="stroke:#000000;stroke-width:0.8;" x="63.932812" xlink:href="#mc492052a00" y="106.225083"/>
      </g>
     </g>
     <g id="text_12">
      <!-- 0.00025 -->
      <g transform="translate(15.579687 110.024302)scale(0.1 -0.1)">
       <use xlink:href="#DejaVuSans-48"/>
       <use x="63.623047" xlink:href="#DejaVuSans-46"/>
       <use x="95.410156" xlink:href="#DejaVuSans-48"/>
       <use x="159.033203" xlink:href="#DejaVuSans-48"/>
       <use x="222.65625" xlink:href="#DejaVuSans-48"/>
       <use x="286.279297" xlink:href="#DejaVuSans-50"/>
       <use x="349.902344" xlink:href="#DejaVuSans-53"/>
      </g>
     </g>
    </g>
    <g id="ytick_7">
     <g id="line2d_25">
      <path clip-path="url(#p673feb4453)" d="M 63.932812 81.433613 
L 398.732813 81.433613 
" style="fill:none;stroke:#b0b0b0;stroke-linecap:square;stroke-width:0.8;"/>
     </g>
     <g id="line2d_26">
      <g>
       <use style="stroke:#000000;stroke-width:0.8;" x="63.932812" xlink:href="#mc492052a00" y="81.433613"/>
      </g>
     </g>
     <g id="text_13">
      <!-- 0.00050 -->
      <g transform="translate(15.579687 85.232832)scale(0.1 -0.1)">
       <use xlink:href="#DejaVuSans-48"/>
       <use x="63.623047" xlink:href="#DejaVuSans-46"/>
       <use x="95.410156" xlink:href="#DejaVuSans-48"/>
       <use x="159.033203" xlink:href="#DejaVuSans-48"/>
       <use x="222.65625" xlink:href="#DejaVuSans-48"/>
       <use x="286.279297" xlink:href="#DejaVuSans-53"/>
       <use x="349.902344" xlink:href="#DejaVuSans-48"/>
      </g>
     </g>
    </g>
    <g id="ytick_8">
     <g id="line2d_27">
      <path clip-path="url(#p673feb4453)" d="M 63.932812 56.642143 
L 398.732813 56.642143 
" style="fill:none;stroke:#b0b0b0;stroke-linecap:square;stroke-width:0.8;"/>
     </g>
     <g id="line2d_28">
      <g>
       <use style="stroke:#000000;stroke-width:0.8;" x="63.932812" xlink:href="#mc492052a00" y="56.642143"/>
      </g>
     </g>
     <g id="text_14">
      <!-- 0.00075 -->
      <g transform="translate(15.579687 60.441362)scale(0.1 -0.1)">
       <use xlink:href="#DejaVuSans-48"/>
       <use x="63.623047" xlink:href="#DejaVuSans-46"/>
       <use x="95.410156" xlink:href="#DejaVuSans-48"/>
       <use x="159.033203" xlink:href="#DejaVuSans-48"/>
       <use x="222.65625" xlink:href="#DejaVuSans-48"/>
       <use x="286.279297" xlink:href="#DejaVuSans-55"/>
       <use x="349.902344" xlink:href="#DejaVuSans-53"/>
      </g>
     </g>
    </g>
    <g id="ytick_9">
     <g id="line2d_29">
      <path clip-path="url(#p673feb4453)" d="M 63.932812 31.850673 
L 398.732813 31.850673 
" style="fill:none;stroke:#b0b0b0;stroke-linecap:square;stroke-width:0.8;"/>
     </g>
     <g id="line2d_30">
      <g>
       <use style="stroke:#000000;stroke-width:0.8;" x="63.932812" xlink:href="#mc492052a00" y="31.850673"/>
      </g>
     </g>
     <g id="text_15">
      <!-- 0.00100 -->
      <g transform="translate(15.579687 35.649892)scale(0.1 -0.1)">
       <use xlink:href="#DejaVuSans-48"/>
       <use x="63.623047" xlink:href="#DejaVuSans-46"/>
       <use x="95.410156" xlink:href="#DejaVuSans-48"/>
       <use x="159.033203" xlink:href="#DejaVuSans-48"/>
       <use x="222.65625" xlink:href="#DejaVuSans-49"/>
       <use x="286.279297" xlink:href="#DejaVuSans-48"/>
       <use x="349.902344" xlink:href="#DejaVuSans-48"/>
      </g>
     </g>
    </g>
   </g>
   <g id="line2d_31">
    <path clip-path="url(#p673feb4453)" d="M 79.150994 131.016553 
L 79.455663 130.941606 
L 79.760331 130.718813 
L 80.369668 129.857788 
L 80.979004 128.527493 
L 82.197677 125.096911 
L 83.111682 122.660993 
L 83.721019 121.517699 
L 84.025687 121.167782 
L 84.330355 120.99546 
L 84.635024 121.019288 
L 84.939692 121.254346 
L 85.24436 121.71192 
L 85.853697 123.317538 
L 86.463034 125.835891 
L 87.377039 131.135551 
L 88.595712 140.063133 
L 90.119053 151.032481 
L 90.72839 154.307545 
L 91.337727 156.47795 
L 91.642395 157.067972 
L 91.947063 157.293115 
L 92.251731 157.133657 
L 92.5564 156.575474 
L 92.861068 155.610652 
L 93.470405 152.461171 
L 94.079741 147.752293 
L 94.993746 138.173867 
L 96.517088 118.249193 
L 97.735761 102.760191 
L 98.649766 93.973421 
L 99.259102 90.286916 
L 99.563771 89.225227 
L 99.868439 88.727279 
L 100.173107 88.815728 
L 100.477776 89.504894 
L 100.782444 90.80056 
L 101.391781 95.18948 
L 102.001117 101.848367 
L 102.915122 115.451999 
L 104.438464 143.805682 
L 105.657137 166.057356 
L 106.571142 179.044061 
L 107.180478 184.849772 
L 107.485147 186.726114 
L 107.789815 187.861999 
L 108.094483 188.227613 
L 108.399152 187.803734 
L 108.70382 186.582102 
L 109.008488 184.565838 
L 109.617825 178.219046 
L 110.227161 169.016322 
L 111.141166 150.829572 
L 112.969176 106.893245 
L 114.187849 80.662415 
L 114.797186 70.844371 
L 115.406523 64.08957 
L 115.711191 62.012188 
L 116.015859 60.859628 
L 116.320527 60.659973 
L 116.625196 61.42825 
L 116.929864 63.166012 
L 117.539201 69.487719 
L 118.148537 79.365605 
L 119.062542 99.778466 
L 120.281215 133.62988 
L 121.804557 176.326204 
L 122.718562 196.422305 
L 123.327898 205.786434 
L 123.937235 211.216612 
L 124.241903 212.330416 
L 124.546572 212.338188 
L 124.85124 211.23 
L 125.155908 209.011262 
L 125.765245 201.341591 
L 126.374582 189.679639 
L 127.288586 166.023788 
L 128.811928 117.436237 
L 130.030601 79.765913 
L 130.944606 57.747874 
L 131.553943 47.691445 
L 132.163279 42.067378 
L 132.467948 41.041788 
L 132.772616 41.241183 
L 133.077284 42.670158 
L 133.381953 45.316148 
L 133.991289 54.124677 
L 134.600626 67.234472 
L 135.514631 93.428538 
L 137.342641 157.050227 
L 138.561314 195.348618 
L 139.17065 209.956341 
L 139.779987 220.371955 
L 140.389324 225.991893 
L 140.693992 226.885426 
L 140.99866 226.473138 
L 141.303328 224.756261 
L 141.607997 221.754125 
L 142.217333 212.060031 
L 142.82667 197.892068 
L 143.740675 169.953096 
L 147.092026 55.723706 
L 147.701363 42.980995 
L 148.310699 34.990403 
L 148.615368 32.928634 
L 148.920036 32.201761 
L 149.224704 32.821079 
L 149.529373 34.779622 
L 149.834041 38.05165 
L 150.443378 48.343858 
L 151.052714 63.142268 
L 151.966719 91.972854 
L 155.013402 199.338586 
L 155.622739 214.000951 
L 156.232075 224.137139 
L 156.536744 227.326743 
L 156.841412 229.201527 
L 157.14608 229.737273 
L 157.450749 228.928186 
L 157.755417 226.786987 
L 158.364754 218.650602 
L 158.97409 205.787288 
L 159.888095 179.258928 
L 161.411437 124.35011 
L 162.63011 81.585319 
L 163.544115 56.310906 
L 164.153451 44.467536 
L 164.762788 37.386919 
L 165.067456 35.754486 
L 165.372125 35.423818 
L 165.676793 36.394945 
L 165.981461 38.649905 
L 166.590798 46.851809 
L 167.200134 59.544613 
L 168.114139 85.357027 
L 169.637481 137.993918 
L 170.856154 178.387584 
L 171.770159 201.922182 
L 172.379496 212.770241 
L 172.988832 219.074152 
L 173.2935 220.420805 
L 173.598169 220.543296 
L 173.902837 219.44741 
L 174.207505 217.155651 
L 174.816842 209.155859 
L 175.426179 197.038607 
L 176.340184 172.754799 
L 179.691535 72.351844 
L 180.300871 60.882137 
L 180.910208 53.395342 
L 181.214876 51.260957 
L 181.519545 50.230617 
L 181.824213 50.308617 
L 182.128881 51.483804 
L 182.43355 53.729955 
L 183.042886 61.257917 
L 183.652223 72.404563 
L 184.566228 94.385029 
L 187.612911 176.479683 
L 188.222247 187.76854 
L 188.831584 195.723268 
L 189.440921 199.990457 
L 189.745589 200.688682 
L 190.050257 200.428942 
L 190.354926 199.227185 
L 190.659594 197.112295 
L 191.26893 190.319789 
L 191.878267 180.515696 
L 192.792272 161.549035 
L 195.838955 93.21841 
L 196.448292 84.223861 
L 197.057628 78.062862 
L 197.362297 76.127373 
L 197.666965 74.97678 
L 197.971633 74.613043 
L 198.276301 75.027037 
L 198.58097 76.198776 
L 199.190306 80.684106 
L 199.799643 87.713214 
L 200.713648 101.937136 
L 204.064999 159.842034 
L 204.674336 166.295913 
L 205.283672 170.510766 
L 205.588341 171.734314 
L 205.893009 172.36287 
L 206.197677 172.403099 
L 206.502346 171.870102 
L 206.807014 170.787042 
L 207.416351 167.10016 
L 208.025687 161.665449 
L 208.939692 151.144654 
L 211.681707 117.4204 
L 212.291043 112.212821 
L 212.90038 108.463996 
L 213.509717 106.283138 
L 213.814385 105.786111 
L 214.119053 105.674861 
L 214.423722 105.934586 
L 214.72839 106.545004 
L 215.337727 108.712641 
L 215.947063 111.927226 
L 216.861068 118.049781 
L 218.993746 132.823504 
L 219.907751 137.193125 
L 220.517088 139.047609 
L 221.126424 140.013839 
L 221.431093 140.175909 
L 221.735761 140.138922 
L 222.040429 139.918881 
L 222.649766 139.009729 
L 223.563771 136.836573 
L 225.087112 132.854025 
L 225.696449 131.72587 
L 226.305785 131.092853 
L 226.610454 130.98969 
L 226.915122 131.035875 
L 227.21979 131.231672 
L 227.829127 132.052818 
L 228.438464 133.37548 
L 229.352469 135.99107 
L 230.87581 140.370332 
L 231.485147 141.47875 
L 231.789815 141.789966 
L 232.094483 141.910191 
L 232.399152 141.821593 
L 232.70382 141.510027 
L 233.008488 140.965443 
L 233.617825 139.159419 
L 234.227161 136.415571 
L 235.141166 130.759662 
L 236.664508 118.959812 
L 237.883181 110.079643 
L 238.492518 106.754917 
L 239.101854 104.591595 
L 239.406523 104.026309 
L 239.711191 103.839574 
L 240.015859 104.050519 
L 240.320527 104.672456 
L 240.625196 105.712418 
L 241.234532 109.041558 
L 241.843869 113.959955 
L 242.757874 123.881386 
L 244.281215 144.342743 
L 245.499889 160.119704 
L 246.413894 168.994398 
L 247.02323 172.671209 
L 247.327898 173.707614 
L 247.632567 174.167084 
L 247.937235 174.027653 
L 248.241903 173.275724 
L 248.546572 171.906497 
L 249.155908 167.342646 
L 249.765245 160.4811 
L 250.67925 146.548031 
L 252.202591 117.685013 
L 253.421265 95.166143 
L 254.33527 82.103228 
L 254.944606 76.312023 
L 255.249274 74.462358 
L 255.553943 73.365482 
L 255.858611 73.050611 
L 256.163279 73.536216 
L 256.467948 74.829549 
L 256.772616 76.926385 
L 257.381953 83.455797 
L 257.991289 92.860888 
L 258.905294 111.36091 
L 262.256645 187.457862 
L 262.865982 195.791398 
L 263.475319 200.760884 
L 263.779987 201.862103 
L 264.084655 202.000201 
L 264.389324 201.161277 
L 264.693992 199.344839 
L 265.303328 192.846667 
L 265.912665 182.775959 
L 266.82667 162.068849 
L 268.350012 118.899548 
L 269.873353 77.551998 
L 270.787358 59.72635 
L 271.396695 52.345055 
L 271.701363 50.203768 
L 272.006031 49.152341 
L 272.310699 49.214995 
L 272.615368 50.400648 
L 272.920036 52.702581 
L 273.529373 60.550524 
L 274.138709 72.397332 
L 275.052714 96.318088 
L 276.576056 145.229023 
L 277.794729 182.98568 
L 278.708734 204.953144 
L 279.31807 214.92423 
L 279.927407 220.427739 
L 280.232075 221.382341 
L 280.536744 221.106265 
L 280.841412 219.596214 
L 281.14608 216.865988 
L 281.755417 207.88485 
L 282.364754 194.605679 
L 283.278758 168.185906 
L 285.106768 104.318259 
L 286.325441 66.057034 
L 286.934778 51.527758 
L 287.544115 41.224498 
L 287.848783 37.853901 
L 288.153451 35.743524 
L 288.45812 34.926726 
L 288.762788 35.419011 
L 289.067456 37.217862 
L 289.372125 40.302606 
L 289.981461 50.158734 
L 290.590798 64.476083 
L 291.504803 92.595346 
L 294.856154 206.780532 
L 295.465491 219.399322 
L 296.074827 227.244179 
L 296.379496 229.227603 
L 296.684164 229.874489 
L 296.988832 229.174573 
L 297.2935 227.136131 
L 297.598169 223.786104 
L 298.207505 213.348689 
L 298.816842 198.426819 
L 299.730847 169.468369 
L 302.77753 62.294794 
L 303.386867 47.769293 
L 303.996203 37.787371 
L 304.300871 34.678437 
L 304.60554 32.884912 
L 304.910208 32.429821 
L 305.214876 33.317668 
L 305.519545 35.534405 
L 306.128881 43.807589 
L 306.738218 56.781526 
L 307.652223 83.411496 
L 309.175564 138.288565 
L 310.394238 180.854917 
L 311.308242 205.907874 
L 311.917579 217.585113 
L 312.526916 224.496745 
L 312.831584 226.046918 
L 313.136252 226.298601 
L 313.440921 225.252918 
L 313.745589 222.92918 
L 314.354926 214.611081 
L 314.964262 201.836644 
L 315.878267 175.977991 
L 317.706277 112.857551 
L 318.92495 74.752127 
L 319.838955 54.208834 
L 320.448292 45.757651 
L 320.75296 43.282646 
L 321.057628 42.016011 
L 321.362297 41.967691 
L 321.666965 43.130794 
L 321.971633 45.481657 
L 322.58097 53.571787 
L 323.190306 65.73757 
L 324.104311 90.009201 
L 327.455663 189.647478 
L 328.064999 200.926648 
L 328.674336 208.2346 
L 328.979004 210.287433 
L 329.283672 211.243138 
L 329.588341 211.098601 
L 329.893009 209.866055 
L 330.197677 207.572649 
L 330.807014 199.98326 
L 331.416351 188.822515 
L 332.330355 166.911715 
L 335.377039 85.635439 
L 335.986375 74.547753 
L 336.595712 66.779461 
L 336.90038 64.255078 
L 337.205048 62.672496 
L 337.509717 62.041444 
L 337.814385 62.358252 
L 338.119053 63.606073 
L 338.423722 65.755278 
L 339.033058 72.579055 
L 339.642395 82.362964 
L 340.5564 101.205468 
L 343.298414 163.261494 
L 344.212419 177.380912 
L 344.821756 183.360721 
L 345.126424 185.217972 
L 345.431093 186.300199 
L 345.735761 186.606501 
L 346.040429 186.146901 
L 346.345098 184.9421 
L 346.954434 180.43023 
L 347.563771 173.42868 
L 348.477776 159.34391 
L 351.524459 106.430911 
L 352.133795 99.160984 
L 352.743132 93.989275 
L 353.352469 91.09922 
L 353.657137 90.528832 
L 353.961805 90.534322 
L 354.266473 91.099865 
L 354.571142 92.201804 
L 355.180478 95.884384 
L 355.789815 101.258943 
L 356.70382 111.592986 
L 359.141166 141.375336 
L 360.055171 149.33654 
L 360.664508 152.89393 
L 361.273844 154.922012 
L 361.578513 155.360123 
L 361.883181 155.425345 
L 362.187849 155.133153 
L 362.492518 154.504322 
L 363.101854 152.343028 
L 363.711191 149.191803 
L 364.929864 141.124795 
L 366.453206 130.946353 
L 367.367211 126.365101 
L 367.976547 124.293687 
L 368.585884 123.078641 
L 368.890552 122.787942 
L 369.19522 122.697389 
L 369.499889 122.79367 
L 369.804557 123.059912 
L 370.413894 124.019662 
L 371.327898 126.16015 
L 372.85124 129.81943 
L 373.460577 130.745057 
L 374.069913 131.150211 
L 374.374582 131.134039 
L 374.67925 130.967239 
L 375.288586 130.191837 
L 375.897923 128.884201 
L 376.811928 126.202452 
L 378.33527 121.418583 
L 378.944606 120.051759 
L 379.553943 119.3245 
L 379.858611 119.257156 
L 380.163279 119.411202 
L 380.467948 119.799811 
L 381.077284 121.311806 
L 381.686621 123.808167 
L 382.295957 127.225229 
L 383.209962 133.744692 
L 383.514631 136.177348 
L 383.514631 136.177348 
" style="fill:none;stroke:#0000ff;stroke-linecap:square;stroke-width:1.5;"/>
   </g>
   <g id="patch_3">
    <path d="M 63.932812 239.758125 
L 63.932812 22.318125 
" style="fill:none;stroke:#000000;stroke-linecap:square;stroke-linejoin:miter;stroke-width:0.8;"/>
   </g>
   <g id="patch_4">
    <path d="M 398.732813 239.758125 
L 398.732813 22.318125 
" style="fill:none;stroke:#000000;stroke-linecap:square;stroke-linejoin:miter;stroke-width:0.8;"/>
   </g>
   <g id="patch_5">
    <path d="M 63.932812 239.758125 
L 398.732813 239.758125 
" style="fill:none;stroke:#000000;stroke-linecap:square;stroke-linejoin:miter;stroke-width:0.8;"/>
   </g>
   <g id="patch_6">
    <path d="M 63.932812 22.318125 
L 398.732813 22.318125 
" style="fill:none;stroke:#000000;stroke-linecap:square;stroke-linejoin:miter;stroke-width:0.8;"/>
   </g>
   <g id="text_16">
    <!-- Unknown mode -->
    <g transform="translate(184.558125 16.318125)scale(0.12 -0.12)">
     <defs>
      <path d="M 8.6875 72.90625 
L 18.609375 72.90625 
L 18.609375 28.609375 
Q 18.609375 16.890625 22.84375 11.734375 
Q 27.09375 6.59375 36.625 6.59375 
Q 46.09375 6.59375 50.34375 11.734375 
Q 54.59375 16.890625 54.59375 28.609375 
L 54.59375 72.90625 
L 64.5 72.90625 
L 64.5 27.390625 
Q 64.5 13.140625 57.4375 5.859375 
Q 50.390625 -1.421875 36.625 -1.421875 
Q 22.796875 -1.421875 15.734375 5.859375 
Q 8.6875 13.140625 8.6875 27.390625 
z
" id="DejaVuSans-85"/>
      <path d="M 54.890625 33.015625 
L 54.890625 0 
L 45.90625 0 
L 45.90625 32.71875 
Q 45.90625 40.484375 42.875 44.328125 
Q 39.84375 48.1875 33.796875 48.1875 
Q 26.515625 48.1875 22.3125 43.546875 
Q 18.109375 38.921875 18.109375 30.90625 
L 18.109375 0 
L 9.078125 0 
L 9.078125 54.6875 
L 18.109375 54.6875 
L 18.109375 46.1875 
Q 21.34375 51.125 25.703125 53.5625 
Q 30.078125 56 35.796875 56 
Q 45.21875 56 50.046875 50.171875 
Q 54.890625 44.34375 54.890625 33.015625 
z
" id="DejaVuSans-110"/>
      <path d="M 9.078125 75.984375 
L 18.109375 75.984375 
L 18.109375 31.109375 
L 44.921875 54.6875 
L 56.390625 54.6875 
L 27.390625 29.109375 
L 57.625 0 
L 45.90625 0 
L 18.109375 26.703125 
L 18.109375 0 
L 9.078125 0 
z
" id="DejaVuSans-107"/>
      <path d="M 30.609375 48.390625 
Q 23.390625 48.390625 19.1875 42.75 
Q 14.984375 37.109375 14.984375 27.296875 
Q 14.984375 17.484375 19.15625 11.84375 
Q 23.34375 6.203125 30.609375 6.203125 
Q 37.796875 6.203125 41.984375 11.859375 
Q 46.1875 17.53125 46.1875 27.296875 
Q 46.1875 37.015625 41.984375 42.703125 
Q 37.796875 48.390625 30.609375 48.390625 
z
M 30.609375 56 
Q 42.328125 56 49.015625 48.375 
Q 55.71875 40.765625 55.71875 27.296875 
Q 55.71875 13.875 49.015625 6.21875 
Q 42.328125 -1.421875 30.609375 -1.421875 
Q 18.84375 -1.421875 12.171875 6.21875 
Q 5.515625 13.875 5.515625 27.296875 
Q 5.515625 40.765625 12.171875 48.375 
Q 18.84375 56 30.609375 56 
z
" id="DejaVuSans-111"/>
      <path d="M 4.203125 54.6875 
L 13.1875 54.6875 
L 24.421875 12.015625 
L 35.59375 54.6875 
L 46.1875 54.6875 
L 57.421875 12.015625 
L 68.609375 54.6875 
L 77.59375 54.6875 
L 63.28125 0 
L 52.6875 0 
L 40.921875 44.828125 
L 29.109375 0 
L 18.5 0 
z
" id="DejaVuSans-119"/>
      <path id="DejaVuSans-32"/>
      <path d="M 52 44.1875 
Q 55.375 50.25 60.0625 53.125 
Q 64.75 56 71.09375 56 
Q 79.640625 56 84.28125 50.015625 
Q 88.921875 44.046875 88.921875 33.015625 
L 88.921875 0 
L 79.890625 0 
L 79.890625 32.71875 
Q 79.890625 40.578125 77.09375 44.375 
Q 74.3125 48.1875 68.609375 48.1875 
Q 61.625 48.1875 57.5625 43.546875 
Q 53.515625 38.921875 53.515625 30.90625 
L 53.515625 0 
L 44.484375 0 
L 44.484375 32.71875 
Q 44.484375 40.625 41.703125 44.40625 
Q 38.921875 48.1875 33.109375 48.1875 
Q 26.21875 48.1875 22.15625 43.53125 
Q 18.109375 38.875 18.109375 30.90625 
L 18.109375 0 
L 9.078125 0 
L 9.078125 54.6875 
L 18.109375 54.6875 
L 18.109375 46.1875 
Q 21.1875 51.21875 25.484375 53.609375 
Q 29.78125 56 35.6875 56 
Q 41.65625 56 45.828125 52.96875 
Q 50 49.953125 52 44.1875 
z
" id="DejaVuSans-109"/>
      <path d="M 45.40625 46.390625 
L 45.40625 75.984375 
L 54.390625 75.984375 
L 54.390625 0 
L 45.40625 0 
L 45.40625 8.203125 
Q 42.578125 3.328125 38.25 0.953125 
Q 33.9375 -1.421875 27.875 -1.421875 
Q 17.96875 -1.421875 11.734375 6.484375 
Q 5.515625 14.40625 5.515625 27.296875 
Q 5.515625 40.1875 11.734375 48.09375 
Q 17.96875 56 27.875 56 
Q 33.9375 56 38.25 53.625 
Q 42.578125 51.265625 45.40625 46.390625 
z
M 14.796875 27.296875 
Q 14.796875 17.390625 18.875 11.75 
Q 22.953125 6.109375 30.078125 6.109375 
Q 37.203125 6.109375 41.296875 11.75 
Q 45.40625 17.390625 45.40625 27.296875 
Q 45.40625 37.203125 41.296875 42.84375 
Q 37.203125 48.484375 30.078125 48.484375 
Q 22.953125 48.484375 18.875 42.84375 
Q 14.796875 37.203125 14.796875 27.296875 
z
" id="DejaVuSans-100"/>
      <path d="M 56.203125 29.59375 
L 56.203125 25.203125 
L 14.890625 25.203125 
Q 15.484375 15.921875 20.484375 11.0625 
Q 25.484375 6.203125 34.421875 6.203125 
Q 39.59375 6.203125 44.453125 7.46875 
Q 49.3125 8.734375 54.109375 11.28125 
L 54.109375 2.78125 
Q 49.265625 0.734375 44.1875 -0.34375 
Q 39.109375 -1.421875 33.890625 -1.421875 
Q 20.796875 -1.421875 13.15625 6.1875 
Q 5.515625 13.8125 5.515625 26.8125 
Q 5.515625 40.234375 12.765625 48.109375 
Q 20.015625 56 32.328125 56 
Q 43.359375 56 49.78125 48.890625 
Q 56.203125 41.796875 56.203125 29.59375 
z
M 47.21875 32.234375 
Q 47.125 39.59375 43.09375 43.984375 
Q 39.0625 48.390625 32.421875 48.390625 
Q 24.90625 48.390625 20.390625 44.140625 
Q 15.875 39.890625 15.1875 32.171875 
z
" id="DejaVuSans-101"/>
     </defs>
     <use xlink:href="#DejaVuSans-85"/>
     <use x="73.193359" xlink:href="#DejaVuSans-110"/>
     <use x="136.572266" xlink:href="#DejaVuSans-107"/>
     <use x="194.482422" xlink:href="#DejaVuSans-110"/>
     <use x="257.861328" xlink:href="#DejaVuSans-111"/>
     <use x="319.042969" xlink:href="#DejaVuSans-119"/>
     <use x="400.830078" xlink:href="#DejaVuSans-110"/>
     <use x="464.208984" xlink:href="#DejaVuSans-32"/>
     <use x="495.996094" xlink:href="#DejaVuSans-109"/>
     <use x="593.408203" xlink:href="#DejaVuSans-111"/>
     <use x="654.589844" xlink:href="#DejaVuSans-100"/>
     <use x="718.066406" xlink:href="#DejaVuSans-101"/>
    </g>
   </g>
  </g>
 </g>
 <defs>
  <clipPath id="p673feb4453">
   <rect height="217.44" width="334.8" x="63.932812" y="22.318125"/>
  </clipPath>
 </defs>
</svg>
