<?xml version="1.0" encoding="utf-8" standalone="no"?>
<!DOCTYPE svg PUBLIC "-//W3C//DTD SVG 1.1//EN"
  "http://www.w3.org/Graphics/SVG/1.1/DTD/svg11.dtd">
<!-- Created with matplotlib (https://matplotlib.org/) -->
<svg height="252.20711pt" version="1.1" viewBox="0 0 385.566651 252.20711" width="385.566651pt" xmlns="http://www.w3.org/2000/svg" xmlns:xlink="http://www.w3.org/1999/xlink">
 <metadata>
  <rdf:RDF xmlns:cc="http://creativecommons.org/ns#" xmlns:dc="http://purl.org/dc/elements/1.1/" xmlns:rdf="http://www.w3.org/1999/02/22-rdf-syntax-ns#">
   <cc:Work>
    <dc:type rdf:resource="http://purl.org/dc/dcmitype/StillImage"/>
    <dc:date>2021-10-13T21:39:48.510308</dc:date>
    <dc:format>image/svg+xml</dc:format>
    <dc:creator>
     <cc:Agent>
      <dc:title>Matplotlib v3.3.4, https://matplotlib.org/</dc:title>
     </cc:Agent>
    </dc:creator>
   </cc:Work>
  </rdf:RDF>
 </metadata>
 <defs>
  <style type="text/css">*{stroke-linecap:butt;stroke-linejoin:round;}</style>
 </defs>
 <g id="figure_1">
  <g id="patch_1">
   <path d="M 0 252.20711 
L 385.566651 252.20711 
L 385.566651 0 
L 0 0 
z
" style="fill:none;"/>
  </g>
  <g id="axes_1">
   <g id="patch_2">
    <path d="M 40.755264 224.64 
L 375.555264 224.64 
L 375.555264 7.2 
L 40.755264 7.2 
z
" style="fill:#ffffff;"/>
   </g>
   <g id="matplotlib.axis_1">
    <g id="xtick_1">
     <g id="line2d_1">
      <path clip-path="url(#pa19e2ae5ae)" d="M 58.802755 224.64 
L 58.802755 7.2 
" style="fill:none;stroke:#b0b0b0;stroke-linecap:square;stroke-width:0.8;"/>
     </g>
     <g id="line2d_2">
      <defs>
       <path d="M 0 0 
L 0 3.5 
" id="m867159be48" style="stroke:#000000;stroke-width:0.8;"/>
      </defs>
      <g>
       <use style="stroke:#000000;stroke-width:0.8;" x="58.802755" xlink:href="#m867159be48" y="224.64"/>
      </g>
     </g>
     <g id="text_1">
      <!-- $\mathdefault{0.4}$ -->
      <g transform="translate(49.261113 241.771866)scale(0.15 -0.15)">
       <defs>
        <path d="M 25.40625 68 
C 19.90625 68 15.703125 66.296875 12 62.796875 
C 6.203125 57.203125 2.40625 45.6875 2.40625 34 
C 2.40625 23.09375 5.703125 11.390625 10.40625 5.796875 
C 14.09375 1.390625 19.203125 -1 25 -1 
C 30.09375 -1 34.40625 0.6875 38 4.1875 
C 43.796875 9.6875 47.59375 21.296875 47.59375 33.390625 
C 47.59375 53.890625 38.5 68 25.40625 68 
z
M 25.09375 65.390625 
C 33.5 65.390625 38 54.09375 38 33.1875 
C 38 12.296875 33.59375 1.59375 25 1.59375 
C 16.40625 1.59375 12 12.296875 12 33.09375 
C 12 54.296875 16.5 65.390625 25.09375 65.390625 
z
" id="Nimbus_Roman_No9_L_Regular-48"/>
        <path d="M 19.203125 5.296875 
C 19.203125 8.1875 16.796875 10.59375 13.90625 10.59375 
C 11 10.59375 8.59375 8.1875 8.59375 5.296875 
C 8.59375 2.390625 11 0 13.90625 0 
C 16.796875 0 19.203125 2.390625 19.203125 5.296875 
z
" id="CMMI10-58"/>
        <path d="M 47.203125 23.390625 
L 37 23.390625 
L 37 68 
L 32.59375 68 
L 1.203125 23.390625 
L 1.203125 17 
L 29.296875 17 
L 29.296875 0 
L 37 0 
L 37 17 
L 47.203125 17 
z
M 29.203125 23.390625 
L 5.203125 23.390625 
L 29.203125 57.765625 
z
" id="Nimbus_Roman_No9_L_Regular-52"/>
       </defs>
       <use transform="scale(0.996264)" xlink:href="#Nimbus_Roman_No9_L_Regular-48"/>
       <use transform="translate(49.8132 0)scale(0.996264)" xlink:href="#CMMI10-58"/>
       <use transform="translate(77.408707 0)scale(0.996264)" xlink:href="#Nimbus_Roman_No9_L_Regular-52"/>
      </g>
     </g>
    </g>
    <g id="xtick_2">
     <g id="line2d_3">
      <path clip-path="url(#pa19e2ae5ae)" d="M 136.308318 224.64 
L 136.308318 7.2 
" style="fill:none;stroke:#b0b0b0;stroke-linecap:square;stroke-width:0.8;"/>
     </g>
     <g id="line2d_4">
      <g>
       <use style="stroke:#000000;stroke-width:0.8;" x="136.308318" xlink:href="#m867159be48" y="224.64"/>
      </g>
     </g>
     <g id="text_2">
      <!-- $\mathdefault{0.6}$ -->
      <g transform="translate(126.766676 241.771866)scale(0.15 -0.15)">
       <defs>
        <path d="M 44.59375 68.59375 
C 33.203125 67.59375 27.40625 65.6875 20.09375 60.59375 
C 9.296875 52.890625 3.40625 41.484375 3.40625 28.140625 
C 3.40625 19.5 6.09375 10.75 10.40625 5.765625 
C 14.203125 1.390625 19.59375 -1 25.796875 -1 
C 38.203125 -1 46.796875 8.453125 46.796875 22.1875 
C 46.796875 34.90625 39.5 43 28 43 
C 23.59375 43 21.5 42.296875 15.203125 38.484375 
C 17.90625 53.59375 29.09375 64.390625 44.796875 67 
z
M 24.203125 38.390625 
C 32.796875 38.390625 37.796875 31.234375 37.796875 18.796875 
C 37.796875 7.859375 33.90625 1.796875 26.90625 1.796875 
C 18.09375 1.796875 12.703125 11.140625 12.703125 26.5625 
C 12.703125 31.625 13.5 34.421875 15.5 35.90625 
C 17.59375 37.5 20.703125 38.390625 24.203125 38.390625 
z
" id="Nimbus_Roman_No9_L_Regular-54"/>
       </defs>
       <use transform="scale(0.996264)" xlink:href="#Nimbus_Roman_No9_L_Regular-48"/>
       <use transform="translate(49.8132 0)scale(0.996264)" xlink:href="#CMMI10-58"/>
       <use transform="translate(77.408707 0)scale(0.996264)" xlink:href="#Nimbus_Roman_No9_L_Regular-54"/>
      </g>
     </g>
    </g>
    <g id="xtick_3">
     <g id="line2d_5">
      <path clip-path="url(#pa19e2ae5ae)" d="M 213.813882 224.64 
L 213.813882 7.2 
" style="fill:none;stroke:#b0b0b0;stroke-linecap:square;stroke-width:0.8;"/>
     </g>
     <g id="line2d_6">
      <g>
       <use style="stroke:#000000;stroke-width:0.8;" x="213.813882" xlink:href="#m867159be48" y="224.64"/>
      </g>
     </g>
     <g id="text_3">
      <!-- $\mathdefault{0.8}$ -->
      <g transform="translate(204.27224 241.771866)scale(0.15 -0.15)">
       <defs>
        <path d="M 29 37.5 
C 38.90625 42.796875 42.40625 47 42.40625 53.796875 
C 42.40625 62 35.203125 68 25.203125 68 
C 14.296875 68 6.203125 61.296875 6.203125 52.203125 
C 6.203125 45.6875 8.09375 42.796875 18.59375 33.59375 
C 7.796875 25.390625 5.59375 22.296875 5.59375 15.5 
C 5.59375 5.796875 13.5 -1 24.796875 -1 
C 36.796875 -1 44.5 5.59375 44.5 15.890625 
C 44.5 23.59375 41.09375 28.5 29 37.5 
z
M 27.203125 27.1875 
C 34.5 22 36.90625 18.390625 36.90625 12.796875 
C 36.90625 6.296875 32.40625 1.796875 25.90625 1.796875 
C 18.296875 1.796875 13.203125 7.59375 13.203125 16.296875 
C 13.203125 22.6875 15.40625 26.890625 21.203125 31.59375 
z
M 26.09375 39.296875 
C 17.203125 45.09375 13.59375 49.6875 13.59375 55.296875 
C 13.59375 61.09375 18.09375 65.1875 24.40625 65.1875 
C 31.203125 65.1875 35.5 60.796875 35.5 53.890625 
C 35.5 48.1875 32.703125 43.6875 27 39.890625 
C 26.5 39.59375 26.5 39.59375 26.09375 39.296875 
z
" id="Nimbus_Roman_No9_L_Regular-56"/>
       </defs>
       <use transform="scale(0.996264)" xlink:href="#Nimbus_Roman_No9_L_Regular-48"/>
       <use transform="translate(49.8132 0)scale(0.996264)" xlink:href="#CMMI10-58"/>
       <use transform="translate(77.408707 0)scale(0.996264)" xlink:href="#Nimbus_Roman_No9_L_Regular-56"/>
      </g>
     </g>
    </g>
    <g id="xtick_4">
     <g id="line2d_7">
      <path clip-path="url(#pa19e2ae5ae)" d="M 291.319445 224.64 
L 291.319445 7.2 
" style="fill:none;stroke:#b0b0b0;stroke-linecap:square;stroke-width:0.8;"/>
     </g>
     <g id="line2d_8">
      <g>
       <use style="stroke:#000000;stroke-width:0.8;" x="291.319445" xlink:href="#m867159be48" y="224.64"/>
      </g>
     </g>
     <g id="text_4">
      <!-- $\mathdefault{1.0}$ -->
      <g transform="translate(281.777803 241.771866)scale(0.15 -0.15)">
       <defs>
        <path d="M 29.09375 68 
L 11.09375 59 
L 11.09375 57.59375 
C 12.296875 58.09375 13.40625 58.484375 13.796875 58.6875 
C 15.59375 59.390625 17.296875 59.78125 18.296875 59.78125 
C 20.40625 59.78125 21.296875 58.296875 21.296875 55.078125 
L 21.296875 9.359375 
C 21.296875 6.03125 20.5 3.71875 18.90625 2.796875 
C 17.40625 1.890625 16 1.59375 11.796875 1.5 
L 11.796875 0 
L 39.40625 0 
L 39.40625 1.5 
C 31.5 1.59375 29.90625 2.609375 29.90625 7.453125 
L 29.90625 67.796875 
z
" id="Nimbus_Roman_No9_L_Regular-49"/>
       </defs>
       <use transform="scale(0.996264)" xlink:href="#Nimbus_Roman_No9_L_Regular-49"/>
       <use transform="translate(49.8132 0)scale(0.996264)" xlink:href="#CMMI10-58"/>
       <use transform="translate(77.408707 0)scale(0.996264)" xlink:href="#Nimbus_Roman_No9_L_Regular-48"/>
      </g>
     </g>
    </g>
    <g id="xtick_5">
     <g id="line2d_9">
      <path clip-path="url(#pa19e2ae5ae)" d="M 368.825009 224.64 
L 368.825009 7.2 
" style="fill:none;stroke:#b0b0b0;stroke-linecap:square;stroke-width:0.8;"/>
     </g>
     <g id="line2d_10">
      <g>
       <use style="stroke:#000000;stroke-width:0.8;" x="368.825009" xlink:href="#m867159be48" y="224.64"/>
      </g>
     </g>
     <g id="text_5">
      <!-- $\mathdefault{1.2}$ -->
      <g transform="translate(359.283367 241.771866)scale(0.15 -0.15)">
       <defs>
        <path d="M 47.5 13.734375 
L 46.203125 14.25 
C 42.5 8.5 41.203125 7.59375 36.703125 7.59375 
L 12.796875 7.59375 
L 29.59375 25.328125 
C 38.5 34.703125 42.40625 42.359375 42.40625 50.21875 
C 42.40625 60.28125 34.296875 68 23.90625 68 
C 18.40625 68 13.203125 65.796875 9.5 61.796875 
C 6.296875 58.375 4.796875 55.15625 3.09375 48 
L 5.203125 47.484375 
C 9.203125 57.359375 12.796875 60.59375 19.703125 60.59375 
C 28.09375 60.59375 33.796875 54.84375 33.796875 46.390625 
C 33.796875 38.53125 29.203125 29.15625 20.796875 20.1875 
L 3 1.1875 
L 3 0 
L 42 0 
z
" id="Nimbus_Roman_No9_L_Regular-50"/>
       </defs>
       <use transform="scale(0.996264)" xlink:href="#Nimbus_Roman_No9_L_Regular-49"/>
       <use transform="translate(49.8132 0)scale(0.996264)" xlink:href="#CMMI10-58"/>
       <use transform="translate(77.408707 0)scale(0.996264)" xlink:href="#Nimbus_Roman_No9_L_Regular-50"/>
      </g>
     </g>
    </g>
   </g>
   <g id="matplotlib.axis_2">
    <g id="ytick_1">
     <g id="line2d_11">
      <path clip-path="url(#pa19e2ae5ae)" d="M 40.755264 219.554272 
L 375.555264 219.554272 
" style="fill:none;stroke:#b0b0b0;stroke-linecap:square;stroke-width:0.8;"/>
     </g>
     <g id="line2d_12">
      <defs>
       <path d="M 0 0 
L -3.5 0 
" id="mb540efbf03" style="stroke:#000000;stroke-width:0.8;"/>
      </defs>
      <g>
       <use style="stroke:#000000;stroke-width:0.8;" x="40.755264" xlink:href="#mb540efbf03" y="219.554272"/>
      </g>
     </g>
     <g id="text_6">
      <!-- $\mathdefault{0.70}$ -->
      <g transform="translate(7.2 224.620206)scale(0.15 -0.15)">
       <defs>
        <path d="M 44.90625 66 
L 7.90625 66 
L 2 51.296875 
L 3.703125 50.5 
C 8 57.296875 9.796875 58.59375 15.296875 58.59375 
L 37 58.59375 
L 17.203125 -1 
L 23.703125 -1 
L 44.90625 64.390625 
z
" id="Nimbus_Roman_No9_L_Regular-55"/>
       </defs>
       <use transform="scale(0.996264)" xlink:href="#Nimbus_Roman_No9_L_Regular-48"/>
       <use transform="translate(49.8132 0)scale(0.996264)" xlink:href="#CMMI10-58"/>
       <use transform="translate(77.408707 0)scale(0.996264)" xlink:href="#Nimbus_Roman_No9_L_Regular-55"/>
       <use transform="translate(127.221908 0)scale(0.996264)" xlink:href="#Nimbus_Roman_No9_L_Regular-48"/>
      </g>
     </g>
    </g>
    <g id="ytick_2">
     <g id="line2d_13">
      <path clip-path="url(#pa19e2ae5ae)" d="M 40.755264 185.794711 
L 375.555264 185.794711 
" style="fill:none;stroke:#b0b0b0;stroke-linecap:square;stroke-width:0.8;"/>
     </g>
     <g id="line2d_14">
      <g>
       <use style="stroke:#000000;stroke-width:0.8;" x="40.755264" xlink:href="#mb540efbf03" y="185.794711"/>
      </g>
     </g>
     <g id="text_7">
      <!-- $\mathdefault{0.75}$ -->
      <g transform="translate(7.2 190.860644)scale(0.15 -0.15)">
       <defs>
        <path d="M 18.09375 58.09375 
L 37.703125 58.09375 
C 39.296875 58.09375 39.703125 58.296875 40 58.984375 
L 43.796875 67.890625 
L 42.90625 68.59375 
C 41.40625 66.5 40.40625 66 38.296875 66 
L 17.40625 66 
L 6.5 42.453125 
C 6.40625 42.265625 6.40625 42.15625 6.40625 41.96875 
C 6.40625 41.46875 6.796875 41.171875 7.59375 41.171875 
C 10.796875 41.171875 14.796875 40.484375 18.90625 39.1875 
C 30.40625 35.53125 35.703125 29.40625 35.703125 19.609375 
C 35.703125 10.109375 29.59375 2.6875 21.796875 2.6875 
C 19.796875 2.6875 18.09375 3.390625 15.09375 5.5625 
C 11.90625 7.84375 9.59375 8.828125 7.5 8.828125 
C 4.59375 8.828125 3.203125 7.640625 3.203125 5.171875 
C 3.203125 1.390625 7.90625 -1 15.40625 -1 
C 23.796875 -1 31 1.6875 36 6.75 
C 40.59375 11.203125 42.703125 16.84375 42.703125 24.359375 
C 42.703125 31.484375 40.796875 36.03125 35.796875 40.96875 
C 31.40625 45.328125 25.703125 47.609375 13.90625 49.6875 
z
" id="Nimbus_Roman_No9_L_Regular-53"/>
       </defs>
       <use transform="scale(0.996264)" xlink:href="#Nimbus_Roman_No9_L_Regular-48"/>
       <use transform="translate(49.8132 0)scale(0.996264)" xlink:href="#CMMI10-58"/>
       <use transform="translate(77.408707 0)scale(0.996264)" xlink:href="#Nimbus_Roman_No9_L_Regular-55"/>
       <use transform="translate(127.221908 0)scale(0.996264)" xlink:href="#Nimbus_Roman_No9_L_Regular-53"/>
      </g>
     </g>
    </g>
    <g id="ytick_3">
     <g id="line2d_15">
      <path clip-path="url(#pa19e2ae5ae)" d="M 40.755264 152.03515 
L 375.555264 152.03515 
" style="fill:none;stroke:#b0b0b0;stroke-linecap:square;stroke-width:0.8;"/>
     </g>
     <g id="line2d_16">
      <g>
       <use style="stroke:#000000;stroke-width:0.8;" x="40.755264" xlink:href="#mb540efbf03" y="152.03515"/>
      </g>
     </g>
     <g id="text_8">
      <!-- $\mathdefault{0.80}$ -->
      <g transform="translate(7.2 157.101083)scale(0.15 -0.15)">
       <use transform="scale(0.996264)" xlink:href="#Nimbus_Roman_No9_L_Regular-48"/>
       <use transform="translate(49.8132 0)scale(0.996264)" xlink:href="#CMMI10-58"/>
       <use transform="translate(77.408707 0)scale(0.996264)" xlink:href="#Nimbus_Roman_No9_L_Regular-56"/>
       <use transform="translate(127.221908 0)scale(0.996264)" xlink:href="#Nimbus_Roman_No9_L_Regular-48"/>
      </g>
     </g>
    </g>
    <g id="ytick_4">
     <g id="line2d_17">
      <path clip-path="url(#pa19e2ae5ae)" d="M 40.755264 118.275589 
L 375.555264 118.275589 
" style="fill:none;stroke:#b0b0b0;stroke-linecap:square;stroke-width:0.8;"/>
     </g>
     <g id="line2d_18">
      <g>
       <use style="stroke:#000000;stroke-width:0.8;" x="40.755264" xlink:href="#mb540efbf03" y="118.275589"/>
      </g>
     </g>
     <g id="text_9">
      <!-- $\mathdefault{0.85}$ -->
      <g transform="translate(7.2 123.341522)scale(0.15 -0.15)">
       <use transform="scale(0.996264)" xlink:href="#Nimbus_Roman_No9_L_Regular-48"/>
       <use transform="translate(49.8132 0)scale(0.996264)" xlink:href="#CMMI10-58"/>
       <use transform="translate(77.408707 0)scale(0.996264)" xlink:href="#Nimbus_Roman_No9_L_Regular-56"/>
       <use transform="translate(127.221908 0)scale(0.996264)" xlink:href="#Nimbus_Roman_No9_L_Regular-53"/>
      </g>
     </g>
    </g>
    <g id="ytick_5">
     <g id="line2d_19">
      <path clip-path="url(#pa19e2ae5ae)" d="M 40.755264 84.516028 
L 375.555264 84.516028 
" style="fill:none;stroke:#b0b0b0;stroke-linecap:square;stroke-width:0.8;"/>
     </g>
     <g id="line2d_20">
      <g>
       <use style="stroke:#000000;stroke-width:0.8;" x="40.755264" xlink:href="#mb540efbf03" y="84.516028"/>
      </g>
     </g>
     <g id="text_10">
      <!-- $\mathdefault{0.90}$ -->
      <g transform="translate(7.2 89.581961)scale(0.15 -0.15)">
       <defs>
        <path d="M 5.90625 -1.90625 
C 17.09375 -0.609375 22.59375 1.296875 29.40625 6.1875 
C 39.796875 13.796875 45.90625 26.1875 45.90625 39.71875 
C 45.90625 56.265625 36.703125 68 23.796875 68 
C 11.90625 68 3 57.875 3 44.328125 
C 3 32.109375 10.203125 24 21 24 
C 26.5 24 30.703125 25.59375 36 29.703125 
C 31.90625 13.390625 20.796875 2.6875 5.59375 0.09375 
z
M 36.203125 35.8125 
C 36.203125 33.8125 35.796875 32.90625 34.703125 32 
C 31.90625 29.59375 28.203125 28.296875 24.59375 28.296875 
C 17 28.296875 12.203125 35.8125 12.203125 47.75 
C 12.203125 53.453125 13.796875 59.46875 15.90625 62.078125 
C 17.59375 64.09375 20.09375 65.1875 23 65.1875 
C 31.703125 65.1875 36.203125 56.5625 36.203125 39.71875 
z
" id="Nimbus_Roman_No9_L_Regular-57"/>
       </defs>
       <use transform="scale(0.996264)" xlink:href="#Nimbus_Roman_No9_L_Regular-48"/>
       <use transform="translate(49.8132 0)scale(0.996264)" xlink:href="#CMMI10-58"/>
       <use transform="translate(77.408707 0)scale(0.996264)" xlink:href="#Nimbus_Roman_No9_L_Regular-57"/>
       <use transform="translate(127.221908 0)scale(0.996264)" xlink:href="#Nimbus_Roman_No9_L_Regular-48"/>
      </g>
     </g>
    </g>
    <g id="ytick_6">
     <g id="line2d_21">
      <path clip-path="url(#pa19e2ae5ae)" d="M 40.755264 50.756466 
L 375.555264 50.756466 
" style="fill:none;stroke:#b0b0b0;stroke-linecap:square;stroke-width:0.8;"/>
     </g>
     <g id="line2d_22">
      <g>
       <use style="stroke:#000000;stroke-width:0.8;" x="40.755264" xlink:href="#mb540efbf03" y="50.756466"/>
      </g>
     </g>
     <g id="text_11">
      <!-- $\mathdefault{0.95}$ -->
      <g transform="translate(7.2 55.8224)scale(0.15 -0.15)">
       <use transform="scale(0.996264)" xlink:href="#Nimbus_Roman_No9_L_Regular-48"/>
       <use transform="translate(49.8132 0)scale(0.996264)" xlink:href="#CMMI10-58"/>
       <use transform="translate(77.408707 0)scale(0.996264)" xlink:href="#Nimbus_Roman_No9_L_Regular-57"/>
       <use transform="translate(127.221908 0)scale(0.996264)" xlink:href="#Nimbus_Roman_No9_L_Regular-53"/>
      </g>
     </g>
    </g>
    <g id="ytick_7">
     <g id="line2d_23">
      <path clip-path="url(#pa19e2ae5ae)" d="M 40.755264 16.996905 
L 375.555264 16.996905 
" style="fill:none;stroke:#b0b0b0;stroke-linecap:square;stroke-width:0.8;"/>
     </g>
     <g id="line2d_24">
      <g>
       <use style="stroke:#000000;stroke-width:0.8;" x="40.755264" xlink:href="#mb540efbf03" y="16.996905"/>
      </g>
     </g>
     <g id="text_12">
      <!-- $\mathdefault{1.00}$ -->
      <g transform="translate(7.2 22.062838)scale(0.15 -0.15)">
       <use transform="scale(0.996264)" xlink:href="#Nimbus_Roman_No9_L_Regular-49"/>
       <use transform="translate(49.8132 0)scale(0.996264)" xlink:href="#CMMI10-58"/>
       <use transform="translate(77.408707 0)scale(0.996264)" xlink:href="#Nimbus_Roman_No9_L_Regular-48"/>
       <use transform="translate(127.221908 0)scale(0.996264)" xlink:href="#Nimbus_Roman_No9_L_Regular-48"/>
      </g>
     </g>
    </g>
   </g>
   <g id="line2d_25">
    <defs>
     <path d="M 0 1.5 
C 0.397805 1.5 0.77937 1.341951 1.06066 1.06066 
C 1.341951 0.77937 1.5 0.397805 1.5 0 
C 1.5 -0.397805 1.341951 -0.77937 1.06066 -1.06066 
C 0.77937 -1.341951 0.397805 -1.5 0 -1.5 
C -0.397805 -1.5 -0.77937 -1.341951 -1.06066 -1.06066 
C -1.341951 -0.77937 -1.5 -0.397805 -1.5 0 
C -1.5 0.397805 -1.341951 0.77937 -1.06066 1.06066 
C -0.77937 1.341951 -0.397805 1.5 0 1.5 
z
" id="m7ee8212a17" style="stroke:#0000ff;"/>
    </defs>
    <g clip-path="url(#pa19e2ae5ae)">
     <use style="fill:#0000ff;stroke:#0000ff;" x="55.973446" xlink:href="#m7ee8212a17" y="214.756364"/>
     <use style="fill:#0000ff;stroke:#0000ff;" x="62.184949" xlink:href="#m7ee8212a17" y="199.619713"/>
     <use style="fill:#0000ff;stroke:#0000ff;" x="68.396451" xlink:href="#m7ee8212a17" y="185.115256"/>
     <use style="fill:#0000ff;stroke:#0000ff;" x="74.607954" xlink:href="#m7ee8212a17" y="171.123654"/>
     <use style="fill:#0000ff;stroke:#0000ff;" x="80.819457" xlink:href="#m7ee8212a17" y="157.647244"/>
     <use style="fill:#0000ff;stroke:#0000ff;" x="87.03096" xlink:href="#m7ee8212a17" y="144.713733"/>
     <use style="fill:#0000ff;stroke:#0000ff;" x="93.242462" xlink:href="#m7ee8212a17" y="132.350872"/>
     <use style="fill:#0000ff;stroke:#0000ff;" x="99.453965" xlink:href="#m7ee8212a17" y="120.543857"/>
     <use style="fill:#0000ff;stroke:#0000ff;" x="105.665468" xlink:href="#m7ee8212a17" y="109.331397"/>
     <use style="fill:#0000ff;stroke:#0000ff;" x="111.876971" xlink:href="#m7ee8212a17" y="98.709007"/>
     <use style="fill:#0000ff;stroke:#0000ff;" x="118.088474" xlink:href="#m7ee8212a17" y="88.697964"/>
     <use style="fill:#0000ff;stroke:#0000ff;" x="124.299976" xlink:href="#m7ee8212a17" y="79.306075"/>
     <use style="fill:#0000ff;stroke:#0000ff;" x="130.511479" xlink:href="#m7ee8212a17" y="70.543324"/>
     <use style="fill:#0000ff;stroke:#0000ff;" x="136.722982" xlink:href="#m7ee8212a17" y="62.420024"/>
     <use style="fill:#0000ff;stroke:#0000ff;" x="142.934485" xlink:href="#m7ee8212a17" y="54.943302"/>
     <use style="fill:#0000ff;stroke:#0000ff;" x="149.145988" xlink:href="#m7ee8212a17" y="48.12096"/>
     <use style="fill:#0000ff;stroke:#0000ff;" x="155.35749" xlink:href="#m7ee8212a17" y="41.960336"/>
     <use style="fill:#0000ff;stroke:#0000ff;" x="161.568993" xlink:href="#m7ee8212a17" y="36.466226"/>
     <use style="fill:#0000ff;stroke:#0000ff;" x="167.780496" xlink:href="#m7ee8212a17" y="31.646014"/>
     <use style="fill:#0000ff;stroke:#0000ff;" x="173.991999" xlink:href="#m7ee8212a17" y="27.503821"/>
     <use style="fill:#0000ff;stroke:#0000ff;" x="180.203501" xlink:href="#m7ee8212a17" y="24.044758"/>
     <use style="fill:#0000ff;stroke:#0000ff;" x="186.415004" xlink:href="#m7ee8212a17" y="21.272887"/>
     <use style="fill:#0000ff;stroke:#0000ff;" x="192.626507" xlink:href="#m7ee8212a17" y="19.190511"/>
     <use style="fill:#0000ff;stroke:#0000ff;" x="198.83801" xlink:href="#m7ee8212a17" y="17.797468"/>
     <use style="fill:#0000ff;stroke:#0000ff;" x="205.049513" xlink:href="#m7ee8212a17" y="17.09747"/>
     <use style="fill:#0000ff;stroke:#0000ff;" x="211.261015" xlink:href="#m7ee8212a17" y="17.088109"/>
     <use style="fill:#0000ff;stroke:#0000ff;" x="217.472518" xlink:href="#m7ee8212a17" y="17.772529"/>
     <use style="fill:#0000ff;stroke:#0000ff;" x="223.684021" xlink:href="#m7ee8212a17" y="19.157596"/>
     <use style="fill:#0000ff;stroke:#0000ff;" x="229.895524" xlink:href="#m7ee8212a17" y="21.234323"/>
     <use style="fill:#0000ff;stroke:#0000ff;" x="236.107026" xlink:href="#m7ee8212a17" y="24.002178"/>
     <use style="fill:#0000ff;stroke:#0000ff;" x="242.318529" xlink:href="#m7ee8212a17" y="27.456782"/>
     <use style="fill:#0000ff;stroke:#0000ff;" x="248.530032" xlink:href="#m7ee8212a17" y="31.572682"/>
     <use style="fill:#0000ff;stroke:#0000ff;" x="254.741535" xlink:href="#m7ee8212a17" y="36.367425"/>
     <use style="fill:#0000ff;stroke:#0000ff;" x="260.953038" xlink:href="#m7ee8212a17" y="41.853208"/>
     <use style="fill:#0000ff;stroke:#0000ff;" x="267.16454" xlink:href="#m7ee8212a17" y="48.007281"/>
     <use style="fill:#0000ff;stroke:#0000ff;" x="273.376043" xlink:href="#m7ee8212a17" y="54.86337"/>
     <use style="fill:#0000ff;stroke:#0000ff;" x="279.587546" xlink:href="#m7ee8212a17" y="62.374416"/>
     <use style="fill:#0000ff;stroke:#0000ff;" x="285.799049" xlink:href="#m7ee8212a17" y="70.464095"/>
     <use style="fill:#0000ff;stroke:#0000ff;" x="292.010552" xlink:href="#m7ee8212a17" y="79.192692"/>
     <use style="fill:#0000ff;stroke:#0000ff;" x="298.222054" xlink:href="#m7ee8212a17" y="88.531965"/>
     <use style="fill:#0000ff;stroke:#0000ff;" x="304.433557" xlink:href="#m7ee8212a17" y="98.491589"/>
     <use style="fill:#0000ff;stroke:#0000ff;" x="310.64506" xlink:href="#m7ee8212a17" y="109.199117"/>
     <use style="fill:#0000ff;stroke:#0000ff;" x="316.856563" xlink:href="#m7ee8212a17" y="120.505758"/>
     <use style="fill:#0000ff;stroke:#0000ff;" x="323.068065" xlink:href="#m7ee8212a17" y="132.330217"/>
     <use style="fill:#0000ff;stroke:#0000ff;" x="329.279568" xlink:href="#m7ee8212a17" y="144.730017"/>
     <use style="fill:#0000ff;stroke:#0000ff;" x="335.491071" xlink:href="#m7ee8212a17" y="157.586446"/>
     <use style="fill:#0000ff;stroke:#0000ff;" x="341.702574" xlink:href="#m7ee8212a17" y="170.992261"/>
     <use style="fill:#0000ff;stroke:#0000ff;" x="347.914077" xlink:href="#m7ee8212a17" y="185.096994"/>
     <use style="fill:#0000ff;stroke:#0000ff;" x="354.125579" xlink:href="#m7ee8212a17" y="199.673611"/>
     <use style="fill:#0000ff;stroke:#0000ff;" x="360.337082" xlink:href="#m7ee8212a17" y="214.756364"/>
    </g>
   </g>
   <g id="line2d_26">
    <path clip-path="url(#pa19e2ae5ae)" d="M 55.973446 214.755836 
L 62.184949 199.698675 
L 68.396451 185.14758 
L 74.607954 171.117503 
L 80.819457 157.622862 
L 87.03096 144.677523 
L 93.242462 132.294788 
L 99.453965 120.487381 
L 105.665468 109.267435 
L 111.876971 98.64648 
L 118.088474 88.635429 
L 124.299976 79.244569 
L 130.511479 70.48355 
L 136.722982 62.361374 
L 142.934485 54.886388 
L 149.145988 48.066273 
L 155.35749 41.908036 
L 161.568993 36.418006 
L 167.780496 31.601825 
L 173.991999 27.46444 
L 180.203501 24.010104 
L 186.415004 21.242366 
L 192.626507 19.16407 
L 198.83801 17.777352 
L 205.049513 17.083636 
L 211.261015 17.083636 
L 217.472518 17.777352 
L 223.684021 19.16407 
L 229.895524 21.242366 
L 236.107026 24.010104 
L 242.318529 27.46444 
L 248.530032 31.601825 
L 254.741535 36.418006 
L 260.953038 41.908036 
L 267.16454 48.066273 
L 273.376043 54.886388 
L 279.587546 62.361374 
L 285.799049 70.48355 
L 292.010552 79.244569 
L 298.222054 88.635429 
L 304.433557 98.64648 
L 310.64506 109.267435 
L 316.856563 120.487381 
L 323.068065 132.294788 
L 329.279568 144.677523 
L 335.491071 157.622862 
L 341.702574 171.117503 
L 347.914077 185.14758 
L 354.125579 199.698675 
L 360.337082 214.755836 
" style="fill:none;stroke:#008000;stroke-linecap:square;stroke-width:1.5;"/>
   </g>
   <g id="patch_3">
    <path d="M 40.755264 224.64 
L 40.755264 7.2 
" style="fill:none;stroke:#000000;stroke-linecap:square;stroke-linejoin:miter;stroke-width:0.8;"/>
   </g>
   <g id="patch_4">
    <path d="M 375.555264 224.64 
L 375.555264 7.2 
" style="fill:none;stroke:#000000;stroke-linecap:square;stroke-linejoin:miter;stroke-width:0.8;"/>
   </g>
   <g id="patch_5">
    <path d="M 40.755264 224.64 
L 375.555264 224.64 
" style="fill:none;stroke:#000000;stroke-linecap:square;stroke-linejoin:miter;stroke-width:0.8;"/>
   </g>
   <g id="patch_6">
    <path d="M 40.755264 7.2 
L 375.555264 7.2 
" style="fill:none;stroke:#000000;stroke-linecap:square;stroke-linejoin:miter;stroke-width:0.8;"/>
   </g>
  </g>
 </g>
 <defs>
  <clipPath id="pa19e2ae5ae">
   <rect height="217.44" width="334.8" x="40.755264" y="7.2"/>
  </clipPath>
 </defs>
</svg>
