<?xml version="1.0" encoding="utf-8" standalone="no"?>
<!DOCTYPE svg PUBLIC "-//W3C//DTD SVG 1.1//EN"
  "http://www.w3.org/Graphics/SVG/1.1/DTD/svg11.dtd">
<!-- Created with matplotlib (https://matplotlib.org/) -->
<svg height="263.63625pt" version="1.1" viewBox="0 0 405.932812 263.63625" width="405.932812pt" xmlns="http://www.w3.org/2000/svg" xmlns:xlink="http://www.w3.org/1999/xlink">
 <metadata>
  <rdf:RDF xmlns:cc="http://creativecommons.org/ns#" xmlns:dc="http://purl.org/dc/elements/1.1/" xmlns:rdf="http://www.w3.org/1999/02/22-rdf-syntax-ns#">
   <cc:Work>
    <dc:type rdf:resource="http://purl.org/dc/dcmitype/StillImage"/>
    <dc:date>2021-10-05T17:27:19.778319</dc:date>
    <dc:format>image/svg+xml</dc:format>
    <dc:creator>
     <cc:Agent>
      <dc:title>Matplotlib v3.3.4, https://matplotlib.org/</dc:title>
     </cc:Agent>
    </dc:creator>
   </cc:Work>
  </rdf:RDF>
 </metadata>
 <defs>
  <style type="text/css">*{stroke-linecap:butt;stroke-linejoin:round;}</style>
 </defs>
 <g id="figure_1">
  <g id="patch_1">
   <path d="M 0 263.63625 
L 405.932812 263.63625 
L 405.932812 0 
L 0 0 
z
" style="fill:none;"/>
  </g>
  <g id="axes_1">
   <g id="patch_2">
    <path d="M 63.932812 239.758125 
L 398.732813 239.758125 
L 398.732813 22.318125 
L 63.932812 22.318125 
z
" style="fill:#ffffff;"/>
   </g>
   <g id="matplotlib.axis_1">
    <g id="xtick_1">
     <g id="line2d_1">
      <path clip-path="url(#p42fcdb12d5)" d="M 79.150994 239.758125 
L 79.150994 22.318125 
" style="fill:none;stroke:#b0b0b0;stroke-linecap:square;stroke-width:0.8;"/>
     </g>
     <g id="line2d_2">
      <defs>
       <path d="M 0 0 
L 0 3.5 
" id="maf54746bde" style="stroke:#000000;stroke-width:0.8;"/>
      </defs>
      <g>
       <use style="stroke:#000000;stroke-width:0.8;" x="79.150994" xlink:href="#maf54746bde" y="239.758125"/>
      </g>
     </g>
     <g id="text_1">
      <!-- 0 -->
      <g transform="translate(75.969744 254.356563)scale(0.1 -0.1)">
       <defs>
        <path d="M 31.78125 66.40625 
Q 24.171875 66.40625 20.328125 58.90625 
Q 16.5 51.421875 16.5 36.375 
Q 16.5 21.390625 20.328125 13.890625 
Q 24.171875 6.390625 31.78125 6.390625 
Q 39.453125 6.390625 43.28125 13.890625 
Q 47.125 21.390625 47.125 36.375 
Q 47.125 51.421875 43.28125 58.90625 
Q 39.453125 66.40625 31.78125 66.40625 
z
M 31.78125 74.21875 
Q 44.046875 74.21875 50.515625 64.515625 
Q 56.984375 54.828125 56.984375 36.375 
Q 56.984375 17.96875 50.515625 8.265625 
Q 44.046875 -1.421875 31.78125 -1.421875 
Q 19.53125 -1.421875 13.0625 8.265625 
Q 6.59375 17.96875 6.59375 36.375 
Q 6.59375 54.828125 13.0625 64.515625 
Q 19.53125 74.21875 31.78125 74.21875 
z
" id="DejaVuSans-48"/>
       </defs>
       <use xlink:href="#DejaVuSans-48"/>
      </g>
     </g>
    </g>
    <g id="xtick_2">
     <g id="line2d_3">
      <path clip-path="url(#p42fcdb12d5)" d="M 140.023722 239.758125 
L 140.023722 22.318125 
" style="fill:none;stroke:#b0b0b0;stroke-linecap:square;stroke-width:0.8;"/>
     </g>
     <g id="line2d_4">
      <g>
       <use style="stroke:#000000;stroke-width:0.8;" x="140.023722" xlink:href="#maf54746bde" y="239.758125"/>
      </g>
     </g>
     <g id="text_2">
      <!-- 20 -->
      <g transform="translate(133.661222 254.356563)scale(0.1 -0.1)">
       <defs>
        <path d="M 19.1875 8.296875 
L 53.609375 8.296875 
L 53.609375 0 
L 7.328125 0 
L 7.328125 8.296875 
Q 12.9375 14.109375 22.625 23.890625 
Q 32.328125 33.6875 34.8125 36.53125 
Q 39.546875 41.84375 41.421875 45.53125 
Q 43.3125 49.21875 43.3125 52.78125 
Q 43.3125 58.59375 39.234375 62.25 
Q 35.15625 65.921875 28.609375 65.921875 
Q 23.96875 65.921875 18.8125 64.3125 
Q 13.671875 62.703125 7.8125 59.421875 
L 7.8125 69.390625 
Q 13.765625 71.78125 18.9375 73 
Q 24.125 74.21875 28.421875 74.21875 
Q 39.75 74.21875 46.484375 68.546875 
Q 53.21875 62.890625 53.21875 53.421875 
Q 53.21875 48.921875 51.53125 44.890625 
Q 49.859375 40.875 45.40625 35.40625 
Q 44.1875 33.984375 37.640625 27.21875 
Q 31.109375 20.453125 19.1875 8.296875 
z
" id="DejaVuSans-50"/>
       </defs>
       <use xlink:href="#DejaVuSans-50"/>
       <use x="63.623047" xlink:href="#DejaVuSans-48"/>
      </g>
     </g>
    </g>
    <g id="xtick_3">
     <g id="line2d_5">
      <path clip-path="url(#p42fcdb12d5)" d="M 200.896449 239.758125 
L 200.896449 22.318125 
" style="fill:none;stroke:#b0b0b0;stroke-linecap:square;stroke-width:0.8;"/>
     </g>
     <g id="line2d_6">
      <g>
       <use style="stroke:#000000;stroke-width:0.8;" x="200.896449" xlink:href="#maf54746bde" y="239.758125"/>
      </g>
     </g>
     <g id="text_3">
      <!-- 40 -->
      <g transform="translate(194.533949 254.356563)scale(0.1 -0.1)">
       <defs>
        <path d="M 37.796875 64.3125 
L 12.890625 25.390625 
L 37.796875 25.390625 
z
M 35.203125 72.90625 
L 47.609375 72.90625 
L 47.609375 25.390625 
L 58.015625 25.390625 
L 58.015625 17.1875 
L 47.609375 17.1875 
L 47.609375 0 
L 37.796875 0 
L 37.796875 17.1875 
L 4.890625 17.1875 
L 4.890625 26.703125 
z
" id="DejaVuSans-52"/>
       </defs>
       <use xlink:href="#DejaVuSans-52"/>
       <use x="63.623047" xlink:href="#DejaVuSans-48"/>
      </g>
     </g>
    </g>
    <g id="xtick_4">
     <g id="line2d_7">
      <path clip-path="url(#p42fcdb12d5)" d="M 261.769176 239.758125 
L 261.769176 22.318125 
" style="fill:none;stroke:#b0b0b0;stroke-linecap:square;stroke-width:0.8;"/>
     </g>
     <g id="line2d_8">
      <g>
       <use style="stroke:#000000;stroke-width:0.8;" x="261.769176" xlink:href="#maf54746bde" y="239.758125"/>
      </g>
     </g>
     <g id="text_4">
      <!-- 60 -->
      <g transform="translate(255.406676 254.356563)scale(0.1 -0.1)">
       <defs>
        <path d="M 33.015625 40.375 
Q 26.375 40.375 22.484375 35.828125 
Q 18.609375 31.296875 18.609375 23.390625 
Q 18.609375 15.53125 22.484375 10.953125 
Q 26.375 6.390625 33.015625 6.390625 
Q 39.65625 6.390625 43.53125 10.953125 
Q 47.40625 15.53125 47.40625 23.390625 
Q 47.40625 31.296875 43.53125 35.828125 
Q 39.65625 40.375 33.015625 40.375 
z
M 52.59375 71.296875 
L 52.59375 62.3125 
Q 48.875 64.0625 45.09375 64.984375 
Q 41.3125 65.921875 37.59375 65.921875 
Q 27.828125 65.921875 22.671875 59.328125 
Q 17.53125 52.734375 16.796875 39.40625 
Q 19.671875 43.65625 24.015625 45.921875 
Q 28.375 48.1875 33.59375 48.1875 
Q 44.578125 48.1875 50.953125 41.515625 
Q 57.328125 34.859375 57.328125 23.390625 
Q 57.328125 12.15625 50.6875 5.359375 
Q 44.046875 -1.421875 33.015625 -1.421875 
Q 20.359375 -1.421875 13.671875 8.265625 
Q 6.984375 17.96875 6.984375 36.375 
Q 6.984375 53.65625 15.1875 63.9375 
Q 23.390625 74.21875 37.203125 74.21875 
Q 40.921875 74.21875 44.703125 73.484375 
Q 48.484375 72.75 52.59375 71.296875 
z
" id="DejaVuSans-54"/>
       </defs>
       <use xlink:href="#DejaVuSans-54"/>
       <use x="63.623047" xlink:href="#DejaVuSans-48"/>
      </g>
     </g>
    </g>
    <g id="xtick_5">
     <g id="line2d_9">
      <path clip-path="url(#p42fcdb12d5)" d="M 322.641903 239.758125 
L 322.641903 22.318125 
" style="fill:none;stroke:#b0b0b0;stroke-linecap:square;stroke-width:0.8;"/>
     </g>
     <g id="line2d_10">
      <g>
       <use style="stroke:#000000;stroke-width:0.8;" x="322.641903" xlink:href="#maf54746bde" y="239.758125"/>
      </g>
     </g>
     <g id="text_5">
      <!-- 80 -->
      <g transform="translate(316.279403 254.356563)scale(0.1 -0.1)">
       <defs>
        <path d="M 31.78125 34.625 
Q 24.75 34.625 20.71875 30.859375 
Q 16.703125 27.09375 16.703125 20.515625 
Q 16.703125 13.921875 20.71875 10.15625 
Q 24.75 6.390625 31.78125 6.390625 
Q 38.8125 6.390625 42.859375 10.171875 
Q 46.921875 13.96875 46.921875 20.515625 
Q 46.921875 27.09375 42.890625 30.859375 
Q 38.875 34.625 31.78125 34.625 
z
M 21.921875 38.8125 
Q 15.578125 40.375 12.03125 44.71875 
Q 8.5 49.078125 8.5 55.328125 
Q 8.5 64.0625 14.71875 69.140625 
Q 20.953125 74.21875 31.78125 74.21875 
Q 42.671875 74.21875 48.875 69.140625 
Q 55.078125 64.0625 55.078125 55.328125 
Q 55.078125 49.078125 51.53125 44.71875 
Q 48 40.375 41.703125 38.8125 
Q 48.828125 37.15625 52.796875 32.3125 
Q 56.78125 27.484375 56.78125 20.515625 
Q 56.78125 9.90625 50.3125 4.234375 
Q 43.84375 -1.421875 31.78125 -1.421875 
Q 19.734375 -1.421875 13.25 4.234375 
Q 6.78125 9.90625 6.78125 20.515625 
Q 6.78125 27.484375 10.78125 32.3125 
Q 14.796875 37.15625 21.921875 38.8125 
z
M 18.3125 54.390625 
Q 18.3125 48.734375 21.84375 45.5625 
Q 25.390625 42.390625 31.78125 42.390625 
Q 38.140625 42.390625 41.71875 45.5625 
Q 45.3125 48.734375 45.3125 54.390625 
Q 45.3125 60.0625 41.71875 63.234375 
Q 38.140625 66.40625 31.78125 66.40625 
Q 25.390625 66.40625 21.84375 63.234375 
Q 18.3125 60.0625 18.3125 54.390625 
z
" id="DejaVuSans-56"/>
       </defs>
       <use xlink:href="#DejaVuSans-56"/>
       <use x="63.623047" xlink:href="#DejaVuSans-48"/>
      </g>
     </g>
    </g>
    <g id="xtick_6">
     <g id="line2d_11">
      <path clip-path="url(#p42fcdb12d5)" d="M 383.514631 239.758125 
L 383.514631 22.318125 
" style="fill:none;stroke:#b0b0b0;stroke-linecap:square;stroke-width:0.8;"/>
     </g>
     <g id="line2d_12">
      <g>
       <use style="stroke:#000000;stroke-width:0.8;" x="383.514631" xlink:href="#maf54746bde" y="239.758125"/>
      </g>
     </g>
     <g id="text_6">
      <!-- 100 -->
      <g transform="translate(373.970881 254.356563)scale(0.1 -0.1)">
       <defs>
        <path d="M 12.40625 8.296875 
L 28.515625 8.296875 
L 28.515625 63.921875 
L 10.984375 60.40625 
L 10.984375 69.390625 
L 28.421875 72.90625 
L 38.28125 72.90625 
L 38.28125 8.296875 
L 54.390625 8.296875 
L 54.390625 0 
L 12.40625 0 
z
" id="DejaVuSans-49"/>
       </defs>
       <use xlink:href="#DejaVuSans-49"/>
       <use x="63.623047" xlink:href="#DejaVuSans-48"/>
       <use x="127.246094" xlink:href="#DejaVuSans-48"/>
      </g>
     </g>
    </g>
   </g>
   <g id="matplotlib.axis_2">
    <g id="ytick_1">
     <g id="line2d_13">
      <path clip-path="url(#p42fcdb12d5)" d="M 63.932812 229.874489 
L 398.732813 229.874489 
" style="fill:none;stroke:#b0b0b0;stroke-linecap:square;stroke-width:0.8;"/>
     </g>
     <g id="line2d_14">
      <defs>
       <path d="M 0 0 
L -3.5 0 
" id="m80c911c698" style="stroke:#000000;stroke-width:0.8;"/>
      </defs>
      <g>
       <use style="stroke:#000000;stroke-width:0.8;" x="63.932812" xlink:href="#m80c911c698" y="229.874489"/>
      </g>
     </g>
     <g id="text_7">
      <!-- −0.00100 -->
      <g transform="translate(7.2 233.673707)scale(0.1 -0.1)">
       <defs>
        <path d="M 10.59375 35.5 
L 73.1875 35.5 
L 73.1875 27.203125 
L 10.59375 27.203125 
z
" id="DejaVuSans-8722"/>
        <path d="M 10.6875 12.40625 
L 21 12.40625 
L 21 0 
L 10.6875 0 
z
" id="DejaVuSans-46"/>
       </defs>
       <use xlink:href="#DejaVuSans-8722"/>
       <use x="83.789062" xlink:href="#DejaVuSans-48"/>
       <use x="147.412109" xlink:href="#DejaVuSans-46"/>
       <use x="179.199219" xlink:href="#DejaVuSans-48"/>
       <use x="242.822266" xlink:href="#DejaVuSans-48"/>
       <use x="306.445312" xlink:href="#DejaVuSans-49"/>
       <use x="370.068359" xlink:href="#DejaVuSans-48"/>
       <use x="433.691406" xlink:href="#DejaVuSans-48"/>
      </g>
     </g>
    </g>
    <g id="ytick_2">
     <g id="line2d_15">
      <path clip-path="url(#p42fcdb12d5)" d="M 63.932812 205.140952 
L 398.732813 205.140952 
" style="fill:none;stroke:#b0b0b0;stroke-linecap:square;stroke-width:0.8;"/>
     </g>
     <g id="line2d_16">
      <g>
       <use style="stroke:#000000;stroke-width:0.8;" x="63.932812" xlink:href="#m80c911c698" y="205.140952"/>
      </g>
     </g>
     <g id="text_8">
      <!-- −0.00075 -->
      <g transform="translate(7.2 208.940171)scale(0.1 -0.1)">
       <defs>
        <path d="M 8.203125 72.90625 
L 55.078125 72.90625 
L 55.078125 68.703125 
L 28.609375 0 
L 18.3125 0 
L 43.21875 64.59375 
L 8.203125 64.59375 
z
" id="DejaVuSans-55"/>
        <path d="M 10.796875 72.90625 
L 49.515625 72.90625 
L 49.515625 64.59375 
L 19.828125 64.59375 
L 19.828125 46.734375 
Q 21.96875 47.46875 24.109375 47.828125 
Q 26.265625 48.1875 28.421875 48.1875 
Q 40.625 48.1875 47.75 41.5 
Q 54.890625 34.8125 54.890625 23.390625 
Q 54.890625 11.625 47.5625 5.09375 
Q 40.234375 -1.421875 26.90625 -1.421875 
Q 22.3125 -1.421875 17.546875 -0.640625 
Q 12.796875 0.140625 7.71875 1.703125 
L 7.71875 11.625 
Q 12.109375 9.234375 16.796875 8.0625 
Q 21.484375 6.890625 26.703125 6.890625 
Q 35.15625 6.890625 40.078125 11.328125 
Q 45.015625 15.765625 45.015625 23.390625 
Q 45.015625 31 40.078125 35.4375 
Q 35.15625 39.890625 26.703125 39.890625 
Q 22.75 39.890625 18.8125 39.015625 
Q 14.890625 38.140625 10.796875 36.28125 
z
" id="DejaVuSans-53"/>
       </defs>
       <use xlink:href="#DejaVuSans-8722"/>
       <use x="83.789062" xlink:href="#DejaVuSans-48"/>
       <use x="147.412109" xlink:href="#DejaVuSans-46"/>
       <use x="179.199219" xlink:href="#DejaVuSans-48"/>
       <use x="242.822266" xlink:href="#DejaVuSans-48"/>
       <use x="306.445312" xlink:href="#DejaVuSans-48"/>
       <use x="370.068359" xlink:href="#DejaVuSans-55"/>
       <use x="433.691406" xlink:href="#DejaVuSans-53"/>
      </g>
     </g>
    </g>
    <g id="ytick_3">
     <g id="line2d_17">
      <path clip-path="url(#p42fcdb12d5)" d="M 63.932812 180.407416 
L 398.732813 180.407416 
" style="fill:none;stroke:#b0b0b0;stroke-linecap:square;stroke-width:0.8;"/>
     </g>
     <g id="line2d_18">
      <g>
       <use style="stroke:#000000;stroke-width:0.8;" x="63.932812" xlink:href="#m80c911c698" y="180.407416"/>
      </g>
     </g>
     <g id="text_9">
      <!-- −0.00050 -->
      <g transform="translate(7.2 184.206635)scale(0.1 -0.1)">
       <use xlink:href="#DejaVuSans-8722"/>
       <use x="83.789062" xlink:href="#DejaVuSans-48"/>
       <use x="147.412109" xlink:href="#DejaVuSans-46"/>
       <use x="179.199219" xlink:href="#DejaVuSans-48"/>
       <use x="242.822266" xlink:href="#DejaVuSans-48"/>
       <use x="306.445312" xlink:href="#DejaVuSans-48"/>
       <use x="370.068359" xlink:href="#DejaVuSans-53"/>
       <use x="433.691406" xlink:href="#DejaVuSans-48"/>
      </g>
     </g>
    </g>
    <g id="ytick_4">
     <g id="line2d_19">
      <path clip-path="url(#p42fcdb12d5)" d="M 63.932812 155.67388 
L 398.732813 155.67388 
" style="fill:none;stroke:#b0b0b0;stroke-linecap:square;stroke-width:0.8;"/>
     </g>
     <g id="line2d_20">
      <g>
       <use style="stroke:#000000;stroke-width:0.8;" x="63.932812" xlink:href="#m80c911c698" y="155.67388"/>
      </g>
     </g>
     <g id="text_10">
      <!-- −0.00025 -->
      <g transform="translate(7.2 159.473099)scale(0.1 -0.1)">
       <use xlink:href="#DejaVuSans-8722"/>
       <use x="83.789062" xlink:href="#DejaVuSans-48"/>
       <use x="147.412109" xlink:href="#DejaVuSans-46"/>
       <use x="179.199219" xlink:href="#DejaVuSans-48"/>
       <use x="242.822266" xlink:href="#DejaVuSans-48"/>
       <use x="306.445312" xlink:href="#DejaVuSans-48"/>
       <use x="370.068359" xlink:href="#DejaVuSans-50"/>
       <use x="433.691406" xlink:href="#DejaVuSans-53"/>
      </g>
     </g>
    </g>
    <g id="ytick_5">
     <g id="line2d_21">
      <path clip-path="url(#p42fcdb12d5)" d="M 63.932812 130.940344 
L 398.732813 130.940344 
" style="fill:none;stroke:#b0b0b0;stroke-linecap:square;stroke-width:0.8;"/>
     </g>
     <g id="line2d_22">
      <g>
       <use style="stroke:#000000;stroke-width:0.8;" x="63.932812" xlink:href="#m80c911c698" y="130.940344"/>
      </g>
     </g>
     <g id="text_11">
      <!-- 0.00000 -->
      <g transform="translate(15.579687 134.739563)scale(0.1 -0.1)">
       <use xlink:href="#DejaVuSans-48"/>
       <use x="63.623047" xlink:href="#DejaVuSans-46"/>
       <use x="95.410156" xlink:href="#DejaVuSans-48"/>
       <use x="159.033203" xlink:href="#DejaVuSans-48"/>
       <use x="222.65625" xlink:href="#DejaVuSans-48"/>
       <use x="286.279297" xlink:href="#DejaVuSans-48"/>
       <use x="349.902344" xlink:href="#DejaVuSans-48"/>
      </g>
     </g>
    </g>
    <g id="ytick_6">
     <g id="line2d_23">
      <path clip-path="url(#p42fcdb12d5)" d="M 63.932812 106.206808 
L 398.732813 106.206808 
" style="fill:none;stroke:#b0b0b0;stroke-linecap:square;stroke-width:0.8;"/>
     </g>
     <g id="line2d_24">
      <g>
       <use style="stroke:#000000;stroke-width:0.8;" x="63.932812" xlink:href="#m80c911c698" y="106.206808"/>
      </g>
     </g>
     <g id="text_12">
      <!-- 0.00025 -->
      <g transform="translate(15.579687 110.006026)scale(0.1 -0.1)">
       <use xlink:href="#DejaVuSans-48"/>
       <use x="63.623047" xlink:href="#DejaVuSans-46"/>
       <use x="95.410156" xlink:href="#DejaVuSans-48"/>
       <use x="159.033203" xlink:href="#DejaVuSans-48"/>
       <use x="222.65625" xlink:href="#DejaVuSans-48"/>
       <use x="286.279297" xlink:href="#DejaVuSans-50"/>
       <use x="349.902344" xlink:href="#DejaVuSans-53"/>
      </g>
     </g>
    </g>
    <g id="ytick_7">
     <g id="line2d_25">
      <path clip-path="url(#p42fcdb12d5)" d="M 63.932812 81.473272 
L 398.732813 81.473272 
" style="fill:none;stroke:#b0b0b0;stroke-linecap:square;stroke-width:0.8;"/>
     </g>
     <g id="line2d_26">
      <g>
       <use style="stroke:#000000;stroke-width:0.8;" x="63.932812" xlink:href="#m80c911c698" y="81.473272"/>
      </g>
     </g>
     <g id="text_13">
      <!-- 0.00050 -->
      <g transform="translate(15.579687 85.27249)scale(0.1 -0.1)">
       <use xlink:href="#DejaVuSans-48"/>
       <use x="63.623047" xlink:href="#DejaVuSans-46"/>
       <use x="95.410156" xlink:href="#DejaVuSans-48"/>
       <use x="159.033203" xlink:href="#DejaVuSans-48"/>
       <use x="222.65625" xlink:href="#DejaVuSans-48"/>
       <use x="286.279297" xlink:href="#DejaVuSans-53"/>
       <use x="349.902344" xlink:href="#DejaVuSans-48"/>
      </g>
     </g>
    </g>
    <g id="ytick_8">
     <g id="line2d_27">
      <path clip-path="url(#p42fcdb12d5)" d="M 63.932812 56.739735 
L 398.732813 56.739735 
" style="fill:none;stroke:#b0b0b0;stroke-linecap:square;stroke-width:0.8;"/>
     </g>
     <g id="line2d_28">
      <g>
       <use style="stroke:#000000;stroke-width:0.8;" x="63.932812" xlink:href="#m80c911c698" y="56.739735"/>
      </g>
     </g>
     <g id="text_14">
      <!-- 0.00075 -->
      <g transform="translate(15.579687 60.538954)scale(0.1 -0.1)">
       <use xlink:href="#DejaVuSans-48"/>
       <use x="63.623047" xlink:href="#DejaVuSans-46"/>
       <use x="95.410156" xlink:href="#DejaVuSans-48"/>
       <use x="159.033203" xlink:href="#DejaVuSans-48"/>
       <use x="222.65625" xlink:href="#DejaVuSans-48"/>
       <use x="286.279297" xlink:href="#DejaVuSans-55"/>
       <use x="349.902344" xlink:href="#DejaVuSans-53"/>
      </g>
     </g>
    </g>
    <g id="ytick_9">
     <g id="line2d_29">
      <path clip-path="url(#p42fcdb12d5)" d="M 63.932812 32.006199 
L 398.732813 32.006199 
" style="fill:none;stroke:#b0b0b0;stroke-linecap:square;stroke-width:0.8;"/>
     </g>
     <g id="line2d_30">
      <g>
       <use style="stroke:#000000;stroke-width:0.8;" x="63.932812" xlink:href="#m80c911c698" y="32.006199"/>
      </g>
     </g>
     <g id="text_15">
      <!-- 0.00100 -->
      <g transform="translate(15.579687 35.805418)scale(0.1 -0.1)">
       <use xlink:href="#DejaVuSans-48"/>
       <use x="63.623047" xlink:href="#DejaVuSans-46"/>
       <use x="95.410156" xlink:href="#DejaVuSans-48"/>
       <use x="159.033203" xlink:href="#DejaVuSans-48"/>
       <use x="222.65625" xlink:href="#DejaVuSans-49"/>
       <use x="286.279297" xlink:href="#DejaVuSans-48"/>
       <use x="349.902344" xlink:href="#DejaVuSans-48"/>
      </g>
     </g>
    </g>
   </g>
   <g id="line2d_31">
    <path clip-path="url(#p42fcdb12d5)" d="M 79.150994 229.874489 
L 79.455663 227.652927 
L 79.760331 221.08884 
L 80.369668 196.306402 
L 81.283672 139.474705 
L 82.502346 63.254635 
L 83.111682 40.337489 
L 83.416351 34.815853 
L 83.721019 33.626374 
L 84.025687 36.805157 
L 84.330355 44.189808 
L 84.939692 69.992294 
L 85.853697 126.358294 
L 86.767702 183.450499 
L 87.377039 210.600057 
L 87.681707 218.943563 
L 87.986375 223.27992 
L 88.291043 223.446333 
L 88.595712 219.470732 
L 88.90038 211.568827 
L 89.509717 185.710637 
L 90.72839 112.998758 
L 91.642395 65.821248 
L 92.251731 48.572221 
L 92.5564 45.473982 
L 92.861068 46.238231 
L 93.165736 50.778326 
L 93.470405 58.837247 
L 94.079741 83.722737 
L 96.212419 190.968362 
L 96.517088 199.481283 
L 96.821756 204.773415 
L 97.126424 206.666271 
L 97.431093 205.13957 
L 97.735761 200.329288 
L 98.345098 182.121889 
L 99.259102 141.041517 
L 100.173107 98.899114 
L 100.782444 78.501922 
L 101.087112 71.993404 
L 101.391781 68.2912 
L 101.696449 67.488589 
L 102.001117 69.543215 
L 102.305785 74.282504 
L 102.915122 90.547398 
L 104.133795 136.897357 
L 105.0478 166.839754 
L 105.657137 177.92594 
L 105.961805 180.117172 
L 106.266473 180.018534 
L 106.571142 177.723874 
L 106.87581 173.426574 
L 107.485147 160.014361 
L 109.617825 104.506077 
L 109.922493 100.396812 
L 110.227161 97.909116 
L 110.53183 97.069297 
L 110.836498 97.821456 
L 111.141166 100.034128 
L 111.750503 108.002462 
L 113.883181 143.478536 
L 114.187849 146.156903 
L 114.492518 147.823673 
L 114.797186 148.484683 
L 115.101854 148.202491 
L 115.406523 147.089428 
L 116.015859 143.009661 
L 117.539201 130.86007 
L 117.843869 129.413123 
L 118.148537 128.513254 
L 118.453206 128.167772 
L 118.757874 128.338975 
L 119.062542 128.94828 
L 119.671879 131.004809 
L 120.281215 133.196219 
L 120.585884 133.962257 
L 120.890552 134.33151 
L 121.19522 134.205766 
L 121.499889 133.524558 
L 121.804557 132.270726 
L 122.413894 128.208088 
L 124.241903 113.449604 
L 124.546572 112.572438 
L 124.85124 112.604202 
L 125.155908 113.641267 
L 125.460577 115.726243 
L 126.069913 122.909409 
L 126.983918 139.136507 
L 127.897923 155.968888 
L 128.50726 163.497517 
L 128.811928 165.332534 
L 129.116596 165.6222 
L 129.421265 164.256911 
L 129.725933 161.206598 
L 130.33527 150.356534 
L 131.249274 125.51483 
L 132.467948 91.923297 
L 133.077284 82.47452 
L 133.381953 80.776693 
L 133.686621 81.349035 
L 133.991289 84.253839 
L 134.295957 89.442391 
L 134.905294 105.920947 
L 135.819299 140.47865 
L 136.733304 174.623016 
L 137.342641 189.886642 
L 137.647309 193.924652 
L 137.951977 195.183807 
L 138.256645 193.528025 
L 138.561314 188.95501 
L 139.17065 171.732261 
L 140.084655 131.521049 
L 141.303328 76.126933 
L 141.912665 59.290985 
L 142.217333 55.365381 
L 142.522002 54.804635 
L 142.82667 57.700231 
L 143.131338 63.984255 
L 143.740675 85.664423 
L 144.65468 133.416616 
L 145.568685 182.552407 
L 146.178021 206.074218 
L 146.48269 213.205953 
L 146.787358 216.708518 
L 147.092026 216.37222 
L 147.396695 212.161272 
L 147.701363 204.217828 
L 148.310699 178.557078 
L 149.224704 124.72473 
L 150.138709 71.621094 
L 150.748046 47.416835 
L 151.052714 40.576121 
L 151.357383 37.755585 
L 151.662051 39.117744 
L 151.966719 44.635074 
L 152.271387 54.089714 
L 152.880724 83.048165 
L 155.013402 210.112064 
L 155.31807 220.317888 
L 155.622739 226.544992 
L 155.927407 228.494008 
L 156.232075 226.059386 
L 156.536744 219.335076 
L 157.14608 194.358721 
L 158.060085 137.420694 
L 159.278758 61.265016 
L 159.888095 38.540595 
L 160.192763 33.185915 
L 160.497432 32.222339 
L 160.8021 35.692281 
L 161.106768 43.437241 
L 161.716105 70.162271 
L 162.63011 128.26536 
L 163.544115 187.019105 
L 164.153451 214.858329 
L 164.45812 223.336902 
L 164.762788 227.639031 
L 165.067456 227.587682 
L 165.372125 223.204213 
L 165.676793 214.706552 
L 166.286129 187.14969 
L 167.504803 109.907143 
L 168.418808 59.833253 
L 169.028144 41.649523 
L 169.332812 38.497367 
L 169.637481 39.510492 
L 169.942149 44.606395 
L 170.246817 53.518001 
L 170.856154 80.887934 
L 172.988832 198.913358 
L 173.2935 208.28091 
L 173.598169 214.068042 
L 173.902837 216.06104 
L 174.207505 214.221499 
L 174.512174 208.685688 
L 175.12151 187.884354 
L 176.035515 140.874938 
L 176.94952 92.357035 
L 177.558857 68.730169 
L 177.863525 61.16668 
L 178.168193 56.864887 
L 178.472862 55.95631 
L 178.77753 58.415074 
L 179.082198 64.062483 
L 179.691535 83.515697 
L 180.60554 125.062017 
L 181.519545 165.957663 
L 182.128881 184.849592 
L 182.43355 190.509641 
L 182.738218 193.354112 
L 183.042886 193.330702 
L 183.347555 190.520364 
L 183.652223 185.130065 
L 184.261559 167.984649 
L 186.394238 93.590079 
L 186.698906 87.667313 
L 187.003574 83.910956 
L 187.308242 82.410498 
L 187.612911 83.146448 
L 187.917579 85.995112 
L 188.526916 97.077026 
L 189.440921 121.85116 
L 190.354926 146.504113 
L 190.964262 157.998303 
L 191.26893 161.547014 
L 191.573599 163.493405 
L 191.878267 163.838539 
L 192.182935 162.662462 
L 192.487604 160.116323 
L 193.09694 151.80384 
L 194.92495 121.357991 
L 195.534287 115.897276 
L 195.838955 114.625974 
L 196.143623 114.310293 
L 196.448292 114.869528 
L 196.75296 116.177496 
L 197.362297 120.370575 
L 198.58097 129.790567 
L 199.190306 132.493207 
L 199.494975 133.048417 
L 199.799643 133.076473 
L 200.104311 132.634636 
L 200.713648 130.752434 
L 201.627653 127.558104 
L 201.932321 126.995128 
L 202.236989 126.89447 
L 202.541658 127.33808 
L 202.846326 128.367214 
L 203.455663 132.117997 
L 204.369668 140.550137 
L 205.283672 148.243728 
L 205.588341 149.700725 
L 205.893009 150.30451 
L 206.197677 149.92689 
L 206.502346 148.489263 
L 206.807014 145.97042 
L 207.416351 137.916377 
L 208.330355 120.740284 
L 209.24436 103.837328 
L 209.853697 96.838304 
L 210.158365 95.420009 
L 210.463034 95.624945 
L 210.767702 97.53905 
L 211.07237 101.165125 
L 211.681707 113.128396 
L 212.595712 139.112721 
L 213.509717 165.553688 
L 214.119053 177.648766 
L 214.423722 180.912311 
L 214.72839 181.978841 
L 215.033058 180.711171 
L 215.337727 177.080099 
L 215.947063 163.176318 
L 216.5564 142.252061 
L 218.079741 84.06311 
L 218.689078 69.904921 
L 218.993746 66.608007 
L 219.298414 66.17322 
L 219.603083 68.698098 
L 219.907751 74.143763 
L 220.517088 92.95469 
L 221.431093 134.596802 
L 222.345098 177.68552 
L 222.954434 198.352699 
L 223.259102 204.591362 
L 223.563771 207.598744 
L 223.868439 207.17403 
L 224.173107 203.271485 
L 224.477776 196.006038 
L 225.087112 172.625788 
L 226.001117 123.55857 
L 226.915122 75.085653 
L 227.524459 53.042612 
L 227.829127 46.87848 
L 228.133795 44.439775 
L 228.438464 45.88701 
L 228.743132 51.20437 
L 229.0478 60.197648 
L 229.657137 87.593518 
L 231.789815 207.495511 
L 232.094483 217.047557 
L 232.399152 222.794988 
L 232.70382 224.44425 
L 233.008488 221.886902 
L 233.313156 215.206329 
L 233.922493 190.742183 
L 234.836498 135.252816 
L 236.055171 61.202978 
L 236.664508 39.274988 
L 236.969176 34.229083 
L 237.273844 33.516748 
L 237.578513 37.186441 
L 237.883181 45.087005 
L 238.492518 72.025275 
L 239.406523 130.309763 
L 240.320527 189.125412 
L 240.929864 216.872712 
L 241.234532 225.236598 
L 241.539201 229.364474 
L 241.843869 229.070671 
L 242.148537 224.370588 
L 242.453206 215.479907 
L 243.062542 186.922071 
L 244.281215 107.209354 
L 245.19522 55.656155 
L 245.804557 37.108101 
L 246.109225 34.033877 
L 246.413894 35.317409 
L 246.718562 40.880458 
L 247.02323 50.450767 
L 247.632567 79.643435 
L 249.765245 205.195865 
L 250.069913 215.108511 
L 250.374582 221.169749 
L 250.67925 223.139493 
L 250.983918 220.965101 
L 251.288586 214.782695 
L 251.897923 191.825299 
L 252.811928 140.057042 
L 253.725933 86.520552 
L 254.33527 60.415679 
L 254.639938 52.078065 
L 254.944606 47.37852 
L 255.249274 46.479426 
L 255.553943 49.368285 
L 255.858611 55.860609 
L 256.467948 78.130018 
L 257.381953 125.818603 
L 258.295957 173.071929 
L 258.905294 195.043097 
L 259.209962 201.647938 
L 259.514631 204.964475 
L 259.819299 204.908036 
L 260.123967 201.5492 
L 260.428636 195.107838 
L 261.037972 174.519048 
L 263.17065 83.303427 
L 263.779987 71.012011 
L 264.084655 69.011628 
L 264.389324 69.835445 
L 264.693992 73.36544 
L 265.303328 87.479188 
L 266.217333 119.91338 
L 267.131338 153.301988 
L 267.740675 169.510245 
L 268.045343 174.737034 
L 268.350012 177.794136 
L 268.65468 178.626454 
L 268.959348 177.285397 
L 269.264016 173.922545 
L 269.873353 162.169329 
L 272.006031 107.973053 
L 272.615368 100.452208 
L 272.920036 99.025678 
L 273.224704 99.145826 
L 273.529373 100.710211 
L 273.834041 103.550002 
L 274.443378 112.123235 
L 275.966719 137.379836 
L 276.576056 143.818086 
L 276.880724 145.662705 
L 277.185392 146.560701 
L 277.490061 146.559714 
L 277.794729 145.756986 
L 278.404066 142.329151 
L 279.927407 131.525754 
L 280.232075 130.260081 
L 280.536744 129.511579 
L 280.841412 129.289964 
L 281.14608 129.560424 
L 281.450749 130.247234 
L 282.364754 133.581761 
L 282.97409 135.372341 
L 283.278758 135.703084 
L 283.583427 135.511897 
L 283.888095 134.734222 
L 284.192763 133.349094 
L 284.8021 128.908208 
L 286.63011 112.218618 
L 286.934778 110.985548 
L 287.239446 110.687861 
L 287.544115 111.438648 
L 287.848783 113.297175 
L 288.45812 120.267671 
L 289.067456 130.821165 
L 290.590798 160.092264 
L 291.200134 166.48004 
L 291.504803 167.447103 
L 291.809471 166.719837 
L 292.114139 164.237528 
L 292.418808 160.02583 
L 293.028144 146.96002 
L 294.246817 110.471126 
L 294.856154 93.613482 
L 295.465491 82.320004 
L 295.770159 79.633448 
L 296.074827 79.229022 
L 296.379496 81.213139 
L 296.684164 85.580686 
L 297.2935 100.872647 
L 298.207505 135.21193 
L 299.12151 171.20264 
L 299.730847 188.607355 
L 300.035515 193.871856 
L 300.340184 196.393336 
L 300.644852 195.980301 
L 300.94952 192.574369 
L 301.254188 186.256571 
L 301.863525 165.895927 
L 302.77753 122.960267 
L 303.691535 80.327404 
L 304.300871 60.920612 
L 304.60554 55.531964 
L 304.910208 53.472669 
L 305.214876 54.900466 
L 305.519545 59.814163 
L 306.128881 79.291286 
L 306.738218 108.80031 
L 308.261559 190.895498 
L 308.870896 211.351889 
L 309.175564 216.510303 
L 309.480233 217.860611 
L 309.784901 215.29228 
L 310.089569 208.873581 
L 310.698906 185.637951 
L 311.612911 133.122356 
L 312.831584 63.124766 
L 313.440921 42.541634 
L 313.745589 37.919175 
L 314.050257 37.457386 
L 314.354926 41.209956 
L 314.659594 49.038177 
L 315.26893 75.443853 
L 316.182935 132.333185 
L 317.09694 189.635 
L 317.706277 216.547092 
L 318.010945 224.570719 
L 318.315613 228.410689 
L 318.620282 227.87816 
L 318.92495 222.982213 
L 319.229618 213.930858 
L 319.838955 185.125438 
L 321.057628 105.075038 
L 321.971633 53.458898 
L 322.58097 35.088245 
L 322.885638 32.201761 
L 323.190306 33.750977 
L 323.494975 39.662544 
L 324.104311 63.299777 
L 325.018316 119.143589 
L 326.236989 195.861922 
L 326.846326 219.740687 
L 327.150994 225.864773 
L 327.455663 227.705873 
L 327.760331 225.201158 
L 328.064999 218.485349 
L 328.674336 193.895802 
L 329.588341 138.687503 
L 330.502346 81.616986 
L 331.111682 53.832434 
L 331.416351 45.008491 
L 331.721019 40.108251 
L 332.025687 39.317574 
L 332.330355 42.634235 
L 332.635024 49.869631 
L 333.24436 74.479845 
L 334.158365 127.115538 
L 335.07237 179.388293 
L 335.681707 203.720759 
L 335.986375 211.010939 
L 336.291043 214.620597 
L 336.595712 214.438499 
L 336.90038 210.527346 
L 337.205048 203.118405 
L 337.814385 179.49039 
L 339.947063 73.975316 
L 340.5564 59.586629 
L 340.861068 57.246925 
L 341.165736 58.24689 
L 341.470405 62.472176 
L 342.079741 79.431804 
L 342.993746 118.820211 
L 344.212419 171.222406 
L 344.821756 187.005078 
L 345.126424 190.976263 
L 345.431093 192.150999 
L 345.735761 190.556127 
L 346.040429 186.345292 
L 346.649766 171.255441 
L 347.563771 138.563172 
L 348.477776 106.314772 
L 349.087112 91.373669 
L 349.391781 86.838279 
L 349.696449 84.465047 
L 350.001117 84.275695 
L 350.305785 86.188353 
L 350.610454 90.025296 
L 351.21979 102.358614 
L 353.352469 154.694607 
L 353.657137 158.671838 
L 353.961805 161.138551 
L 354.266473 162.068667 
L 354.571142 161.513952 
L 354.87581 159.5975 
L 355.485147 152.466299 
L 357.617825 120.499637 
L 357.922493 118.131009 
L 358.227161 116.678955 
L 358.53183 116.129745 
L 358.836498 116.416883 
L 359.141166 117.428268 
L 359.750503 121.006361 
L 360.969176 129.365577 
L 361.578513 131.691626 
L 361.883181 132.097141 
L 362.187849 131.998384 
L 362.492518 131.450243 
L 363.101854 129.408932 
L 364.015859 126.103876 
L 364.320527 125.544753 
L 364.625196 125.474257 
L 364.929864 125.979026 
L 365.234532 127.104791 
L 365.843869 131.170857 
L 366.757874 140.400516 
L 367.671879 149.187908 
L 367.976547 151.029087 
L 368.281215 152.002228 
L 368.585884 151.962058 
L 368.890552 150.812359 
L 369.19522 148.514581 
L 369.804557 140.641676 
L 370.718562 122.936026 
L 371.632567 104.548458 
L 372.241903 96.206769 
L 372.546572 94.08344 
L 372.85124 93.600673 
L 373.155908 94.875891 
L 373.460577 97.943151 
L 374.069913 109.14295 
L 374.983918 135.175804 
L 376.202591 170.924189 
L 376.811928 181.325397 
L 377.116596 183.398326 
L 377.421265 183.112541 
L 377.725933 180.393979 
L 378.030601 175.283025 
L 378.639938 158.625092 
L 379.553943 123.035945 
L 380.467948 87.273531 
L 381.077284 70.876185 
L 381.381953 66.322305 
L 381.686621 64.609581 
L 381.991289 65.892434 
L 382.295957 70.188394 
L 382.600626 77.373945 
L 383.209962 99.236085 
L 383.514631 113.016246 
L 383.514631 113.016246 
" style="fill:none;stroke:#000000;stroke-linecap:square;stroke-width:1.5;"/>
   </g>
   <g id="line2d_32">
    <path clip-path="url(#p42fcdb12d5)" d="M 79.150994 130.940344 
L 79.455663 130.694469 
L 79.760331 129.978838 
L 80.369668 127.434874 
L 81.283672 122.7972 
L 81.588341 121.675144 
L 81.893009 121.030543 
L 82.197677 120.993028 
L 82.502346 121.657454 
L 82.807014 123.075524 
L 83.416351 128.130119 
L 84.330355 139.752898 
L 85.24436 151.572453 
L 85.853697 156.342241 
L 86.158365 157.142695 
L 86.463034 156.688698 
L 86.767702 154.904641 
L 87.07237 151.783068 
L 87.681707 141.85977 
L 88.595712 120.828499 
L 89.509717 100.035192 
L 90.119053 91.110199 
L 90.423722 89.054317 
L 90.72839 88.875728 
L 91.033058 90.675832 
L 91.337727 94.462068 
L 91.947063 107.532532 
L 92.861068 136.746205 
L 93.775073 167.249415 
L 94.38441 181.810006 
L 94.689078 186.080957 
L 94.993746 187.948656 
L 95.298414 187.243796 
L 95.603083 183.914519 
L 95.907751 178.032531 
L 96.517088 159.511237 
L 97.431093 121.020004 
L 98.345098 83.294974 
L 98.954434 66.523785 
L 99.259102 62.09723 
L 99.563771 60.712823 
L 99.868439 62.506467 
L 100.173107 67.468584 
L 100.782444 86.122242 
L 101.696449 129.519214 
L 102.915122 189.056906 
L 103.524459 207.128345 
L 103.829127 211.364326 
L 104.133795 212.017477 
L 104.438464 208.999376 
L 104.743132 202.389268 
L 105.352469 179.537611 
L 106.266473 129.230778 
L 107.180478 77.52804 
L 107.789815 52.767577 
L 108.094483 45.23333 
L 108.399152 41.490285 
L 108.70382 41.751545 
L 109.008488 46.048592 
L 109.313156 54.228146 
L 109.922493 80.736321 
L 110.836498 136.394873 
L 111.750503 191.308321 
L 112.35984 216.385625 
L 112.664508 223.516214 
L 112.969176 226.51978 
L 113.273844 225.233643 
L 113.578513 219.689969 
L 113.883181 210.115529 
L 114.492518 180.689575 
L 116.625196 51.302314 
L 116.929864 40.861857 
L 117.234532 34.446856 
L 117.539201 32.357043 
L 117.843869 34.695883 
L 118.148537 41.36513 
L 118.757874 66.331392 
L 119.671879 123.409928 
L 120.890552 199.854986 
L 121.499889 222.754429 
L 121.804557 228.212449 
L 122.109225 229.294487 
L 122.413894 225.960891 
L 122.718562 218.372665 
L 123.327898 192.023954 
L 124.241903 134.597782 
L 125.155908 76.474275 
L 125.765245 48.880239 
L 126.069913 40.436461 
L 126.374582 36.09787 
L 126.67925 36.035073 
L 126.983918 40.223616 
L 127.288586 48.446209 
L 127.897923 75.235884 
L 129.116596 150.463602 
L 130.030601 199.265995 
L 130.639938 217.055732 
L 130.944606 220.19914 
L 131.249274 219.315313 
L 131.553943 214.488755 
L 131.858611 205.982053 
L 132.467948 179.777687 
L 134.600626 66.749193 
L 134.905294 57.770024 
L 135.209962 52.201914 
L 135.514631 50.241983 
L 135.819299 51.920191 
L 136.123967 57.100371 
L 136.733304 76.652821 
L 137.647309 120.832943 
L 138.561314 166.325281 
L 139.17065 188.428746 
L 139.475319 195.498926 
L 139.779987 199.526153 
L 140.084655 200.397038 
L 140.389324 198.145162 
L 140.693992 192.946199 
L 141.303328 175.046937 
L 142.217333 136.962313 
L 143.131338 99.698964 
L 143.740675 82.597983 
L 144.045343 77.504533 
L 144.350012 74.964276 
L 144.65468 75.011044 
L 144.959348 77.557695 
L 145.264016 82.404099 
L 145.873353 97.711676 
L 148.006031 162.891216 
L 148.310699 167.936329 
L 148.615368 171.083016 
L 148.920036 172.272468 
L 149.224704 171.541865 
L 149.529373 169.018391 
L 150.138709 159.489201 
L 151.357383 131.537288 
L 152.271387 113.682302 
L 152.880724 107.153434 
L 153.185392 105.829455 
L 153.490061 105.780885 
L 153.794729 106.91194 
L 154.099397 109.071053 
L 154.708734 115.658237 
L 156.232075 134.393071 
L 156.841412 138.682922 
L 157.14608 139.740421 
L 157.450749 140.087285 
L 157.755417 139.79319 
L 158.060085 138.967154 
L 158.669422 136.2952 
L 159.583427 132.155396 
L 159.888095 131.323144 
L 160.192763 130.933192 
L 160.497432 131.029666 
L 160.8021 131.612899 
L 161.411437 134.024831 
L 162.63011 140.397004 
L 162.934778 141.379353 
L 163.239446 141.80294 
L 163.544115 141.549854 
L 163.848783 140.541336 
L 164.153451 138.745356 
L 164.762788 132.922762 
L 165.676793 120.455647 
L 166.590798 108.573092 
L 166.895466 105.908871 
L 167.200134 104.274429 
L 167.504803 103.843263 
L 167.809471 104.733905 
L 168.114139 107.000146 
L 168.723476 115.51486 
L 169.332812 128.365608 
L 170.856154 164.156737 
L 171.465491 172.377762 
L 171.770159 173.924681 
L 172.074827 173.518568 
L 172.379496 171.085854 
L 172.684164 166.650178 
L 173.2935 152.361499 
L 174.207505 121.981875 
L 175.12151 91.608859 
L 175.730847 77.909215 
L 176.035515 74.260724 
L 176.340184 73.108904 
L 176.644852 74.590118 
L 176.94952 78.719235 
L 177.558857 94.355639 
L 178.472862 131.08514 
L 179.691535 181.999205 
L 180.300871 197.526518 
L 180.60554 201.137899 
L 180.910208 201.625275 
L 181.214876 198.894281 
L 181.519545 192.998808 
L 182.128881 172.667908 
L 183.042886 127.810291 
L 183.956891 81.55348 
L 184.566228 59.400768 
L 184.870896 52.702615 
L 185.175564 49.446587 
L 185.480233 49.838308 
L 185.784901 53.918062 
L 186.089569 61.556508 
L 186.698906 86.172236 
L 187.612911 137.802319 
L 188.526916 188.753405 
L 189.136252 211.943122 
L 189.440921 218.460501 
L 189.745589 221.09173 
L 190.050257 219.675 
L 190.354926 214.232279 
L 190.659594 204.970754 
L 191.26893 176.688678 
L 193.401609 52.796652 
L 193.706277 42.889372 
L 194.010945 36.886931 
L 194.315613 35.086542 
L 194.620282 37.595364 
L 194.92495 44.324481 
L 195.534287 69.134255 
L 196.448292 125.540876 
L 197.666965 200.892575 
L 198.276301 223.290062 
L 198.58097 228.505896 
L 198.885638 229.344844 
L 199.190306 225.761275 
L 199.494975 217.910919 
L 200.104311 190.987322 
L 201.018316 132.597283 
L 201.932321 73.61512 
L 202.541658 45.727782 
L 202.846326 37.277337 
L 203.150994 33.046847 
L 203.455663 33.21829 
L 203.760331 37.773436 
L 204.064999 46.494738 
L 204.674336 74.642536 
L 205.893009 153.38194 
L 206.807014 204.373867 
L 207.416351 222.810376 
L 207.721019 225.939128 
L 208.025687 224.792173 
L 208.330355 219.449885 
L 208.635024 210.18257 
L 209.24436 181.813453 
L 211.377039 59.601766 
L 211.681707 49.922356 
L 211.986375 43.970708 
L 212.291043 41.974809 
L 212.595712 43.980628 
L 212.90038 49.85198 
L 213.509717 71.792561 
L 214.423722 121.339342 
L 215.337727 172.546035 
L 215.947063 197.509218 
L 216.251731 205.495178 
L 216.5564 210.020454 
L 216.861068 210.937263 
L 217.165736 208.264381 
L 217.470405 202.183643 
L 218.079741 181.26829 
L 218.993746 136.512438 
L 219.907751 92.281313 
L 220.517088 71.763982 
L 220.821756 65.599735 
L 221.126424 62.49662 
L 221.431093 62.523888 
L 221.735761 65.60614 
L 222.040429 71.529812 
L 222.649766 90.440452 
L 224.782444 173.532121 
L 225.391781 184.580205 
L 225.696449 186.351432 
L 226.001117 185.584238 
L 226.305785 182.399254 
L 226.915122 169.785695 
L 227.829127 141.107473 
L 228.743132 111.981732 
L 229.352469 98.063238 
L 229.657137 93.646782 
L 229.961805 91.12105 
L 230.266473 90.513849 
L 230.571142 91.759976 
L 230.87581 94.708343 
L 231.485147 104.747494 
L 233.617825 148.817135 
L 233.922493 152.228607 
L 234.227161 154.386513 
L 234.53183 155.277083 
L 234.836498 154.953664 
L 235.141166 153.530187 
L 235.750503 148.081525 
L 237.578513 127.010343 
L 238.187849 123.469612 
L 238.492518 122.752439 
L 238.797186 122.696005 
L 239.101854 123.214138 
L 239.711191 125.463365 
L 240.625196 129.529597 
L 240.929864 130.462424 
L 241.234532 130.989383 
L 241.539201 131.045221 
L 241.843869 130.606916 
L 242.148537 129.695627 
L 242.757874 126.750559 
L 243.976547 120.20676 
L 244.281215 119.399834 
L 244.585884 119.229349 
L 244.890552 119.799662 
L 245.19522 121.1718 
L 245.804557 126.313127 
L 246.413894 134.100641 
L 247.937235 155.015149 
L 248.241903 157.452364 
L 248.546572 158.765275 
L 248.85124 158.79495 
L 249.155908 157.442188 
L 249.460577 154.676732 
L 250.069913 145.15805 
L 250.983918 123.755704 
L 251.897923 101.380641 
L 252.50726 90.919322 
L 252.811928 88.03303 
L 253.116596 87.028713 
L 253.421265 88.044862 
L 253.725933 91.125916 
L 254.33527 103.159203 
L 254.944606 121.498483 
L 256.467948 173.229268 
L 257.077284 185.972378 
L 257.381953 188.96012 
L 257.686621 189.367071 
L 257.991289 187.091416 
L 258.295957 182.155906 
L 258.905294 165.02791 
L 259.819299 126.899724 
L 260.733304 87.242184 
L 261.342641 68.162472 
L 261.647309 62.403221 
L 261.951977 59.641643 
L 262.256645 60.074163 
L 262.561314 63.752402 
L 262.865982 70.577616 
L 263.475319 92.538333 
L 264.389324 138.702355 
L 265.303328 184.394858 
L 265.912665 205.171227 
L 266.217333 210.956494 
L 266.522002 213.202406 
L 266.82667 211.749714 
L 267.131338 206.607488 
L 267.436007 197.955253 
L 268.045343 171.647643 
L 270.178021 56.526592 
L 270.48269 47.384416 
L 270.787358 41.920199 
L 271.092026 40.42239 
L 271.396695 43.000614 
L 271.701363 49.578654 
L 272.310699 73.519176 
L 273.224704 127.710345 
L 274.443378 199.969248 
L 275.052714 221.287743 
L 275.357383 226.133518 
L 275.662051 226.717958 
L 275.966719 222.990139 
L 276.271387 215.095589 
L 276.880724 188.328438 
L 277.794729 130.545089 
L 278.708734 72.293263 
L 279.31807 44.873949 
L 279.622739 36.65367 
L 279.927407 32.657067 
L 280.232075 33.072269 
L 280.536744 37.886927 
L 280.841412 46.888557 
L 281.450749 75.667306 
L 282.669422 155.819705 
L 283.583427 207.581066 
L 284.192763 226.105363 
L 284.497432 229.09748 
L 284.8021 227.678569 
L 285.106768 221.924496 
L 285.411437 212.107922 
L 286.020773 182.274789 
L 288.153451 54.237309 
L 288.45812 44.168196 
L 288.762788 38.049917 
L 289.067456 36.132847 
L 289.372125 38.475031 
L 289.676793 44.940837 
L 290.286129 68.785999 
L 291.200134 122.448952 
L 292.114139 177.944661 
L 292.723476 204.991097 
L 293.028144 213.607794 
L 293.332813 218.431516 
L 293.637481 219.28719 
L 293.942149 216.181793 
L 294.246817 209.302186 
L 294.856154 185.795523 
L 295.770159 135.472221 
L 296.684164 85.532494 
L 297.2935 62.287861 
L 297.598169 55.307569 
L 297.902837 51.822598 
L 298.207505 51.931762 
L 298.512174 55.568642 
L 298.816842 62.507344 
L 299.426179 84.674255 
L 301.558857 183.382329 
L 302.168193 196.789989 
L 302.472862 198.98002 
L 302.77753 198.078097 
L 303.082198 194.200093 
L 303.691535 178.633123 
L 304.60554 142.617527 
L 305.519545 105.197856 
L 306.128881 86.844485 
L 306.43355 80.868122 
L 306.738218 77.329098 
L 307.042886 76.308257 
L 307.347555 77.766987 
L 307.652223 81.552823 
L 308.261559 94.995632 
L 309.480233 133.825372 
L 310.394238 158.962359 
L 311.003574 168.331634 
L 311.308242 170.252983 
L 311.612911 170.30359 
L 311.917579 168.575291 
L 312.222247 165.24113 
L 312.831584 154.779022 
L 314.659594 116.726507 
L 315.26893 109.686821 
L 315.573599 107.983912 
L 315.878267 107.501484 
L 316.182935 108.165477 
L 316.487604 109.845605 
L 317.09694 115.515753 
L 318.620282 132.796702 
L 319.229618 136.936368 
L 319.534287 137.999978 
L 319.838955 138.397554 
L 320.143623 138.190749 
L 320.448292 137.480705 
L 321.057628 135.098655 
L 321.971633 131.465003 
L 322.276301 130.810895 
L 322.58097 130.603424 
L 322.885638 130.887746 
L 323.190306 131.665475 
L 323.799643 134.488678 
L 325.018316 141.725619 
L 325.322984 142.905302 
L 325.627653 143.502856 
L 325.932321 143.390446 
L 326.236989 142.478982 
L 326.541658 140.726336 
L 327.150994 134.794808 
L 328.064999 121.603149 
L 328.979004 108.387157 
L 329.588341 103.024284 
L 329.893009 102.06802 
L 330.197677 102.46964 
L 330.502346 104.307195 
L 330.807014 107.586387 
L 331.416351 118.109853 
L 332.330355 140.5609 
L 333.24436 162.957147 
L 333.853697 172.77903 
L 334.158365 175.176203 
L 334.463034 175.605365 
L 334.767702 173.954921 
L 335.07237 170.211067 
L 335.681707 156.899138 
L 336.595712 126.60072 
L 337.814385 85.767026 
L 338.423722 74.073758 
L 338.72839 71.783265 
L 339.033058 72.148242 
L 339.337727 75.234436 
L 339.642395 80.980254 
L 340.251731 99.570348 
L 341.165736 138.972425 
L 342.079741 178.285516 
L 342.689078 196.226829 
L 342.993746 201.202792 
L 343.298414 203.0829 
L 343.603083 201.711127 
L 343.907751 197.079815 
L 344.517088 178.763085 
L 345.126424 150.990939 
L 346.649766 73.552702 
L 347.259102 54.256569 
L 347.563771 49.421051 
L 347.868439 48.209464 
L 348.173107 50.733368 
L 348.477776 56.933599 
L 349.087112 79.282145 
L 350.001117 129.751498 
L 351.21979 197.035837 
L 351.829127 216.766137 
L 352.133795 221.145705 
L 352.438464 221.493266 
L 352.743132 217.752332 
L 353.0478 210.053352 
L 353.657137 184.203128 
L 354.571142 128.601605 
L 355.485147 72.630118 
L 356.094483 46.396107 
L 356.399152 38.616936 
L 356.70382 34.95281 
L 357.008488 35.592883 
L 357.313156 40.531542 
L 357.617825 49.566919 
L 358.227161 78.198246 
L 359.445835 157.604254 
L 360.35984 208.728383 
L 360.969176 226.821268 
L 361.273844 229.582165 
L 361.578513 227.912805 
L 361.883181 221.883489 
L 362.492518 198.007268 
L 363.406523 141.783311 
L 364.625196 64.642229 
L 365.234532 40.709726 
L 365.539201 34.626245 
L 365.843869 32.879399 
L 366.148537 35.536109 
L 366.453206 42.463119 
L 367.062542 67.64319 
L 367.976547 124.033851 
L 368.890552 182.286655 
L 369.499889 210.607148 
L 369.804557 219.568802 
L 370.109225 224.501194 
L 370.413894 225.209251 
L 370.718562 221.69104 
L 371.02323 214.136241 
L 371.632567 188.566789 
L 372.546572 133.958454 
L 373.460577 79.718408 
L 374.069913 54.486904 
L 374.374582 46.952159 
L 374.67925 43.2599 
L 374.983918 43.532199 
L 375.288586 47.709718 
L 375.593255 55.556465 
L 376.202591 80.515282 
L 378.33527 192.109506 
L 378.944606 207.342856 
L 379.249274 209.79348 
L 379.553943 208.678645 
L 379.858611 204.111227 
L 380.467948 185.83183 
L 381.381953 143.300168 
L 382.600626 86.433266 
L 383.209962 69.208556 
L 383.514631 64.858592 
L 383.514631 64.858592 
" style="fill:none;stroke:#0000ff;stroke-linecap:square;stroke-width:1.5;"/>
   </g>
   <g id="patch_3">
    <path d="M 63.932812 239.758125 
L 63.932812 22.318125 
" style="fill:none;stroke:#000000;stroke-linecap:square;stroke-linejoin:miter;stroke-width:0.8;"/>
   </g>
   <g id="patch_4">
    <path d="M 398.732813 239.758125 
L 398.732813 22.318125 
" style="fill:none;stroke:#000000;stroke-linecap:square;stroke-linejoin:miter;stroke-width:0.8;"/>
   </g>
   <g id="patch_5">
    <path d="M 63.932812 239.758125 
L 398.732812 239.758125 
" style="fill:none;stroke:#000000;stroke-linecap:square;stroke-linejoin:miter;stroke-width:0.8;"/>
   </g>
   <g id="patch_6">
    <path d="M 63.932812 22.318125 
L 398.732812 22.318125 
" style="fill:none;stroke:#000000;stroke-linecap:square;stroke-linejoin:miter;stroke-width:0.8;"/>
   </g>
   <g id="text_16">
    <!-- Unknown mode -->
    <g transform="translate(184.558125 16.318125)scale(0.12 -0.12)">
     <defs>
      <path d="M 8.6875 72.90625 
L 18.609375 72.90625 
L 18.609375 28.609375 
Q 18.609375 16.890625 22.84375 11.734375 
Q 27.09375 6.59375 36.625 6.59375 
Q 46.09375 6.59375 50.34375 11.734375 
Q 54.59375 16.890625 54.59375 28.609375 
L 54.59375 72.90625 
L 64.5 72.90625 
L 64.5 27.390625 
Q 64.5 13.140625 57.4375 5.859375 
Q 50.390625 -1.421875 36.625 -1.421875 
Q 22.796875 -1.421875 15.734375 5.859375 
Q 8.6875 13.140625 8.6875 27.390625 
z
" id="DejaVuSans-85"/>
      <path d="M 54.890625 33.015625 
L 54.890625 0 
L 45.90625 0 
L 45.90625 32.71875 
Q 45.90625 40.484375 42.875 44.328125 
Q 39.84375 48.1875 33.796875 48.1875 
Q 26.515625 48.1875 22.3125 43.546875 
Q 18.109375 38.921875 18.109375 30.90625 
L 18.109375 0 
L 9.078125 0 
L 9.078125 54.6875 
L 18.109375 54.6875 
L 18.109375 46.1875 
Q 21.34375 51.125 25.703125 53.5625 
Q 30.078125 56 35.796875 56 
Q 45.21875 56 50.046875 50.171875 
Q 54.890625 44.34375 54.890625 33.015625 
z
" id="DejaVuSans-110"/>
      <path d="M 9.078125 75.984375 
L 18.109375 75.984375 
L 18.109375 31.109375 
L 44.921875 54.6875 
L 56.390625 54.6875 
L 27.390625 29.109375 
L 57.625 0 
L 45.90625 0 
L 18.109375 26.703125 
L 18.109375 0 
L 9.078125 0 
z
" id="DejaVuSans-107"/>
      <path d="M 30.609375 48.390625 
Q 23.390625 48.390625 19.1875 42.75 
Q 14.984375 37.109375 14.984375 27.296875 
Q 14.984375 17.484375 19.15625 11.84375 
Q 23.34375 6.203125 30.609375 6.203125 
Q 37.796875 6.203125 41.984375 11.859375 
Q 46.1875 17.53125 46.1875 27.296875 
Q 46.1875 37.015625 41.984375 42.703125 
Q 37.796875 48.390625 30.609375 48.390625 
z
M 30.609375 56 
Q 42.328125 56 49.015625 48.375 
Q 55.71875 40.765625 55.71875 27.296875 
Q 55.71875 13.875 49.015625 6.21875 
Q 42.328125 -1.421875 30.609375 -1.421875 
Q 18.84375 -1.421875 12.171875 6.21875 
Q 5.515625 13.875 5.515625 27.296875 
Q 5.515625 40.765625 12.171875 48.375 
Q 18.84375 56 30.609375 56 
z
" id="DejaVuSans-111"/>
      <path d="M 4.203125 54.6875 
L 13.1875 54.6875 
L 24.421875 12.015625 
L 35.59375 54.6875 
L 46.1875 54.6875 
L 57.421875 12.015625 
L 68.609375 54.6875 
L 77.59375 54.6875 
L 63.28125 0 
L 52.6875 0 
L 40.921875 44.828125 
L 29.109375 0 
L 18.5 0 
z
" id="DejaVuSans-119"/>
      <path id="DejaVuSans-32"/>
      <path d="M 52 44.1875 
Q 55.375 50.25 60.0625 53.125 
Q 64.75 56 71.09375 56 
Q 79.640625 56 84.28125 50.015625 
Q 88.921875 44.046875 88.921875 33.015625 
L 88.921875 0 
L 79.890625 0 
L 79.890625 32.71875 
Q 79.890625 40.578125 77.09375 44.375 
Q 74.3125 48.1875 68.609375 48.1875 
Q 61.625 48.1875 57.5625 43.546875 
Q 53.515625 38.921875 53.515625 30.90625 
L 53.515625 0 
L 44.484375 0 
L 44.484375 32.71875 
Q 44.484375 40.625 41.703125 44.40625 
Q 38.921875 48.1875 33.109375 48.1875 
Q 26.21875 48.1875 22.15625 43.53125 
Q 18.109375 38.875 18.109375 30.90625 
L 18.109375 0 
L 9.078125 0 
L 9.078125 54.6875 
L 18.109375 54.6875 
L 18.109375 46.1875 
Q 21.1875 51.21875 25.484375 53.609375 
Q 29.78125 56 35.6875 56 
Q 41.65625 56 45.828125 52.96875 
Q 50 49.953125 52 44.1875 
z
" id="DejaVuSans-109"/>
      <path d="M 45.40625 46.390625 
L 45.40625 75.984375 
L 54.390625 75.984375 
L 54.390625 0 
L 45.40625 0 
L 45.40625 8.203125 
Q 42.578125 3.328125 38.25 0.953125 
Q 33.9375 -1.421875 27.875 -1.421875 
Q 17.96875 -1.421875 11.734375 6.484375 
Q 5.515625 14.40625 5.515625 27.296875 
Q 5.515625 40.1875 11.734375 48.09375 
Q 17.96875 56 27.875 56 
Q 33.9375 56 38.25 53.625 
Q 42.578125 51.265625 45.40625 46.390625 
z
M 14.796875 27.296875 
Q 14.796875 17.390625 18.875 11.75 
Q 22.953125 6.109375 30.078125 6.109375 
Q 37.203125 6.109375 41.296875 11.75 
Q 45.40625 17.390625 45.40625 27.296875 
Q 45.40625 37.203125 41.296875 42.84375 
Q 37.203125 48.484375 30.078125 48.484375 
Q 22.953125 48.484375 18.875 42.84375 
Q 14.796875 37.203125 14.796875 27.296875 
z
" id="DejaVuSans-100"/>
      <path d="M 56.203125 29.59375 
L 56.203125 25.203125 
L 14.890625 25.203125 
Q 15.484375 15.921875 20.484375 11.0625 
Q 25.484375 6.203125 34.421875 6.203125 
Q 39.59375 6.203125 44.453125 7.46875 
Q 49.3125 8.734375 54.109375 11.28125 
L 54.109375 2.78125 
Q 49.265625 0.734375 44.1875 -0.34375 
Q 39.109375 -1.421875 33.890625 -1.421875 
Q 20.796875 -1.421875 13.15625 6.1875 
Q 5.515625 13.8125 5.515625 26.8125 
Q 5.515625 40.234375 12.765625 48.109375 
Q 20.015625 56 32.328125 56 
Q 43.359375 56 49.78125 48.890625 
Q 56.203125 41.796875 56.203125 29.59375 
z
M 47.21875 32.234375 
Q 47.125 39.59375 43.09375 43.984375 
Q 39.0625 48.390625 32.421875 48.390625 
Q 24.90625 48.390625 20.390625 44.140625 
Q 15.875 39.890625 15.1875 32.171875 
z
" id="DejaVuSans-101"/>
     </defs>
     <use xlink:href="#DejaVuSans-85"/>
     <use x="73.193359" xlink:href="#DejaVuSans-110"/>
     <use x="136.572266" xlink:href="#DejaVuSans-107"/>
     <use x="194.482422" xlink:href="#DejaVuSans-110"/>
     <use x="257.861328" xlink:href="#DejaVuSans-111"/>
     <use x="319.042969" xlink:href="#DejaVuSans-119"/>
     <use x="400.830078" xlink:href="#DejaVuSans-110"/>
     <use x="464.208984" xlink:href="#DejaVuSans-32"/>
     <use x="495.996094" xlink:href="#DejaVuSans-109"/>
     <use x="593.408203" xlink:href="#DejaVuSans-111"/>
     <use x="654.589844" xlink:href="#DejaVuSans-100"/>
     <use x="718.066406" xlink:href="#DejaVuSans-101"/>
    </g>
   </g>
  </g>
 </g>
 <defs>
  <clipPath id="p42fcdb12d5">
   <rect height="217.44" width="334.8" x="63.932812" y="22.318125"/>
  </clipPath>
 </defs>
</svg>
