<?xml version="1.0" encoding="utf-8" standalone="no"?>
<!DOCTYPE svg PUBLIC "-//W3C//DTD SVG 1.1//EN"
  "http://www.w3.org/Graphics/SVG/1.1/DTD/svg11.dtd">
<!-- Created with matplotlib (https://matplotlib.org/) -->
<svg height="697.07625pt" version="1.1" viewBox="0 0 520.075 697.07625" width="520.075pt" xmlns="http://www.w3.org/2000/svg" xmlns:xlink="http://www.w3.org/1999/xlink">
 <metadata>
  <rdf:RDF xmlns:cc="http://creativecommons.org/ns#" xmlns:dc="http://purl.org/dc/elements/1.1/" xmlns:rdf="http://www.w3.org/1999/02/22-rdf-syntax-ns#">
   <cc:Work>
    <dc:type rdf:resource="http://purl.org/dc/dcmitype/StillImage"/>
    <dc:date>2021-10-06T11:44:59.438204</dc:date>
    <dc:format>image/svg+xml</dc:format>
    <dc:creator>
     <cc:Agent>
      <dc:title>Matplotlib v3.3.4, https://matplotlib.org/</dc:title>
     </cc:Agent>
    </dc:creator>
   </cc:Work>
  </rdf:RDF>
 </metadata>
 <defs>
  <style type="text/css">*{stroke-linecap:butt;stroke-linejoin:round;}</style>
 </defs>
 <g id="figure_1">
  <g id="patch_1">
   <path d="M 0 697.07625 
L 520.075 697.07625 
L 520.075 0 
L 0 0 
z
" style="fill:none;"/>
  </g>
  <g id="axes_1">
   <g id="patch_2">
    <path d="M 58.523438 199.058824 
L 504.923437 199.058824 
L 504.923437 7.2 
L 58.523438 7.2 
z
" style="fill:#ffffff;"/>
   </g>
   <g id="matplotlib.axis_1">
    <g id="xtick_1">
     <g id="line2d_1">
      <defs>
       <path d="M 0 0 
L 0 3.5 
" id="ma319cfb0a1" style="stroke:#000000;stroke-width:0.8;"/>
      </defs>
      <g>
       <use style="stroke:#000000;stroke-width:0.8;" x="58.523438" xlink:href="#ma319cfb0a1" y="199.058824"/>
      </g>
     </g>
     <g id="text_1">
      <!-- −2.0 -->
      <g transform="translate(46.382031 213.657261)scale(0.1 -0.1)">
       <defs>
        <path d="M 10.59375 35.5 
L 73.1875 35.5 
L 73.1875 27.203125 
L 10.59375 27.203125 
z
" id="DejaVuSans-8722"/>
        <path d="M 19.1875 8.296875 
L 53.609375 8.296875 
L 53.609375 0 
L 7.328125 0 
L 7.328125 8.296875 
Q 12.9375 14.109375 22.625 23.890625 
Q 32.328125 33.6875 34.8125 36.53125 
Q 39.546875 41.84375 41.421875 45.53125 
Q 43.3125 49.21875 43.3125 52.78125 
Q 43.3125 58.59375 39.234375 62.25 
Q 35.15625 65.921875 28.609375 65.921875 
Q 23.96875 65.921875 18.8125 64.3125 
Q 13.671875 62.703125 7.8125 59.421875 
L 7.8125 69.390625 
Q 13.765625 71.78125 18.9375 73 
Q 24.125 74.21875 28.421875 74.21875 
Q 39.75 74.21875 46.484375 68.546875 
Q 53.21875 62.890625 53.21875 53.421875 
Q 53.21875 48.921875 51.53125 44.890625 
Q 49.859375 40.875 45.40625 35.40625 
Q 44.1875 33.984375 37.640625 27.21875 
Q 31.109375 20.453125 19.1875 8.296875 
z
" id="DejaVuSans-50"/>
        <path d="M 10.6875 12.40625 
L 21 12.40625 
L 21 0 
L 10.6875 0 
z
" id="DejaVuSans-46"/>
        <path d="M 31.78125 66.40625 
Q 24.171875 66.40625 20.328125 58.90625 
Q 16.5 51.421875 16.5 36.375 
Q 16.5 21.390625 20.328125 13.890625 
Q 24.171875 6.390625 31.78125 6.390625 
Q 39.453125 6.390625 43.28125 13.890625 
Q 47.125 21.390625 47.125 36.375 
Q 47.125 51.421875 43.28125 58.90625 
Q 39.453125 66.40625 31.78125 66.40625 
z
M 31.78125 74.21875 
Q 44.046875 74.21875 50.515625 64.515625 
Q 56.984375 54.828125 56.984375 36.375 
Q 56.984375 17.96875 50.515625 8.265625 
Q 44.046875 -1.421875 31.78125 -1.421875 
Q 19.53125 -1.421875 13.0625 8.265625 
Q 6.59375 17.96875 6.59375 36.375 
Q 6.59375 54.828125 13.0625 64.515625 
Q 19.53125 74.21875 31.78125 74.21875 
z
" id="DejaVuSans-48"/>
       </defs>
       <use xlink:href="#DejaVuSans-8722"/>
       <use x="83.789062" xlink:href="#DejaVuSans-50"/>
       <use x="147.412109" xlink:href="#DejaVuSans-46"/>
       <use x="179.199219" xlink:href="#DejaVuSans-48"/>
      </g>
     </g>
    </g>
    <g id="xtick_2">
     <g id="line2d_2">
      <g>
       <use style="stroke:#000000;stroke-width:0.8;" x="114.323438" xlink:href="#ma319cfb0a1" y="199.058824"/>
      </g>
     </g>
     <g id="text_2">
      <!-- −1.5 -->
      <g transform="translate(102.182031 213.657261)scale(0.1 -0.1)">
       <defs>
        <path d="M 12.40625 8.296875 
L 28.515625 8.296875 
L 28.515625 63.921875 
L 10.984375 60.40625 
L 10.984375 69.390625 
L 28.421875 72.90625 
L 38.28125 72.90625 
L 38.28125 8.296875 
L 54.390625 8.296875 
L 54.390625 0 
L 12.40625 0 
z
" id="DejaVuSans-49"/>
        <path d="M 10.796875 72.90625 
L 49.515625 72.90625 
L 49.515625 64.59375 
L 19.828125 64.59375 
L 19.828125 46.734375 
Q 21.96875 47.46875 24.109375 47.828125 
Q 26.265625 48.1875 28.421875 48.1875 
Q 40.625 48.1875 47.75 41.5 
Q 54.890625 34.8125 54.890625 23.390625 
Q 54.890625 11.625 47.5625 5.09375 
Q 40.234375 -1.421875 26.90625 -1.421875 
Q 22.3125 -1.421875 17.546875 -0.640625 
Q 12.796875 0.140625 7.71875 1.703125 
L 7.71875 11.625 
Q 12.109375 9.234375 16.796875 8.0625 
Q 21.484375 6.890625 26.703125 6.890625 
Q 35.15625 6.890625 40.078125 11.328125 
Q 45.015625 15.765625 45.015625 23.390625 
Q 45.015625 31 40.078125 35.4375 
Q 35.15625 39.890625 26.703125 39.890625 
Q 22.75 39.890625 18.8125 39.015625 
Q 14.890625 38.140625 10.796875 36.28125 
z
" id="DejaVuSans-53"/>
       </defs>
       <use xlink:href="#DejaVuSans-8722"/>
       <use x="83.789062" xlink:href="#DejaVuSans-49"/>
       <use x="147.412109" xlink:href="#DejaVuSans-46"/>
       <use x="179.199219" xlink:href="#DejaVuSans-53"/>
      </g>
     </g>
    </g>
    <g id="xtick_3">
     <g id="line2d_3">
      <g>
       <use style="stroke:#000000;stroke-width:0.8;" x="170.123437" xlink:href="#ma319cfb0a1" y="199.058824"/>
      </g>
     </g>
     <g id="text_3">
      <!-- −1.0 -->
      <g transform="translate(157.982031 213.657261)scale(0.1 -0.1)">
       <use xlink:href="#DejaVuSans-8722"/>
       <use x="83.789062" xlink:href="#DejaVuSans-49"/>
       <use x="147.412109" xlink:href="#DejaVuSans-46"/>
       <use x="179.199219" xlink:href="#DejaVuSans-48"/>
      </g>
     </g>
    </g>
    <g id="xtick_4">
     <g id="line2d_4">
      <g>
       <use style="stroke:#000000;stroke-width:0.8;" x="225.923437" xlink:href="#ma319cfb0a1" y="199.058824"/>
      </g>
     </g>
     <g id="text_4">
      <!-- −0.5 -->
      <g transform="translate(213.782031 213.657261)scale(0.1 -0.1)">
       <use xlink:href="#DejaVuSans-8722"/>
       <use x="83.789062" xlink:href="#DejaVuSans-48"/>
       <use x="147.412109" xlink:href="#DejaVuSans-46"/>
       <use x="179.199219" xlink:href="#DejaVuSans-53"/>
      </g>
     </g>
    </g>
    <g id="xtick_5">
     <g id="line2d_5">
      <g>
       <use style="stroke:#000000;stroke-width:0.8;" x="281.723437" xlink:href="#ma319cfb0a1" y="199.058824"/>
      </g>
     </g>
     <g id="text_5">
      <!-- 0.0 -->
      <g transform="translate(273.771875 213.657261)scale(0.1 -0.1)">
       <use xlink:href="#DejaVuSans-48"/>
       <use x="63.623047" xlink:href="#DejaVuSans-46"/>
       <use x="95.410156" xlink:href="#DejaVuSans-48"/>
      </g>
     </g>
    </g>
    <g id="xtick_6">
     <g id="line2d_6">
      <g>
       <use style="stroke:#000000;stroke-width:0.8;" x="337.523438" xlink:href="#ma319cfb0a1" y="199.058824"/>
      </g>
     </g>
     <g id="text_6">
      <!-- 0.5 -->
      <g transform="translate(329.571875 213.657261)scale(0.1 -0.1)">
       <use xlink:href="#DejaVuSans-48"/>
       <use x="63.623047" xlink:href="#DejaVuSans-46"/>
       <use x="95.410156" xlink:href="#DejaVuSans-53"/>
      </g>
     </g>
    </g>
    <g id="xtick_7">
     <g id="line2d_7">
      <g>
       <use style="stroke:#000000;stroke-width:0.8;" x="393.323437" xlink:href="#ma319cfb0a1" y="199.058824"/>
      </g>
     </g>
     <g id="text_7">
      <!-- 1.0 -->
      <g transform="translate(385.371875 213.657261)scale(0.1 -0.1)">
       <use xlink:href="#DejaVuSans-49"/>
       <use x="63.623047" xlink:href="#DejaVuSans-46"/>
       <use x="95.410156" xlink:href="#DejaVuSans-48"/>
      </g>
     </g>
    </g>
    <g id="xtick_8">
     <g id="line2d_8">
      <g>
       <use style="stroke:#000000;stroke-width:0.8;" x="449.123437" xlink:href="#ma319cfb0a1" y="199.058824"/>
      </g>
     </g>
     <g id="text_8">
      <!-- 1.5 -->
      <g transform="translate(441.171875 213.657261)scale(0.1 -0.1)">
       <use xlink:href="#DejaVuSans-49"/>
       <use x="63.623047" xlink:href="#DejaVuSans-46"/>
       <use x="95.410156" xlink:href="#DejaVuSans-53"/>
      </g>
     </g>
    </g>
    <g id="xtick_9">
     <g id="line2d_9">
      <g>
       <use style="stroke:#000000;stroke-width:0.8;" x="504.923437" xlink:href="#ma319cfb0a1" y="199.058824"/>
      </g>
     </g>
     <g id="text_9">
      <!-- 2.0 -->
      <g transform="translate(496.971875 213.657261)scale(0.1 -0.1)">
       <use xlink:href="#DejaVuSans-50"/>
       <use x="63.623047" xlink:href="#DejaVuSans-46"/>
       <use x="95.410156" xlink:href="#DejaVuSans-48"/>
      </g>
     </g>
    </g>
    <g id="text_10">
     <!-- x -->
     <g transform="translate(278.764062 227.335386)scale(0.1 -0.1)">
      <defs>
       <path d="M 54.890625 54.6875 
L 35.109375 28.078125 
L 55.90625 0 
L 45.3125 0 
L 29.390625 21.484375 
L 13.484375 0 
L 2.875 0 
L 24.125 28.609375 
L 4.6875 54.6875 
L 15.28125 54.6875 
L 29.78125 35.203125 
L 44.28125 54.6875 
z
" id="DejaVuSans-120"/>
      </defs>
      <use xlink:href="#DejaVuSans-120"/>
     </g>
    </g>
   </g>
   <g id="matplotlib.axis_2">
    <g id="ytick_1">
     <g id="line2d_10">
      <defs>
       <path d="M 0 0 
L -3.5 0 
" id="mfc3d319cf0" style="stroke:#000000;stroke-width:0.8;"/>
      </defs>
      <g>
       <use style="stroke:#000000;stroke-width:0.8;" x="58.523438" xlink:href="#mfc3d319cf0" y="172.896257"/>
      </g>
     </g>
     <g id="text_11">
      <!-- −0.04 -->
      <g transform="translate(20.878125 176.695475)scale(0.1 -0.1)">
       <defs>
        <path d="M 37.796875 64.3125 
L 12.890625 25.390625 
L 37.796875 25.390625 
z
M 35.203125 72.90625 
L 47.609375 72.90625 
L 47.609375 25.390625 
L 58.015625 25.390625 
L 58.015625 17.1875 
L 47.609375 17.1875 
L 47.609375 0 
L 37.796875 0 
L 37.796875 17.1875 
L 4.890625 17.1875 
L 4.890625 26.703125 
z
" id="DejaVuSans-52"/>
       </defs>
       <use xlink:href="#DejaVuSans-8722"/>
       <use x="83.789062" xlink:href="#DejaVuSans-48"/>
       <use x="147.412109" xlink:href="#DejaVuSans-46"/>
       <use x="179.199219" xlink:href="#DejaVuSans-48"/>
       <use x="242.822266" xlink:href="#DejaVuSans-52"/>
      </g>
     </g>
    </g>
    <g id="ytick_2">
     <g id="line2d_11">
      <g>
       <use style="stroke:#000000;stroke-width:0.8;" x="58.523438" xlink:href="#mfc3d319cf0" y="138.012834"/>
      </g>
     </g>
     <g id="text_12">
      <!-- −0.02 -->
      <g transform="translate(20.878125 141.812053)scale(0.1 -0.1)">
       <use xlink:href="#DejaVuSans-8722"/>
       <use x="83.789062" xlink:href="#DejaVuSans-48"/>
       <use x="147.412109" xlink:href="#DejaVuSans-46"/>
       <use x="179.199219" xlink:href="#DejaVuSans-48"/>
       <use x="242.822266" xlink:href="#DejaVuSans-50"/>
      </g>
     </g>
    </g>
    <g id="ytick_3">
     <g id="line2d_12">
      <g>
       <use style="stroke:#000000;stroke-width:0.8;" x="58.523438" xlink:href="#mfc3d319cf0" y="103.129412"/>
      </g>
     </g>
     <g id="text_13">
      <!-- 0.00 -->
      <g transform="translate(29.257813 106.928631)scale(0.1 -0.1)">
       <use xlink:href="#DejaVuSans-48"/>
       <use x="63.623047" xlink:href="#DejaVuSans-46"/>
       <use x="95.410156" xlink:href="#DejaVuSans-48"/>
       <use x="159.033203" xlink:href="#DejaVuSans-48"/>
      </g>
     </g>
    </g>
    <g id="ytick_4">
     <g id="line2d_13">
      <g>
       <use style="stroke:#000000;stroke-width:0.8;" x="58.523438" xlink:href="#mfc3d319cf0" y="68.245989"/>
      </g>
     </g>
     <g id="text_14">
      <!-- 0.02 -->
      <g transform="translate(29.257813 72.045208)scale(0.1 -0.1)">
       <use xlink:href="#DejaVuSans-48"/>
       <use x="63.623047" xlink:href="#DejaVuSans-46"/>
       <use x="95.410156" xlink:href="#DejaVuSans-48"/>
       <use x="159.033203" xlink:href="#DejaVuSans-50"/>
      </g>
     </g>
    </g>
    <g id="ytick_5">
     <g id="line2d_14">
      <g>
       <use style="stroke:#000000;stroke-width:0.8;" x="58.523438" xlink:href="#mfc3d319cf0" y="33.362567"/>
      </g>
     </g>
     <g id="text_15">
      <!-- 0.04 -->
      <g transform="translate(29.257813 37.161786)scale(0.1 -0.1)">
       <use xlink:href="#DejaVuSans-48"/>
       <use x="63.623047" xlink:href="#DejaVuSans-46"/>
       <use x="95.410156" xlink:href="#DejaVuSans-48"/>
       <use x="159.033203" xlink:href="#DejaVuSans-52"/>
      </g>
     </g>
    </g>
    <g id="text_16">
     <!-- y -->
     <g transform="translate(14.798438 106.088787)rotate(-90)scale(0.1 -0.1)">
      <defs>
       <path d="M 32.171875 -5.078125 
Q 28.375 -14.84375 24.75 -17.8125 
Q 21.140625 -20.796875 15.09375 -20.796875 
L 7.90625 -20.796875 
L 7.90625 -13.28125 
L 13.1875 -13.28125 
Q 16.890625 -13.28125 18.9375 -11.515625 
Q 21 -9.765625 23.484375 -3.21875 
L 25.09375 0.875 
L 2.984375 54.6875 
L 12.5 54.6875 
L 29.59375 11.921875 
L 46.6875 54.6875 
L 56.203125 54.6875 
z
" id="DejaVuSans-121"/>
      </defs>
      <use xlink:href="#DejaVuSans-121"/>
     </g>
    </g>
   </g>
   <g id="line2d_15">
    <path clip-path="url(#p33e1cec765)" d="M 358.528192 103.129412 
" style="fill:none;stroke:#0000ff;stroke-linecap:square;stroke-width:10;"/>
    <defs>
     <path d="M -10 10 
L 10 10 
L 10 -10 
L -10 -10 
z
" id="m71938d770d" style="stroke:#000000;stroke-linejoin:miter;"/>
    </defs>
    <g clip-path="url(#p33e1cec765)">
     <use style="fill-opacity:0;stroke:#000000;stroke-linejoin:miter;" x="358.528192" xlink:href="#m71938d770d" y="103.129412"/>
    </g>
   </g>
   <g id="line2d_16">
    <path clip-path="url(#p33e1cec765)" style="fill:none;stroke:#0000ff;stroke-linecap:square;stroke-width:10;"/>
    <g clip-path="url(#p33e1cec765)">
     <use style="fill-opacity:0;stroke:#000000;stroke-linejoin:miter;" x="2523.310556" xlink:href="#m71938d770d" y="103.129412"/>
    </g>
   </g>
   <g id="patch_3">
    <path d="M 58.523438 199.058824 
L 58.523438 7.2 
" style="fill:none;stroke:#000000;stroke-linecap:square;stroke-linejoin:miter;stroke-width:0.8;"/>
   </g>
   <g id="patch_4">
    <path d="M 504.923437 199.058824 
L 504.923437 7.2 
" style="fill:none;stroke:#000000;stroke-linecap:square;stroke-linejoin:miter;stroke-width:0.8;"/>
   </g>
   <g id="patch_5">
    <path d="M 58.523438 199.058824 
L 504.923437 199.058824 
" style="fill:none;stroke:#000000;stroke-linecap:square;stroke-linejoin:miter;stroke-width:0.8;"/>
   </g>
   <g id="patch_6">
    <path d="M 58.523438 7.2 
L 504.923437 7.2 
" style="fill:none;stroke:#000000;stroke-linecap:square;stroke-linejoin:miter;stroke-width:0.8;"/>
   </g>
   <g id="text_17">
    <!--  -->
    <g transform="translate(103.163438 15.18807)scale(0.1 -0.1)"/>
    <!-- Time = 60.0s -->
    <g transform="translate(103.163438 26.385882)scale(0.1 -0.1)">
     <defs>
      <path d="M -0.296875 72.90625 
L 61.375 72.90625 
L 61.375 64.59375 
L 35.5 64.59375 
L 35.5 0 
L 25.59375 0 
L 25.59375 64.59375 
L -0.296875 64.59375 
z
" id="DejaVuSans-84"/>
      <path d="M 9.421875 54.6875 
L 18.40625 54.6875 
L 18.40625 0 
L 9.421875 0 
z
M 9.421875 75.984375 
L 18.40625 75.984375 
L 18.40625 64.59375 
L 9.421875 64.59375 
z
" id="DejaVuSans-105"/>
      <path d="M 52 44.1875 
Q 55.375 50.25 60.0625 53.125 
Q 64.75 56 71.09375 56 
Q 79.640625 56 84.28125 50.015625 
Q 88.921875 44.046875 88.921875 33.015625 
L 88.921875 0 
L 79.890625 0 
L 79.890625 32.71875 
Q 79.890625 40.578125 77.09375 44.375 
Q 74.3125 48.1875 68.609375 48.1875 
Q 61.625 48.1875 57.5625 43.546875 
Q 53.515625 38.921875 53.515625 30.90625 
L 53.515625 0 
L 44.484375 0 
L 44.484375 32.71875 
Q 44.484375 40.625 41.703125 44.40625 
Q 38.921875 48.1875 33.109375 48.1875 
Q 26.21875 48.1875 22.15625 43.53125 
Q 18.109375 38.875 18.109375 30.90625 
L 18.109375 0 
L 9.078125 0 
L 9.078125 54.6875 
L 18.109375 54.6875 
L 18.109375 46.1875 
Q 21.1875 51.21875 25.484375 53.609375 
Q 29.78125 56 35.6875 56 
Q 41.65625 56 45.828125 52.96875 
Q 50 49.953125 52 44.1875 
z
" id="DejaVuSans-109"/>
      <path d="M 56.203125 29.59375 
L 56.203125 25.203125 
L 14.890625 25.203125 
Q 15.484375 15.921875 20.484375 11.0625 
Q 25.484375 6.203125 34.421875 6.203125 
Q 39.59375 6.203125 44.453125 7.46875 
Q 49.3125 8.734375 54.109375 11.28125 
L 54.109375 2.78125 
Q 49.265625 0.734375 44.1875 -0.34375 
Q 39.109375 -1.421875 33.890625 -1.421875 
Q 20.796875 -1.421875 13.15625 6.1875 
Q 5.515625 13.8125 5.515625 26.8125 
Q 5.515625 40.234375 12.765625 48.109375 
Q 20.015625 56 32.328125 56 
Q 43.359375 56 49.78125 48.890625 
Q 56.203125 41.796875 56.203125 29.59375 
z
M 47.21875 32.234375 
Q 47.125 39.59375 43.09375 43.984375 
Q 39.0625 48.390625 32.421875 48.390625 
Q 24.90625 48.390625 20.390625 44.140625 
Q 15.875 39.890625 15.1875 32.171875 
z
" id="DejaVuSans-101"/>
      <path id="DejaVuSans-32"/>
      <path d="M 10.59375 45.40625 
L 73.1875 45.40625 
L 73.1875 37.203125 
L 10.59375 37.203125 
z
M 10.59375 25.484375 
L 73.1875 25.484375 
L 73.1875 17.1875 
L 10.59375 17.1875 
z
" id="DejaVuSans-61"/>
      <path d="M 33.015625 40.375 
Q 26.375 40.375 22.484375 35.828125 
Q 18.609375 31.296875 18.609375 23.390625 
Q 18.609375 15.53125 22.484375 10.953125 
Q 26.375 6.390625 33.015625 6.390625 
Q 39.65625 6.390625 43.53125 10.953125 
Q 47.40625 15.53125 47.40625 23.390625 
Q 47.40625 31.296875 43.53125 35.828125 
Q 39.65625 40.375 33.015625 40.375 
z
M 52.59375 71.296875 
L 52.59375 62.3125 
Q 48.875 64.0625 45.09375 64.984375 
Q 41.3125 65.921875 37.59375 65.921875 
Q 27.828125 65.921875 22.671875 59.328125 
Q 17.53125 52.734375 16.796875 39.40625 
Q 19.671875 43.65625 24.015625 45.921875 
Q 28.375 48.1875 33.59375 48.1875 
Q 44.578125 48.1875 50.953125 41.515625 
Q 57.328125 34.859375 57.328125 23.390625 
Q 57.328125 12.15625 50.6875 5.359375 
Q 44.046875 -1.421875 33.015625 -1.421875 
Q 20.359375 -1.421875 13.671875 8.265625 
Q 6.984375 17.96875 6.984375 36.375 
Q 6.984375 53.65625 15.1875 63.9375 
Q 23.390625 74.21875 37.203125 74.21875 
Q 40.921875 74.21875 44.703125 73.484375 
Q 48.484375 72.75 52.59375 71.296875 
z
" id="DejaVuSans-54"/>
      <path d="M 44.28125 53.078125 
L 44.28125 44.578125 
Q 40.484375 46.53125 36.375 47.5 
Q 32.28125 48.484375 27.875 48.484375 
Q 21.1875 48.484375 17.84375 46.4375 
Q 14.5 44.390625 14.5 40.28125 
Q 14.5 37.15625 16.890625 35.375 
Q 19.28125 33.59375 26.515625 31.984375 
L 29.59375 31.296875 
Q 39.15625 29.25 43.1875 25.515625 
Q 47.21875 21.78125 47.21875 15.09375 
Q 47.21875 7.46875 41.1875 3.015625 
Q 35.15625 -1.421875 24.609375 -1.421875 
Q 20.21875 -1.421875 15.453125 -0.5625 
Q 10.6875 0.296875 5.421875 2 
L 5.421875 11.28125 
Q 10.40625 8.6875 15.234375 7.390625 
Q 20.0625 6.109375 24.8125 6.109375 
Q 31.15625 6.109375 34.5625 8.28125 
Q 37.984375 10.453125 37.984375 14.40625 
Q 37.984375 18.0625 35.515625 20.015625 
Q 33.0625 21.96875 24.703125 23.78125 
L 21.578125 24.515625 
Q 13.234375 26.265625 9.515625 29.90625 
Q 5.8125 33.546875 5.8125 39.890625 
Q 5.8125 47.609375 11.28125 51.796875 
Q 16.75 56 26.8125 56 
Q 31.78125 56 36.171875 55.265625 
Q 40.578125 54.546875 44.28125 53.078125 
z
" id="DejaVuSans-115"/>
     </defs>
     <use xlink:href="#DejaVuSans-84"/>
     <use x="57.958984" xlink:href="#DejaVuSans-105"/>
     <use x="85.742188" xlink:href="#DejaVuSans-109"/>
     <use x="183.154297" xlink:href="#DejaVuSans-101"/>
     <use x="244.677734" xlink:href="#DejaVuSans-32"/>
     <use x="276.464844" xlink:href="#DejaVuSans-61"/>
     <use x="360.253906" xlink:href="#DejaVuSans-32"/>
     <use x="392.041016" xlink:href="#DejaVuSans-54"/>
     <use x="455.664062" xlink:href="#DejaVuSans-48"/>
     <use x="519.287109" xlink:href="#DejaVuSans-46"/>
     <use x="551.074219" xlink:href="#DejaVuSans-48"/>
     <use x="614.697266" xlink:href="#DejaVuSans-115"/>
    </g>
   </g>
  </g>
  <g id="axes_2">
   <g id="patch_7">
    <path d="M 58.523438 429.289412 
L 504.923437 429.289412 
L 504.923437 237.430588 
L 58.523438 237.430588 
z
" style="fill:#ffffff;"/>
   </g>
   <g id="matplotlib.axis_3">
    <g id="xtick_10">
     <g id="line2d_17">
      <g>
       <use style="stroke:#000000;stroke-width:0.8;" x="58.523438" xlink:href="#ma319cfb0a1" y="429.289412"/>
      </g>
     </g>
     <g id="text_18">
      <!-- 0 -->
      <g transform="translate(55.342188 443.887849)scale(0.1 -0.1)">
       <use xlink:href="#DejaVuSans-48"/>
      </g>
     </g>
    </g>
    <g id="xtick_11">
     <g id="line2d_18">
      <g>
       <use style="stroke:#000000;stroke-width:0.8;" x="132.923438" xlink:href="#ma319cfb0a1" y="429.289412"/>
      </g>
     </g>
     <g id="text_19">
      <!-- 10 -->
      <g transform="translate(126.560938 443.887849)scale(0.1 -0.1)">
       <use xlink:href="#DejaVuSans-49"/>
       <use x="63.623047" xlink:href="#DejaVuSans-48"/>
      </g>
     </g>
    </g>
    <g id="xtick_12">
     <g id="line2d_19">
      <g>
       <use style="stroke:#000000;stroke-width:0.8;" x="207.323437" xlink:href="#ma319cfb0a1" y="429.289412"/>
      </g>
     </g>
     <g id="text_20">
      <!-- 20 -->
      <g transform="translate(200.960937 443.887849)scale(0.1 -0.1)">
       <use xlink:href="#DejaVuSans-50"/>
       <use x="63.623047" xlink:href="#DejaVuSans-48"/>
      </g>
     </g>
    </g>
    <g id="xtick_13">
     <g id="line2d_20">
      <g>
       <use style="stroke:#000000;stroke-width:0.8;" x="281.723437" xlink:href="#ma319cfb0a1" y="429.289412"/>
      </g>
     </g>
     <g id="text_21">
      <!-- 30 -->
      <g transform="translate(275.360937 443.887849)scale(0.1 -0.1)">
       <defs>
        <path d="M 40.578125 39.3125 
Q 47.65625 37.796875 51.625 33 
Q 55.609375 28.21875 55.609375 21.1875 
Q 55.609375 10.40625 48.1875 4.484375 
Q 40.765625 -1.421875 27.09375 -1.421875 
Q 22.515625 -1.421875 17.65625 -0.515625 
Q 12.796875 0.390625 7.625 2.203125 
L 7.625 11.71875 
Q 11.71875 9.328125 16.59375 8.109375 
Q 21.484375 6.890625 26.8125 6.890625 
Q 36.078125 6.890625 40.9375 10.546875 
Q 45.796875 14.203125 45.796875 21.1875 
Q 45.796875 27.640625 41.28125 31.265625 
Q 36.765625 34.90625 28.71875 34.90625 
L 20.21875 34.90625 
L 20.21875 43.015625 
L 29.109375 43.015625 
Q 36.375 43.015625 40.234375 45.921875 
Q 44.09375 48.828125 44.09375 54.296875 
Q 44.09375 59.90625 40.109375 62.90625 
Q 36.140625 65.921875 28.71875 65.921875 
Q 24.65625 65.921875 20.015625 65.03125 
Q 15.375 64.15625 9.8125 62.3125 
L 9.8125 71.09375 
Q 15.4375 72.65625 20.34375 73.4375 
Q 25.25 74.21875 29.59375 74.21875 
Q 40.828125 74.21875 47.359375 69.109375 
Q 53.90625 64.015625 53.90625 55.328125 
Q 53.90625 49.265625 50.4375 45.09375 
Q 46.96875 40.921875 40.578125 39.3125 
z
" id="DejaVuSans-51"/>
       </defs>
       <use xlink:href="#DejaVuSans-51"/>
       <use x="63.623047" xlink:href="#DejaVuSans-48"/>
      </g>
     </g>
    </g>
    <g id="xtick_14">
     <g id="line2d_21">
      <g>
       <use style="stroke:#000000;stroke-width:0.8;" x="356.123437" xlink:href="#ma319cfb0a1" y="429.289412"/>
      </g>
     </g>
     <g id="text_22">
      <!-- 40 -->
      <g transform="translate(349.760937 443.887849)scale(0.1 -0.1)">
       <use xlink:href="#DejaVuSans-52"/>
       <use x="63.623047" xlink:href="#DejaVuSans-48"/>
      </g>
     </g>
    </g>
    <g id="xtick_15">
     <g id="line2d_22">
      <g>
       <use style="stroke:#000000;stroke-width:0.8;" x="430.523438" xlink:href="#ma319cfb0a1" y="429.289412"/>
      </g>
     </g>
     <g id="text_23">
      <!-- 50 -->
      <g transform="translate(424.160937 443.887849)scale(0.1 -0.1)">
       <use xlink:href="#DejaVuSans-53"/>
       <use x="63.623047" xlink:href="#DejaVuSans-48"/>
      </g>
     </g>
    </g>
    <g id="xtick_16">
     <g id="line2d_23">
      <g>
       <use style="stroke:#000000;stroke-width:0.8;" x="504.923437" xlink:href="#ma319cfb0a1" y="429.289412"/>
      </g>
     </g>
     <g id="text_24">
      <!-- 60 -->
      <g transform="translate(498.560937 443.887849)scale(0.1 -0.1)">
       <use xlink:href="#DejaVuSans-54"/>
       <use x="63.623047" xlink:href="#DejaVuSans-48"/>
      </g>
     </g>
    </g>
    <g id="text_25">
     <!-- t -->
     <g transform="translate(279.763281 457.565974)scale(0.1 -0.1)">
      <defs>
       <path d="M 18.3125 70.21875 
L 18.3125 54.6875 
L 36.8125 54.6875 
L 36.8125 47.703125 
L 18.3125 47.703125 
L 18.3125 18.015625 
Q 18.3125 11.328125 20.140625 9.421875 
Q 21.96875 7.515625 27.59375 7.515625 
L 36.8125 7.515625 
L 36.8125 0 
L 27.59375 0 
Q 17.1875 0 13.234375 3.875 
Q 9.28125 7.765625 9.28125 18.015625 
L 9.28125 47.703125 
L 2.6875 47.703125 
L 2.6875 54.6875 
L 9.28125 54.6875 
L 9.28125 70.21875 
z
" id="DejaVuSans-116"/>
      </defs>
      <use xlink:href="#DejaVuSans-116"/>
     </g>
    </g>
   </g>
   <g id="matplotlib.axis_4">
    <g id="ytick_6">
     <g id="line2d_24">
      <g>
       <use style="stroke:#000000;stroke-width:0.8;" x="58.523438" xlink:href="#mfc3d319cf0" y="429.289412"/>
      </g>
     </g>
     <g id="text_26">
      <!-- −1.00 -->
      <g transform="translate(20.878125 433.088631)scale(0.1 -0.1)">
       <use xlink:href="#DejaVuSans-8722"/>
       <use x="83.789062" xlink:href="#DejaVuSans-49"/>
       <use x="147.412109" xlink:href="#DejaVuSans-46"/>
       <use x="179.199219" xlink:href="#DejaVuSans-48"/>
       <use x="242.822266" xlink:href="#DejaVuSans-48"/>
      </g>
     </g>
    </g>
    <g id="ytick_7">
     <g id="line2d_25">
      <g>
       <use style="stroke:#000000;stroke-width:0.8;" x="58.523438" xlink:href="#mfc3d319cf0" y="405.307059"/>
      </g>
     </g>
     <g id="text_27">
      <!-- −0.75 -->
      <g transform="translate(20.878125 409.106278)scale(0.1 -0.1)">
       <defs>
        <path d="M 8.203125 72.90625 
L 55.078125 72.90625 
L 55.078125 68.703125 
L 28.609375 0 
L 18.3125 0 
L 43.21875 64.59375 
L 8.203125 64.59375 
z
" id="DejaVuSans-55"/>
       </defs>
       <use xlink:href="#DejaVuSans-8722"/>
       <use x="83.789062" xlink:href="#DejaVuSans-48"/>
       <use x="147.412109" xlink:href="#DejaVuSans-46"/>
       <use x="179.199219" xlink:href="#DejaVuSans-55"/>
       <use x="242.822266" xlink:href="#DejaVuSans-53"/>
      </g>
     </g>
    </g>
    <g id="ytick_8">
     <g id="line2d_26">
      <g>
       <use style="stroke:#000000;stroke-width:0.8;" x="58.523438" xlink:href="#mfc3d319cf0" y="381.324706"/>
      </g>
     </g>
     <g id="text_28">
      <!-- −0.50 -->
      <g transform="translate(20.878125 385.123925)scale(0.1 -0.1)">
       <use xlink:href="#DejaVuSans-8722"/>
       <use x="83.789062" xlink:href="#DejaVuSans-48"/>
       <use x="147.412109" xlink:href="#DejaVuSans-46"/>
       <use x="179.199219" xlink:href="#DejaVuSans-53"/>
       <use x="242.822266" xlink:href="#DejaVuSans-48"/>
      </g>
     </g>
    </g>
    <g id="ytick_9">
     <g id="line2d_27">
      <g>
       <use style="stroke:#000000;stroke-width:0.8;" x="58.523438" xlink:href="#mfc3d319cf0" y="357.342353"/>
      </g>
     </g>
     <g id="text_29">
      <!-- −0.25 -->
      <g transform="translate(20.878125 361.141572)scale(0.1 -0.1)">
       <use xlink:href="#DejaVuSans-8722"/>
       <use x="83.789062" xlink:href="#DejaVuSans-48"/>
       <use x="147.412109" xlink:href="#DejaVuSans-46"/>
       <use x="179.199219" xlink:href="#DejaVuSans-50"/>
       <use x="242.822266" xlink:href="#DejaVuSans-53"/>
      </g>
     </g>
    </g>
    <g id="ytick_10">
     <g id="line2d_28">
      <g>
       <use style="stroke:#000000;stroke-width:0.8;" x="58.523438" xlink:href="#mfc3d319cf0" y="333.36"/>
      </g>
     </g>
     <g id="text_30">
      <!-- 0.00 -->
      <g transform="translate(29.257813 337.159219)scale(0.1 -0.1)">
       <use xlink:href="#DejaVuSans-48"/>
       <use x="63.623047" xlink:href="#DejaVuSans-46"/>
       <use x="95.410156" xlink:href="#DejaVuSans-48"/>
       <use x="159.033203" xlink:href="#DejaVuSans-48"/>
      </g>
     </g>
    </g>
    <g id="ytick_11">
     <g id="line2d_29">
      <g>
       <use style="stroke:#000000;stroke-width:0.8;" x="58.523438" xlink:href="#mfc3d319cf0" y="309.377647"/>
      </g>
     </g>
     <g id="text_31">
      <!-- 0.25 -->
      <g transform="translate(29.257813 313.176866)scale(0.1 -0.1)">
       <use xlink:href="#DejaVuSans-48"/>
       <use x="63.623047" xlink:href="#DejaVuSans-46"/>
       <use x="95.410156" xlink:href="#DejaVuSans-50"/>
       <use x="159.033203" xlink:href="#DejaVuSans-53"/>
      </g>
     </g>
    </g>
    <g id="ytick_12">
     <g id="line2d_30">
      <g>
       <use style="stroke:#000000;stroke-width:0.8;" x="58.523438" xlink:href="#mfc3d319cf0" y="285.395294"/>
      </g>
     </g>
     <g id="text_32">
      <!-- 0.50 -->
      <g transform="translate(29.257813 289.194513)scale(0.1 -0.1)">
       <use xlink:href="#DejaVuSans-48"/>
       <use x="63.623047" xlink:href="#DejaVuSans-46"/>
       <use x="95.410156" xlink:href="#DejaVuSans-53"/>
       <use x="159.033203" xlink:href="#DejaVuSans-48"/>
      </g>
     </g>
    </g>
    <g id="ytick_13">
     <g id="line2d_31">
      <g>
       <use style="stroke:#000000;stroke-width:0.8;" x="58.523438" xlink:href="#mfc3d319cf0" y="261.412941"/>
      </g>
     </g>
     <g id="text_33">
      <!-- 0.75 -->
      <g transform="translate(29.257813 265.21216)scale(0.1 -0.1)">
       <use xlink:href="#DejaVuSans-48"/>
       <use x="63.623047" xlink:href="#DejaVuSans-46"/>
       <use x="95.410156" xlink:href="#DejaVuSans-55"/>
       <use x="159.033203" xlink:href="#DejaVuSans-53"/>
      </g>
     </g>
    </g>
    <g id="ytick_14">
     <g id="line2d_32">
      <g>
       <use style="stroke:#000000;stroke-width:0.8;" x="58.523438" xlink:href="#mfc3d319cf0" y="237.430588"/>
      </g>
     </g>
     <g id="text_34">
      <!-- 1.00 -->
      <g transform="translate(29.257813 241.229807)scale(0.1 -0.1)">
       <use xlink:href="#DejaVuSans-49"/>
       <use x="63.623047" xlink:href="#DejaVuSans-46"/>
       <use x="95.410156" xlink:href="#DejaVuSans-48"/>
       <use x="159.033203" xlink:href="#DejaVuSans-48"/>
      </g>
     </g>
    </g>
    <g id="text_35">
     <!-- x1 -->
     <g transform="translate(14.798438 339.500625)rotate(-90)scale(0.1 -0.1)">
      <use xlink:href="#DejaVuSans-120"/>
      <use x="59.179688" xlink:href="#DejaVuSans-49"/>
     </g>
    </g>
   </g>
   <g id="line2d_33">
    <path clip-path="url(#pe46b0f1861)" d="M 58.523438 429.289412 
L 58.970284 428.339394 
L 59.417131 425.508311 
L 59.863978 420.852695 
L 60.310825 414.465504 
L 61.204519 397.038418 
L 62.098212 374.611132 
L 66.119834 263.557536 
L 67.013528 248.386148 
L 67.460374 243.272748 
L 67.907221 239.950761 
L 68.354068 238.48319 
L 68.800915 238.895922 
L 69.247762 241.177272 
L 69.694609 245.278288 
L 70.141456 251.1138 
L 71.035149 267.477898 
L 71.928843 288.948246 
L 73.71623 340.066358 
L 75.056771 377.554609 
L 75.950465 398.410767 
L 76.844158 414.018247 
L 77.291005 419.460223 
L 77.737852 423.180114 
L 78.184699 425.110148 
L 78.631546 425.218512 
L 79.078392 423.509856 
L 79.525239 420.025069 
L 79.972086 414.840323 
L 80.86578 399.841422 
L 81.759474 379.748714 
L 83.100014 343.697255 
L 84.887401 294.761898 
L 85.781095 274.269282 
L 86.674789 258.628918 
L 87.121636 253.015908 
L 87.568483 249.022252 
L 88.015329 246.718244 
L 88.462176 246.140059 
L 88.909023 247.289217 
L 89.35587 250.132747 
L 89.802717 254.604046 
L 90.69641 268.00521 
L 91.590104 286.361024 
L 92.930645 319.808407 
L 95.164879 376.198228 
L 96.058573 393.793217 
L 96.952266 406.386294 
L 97.399113 410.50272 
L 97.84596 413.06209 
L 98.292807 414.025955 
L 98.739654 413.388059 
L 99.186501 411.174216 
L 99.633347 407.441527 
L 100.080194 402.276987 
L 100.973888 388.137278 
L 101.867582 369.959857 
L 105.889203 280.989513 
L 106.782897 268.962424 
L 107.229744 264.895708 
L 107.676591 262.225232 
L 108.123438 260.989186 
L 108.570284 261.196618 
L 109.017131 262.827549 
L 109.463978 265.833689 
L 109.910825 270.139712 
L 110.804519 282.226318 
L 111.698212 298.024929 
L 113.4856 335.270757 
L 114.82614 362.226742 
L 115.719834 377.073803 
L 116.613528 388.103242 
L 117.060374 391.932558 
L 117.507221 394.549774 
L 117.954068 395.919826 
L 118.400915 396.033245 
L 118.847762 394.906005 
L 119.294609 392.578837 
L 119.741456 389.116065 
L 120.635149 379.148641 
L 121.528843 365.917338 
L 123.31623 334.380217 
L 124.656771 311.362209 
L 125.550465 298.587115 
L 126.444158 288.986606 
L 126.891005 285.590631 
L 127.337852 283.204784 
L 127.784699 281.857904 
L 128.231546 281.557188 
L 128.678392 282.288425 
L 129.125239 284.016685 
L 129.572086 286.68741 
L 130.46578 294.549185 
L 131.359474 305.109801 
L 133.146861 330.425036 
L 134.487401 348.932884 
L 135.381095 359.216169 
L 136.274789 366.972307 
L 136.721636 369.738149 
L 137.168483 371.707774 
L 137.615329 372.861771 
L 138.062176 373.19812 
L 138.509023 372.731818 
L 138.95587 371.494162 
L 139.402717 369.531685 
L 140.29641 363.686143 
L 141.190104 355.814097 
L 142.977492 337.059062 
L 144.318032 323.523917 
L 145.211726 316.099893 
L 146.105419 310.572507 
L 146.552266 308.626875 
L 146.999113 307.257706 
L 147.44596 306.47181 
L 147.892807 306.263048 
L 148.339654 306.612879 
L 148.786501 307.491177 
L 149.233347 308.857291 
L 150.127041 312.845499 
L 151.020735 318.094053 
L 154.148663 338.356348 
L 155.042356 342.618945 
L 155.93605 345.578688 
L 156.382897 346.528224 
L 156.829744 347.120789 
L 157.276591 347.365184 
L 157.723438 347.278651 
L 158.170284 346.88609 
L 158.617131 346.219108 
L 159.510825 344.215139 
L 160.851365 340.196696 
L 162.638753 334.849 
L 163.532447 332.86753 
L 164.42614 331.604258 
L 164.872987 331.264599 
L 165.319834 331.117486 
L 165.766681 331.152762 
L 166.213528 331.353914 
L 167.107221 332.16004 
L 170.235149 335.817692 
L 170.681996 335.993033 
L 171.128843 335.997499 
L 171.57569 335.814695 
L 172.022537 335.434616 
L 172.469383 334.854118 
L 173.363077 333.115016 
L 174.256771 330.714639 
L 177.384699 321.010126 
L 178.278392 319.325811 
L 178.725239 318.884165 
L 179.172086 318.754904 
L 179.618933 318.963915 
L 180.06578 319.529365 
L 180.512627 320.460903 
L 180.959474 321.759059 
L 181.853167 325.409664 
L 182.746861 330.294338 
L 184.087401 339.173487 
L 185.874789 351.298131 
L 186.768483 356.198267 
L 187.662176 359.588992 
L 188.109023 360.574624 
L 188.55587 361.027103 
L 189.002717 360.914268 
L 189.449564 360.215585 
L 189.89641 358.92301 
L 190.343257 357.041574 
L 191.236951 351.599151 
L 192.130645 344.194078 
L 193.471185 330.552273 
L 195.705419 307.138369 
L 196.599113 299.901271 
L 197.492807 294.999381 
L 197.939654 293.604451 
L 198.386501 292.984164 
L 198.833347 293.172826 
L 199.280194 294.188408 
L 199.727041 296.031758 
L 200.173888 298.686176 
L 201.067582 306.273707 
L 201.961275 316.473821 
L 203.301816 335.038065 
L 205.53605 366.480832 
L 206.429744 376.155664 
L 207.323437 382.760956 
L 207.770284 384.692094 
L 208.217131 385.624996 
L 208.663978 385.520812 
L 209.110825 384.361438 
L 209.557672 382.150278 
L 210.004519 378.912555 
L 210.898212 369.566133 
L 211.791906 356.943684 
L 213.132447 333.933026 
L 215.366681 294.853894 
L 216.260374 282.718933 
L 217.154068 274.280877 
L 217.600915 271.710785 
L 218.047762 270.339178 
L 218.494609 270.211521 
L 218.941456 271.348522 
L 219.388302 273.745363 
L 219.835149 277.371445 
L 220.728843 288.062245 
L 221.622537 302.684369 
L 222.963077 329.558429 
L 225.197311 375.663861 
L 226.091005 390.198949 
L 226.984699 400.528499 
L 227.431546 403.811005 
L 227.878392 405.722864 
L 228.325239 406.210352 
L 228.772086 405.248017 
L 229.218933 402.839492 
L 229.66578 399.017731 
L 230.559474 387.410102 
L 231.453167 371.246338 
L 232.793708 341.180517 
L 235.027942 288.861926 
L 235.921636 272.070295 
L 236.815329 259.866375 
L 237.262176 255.831308 
L 237.709023 253.307084 
L 238.15587 252.356807 
L 238.602717 253.012381 
L 239.049564 255.273611 
L 239.49641 259.107958 
L 239.943257 264.450948 
L 240.836951 279.252296 
L 241.730645 298.579171 
L 243.518032 344.629521 
L 244.858573 378.489817 
L 245.752266 397.31256 
L 246.64596 411.295364 
L 247.092807 416.087028 
L 247.539654 419.262532 
L 247.986501 420.748848 
L 248.433347 420.506438 
L 248.880194 418.530244 
L 249.327041 414.849984 
L 249.773888 409.529742 
L 250.667582 394.390158 
L 251.561275 374.252722 
L 252.901816 338.156307 
L 254.689203 289.065264 
L 255.582897 268.51407 
L 256.476591 252.925861 
L 256.923438 247.411118 
L 257.370284 243.581118 
L 257.817131 241.51873 
L 258.263978 241.271732 
L 258.710825 242.851721 
L 259.157672 246.23375 
L 259.604519 251.356703 
L 260.498212 266.407399 
L 261.391906 286.85096 
L 262.732447 324.05933 
L 264.966681 386.97042 
L 265.860374 406.594631 
L 266.754068 420.517867 
L 267.200915 424.968737 
L 267.647762 427.611787 
L 268.094609 428.39101 
L 268.541456 427.287562 
L 268.988302 424.320206 
L 269.435149 419.544993 
L 270.328843 404.974531 
L 271.222537 384.711916 
L 272.563077 347.221473 
L 274.797311 282.593297 
L 275.691005 261.979813 
L 276.584699 246.981078 
L 277.031546 241.97953 
L 277.478392 238.787523 
L 277.925239 237.468642 
L 278.372086 238.049069 
L 278.818933 240.517056 
L 279.26578 244.823164 
L 279.712627 250.881265 
L 280.60632 267.73659 
L 281.500014 289.743318 
L 283.287401 341.953487 
L 284.627942 380.127229 
L 285.521636 401.297097 
L 286.415329 417.056837 
L 286.862176 422.503985 
L 287.309023 426.177516 
L 287.75587 428.007531 
L 288.202717 427.96105 
L 288.649564 426.042598 
L 289.09641 422.294051 
L 289.543257 416.79372 
L 290.436951 401.022572 
L 291.330645 380.004888 
L 293.118032 329.247254 
L 294.458573 291.509098 
L 295.352266 270.257728 
L 296.24596 254.107209 
L 296.692807 248.351384 
L 297.139654 244.297541 
L 297.586501 242.020031 
L 298.033347 241.557493 
L 298.480194 242.912205 
L 298.927041 246.050176 
L 299.373888 250.901965 
L 300.267582 265.301839 
L 301.161275 284.921964 
L 302.501816 320.575772 
L 304.73605 380.552361 
L 305.629744 399.210287 
L 306.523438 412.498998 
L 306.970284 416.801455 
L 307.417131 419.429918 
L 307.863978 420.34181 
L 308.310825 419.529067 
L 308.757672 417.018102 
L 309.204519 412.869072 
L 309.651365 407.174477 
L 310.545059 391.667386 
L 311.438753 371.791229 
L 315.460374 274.684536 
L 316.354068 261.610814 
L 316.800915 257.217424 
L 317.247762 254.363929 
L 317.694609 253.09462 
L 318.141456 253.421764 
L 318.588302 255.325619 
L 319.035149 258.755087 
L 319.481996 263.628993 
L 320.37569 277.246903 
L 321.269383 295.013409 
L 323.056771 336.910289 
L 324.397311 367.278919 
L 325.291005 384.021832 
L 326.184699 396.455059 
L 326.631546 400.761286 
L 327.078392 403.689213 
L 327.525239 405.195486 
L 327.972086 405.265705 
L 328.418933 403.914406 
L 328.86578 401.18446 
L 329.312627 397.145903 
L 330.20632 385.548122 
L 331.100014 370.147448 
L 332.887401 333.321759 
L 334.227942 306.306864 
L 335.121636 291.249619 
L 336.015329 279.894555 
L 336.462176 275.867565 
L 336.909023 273.03477 
L 337.35587 271.43562 
L 337.802717 271.084167 
L 338.249564 271.969131 
L 338.69641 274.054482 
L 339.143257 277.280525 
L 340.036951 286.807332 
L 340.930645 299.668123 
L 342.718032 330.769739 
L 344.058573 353.775323 
L 344.952266 366.689783 
L 345.84596 376.532146 
L 346.292807 380.080925 
L 346.739654 382.63658 
L 347.186501 384.166739 
L 347.633347 384.660481 
L 348.080194 384.128174 
L 348.527041 382.60087 
L 348.973888 380.129286 
L 349.867582 372.645606 
L 350.761275 362.413816 
L 352.548663 337.525066 
L 353.889203 319.089571 
L 354.782897 308.734468 
L 355.676591 300.820704 
L 356.123437 297.948546 
L 356.570284 295.857385 
L 357.017131 294.569265 
L 357.463978 294.089008 
L 357.910825 294.404528 
L 358.357672 295.487495 
L 358.804519 297.294335 
L 359.698212 302.837209 
L 360.591906 310.435678 
L 362.379293 328.798535 
L 363.719834 342.215343 
L 364.613528 349.649291 
L 365.507221 355.252353 
L 365.954068 357.257638 
L 366.400915 358.699025 
L 366.847762 359.567995 
L 367.294609 359.868846 
L 367.741456 359.618184 
L 368.188302 358.844148 
L 368.635149 357.585395 
L 369.528843 353.813376 
L 370.422537 348.770773 
L 373.997311 326.736068 
L 374.891005 323.123578 
L 375.337852 321.812827 
L 375.784699 320.84906 
L 376.231546 320.23318 
L 376.678392 319.957171 
L 377.125239 320.004664 
L 377.572086 320.35169 
L 378.018933 320.96761 
L 378.912627 322.856816 
L 380.253167 326.685911 
L 382.040555 331.784622 
L 382.934248 333.65515 
L 383.827942 334.821574 
L 384.274789 335.118912 
L 384.721636 335.228097 
L 385.168483 335.159479 
L 385.615329 334.929722 
L 386.509023 334.081071 
L 389.190104 330.74288 
L 389.636951 330.436444 
L 390.083798 330.284029 
L 390.530645 330.307734 
L 390.977492 330.523879 
L 391.424338 330.942348 
L 391.871185 331.566113 
L 392.764879 333.405392 
L 393.658573 335.921767 
L 397.233347 347.112305 
L 397.680194 347.89144 
L 398.127041 348.385688 
L 398.573888 348.561352 
L 399.020735 348.391506 
L 399.467582 347.856996 
L 399.914428 346.947268 
L 400.361275 345.660989 
L 401.254969 342.001771 
L 402.148663 337.062656 
L 403.489203 328.015605 
L 405.276591 315.530266 
L 406.170284 310.412188 
L 407.063978 306.796365 
L 407.510825 305.700428 
L 407.957672 305.141901 
L 408.404519 305.155031 
L 408.851365 305.7624 
L 409.298212 306.974023 
L 409.745059 308.786717 
L 410.638753 314.134815 
L 411.532447 321.51175 
L 412.872987 335.248161 
L 415.107221 359.165463 
L 416.000915 366.693743 
L 416.894609 371.911013 
L 417.341456 373.465656 
L 417.788302 374.243002 
L 418.235149 374.205691 
L 418.681996 373.332726 
L 419.128843 371.620322 
L 419.57569 369.082394 
L 420.469383 361.674435 
L 421.363077 351.568941 
L 422.703618 332.964579 
L 424.937852 300.974232 
L 425.831546 290.947169 
L 426.725239 283.946874 
L 427.172086 281.811123 
L 427.618933 280.673998 
L 428.06578 280.578303 
L 428.512627 281.546084 
L 428.959474 283.577796 
L 429.40632 286.651909 
L 430.300014 295.732112 
L 431.193708 308.188619 
L 432.534248 331.171904 
L 434.768483 370.811239 
L 435.662176 383.345915 
L 436.55587 392.245931 
L 437.002717 395.05983 
L 437.449564 396.677677 
L 437.89641 397.049253 
L 438.343257 396.14907 
L 438.790104 393.977239 
L 439.236951 390.559815 
L 440.130645 380.220483 
L 441.024338 365.837989 
L 442.364879 339.069032 
L 444.599113 292.421238 
L 445.492807 277.453402 
L 446.386501 266.609171 
L 446.833347 263.050378 
L 447.280194 260.856541 
L 447.727041 260.086825 
L 448.173888 260.772189 
L 448.620735 262.914462 
L 449.067582 266.486002 
L 449.514428 271.429955 
L 450.408122 285.067408 
L 451.301816 302.835104 
L 453.089203 345.129312 
L 454.429744 376.202716 
L 455.323438 393.445301 
L 456.217131 406.201289 
L 456.663978 410.537612 
L 457.110825 413.372335 
L 457.557672 414.636354 
L 458.004519 414.291661 
L 458.451365 412.332348 
L 458.898212 408.78498 
L 459.345059 403.708306 
L 460.238753 389.356616 
L 461.132447 370.339093 
L 462.919834 324.394472 
L 464.707221 280.008807 
L 465.600915 262.91443 
L 466.494609 251.202497 
L 466.941456 247.6959 
L 467.388302 245.871973 
L 467.835149 245.776822 
L 468.281996 247.422109 
L 468.728843 250.784626 
L 469.17569 255.806579 
L 470.069383 270.431235 
L 470.963077 290.1961 
L 472.303618 326.063748 
L 474.537852 386.519986 
L 475.431546 405.292937 
L 476.325239 418.521608 
L 476.772086 422.69491 
L 477.218933 425.110511 
L 477.66578 425.713758 
L 478.112627 424.486093 
L 478.559474 421.445557 
L 479.00632 416.646549 
L 479.900014 402.165957 
L 480.793708 382.152089 
L 482.134248 345.253444 
L 484.368483 281.871382 
L 485.262176 261.747633 
L 486.15587 247.196872 
L 486.602717 242.399067 
L 487.049564 239.395828 
L 487.49641 238.250183 
L 487.943257 238.988131 
L 488.390104 241.598062 
L 488.836951 246.030925 
L 489.283798 252.201162 
L 490.177492 269.239659 
L 491.071185 291.379345 
L 492.858573 343.718587 
L 494.199113 381.865873 
L 495.092807 402.948956 
L 495.986501 418.556399 
L 496.433347 423.900012 
L 496.880194 427.450467 
L 497.327041 429.13717 
L 497.773888 428.926752 
L 498.220735 426.82373 
L 498.667582 422.870409 
L 499.114428 417.146029 
L 500.008122 400.875394 
L 500.901816 379.30618 
L 502.689203 327.408424 
L 504.029744 288.93809 
L 504.476591 277.578725 
L 504.476591 277.578725 
" style="fill:none;stroke:#ff0000;stroke-linecap:square;"/>
   </g>
   <g id="patch_8">
    <path d="M 58.523438 429.289412 
L 58.523438 237.430588 
" style="fill:none;stroke:#000000;stroke-linecap:square;stroke-linejoin:miter;stroke-width:0.8;"/>
   </g>
   <g id="patch_9">
    <path d="M 504.923437 429.289412 
L 504.923437 237.430588 
" style="fill:none;stroke:#000000;stroke-linecap:square;stroke-linejoin:miter;stroke-width:0.8;"/>
   </g>
   <g id="patch_10">
    <path d="M 58.523438 429.289412 
L 504.923437 429.289412 
" style="fill:none;stroke:#000000;stroke-linecap:square;stroke-linejoin:miter;stroke-width:0.8;"/>
   </g>
   <g id="patch_11">
    <path d="M 58.523438 237.430588 
L 504.923437 237.430588 
" style="fill:none;stroke:#000000;stroke-linecap:square;stroke-linejoin:miter;stroke-width:0.8;"/>
   </g>
  </g>
  <g id="axes_3">
   <g id="patch_12">
    <path d="M 58.523438 659.52 
L 504.923437 659.52 
L 504.923437 467.661176 
L 58.523438 467.661176 
z
" style="fill:#ffffff;"/>
   </g>
   <g id="matplotlib.axis_5">
    <g id="xtick_17">
     <g id="line2d_34">
      <g>
       <use style="stroke:#000000;stroke-width:0.8;" x="58.523438" xlink:href="#ma319cfb0a1" y="659.52"/>
      </g>
     </g>
     <g id="text_36">
      <!-- 0 -->
      <g transform="translate(55.342188 674.118438)scale(0.1 -0.1)">
       <use xlink:href="#DejaVuSans-48"/>
      </g>
     </g>
    </g>
    <g id="xtick_18">
     <g id="line2d_35">
      <g>
       <use style="stroke:#000000;stroke-width:0.8;" x="132.923438" xlink:href="#ma319cfb0a1" y="659.52"/>
      </g>
     </g>
     <g id="text_37">
      <!-- 10 -->
      <g transform="translate(126.560938 674.118438)scale(0.1 -0.1)">
       <use xlink:href="#DejaVuSans-49"/>
       <use x="63.623047" xlink:href="#DejaVuSans-48"/>
      </g>
     </g>
    </g>
    <g id="xtick_19">
     <g id="line2d_36">
      <g>
       <use style="stroke:#000000;stroke-width:0.8;" x="207.323437" xlink:href="#ma319cfb0a1" y="659.52"/>
      </g>
     </g>
     <g id="text_38">
      <!-- 20 -->
      <g transform="translate(200.960937 674.118438)scale(0.1 -0.1)">
       <use xlink:href="#DejaVuSans-50"/>
       <use x="63.623047" xlink:href="#DejaVuSans-48"/>
      </g>
     </g>
    </g>
    <g id="xtick_20">
     <g id="line2d_37">
      <g>
       <use style="stroke:#000000;stroke-width:0.8;" x="281.723437" xlink:href="#ma319cfb0a1" y="659.52"/>
      </g>
     </g>
     <g id="text_39">
      <!-- 30 -->
      <g transform="translate(275.360937 674.118438)scale(0.1 -0.1)">
       <use xlink:href="#DejaVuSans-51"/>
       <use x="63.623047" xlink:href="#DejaVuSans-48"/>
      </g>
     </g>
    </g>
    <g id="xtick_21">
     <g id="line2d_38">
      <g>
       <use style="stroke:#000000;stroke-width:0.8;" x="356.123437" xlink:href="#ma319cfb0a1" y="659.52"/>
      </g>
     </g>
     <g id="text_40">
      <!-- 40 -->
      <g transform="translate(349.760937 674.118438)scale(0.1 -0.1)">
       <use xlink:href="#DejaVuSans-52"/>
       <use x="63.623047" xlink:href="#DejaVuSans-48"/>
      </g>
     </g>
    </g>
    <g id="xtick_22">
     <g id="line2d_39">
      <g>
       <use style="stroke:#000000;stroke-width:0.8;" x="430.523438" xlink:href="#ma319cfb0a1" y="659.52"/>
      </g>
     </g>
     <g id="text_41">
      <!-- 50 -->
      <g transform="translate(424.160937 674.118438)scale(0.1 -0.1)">
       <use xlink:href="#DejaVuSans-53"/>
       <use x="63.623047" xlink:href="#DejaVuSans-48"/>
      </g>
     </g>
    </g>
    <g id="xtick_23">
     <g id="line2d_40">
      <g>
       <use style="stroke:#000000;stroke-width:0.8;" x="504.923437" xlink:href="#ma319cfb0a1" y="659.52"/>
      </g>
     </g>
     <g id="text_42">
      <!-- 60 -->
      <g transform="translate(498.560937 674.118438)scale(0.1 -0.1)">
       <use xlink:href="#DejaVuSans-54"/>
       <use x="63.623047" xlink:href="#DejaVuSans-48"/>
      </g>
     </g>
    </g>
    <g id="text_43">
     <!-- 1 -->
     <g transform="translate(278.542188 687.796563)scale(0.1 -0.1)">
      <use xlink:href="#DejaVuSans-49"/>
     </g>
    </g>
   </g>
   <g id="matplotlib.axis_6">
    <g id="ytick_15">
     <g id="line2d_41">
      <g>
       <use style="stroke:#000000;stroke-width:0.8;" x="58.523438" xlink:href="#mfc3d319cf0" y="659.52"/>
      </g>
     </g>
     <g id="text_44">
      <!-- −1.00 -->
      <g transform="translate(20.878125 663.319219)scale(0.1 -0.1)">
       <use xlink:href="#DejaVuSans-8722"/>
       <use x="83.789062" xlink:href="#DejaVuSans-49"/>
       <use x="147.412109" xlink:href="#DejaVuSans-46"/>
       <use x="179.199219" xlink:href="#DejaVuSans-48"/>
       <use x="242.822266" xlink:href="#DejaVuSans-48"/>
      </g>
     </g>
    </g>
    <g id="ytick_16">
     <g id="line2d_42">
      <g>
       <use style="stroke:#000000;stroke-width:0.8;" x="58.523438" xlink:href="#mfc3d319cf0" y="635.537647"/>
      </g>
     </g>
     <g id="text_45">
      <!-- −0.75 -->
      <g transform="translate(20.878125 639.336866)scale(0.1 -0.1)">
       <use xlink:href="#DejaVuSans-8722"/>
       <use x="83.789062" xlink:href="#DejaVuSans-48"/>
       <use x="147.412109" xlink:href="#DejaVuSans-46"/>
       <use x="179.199219" xlink:href="#DejaVuSans-55"/>
       <use x="242.822266" xlink:href="#DejaVuSans-53"/>
      </g>
     </g>
    </g>
    <g id="ytick_17">
     <g id="line2d_43">
      <g>
       <use style="stroke:#000000;stroke-width:0.8;" x="58.523438" xlink:href="#mfc3d319cf0" y="611.555294"/>
      </g>
     </g>
     <g id="text_46">
      <!-- −0.50 -->
      <g transform="translate(20.878125 615.354513)scale(0.1 -0.1)">
       <use xlink:href="#DejaVuSans-8722"/>
       <use x="83.789062" xlink:href="#DejaVuSans-48"/>
       <use x="147.412109" xlink:href="#DejaVuSans-46"/>
       <use x="179.199219" xlink:href="#DejaVuSans-53"/>
       <use x="242.822266" xlink:href="#DejaVuSans-48"/>
      </g>
     </g>
    </g>
    <g id="ytick_18">
     <g id="line2d_44">
      <g>
       <use style="stroke:#000000;stroke-width:0.8;" x="58.523438" xlink:href="#mfc3d319cf0" y="587.572941"/>
      </g>
     </g>
     <g id="text_47">
      <!-- −0.25 -->
      <g transform="translate(20.878125 591.37216)scale(0.1 -0.1)">
       <use xlink:href="#DejaVuSans-8722"/>
       <use x="83.789062" xlink:href="#DejaVuSans-48"/>
       <use x="147.412109" xlink:href="#DejaVuSans-46"/>
       <use x="179.199219" xlink:href="#DejaVuSans-50"/>
       <use x="242.822266" xlink:href="#DejaVuSans-53"/>
      </g>
     </g>
    </g>
    <g id="ytick_19">
     <g id="line2d_45">
      <g>
       <use style="stroke:#000000;stroke-width:0.8;" x="58.523438" xlink:href="#mfc3d319cf0" y="563.590588"/>
      </g>
     </g>
     <g id="text_48">
      <!-- 0.00 -->
      <g transform="translate(29.257813 567.389807)scale(0.1 -0.1)">
       <use xlink:href="#DejaVuSans-48"/>
       <use x="63.623047" xlink:href="#DejaVuSans-46"/>
       <use x="95.410156" xlink:href="#DejaVuSans-48"/>
       <use x="159.033203" xlink:href="#DejaVuSans-48"/>
      </g>
     </g>
    </g>
    <g id="ytick_20">
     <g id="line2d_46">
      <g>
       <use style="stroke:#000000;stroke-width:0.8;" x="58.523438" xlink:href="#mfc3d319cf0" y="539.608235"/>
      </g>
     </g>
     <g id="text_49">
      <!-- 0.25 -->
      <g transform="translate(29.257813 543.407454)scale(0.1 -0.1)">
       <use xlink:href="#DejaVuSans-48"/>
       <use x="63.623047" xlink:href="#DejaVuSans-46"/>
       <use x="95.410156" xlink:href="#DejaVuSans-50"/>
       <use x="159.033203" xlink:href="#DejaVuSans-53"/>
      </g>
     </g>
    </g>
    <g id="ytick_21">
     <g id="line2d_47">
      <g>
       <use style="stroke:#000000;stroke-width:0.8;" x="58.523438" xlink:href="#mfc3d319cf0" y="515.625882"/>
      </g>
     </g>
     <g id="text_50">
      <!-- 0.50 -->
      <g transform="translate(29.257813 519.425101)scale(0.1 -0.1)">
       <use xlink:href="#DejaVuSans-48"/>
       <use x="63.623047" xlink:href="#DejaVuSans-46"/>
       <use x="95.410156" xlink:href="#DejaVuSans-53"/>
       <use x="159.033203" xlink:href="#DejaVuSans-48"/>
      </g>
     </g>
    </g>
    <g id="ytick_22">
     <g id="line2d_48">
      <g>
       <use style="stroke:#000000;stroke-width:0.8;" x="58.523438" xlink:href="#mfc3d319cf0" y="491.643529"/>
      </g>
     </g>
     <g id="text_51">
      <!-- 0.75 -->
      <g transform="translate(29.257813 495.442748)scale(0.1 -0.1)">
       <use xlink:href="#DejaVuSans-48"/>
       <use x="63.623047" xlink:href="#DejaVuSans-46"/>
       <use x="95.410156" xlink:href="#DejaVuSans-55"/>
       <use x="159.033203" xlink:href="#DejaVuSans-53"/>
      </g>
     </g>
    </g>
    <g id="ytick_23">
     <g id="line2d_49">
      <g>
       <use style="stroke:#000000;stroke-width:0.8;" x="58.523438" xlink:href="#mfc3d319cf0" y="467.661176"/>
      </g>
     </g>
     <g id="text_52">
      <!-- 1.00 -->
      <g transform="translate(29.257813 471.460395)scale(0.1 -0.1)">
       <use xlink:href="#DejaVuSans-49"/>
       <use x="63.623047" xlink:href="#DejaVuSans-46"/>
       <use x="95.410156" xlink:href="#DejaVuSans-48"/>
       <use x="159.033203" xlink:href="#DejaVuSans-48"/>
      </g>
     </g>
    </g>
    <g id="text_53">
     <!-- x2 -->
     <g transform="translate(14.798438 569.731213)rotate(-90)scale(0.1 -0.1)">
      <use xlink:href="#DejaVuSans-120"/>
      <use x="59.179688" xlink:href="#DejaVuSans-50"/>
     </g>
    </g>
   </g>
   <g id="line2d_50">
    <path clip-path="url(#p160b56cae7)" d="M 58.523438 563.590588 
L 58.970284 563.504365 
L 59.417131 563.249109 
L 60.310825 562.27851 
L 61.204519 560.833923 
L 63.438753 556.834986 
L 64.332447 555.872254 
L 64.779293 555.670258 
L 65.22614 555.691879 
L 65.672987 555.958172 
L 66.119834 556.48357 
L 66.566681 557.275215 
L 67.460374 559.646613 
L 68.354068 562.970282 
L 69.694609 569.211868 
L 71.481996 577.895089 
L 72.37569 581.373879 
L 73.269383 583.680662 
L 73.71623 584.27611 
L 74.163077 584.449793 
L 74.609924 584.174888 
L 75.056771 583.434227 
L 75.503618 582.221086 
L 75.950465 580.539732 
L 76.844158 575.845999 
L 77.737852 569.611925 
L 79.078392 558.344 
L 80.86578 542.944918 
L 81.759474 536.628856 
L 82.653167 532.107954 
L 83.100014 530.690606 
L 83.546861 529.906312 
L 83.993708 529.793329 
L 84.440555 530.376423 
L 84.887401 531.665939 
L 85.334248 533.65716 
L 86.227942 539.648991 
L 87.121636 548.009442 
L 88.462176 563.69524 
L 90.69641 591.307357 
L 91.590104 600.158394 
L 92.483798 606.461362 
L 92.930645 608.444798 
L 93.377492 609.564186 
L 93.824338 609.776079 
L 94.271185 609.055093 
L 94.718032 607.394829 
L 95.164879 604.808407 
L 96.058573 597.007502 
L 96.952266 586.142065 
L 98.292807 565.83843 
L 100.527041 530.256182 
L 101.420735 518.827017 
L 102.314428 510.598367 
L 102.761275 507.941743 
L 103.208122 506.358772 
L 103.654969 505.900195 
L 104.101816 506.594478 
L 104.548663 508.446865 
L 104.99551 511.4389 
L 105.442356 515.528435 
L 106.33605 526.716491 
L 107.229744 541.231418 
L 109.017131 575.717542 
L 110.357672 601.003654 
L 111.251365 614.971327 
L 112.145059 625.199159 
L 112.591906 628.607368 
L 113.038753 630.758657 
L 113.4856 631.593306 
L 113.932447 631.077617 
L 114.379293 629.204926 
L 114.82614 625.996067 
L 115.272987 621.499275 
L 116.166681 608.967307 
L 117.060374 592.503976 
L 118.847762 552.970489 
L 120.188302 523.666309 
L 121.081996 507.284367 
L 121.97569 495.059783 
L 122.422537 490.854565 
L 122.869383 488.059066 
L 123.31623 486.743166 
L 123.763077 486.947518 
L 124.209924 488.682455 
L 124.656771 491.927495 
L 125.103618 496.631482 
L 125.997311 510.063496 
L 126.891005 527.999999 
L 128.231546 560.299375 
L 130.018933 604.487225 
L 130.912627 623.075631 
L 131.80632 637.215499 
L 132.253167 642.227109 
L 132.700014 645.709852 
L 133.146861 647.583093 
L 133.593708 647.798004 
L 134.040555 646.338768 
L 134.487401 643.223126 
L 134.934248 638.502239 
L 135.827942 624.610923 
L 136.721636 605.695118 
L 138.062176 571.151326 
L 140.29641 512.443883 
L 141.190104 494.053756 
L 142.083798 480.985421 
L 142.530645 476.808018 
L 142.977492 474.334188 
L 143.424338 473.621574 
L 143.871185 474.692782 
L 144.318032 477.534758 
L 144.764879 482.098891 
L 145.658573 496.027009 
L 146.552266 515.425645 
L 147.892807 551.411037 
L 150.127041 613.711743 
L 151.020735 633.652824 
L 151.914428 648.179519 
L 152.361275 653.021954 
L 152.808122 656.104295 
L 153.254969 657.360055 
L 153.701816 656.759111 
L 154.148663 654.308404 
L 154.59551 650.051903 
L 155.042356 644.069815 
L 155.93605 627.421058 
L 156.829744 605.653498 
L 158.617131 553.860847 
L 159.957672 515.860211 
L 160.851365 494.737907 
L 161.745059 478.994649 
L 162.191906 473.553863 
L 162.638753 469.891544 
L 163.0856 468.082409 
L 163.532447 468.164218 
L 163.979293 470.136986 
L 164.42614 473.962946 
L 164.872987 479.567282 
L 165.766681 495.636129 
L 166.660374 517.077603 
L 168.000915 555.523141 
L 169.788302 607.758529 
L 170.681996 629.634317 
L 171.57569 646.285072 
L 172.022537 652.221879 
L 172.469383 656.399471 
L 172.91623 658.736147 
L 173.363077 659.187023 
L 173.809924 657.744899 
L 174.256771 654.440367 
L 174.703618 649.341164 
L 175.597311 634.206307 
L 176.491005 613.554398 
L 177.831546 575.925215 
L 180.06578 512.328838 
L 180.959474 492.460983 
L 181.853167 478.282931 
L 182.300014 473.689252 
L 182.746861 470.88636 
L 183.193708 469.925136 
L 183.640555 470.819573 
L 184.087401 473.546598 
L 184.534248 478.046639 
L 184.981095 484.224921 
L 185.874789 501.073788 
L 186.768483 522.723203 
L 190.790104 629.323505 
L 191.683798 643.805334 
L 192.130645 648.684475 
L 192.577492 651.858718 
L 193.024338 653.272902 
L 193.471185 652.907244 
L 193.918032 650.777574 
L 194.364879 646.934848 
L 194.811726 641.463961 
L 195.705419 626.135132 
L 196.599113 606.062541 
L 198.386501 558.450062 
L 199.727041 523.693104 
L 200.620735 504.422322 
L 201.514428 490.038257 
L 201.961275 485.031434 
L 202.408122 481.610957 
L 202.854969 479.834035 
L 203.301816 479.724668 
L 203.748663 481.273384 
L 204.19551 484.437659 
L 204.642356 489.143 
L 205.53605 502.72997 
L 206.429744 520.878836 
L 208.217131 564.644429 
L 209.557672 597.074592 
L 210.451365 615.299793 
L 211.345059 629.154431 
L 211.791906 634.109395 
L 212.238753 637.625225 
L 212.6856 639.645343 
L 213.132447 640.143614 
L 213.579293 639.124599 
L 214.02614 636.623179 
L 214.472987 632.703569 
L 215.366681 621.003346 
L 216.260374 605.051362 
L 217.600915 576.150047 
L 219.388302 536.623892 
L 220.281996 519.94064 
L 221.17569 507.062789 
L 221.622537 502.354678 
L 222.069383 498.914587 
L 222.51623 496.795444 
L 222.963077 496.023014 
L 223.409924 496.595703 
L 223.856771 498.48492 
L 224.303618 501.635988 
L 225.197311 511.383609 
L 226.091005 524.945575 
L 227.431546 549.823588 
L 229.66578 591.891556 
L 230.559474 605.071405 
L 231.453167 614.59648 
L 231.900014 617.77593 
L 232.346861 619.83099 
L 232.793708 620.73909 
L 233.240555 620.501214 
L 233.687401 619.141505 
L 234.134248 616.706404 
L 234.581095 613.26334 
L 235.474789 603.717251 
L 236.368483 591.388019 
L 239.943257 536.643275 
L 240.836951 527.047127 
L 241.730645 520.716946 
L 242.177492 518.901524 
L 242.624338 518.014151 
L 243.071185 518.051797 
L 243.518032 518.992518 
L 243.964879 520.796317 
L 244.411726 523.406359 
L 245.305419 530.743229 
L 246.199113 540.277514 
L 249.773888 582.490227 
L 250.667582 589.827222 
L 251.561275 594.661464 
L 252.008122 596.05631 
L 252.454969 596.755229 
L 252.901816 596.766151 
L 253.348663 596.111356 
L 253.79551 594.826586 
L 254.242356 592.959888 
L 255.13605 587.725776 
L 256.476591 577.247663 
L 258.710825 558.373581 
L 259.604519 552.168303 
L 260.498212 547.447267 
L 260.945059 545.733011 
L 261.391906 544.475484 
L 261.838753 543.68017 
L 262.2856 543.341678 
L 262.732447 543.44427 
L 263.179293 543.962611 
L 263.62614 544.862737 
L 264.519834 547.636342 
L 265.413528 551.367633 
L 268.541456 565.550134 
L 269.435149 568.345369 
L 270.328843 570.152197 
L 270.77569 570.667968 
L 271.222537 570.931917 
L 271.669383 570.958147 
L 272.11623 570.767319 
L 272.563077 570.385828 
L 273.456771 569.17915 
L 276.137852 564.67904 
L 277.031546 563.811239 
L 277.478392 563.609107 
L 277.925239 563.576616 
L 278.372086 563.71678 
L 278.818933 564.025781 
L 279.712627 565.101623 
L 280.60632 566.645547 
L 282.840555 570.841551 
L 283.734248 571.85152 
L 284.181095 572.068224 
L 284.627942 572.05471 
L 285.074789 571.78948 
L 285.521636 571.257713 
L 285.968483 570.45196 
L 286.862176 568.02834 
L 287.75587 564.620238 
L 289.09641 558.195679 
L 290.883798 549.190012 
L 291.777492 545.534915 
L 292.671185 543.056242 
L 293.118032 542.380319 
L 293.564879 542.131893 
L 294.011726 542.339328 
L 294.458573 543.021278 
L 294.905419 544.18587 
L 295.352266 545.830114 
L 296.24596 550.488272 
L 297.139654 556.743528 
L 298.480194 568.154909 
L 300.267582 583.934424 
L 301.161275 590.499534 
L 302.054969 595.288236 
L 302.501816 596.840677 
L 302.948663 597.757528 
L 303.39551 597.997979 
L 303.842356 597.534719 
L 304.289203 596.35493 
L 304.73605 594.460967 
L 305.182897 591.870732 
L 306.076591 584.750581 
L 306.970284 575.440953 
L 308.757672 553.066171 
L 310.098212 536.501112 
L 310.991906 527.337752 
L 311.8856 520.684666 
L 312.332447 518.519772 
L 312.779293 517.219158 
L 313.22614 516.829751 
L 313.672987 517.380426 
L 314.119834 518.881011 
L 314.566681 521.321683 
L 315.013528 524.672776 
L 315.907221 533.890108 
L 316.800915 545.917863 
L 318.588302 574.707743 
L 319.928843 595.96866 
L 320.822537 607.760373 
L 321.71623 616.409467 
L 322.163077 619.288586 
L 322.609924 621.096704 
L 323.056771 621.778759 
L 323.503618 621.301922 
L 323.950465 619.65663 
L 324.397311 616.857156 
L 324.844158 612.941678 
L 325.737852 602.031922 
L 326.631546 587.682564 
L 328.418933 553.13385 
L 329.759474 527.455967 
L 330.653167 513.089562 
L 331.546861 502.384632 
L 331.993708 498.719276 
L 332.440555 496.304848 
L 332.887401 495.206119 
L 333.334248 495.461923 
L 333.781095 497.084042 
L 334.227942 500.056642 
L 334.674789 504.336266 
L 335.568483 516.508608 
L 336.462176 532.736392 
L 337.802717 561.953177 
L 339.590104 601.931779 
L 340.483798 618.734096 
L 341.377492 631.477547 
L 341.824338 635.967327 
L 342.271185 639.057037 
L 342.718032 640.671142 
L 343.164879 640.763198 
L 343.611726 639.317067 
L 344.058573 636.347516 
L 344.505419 631.900198 
L 345.399113 618.904749 
L 346.292807 601.27343 
L 347.633347 569.131643 
L 349.867582 514.59622 
L 350.761275 497.567976 
L 351.654969 485.53751 
L 352.101816 481.737174 
L 352.548663 479.538996 
L 352.99551 478.998107 
L 353.442356 480.136692 
L 353.889203 482.943319 
L 354.33605 487.372948 
L 355.229744 500.757845 
L 356.123437 519.301834 
L 357.463978 553.604042 
L 359.698212 612.828448 
L 360.591906 631.711247 
L 361.4856 645.387239 
L 361.932447 649.897399 
L 362.379293 652.714826 
L 362.82614 653.775204 
L 363.272987 653.049144 
L 363.719834 650.542933 
L 364.166681 646.298573 
L 364.613528 640.393086 
L 365.507221 624.07286 
L 366.400915 602.828901 
L 368.188302 552.444625 
L 369.528843 515.584514 
L 370.422537 495.163276 
L 371.31623 480.026511 
L 371.763077 474.844633 
L 372.209924 471.408542 
L 372.656771 469.791604 
L 373.103618 470.030989 
L 373.550465 472.126827 
L 373.997311 476.042108 
L 374.444158 481.703335 
L 375.337852 497.796238 
L 376.231546 519.157977 
L 378.018933 570.703986 
L 379.359474 609.046863 
L 380.253167 630.623603 
L 381.146861 646.963586 
L 381.593708 652.742021 
L 382.040555 656.759571 
L 382.487401 658.934592 
L 382.934248 659.222178 
L 383.381095 657.615096 
L 383.827942 654.143959 
L 384.274789 648.87664 
L 385.168483 633.402485 
L 386.062176 612.412184 
L 387.402717 574.301075 
L 389.636951 510.123549 
L 390.530645 490.169685 
L 391.424338 476.025387 
L 391.871185 471.499648 
L 392.318032 468.801144 
L 392.764879 467.98184 
L 393.211726 469.056139 
L 393.658573 472.000632 
L 394.105419 476.754607 
L 394.999113 491.26991 
L 395.892807 511.435877 
L 397.233347 548.664743 
L 399.467582 612.589196 
L 400.361275 632.910247 
L 401.254969 647.679192 
L 401.701816 652.605732 
L 402.148663 655.757832 
L 402.59551 657.077756 
L 403.042356 656.544485 
L 403.489203 654.174039 
L 403.93605 650.01905 
L 404.382897 644.167596 
L 405.276591 627.892945 
L 406.170284 606.676219 
L 407.957672 556.496595 
L 409.298212 519.948211 
L 410.191906 499.734322 
L 411.0856 484.71216 
L 411.532447 479.523026 
L 411.979293 476.020285 
L 412.42614 474.26558 
L 412.872987 474.285385 
L 413.319834 476.070628 
L 413.766681 479.577052 
L 414.213528 484.72627 
L 415.107221 499.479968 
L 416.000915 519.103845 
L 417.788302 566.318584 
L 419.128843 601.260232 
L 420.022537 620.868919 
L 420.91623 635.731703 
L 421.363077 641.018917 
L 421.809924 644.739805 
L 422.256771 646.831187 
L 422.703618 647.262859 
L 423.150465 646.037978 
L 423.597311 643.192767 
L 424.044158 638.795559 
L 424.937852 625.768821 
L 425.831546 608.071082 
L 427.172086 576.041265 
L 428.959474 532.225538 
L 429.853167 513.728279 
L 430.746861 499.465246 
L 431.193708 494.265181 
L 431.640555 490.483467 
L 432.087401 488.182021 
L 432.534248 487.392565 
L 432.981095 488.116267 
L 433.427942 490.324 
L 433.874789 493.957214 
L 434.768483 505.128088 
L 435.662176 520.640983 
L 437.002717 549.119695 
L 439.236951 597.436884 
L 440.130645 612.626652 
L 441.024338 623.617245 
L 441.471185 627.283373 
L 441.918032 629.64466 
L 442.364879 630.67048 
L 442.811726 630.357413 
L 443.258573 628.728974 
L 443.705419 625.83481 
L 444.152266 621.749362 
L 445.04596 610.414979 
L 445.939654 595.737272 
L 449.961275 523.586597 
L 450.854969 513.759953 
L 451.301816 510.39836 
L 451.748663 508.145198 
L 452.19551 507.027075 
L 452.642356 507.04721 
L 453.089203 508.185739 
L 453.53605 510.400492 
L 453.982897 513.628227 
L 454.876591 522.774513 
L 455.770284 534.768576 
L 459.791906 594.404944 
L 460.6856 602.647 
L 461.132447 605.509714 
L 461.579293 607.475676 
L 462.02614 608.525393 
L 462.472987 608.658593 
L 462.919834 607.893825 
L 463.366681 606.267677 
L 463.813528 603.833621 
L 464.707221 596.830891 
L 465.600915 587.587626 
L 469.622537 541.816578 
L 470.51623 535.55782 
L 470.963077 533.386254 
L 471.409924 531.890527 
L 471.856771 531.079865 
L 472.303618 530.94869 
L 472.750465 531.477156 
L 473.197311 532.631988 
L 473.644158 534.367591 
L 474.537852 539.345492 
L 475.431546 545.85619 
L 479.00632 574.194547 
L 479.900014 578.934755 
L 480.793708 581.975513 
L 481.240555 582.821426 
L 481.687401 583.219601 
L 482.134248 583.184408 
L 482.581095 582.739748 
L 483.027942 581.918118 
L 483.921636 579.310086 
L 484.815329 575.746419 
L 487.943257 562.03548 
L 488.836951 559.317842 
L 489.730645 557.558756 
L 490.177492 557.055792 
L 490.624338 556.797526 
L 491.071185 556.770138 
L 491.518032 556.953307 
L 491.964879 557.321023 
L 492.858573 558.483493 
L 495.539654 562.749817 
L 496.433347 563.51754 
L 496.880194 563.667317 
L 497.327041 563.646433 
L 497.773888 563.45227 
L 498.220735 563.08905 
L 499.114428 561.9058 
L 500.008122 560.258858 
L 502.242356 555.85143 
L 503.13605 554.787256 
L 503.582897 554.552287 
L 504.029744 554.554159 
L 504.476591 554.814868 
L 504.476591 554.814868 
" style="fill:none;stroke:#008000;stroke-linecap:square;"/>
   </g>
   <g id="patch_13">
    <path d="M 58.523438 659.52 
L 58.523438 467.661176 
" style="fill:none;stroke:#000000;stroke-linecap:square;stroke-linejoin:miter;stroke-width:0.8;"/>
   </g>
   <g id="patch_14">
    <path d="M 504.923437 659.52 
L 504.923437 467.661176 
" style="fill:none;stroke:#000000;stroke-linecap:square;stroke-linejoin:miter;stroke-width:0.8;"/>
   </g>
   <g id="patch_15">
    <path d="M 58.523438 659.52 
L 504.923437 659.52 
" style="fill:none;stroke:#000000;stroke-linecap:square;stroke-linejoin:miter;stroke-width:0.8;"/>
   </g>
   <g id="patch_16">
    <path d="M 58.523438 467.661176 
L 504.923437 467.661176 
" style="fill:none;stroke:#000000;stroke-linecap:square;stroke-linejoin:miter;stroke-width:0.8;"/>
   </g>
  </g>
 </g>
 <defs>
  <clipPath id="p33e1cec765">
   <rect height="191.858824" width="446.4" x="58.523438" y="7.2"/>
  </clipPath>
  <clipPath id="pe46b0f1861">
   <rect height="191.858824" width="446.4" x="58.523438" y="237.430588"/>
  </clipPath>
  <clipPath id="p160b56cae7">
   <rect height="191.858824" width="446.4" x="58.523438" y="467.661176"/>
  </clipPath>
 </defs>
</svg>
