<?xml version="1.0" encoding="utf-8" standalone="no"?>
<!DOCTYPE svg PUBLIC "-//W3C//DTD SVG 1.1//EN"
  "http://www.w3.org/Graphics/SVG/1.1/DTD/svg11.dtd">
<!-- Created with matplotlib (https://matplotlib.org/) -->
<svg height="298.374219pt" version="1.1" viewBox="0 0 370.827307 298.374219" width="370.827307pt" xmlns="http://www.w3.org/2000/svg" xmlns:xlink="http://www.w3.org/1999/xlink">
 <metadata>
  <rdf:RDF xmlns:cc="http://creativecommons.org/ns#" xmlns:dc="http://purl.org/dc/elements/1.1/" xmlns:rdf="http://www.w3.org/1999/02/22-rdf-syntax-ns#">
   <cc:Work>
    <dc:type rdf:resource="http://purl.org/dc/dcmitype/StillImage"/>
    <dc:date>2021-09-03T22:17:43.485708</dc:date>
    <dc:format>image/svg+xml</dc:format>
    <dc:creator>
     <cc:Agent>
      <dc:title>Matplotlib v3.3.4, https://matplotlib.org/</dc:title>
     </cc:Agent>
    </dc:creator>
   </cc:Work>
  </rdf:RDF>
 </metadata>
 <defs>
  <style type="text/css">*{stroke-linecap:butt;stroke-linejoin:round;}</style>
 </defs>
 <g id="figure_1">
  <g id="patch_1">
   <path d="M 0 298.374219 
L 370.827307 298.374219 
L 370.827307 0 
L 0 0 
z
" style="fill:none;"/>
  </g>
  <g id="axes_1">
   <g id="patch_2">
    <path d="M 39.03909 253.44 
L 363.627307 253.44 
L 363.627307 36 
L 39.03909 36 
z
" style="fill:#ffffff;"/>
   </g>
   <g id="matplotlib.axis_1">
    <g id="xtick_1">
     <g id="line2d_1">
      <path clip-path="url(#pebcb070e53)" d="M 53.7931 253.44 
L 53.7931 36 
" style="fill:none;stroke:#b0b0b0;stroke-linecap:square;stroke-width:0.8;"/>
     </g>
     <g id="line2d_2">
      <defs>
       <path d="M 0 0 
L 0 3.5 
" id="mc6dba180a9" style="stroke:#000000;stroke-width:0.8;"/>
      </defs>
      <g>
       <use style="stroke:#000000;stroke-width:0.8;" x="53.7931" xlink:href="#mc6dba180a9" y="253.44"/>
      </g>
     </g>
     <g id="text_1">
      <!-- $\mathdefault{0}$ -->
      <g transform="translate(50.05711 270.571866)scale(0.15 -0.15)">
       <defs>
        <path d="M 25.40625 68 
C 19.90625 68 15.703125 66.296875 12 62.796875 
C 6.203125 57.203125 2.40625 45.6875 2.40625 34 
C 2.40625 23.09375 5.703125 11.390625 10.40625 5.796875 
C 14.09375 1.390625 19.203125 -1 25 -1 
C 30.09375 -1 34.40625 0.6875 38 4.1875 
C 43.796875 9.6875 47.59375 21.296875 47.59375 33.390625 
C 47.59375 53.890625 38.5 68 25.40625 68 
z
M 25.09375 65.390625 
C 33.5 65.390625 38 54.09375 38 33.1875 
C 38 12.296875 33.59375 1.59375 25 1.59375 
C 16.40625 1.59375 12 12.296875 12 33.09375 
C 12 54.296875 16.5 65.390625 25.09375 65.390625 
z
" id="Nimbus_Roman_No9_L_Regular-48"/>
       </defs>
       <use transform="scale(0.996264)" xlink:href="#Nimbus_Roman_No9_L_Regular-48"/>
      </g>
     </g>
    </g>
    <g id="xtick_2">
     <g id="line2d_3">
      <path clip-path="url(#pebcb070e53)" d="M 142.681981 253.44 
L 142.681981 36 
" style="fill:none;stroke:#b0b0b0;stroke-linecap:square;stroke-width:0.8;"/>
     </g>
     <g id="line2d_4">
      <g>
       <use style="stroke:#000000;stroke-width:0.8;" x="142.681981" xlink:href="#mc6dba180a9" y="253.44"/>
      </g>
     </g>
     <g id="text_2">
      <!-- $\mathdefault{2}$ -->
      <g transform="translate(138.945991 270.571866)scale(0.15 -0.15)">
       <defs>
        <path d="M 47.5 13.734375 
L 46.203125 14.25 
C 42.5 8.5 41.203125 7.59375 36.703125 7.59375 
L 12.796875 7.59375 
L 29.59375 25.328125 
C 38.5 34.703125 42.40625 42.359375 42.40625 50.21875 
C 42.40625 60.28125 34.296875 68 23.90625 68 
C 18.40625 68 13.203125 65.796875 9.5 61.796875 
C 6.296875 58.375 4.796875 55.15625 3.09375 48 
L 5.203125 47.484375 
C 9.203125 57.359375 12.796875 60.59375 19.703125 60.59375 
C 28.09375 60.59375 33.796875 54.84375 33.796875 46.390625 
C 33.796875 38.53125 29.203125 29.15625 20.796875 20.1875 
L 3 1.1875 
L 3 0 
L 42 0 
z
" id="Nimbus_Roman_No9_L_Regular-50"/>
       </defs>
       <use transform="scale(0.996264)" xlink:href="#Nimbus_Roman_No9_L_Regular-50"/>
      </g>
     </g>
    </g>
    <g id="xtick_3">
     <g id="line2d_5">
      <path clip-path="url(#pebcb070e53)" d="M 231.570862 253.44 
L 231.570862 36 
" style="fill:none;stroke:#b0b0b0;stroke-linecap:square;stroke-width:0.8;"/>
     </g>
     <g id="line2d_6">
      <g>
       <use style="stroke:#000000;stroke-width:0.8;" x="231.570862" xlink:href="#mc6dba180a9" y="253.44"/>
      </g>
     </g>
     <g id="text_3">
      <!-- $\mathdefault{4}$ -->
      <g transform="translate(227.834872 270.571866)scale(0.15 -0.15)">
       <defs>
        <path d="M 47.203125 23.390625 
L 37 23.390625 
L 37 68 
L 32.59375 68 
L 1.203125 23.390625 
L 1.203125 17 
L 29.296875 17 
L 29.296875 0 
L 37 0 
L 37 17 
L 47.203125 17 
z
M 29.203125 23.390625 
L 5.203125 23.390625 
L 29.203125 57.765625 
z
" id="Nimbus_Roman_No9_L_Regular-52"/>
       </defs>
       <use transform="scale(0.996264)" xlink:href="#Nimbus_Roman_No9_L_Regular-52"/>
      </g>
     </g>
    </g>
    <g id="xtick_4">
     <g id="line2d_7">
      <path clip-path="url(#pebcb070e53)" d="M 320.459744 253.44 
L 320.459744 36 
" style="fill:none;stroke:#b0b0b0;stroke-linecap:square;stroke-width:0.8;"/>
     </g>
     <g id="line2d_8">
      <g>
       <use style="stroke:#000000;stroke-width:0.8;" x="320.459744" xlink:href="#mc6dba180a9" y="253.44"/>
      </g>
     </g>
     <g id="text_4">
      <!-- $\mathdefault{6}$ -->
      <g transform="translate(316.723754 270.571866)scale(0.15 -0.15)">
       <defs>
        <path d="M 44.59375 68.59375 
C 33.203125 67.59375 27.40625 65.6875 20.09375 60.59375 
C 9.296875 52.890625 3.40625 41.484375 3.40625 28.140625 
C 3.40625 19.5 6.09375 10.75 10.40625 5.765625 
C 14.203125 1.390625 19.59375 -1 25.796875 -1 
C 38.203125 -1 46.796875 8.453125 46.796875 22.1875 
C 46.796875 34.90625 39.5 43 28 43 
C 23.59375 43 21.5 42.296875 15.203125 38.484375 
C 17.90625 53.59375 29.09375 64.390625 44.796875 67 
z
M 24.203125 38.390625 
C 32.796875 38.390625 37.796875 31.234375 37.796875 18.796875 
C 37.796875 7.859375 33.90625 1.796875 26.90625 1.796875 
C 18.09375 1.796875 12.703125 11.140625 12.703125 26.5625 
C 12.703125 31.625 13.5 34.421875 15.5 35.90625 
C 17.59375 37.5 20.703125 38.390625 24.203125 38.390625 
z
" id="Nimbus_Roman_No9_L_Regular-54"/>
       </defs>
       <use transform="scale(0.996264)" xlink:href="#Nimbus_Roman_No9_L_Regular-54"/>
      </g>
     </g>
    </g>
    <g id="text_5">
     <!-- $x$ -->
     <g transform="translate(198.015683 287.938976)scale(0.15 -0.15)">
      <defs>
       <path d="M 40.203125 11.15625 
C 39.40625 10.265625 38.90625 9.65625 38 8.46875 
C 35.703125 5.484375 34.5 4.5 33.40625 4.5 
C 31.90625 4.5 31 5.78125 30.296875 8.5625 
C 30.09375 9.359375 30 9.96875 29.90625 10.265625 
C 27.40625 20.296875 26.296875 24.875 26.296875 26.359375 
C 30.703125 34.015625 34.296875 38.390625 36.09375 38.390625 
C 36.703125 38.390625 37.5 38.09375 38.5 37.59375 
C 39.703125 36.90625 40.40625 36.703125 41.203125 36.703125 
C 43.296875 36.703125 44.703125 38.1875 44.703125 40.296875 
C 44.703125 42.390625 43 44 40.59375 44 
C 36.203125 44 32.40625 40.390625 25.5 29.75 
L 24.40625 35.21875 
C 23 41.984375 21.90625 44 19.203125 44 
C 17 44 13.59375 43.09375 7.5 41.09375 
L 6.40625 40.6875 
L 6.796875 39.1875 
C 10.59375 40.09375 11.5 40.296875 12.40625 40.296875 
C 14.90625 40.296875 15.5 39.390625 16.90625 33.421875 
L 19.796875 21.203125 
L 11.59375 9.5625 
C 9.59375 6.578125 7.59375 4.796875 6.5 4.796875 
C 5.90625 4.796875 4.90625 5.09375 3.90625 5.6875 
C 2.59375 6.390625 1.5 6.6875 0.703125 6.6875 
C -1.203125 6.6875 -2.703125 5.1875 -2.703125 3.1875 
C -2.703125 0.59375 -0.703125 -1 2.296875 -1 
C 5.40625 -1 6.59375 -0.109375 11.59375 5.984375 
C 14.296875 9.171875 16.40625 11.84375 20.59375 17.609375 
L 23.59375 5.6875 
C 24.90625 0.59375 26.203125 -1 29.40625 -1 
C 33.203125 -1 35.796875 1.390625 41.59375 10.359375 
z
" id="Nimbus_Roman_No9_L_Regular_Italic-120"/>
      </defs>
      <use transform="scale(0.996264)" xlink:href="#Nimbus_Roman_No9_L_Regular_Italic-120"/>
     </g>
    </g>
   </g>
   <g id="matplotlib.axis_2">
    <g id="ytick_1">
     <g id="line2d_9">
      <path clip-path="url(#pebcb070e53)" d="M 39.03909 243.556364 
L 363.627307 243.556364 
" style="fill:none;stroke:#b0b0b0;stroke-linecap:square;stroke-width:0.8;"/>
     </g>
     <g id="line2d_10">
      <defs>
       <path d="M 0 0 
L -3.5 0 
" id="m1b0aa57142" style="stroke:#000000;stroke-width:0.8;"/>
      </defs>
      <g>
       <use style="stroke:#000000;stroke-width:0.8;" x="39.03909" xlink:href="#m1b0aa57142" y="243.556364"/>
      </g>
     </g>
     <g id="text_6">
      <!-- $\mathdefault{0}$ -->
      <g transform="translate(24.56711 248.622297)scale(0.15 -0.15)">
       <use transform="scale(0.996264)" xlink:href="#Nimbus_Roman_No9_L_Regular-48"/>
      </g>
     </g>
    </g>
    <g id="ytick_2">
     <g id="line2d_11">
      <path clip-path="url(#pebcb070e53)" d="M 39.03909 199.111923 
L 363.627307 199.111923 
" style="fill:none;stroke:#b0b0b0;stroke-linecap:square;stroke-width:0.8;"/>
     </g>
     <g id="line2d_12">
      <g>
       <use style="stroke:#000000;stroke-width:0.8;" x="39.03909" xlink:href="#m1b0aa57142" y="199.111923"/>
      </g>
     </g>
     <g id="text_7">
      <!-- $\mathdefault{1}$ -->
      <g transform="translate(24.56711 204.177856)scale(0.15 -0.15)">
       <defs>
        <path d="M 29.09375 68 
L 11.09375 59 
L 11.09375 57.59375 
C 12.296875 58.09375 13.40625 58.484375 13.796875 58.6875 
C 15.59375 59.390625 17.296875 59.78125 18.296875 59.78125 
C 20.40625 59.78125 21.296875 58.296875 21.296875 55.078125 
L 21.296875 9.359375 
C 21.296875 6.03125 20.5 3.71875 18.90625 2.796875 
C 17.40625 1.890625 16 1.59375 11.796875 1.5 
L 11.796875 0 
L 39.40625 0 
L 39.40625 1.5 
C 31.5 1.59375 29.90625 2.609375 29.90625 7.453125 
L 29.90625 67.796875 
z
" id="Nimbus_Roman_No9_L_Regular-49"/>
       </defs>
       <use transform="scale(0.996264)" xlink:href="#Nimbus_Roman_No9_L_Regular-49"/>
      </g>
     </g>
    </g>
    <g id="ytick_3">
     <g id="line2d_13">
      <path clip-path="url(#pebcb070e53)" d="M 39.03909 154.667482 
L 363.627307 154.667482 
" style="fill:none;stroke:#b0b0b0;stroke-linecap:square;stroke-width:0.8;"/>
     </g>
     <g id="line2d_14">
      <g>
       <use style="stroke:#000000;stroke-width:0.8;" x="39.03909" xlink:href="#m1b0aa57142" y="154.667482"/>
      </g>
     </g>
     <g id="text_8">
      <!-- $\mathdefault{2}$ -->
      <g transform="translate(24.56711 159.733415)scale(0.15 -0.15)">
       <use transform="scale(0.996264)" xlink:href="#Nimbus_Roman_No9_L_Regular-50"/>
      </g>
     </g>
    </g>
    <g id="ytick_4">
     <g id="line2d_15">
      <path clip-path="url(#pebcb070e53)" d="M 39.03909 110.223042 
L 363.627307 110.223042 
" style="fill:none;stroke:#b0b0b0;stroke-linecap:square;stroke-width:0.8;"/>
     </g>
     <g id="line2d_16">
      <g>
       <use style="stroke:#000000;stroke-width:0.8;" x="39.03909" xlink:href="#m1b0aa57142" y="110.223042"/>
      </g>
     </g>
     <g id="text_9">
      <!-- $\mathdefault{3}$ -->
      <g transform="translate(24.56711 115.288975)scale(0.15 -0.15)">
       <defs>
        <path d="M 15.296875 33.390625 
C 21.203125 33.390625 23.5 33.1875 25.90625 32.296875 
C 32.09375 30.09375 36 24.390625 36 17.5 
C 36 9.09375 30.296875 2.59375 22.90625 2.59375 
C 20.203125 2.59375 18.203125 3.296875 14.5 5.6875 
C 11.5 7.5 9.796875 8.1875 8.09375 8.1875 
C 5.796875 8.1875 4.296875 6.796875 4.296875 4.6875 
C 4.296875 1.1875 8.59375 -1 15.59375 -1 
C 23.296875 -1 31.203125 1.59375 35.90625 5.6875 
C 40.59375 9.796875 43.203125 15.59375 43.203125 22.296875 
C 43.203125 27.390625 41.59375 32.09375 38.703125 35.1875 
C 36.703125 37.390625 34.796875 38.59375 30.40625 40.5 
C 37.296875 45.1875 39.796875 48.890625 39.796875 54.296875 
C 39.796875 62.390625 33.40625 68 24.203125 68 
C 19.203125 68 14.796875 66.296875 11.203125 63.09375 
C 8.203125 60.390625 6.703125 57.796875 4.5 51.796875 
L 6 51.390625 
C 10.09375 58.703125 14.59375 61.984375 20.90625 61.984375 
C 27.40625 61.984375 31.90625 57.59375 31.90625 51.296875 
C 31.90625 47.6875 30.40625 44.09375 27.90625 41.59375 
C 24.90625 38.59375 22.09375 37.09375 15.296875 34.6875 
z
" id="Nimbus_Roman_No9_L_Regular-51"/>
       </defs>
       <use transform="scale(0.996264)" xlink:href="#Nimbus_Roman_No9_L_Regular-51"/>
      </g>
     </g>
    </g>
    <g id="ytick_5">
     <g id="line2d_17">
      <path clip-path="url(#pebcb070e53)" d="M 39.03909 65.778601 
L 363.627307 65.778601 
" style="fill:none;stroke:#b0b0b0;stroke-linecap:square;stroke-width:0.8;"/>
     </g>
     <g id="line2d_18">
      <g>
       <use style="stroke:#000000;stroke-width:0.8;" x="39.03909" xlink:href="#m1b0aa57142" y="65.778601"/>
      </g>
     </g>
     <g id="text_10">
      <!-- $\mathdefault{4}$ -->
      <g transform="translate(24.56711 70.844534)scale(0.15 -0.15)">
       <use transform="scale(0.996264)" xlink:href="#Nimbus_Roman_No9_L_Regular-52"/>
      </g>
     </g>
    </g>
    <g id="text_11">
     <!-- $y$ -->
     <g transform="translate(17.331866 148.037515)rotate(-90)scale(0.15 -0.15)">
      <defs>
       <path d="M 1.5 39.890625 
C 2.796875 40.1875 3.5 40.296875 4.59375 40.296875 
C 10.296875 40.296875 11.796875 37.796875 16.40625 20.59375 
C 18.09375 14.09375 20.5 2.390625 20.5 0.6875 
C 20.5 -0.90625 19.90625 -2.515625 18.40625 -4.3125 
C 15.296875 -8.40625 13.296875 -11.015625 12.203125 -12.21875 
C 10.09375 -14.40625 8.90625 -15.21875 7.59375 -15.21875 
C 7 -15.21875 6.296875 -14.90625 5.203125 -14.109375 
C 3.703125 -12.90625 2.59375 -12.40625 1.5 -12.40625 
C -0.703125 -12.40625 -2.40625 -14.109375 -2.40625 -16.3125 
C -2.40625 -18.8125 -0.203125 -20.71875 2.703125 -20.71875 
C 9.09375 -20.71875 22.203125 -5.703125 33 14.09375 
C 39.796875 26.390625 42.59375 33.59375 42.59375 38.484375 
C 42.59375 41.484375 40.09375 44 37.09375 44 
C 34.796875 44 33.203125 42.484375 33.203125 40.296875 
C 33.203125 38.796875 34 37.6875 36 36.390625 
C 37.90625 35.296875 38.59375 34.390625 38.59375 32.984375 
C 38.59375 28.984375 34.90625 21.1875 26.40625 7.09375 
L 24.40625 18.6875 
C 22.90625 27.484375 17.296875 44 15.796875 44 
L 15.40625 44 
C 15.296875 43.890625 14.90625 43.890625 14.5 43.890625 
C 13.59375 43.796875 10 43.1875 4.703125 42.1875 
C 4.203125 42.09375 2.90625 41.796875 1.5 41.59375 
z
" id="Nimbus_Roman_No9_L_Regular_Italic-121"/>
      </defs>
      <use transform="scale(0.996264)" xlink:href="#Nimbus_Roman_No9_L_Regular_Italic-121"/>
     </g>
    </g>
   </g>
   <g id="line2d_19">
    <path clip-path="url(#pebcb070e53)" d="M 53.7931 154.667482 
L 61.359259 141.956977 
L 68.925417 130.035403 
L 76.491576 118.902761 
L 84.057735 108.559052 
L 91.623894 99.004274 
L 99.190053 90.238428 
L 106.756212 82.261514 
L 114.322371 75.073533 
L 121.88853 68.674483 
L 129.454689 63.064365 
L 137.020848 58.243179 
L 144.587006 54.210926 
L 152.153165 50.967604 
L 159.719324 48.513214 
L 167.285483 46.847756 
L 174.851642 45.97123 
L 182.417801 45.883636 
L 189.98396 46.584974 
L 197.550119 48.075245 
L 205.116278 50.354447 
L 212.682437 53.422581 
L 220.248596 57.279647 
L 227.814754 61.925645 
L 235.380913 67.360575 
L 242.947072 73.584437 
L 250.513231 80.597231 
L 258.07939 88.398957 
L 265.645549 96.989615 
L 273.211708 106.369205 
L 280.777867 116.537727 
L 288.344026 127.495181 
L 295.910185 139.241567 
L 303.476343 151.776885 
L 311.042502 165.101134 
L 318.608661 179.214316 
L 326.17482 194.11643 
L 333.740979 209.807476 
L 341.307138 226.287454 
L 348.873297 243.556364 
" style="fill:none;stroke:#1f77b4;stroke-linecap:square;stroke-width:1.5;"/>
   </g>
   <g id="line2d_20">
    <path clip-path="url(#pebcb070e53)" d="M 221.348641 65.778601 
L 241.793084 65.778601 
" style="fill:none;stroke:#ff7f0e;stroke-linecap:square;stroke-width:1.5;"/>
   </g>
   <g id="patch_3">
    <path d="M 39.03909 253.44 
L 39.03909 36 
" style="fill:none;stroke:#000000;stroke-linecap:square;stroke-linejoin:miter;stroke-width:0.8;"/>
   </g>
   <g id="patch_4">
    <path d="M 363.627307 253.44 
L 363.627307 36 
" style="fill:none;stroke:#000000;stroke-linecap:square;stroke-linejoin:miter;stroke-width:0.8;"/>
   </g>
   <g id="patch_5">
    <path d="M 39.03909 253.44 
L 363.627307 253.44 
" style="fill:none;stroke:#000000;stroke-linecap:square;stroke-linejoin:miter;stroke-width:0.8;"/>
   </g>
   <g id="patch_6">
    <path d="M 39.03909 36 
L 363.627307 36 
" style="fill:none;stroke:#000000;stroke-linecap:square;stroke-linejoin:miter;stroke-width:0.8;"/>
   </g>
   <g id="text_12">
    <!-- Trajectory -->
    <g transform="translate(164.302477 30)scale(0.18 -0.18)">
     <defs>
      <path d="M 25.40625 61.796875 
L 25.40625 11.953125 
C 25.40625 3.484375 24.296875 2.390625 16 1.890625 
L 16 0 
L 45.203125 0 
L 45.203125 1.890625 
C 37 2.296875 35.59375 3.59375 35.59375 10.859375 
L 35.59375 61.796875 
L 41 61.796875 
C 52.40625 61.796875 54.59375 60 56.90625 49.03125 
L 59.296875 49.03125 
L 58.703125 66 
L 2.296875 66 
L 1.703125 49.03125 
L 4.09375 49.03125 
C 6.5 59.90625 8.796875 61.796875 20 61.796875 
z
" id="Nimbus_Roman_No9_L_Regular-84"/>
      <path d="M 0.703125 39 
C 2.09375 39.296875 3 39.390625 4.203125 39.390625 
C 6.703125 39.390625 7.59375 37.796875 7.59375 33.390625 
L 7.59375 8.390625 
C 7.59375 3.390625 6.90625 2.6875 0.5 1.5 
L 0.5 0 
L 24.5 0 
L 24.5 1.5 
C 17.703125 1.796875 16 3.296875 16 9 
L 16 31.5 
C 16 34.6875 20.296875 39.6875 23 39.6875 
C 23.59375 39.6875 24.5 39.1875 25.59375 38.1875 
C 27.203125 36.796875 28.296875 36.1875 29.59375 36.1875 
C 32 36.1875 33.5 37.890625 33.5 40.6875 
C 33.5 43.984375 31.40625 46 28 46 
C 23.796875 46 20.90625 43.6875 16 36.59375 
L 16 45.796875 
L 15.5 46 
C 10.203125 43.796875 6.59375 42.5 0.703125 40.59375 
z
" id="Nimbus_Roman_No9_L_Regular-114"/>
      <path d="M 44.203125 6.59375 
C 42.5 5.1875 41.296875 4.6875 39.796875 4.6875 
C 37.5 4.6875 36.796875 6.09375 36.796875 10.5 
L 36.796875 30 
C 36.796875 35.1875 36.296875 38.09375 34.796875 40.5 
C 32.59375 44.09375 28.296875 46 22.40625 46 
C 13 46 5.59375 41.09375 5.59375 34.796875 
C 5.59375 32.5 7.59375 30.5 9.90625 30.5 
C 12.296875 30.5 14.40625 32.5 14.40625 34.6875 
C 14.40625 35.09375 14.296875 35.59375 14.203125 36.296875 
C 14 37.1875 13.90625 38 13.90625 38.6875 
C 13.90625 41.390625 17.09375 43.59375 21.09375 43.59375 
C 26 43.59375 28.703125 40.6875 28.703125 35.296875 
L 28.703125 29.1875 
C 13.296875 23 11.59375 22.1875 7.296875 18.390625 
C 5.09375 16.390625 3.703125 13 3.703125 9.6875 
C 3.703125 3.390625 8.09375 -1 14.203125 -1 
C 18.59375 -1 22.703125 1.09375 28.796875 6.296875 
C 29.296875 1.09375 31.09375 -1 35.203125 -1 
C 38.59375 -1 40.703125 0.1875 44.203125 4 
z
M 28.703125 12.296875 
C 28.703125 9.1875 28.203125 8.296875 26.09375 7.09375 
C 23.703125 5.6875 20.90625 4.796875 18.796875 4.796875 
C 15.296875 4.796875 12.5 8.1875 12.5 12.5 
L 12.5 12.890625 
C 12.5 18.796875 16.59375 22.390625 28.703125 26.796875 
z
" id="Nimbus_Roman_No9_L_Regular-97"/>
      <path d="M 19.296875 45.6875 
L 18.796875 46 
C 12.90625 43.6875 9.09375 42.390625 3.203125 40.578125 
L 3.203125 38.984375 
L 3.703125 39.078125 
C 5.203125 39.28125 6.703125 39.375 7.703125 39.375 
C 10 39.375 10.90625 37.671875 10.90625 33.359375 
L 10.90625 -4.65625 
C 10.90625 -12.28125 10.59375 -14.796875 9.5 -16.796875 
C 8.90625 -17.8125 7.5 -18.609375 6.09375 -18.609375 
C 4.59375 -18.609375 3.59375 -17.90625 1.90625 -15.796875 
C 0.09375 -13.484375 -1.296875 -12.59375 -2.90625 -12.59375 
C -5.203125 -12.59375 -7 -14.296875 -7 -16.5 
C -7 -19.703125 -3 -22 2.40625 -22 
C 13.40625 -22 19.296875 -14.390625 19.296875 -0.140625 
z
M 14.203125 68 
C 11.5 68 9.203125 65.6875 9.203125 62.890625 
C 9.203125 60.09375 11.40625 57.796875 14.203125 57.796875 
C 17.09375 57.796875 19.40625 59.984375 19.40625 62.890625 
C 19.40625 65.6875 17.09375 68 14.203125 68 
z
" id="Nimbus_Roman_No9_L_Regular-106"/>
      <path d="M 40.796875 16.4375 
C 36 8.8125 31.703125 5.890625 25.296875 5.890625 
C 19.59375 5.890625 15.296875 8.8125 12.40625 14.53125 
C 10.59375 18.34375 9.90625 21.65625 9.703125 27.796875 
L 40.5 27.796875 
C 39.703125 34.265625 38.703125 37.140625 36.203125 40.3125 
C 33.203125 43.890625 28.59375 46 23.40625 46 
C 18.40625 46 13.703125 44.1875 9.90625 40.8125 
C 5.203125 36.734375 2.5 29.6875 2.5 21.46875 
C 2.5 7.59375 9.703125 -1 21.203125 -1 
C 30.703125 -1 38.203125 4.890625 42.40625 15.734375 
z
M 9.90625 31 
C 11 38.71875 14.40625 42.390625 20.5 42.390625 
C 26.59375 42.390625 29 39.609375 30.296875 31 
z
" id="Nimbus_Roman_No9_L_Regular-101"/>
      <path d="M 39.796875 15.59375 
C 35 8.59375 31.40625 6.1875 25.703125 6.1875 
C 16.59375 6.1875 10.203125 14.1875 10.203125 25.6875 
C 10.203125 35.984375 15.703125 43.09375 23.796875 43.09375 
C 27.40625 43.09375 28.703125 41.984375 29.703125 38.296875 
L 30.296875 36.09375 
C 31.09375 33.296875 32.90625 31.484375 35 31.484375 
C 37.59375 31.484375 39.796875 33.390625 39.796875 35.6875 
C 39.796875 41.296875 32.796875 46 24.40625 46 
C 19.5 46 14.40625 43.984375 10.296875 40.390625 
C 5.296875 35.984375 2.5 29.1875 2.5 21.296875 
C 2.5 8.296875 10.40625 -1 21.5 -1 
C 26 -1 30 0.59375 33.59375 3.6875 
C 36.296875 6.09375 38.203125 8.796875 41.203125 14.6875 
z
" id="Nimbus_Roman_No9_L_Regular-99"/>
      <path d="M 25.5 45 
L 15.40625 45 
L 15.40625 56.59375 
C 15.40625 57.59375 15.296875 57.890625 14.703125 57.890625 
C 14 57 13.40625 56.09375 12.703125 55.09375 
C 8.90625 49.59375 4.59375 44.796875 3 44.390625 
C 1.90625 43.6875 1.296875 42.984375 1.296875 42.484375 
C 1.296875 42.1875 1.40625 41.984375 1.703125 41.796875 
L 7 41.796875 
L 7 11.6875 
C 7 3.296875 10 -1 15.90625 -1 
C 20.796875 -1 24.59375 1.390625 27.90625 6.59375 
L 26.59375 7.6875 
C 24.5 5.1875 22.796875 4.1875 20.59375 4.1875 
C 16.90625 4.1875 15.40625 6.890625 15.40625 13.1875 
L 15.40625 41.796875 
L 25.5 41.796875 
z
" id="Nimbus_Roman_No9_L_Regular-116"/>
      <path d="M 25 46 
C 12 46 2.90625 36.390625 2.90625 22.59375 
C 2.90625 9.09375 12.203125 -1 24.796875 -1 
C 37.40625 -1 47 9.59375 47 23.390625 
C 47 36.5 37.796875 46 25 46 
z
M 23.703125 43.1875 
C 32.09375 43.1875 38 33.59375 38 19.890625 
C 38 8.59375 33.5 1.796875 26 1.796875 
C 22.09375 1.796875 18.40625 4.1875 16.296875 8.1875 
C 13.5 13.390625 11.90625 20.390625 11.90625 27.5 
C 11.90625 37 16.59375 43.1875 23.703125 43.1875 
z
" id="Nimbus_Roman_No9_L_Regular-111"/>
      <path d="M 47.5 45 
L 34 45 
L 34 43.484375 
C 37.203125 43.484375 38.796875 42.59375 38.796875 40.984375 
C 38.796875 40.578125 38.703125 39.984375 38.40625 39.28125 
L 28.703125 11.578125 
L 17.203125 36.96875 
C 16.59375 38.375 16.203125 39.6875 16.203125 40.78125 
C 16.203125 42.59375 17.703125 43.296875 22 43.484375 
L 22 45 
L 1.40625 45 
L 1.40625 43.59375 
C 4 43.1875 5.703125 42.09375 6.5 40.390625 
L 17.90625 15.703125 
L 18.203125 14.890625 
L 19.703125 11.890625 
C 22.5 6.859375 24.09375 3.25 24.09375 1.75 
C 24.09375 0.234375 21.796875 -6.078125 20.09375 -9.09375 
C 18.703125 -11.703125 16.5 -13.609375 15.09375 -13.609375 
C 14.5 -13.609375 13.59375 -13.40625 12.59375 -12.90625 
C 10.703125 -12.203125 9 -11.796875 7.296875 -11.796875 
C 5 -11.796875 3 -13.8125 3 -16.203125 
C 3 -19.5 6.203125 -22 10.40625 -22 
C 17.09375 -22 21.90625 -16.40625 27.296875 -1.96875 
L 42.703125 38.984375 
C 44 42.1875 45.09375 43.1875 47.5 43.484375 
z
" id="Nimbus_Roman_No9_L_Regular-121"/>
     </defs>
     <use transform="scale(0.996264)" xlink:href="#Nimbus_Roman_No9_L_Regular-84"/>
     <use transform="translate(57.384904 0)scale(0.996264)" xlink:href="#Nimbus_Roman_No9_L_Regular-114"/>
     <use transform="translate(90.560134 0)scale(0.996264)" xlink:href="#Nimbus_Roman_No9_L_Regular-97"/>
     <use transform="translate(134.793703 0)scale(0.996264)" xlink:href="#Nimbus_Roman_No9_L_Regular-106"/>
     <use transform="translate(162.488872 0)scale(0.996264)" xlink:href="#Nimbus_Roman_No9_L_Regular-101"/>
     <use transform="translate(206.722441 0)scale(0.996264)" xlink:href="#Nimbus_Roman_No9_L_Regular-99"/>
     <use transform="translate(250.95601 0)scale(0.996264)" xlink:href="#Nimbus_Roman_No9_L_Regular-116"/>
     <use transform="translate(278.651179 0)scale(0.996264)" xlink:href="#Nimbus_Roman_No9_L_Regular-111"/>
     <use transform="translate(328.46438 0)scale(0.996264)" xlink:href="#Nimbus_Roman_No9_L_Regular-114"/>
     <use transform="translate(361.63961 0)scale(0.996264)" xlink:href="#Nimbus_Roman_No9_L_Regular-121"/>
    </g>
   </g>
  </g>
  <g id="text_13">
   <!-- It's a point! -->
   <g transform="translate(154.589701 19.358234)scale(0.18 -0.18)">
    <defs>
     <path d="M 11.5 10.859375 
C 11.5 3.390625 10.203125 2.1875 1.796875 1.890625 
L 1.796875 0 
L 31.5 0 
L 31.5 1.890625 
C 23.296875 2.1875 21.703125 3.59375 21.703125 10.859375 
L 21.703125 55.125 
C 21.703125 62.40625 23.09375 63.703125 31.5 64.09375 
L 31.5 66 
L 1.796875 66 
L 1.796875 64.09375 
C 10.296875 63.59375 11.5 62.5 11.5 55.125 
z
" id="Nimbus_Roman_No9_L_Regular-73"/>
     <path d="M 10.59375 43.6875 
C 17.296875 46.984375 21.796875 53.09375 21.796875 59.09375 
C 21.796875 64.09375 18.296875 68 13.796875 68 
C 10.296875 68 7.90625 65.6875 7.90625 62.296875 
C 7.90625 59.09375 10.203125 57.1875 13.796875 57.1875 
C 14.40625 57.1875 15.09375 57.296875 15.703125 57.390625 
C 16.40625 57.59375 16.40625 57.59375 16.5 57.59375 
C 17.296875 57.59375 17.90625 56.984375 17.90625 56.1875 
C 17.90625 52.890625 15.09375 49.296875 9.703125 45.59375 
z
" id="Nimbus_Roman_No9_L_Regular-39"/>
     <path d="M 31.5 31.390625 
L 31.09375 45 
L 30 45 
L 29.796875 44.796875 
C 28.90625 44.09375 28.796875 43.984375 28.40625 43.984375 
C 27.796875 43.984375 26.796875 44.1875 25.703125 44.6875 
C 23.5 45.59375 21.296875 46 18.703125 46 
C 10.796875 46 5.09375 40.890625 5.09375 33.671875 
C 5.09375 28.0625 8.296875 24.046875 16.796875 19.234375 
L 22.59375 15.921875 
C 26.09375 13.921875 27.796875 11.515625 27.796875 8.40625 
C 27.796875 4 24.59375 1.1875 19.5 1.1875 
C 16.09375 1.1875 13 2.5 11.09375 4.703125 
C 9 7.203125 8.09375 9.515625 6.796875 15.21875 
L 5.203125 15.21875 
L 5.203125 -0.40625 
L 6.5 -0.40625 
C 7.203125 0.59375 7.59375 0.796875 8.796875 0.796875 
C 9.703125 0.796875 11.09375 0.59375 13.40625 0 
C 16.203125 -0.609375 18.90625 -1 20.703125 -1 
C 28.40625 -1 34.796875 4.796875 34.796875 11.8125 
C 34.796875 16.828125 32.40625 20.140625 26.40625 23.75 
L 15.59375 30.15625 
C 12.796875 31.765625 11.296875 34.265625 11.296875 36.96875 
C 11.296875 40.984375 14.40625 43.796875 19 43.796875 
C 24.703125 43.796875 27.703125 40.390625 30 31.46875 
z
" id="Nimbus_Roman_No9_L_Regular-115"/>
     <path d="M 0.90625 39.296875 
C 1.796875 39.390625 2.5 39.390625 3.40625 39.390625 
C 6.796875 39.390625 7.5 38.390625 7.5 33.703125 
L 7.5 -13.109375 
C 7.5 -18.3125 6.40625 -19.40625 0.5 -20 
L 0.5 -21.703125 
L 24.703125 -21.703125 
L 24.703125 -20 
C 17.203125 -19.90625 15.90625 -18.796875 15.90625 -12.46875 
L 15.90625 3.296875 
C 19.40625 0 21.796875 -1 26 -1 
C 37.796875 -1 47 10.1875 47 24.6875 
C 47 37.09375 40 46 30.296875 46 
C 24.703125 46 20.296875 43.484375 15.90625 38.09375 
L 15.90625 45.796875 
L 15.296875 46 
C 9.90625 43.890625 6.40625 42.59375 0.90625 40.890625 
z
M 15.90625 33.390625 
C 15.90625 36.390625 21.5 39.984375 26.09375 39.984375 
C 33.5 39.984375 38.40625 32.390625 38.40625 20.796875 
C 38.40625 9.6875 33.5 2.1875 26.296875 2.1875 
C 21.59375 2.1875 15.90625 5.796875 15.90625 8.796875 
z
" id="Nimbus_Roman_No9_L_Regular-112"/>
     <path d="M 17.5 46 
L 2 40.5 
L 2 39 
L 2.796875 39.09375 
C 4 39.296875 5.296875 39.390625 6.203125 39.390625 
C 8.59375 39.390625 9.5 37.796875 9.5 33.390625 
L 9.5 10.1875 
C 9.5 3 8.5 1.890625 1.59375 1.5 
L 1.59375 0 
L 25.296875 0 
L 25.296875 1.5 
C 18.703125 2 17.90625 3 17.90625 10.1875 
L 17.90625 45.6875 
z
M 12.796875 68 
C 10.09375 68 7.796875 65.6875 7.796875 62.890625 
C 7.796875 60.09375 10 57.796875 12.796875 57.796875 
C 15.703125 57.796875 18 59.984375 18 62.890625 
C 18 65.6875 15.703125 68 12.796875 68 
z
" id="Nimbus_Roman_No9_L_Regular-105"/>
     <path d="M 1.59375 39.796875 
C 2.203125 40.09375 3.203125 40.1875 4.296875 40.1875 
C 7.09375 40.1875 8 38.6875 8 33.796875 
L 8 9 
C 8 3.296875 6.90625 1.890625 1.796875 1.5 
L 1.796875 0 
L 23 0 
L 23 1.5 
C 17.90625 1.890625 16.40625 3.09375 16.40625 6.6875 
L 16.40625 34.796875 
C 21.203125 39.296875 23.40625 40.484375 26.703125 40.484375 
C 31.59375 40.484375 34 37.390625 34 30.796875 
L 34 9.890625 
C 34 3.59375 32.703125 1.890625 27.703125 1.5 
L 27.703125 0 
L 48.5 0 
L 48.5 1.5 
C 43.59375 2 42.40625 3.1875 42.40625 8.09375 
L 42.40625 31 
C 42.40625 40.390625 38 46 30.59375 46 
C 26 46 22.90625 44.296875 16.09375 37.890625 
L 16.09375 45.796875 
L 15.40625 46 
C 10.5 44.1875 7.09375 43.09375 1.59375 41.484375 
z
" id="Nimbus_Roman_No9_L_Regular-110"/>
     <path d="M 18.90625 17.5625 
L 23.40625 56.203125 
C 23.5 57.421875 23.59375 58.53125 23.59375 59.9375 
C 23.59375 65.1875 21.703125 68 18.296875 68 
C 15 68 13 64.984375 13 60.234375 
C 13 57.921875 13.90625 49.640625 15 42.375 
C 15.90625 36.328125 16.5 30.984375 16.703125 28.453125 
L 17.59375 17.5625 
z
M 18.296875 9.6875 
C 15.296875 9.6875 13 7.296875 13 4.1875 
C 13 1.1875 15.203125 -1 18.203125 -1 
C 21.40625 -1 23.703125 1.1875 23.703125 4.1875 
C 23.703125 7.1875 21.296875 9.6875 18.296875 9.6875 
z
" id="Nimbus_Roman_No9_L_Regular-33"/>
    </defs>
    <use transform="scale(0.996264)" xlink:href="#Nimbus_Roman_No9_L_Regular-73"/>
    <use transform="translate(33.17523 0)scale(0.996264)" xlink:href="#Nimbus_Roman_No9_L_Regular-116"/>
    <use transform="translate(60.870399 0)scale(0.996264)" xlink:href="#Nimbus_Roman_No9_L_Regular-39"/>
    <use transform="translate(88.566907 0)scale(0.996264)" xlink:href="#Nimbus_Roman_No9_L_Regular-115"/>
    <use transform="translate(152.227213 0)scale(0.996264)" xlink:href="#Nimbus_Roman_No9_L_Regular-97"/>
    <use transform="translate(221.367382 0)scale(0.996264)" xlink:href="#Nimbus_Roman_No9_L_Regular-112"/>
    <use transform="translate(271.180583 0)scale(0.996264)" xlink:href="#Nimbus_Roman_No9_L_Regular-111"/>
    <use transform="translate(320.993783 0)scale(0.996264)" xlink:href="#Nimbus_Roman_No9_L_Regular-105"/>
    <use transform="translate(348.688953 0)scale(0.996264)" xlink:href="#Nimbus_Roman_No9_L_Regular-110"/>
    <use transform="translate(398.502153 0)scale(0.996264)" xlink:href="#Nimbus_Roman_No9_L_Regular-116"/>
    <use transform="translate(426.197323 0)scale(0.996264)" xlink:href="#Nimbus_Roman_No9_L_Regular-33"/>
   </g>
  </g>
 </g>
 <defs>
  <clipPath id="pebcb070e53">
   <rect height="217.44" width="324.588217" x="39.03909" y="36"/>
  </clipPath>
 </defs>
</svg>
