<?xml version="1.0" encoding="utf-8" standalone="no"?>
<!DOCTYPE svg PUBLIC "-//W3C//DTD SVG 1.1//EN"
  "http://www.w3.org/Graphics/SVG/1.1/DTD/svg11.dtd">
<!-- Created with matplotlib (https://matplotlib.org/) -->
<svg height="263.63625pt" version="1.1" viewBox="0 0 405.932812 263.63625" width="405.932812pt" xmlns="http://www.w3.org/2000/svg" xmlns:xlink="http://www.w3.org/1999/xlink">
 <metadata>
  <rdf:RDF xmlns:cc="http://creativecommons.org/ns#" xmlns:dc="http://purl.org/dc/elements/1.1/" xmlns:rdf="http://www.w3.org/1999/02/22-rdf-syntax-ns#">
   <cc:Work>
    <dc:type rdf:resource="http://purl.org/dc/dcmitype/StillImage"/>
    <dc:date>2021-10-05T17:13:18.095238</dc:date>
    <dc:format>image/svg+xml</dc:format>
    <dc:creator>
     <cc:Agent>
      <dc:title>Matplotlib v3.3.4, https://matplotlib.org/</dc:title>
     </cc:Agent>
    </dc:creator>
   </cc:Work>
  </rdf:RDF>
 </metadata>
 <defs>
  <style type="text/css">*{stroke-linecap:butt;stroke-linejoin:round;}</style>
 </defs>
 <g id="figure_1">
  <g id="patch_1">
   <path d="M 0 263.63625 
L 405.932812 263.63625 
L 405.932812 0 
L 0 0 
z
" style="fill:none;"/>
  </g>
  <g id="axes_1">
   <g id="patch_2">
    <path d="M 63.932812 239.758125 
L 398.732813 239.758125 
L 398.732813 22.318125 
L 63.932812 22.318125 
z
" style="fill:#ffffff;"/>
   </g>
   <g id="matplotlib.axis_1">
    <g id="xtick_1">
     <g id="line2d_1">
      <path clip-path="url(#p632b5ad41c)" d="M 79.150994 239.758125 
L 79.150994 22.318125 
" style="fill:none;stroke:#b0b0b0;stroke-linecap:square;stroke-width:0.8;"/>
     </g>
     <g id="line2d_2">
      <defs>
       <path d="M 0 0 
L 0 3.5 
" id="m8f4bb5a947" style="stroke:#000000;stroke-width:0.8;"/>
      </defs>
      <g>
       <use style="stroke:#000000;stroke-width:0.8;" x="79.150994" xlink:href="#m8f4bb5a947" y="239.758125"/>
      </g>
     </g>
     <g id="text_1">
      <!-- 0.0 -->
      <g transform="translate(71.199432 254.356563)scale(0.1 -0.1)">
       <defs>
        <path d="M 31.78125 66.40625 
Q 24.171875 66.40625 20.328125 58.90625 
Q 16.5 51.421875 16.5 36.375 
Q 16.5 21.390625 20.328125 13.890625 
Q 24.171875 6.390625 31.78125 6.390625 
Q 39.453125 6.390625 43.28125 13.890625 
Q 47.125 21.390625 47.125 36.375 
Q 47.125 51.421875 43.28125 58.90625 
Q 39.453125 66.40625 31.78125 66.40625 
z
M 31.78125 74.21875 
Q 44.046875 74.21875 50.515625 64.515625 
Q 56.984375 54.828125 56.984375 36.375 
Q 56.984375 17.96875 50.515625 8.265625 
Q 44.046875 -1.421875 31.78125 -1.421875 
Q 19.53125 -1.421875 13.0625 8.265625 
Q 6.59375 17.96875 6.59375 36.375 
Q 6.59375 54.828125 13.0625 64.515625 
Q 19.53125 74.21875 31.78125 74.21875 
z
" id="DejaVuSans-48"/>
        <path d="M 10.6875 12.40625 
L 21 12.40625 
L 21 0 
L 10.6875 0 
z
" id="DejaVuSans-46"/>
       </defs>
       <use xlink:href="#DejaVuSans-48"/>
       <use x="63.623047" xlink:href="#DejaVuSans-46"/>
       <use x="95.410156" xlink:href="#DejaVuSans-48"/>
      </g>
     </g>
    </g>
    <g id="xtick_2">
     <g id="line2d_3">
      <path clip-path="url(#p632b5ad41c)" d="M 117.196449 239.758125 
L 117.196449 22.318125 
" style="fill:none;stroke:#b0b0b0;stroke-linecap:square;stroke-width:0.8;"/>
     </g>
     <g id="line2d_4">
      <g>
       <use style="stroke:#000000;stroke-width:0.8;" x="117.196449" xlink:href="#m8f4bb5a947" y="239.758125"/>
      </g>
     </g>
     <g id="text_2">
      <!-- 2.5 -->
      <g transform="translate(109.244886 254.356563)scale(0.1 -0.1)">
       <defs>
        <path d="M 19.1875 8.296875 
L 53.609375 8.296875 
L 53.609375 0 
L 7.328125 0 
L 7.328125 8.296875 
Q 12.9375 14.109375 22.625 23.890625 
Q 32.328125 33.6875 34.8125 36.53125 
Q 39.546875 41.84375 41.421875 45.53125 
Q 43.3125 49.21875 43.3125 52.78125 
Q 43.3125 58.59375 39.234375 62.25 
Q 35.15625 65.921875 28.609375 65.921875 
Q 23.96875 65.921875 18.8125 64.3125 
Q 13.671875 62.703125 7.8125 59.421875 
L 7.8125 69.390625 
Q 13.765625 71.78125 18.9375 73 
Q 24.125 74.21875 28.421875 74.21875 
Q 39.75 74.21875 46.484375 68.546875 
Q 53.21875 62.890625 53.21875 53.421875 
Q 53.21875 48.921875 51.53125 44.890625 
Q 49.859375 40.875 45.40625 35.40625 
Q 44.1875 33.984375 37.640625 27.21875 
Q 31.109375 20.453125 19.1875 8.296875 
z
" id="DejaVuSans-50"/>
        <path d="M 10.796875 72.90625 
L 49.515625 72.90625 
L 49.515625 64.59375 
L 19.828125 64.59375 
L 19.828125 46.734375 
Q 21.96875 47.46875 24.109375 47.828125 
Q 26.265625 48.1875 28.421875 48.1875 
Q 40.625 48.1875 47.75 41.5 
Q 54.890625 34.8125 54.890625 23.390625 
Q 54.890625 11.625 47.5625 5.09375 
Q 40.234375 -1.421875 26.90625 -1.421875 
Q 22.3125 -1.421875 17.546875 -0.640625 
Q 12.796875 0.140625 7.71875 1.703125 
L 7.71875 11.625 
Q 12.109375 9.234375 16.796875 8.0625 
Q 21.484375 6.890625 26.703125 6.890625 
Q 35.15625 6.890625 40.078125 11.328125 
Q 45.015625 15.765625 45.015625 23.390625 
Q 45.015625 31 40.078125 35.4375 
Q 35.15625 39.890625 26.703125 39.890625 
Q 22.75 39.890625 18.8125 39.015625 
Q 14.890625 38.140625 10.796875 36.28125 
z
" id="DejaVuSans-53"/>
       </defs>
       <use xlink:href="#DejaVuSans-50"/>
       <use x="63.623047" xlink:href="#DejaVuSans-46"/>
       <use x="95.410156" xlink:href="#DejaVuSans-53"/>
      </g>
     </g>
    </g>
    <g id="xtick_3">
     <g id="line2d_5">
      <path clip-path="url(#p632b5ad41c)" d="M 155.241903 239.758125 
L 155.241903 22.318125 
" style="fill:none;stroke:#b0b0b0;stroke-linecap:square;stroke-width:0.8;"/>
     </g>
     <g id="line2d_6">
      <g>
       <use style="stroke:#000000;stroke-width:0.8;" x="155.241903" xlink:href="#m8f4bb5a947" y="239.758125"/>
      </g>
     </g>
     <g id="text_3">
      <!-- 5.0 -->
      <g transform="translate(147.290341 254.356563)scale(0.1 -0.1)">
       <use xlink:href="#DejaVuSans-53"/>
       <use x="63.623047" xlink:href="#DejaVuSans-46"/>
       <use x="95.410156" xlink:href="#DejaVuSans-48"/>
      </g>
     </g>
    </g>
    <g id="xtick_4">
     <g id="line2d_7">
      <path clip-path="url(#p632b5ad41c)" d="M 193.287358 239.758125 
L 193.287358 22.318125 
" style="fill:none;stroke:#b0b0b0;stroke-linecap:square;stroke-width:0.8;"/>
     </g>
     <g id="line2d_8">
      <g>
       <use style="stroke:#000000;stroke-width:0.8;" x="193.287358" xlink:href="#m8f4bb5a947" y="239.758125"/>
      </g>
     </g>
     <g id="text_4">
      <!-- 7.5 -->
      <g transform="translate(185.335795 254.356563)scale(0.1 -0.1)">
       <defs>
        <path d="M 8.203125 72.90625 
L 55.078125 72.90625 
L 55.078125 68.703125 
L 28.609375 0 
L 18.3125 0 
L 43.21875 64.59375 
L 8.203125 64.59375 
z
" id="DejaVuSans-55"/>
       </defs>
       <use xlink:href="#DejaVuSans-55"/>
       <use x="63.623047" xlink:href="#DejaVuSans-46"/>
       <use x="95.410156" xlink:href="#DejaVuSans-53"/>
      </g>
     </g>
    </g>
    <g id="xtick_5">
     <g id="line2d_9">
      <path clip-path="url(#p632b5ad41c)" d="M 231.332812 239.758125 
L 231.332812 22.318125 
" style="fill:none;stroke:#b0b0b0;stroke-linecap:square;stroke-width:0.8;"/>
     </g>
     <g id="line2d_10">
      <g>
       <use style="stroke:#000000;stroke-width:0.8;" x="231.332812" xlink:href="#m8f4bb5a947" y="239.758125"/>
      </g>
     </g>
     <g id="text_5">
      <!-- 10.0 -->
      <g transform="translate(220.2 254.356563)scale(0.1 -0.1)">
       <defs>
        <path d="M 12.40625 8.296875 
L 28.515625 8.296875 
L 28.515625 63.921875 
L 10.984375 60.40625 
L 10.984375 69.390625 
L 28.421875 72.90625 
L 38.28125 72.90625 
L 38.28125 8.296875 
L 54.390625 8.296875 
L 54.390625 0 
L 12.40625 0 
z
" id="DejaVuSans-49"/>
       </defs>
       <use xlink:href="#DejaVuSans-49"/>
       <use x="63.623047" xlink:href="#DejaVuSans-48"/>
       <use x="127.246094" xlink:href="#DejaVuSans-46"/>
       <use x="159.033203" xlink:href="#DejaVuSans-48"/>
      </g>
     </g>
    </g>
    <g id="xtick_6">
     <g id="line2d_11">
      <path clip-path="url(#p632b5ad41c)" d="M 269.378267 239.758125 
L 269.378267 22.318125 
" style="fill:none;stroke:#b0b0b0;stroke-linecap:square;stroke-width:0.8;"/>
     </g>
     <g id="line2d_12">
      <g>
       <use style="stroke:#000000;stroke-width:0.8;" x="269.378267" xlink:href="#m8f4bb5a947" y="239.758125"/>
      </g>
     </g>
     <g id="text_6">
      <!-- 12.5 -->
      <g transform="translate(258.245455 254.356563)scale(0.1 -0.1)">
       <use xlink:href="#DejaVuSans-49"/>
       <use x="63.623047" xlink:href="#DejaVuSans-50"/>
       <use x="127.246094" xlink:href="#DejaVuSans-46"/>
       <use x="159.033203" xlink:href="#DejaVuSans-53"/>
      </g>
     </g>
    </g>
    <g id="xtick_7">
     <g id="line2d_13">
      <path clip-path="url(#p632b5ad41c)" d="M 307.423722 239.758125 
L 307.423722 22.318125 
" style="fill:none;stroke:#b0b0b0;stroke-linecap:square;stroke-width:0.8;"/>
     </g>
     <g id="line2d_14">
      <g>
       <use style="stroke:#000000;stroke-width:0.8;" x="307.423722" xlink:href="#m8f4bb5a947" y="239.758125"/>
      </g>
     </g>
     <g id="text_7">
      <!-- 15.0 -->
      <g transform="translate(296.290909 254.356563)scale(0.1 -0.1)">
       <use xlink:href="#DejaVuSans-49"/>
       <use x="63.623047" xlink:href="#DejaVuSans-53"/>
       <use x="127.246094" xlink:href="#DejaVuSans-46"/>
       <use x="159.033203" xlink:href="#DejaVuSans-48"/>
      </g>
     </g>
    </g>
    <g id="xtick_8">
     <g id="line2d_15">
      <path clip-path="url(#p632b5ad41c)" d="M 345.469176 239.758125 
L 345.469176 22.318125 
" style="fill:none;stroke:#b0b0b0;stroke-linecap:square;stroke-width:0.8;"/>
     </g>
     <g id="line2d_16">
      <g>
       <use style="stroke:#000000;stroke-width:0.8;" x="345.469176" xlink:href="#m8f4bb5a947" y="239.758125"/>
      </g>
     </g>
     <g id="text_8">
      <!-- 17.5 -->
      <g transform="translate(334.336364 254.356563)scale(0.1 -0.1)">
       <use xlink:href="#DejaVuSans-49"/>
       <use x="63.623047" xlink:href="#DejaVuSans-55"/>
       <use x="127.246094" xlink:href="#DejaVuSans-46"/>
       <use x="159.033203" xlink:href="#DejaVuSans-53"/>
      </g>
     </g>
    </g>
    <g id="xtick_9">
     <g id="line2d_17">
      <path clip-path="url(#p632b5ad41c)" d="M 383.514631 239.758125 
L 383.514631 22.318125 
" style="fill:none;stroke:#b0b0b0;stroke-linecap:square;stroke-width:0.8;"/>
     </g>
     <g id="line2d_18">
      <g>
       <use style="stroke:#000000;stroke-width:0.8;" x="383.514631" xlink:href="#m8f4bb5a947" y="239.758125"/>
      </g>
     </g>
     <g id="text_9">
      <!-- 20.0 -->
      <g transform="translate(372.381818 254.356563)scale(0.1 -0.1)">
       <use xlink:href="#DejaVuSans-50"/>
       <use x="63.623047" xlink:href="#DejaVuSans-48"/>
       <use x="127.246094" xlink:href="#DejaVuSans-46"/>
       <use x="159.033203" xlink:href="#DejaVuSans-48"/>
      </g>
     </g>
    </g>
   </g>
   <g id="matplotlib.axis_2">
    <g id="ytick_1">
     <g id="line2d_19">
      <path clip-path="url(#p632b5ad41c)" d="M 63.932812 229.874489 
L 398.732813 229.874489 
" style="fill:none;stroke:#b0b0b0;stroke-linecap:square;stroke-width:0.8;"/>
     </g>
     <g id="line2d_20">
      <defs>
       <path d="M 0 0 
L -3.5 0 
" id="m916fb88595" style="stroke:#000000;stroke-width:0.8;"/>
      </defs>
      <g>
       <use style="stroke:#000000;stroke-width:0.8;" x="63.932812" xlink:href="#m916fb88595" y="229.874489"/>
      </g>
     </g>
     <g id="text_10">
      <!-- −0.00100 -->
      <g transform="translate(7.2 233.673707)scale(0.1 -0.1)">
       <defs>
        <path d="M 10.59375 35.5 
L 73.1875 35.5 
L 73.1875 27.203125 
L 10.59375 27.203125 
z
" id="DejaVuSans-8722"/>
       </defs>
       <use xlink:href="#DejaVuSans-8722"/>
       <use x="83.789062" xlink:href="#DejaVuSans-48"/>
       <use x="147.412109" xlink:href="#DejaVuSans-46"/>
       <use x="179.199219" xlink:href="#DejaVuSans-48"/>
       <use x="242.822266" xlink:href="#DejaVuSans-48"/>
       <use x="306.445312" xlink:href="#DejaVuSans-49"/>
       <use x="370.068359" xlink:href="#DejaVuSans-48"/>
       <use x="433.691406" xlink:href="#DejaVuSans-48"/>
      </g>
     </g>
    </g>
    <g id="ytick_2">
     <g id="line2d_21">
      <path clip-path="url(#p632b5ad41c)" d="M 63.932812 205.123695 
L 398.732813 205.123695 
" style="fill:none;stroke:#b0b0b0;stroke-linecap:square;stroke-width:0.8;"/>
     </g>
     <g id="line2d_22">
      <g>
       <use style="stroke:#000000;stroke-width:0.8;" x="63.932812" xlink:href="#m916fb88595" y="205.123695"/>
      </g>
     </g>
     <g id="text_11">
      <!-- −0.00075 -->
      <g transform="translate(7.2 208.922913)scale(0.1 -0.1)">
       <use xlink:href="#DejaVuSans-8722"/>
       <use x="83.789062" xlink:href="#DejaVuSans-48"/>
       <use x="147.412109" xlink:href="#DejaVuSans-46"/>
       <use x="179.199219" xlink:href="#DejaVuSans-48"/>
       <use x="242.822266" xlink:href="#DejaVuSans-48"/>
       <use x="306.445312" xlink:href="#DejaVuSans-48"/>
       <use x="370.068359" xlink:href="#DejaVuSans-55"/>
       <use x="433.691406" xlink:href="#DejaVuSans-53"/>
      </g>
     </g>
    </g>
    <g id="ytick_3">
     <g id="line2d_23">
      <path clip-path="url(#p632b5ad41c)" d="M 63.932812 180.372901 
L 398.732813 180.372901 
" style="fill:none;stroke:#b0b0b0;stroke-linecap:square;stroke-width:0.8;"/>
     </g>
     <g id="line2d_24">
      <g>
       <use style="stroke:#000000;stroke-width:0.8;" x="63.932812" xlink:href="#m916fb88595" y="180.372901"/>
      </g>
     </g>
     <g id="text_12">
      <!-- −0.00050 -->
      <g transform="translate(7.2 184.172119)scale(0.1 -0.1)">
       <use xlink:href="#DejaVuSans-8722"/>
       <use x="83.789062" xlink:href="#DejaVuSans-48"/>
       <use x="147.412109" xlink:href="#DejaVuSans-46"/>
       <use x="179.199219" xlink:href="#DejaVuSans-48"/>
       <use x="242.822266" xlink:href="#DejaVuSans-48"/>
       <use x="306.445312" xlink:href="#DejaVuSans-48"/>
       <use x="370.068359" xlink:href="#DejaVuSans-53"/>
       <use x="433.691406" xlink:href="#DejaVuSans-48"/>
      </g>
     </g>
    </g>
    <g id="ytick_4">
     <g id="line2d_25">
      <path clip-path="url(#p632b5ad41c)" d="M 63.932812 155.622107 
L 398.732813 155.622107 
" style="fill:none;stroke:#b0b0b0;stroke-linecap:square;stroke-width:0.8;"/>
     </g>
     <g id="line2d_26">
      <g>
       <use style="stroke:#000000;stroke-width:0.8;" x="63.932812" xlink:href="#m916fb88595" y="155.622107"/>
      </g>
     </g>
     <g id="text_13">
      <!-- −0.00025 -->
      <g transform="translate(7.2 159.421326)scale(0.1 -0.1)">
       <use xlink:href="#DejaVuSans-8722"/>
       <use x="83.789062" xlink:href="#DejaVuSans-48"/>
       <use x="147.412109" xlink:href="#DejaVuSans-46"/>
       <use x="179.199219" xlink:href="#DejaVuSans-48"/>
       <use x="242.822266" xlink:href="#DejaVuSans-48"/>
       <use x="306.445312" xlink:href="#DejaVuSans-48"/>
       <use x="370.068359" xlink:href="#DejaVuSans-50"/>
       <use x="433.691406" xlink:href="#DejaVuSans-53"/>
      </g>
     </g>
    </g>
    <g id="ytick_5">
     <g id="line2d_27">
      <path clip-path="url(#p632b5ad41c)" d="M 63.932812 130.871313 
L 398.732813 130.871313 
" style="fill:none;stroke:#b0b0b0;stroke-linecap:square;stroke-width:0.8;"/>
     </g>
     <g id="line2d_28">
      <g>
       <use style="stroke:#000000;stroke-width:0.8;" x="63.932812" xlink:href="#m916fb88595" y="130.871313"/>
      </g>
     </g>
     <g id="text_14">
      <!-- 0.00000 -->
      <g transform="translate(15.579687 134.670532)scale(0.1 -0.1)">
       <use xlink:href="#DejaVuSans-48"/>
       <use x="63.623047" xlink:href="#DejaVuSans-46"/>
       <use x="95.410156" xlink:href="#DejaVuSans-48"/>
       <use x="159.033203" xlink:href="#DejaVuSans-48"/>
       <use x="222.65625" xlink:href="#DejaVuSans-48"/>
       <use x="286.279297" xlink:href="#DejaVuSans-48"/>
       <use x="349.902344" xlink:href="#DejaVuSans-48"/>
      </g>
     </g>
    </g>
    <g id="ytick_6">
     <g id="line2d_29">
      <path clip-path="url(#p632b5ad41c)" d="M 63.932812 106.120519 
L 398.732813 106.120519 
" style="fill:none;stroke:#b0b0b0;stroke-linecap:square;stroke-width:0.8;"/>
     </g>
     <g id="line2d_30">
      <g>
       <use style="stroke:#000000;stroke-width:0.8;" x="63.932812" xlink:href="#m916fb88595" y="106.120519"/>
      </g>
     </g>
     <g id="text_15">
      <!-- 0.00025 -->
      <g transform="translate(15.579687 109.919738)scale(0.1 -0.1)">
       <use xlink:href="#DejaVuSans-48"/>
       <use x="63.623047" xlink:href="#DejaVuSans-46"/>
       <use x="95.410156" xlink:href="#DejaVuSans-48"/>
       <use x="159.033203" xlink:href="#DejaVuSans-48"/>
       <use x="222.65625" xlink:href="#DejaVuSans-48"/>
       <use x="286.279297" xlink:href="#DejaVuSans-50"/>
       <use x="349.902344" xlink:href="#DejaVuSans-53"/>
      </g>
     </g>
    </g>
    <g id="ytick_7">
     <g id="line2d_31">
      <path clip-path="url(#p632b5ad41c)" d="M 63.932812 81.369725 
L 398.732813 81.369725 
" style="fill:none;stroke:#b0b0b0;stroke-linecap:square;stroke-width:0.8;"/>
     </g>
     <g id="line2d_32">
      <g>
       <use style="stroke:#000000;stroke-width:0.8;" x="63.932812" xlink:href="#m916fb88595" y="81.369725"/>
      </g>
     </g>
     <g id="text_16">
      <!-- 0.00050 -->
      <g transform="translate(15.579687 85.168944)scale(0.1 -0.1)">
       <use xlink:href="#DejaVuSans-48"/>
       <use x="63.623047" xlink:href="#DejaVuSans-46"/>
       <use x="95.410156" xlink:href="#DejaVuSans-48"/>
       <use x="159.033203" xlink:href="#DejaVuSans-48"/>
       <use x="222.65625" xlink:href="#DejaVuSans-48"/>
       <use x="286.279297" xlink:href="#DejaVuSans-53"/>
       <use x="349.902344" xlink:href="#DejaVuSans-48"/>
      </g>
     </g>
    </g>
    <g id="ytick_8">
     <g id="line2d_33">
      <path clip-path="url(#p632b5ad41c)" d="M 63.932812 56.618931 
L 398.732813 56.618931 
" style="fill:none;stroke:#b0b0b0;stroke-linecap:square;stroke-width:0.8;"/>
     </g>
     <g id="line2d_34">
      <g>
       <use style="stroke:#000000;stroke-width:0.8;" x="63.932812" xlink:href="#m916fb88595" y="56.618931"/>
      </g>
     </g>
     <g id="text_17">
      <!-- 0.00075 -->
      <g transform="translate(15.579687 60.41815)scale(0.1 -0.1)">
       <use xlink:href="#DejaVuSans-48"/>
       <use x="63.623047" xlink:href="#DejaVuSans-46"/>
       <use x="95.410156" xlink:href="#DejaVuSans-48"/>
       <use x="159.033203" xlink:href="#DejaVuSans-48"/>
       <use x="222.65625" xlink:href="#DejaVuSans-48"/>
       <use x="286.279297" xlink:href="#DejaVuSans-55"/>
       <use x="349.902344" xlink:href="#DejaVuSans-53"/>
      </g>
     </g>
    </g>
    <g id="ytick_9">
     <g id="line2d_35">
      <path clip-path="url(#p632b5ad41c)" d="M 63.932812 31.868137 
L 398.732813 31.868137 
" style="fill:none;stroke:#b0b0b0;stroke-linecap:square;stroke-width:0.8;"/>
     </g>
     <g id="line2d_36">
      <g>
       <use style="stroke:#000000;stroke-width:0.8;" x="63.932812" xlink:href="#m916fb88595" y="31.868137"/>
      </g>
     </g>
     <g id="text_18">
      <!-- 0.00100 -->
      <g transform="translate(15.579687 35.667356)scale(0.1 -0.1)">
       <use xlink:href="#DejaVuSans-48"/>
       <use x="63.623047" xlink:href="#DejaVuSans-46"/>
       <use x="95.410156" xlink:href="#DejaVuSans-48"/>
       <use x="159.033203" xlink:href="#DejaVuSans-48"/>
       <use x="222.65625" xlink:href="#DejaVuSans-49"/>
       <use x="286.279297" xlink:href="#DejaVuSans-48"/>
       <use x="349.902344" xlink:href="#DejaVuSans-48"/>
      </g>
     </g>
    </g>
   </g>
   <g id="line2d_37">
    <path clip-path="url(#p632b5ad41c)" d="M 79.150994 229.874489 
L 79.455663 229.780281 
L 79.760331 229.497881 
L 80.369668 228.371781 
L 80.979004 226.506794 
L 81.588341 223.921123 
L 82.502346 218.747716 
L 83.416351 212.122304 
L 84.635024 201.281343 
L 86.158365 185.098632 
L 88.291043 159.265435 
L 92.251731 110.656207 
L 93.775073 94.781671 
L 94.993746 84.093124 
L 96.212419 75.514947 
L 97.126424 70.586458 
L 98.040429 66.998922 
L 98.649766 65.35819 
L 99.259102 64.312837 
L 99.868439 63.851009 
L 100.173107 63.833548 
L 100.477776 63.954746 
L 101.087112 64.600288 
L 101.696449 65.758306 
L 102.305785 67.39442 
L 103.21979 70.659131 
L 104.133795 74.764294 
L 105.352469 81.262165 
L 107.180478 92.357529 
L 110.227161 110.965369 
L 111.750503 118.792359 
L 112.969176 123.832225 
L 113.883181 126.777898 
L 114.797186 128.959686 
L 115.406523 129.982104 
L 116.015859 130.661888 
L 116.625196 131.007574 
L 117.234532 131.033283 
L 117.843869 130.758127 
L 118.453206 130.206143 
L 119.367211 128.922296 
L 120.281215 127.19269 
L 121.804557 123.675199 
L 124.241903 117.89659 
L 125.155908 116.170929 
L 126.069913 114.908089 
L 126.67925 114.386408 
L 127.288586 114.160323 
L 127.897923 114.259206 
L 128.50726 114.708122 
L 129.116596 115.527211 
L 129.725933 116.731436 
L 130.33527 118.330465 
L 131.249274 121.47633 
L 132.163279 125.506935 
L 133.381953 132.182853 
L 134.600626 140.179768 
L 136.123967 151.627632 
L 141.607997 194.937274 
L 142.82667 202.250986 
L 143.740675 206.589835 
L 144.65468 209.775782 
L 145.264016 211.194709 
L 145.873353 212.012015 
L 146.178021 212.186754 
L 146.48269 212.201877 
L 146.787358 212.055133 
L 147.092026 211.744677 
L 147.701363 210.627247 
L 148.310699 208.84305 
L 148.920036 206.392405 
L 149.834041 201.48463 
L 150.748046 195.148904 
L 151.966719 184.636594 
L 153.185392 172.042949 
L 154.708734 153.974335 
L 157.14608 121.93037 
L 160.192763 82.412881 
L 161.716105 65.378047 
L 162.934778 53.942222 
L 163.848783 46.908718 
L 164.762788 41.347498 
L 165.676793 37.357956 
L 166.286129 35.604794 
L 166.895466 34.589801 
L 167.200134 34.360369 
L 167.504803 34.316057 
L 167.809471 34.456081 
L 168.114139 34.779211 
L 168.723476 35.967922 
L 169.332812 37.863745 
L 169.942149 40.441536 
L 170.856154 45.516069 
L 171.770159 51.920688 
L 172.988832 62.251033 
L 174.512174 77.415376 
L 176.94952 104.573333 
L 179.691535 134.824845 
L 181.214876 149.566632 
L 182.43355 159.639679 
L 183.652223 167.880152 
L 184.566228 172.746196 
L 185.480233 176.439633 
L 186.089569 178.245832 
L 186.698906 179.533027 
L 187.308242 180.312985 
L 187.917579 180.603448 
L 188.222247 180.572102 
L 188.831584 180.173111 
L 189.440921 179.35174 
L 190.050257 178.142818 
L 190.964262 175.688686 
L 192.182935 171.448462 
L 193.706277 165.12201 
L 197.057628 150.735527 
L 198.276301 146.455792 
L 199.190306 143.863811 
L 200.104311 141.895936 
L 200.713648 140.960251 
L 201.322984 140.338401 
L 201.932321 140.035268 
L 202.541658 140.050134 
L 203.150994 140.376711 
L 203.760331 141.00341 
L 204.369668 141.913047 
L 205.283672 143.758892 
L 206.502346 146.967068 
L 208.025687 151.776816 
L 210.767702 160.653125 
L 211.986375 163.790576 
L 212.90038 165.502373 
L 213.509717 166.2617 
L 214.119053 166.67287 
L 214.72839 166.703697 
L 215.337727 166.326281 
L 215.947063 165.517549 
L 216.5564 164.259691 
L 217.165736 162.540354 
L 218.079741 159.083405 
L 218.993746 154.578076 
L 219.907751 149.058498 
L 221.126424 140.237812 
L 222.649766 127.210012 
L 224.782444 106.437223 
L 228.438464 70.292925 
L 229.961805 57.645406 
L 231.180478 49.479569 
L 232.094483 44.759632 
L 233.008488 41.401285 
L 233.617825 39.97532 
L 234.227161 39.230352 
L 234.53183 39.119477 
L 234.836498 39.185458 
L 235.141166 39.429586 
L 235.750503 40.455408 
L 236.35984 42.198566 
L 236.969176 44.653596 
L 237.883181 49.641305 
L 238.797186 56.128426 
L 240.015859 66.921754 
L 241.234532 79.848319 
L 242.757874 98.349562 
L 245.499889 135.156558 
L 248.241903 170.98035 
L 249.765245 188.152901 
L 250.983918 199.690039 
L 251.897923 206.814775 
L 252.811928 212.497018 
L 253.725933 216.653458 
L 254.33527 218.551462 
L 254.944606 219.7437 
L 255.249274 220.075395 
L 255.553943 220.231816 
L 255.858611 220.214241 
L 256.163279 220.024395 
L 256.772616 219.136965 
L 257.381953 217.591607 
L 257.991289 215.416688 
L 258.905294 211.050515 
L 259.819299 205.484534 
L 261.037972 196.479574 
L 262.561314 183.29812 
L 265.607997 154.091625 
L 267.740675 134.642195 
L 269.264016 122.681709 
L 270.48269 114.739351 
L 271.396695 109.869629 
L 272.310699 105.989565 
L 273.224704 103.118288 
L 273.834041 101.760209 
L 274.443378 100.835553 
L 275.052714 100.328112 
L 275.662051 100.216475 
L 276.271387 100.474489 
L 276.880724 101.071414 
L 277.490061 101.972667 
L 278.404066 103.810908 
L 279.622739 106.949048 
L 282.060085 114.226731 
L 283.583427 118.412331 
L 284.497432 120.456507 
L 285.411437 122.005898 
L 286.020773 122.716104 
L 286.63011 123.141269 
L 287.239446 123.263854 
L 287.848783 123.071573 
L 288.45812 122.557556 
L 289.067456 121.720455 
L 289.676793 120.564481 
L 290.590798 118.255458 
L 291.504803 115.308032 
L 292.723476 110.530141 
L 294.246817 103.57043 
L 297.902837 86.257302 
L 299.12151 81.657638 
L 300.035515 78.99502 
L 300.644852 77.676871 
L 301.254188 76.77021 
L 301.863525 76.309852 
L 302.168193 76.256724 
L 302.472862 76.326147 
L 303.082198 76.844438 
L 303.691535 77.884581 
L 304.300871 79.46074 
L 304.910208 81.581031 
L 305.824213 85.784012 
L 306.738218 91.193302 
L 307.956891 100.185771 
L 309.175564 111.011225 
L 310.698906 126.644701 
L 313.136252 154.608363 
L 316.182935 189.288741 
L 317.706277 204.146593 
L 318.92495 213.96439 
L 319.838955 219.846947 
L 320.75296 224.299145 
L 321.362297 226.415542 
L 321.971633 227.819927 
L 322.58097 228.49362 
L 322.885638 228.552572 
L 323.190306 228.425051 
L 323.494975 228.110753 
L 324.104311 226.922778 
L 324.713648 224.995128 
L 325.322984 222.341522 
L 326.236989 217.047359 
L 327.150994 210.267227 
L 328.369668 199.147502 
L 329.893009 182.471097 
L 331.721019 159.630517 
L 336.595712 97.244686 
L 338.119053 81.263258 
L 339.337727 70.723668 
L 340.251731 64.329005 
L 341.165736 59.327461 
L 342.079741 55.771258 
L 342.689078 54.213528 
L 343.298414 53.303376 
L 343.603083 53.088294 
L 343.907751 53.030847 
L 344.212419 53.128741 
L 344.517088 53.37934 
L 345.126424 54.32626 
L 345.735761 55.842934 
L 346.345098 57.895441 
L 347.259102 61.892393 
L 348.173107 66.85662 
L 349.391781 74.68833 
L 351.21979 88.14783 
L 354.87581 115.715048 
L 356.399152 125.410856 
L 357.617825 131.800858 
L 358.53183 135.66892 
L 359.445835 138.692883 
L 360.35984 140.857801 
L 360.969176 141.829584 
L 361.578513 142.436458 
L 362.187849 142.694796 
L 362.797186 142.626275 
L 363.406523 142.256945 
L 364.015859 141.617285 
L 364.929864 140.226561 
L 366.148537 137.771132 
L 370.109225 129.024764 
L 371.02323 127.705412 
L 371.632567 127.117779 
L 372.241903 126.800507 
L 372.85124 126.780616 
L 373.460577 127.080494 
L 374.069913 127.717592 
L 374.67925 128.704204 
L 375.288586 130.047126 
L 376.202591 132.730669 
L 377.116596 136.197362 
L 378.33527 141.949932 
L 379.553943 148.81409 
L 381.381953 160.583335 
L 383.514631 175.095557 
L 383.514631 175.095557 
" style="fill:none;stroke:#000000;stroke-linecap:square;stroke-width:1.5;"/>
   </g>
   <g id="line2d_38">
    <path clip-path="url(#p632b5ad41c)" d="M 79.150994 120.970995 
L 79.760331 120.812546 
L 80.369668 120.340027 
L 80.979004 119.561499 
L 81.893009 117.85158 
L 82.807014 115.553198 
L 84.025687 111.736203 
L 85.853697 104.983722 
L 88.291043 95.885727 
L 89.509717 92.143929 
L 90.423722 89.995293 
L 91.033058 88.956076 
L 91.642395 88.276557 
L 92.251731 87.99118 
L 92.861068 88.130144 
L 93.470405 88.718998 
L 94.079741 89.778042 
L 94.689078 91.322103 
L 95.298414 93.360262 
L 96.212419 97.348836 
L 97.126424 102.438646 
L 98.345098 110.851832 
L 99.563771 120.937681 
L 101.087112 135.449219 
L 103.524459 161.252375 
L 106.266473 189.902801 
L 107.789815 203.608076 
L 109.008488 212.62218 
L 109.922493 217.971301 
L 110.836498 221.946947 
L 111.445835 223.775326 
L 112.055171 224.913737 
L 112.35984 225.217525 
L 112.664508 225.341732 
L 112.969176 225.284846 
L 113.273844 225.045814 
L 113.883181 224.019468 
L 114.492518 222.263436 
L 115.101854 219.785518 
L 116.015859 214.750299 
L 116.929864 208.206974 
L 118.148537 197.338607 
L 119.367211 184.351861 
L 120.890552 165.816969 
L 123.632567 129.114385 
L 126.069913 97.299827 
L 127.593255 79.840627 
L 128.811928 67.967045 
L 130.030601 58.355627 
L 130.944606 52.79718 
L 131.858611 48.738993 
L 132.467948 46.887951 
L 133.077284 45.72488 
L 133.381953 45.400338 
L 133.686621 45.245728 
L 133.991289 45.259468 
L 134.295957 45.439566 
L 134.905294 46.288831 
L 135.514631 47.769571 
L 136.123967 49.851776 
L 137.037972 54.023421 
L 137.951977 59.325423 
L 139.17065 67.867889 
L 140.693992 80.296465 
L 146.48269 129.787834 
L 147.701363 137.862683 
L 148.920036 144.442322 
L 149.834041 148.306411 
L 150.748046 151.221753 
L 151.357383 152.639239 
L 151.966719 153.645013 
L 152.576056 154.253183 
L 153.185392 154.483133 
L 153.794729 154.359188 
L 154.404066 153.910163 
L 155.013402 153.169016 
L 155.927407 151.590186 
L 157.14608 148.826919 
L 161.716105 137.544795 
L 162.63011 136.167062 
L 163.239446 135.561098 
L 163.848783 135.235529 
L 164.45812 135.211068 
L 165.067456 135.503473 
L 165.676793 136.123131 
L 166.286129 137.075059 
L 166.895466 138.3586 
L 167.809471 140.890685 
L 168.723476 144.109226 
L 169.942149 149.341171 
L 171.465491 157.044244 
L 176.035515 181.439915 
L 177.254188 186.384059 
L 178.168193 189.185957 
L 178.77753 190.541181 
L 179.386867 191.44152 
L 179.996203 191.853646 
L 180.300871 191.867507 
L 180.60554 191.749056 
L 181.214876 191.104585 
L 181.824213 189.902854 
L 182.43355 188.132451 
L 183.042886 185.788242 
L 183.956891 181.200727 
L 184.870896 175.358635 
L 186.089569 165.73444 
L 187.308242 154.240495 
L 188.831584 137.761228 
L 191.26893 108.531534 
L 194.010945 75.953979 
L 195.534287 60.153614 
L 196.75296 49.541837 
L 197.666965 43.048275 
L 198.58097 37.977346 
L 199.190306 35.446656 
L 199.799643 33.628259 
L 200.40898 32.542265 
L 200.713648 32.278302 
L 201.018316 32.201761 
L 201.322984 32.313165 
L 201.627653 32.612572 
L 202.236989 33.7733 
L 202.846326 35.675188 
L 203.455663 38.302382 
L 204.369668 43.550832 
L 205.283672 50.271938 
L 206.502346 61.282219 
L 208.025687 77.757036 
L 209.853697 100.243763 
L 214.423722 157.753764 
L 215.947063 173.751902 
L 217.165736 184.421706 
L 218.079741 190.981868 
L 218.993746 196.206202 
L 219.907751 200.041166 
L 220.517088 201.814949 
L 221.126424 202.96456 
L 221.735761 203.499204 
L 222.040429 203.540543 
L 222.345098 203.434511 
L 222.954434 202.792284 
L 223.563771 201.599937 
L 224.173107 199.890421 
L 225.087112 196.439989 
L 226.001117 192.056726 
L 227.21979 185.044538 
L 229.0478 172.884132 
L 232.70382 147.989469 
L 234.227161 139.359599 
L 235.445835 133.772453 
L 236.35984 130.467915 
L 237.273844 127.967967 
L 237.883181 126.754216 
L 238.492518 125.898604 
L 239.101854 125.391348 
L 239.711191 125.21727 
L 240.320527 125.356078 
L 240.929864 125.782861 
L 241.539201 126.468201 
L 242.453206 127.907559 
L 243.671879 130.394881 
L 247.327898 138.497854 
L 248.241903 139.895165 
L 248.85124 140.543391 
L 249.460577 140.924785 
L 250.069913 141.009231 
L 250.67925 140.77085 
L 251.288586 140.188391 
L 251.897923 139.24572 
L 252.50726 137.93199 
L 253.421265 135.255567 
L 254.33527 131.739802 
L 255.249274 127.420022 
L 256.467948 120.524277 
L 257.991289 110.41252 
L 260.428636 92.296001 
L 262.865982 74.64811 
L 264.084655 67.108954 
L 265.303328 61.001769 
L 266.217333 57.594179 
L 266.82667 55.96052 
L 267.436007 54.879614 
L 268.045343 54.38179 
L 268.350012 54.359466 
L 268.65468 54.491703 
L 268.959348 54.780658 
L 269.568685 55.835162 
L 270.178021 57.532013 
L 270.787358 59.873503 
L 271.701363 64.582779 
L 272.615368 70.686907 
L 273.834041 80.855981 
L 275.052714 93.087669 
L 276.576056 110.709139 
L 279.013402 142.128091 
L 282.060085 181.127365 
L 283.583427 198.02057 
L 284.8021 209.388211 
L 285.716105 216.389115 
L 286.63011 221.926675 
L 287.544115 225.894491 
L 288.153451 227.630582 
L 288.762788 228.623754 
L 289.067456 228.839828 
L 289.372125 228.868771 
L 289.676793 228.71106 
L 289.981461 228.367623 
L 290.590798 227.129576 
L 291.200134 225.17105 
L 291.809471 222.515248 
L 292.723476 217.291674 
L 293.637481 210.695233 
L 294.856154 200.036657 
L 296.379496 184.340509 
L 298.512174 159.695144 
L 301.863525 120.967937 
L 303.386867 105.743282 
L 304.60554 95.395106 
L 305.824213 86.984733 
L 306.738218 82.062994 
L 307.652223 78.376749 
L 308.261559 76.610618 
L 308.870896 75.391751 
L 309.480233 74.708098 
L 309.784901 74.561685 
L 310.089569 74.541954 
L 310.394238 74.645803 
L 311.003574 75.210327 
L 311.612911 76.224134 
L 312.222247 77.651698 
L 313.136252 80.4813 
L 314.354926 85.305771 
L 315.878267 92.48408 
L 319.838955 111.803762 
L 321.057628 116.542324 
L 321.971633 119.417302 
L 322.885638 121.626773 
L 323.494975 122.705985 
L 324.104311 123.461365 
L 324.713648 123.891609 
L 325.322984 124.000987 
L 325.932321 123.799248 
L 326.541658 123.301398 
L 327.150994 122.527649 
L 328.064999 120.905472 
L 328.979004 118.822066 
L 330.502346 114.661278 
L 333.24436 106.911711 
L 334.463034 104.242655 
L 335.377039 102.859855 
L 335.986375 102.306111 
L 336.595712 102.087304 
L 337.205048 102.233616 
L 337.814385 102.770855 
L 338.423722 103.719877 
L 339.033058 105.096272 
L 339.642395 106.910195 
L 340.5564 110.459212 
L 341.470405 114.990441 
L 342.689078 122.484936 
L 343.907751 131.470027 
L 345.431093 144.380943 
L 348.173107 170.112125 
L 350.610454 192.142449 
L 352.133795 203.715082 
L 353.352469 211.034255 
L 354.266473 215.135338 
L 354.87581 217.131029 
L 355.485147 218.496495 
L 356.094483 219.204482 
L 356.399152 219.305089 
L 356.70382 219.233993 
L 357.008488 218.989598 
L 357.617825 217.976692 
L 358.227161 216.262394 
L 358.836498 213.849738 
L 359.750503 208.945375 
L 360.664508 202.557738 
L 361.883181 191.907908 
L 363.101854 179.120403 
L 364.625196 160.762905 
L 367.062542 128.226873 
L 370.109225 88.137515 
L 371.632567 70.832889 
L 372.85124 59.173284 
L 374.069913 49.870262 
L 374.983918 44.613291 
L 375.593255 41.975555 
L 376.202591 40.049912 
L 376.811928 38.844261 
L 377.116596 38.511955 
L 377.421265 38.359383 
L 377.725933 38.385526 
L 378.030601 38.588912 
L 378.639938 39.51943 
L 379.249274 41.130881 
L 379.858611 43.396377 
L 380.772616 47.947864 
L 381.686621 53.761521 
L 382.905294 63.197163 
L 383.514631 68.51544 
L 383.514631 68.51544 
" style="fill:none;stroke:#0000ff;stroke-linecap:square;stroke-width:1.5;"/>
   </g>
   <g id="patch_3">
    <path d="M 63.932812 239.758125 
L 63.932812 22.318125 
" style="fill:none;stroke:#000000;stroke-linecap:square;stroke-linejoin:miter;stroke-width:0.8;"/>
   </g>
   <g id="patch_4">
    <path d="M 398.732813 239.758125 
L 398.732813 22.318125 
" style="fill:none;stroke:#000000;stroke-linecap:square;stroke-linejoin:miter;stroke-width:0.8;"/>
   </g>
   <g id="patch_5">
    <path d="M 63.932812 239.758125 
L 398.732813 239.758125 
" style="fill:none;stroke:#000000;stroke-linecap:square;stroke-linejoin:miter;stroke-width:0.8;"/>
   </g>
   <g id="patch_6">
    <path d="M 63.932812 22.318125 
L 398.732813 22.318125 
" style="fill:none;stroke:#000000;stroke-linecap:square;stroke-linejoin:miter;stroke-width:0.8;"/>
   </g>
   <g id="text_19">
    <!-- Unknown mode -->
    <g transform="translate(184.558125 16.318125)scale(0.12 -0.12)">
     <defs>
      <path d="M 8.6875 72.90625 
L 18.609375 72.90625 
L 18.609375 28.609375 
Q 18.609375 16.890625 22.84375 11.734375 
Q 27.09375 6.59375 36.625 6.59375 
Q 46.09375 6.59375 50.34375 11.734375 
Q 54.59375 16.890625 54.59375 28.609375 
L 54.59375 72.90625 
L 64.5 72.90625 
L 64.5 27.390625 
Q 64.5 13.140625 57.4375 5.859375 
Q 50.390625 -1.421875 36.625 -1.421875 
Q 22.796875 -1.421875 15.734375 5.859375 
Q 8.6875 13.140625 8.6875 27.390625 
z
" id="DejaVuSans-85"/>
      <path d="M 54.890625 33.015625 
L 54.890625 0 
L 45.90625 0 
L 45.90625 32.71875 
Q 45.90625 40.484375 42.875 44.328125 
Q 39.84375 48.1875 33.796875 48.1875 
Q 26.515625 48.1875 22.3125 43.546875 
Q 18.109375 38.921875 18.109375 30.90625 
L 18.109375 0 
L 9.078125 0 
L 9.078125 54.6875 
L 18.109375 54.6875 
L 18.109375 46.1875 
Q 21.34375 51.125 25.703125 53.5625 
Q 30.078125 56 35.796875 56 
Q 45.21875 56 50.046875 50.171875 
Q 54.890625 44.34375 54.890625 33.015625 
z
" id="DejaVuSans-110"/>
      <path d="M 9.078125 75.984375 
L 18.109375 75.984375 
L 18.109375 31.109375 
L 44.921875 54.6875 
L 56.390625 54.6875 
L 27.390625 29.109375 
L 57.625 0 
L 45.90625 0 
L 18.109375 26.703125 
L 18.109375 0 
L 9.078125 0 
z
" id="DejaVuSans-107"/>
      <path d="M 30.609375 48.390625 
Q 23.390625 48.390625 19.1875 42.75 
Q 14.984375 37.109375 14.984375 27.296875 
Q 14.984375 17.484375 19.15625 11.84375 
Q 23.34375 6.203125 30.609375 6.203125 
Q 37.796875 6.203125 41.984375 11.859375 
Q 46.1875 17.53125 46.1875 27.296875 
Q 46.1875 37.015625 41.984375 42.703125 
Q 37.796875 48.390625 30.609375 48.390625 
z
M 30.609375 56 
Q 42.328125 56 49.015625 48.375 
Q 55.71875 40.765625 55.71875 27.296875 
Q 55.71875 13.875 49.015625 6.21875 
Q 42.328125 -1.421875 30.609375 -1.421875 
Q 18.84375 -1.421875 12.171875 6.21875 
Q 5.515625 13.875 5.515625 27.296875 
Q 5.515625 40.765625 12.171875 48.375 
Q 18.84375 56 30.609375 56 
z
" id="DejaVuSans-111"/>
      <path d="M 4.203125 54.6875 
L 13.1875 54.6875 
L 24.421875 12.015625 
L 35.59375 54.6875 
L 46.1875 54.6875 
L 57.421875 12.015625 
L 68.609375 54.6875 
L 77.59375 54.6875 
L 63.28125 0 
L 52.6875 0 
L 40.921875 44.828125 
L 29.109375 0 
L 18.5 0 
z
" id="DejaVuSans-119"/>
      <path id="DejaVuSans-32"/>
      <path d="M 52 44.1875 
Q 55.375 50.25 60.0625 53.125 
Q 64.75 56 71.09375 56 
Q 79.640625 56 84.28125 50.015625 
Q 88.921875 44.046875 88.921875 33.015625 
L 88.921875 0 
L 79.890625 0 
L 79.890625 32.71875 
Q 79.890625 40.578125 77.09375 44.375 
Q 74.3125 48.1875 68.609375 48.1875 
Q 61.625 48.1875 57.5625 43.546875 
Q 53.515625 38.921875 53.515625 30.90625 
L 53.515625 0 
L 44.484375 0 
L 44.484375 32.71875 
Q 44.484375 40.625 41.703125 44.40625 
Q 38.921875 48.1875 33.109375 48.1875 
Q 26.21875 48.1875 22.15625 43.53125 
Q 18.109375 38.875 18.109375 30.90625 
L 18.109375 0 
L 9.078125 0 
L 9.078125 54.6875 
L 18.109375 54.6875 
L 18.109375 46.1875 
Q 21.1875 51.21875 25.484375 53.609375 
Q 29.78125 56 35.6875 56 
Q 41.65625 56 45.828125 52.96875 
Q 50 49.953125 52 44.1875 
z
" id="DejaVuSans-109"/>
      <path d="M 45.40625 46.390625 
L 45.40625 75.984375 
L 54.390625 75.984375 
L 54.390625 0 
L 45.40625 0 
L 45.40625 8.203125 
Q 42.578125 3.328125 38.25 0.953125 
Q 33.9375 -1.421875 27.875 -1.421875 
Q 17.96875 -1.421875 11.734375 6.484375 
Q 5.515625 14.40625 5.515625 27.296875 
Q 5.515625 40.1875 11.734375 48.09375 
Q 17.96875 56 27.875 56 
Q 33.9375 56 38.25 53.625 
Q 42.578125 51.265625 45.40625 46.390625 
z
M 14.796875 27.296875 
Q 14.796875 17.390625 18.875 11.75 
Q 22.953125 6.109375 30.078125 6.109375 
Q 37.203125 6.109375 41.296875 11.75 
Q 45.40625 17.390625 45.40625 27.296875 
Q 45.40625 37.203125 41.296875 42.84375 
Q 37.203125 48.484375 30.078125 48.484375 
Q 22.953125 48.484375 18.875 42.84375 
Q 14.796875 37.203125 14.796875 27.296875 
z
" id="DejaVuSans-100"/>
      <path d="M 56.203125 29.59375 
L 56.203125 25.203125 
L 14.890625 25.203125 
Q 15.484375 15.921875 20.484375 11.0625 
Q 25.484375 6.203125 34.421875 6.203125 
Q 39.59375 6.203125 44.453125 7.46875 
Q 49.3125 8.734375 54.109375 11.28125 
L 54.109375 2.78125 
Q 49.265625 0.734375 44.1875 -0.34375 
Q 39.109375 -1.421875 33.890625 -1.421875 
Q 20.796875 -1.421875 13.15625 6.1875 
Q 5.515625 13.8125 5.515625 26.8125 
Q 5.515625 40.234375 12.765625 48.109375 
Q 20.015625 56 32.328125 56 
Q 43.359375 56 49.78125 48.890625 
Q 56.203125 41.796875 56.203125 29.59375 
z
M 47.21875 32.234375 
Q 47.125 39.59375 43.09375 43.984375 
Q 39.0625 48.390625 32.421875 48.390625 
Q 24.90625 48.390625 20.390625 44.140625 
Q 15.875 39.890625 15.1875 32.171875 
z
" id="DejaVuSans-101"/>
     </defs>
     <use xlink:href="#DejaVuSans-85"/>
     <use x="73.193359" xlink:href="#DejaVuSans-110"/>
     <use x="136.572266" xlink:href="#DejaVuSans-107"/>
     <use x="194.482422" xlink:href="#DejaVuSans-110"/>
     <use x="257.861328" xlink:href="#DejaVuSans-111"/>
     <use x="319.042969" xlink:href="#DejaVuSans-119"/>
     <use x="400.830078" xlink:href="#DejaVuSans-110"/>
     <use x="464.208984" xlink:href="#DejaVuSans-32"/>
     <use x="495.996094" xlink:href="#DejaVuSans-109"/>
     <use x="593.408203" xlink:href="#DejaVuSans-111"/>
     <use x="654.589844" xlink:href="#DejaVuSans-100"/>
     <use x="718.066406" xlink:href="#DejaVuSans-101"/>
    </g>
   </g>
  </g>
 </g>
 <defs>
  <clipPath id="p632b5ad41c">
   <rect height="217.44" width="334.8" x="63.932812" y="22.318125"/>
  </clipPath>
 </defs>
</svg>
