<?xml version="1.0" encoding="utf-8" standalone="no"?>
<!DOCTYPE svg PUBLIC "-//W3C//DTD SVG 1.1//EN"
  "http://www.w3.org/Graphics/SVG/1.1/DTD/svg11.dtd">
<!-- Created with matplotlib (https://matplotlib.org/) -->
<svg height="248.518125pt" version="1.1" viewBox="0 0 372.103125 248.518125" width="372.103125pt" xmlns="http://www.w3.org/2000/svg" xmlns:xlink="http://www.w3.org/1999/xlink">
 <metadata>
  <rdf:RDF xmlns:cc="http://creativecommons.org/ns#" xmlns:dc="http://purl.org/dc/elements/1.1/" xmlns:rdf="http://www.w3.org/1999/02/22-rdf-syntax-ns#">
   <cc:Work>
    <dc:type rdf:resource="http://purl.org/dc/dcmitype/StillImage"/>
    <dc:date>2021-08-23T13:04:35.550408</dc:date>
    <dc:format>image/svg+xml</dc:format>
    <dc:creator>
     <cc:Agent>
      <dc:title>Matplotlib v3.3.4, https://matplotlib.org/</dc:title>
     </cc:Agent>
    </dc:creator>
   </cc:Work>
  </rdf:RDF>
 </metadata>
 <defs>
  <style type="text/css">*{stroke-linecap:butt;stroke-linejoin:round;}</style>
 </defs>
 <g id="figure_1">
  <g id="patch_1">
   <path d="M 0 248.518125 
L 372.103125 248.518125 
L 372.103125 0 
L 0 0 
z
" style="fill:none;"/>
  </g>
  <g id="axes_1">
   <g id="patch_2">
    <path d="M 30.103125 224.64 
L 364.903125 224.64 
L 364.903125 7.2 
L 30.103125 7.2 
z
" style="fill:#ffffff;"/>
   </g>
   <g id="matplotlib.axis_1">
    <g id="xtick_1">
     <g id="line2d_1">
      <defs>
       <path d="M 0 0 
L 0 3.5 
" id="m72356659c8" style="stroke:#000000;stroke-width:0.8;"/>
      </defs>
      <g>
       <use style="stroke:#000000;stroke-width:0.8;" x="45.292422" xlink:href="#m72356659c8" y="224.64"/>
      </g>
     </g>
     <g id="text_1">
      <!-- 0 -->
      <g transform="translate(42.111172 239.238437)scale(0.1 -0.1)">
       <defs>
        <path d="M 31.78125 66.40625 
Q 24.171875 66.40625 20.328125 58.90625 
Q 16.5 51.421875 16.5 36.375 
Q 16.5 21.390625 20.328125 13.890625 
Q 24.171875 6.390625 31.78125 6.390625 
Q 39.453125 6.390625 43.28125 13.890625 
Q 47.125 21.390625 47.125 36.375 
Q 47.125 51.421875 43.28125 58.90625 
Q 39.453125 66.40625 31.78125 66.40625 
z
M 31.78125 74.21875 
Q 44.046875 74.21875 50.515625 64.515625 
Q 56.984375 54.828125 56.984375 36.375 
Q 56.984375 17.96875 50.515625 8.265625 
Q 44.046875 -1.421875 31.78125 -1.421875 
Q 19.53125 -1.421875 13.0625 8.265625 
Q 6.59375 17.96875 6.59375 36.375 
Q 6.59375 54.828125 13.0625 64.515625 
Q 19.53125 74.21875 31.78125 74.21875 
z
" id="DejaVuSans-48"/>
       </defs>
       <use xlink:href="#DejaVuSans-48"/>
      </g>
     </g>
    </g>
    <g id="xtick_2">
     <g id="line2d_2">
      <g>
       <use style="stroke:#000000;stroke-width:0.8;" x="109.481138" xlink:href="#m72356659c8" y="224.64"/>
      </g>
     </g>
     <g id="text_2">
      <!-- 20000 -->
      <g transform="translate(93.574888 239.238437)scale(0.1 -0.1)">
       <defs>
        <path d="M 19.1875 8.296875 
L 53.609375 8.296875 
L 53.609375 0 
L 7.328125 0 
L 7.328125 8.296875 
Q 12.9375 14.109375 22.625 23.890625 
Q 32.328125 33.6875 34.8125 36.53125 
Q 39.546875 41.84375 41.421875 45.53125 
Q 43.3125 49.21875 43.3125 52.78125 
Q 43.3125 58.59375 39.234375 62.25 
Q 35.15625 65.921875 28.609375 65.921875 
Q 23.96875 65.921875 18.8125 64.3125 
Q 13.671875 62.703125 7.8125 59.421875 
L 7.8125 69.390625 
Q 13.765625 71.78125 18.9375 73 
Q 24.125 74.21875 28.421875 74.21875 
Q 39.75 74.21875 46.484375 68.546875 
Q 53.21875 62.890625 53.21875 53.421875 
Q 53.21875 48.921875 51.53125 44.890625 
Q 49.859375 40.875 45.40625 35.40625 
Q 44.1875 33.984375 37.640625 27.21875 
Q 31.109375 20.453125 19.1875 8.296875 
z
" id="DejaVuSans-50"/>
       </defs>
       <use xlink:href="#DejaVuSans-50"/>
       <use x="63.623047" xlink:href="#DejaVuSans-48"/>
       <use x="127.246094" xlink:href="#DejaVuSans-48"/>
       <use x="190.869141" xlink:href="#DejaVuSans-48"/>
       <use x="254.492188" xlink:href="#DejaVuSans-48"/>
      </g>
     </g>
    </g>
    <g id="xtick_3">
     <g id="line2d_3">
      <g>
       <use style="stroke:#000000;stroke-width:0.8;" x="173.669855" xlink:href="#m72356659c8" y="224.64"/>
      </g>
     </g>
     <g id="text_3">
      <!-- 40000 -->
      <g transform="translate(157.763605 239.238437)scale(0.1 -0.1)">
       <defs>
        <path d="M 37.796875 64.3125 
L 12.890625 25.390625 
L 37.796875 25.390625 
z
M 35.203125 72.90625 
L 47.609375 72.90625 
L 47.609375 25.390625 
L 58.015625 25.390625 
L 58.015625 17.1875 
L 47.609375 17.1875 
L 47.609375 0 
L 37.796875 0 
L 37.796875 17.1875 
L 4.890625 17.1875 
L 4.890625 26.703125 
z
" id="DejaVuSans-52"/>
       </defs>
       <use xlink:href="#DejaVuSans-52"/>
       <use x="63.623047" xlink:href="#DejaVuSans-48"/>
       <use x="127.246094" xlink:href="#DejaVuSans-48"/>
       <use x="190.869141" xlink:href="#DejaVuSans-48"/>
       <use x="254.492188" xlink:href="#DejaVuSans-48"/>
      </g>
     </g>
    </g>
    <g id="xtick_4">
     <g id="line2d_4">
      <g>
       <use style="stroke:#000000;stroke-width:0.8;" x="237.858571" xlink:href="#m72356659c8" y="224.64"/>
      </g>
     </g>
     <g id="text_4">
      <!-- 60000 -->
      <g transform="translate(221.952321 239.238437)scale(0.1 -0.1)">
       <defs>
        <path d="M 33.015625 40.375 
Q 26.375 40.375 22.484375 35.828125 
Q 18.609375 31.296875 18.609375 23.390625 
Q 18.609375 15.53125 22.484375 10.953125 
Q 26.375 6.390625 33.015625 6.390625 
Q 39.65625 6.390625 43.53125 10.953125 
Q 47.40625 15.53125 47.40625 23.390625 
Q 47.40625 31.296875 43.53125 35.828125 
Q 39.65625 40.375 33.015625 40.375 
z
M 52.59375 71.296875 
L 52.59375 62.3125 
Q 48.875 64.0625 45.09375 64.984375 
Q 41.3125 65.921875 37.59375 65.921875 
Q 27.828125 65.921875 22.671875 59.328125 
Q 17.53125 52.734375 16.796875 39.40625 
Q 19.671875 43.65625 24.015625 45.921875 
Q 28.375 48.1875 33.59375 48.1875 
Q 44.578125 48.1875 50.953125 41.515625 
Q 57.328125 34.859375 57.328125 23.390625 
Q 57.328125 12.15625 50.6875 5.359375 
Q 44.046875 -1.421875 33.015625 -1.421875 
Q 20.359375 -1.421875 13.671875 8.265625 
Q 6.984375 17.96875 6.984375 36.375 
Q 6.984375 53.65625 15.1875 63.9375 
Q 23.390625 74.21875 37.203125 74.21875 
Q 40.921875 74.21875 44.703125 73.484375 
Q 48.484375 72.75 52.59375 71.296875 
z
" id="DejaVuSans-54"/>
       </defs>
       <use xlink:href="#DejaVuSans-54"/>
       <use x="63.623047" xlink:href="#DejaVuSans-48"/>
       <use x="127.246094" xlink:href="#DejaVuSans-48"/>
       <use x="190.869141" xlink:href="#DejaVuSans-48"/>
       <use x="254.492188" xlink:href="#DejaVuSans-48"/>
      </g>
     </g>
    </g>
    <g id="xtick_5">
     <g id="line2d_5">
      <g>
       <use style="stroke:#000000;stroke-width:0.8;" x="302.047287" xlink:href="#m72356659c8" y="224.64"/>
      </g>
     </g>
     <g id="text_5">
      <!-- 80000 -->
      <g transform="translate(286.141037 239.238437)scale(0.1 -0.1)">
       <defs>
        <path d="M 31.78125 34.625 
Q 24.75 34.625 20.71875 30.859375 
Q 16.703125 27.09375 16.703125 20.515625 
Q 16.703125 13.921875 20.71875 10.15625 
Q 24.75 6.390625 31.78125 6.390625 
Q 38.8125 6.390625 42.859375 10.171875 
Q 46.921875 13.96875 46.921875 20.515625 
Q 46.921875 27.09375 42.890625 30.859375 
Q 38.875 34.625 31.78125 34.625 
z
M 21.921875 38.8125 
Q 15.578125 40.375 12.03125 44.71875 
Q 8.5 49.078125 8.5 55.328125 
Q 8.5 64.0625 14.71875 69.140625 
Q 20.953125 74.21875 31.78125 74.21875 
Q 42.671875 74.21875 48.875 69.140625 
Q 55.078125 64.0625 55.078125 55.328125 
Q 55.078125 49.078125 51.53125 44.71875 
Q 48 40.375 41.703125 38.8125 
Q 48.828125 37.15625 52.796875 32.3125 
Q 56.78125 27.484375 56.78125 20.515625 
Q 56.78125 9.90625 50.3125 4.234375 
Q 43.84375 -1.421875 31.78125 -1.421875 
Q 19.734375 -1.421875 13.25 4.234375 
Q 6.78125 9.90625 6.78125 20.515625 
Q 6.78125 27.484375 10.78125 32.3125 
Q 14.796875 37.15625 21.921875 38.8125 
z
M 18.3125 54.390625 
Q 18.3125 48.734375 21.84375 45.5625 
Q 25.390625 42.390625 31.78125 42.390625 
Q 38.140625 42.390625 41.71875 45.5625 
Q 45.3125 48.734375 45.3125 54.390625 
Q 45.3125 60.0625 41.71875 63.234375 
Q 38.140625 66.40625 31.78125 66.40625 
Q 25.390625 66.40625 21.84375 63.234375 
Q 18.3125 60.0625 18.3125 54.390625 
z
" id="DejaVuSans-56"/>
       </defs>
       <use xlink:href="#DejaVuSans-56"/>
       <use x="63.623047" xlink:href="#DejaVuSans-48"/>
       <use x="127.246094" xlink:href="#DejaVuSans-48"/>
       <use x="190.869141" xlink:href="#DejaVuSans-48"/>
       <use x="254.492188" xlink:href="#DejaVuSans-48"/>
      </g>
     </g>
    </g>
   </g>
   <g id="matplotlib.axis_2">
    <g id="ytick_1">
     <g id="line2d_6">
      <defs>
       <path d="M 0 0 
L -3.5 0 
" id="m3710faf85e" style="stroke:#000000;stroke-width:0.8;"/>
      </defs>
      <g>
       <use style="stroke:#000000;stroke-width:0.8;" x="30.103125" xlink:href="#m3710faf85e" y="220.387598"/>
      </g>
     </g>
     <g id="text_6">
      <!-- 1.0 -->
      <g transform="translate(7.2 224.186817)scale(0.1 -0.1)">
       <defs>
        <path d="M 12.40625 8.296875 
L 28.515625 8.296875 
L 28.515625 63.921875 
L 10.984375 60.40625 
L 10.984375 69.390625 
L 28.421875 72.90625 
L 38.28125 72.90625 
L 38.28125 8.296875 
L 54.390625 8.296875 
L 54.390625 0 
L 12.40625 0 
z
" id="DejaVuSans-49"/>
        <path d="M 10.6875 12.40625 
L 21 12.40625 
L 21 0 
L 10.6875 0 
z
" id="DejaVuSans-46"/>
       </defs>
       <use xlink:href="#DejaVuSans-49"/>
       <use x="63.623047" xlink:href="#DejaVuSans-46"/>
       <use x="95.410156" xlink:href="#DejaVuSans-48"/>
      </g>
     </g>
    </g>
    <g id="ytick_2">
     <g id="line2d_7">
      <g>
       <use style="stroke:#000000;stroke-width:0.8;" x="30.103125" xlink:href="#m3710faf85e" y="188.023194"/>
      </g>
     </g>
     <g id="text_7">
      <!-- 1.2 -->
      <g transform="translate(7.2 191.822413)scale(0.1 -0.1)">
       <use xlink:href="#DejaVuSans-49"/>
       <use x="63.623047" xlink:href="#DejaVuSans-46"/>
       <use x="95.410156" xlink:href="#DejaVuSans-50"/>
      </g>
     </g>
    </g>
    <g id="ytick_3">
     <g id="line2d_8">
      <g>
       <use style="stroke:#000000;stroke-width:0.8;" x="30.103125" xlink:href="#m3710faf85e" y="155.65879"/>
      </g>
     </g>
     <g id="text_8">
      <!-- 1.4 -->
      <g transform="translate(7.2 159.458009)scale(0.1 -0.1)">
       <use xlink:href="#DejaVuSans-49"/>
       <use x="63.623047" xlink:href="#DejaVuSans-46"/>
       <use x="95.410156" xlink:href="#DejaVuSans-52"/>
      </g>
     </g>
    </g>
    <g id="ytick_4">
     <g id="line2d_9">
      <g>
       <use style="stroke:#000000;stroke-width:0.8;" x="30.103125" xlink:href="#m3710faf85e" y="123.294386"/>
      </g>
     </g>
     <g id="text_9">
      <!-- 1.6 -->
      <g transform="translate(7.2 127.093605)scale(0.1 -0.1)">
       <use xlink:href="#DejaVuSans-49"/>
       <use x="63.623047" xlink:href="#DejaVuSans-46"/>
       <use x="95.410156" xlink:href="#DejaVuSans-54"/>
      </g>
     </g>
    </g>
    <g id="ytick_5">
     <g id="line2d_10">
      <g>
       <use style="stroke:#000000;stroke-width:0.8;" x="30.103125" xlink:href="#m3710faf85e" y="90.929982"/>
      </g>
     </g>
     <g id="text_10">
      <!-- 1.8 -->
      <g transform="translate(7.2 94.7292)scale(0.1 -0.1)">
       <use xlink:href="#DejaVuSans-49"/>
       <use x="63.623047" xlink:href="#DejaVuSans-46"/>
       <use x="95.410156" xlink:href="#DejaVuSans-56"/>
      </g>
     </g>
    </g>
    <g id="ytick_6">
     <g id="line2d_11">
      <g>
       <use style="stroke:#000000;stroke-width:0.8;" x="30.103125" xlink:href="#m3710faf85e" y="58.565578"/>
      </g>
     </g>
     <g id="text_11">
      <!-- 2.0 -->
      <g transform="translate(7.2 62.364796)scale(0.1 -0.1)">
       <use xlink:href="#DejaVuSans-50"/>
       <use x="63.623047" xlink:href="#DejaVuSans-46"/>
       <use x="95.410156" xlink:href="#DejaVuSans-48"/>
      </g>
     </g>
    </g>
    <g id="ytick_7">
     <g id="line2d_12">
      <g>
       <use style="stroke:#000000;stroke-width:0.8;" x="30.103125" xlink:href="#m3710faf85e" y="26.201173"/>
      </g>
     </g>
     <g id="text_12">
      <!-- 2.2 -->
      <g transform="translate(7.2 30.000392)scale(0.1 -0.1)">
       <use xlink:href="#DejaVuSans-50"/>
       <use x="63.623047" xlink:href="#DejaVuSans-46"/>
       <use x="95.410156" xlink:href="#DejaVuSans-50"/>
      </g>
     </g>
    </g>
   </g>
   <g id="line2d_13">
    <path clip-path="url(#p7848a02fad)" d="M 45.321307 214.756364 
L 45.53313 209.255022 
L 45.963194 177.273006 
L 46.390049 124.322821 
L 47.031936 44.332751 
L 47.35288 23.178074 
L 47.564702 17.42655 
L 47.673823 17.083636 
L 47.779735 18.424993 
L 47.994767 24.327094 
L 48.527533 73.688131 
L 49.596275 198.905552 
L 49.917219 213.130887 
L 50.02634 214.676798 
L 50.132251 214.622497 
L 50.238162 212.966832 
L 50.668227 189.473603 
L 50.98917 155.228077 
L 52.057913 32.459338 
L 52.378856 18.857719 
L 52.6998 21.499104 
L 53.126655 49.870175 
L 53.662631 113.316754 
L 54.301308 187.711825 
L 54.731373 210.805275 
L 54.946405 212.977099 
L 55.052316 211.679086 
L 55.158228 208.781722 
L 55.694203 170.043232 
L 56.977978 30.002597 
L 57.1898 23.229013 
L 57.298921 22.240826 
L 57.404833 22.839297 
L 57.616655 28.81382 
L 57.937599 49.598068 
L 58.367663 96.576704 
L 59.115462 184.525083 
L 59.542317 208.627321 
L 59.757349 211.36231 
L 59.863261 210.371139 
L 60.078293 203.618208 
L 60.293325 190.465044 
L 60.935212 118.557291 
L 61.57389 46.497368 
L 61.894833 28.640705 
L 62.109866 24.510725 
L 62.215777 24.791796 
L 62.430809 30.062241 
L 62.751753 49.573417 
L 63.284519 107.01563 
L 63.926406 179.520712 
L 64.356471 206.472648 
L 64.462382 208.897046 
L 64.568293 208.216811 
L 64.677414 209.042376 
L 64.889237 202.906028 
L 65.210181 181.970988 
L 65.640245 134.763449 
L 66.388044 49.904135 
L 66.708987 31.593996 
L 66.92081 27.016122 
L 67.029931 27.009183 
L 67.241753 31.593651 
L 67.456786 42.322246 
L 67.883641 80.58262 
L 68.955592 194.489891 
L 69.273326 206.231021 
L 69.382447 208.155949 
L 69.488359 207.735377 
L 69.703391 202.165966 
L 70.024334 182.106805 
L 70.451189 135.9605 
L 71.198988 52.637271 
L 71.519931 34.154641 
L 71.734964 29.277057 
L 71.840875 28.279669 
L 72.161819 35.442753 
L 72.482762 58.955699 
L 73.018738 117.708605 
L 73.766536 192.28666 
L 74.08748 205.36737 
L 74.193391 206.709956 
L 74.302512 206.512404 
L 74.408424 204.762736 
L 74.835279 182.265247 
L 76.224964 41.523055 
L 76.545908 31.432947 
L 76.655029 31.017094 
L 76.866851 32.448413 
L 77.402827 67.065856 
L 78.471569 182.617964 
L 78.898424 203.407006 
L 79.113457 204.912742 
L 79.222577 203.397461 
L 79.328489 200.358247 
L 79.861255 162.839724 
L 81.145029 39.074006 
L 81.360062 33.618055 
L 81.465973 33.036326 
L 81.575094 33.875854 
L 81.786917 39.851326 
L 82.10786 59.376335 
L 82.322892 78.775505 
L 83.497546 193.85858 
L 83.92761 203.405972 
L 84.033522 202.046439 
L 84.248554 194.821728 
L 84.569497 172.919942 
L 85.211385 102.281383 
L 85.744151 52.498739 
L 86.065095 37.745944 
L 86.280127 34.912524 
L 86.386038 35.597898 
L 86.60107 41.20141 
L 86.706982 44.341306 
L 87.348869 101.134064 
L 88.096667 178.427155 
L 88.417611 196.629964 
L 88.632643 201.639712 
L 88.738555 201.933895 
L 88.847675 200.742058 
L 89.059498 193.889695 
L 89.380442 172.69468 
L 90.022329 103.710957 
L 90.558305 53.911291 
L 90.98516 35.626126 
L 91.306103 39.131863 
L 91.517926 47.14402 
L 91.83887 68.958107 
L 92.374845 124.185583 
L 93.016733 183.942967 
L 93.443587 200.059442 
L 93.552708 200.501842 
L 93.65862 199.448969 
L 93.873652 192.076202 
L 94.085475 180.573628 
L 94.515539 141.034127 
L 95.369249 56.548819 
L 95.690193 41.785099 
L 95.905225 38.630314 
L 96.011136 39.076226 
L 96.226168 44.044634 
L 96.547112 61.390396 
L 96.973967 100.179169 
L 97.830886 182.222668 
L 98.14862 196.479279 
L 98.257741 196.667931 
L 98.363653 198.95076 
L 98.469564 198.019825 
L 98.899628 179.727765 
L 99.326483 140.986247 
L 100.183403 58.222251 
L 100.501137 43.497964 
L 100.716169 38.177441 
L 101.146233 49.664824 
L 101.463968 70.157334 
L 101.999943 122.581557 
L 102.641831 180.805398 
L 102.962774 195.040203 
L 103.177806 197.59865 
L 103.283718 196.741862 
L 103.49875 190.699851 
L 103.819693 171.136917 
L 104.35246 118.325113 
L 104.994347 59.796239 
L 105.315291 45.156118 
L 105.530323 41.891481 
L 105.636234 42.216575 
L 105.851266 46.700177 
L 106.17221 61.032356 
L 107.667807 188.610394 
L 107.882839 193.745561 
L 107.988751 196.237296 
L 108.094662 195.439054 
L 108.309694 189.517194 
L 108.630638 170.412907 
L 109.166614 118.652856 
L 109.808501 61.37945 
L 110.129444 46.922098 
L 110.341267 43.609539 
L 110.450388 43.880159 
L 110.662211 48.233827 
L 110.983154 64.115151 
L 111.413219 100.051907 
L 112.266929 178.031363 
L 112.587872 192.175969 
L 112.802904 194.851615 
L 112.908816 194.094616 
L 113.123848 188.368971 
L 113.444791 169.607167 
L 113.977558 119.010271 
L 114.404413 78.161282 
L 114.834477 52.159748 
L 115.0463 46.31615 
L 115.155421 45.260324 
L 115.261332 45.465266 
L 115.476364 49.636876 
L 115.797308 65.016025 
L 116.224163 100.124114 
L 117.081082 176.754909 
L 117.402026 190.801945 
L 117.507937 191.694804 
L 117.613849 193.541546 
L 117.828881 190.785332 
L 118.255736 168.972947 
L 118.791712 119.246242 
L 119.433599 64.098236 
L 119.754542 49.989249 
L 119.966365 46.678241 
L 120.072276 46.871332 
L 120.287309 50.918933 
L 120.608252 65.996067 
L 121.035107 100.287684 
L 121.997938 181.38439 
L 122.318882 191.414315 
L 122.428002 192.073358 
L 122.533914 191.362751 
L 122.748946 185.869888 
L 123.06668 167.877387 
L 123.602656 119.205517 
L 124.244543 65.220192 
L 124.565487 51.344375 
L 124.780519 48.095834 
L 124.88643 48.30597 
L 125.101462 52.349585 
L 125.422406 67.101841 
L 125.74335 89.199132 
L 126.491148 159.34558 
L 126.918003 184.552665 
L 127.023914 187.877636 
L 127.133035 187.559933 
L 127.238947 190.585949 
L 127.665802 179.872524 
L 127.986745 158.517623 
L 129.27052 55.889884 
L 129.591463 49.350181 
L 129.700584 49.536377 
L 129.912407 53.488004 
L 130.018318 55.416886 
L 130.660205 100.946339 
L 131.623036 178.965853 
L 131.94398 188.732312 
L 132.0531 189.381399 
L 132.159012 188.709686 
L 132.374044 183.415345 
L 132.694988 165.919135 
L 133.333665 108.872176 
L 133.869641 67.213783 
L 134.190585 53.919888 
L 134.405617 50.831276 
L 134.511528 51.039041 
L 134.72656 54.941044 
L 135.047504 69.209356 
L 135.58027 110.589393 
L 136.222157 165.694994 
L 136.543101 182.407118 
L 136.758133 187.53218 
L 136.864045 188.156638 
L 136.969956 187.463657 
L 137.184988 182.137037 
L 137.505932 164.77033 
L 138.147819 108.885966 
L 138.683795 68.105801 
L 139.001529 55.196645 
L 139.216561 52.269642 
L 139.322472 52.510117 
L 139.643416 57.569349 
L 140.394424 111.339432 
L 141.142223 171.467333 
L 141.463166 183.019919 
L 141.678198 186.79091 
L 141.78411 186.089483 
L 141.995933 180.841447 
L 142.320086 163.760961 
L 142.958763 108.838755 
L 143.494739 68.90497 
L 143.815683 56.299144 
L 144.030715 53.398731 
L 144.136626 53.640778 
L 144.351658 57.518432 
L 144.669393 70.566356 
L 145.31128 121.321327 
L 146.062288 176.161415 
L 146.383231 185.248231 
L 146.489143 185.778482 
L 146.595054 185.028852 
L 146.810086 179.692815 
L 147.13103 162.649111 
L 147.772917 108.636399 
L 148.093861 83.019968 
L 148.520716 60.564314 
L 148.735748 55.63717 
L 148.841659 54.830094 
L 148.947571 55.132303 
L 149.162603 59.030772 
L 149.483546 72.740799 
L 150.019522 112.44637 
L 150.767321 169.845142 
L 151.088264 182.160976 
L 151.194176 183.89192 
L 151.303296 182.91261 
L 151.409208 183.519356 
L 152.051095 153.757023 
L 153.225748 65.435929 
L 153.546692 56.803795 
L 153.655813 56.072416 
L 153.761724 56.420652 
L 153.973547 60.351076 
L 154.2977 74.044835 
L 154.830466 113.025707 
L 155.578265 169.336503 
L 155.899208 181.291044 
L 156.114241 183.234665 
L 156.220152 182.346935 
L 156.435184 176.928542 
L 156.756128 160.318403 
L 157.398015 107.706456 
L 157.933991 71.185061 
L 158.251725 59.696085 
L 158.466757 55.947396 
L 158.787701 61.613999 
L 159.108644 75.171295 
L 159.641411 113.504781 
L 160.392419 168.613657 
L 160.716572 180.238171 
L 160.925185 182.135313 
L 161.034306 181.210498 
L 161.246129 175.741963 
L 161.567072 159.190069 
L 162.103048 116.870457 
L 162.423992 91.448669 
L 162.850846 67.15625 
L 163.17179 59.108861 
L 163.277701 58.49856 
L 163.386822 58.933073 
L 163.601854 61.939954 
L 164.028709 81.42969 
L 165.203363 168.019991 
L 165.524307 179.199238 
L 165.739339 180.859871 
L 165.84525 179.881919 
L 166.060282 174.361173 
L 166.381226 157.855973 
L 167.555879 72.260884 
L 167.985944 57.72945 
L 168.091855 59.470198 
L 168.197767 57.788492 
L 168.733742 77.562336 
L 169.266509 114.783736 
L 170.017517 166.900319 
L 170.33846 178.301402 
L 170.550283 179.794736 
L 170.871227 172.427012 
L 171.086259 163.114675 
L 171.622235 124.446506 
L 172.264122 78.117971 
L 172.585065 64.832954 
L 172.796888 60.939183 
L 172.906009 60.530635 
L 173.01192 61.138738 
L 173.223743 65.295653 
L 173.547896 78.565736 
L 174.080662 115.300756 
L 174.828461 166.914476 
L 175.149405 177.247601 
L 175.258525 178.48861 
L 175.364437 176.156394 
L 175.470348 177.51555 
L 175.68538 171.855001 
L 176.53909 115.15854 
L 177.180977 73.295959 
L 177.501921 63.369421 
L 177.716953 61.627208 
L 177.822865 62.234665 
L 178.037897 66.41386 
L 178.35884 79.716739 
L 178.891607 115.958248 
L 179.642615 166.32486 
L 179.963558 176.347287 
L 180.17859 177.501845 
L 180.390413 174.037438 
L 180.711357 160.677391 
L 181.247333 122.89941 
L 181.88601 78.899169 
L 182.210163 66.46816 
L 182.425196 61.704651 
L 182.74293 65.021865 
L 183.063873 75.614384 
L 183.490728 100.846917 
L 184.55947 169.933553 
L 184.883623 176.299968 
L 184.989535 176.180247 
L 185.204567 172.581316 
L 185.522301 159.278286 
L 185.952365 130.283123 
L 186.37922 98.327557 
L 186.806075 73.606594 
L 187.23614 63.937811 
L 187.342051 63.722095 
L 187.447963 64.476337 
L 187.662995 68.853126 
L 187.983938 82.120128 
L 188.516705 117.345502 
L 189.267713 165.242617 
L 189.588656 174.362208 
L 189.694568 175.262307 
L 189.800479 175.050017 
L 190.015511 171.326819 
L 190.336455 158.000689 
L 190.872431 121.299801 
L 191.514318 79.370637 
L 191.941173 64.376634 
L 192.047084 64.841423 
L 192.152995 64.74129 
L 192.262116 65.582757 
L 192.473939 70.040415 
L 192.794883 83.266735 
L 193.330858 117.999265 
L 194.078657 164.837215 
L 194.399601 173.619257 
L 194.505512 174.415603 
L 194.614633 174.091113 
L 194.720544 172.661712 
L 195.362431 143.629551 
L 196.431173 75.009017 
L 196.646206 66.709669 
L 196.752117 66.623521 
L 196.967149 63.479595 
L 197.609036 84.359882 
L 198.250924 126.247329 
L 198.892811 164.286385 
L 199.213754 172.551709 
L 199.319666 173.212562 
L 199.425577 172.798541 
L 199.640609 168.783929 
L 199.961553 155.266992 
L 200.60344 111.781143 
L 201.136206 77.975733 
L 201.672182 66.577904 
L 201.778094 66.672348 
L 201.993126 69.64333 
L 202.314069 80.572083 
L 202.850045 112.181934 
L 203.597844 159.610447 
L 203.918787 169.746194 
L 204.13061 172.465432 
L 204.239731 171.916434 
L 204.560674 164.063106 
L 204.987529 141.113854 
L 205.95036 78.239264 
L 206.483126 67.424607 
L 206.592247 67.637242 
L 206.80407 70.696614 
L 207.125014 81.589856 
L 207.555078 105.766799 
L 208.517909 163.628765 
L 208.838852 170.893253 
L 208.944764 171.268187 
L 209.050675 170.602227 
L 209.265707 166.201219 
L 209.586651 152.585851 
L 210.334449 103.215743 
L 210.870425 75.924028 
L 211.191369 68.888421 
L 211.403192 67.373776 
L 211.833256 78.440866 
L 212.260111 100.202678 
L 213.328853 163.387967 
L 213.543885 168.916405 
L 213.649797 168.769212 
L 213.758917 170.498474 
L 213.864829 169.721069 
L 214.076652 165.124319 
L 214.397595 151.408129 
L 215.039482 109.594569 
L 215.575458 80.20286 
L 215.896402 70.989794 
L 216.111434 69.123573 
L 216.217345 69.519538 
L 216.432377 72.923913 
L 216.753321 84.146428 
L 217.395208 119.556942 
L 217.822063 148.814063 
L 218.248918 166.071328 
L 218.46395 169.277225 
L 218.569862 169.402225 
L 218.675773 168.528931 
L 218.890805 163.841895 
L 219.211749 149.980817 
L 220.601435 73.698538 
L 220.816467 70.435302 
L 220.922378 70.093121 
L 221.02829 70.611176 
L 221.243322 72.333328 
L 221.885209 102.67433 
L 222.953951 162.831837 
L 223.274895 168.672591 
L 223.380806 168.63945 
L 223.595838 165.634056 
L 223.916782 154.235214 
L 224.343637 129.245268 
L 224.879613 95.439255 
L 225.306467 75.56685 
L 225.627411 71.244641 
L 225.736532 70.998284 
L 225.842443 71.600311 
L 226.054266 75.334326 
L 226.37521 86.779475 
L 226.911185 116.984423 
L 227.553073 154.457222 
L 227.658984 157.0612 
L 227.874016 165.209088 
L 228.089048 167.809511 
L 228.19496 167.654991 
L 228.300871 166.533315 
L 229.15779 127.49226 
L 230.01471 80.607896 
L 230.332444 72.816216 
L 230.547476 71.755327 
L 230.656597 72.475178 
L 230.86842 76.368583 
L 231.189363 87.910934 
L 231.725339 117.819728 
L 232.473138 158.539042 
L 232.794081 166.246685 
L 232.899993 166.947099 
L 233.009113 166.680875 
L 233.220936 163.287662 
L 233.54188 151.528754 
L 234.183767 113.288505 
L 234.719743 84.662824 
L 235.040686 74.998739 
L 235.252509 72.515257 
L 235.36163 72.49345 
L 235.573453 74.935625 
L 235.894396 84.421035 
L 236.430372 112.088847 
L 237.284082 158.203153 
L 237.605026 165.297262 
L 237.714146 165.865545 
L 237.820058 165.506148 
L 238.031881 162.00694 
L 238.8888 118.994326 
L 239.530687 84.709475 
L 239.957542 71.589925 
L 240.172574 73.448604 
L 240.278486 73.894689 
L 240.70855 83.457391 
L 241.671381 138.577472 
L 242.098236 158.105024 
L 242.419179 164.774489 
L 242.525091 165.202215 
L 242.740123 163.268247 
L 242.951946 157.7099 
L 243.272889 143.478737 
L 244.556664 78.174125 
L 244.771696 74.61217 
L 244.983518 72.826128 
L 245.092639 75.188619 
L 245.198551 74.847796 
L 246.161381 120.418923 
L 246.803269 154.120256 
L 247.124212 162.991787 
L 247.230124 164.210774 
L 247.339244 162.424776 
L 247.445156 163.867839 
L 247.660188 159.835256 
L 247.872011 152.407909 
L 248.940753 93.525714 
L 249.370817 78.388936 
L 249.58264 75.174764 
L 249.691761 74.730791 
L 249.797672 75.066141 
L 250.012704 78.034559 
L 250.333648 87.919316 
L 250.866414 115.199826 
L 251.614213 154.142903 
L 251.935156 162.435334 
L 252.150189 163.631803 
L 252.2561 162.867542 
L 252.471132 158.667877 
L 252.792076 146.375249 
L 254.181762 78.656755 
L 254.396794 75.687647 
L 254.502705 75.354904 
L 254.608617 75.78778 
L 254.717737 75.250526 
L 255.465536 104.134804 
L 256.534278 157.488021 
L 256.855222 162.687402 
L 256.964342 162.694986 
L 257.285286 157.493688 
L 257.60302 145.147536 
L 258.995915 79.020936 
L 259.207738 76.341863 
L 259.316859 76.117312 
L 259.42277 76.65183 
L 259.528682 77.946277 
L 259.637802 77.629889 
L 260.385601 110.649081 
L 261.1334 150.124068 
L 261.454343 159.682632 
L 261.669375 161.984013 
L 261.881198 160.805192 
L 262.417174 143.761057 
L 263.700948 81.683201 
L 264.021892 74.71032 
L 264.233715 77.507863 
L 264.448747 81.030558 
L 264.76969 91.343558 
L 265.302457 118.021783 
L 266.053465 154.044213 
L 266.374408 160.790044 
L 266.48032 161.364425 
L 266.58944 161.056742 
L 266.801263 157.886334 
L 267.122207 147.393517 
L 267.764094 113.511935 
L 268.30007 86.322444 
L 268.511892 81.976597 
L 268.621013 78.411001 
L 268.726925 78.435371 
L 268.832836 77.755837 
L 268.938747 77.809706 
L 269.15378 80.07396 
L 269.474723 88.538646 
L 270.010699 113.212506 
L 270.652586 146.149276 
L 270.758498 147.950401 
L 270.97353 156.793252 
L 271.079441 157.220439 
L 271.291264 160.638347 
L 271.400385 160.230122 
L 271.721328 154.01493 
L 273.005103 92.019667 
L 273.431958 79.677371 
L 273.64699 78.107132 
L 273.752901 78.244802 
L 273.967933 80.658878 
L 274.288877 89.422045 
L 274.821643 114.180201 
L 275.678563 153.992692 
L 275.999506 159.831097 
L 276.105418 160.128782 
L 276.211329 159.583534 
L 276.32045 158.211384 
L 277.389192 111.855225 
L 277.925168 88.061898 
L 278.242902 80.396985 
L 278.457934 78.737021 
L 278.672966 79.414702 
L 279.099821 90.475177 
L 279.635797 115.080774 
L 280.277684 146.548214 
L 280.919571 159.1131 
L 281.025483 158.46412 
L 281.240515 154.758311 
L 281.561459 143.667195 
L 282.094225 114.026586 
L 282.630201 90.937617 
L 283.057056 80.593567 
L 283.272088 79.244646 
L 283.377999 79.592365 
L 283.593031 82.386977 
L 283.913975 91.473794 
L 284.446741 115.858416 
L 285.088628 146.642379 
L 285.197749 148.26931 
L 285.409572 155.855595 
L 285.624604 158.299128 
L 285.730516 158.326817 
L 285.945548 155.978138 
L 286.266491 146.796942 
L 286.799258 121.166893 
L 287.550266 87.67938 
L 287.871209 80.944237 
L 287.977121 80.035239 
L 288.083032 78.136049 
L 288.830831 94.947553 
L 289.581839 133.102989 
L 290.008694 148.752414 
L 290.329637 157.034869 
L 290.435549 157.718045 
L 290.544669 157.606729 
L 290.756492 155.039037 
L 291.077436 145.732971 
L 291.613411 120.301508 
L 292.255299 89.448657 
L 292.897186 80.618713 
L 293.003097 81.217012 
L 293.218129 84.400823 
L 293.539073 93.768193 
L 294.071839 117.952054 
L 294.819638 149.384199 
L 295.249702 157.143707 
L 295.355614 156.876837 
L 295.570646 153.990128 
L 295.891589 144.37959 
L 296.424356 119.10644 
L 296.745299 103.43857 
L 297.172154 87.539857 
L 297.493098 81.675961 
L 297.602219 81.06413 
L 297.70813 81.115758 
L 297.923162 83.185629 
L 298.244106 88.669269 
L 298.776872 113.570201 
L 299.633792 150.621436 
L 299.739703 151.213444 
L 299.954735 156.277697 
L 300.060647 156.672778 
L 300.169767 156.280046 
L 300.275679 155.105254 
L 300.487502 150.060157 
L 300.702534 143.409977 
L 301.453542 107.739639 
L 301.986308 87.477433 
L 302.307252 82.020986 
L 302.413163 81.513425 
L 302.522284 81.67122 
L 302.734107 83.951075 
L 303.05505 91.99674 
L 303.485115 109.400013 
L 304.338825 147.390134 
L 304.8748 155.956784 
L 304.980712 155.45642 
L 305.195744 152.188379 
L 305.516687 142.175778 
L 307.012285 83.491049 
L 307.227317 82.030489 
L 307.333228 82.286564 
L 307.54826 84.782501 
L 307.975115 94.841322 
L 308.617002 125.599319 
L 308.722914 128.353788 
L 309.043857 143.92967 
L 309.364801 152.644397 
L 309.579833 155.052268 
L 309.685745 155.156085 
L 309.794865 154.506696 
L 310.006688 151.008739 
L 310.327632 140.93617 
L 311.07543 106.244904 
L 311.611406 87.480794 
L 311.93235 82.98129 
L 312.038261 81.978515 
L 312.359205 85.849769 
L 312.680148 94.288402 
L 313.216124 115.095362 
L 313.642979 136.199316 
L 313.963923 147.817601 
L 314.069834 148.128171 
L 314.284866 154.085715 
L 314.390777 154.760681 
L 314.499898 154.710669 
L 314.711721 152.459861 
L 315.032665 143.99608 
L 315.56864 120.722533 
L 316.210528 93.534312 
L 316.531471 85.840891 
L 316.743294 83.666341 
L 316.852415 83.545479 
L 316.958326 84.060172 
L 317.173358 86.914623 
L 317.494302 95.373146 
L 318.027068 117.464985 
L 318.774867 147.338182 
L 318.883988 147.980568 
L 319.09581 153.584467 
L 319.204931 154.137365 
L 319.310843 153.955091 
L 319.525875 151.433405 
L 319.846818 142.712407 
L 320.488706 114.623915 
L 321.127383 90.199558 
L 321.451536 84.549137 
L 321.663359 83.877855 
L 321.878391 85.718003 
L 322.199335 92.810001 
L 322.732101 113.571903 
L 323.589021 147.875608 
L 323.804053 152.094387 
L 323.909964 151.132208 
L 324.015876 153.640341 
L 324.336819 150.722044 
L 324.657763 141.774104 
L 325.193738 118.764324 
L 325.726505 96.390961 
L 326.156569 86.060917 
L 326.368392 84.413795 
L 326.477513 84.501193 
L 326.692545 86.501744 
L 326.798456 87.592693 
L 327.440344 109.652619 
L 328.294053 143.765065 
L 328.720908 152.752589 
L 328.830029 153.042602 
L 328.935941 152.624982 
L 329.150973 149.688348 
L 329.471916 140.595929 
L 330.113804 112.829039 
L 330.540659 95.887645 
L 330.967513 86.090416 
L 331.182546 84.672133 
L 331.288457 84.869016 
L 331.503489 87.076426 
L 331.824433 94.611384 
L 332.360409 115.342538 
L 333.108207 144.968947 
L 333.535062 152.20497 
L 333.640974 152.350419 
L 333.750094 151.802369 
L 334.071038 146.149988 
L 334.497893 131.008447 
L 335.460724 92.420113 
L 335.887579 83.453297 
L 335.99349 85.170837 
L 336.102611 83.911836 
L 336.850409 102.902867 
L 338.134184 149.722027 
L 338.346006 151.787157 
L 338.455127 151.806507 
L 338.66695 149.791109 
L 339.202926 134.230397 
L 340.380789 89.700293 
L 340.701732 85.684475 
L 340.807644 84.023023 
L 341.449531 96.466594 
L 342.091418 121.641831 
L 342.733305 145.173523 
L 342.839217 146.310347 
L 343.054249 150.739627 
L 343.16016 151.303902 
L 343.266072 151.191529 
L 343.375192 148.517973 
L 343.481104 148.958391 
L 343.802047 140.969332 
L 344.443934 114.991415 
L 345.085822 92.27238 
L 345.406765 86.964894 
L 345.618588 86.278141 
L 345.727709 86.809254 
L 345.939532 89.555901 
L 346.260475 97.585426 
L 346.796451 118.04527 
L 347.544249 145.379025 
L 347.650161 146.666534 
L 347.759282 149.371119 
L 347.865193 148.755862 
L 347.971104 150.836894 
L 348.186137 149.665895 
L 348.401169 145.885164 
L 348.828024 132.093276 
L 349.684943 97.975508 
L 349.684943 97.975508 
" style="fill:none;stroke:#000000;stroke-linecap:square;stroke-width:1.5;"/>
   </g>
   <g id="patch_3">
    <path d="M 30.103125 224.64 
L 30.103125 7.2 
" style="fill:none;stroke:#000000;stroke-linecap:square;stroke-linejoin:miter;stroke-width:0.8;"/>
   </g>
   <g id="patch_4">
    <path d="M 364.903125 224.64 
L 364.903125 7.2 
" style="fill:none;stroke:#000000;stroke-linecap:square;stroke-linejoin:miter;stroke-width:0.8;"/>
   </g>
   <g id="patch_5">
    <path d="M 30.103125 224.64 
L 364.903125 224.64 
" style="fill:none;stroke:#000000;stroke-linecap:square;stroke-linejoin:miter;stroke-width:0.8;"/>
   </g>
   <g id="patch_6">
    <path d="M 30.103125 7.2 
L 364.903125 7.2 
" style="fill:none;stroke:#000000;stroke-linecap:square;stroke-linejoin:miter;stroke-width:0.8;"/>
   </g>
  </g>
 </g>
 <defs>
  <clipPath id="p7848a02fad">
   <rect height="217.44" width="334.8" x="30.103125" y="7.2"/>
  </clipPath>
 </defs>
</svg>
