<?xml version="1.0" encoding="utf-8" standalone="no"?>
<!DOCTYPE svg PUBLIC "-//W3C//DTD SVG 1.1//EN"
  "http://www.w3.org/Graphics/SVG/1.1/DTD/svg11.dtd">
<!-- Created with matplotlib (https://matplotlib.org/) -->
<svg height="683.398125pt" version="1.1" viewBox="0 0 886.3 683.398125" width="886.3pt" xmlns="http://www.w3.org/2000/svg" xmlns:xlink="http://www.w3.org/1999/xlink">
 <metadata>
  <rdf:RDF xmlns:cc="http://creativecommons.org/ns#" xmlns:dc="http://purl.org/dc/elements/1.1/" xmlns:rdf="http://www.w3.org/1999/02/22-rdf-syntax-ns#">
   <cc:Work>
    <dc:type rdf:resource="http://purl.org/dc/dcmitype/StillImage"/>
    <dc:date>2021-04-19T18:26:05.123133</dc:date>
    <dc:format>image/svg+xml</dc:format>
    <dc:creator>
     <cc:Agent>
      <dc:title>Matplotlib v3.3.4, https://matplotlib.org/</dc:title>
     </cc:Agent>
    </dc:creator>
   </cc:Work>
  </rdf:RDF>
 </metadata>
 <defs>
  <style type="text/css">*{stroke-linecap:butt;stroke-linejoin:round;}</style>
 </defs>
 <g id="figure_1">
  <g id="patch_1">
   <path d="M 0 683.398125 
L 886.3 683.398125 
L 886.3 0 
L 0 0 
z
" style="fill:none;"/>
  </g>
  <g id="axes_1">
   <g id="patch_2">
    <path d="M 42.1 303.709091 
L 879.1 303.709091 
L 879.1 7.2 
L 42.1 7.2 
z
" style="fill:#ffffff;"/>
   </g>
   <g id="matplotlib.axis_1">
    <g id="xtick_1">
     <g id="line2d_1">
      <path clip-path="url(#pfe87ed96fe)" d="M 80.145455 303.709091 
L 80.145455 7.2 
" style="fill:none;stroke:#666666;stroke-linecap:square;stroke-opacity:0.3;stroke-width:0.8;"/>
     </g>
     <g id="line2d_2">
      <defs>
       <path d="M 0 0 
L 0 3.5 
" id="m8571442e5e" style="stroke:#000000;stroke-width:0.8;"/>
      </defs>
      <g>
       <use style="stroke:#000000;stroke-width:0.8;" x="80.145455" xlink:href="#m8571442e5e" y="303.709091"/>
      </g>
     </g>
     <g id="text_1">
      <!-- $\mathdefault{10^{0}}$ -->
      <g transform="translate(71.345455 318.307528)scale(0.1 -0.1)">
       <defs>
        <path d="M 12.40625 8.296875 
L 28.515625 8.296875 
L 28.515625 63.921875 
L 10.984375 60.40625 
L 10.984375 69.390625 
L 28.421875 72.90625 
L 38.28125 72.90625 
L 38.28125 8.296875 
L 54.390625 8.296875 
L 54.390625 0 
L 12.40625 0 
z
" id="DejaVuSans-49"/>
        <path d="M 31.78125 66.40625 
Q 24.171875 66.40625 20.328125 58.90625 
Q 16.5 51.421875 16.5 36.375 
Q 16.5 21.390625 20.328125 13.890625 
Q 24.171875 6.390625 31.78125 6.390625 
Q 39.453125 6.390625 43.28125 13.890625 
Q 47.125 21.390625 47.125 36.375 
Q 47.125 51.421875 43.28125 58.90625 
Q 39.453125 66.40625 31.78125 66.40625 
z
M 31.78125 74.21875 
Q 44.046875 74.21875 50.515625 64.515625 
Q 56.984375 54.828125 56.984375 36.375 
Q 56.984375 17.96875 50.515625 8.265625 
Q 44.046875 -1.421875 31.78125 -1.421875 
Q 19.53125 -1.421875 13.0625 8.265625 
Q 6.59375 17.96875 6.59375 36.375 
Q 6.59375 54.828125 13.0625 64.515625 
Q 19.53125 74.21875 31.78125 74.21875 
z
" id="DejaVuSans-48"/>
       </defs>
       <use transform="translate(0 0.765625)" xlink:href="#DejaVuSans-49"/>
       <use transform="translate(63.623047 0.765625)" xlink:href="#DejaVuSans-48"/>
       <use transform="translate(128.203125 39.046875)scale(0.7)" xlink:href="#DejaVuSans-48"/>
      </g>
     </g>
    </g>
    <g id="xtick_2">
     <g id="line2d_3">
      <path clip-path="url(#pfe87ed96fe)" d="M 317.988525 303.709091 
L 317.988525 7.2 
" style="fill:none;stroke:#666666;stroke-linecap:square;stroke-opacity:0.3;stroke-width:0.8;"/>
     </g>
     <g id="line2d_4">
      <g>
       <use style="stroke:#000000;stroke-width:0.8;" x="317.988525" xlink:href="#m8571442e5e" y="303.709091"/>
      </g>
     </g>
     <g id="text_2">
      <!-- $\mathdefault{10^{1}}$ -->
      <g transform="translate(309.188525 318.307528)scale(0.1 -0.1)">
       <use transform="translate(0 0.684375)" xlink:href="#DejaVuSans-49"/>
       <use transform="translate(63.623047 0.684375)" xlink:href="#DejaVuSans-48"/>
       <use transform="translate(128.203125 38.965625)scale(0.7)" xlink:href="#DejaVuSans-49"/>
      </g>
     </g>
    </g>
    <g id="xtick_3">
     <g id="line2d_5">
      <path clip-path="url(#pfe87ed96fe)" d="M 555.831595 303.709091 
L 555.831595 7.2 
" style="fill:none;stroke:#666666;stroke-linecap:square;stroke-opacity:0.3;stroke-width:0.8;"/>
     </g>
     <g id="line2d_6">
      <g>
       <use style="stroke:#000000;stroke-width:0.8;" x="555.831595" xlink:href="#m8571442e5e" y="303.709091"/>
      </g>
     </g>
     <g id="text_3">
      <!-- $\mathdefault{10^{2}}$ -->
      <g transform="translate(547.031595 318.307528)scale(0.1 -0.1)">
       <defs>
        <path d="M 19.1875 8.296875 
L 53.609375 8.296875 
L 53.609375 0 
L 7.328125 0 
L 7.328125 8.296875 
Q 12.9375 14.109375 22.625 23.890625 
Q 32.328125 33.6875 34.8125 36.53125 
Q 39.546875 41.84375 41.421875 45.53125 
Q 43.3125 49.21875 43.3125 52.78125 
Q 43.3125 58.59375 39.234375 62.25 
Q 35.15625 65.921875 28.609375 65.921875 
Q 23.96875 65.921875 18.8125 64.3125 
Q 13.671875 62.703125 7.8125 59.421875 
L 7.8125 69.390625 
Q 13.765625 71.78125 18.9375 73 
Q 24.125 74.21875 28.421875 74.21875 
Q 39.75 74.21875 46.484375 68.546875 
Q 53.21875 62.890625 53.21875 53.421875 
Q 53.21875 48.921875 51.53125 44.890625 
Q 49.859375 40.875 45.40625 35.40625 
Q 44.1875 33.984375 37.640625 27.21875 
Q 31.109375 20.453125 19.1875 8.296875 
z
" id="DejaVuSans-50"/>
       </defs>
       <use transform="translate(0 0.765625)" xlink:href="#DejaVuSans-49"/>
       <use transform="translate(63.623047 0.765625)" xlink:href="#DejaVuSans-48"/>
       <use transform="translate(128.203125 39.046875)scale(0.7)" xlink:href="#DejaVuSans-50"/>
      </g>
     </g>
    </g>
    <g id="xtick_4">
     <g id="line2d_7">
      <path clip-path="url(#pfe87ed96fe)" d="M 793.674665 303.709091 
L 793.674665 7.2 
" style="fill:none;stroke:#666666;stroke-linecap:square;stroke-opacity:0.3;stroke-width:0.8;"/>
     </g>
     <g id="line2d_8">
      <g>
       <use style="stroke:#000000;stroke-width:0.8;" x="793.674665" xlink:href="#m8571442e5e" y="303.709091"/>
      </g>
     </g>
     <g id="text_4">
      <!-- $\mathdefault{10^{3}}$ -->
      <g transform="translate(784.874665 318.307528)scale(0.1 -0.1)">
       <defs>
        <path d="M 40.578125 39.3125 
Q 47.65625 37.796875 51.625 33 
Q 55.609375 28.21875 55.609375 21.1875 
Q 55.609375 10.40625 48.1875 4.484375 
Q 40.765625 -1.421875 27.09375 -1.421875 
Q 22.515625 -1.421875 17.65625 -0.515625 
Q 12.796875 0.390625 7.625 2.203125 
L 7.625 11.71875 
Q 11.71875 9.328125 16.59375 8.109375 
Q 21.484375 6.890625 26.8125 6.890625 
Q 36.078125 6.890625 40.9375 10.546875 
Q 45.796875 14.203125 45.796875 21.1875 
Q 45.796875 27.640625 41.28125 31.265625 
Q 36.765625 34.90625 28.71875 34.90625 
L 20.21875 34.90625 
L 20.21875 43.015625 
L 29.109375 43.015625 
Q 36.375 43.015625 40.234375 45.921875 
Q 44.09375 48.828125 44.09375 54.296875 
Q 44.09375 59.90625 40.109375 62.90625 
Q 36.140625 65.921875 28.71875 65.921875 
Q 24.65625 65.921875 20.015625 65.03125 
Q 15.375 64.15625 9.8125 62.3125 
L 9.8125 71.09375 
Q 15.4375 72.65625 20.34375 73.4375 
Q 25.25 74.21875 29.59375 74.21875 
Q 40.828125 74.21875 47.359375 69.109375 
Q 53.90625 64.015625 53.90625 55.328125 
Q 53.90625 49.265625 50.4375 45.09375 
Q 46.96875 40.921875 40.578125 39.3125 
z
" id="DejaVuSans-51"/>
       </defs>
       <use transform="translate(0 0.765625)" xlink:href="#DejaVuSans-49"/>
       <use transform="translate(63.623047 0.765625)" xlink:href="#DejaVuSans-48"/>
       <use transform="translate(128.203125 39.046875)scale(0.7)" xlink:href="#DejaVuSans-51"/>
      </g>
     </g>
    </g>
    <g id="xtick_5">
     <g id="line2d_9">
      <defs>
       <path d="M 0 0 
L 0 2 
" id="mc00b781ba1" style="stroke:#000000;stroke-width:0.6;"/>
      </defs>
      <g>
       <use style="stroke:#000000;stroke-width:0.6;" x="43.303097" xlink:href="#mc00b781ba1" y="303.709091"/>
      </g>
     </g>
    </g>
    <g id="xtick_6">
     <g id="line2d_10">
      <g>
       <use style="stroke:#000000;stroke-width:0.6;" x="57.09608" xlink:href="#mc00b781ba1" y="303.709091"/>
      </g>
     </g>
    </g>
    <g id="xtick_7">
     <g id="line2d_11">
      <g>
       <use style="stroke:#000000;stroke-width:0.6;" x="69.262353" xlink:href="#mc00b781ba1" y="303.709091"/>
      </g>
     </g>
    </g>
    <g id="xtick_8">
     <g id="line2d_12">
      <g>
       <use style="stroke:#000000;stroke-width:0.6;" x="151.743353" xlink:href="#mc00b781ba1" y="303.709091"/>
      </g>
     </g>
    </g>
    <g id="xtick_9">
     <g id="line2d_13">
      <g>
       <use style="stroke:#000000;stroke-width:0.6;" x="193.625439" xlink:href="#mc00b781ba1" y="303.709091"/>
      </g>
     </g>
    </g>
    <g id="xtick_10">
     <g id="line2d_14">
      <g>
       <use style="stroke:#000000;stroke-width:0.6;" x="223.341251" xlink:href="#mc00b781ba1" y="303.709091"/>
      </g>
     </g>
    </g>
    <g id="xtick_11">
     <g id="line2d_15">
      <g>
       <use style="stroke:#000000;stroke-width:0.6;" x="246.390626" xlink:href="#mc00b781ba1" y="303.709091"/>
      </g>
     </g>
    </g>
    <g id="xtick_12">
     <g id="line2d_16">
      <g>
       <use style="stroke:#000000;stroke-width:0.6;" x="265.223337" xlink:href="#mc00b781ba1" y="303.709091"/>
      </g>
     </g>
    </g>
    <g id="xtick_13">
     <g id="line2d_17">
      <g>
       <use style="stroke:#000000;stroke-width:0.6;" x="281.146167" xlink:href="#mc00b781ba1" y="303.709091"/>
      </g>
     </g>
    </g>
    <g id="xtick_14">
     <g id="line2d_18">
      <g>
       <use style="stroke:#000000;stroke-width:0.6;" x="294.93915" xlink:href="#mc00b781ba1" y="303.709091"/>
      </g>
     </g>
    </g>
    <g id="xtick_15">
     <g id="line2d_19">
      <g>
       <use style="stroke:#000000;stroke-width:0.6;" x="307.105423" xlink:href="#mc00b781ba1" y="303.709091"/>
      </g>
     </g>
    </g>
    <g id="xtick_16">
     <g id="line2d_20">
      <g>
       <use style="stroke:#000000;stroke-width:0.6;" x="389.586423" xlink:href="#mc00b781ba1" y="303.709091"/>
      </g>
     </g>
    </g>
    <g id="xtick_17">
     <g id="line2d_21">
      <g>
       <use style="stroke:#000000;stroke-width:0.6;" x="431.468509" xlink:href="#mc00b781ba1" y="303.709091"/>
      </g>
     </g>
    </g>
    <g id="xtick_18">
     <g id="line2d_22">
      <g>
       <use style="stroke:#000000;stroke-width:0.6;" x="461.184321" xlink:href="#mc00b781ba1" y="303.709091"/>
      </g>
     </g>
    </g>
    <g id="xtick_19">
     <g id="line2d_23">
      <g>
       <use style="stroke:#000000;stroke-width:0.6;" x="484.233696" xlink:href="#mc00b781ba1" y="303.709091"/>
      </g>
     </g>
    </g>
    <g id="xtick_20">
     <g id="line2d_24">
      <g>
       <use style="stroke:#000000;stroke-width:0.6;" x="503.066407" xlink:href="#mc00b781ba1" y="303.709091"/>
      </g>
     </g>
    </g>
    <g id="xtick_21">
     <g id="line2d_25">
      <g>
       <use style="stroke:#000000;stroke-width:0.6;" x="518.989237" xlink:href="#mc00b781ba1" y="303.709091"/>
      </g>
     </g>
    </g>
    <g id="xtick_22">
     <g id="line2d_26">
      <g>
       <use style="stroke:#000000;stroke-width:0.6;" x="532.78222" xlink:href="#mc00b781ba1" y="303.709091"/>
      </g>
     </g>
    </g>
    <g id="xtick_23">
     <g id="line2d_27">
      <g>
       <use style="stroke:#000000;stroke-width:0.6;" x="544.948493" xlink:href="#mc00b781ba1" y="303.709091"/>
      </g>
     </g>
    </g>
    <g id="xtick_24">
     <g id="line2d_28">
      <g>
       <use style="stroke:#000000;stroke-width:0.6;" x="627.429493" xlink:href="#mc00b781ba1" y="303.709091"/>
      </g>
     </g>
    </g>
    <g id="xtick_25">
     <g id="line2d_29">
      <g>
       <use style="stroke:#000000;stroke-width:0.6;" x="669.311579" xlink:href="#mc00b781ba1" y="303.709091"/>
      </g>
     </g>
    </g>
    <g id="xtick_26">
     <g id="line2d_30">
      <g>
       <use style="stroke:#000000;stroke-width:0.6;" x="699.027391" xlink:href="#mc00b781ba1" y="303.709091"/>
      </g>
     </g>
    </g>
    <g id="xtick_27">
     <g id="line2d_31">
      <g>
       <use style="stroke:#000000;stroke-width:0.6;" x="722.076767" xlink:href="#mc00b781ba1" y="303.709091"/>
      </g>
     </g>
    </g>
    <g id="xtick_28">
     <g id="line2d_32">
      <g>
       <use style="stroke:#000000;stroke-width:0.6;" x="740.909477" xlink:href="#mc00b781ba1" y="303.709091"/>
      </g>
     </g>
    </g>
    <g id="xtick_29">
     <g id="line2d_33">
      <g>
       <use style="stroke:#000000;stroke-width:0.6;" x="756.832307" xlink:href="#mc00b781ba1" y="303.709091"/>
      </g>
     </g>
    </g>
    <g id="xtick_30">
     <g id="line2d_34">
      <g>
       <use style="stroke:#000000;stroke-width:0.6;" x="770.62529" xlink:href="#mc00b781ba1" y="303.709091"/>
      </g>
     </g>
    </g>
    <g id="xtick_31">
     <g id="line2d_35">
      <g>
       <use style="stroke:#000000;stroke-width:0.6;" x="782.791563" xlink:href="#mc00b781ba1" y="303.709091"/>
      </g>
     </g>
    </g>
    <g id="xtick_32">
     <g id="line2d_36">
      <g>
       <use style="stroke:#000000;stroke-width:0.6;" x="865.272563" xlink:href="#mc00b781ba1" y="303.709091"/>
      </g>
     </g>
    </g>
   </g>
   <g id="matplotlib.axis_2">
    <g id="ytick_1">
     <g id="line2d_37">
      <path clip-path="url(#pfe87ed96fe)" d="M 42.1 197.792614 
L 879.1 197.792614 
" style="fill:none;stroke:#666666;stroke-linecap:square;stroke-opacity:0.3;stroke-width:0.8;"/>
     </g>
     <g id="line2d_38">
      <defs>
       <path d="M 0 0 
L -3.5 0 
" id="mca9bc18b12" style="stroke:#000000;stroke-width:0.8;"/>
      </defs>
      <g>
       <use style="stroke:#000000;stroke-width:0.8;" x="42.1" xlink:href="#mca9bc18b12" y="197.792614"/>
      </g>
     </g>
     <g id="text_5">
      <!-- $\mathdefault{10^{-15}}$ -->
      <g transform="translate(7.2 201.591832)scale(0.1 -0.1)">
       <defs>
        <path d="M 10.59375 35.5 
L 73.1875 35.5 
L 73.1875 27.203125 
L 10.59375 27.203125 
z
" id="DejaVuSans-8722"/>
        <path d="M 10.796875 72.90625 
L 49.515625 72.90625 
L 49.515625 64.59375 
L 19.828125 64.59375 
L 19.828125 46.734375 
Q 21.96875 47.46875 24.109375 47.828125 
Q 26.265625 48.1875 28.421875 48.1875 
Q 40.625 48.1875 47.75 41.5 
Q 54.890625 34.8125 54.890625 23.390625 
Q 54.890625 11.625 47.5625 5.09375 
Q 40.234375 -1.421875 26.90625 -1.421875 
Q 22.3125 -1.421875 17.546875 -0.640625 
Q 12.796875 0.140625 7.71875 1.703125 
L 7.71875 11.625 
Q 12.109375 9.234375 16.796875 8.0625 
Q 21.484375 6.890625 26.703125 6.890625 
Q 35.15625 6.890625 40.078125 11.328125 
Q 45.015625 15.765625 45.015625 23.390625 
Q 45.015625 31 40.078125 35.4375 
Q 35.15625 39.890625 26.703125 39.890625 
Q 22.75 39.890625 18.8125 39.015625 
Q 14.890625 38.140625 10.796875 36.28125 
z
" id="DejaVuSans-53"/>
       </defs>
       <use transform="translate(0 0.684375)" xlink:href="#DejaVuSans-49"/>
       <use transform="translate(63.623047 0.684375)" xlink:href="#DejaVuSans-48"/>
       <use transform="translate(128.203125 38.965625)scale(0.7)" xlink:href="#DejaVuSans-8722"/>
       <use transform="translate(186.855469 38.965625)scale(0.7)" xlink:href="#DejaVuSans-49"/>
       <use transform="translate(231.391602 38.965625)scale(0.7)" xlink:href="#DejaVuSans-53"/>
      </g>
     </g>
    </g>
    <g id="ytick_2">
     <g id="line2d_39">
      <path clip-path="url(#pfe87ed96fe)" d="M 42.1 56.353689 
L 879.1 56.353689 
" style="fill:none;stroke:#666666;stroke-linecap:square;stroke-opacity:0.3;stroke-width:0.8;"/>
     </g>
     <g id="line2d_40">
      <g>
       <use style="stroke:#000000;stroke-width:0.8;" x="42.1" xlink:href="#mca9bc18b12" y="56.353689"/>
      </g>
     </g>
     <g id="text_6">
      <!-- $\mathdefault{10^{-14}}$ -->
      <g transform="translate(7.2 60.152908)scale(0.1 -0.1)">
       <defs>
        <path d="M 37.796875 64.3125 
L 12.890625 25.390625 
L 37.796875 25.390625 
z
M 35.203125 72.90625 
L 47.609375 72.90625 
L 47.609375 25.390625 
L 58.015625 25.390625 
L 58.015625 17.1875 
L 47.609375 17.1875 
L 47.609375 0 
L 37.796875 0 
L 37.796875 17.1875 
L 4.890625 17.1875 
L 4.890625 26.703125 
z
" id="DejaVuSans-52"/>
       </defs>
       <use transform="translate(0 0.684375)" xlink:href="#DejaVuSans-49"/>
       <use transform="translate(63.623047 0.684375)" xlink:href="#DejaVuSans-48"/>
       <use transform="translate(128.203125 38.965625)scale(0.7)" xlink:href="#DejaVuSans-8722"/>
       <use transform="translate(186.855469 38.965625)scale(0.7)" xlink:href="#DejaVuSans-49"/>
       <use transform="translate(231.391602 38.965625)scale(0.7)" xlink:href="#DejaVuSans-52"/>
      </g>
     </g>
    </g>
    <g id="ytick_3">
     <g id="line2d_41">
      <defs>
       <path d="M 0 0 
L -2 0 
" id="m95148d447e" style="stroke:#000000;stroke-width:0.6;"/>
      </defs>
      <g>
       <use style="stroke:#000000;stroke-width:0.6;" x="42.1" xlink:href="#m95148d447e" y="296.654179"/>
      </g>
     </g>
    </g>
    <g id="ytick_4">
     <g id="line2d_42">
      <g>
       <use style="stroke:#000000;stroke-width:0.6;" x="42.1" xlink:href="#m95148d447e" y="271.748021"/>
      </g>
     </g>
    </g>
    <g id="ytick_5">
     <g id="line2d_43">
      <g>
       <use style="stroke:#000000;stroke-width:0.6;" x="42.1" xlink:href="#m95148d447e" y="254.07682"/>
      </g>
     </g>
    </g>
    <g id="ytick_6">
     <g id="line2d_44">
      <g>
       <use style="stroke:#000000;stroke-width:0.6;" x="42.1" xlink:href="#m95148d447e" y="240.369972"/>
      </g>
     </g>
    </g>
    <g id="ytick_7">
     <g id="line2d_45">
      <g>
       <use style="stroke:#000000;stroke-width:0.6;" x="42.1" xlink:href="#m95148d447e" y="229.170662"/>
      </g>
     </g>
    </g>
    <g id="ytick_8">
     <g id="line2d_46">
      <g>
       <use style="stroke:#000000;stroke-width:0.6;" x="42.1" xlink:href="#m95148d447e" y="219.70178"/>
      </g>
     </g>
    </g>
    <g id="ytick_9">
     <g id="line2d_47">
      <g>
       <use style="stroke:#000000;stroke-width:0.6;" x="42.1" xlink:href="#m95148d447e" y="211.499462"/>
      </g>
     </g>
    </g>
    <g id="ytick_10">
     <g id="line2d_48">
      <g>
       <use style="stroke:#000000;stroke-width:0.6;" x="42.1" xlink:href="#m95148d447e" y="204.264504"/>
      </g>
     </g>
    </g>
    <g id="ytick_11">
     <g id="line2d_49">
      <g>
       <use style="stroke:#000000;stroke-width:0.6;" x="42.1" xlink:href="#m95148d447e" y="155.215255"/>
      </g>
     </g>
    </g>
    <g id="ytick_12">
     <g id="line2d_50">
      <g>
       <use style="stroke:#000000;stroke-width:0.6;" x="42.1" xlink:href="#m95148d447e" y="130.309097"/>
      </g>
     </g>
    </g>
    <g id="ytick_13">
     <g id="line2d_51">
      <g>
       <use style="stroke:#000000;stroke-width:0.6;" x="42.1" xlink:href="#m95148d447e" y="112.637896"/>
      </g>
     </g>
    </g>
    <g id="ytick_14">
     <g id="line2d_52">
      <g>
       <use style="stroke:#000000;stroke-width:0.6;" x="42.1" xlink:href="#m95148d447e" y="98.931048"/>
      </g>
     </g>
    </g>
    <g id="ytick_15">
     <g id="line2d_53">
      <g>
       <use style="stroke:#000000;stroke-width:0.6;" x="42.1" xlink:href="#m95148d447e" y="87.731738"/>
      </g>
     </g>
    </g>
    <g id="ytick_16">
     <g id="line2d_54">
      <g>
       <use style="stroke:#000000;stroke-width:0.6;" x="42.1" xlink:href="#m95148d447e" y="78.262856"/>
      </g>
     </g>
    </g>
    <g id="ytick_17">
     <g id="line2d_55">
      <g>
       <use style="stroke:#000000;stroke-width:0.6;" x="42.1" xlink:href="#m95148d447e" y="70.060537"/>
      </g>
     </g>
    </g>
    <g id="ytick_18">
     <g id="line2d_56">
      <g>
       <use style="stroke:#000000;stroke-width:0.6;" x="42.1" xlink:href="#m95148d447e" y="62.82558"/>
      </g>
     </g>
    </g>
    <g id="ytick_19">
     <g id="line2d_57">
      <g>
       <use style="stroke:#000000;stroke-width:0.6;" x="42.1" xlink:href="#m95148d447e" y="13.776331"/>
      </g>
     </g>
    </g>
   </g>
   <g id="line2d_58">
    <path clip-path="url(#pfe87ed96fe)" d="M 151.540648 684.398125 
L 151.743353 290.231405 
L 151.861927 684.398125 
M 223.251821 684.398125 
L 223.341251 265.325247 
L 246.390626 247.654046 
L 265.223337 222.747888 
L 281.146167 290.231405 
L 307.105423 290.231405 
L 317.988525 247.654046 
L 336.821235 247.654046 
L 345.089161 233.947198 
L 352.744065 213.279006 
L 378.703321 213.279006 
L 384.288137 233.947198 
L 389.586423 213.279006 
L 399.431386 213.279006 
L 404.022984 205.076687 
L 408.419134 191.36984 
L 416.68706 191.36984 
L 420.585407 205.076687 
L 424.341964 191.36984 
L 427.966684 191.36984 
L 431.468509 205.076687 
L 434.855498 213.279006 
L 438.134946 205.076687 
L 441.313472 213.279006 
L 444.397102 205.076687 
L 447.391339 205.076687 
L 450.301219 191.36984 
L 453.131367 175.253814 
L 455.886035 175.253814 
L 458.569145 180.170529 
L 461.184321 180.170529 
L 463.734918 166.463681 
L 466.224049 158.775392 
L 468.654607 158.775392 
L 471.029285 166.463681 
L 473.350594 158.775392 
L 475.620882 158.775392 
L 477.842343 166.463681 
L 480.017032 158.775392 
L 482.146879 158.775392 
L 484.233696 166.463681 
L 486.279188 166.463681 
L 488.284958 158.775392 
L 492.183305 158.775392 
L 494.07866 175.253814 
L 495.939862 166.463681 
L 497.768121 158.775392 
L 499.564582 166.463681 
L 504.773784 166.463681 
L 506.453397 158.775392 
L 511.334333 158.775392 
L 512.91137 155.264371 
L 514.464692 148.792481 
L 517.502968 148.792481 
L 518.989237 155.264371 
L 520.454424 148.792481 
L 521.899118 148.792481 
L 523.323884 145.795489 
L 524.729266 145.795489 
L 526.115782 148.792481 
L 528.8342 148.792481 
L 530.167044 145.795489 
L 531.482908 145.795489 
L 532.78222 148.792481 
L 534.065391 145.795489 
L 535.332817 148.792481 
L 536.58488 145.795489 
L 537.821948 135.085633 
L 539.044375 132.676456 
L 541.446668 123.886323 
L 542.627183 132.676456 
L 543.794359 140.207444 
L 544.948493 135.085633 
L 547.21878 135.085633 
L 548.335482 140.207444 
L 550.533309 140.207444 
L 551.61493 145.795489 
L 553.744778 145.795489 
L 554.793456 140.207444 
L 559.882856 140.207444 
L 560.871323 135.085633 
L 561.850419 132.676456 
L 562.820323 140.207444 
L 563.781203 135.085633 
L 564.733228 140.207444 
L 565.676558 135.085633 
L 566.611351 135.085633 
L 567.53776 132.676456 
L 568.455935 128.124289 
L 572.928232 128.124289 
L 573.799916 132.676456 
L 574.664305 135.085633 
L 576.371682 135.085633 
L 577.214902 128.124289 
L 578.051295 123.886323 
L 578.88097 121.87217 
L 582.932231 121.87217 
L 583.72376 118.031786 
L 584.509269 116.198033 
L 586.06259 116.198033 
L 586.830578 112.687012 
L 589.100866 112.687012 
L 589.846674 109.365871 
L 590.587135 107.770297 
L 591.322327 107.770297 
L 592.052322 104.69835 
L 592.777195 104.69835 
L 593.497016 107.770297 
L 594.211856 104.69835 
L 594.921783 104.69835 
L 595.626863 101.772743 
L 597.022749 107.770297 
L 597.71368 109.365871 
L 598.400021 107.770297 
L 600.432099 107.770297 
L 601.10067 109.365871 
L 601.764942 109.365871 
L 602.42497 107.770297 
L 603.080806 107.770297 
L 603.732505 109.365871 
L 604.380118 109.365871 
L 605.023696 112.687012 
L 605.663289 107.770297 
L 606.298946 107.770297 
L 606.930715 104.69835 
L 607.558644 107.770297 
L 608.182778 109.365871 
L 608.803164 109.365871 
L 609.419846 107.770297 
L 611.850404 107.770297 
L 612.449211 109.365871 
L 613.044566 109.365871 
L 614.225081 116.198033 
L 614.810318 112.687012 
L 615.392257 116.198033 
L 615.970936 112.687012 
L 616.546391 116.198033 
L 618.253768 116.198033 
L 619.376539 109.365871 
L 619.933381 107.770297 
L 620.487237 107.770297 
L 621.038139 104.69835 
L 621.586119 100.360585 
L 622.131207 100.360585 
L 622.673434 101.772743 
L 623.212829 100.360585 
L 623.749422 97.630085 
L 624.283242 100.360585 
L 624.814317 97.630085 
L 625.342676 96.309042 
L 625.868346 96.309042 
L 626.391354 93.749248 
L 626.911728 93.749248 
L 627.429493 90.099097 
L 628.457302 90.099097 
L 628.967396 91.291875 
L 629.474984 96.309042 
L 629.98009 97.630085 
L 630.982952 97.630085 
L 631.480755 100.360585 
L 631.97617 100.360585 
L 632.469221 96.309042 
L 632.95993 96.309042 
L 633.448318 93.749248 
L 633.934408 96.309042 
L 634.418221 97.630085 
L 634.899779 97.630085 
L 635.379102 101.772743 
L 636.331126 101.772743 
L 636.803868 104.69835 
L 639.135659 104.69835 
L 639.595766 109.365871 
L 640.053833 112.687012 
L 640.509878 109.365871 
L 641.415971 109.365871 
L 641.866054 107.770297 
L 642.314184 107.770297 
L 642.760379 104.69835 
L 643.647028 104.69835 
L 644.087514 101.772743 
L 644.52613 100.360585 
L 644.962892 97.630085 
L 645.397814 97.630085 
L 645.830913 96.309042 
L 646.262204 96.309042 
L 646.691701 97.630085 
L 647.11942 96.309042 
L 647.545375 97.630085 
L 647.96958 100.360585 
L 648.812801 100.360585 
L 649.231844 101.772743 
L 649.649194 100.360585 
L 650.064864 101.772743 
L 650.478868 101.772743 
L 650.89122 100.360585 
L 652.524359 100.360585 
L 652.928641 97.630085 
L 653.331347 96.309042 
L 653.732489 96.309042 
L 654.13208 93.749248 
L 654.53013 93.749248 
L 654.926652 91.291875 
L 655.321658 93.749248 
L 655.715159 93.749248 
L 656.107167 90.099097 
L 656.497693 91.291875 
L 656.886748 91.291875 
L 657.274343 87.780854 
L 658.045196 87.780854 
L 658.428477 85.54693 
L 659.190797 85.54693 
L 659.947533 90.099097 
L 660.323831 87.780854 
L 660.698764 87.780854 
L 661.072341 85.54693 
L 661.444572 87.780854 
L 661.815467 87.780854 
L 662.185034 85.54693 
L 662.553283 84.459713 
L 662.920225 87.780854 
L 663.285868 87.780854 
L 663.65022 85.54693 
L 664.013293 87.780854 
L 664.375093 87.780854 
L 664.735631 90.099097 
L 665.094914 90.099097 
L 665.452953 91.291875 
L 665.809754 93.749248 
L 666.165327 93.749248 
L 666.519681 91.291875 
L 666.872823 90.099097 
L 667.224762 90.099097 
L 667.575505 87.780854 
L 668.27344 87.780854 
L 668.620647 90.099097 
L 669.311579 90.099097 
L 669.655319 91.291875 
L 669.99792 90.099097 
L 670.67973 90.099097 
L 671.018955 91.291875 
L 671.694082 91.291875 
L 672.029997 93.749248 
L 672.364824 93.749248 
L 672.698569 97.630085 
L 673.031239 96.309042 
L 673.362841 96.309042 
L 674.022868 91.291875 
L 674.678705 96.309042 
L 675.330403 91.291875 
L 675.654718 93.749248 
L 675.978016 91.291875 
L 676.300307 93.749248 
L 676.621594 91.291875 
L 676.941886 91.291875 
L 677.261187 93.749248 
L 677.579505 91.291875 
L 677.896844 90.099097 
L 678.528614 90.099097 
L 678.843055 85.54693 
L 679.156542 87.780854 
L 679.469081 85.54693 
L 680.091335 90.099097 
L 680.401062 91.291875 
L 681.32471 91.291875 
L 681.630767 90.099097 
L 682.240172 85.54693 
L 682.543532 85.54693 
L 682.846003 84.459713 
L 683.448302 84.459713 
L 683.748139 85.54693 
L 684.047109 85.54693 
L 684.345216 84.459713 
L 684.642465 84.459713 
L 684.938861 82.34136 
L 685.234409 84.459713 
L 685.529113 84.459713 
L 685.82298 85.54693 
L 686.116012 87.780854 
L 686.408216 85.54693 
L 686.699596 84.459713 
L 686.990155 85.54693 
L 687.568834 85.54693 
L 687.856963 87.780854 
L 688.716556 87.780854 
L 689.001505 85.54693 
L 689.28567 85.54693 
L 689.569056 87.780854 
L 689.851666 87.780854 
L 690.133505 84.459713 
L 690.414577 84.459713 
L 690.694887 85.54693 
L 690.974437 84.459713 
L 691.253233 84.459713 
L 691.531279 82.34136 
L 692.910391 82.34136 
L 693.184017 81.308964 
L 693.456921 77.344611 
L 694.271332 77.344611 
L 694.541382 79.294811 
L 694.810727 79.294811 
L 695.079372 81.308964 
L 695.34732 79.294811 
L 695.88114 79.294811 
L 696.147019 77.344611 
L 696.412216 77.344611 
L 696.676733 76.392249 
L 696.940574 74.530708 
L 697.203744 76.392249 
L 697.466244 74.530708 
L 697.72808 74.530708 
L 697.989253 72.723927 
L 698.249767 72.723927 
L 698.509626 74.530708 
L 698.768833 74.530708 
L 699.027391 72.723927 
L 699.285304 71.840082 
L 699.799205 71.840082 
L 700.310562 67.602116 
L 700.565295 67.602116 
L 700.819401 69.262383 
L 701.072883 70.109654 
L 701.325744 71.840082 
L 701.577989 72.723927 
L 701.829618 71.840082 
L 702.080636 72.723927 
L 703.078653 79.294811 
L 703.326658 79.294811 
L 703.574069 77.344611 
L 703.820888 77.344611 
L 704.067119 76.392249 
L 704.312765 74.530708 
L 704.557828 74.530708 
L 704.802311 76.392249 
L 705.289547 72.723927 
L 705.532306 76.392249 
L 705.774496 74.530708 
L 706.016119 76.392249 
L 706.257179 74.530708 
L 706.497677 74.530708 
L 706.737617 76.392249 
L 707.929025 76.392249 
L 708.165666 74.530708 
L 708.401767 76.392249 
L 708.637329 79.294811 
L 708.872355 79.294811 
L 709.106847 77.344611 
L 709.340809 76.392249 
L 709.574242 77.344611 
L 709.807148 77.344611 
L 710.271391 81.308964 
L 710.502733 77.344611 
L 710.733557 76.392249 
L 710.963867 76.392249 
L 711.422952 72.723927 
L 711.880005 72.723927 
L 712.107776 71.840082 
L 712.78809 71.840082 
L 713.013869 70.109654 
L 713.463952 70.109654 
L 713.68826 71.840082 
L 713.912083 71.840082 
L 714.135421 72.723927 
L 714.358278 71.840082 
L 714.580654 71.840082 
L 714.802553 72.723927 
L 715.244926 72.723927 
L 715.465404 74.530708 
L 715.685413 72.723927 
L 715.904954 76.392249 
L 716.124029 77.344611 
L 716.56079 77.344611 
L 716.995713 81.308964 
L 718.289599 81.308964 
L 718.50368 79.294811 
L 718.717318 79.294811 
L 718.930515 77.344611 
L 719.355594 77.344611 
L 719.567479 76.392249 
L 719.989949 76.392249 
L 720.410699 71.840082 
L 720.620433 71.840082 
L 720.829742 72.723927 
L 721.247092 76.392249 
L 721.662762 72.723927 
L 721.869972 72.723927 
L 722.076767 71.840082 
L 722.283148 72.723927 
L 722.489118 74.530708 
L 722.694678 74.530708 
L 722.89983 72.723927 
L 723.512852 72.723927 
L 723.716387 74.530708 
L 723.919522 74.530708 
L 724.122258 72.723927 
L 724.728089 72.723927 
L 724.929246 74.530708 
L 725.130011 72.723927 
L 725.330388 72.723927 
L 725.530376 71.840082 
L 726.128028 71.840082 
L 726.32648 70.109654 
L 726.722242 70.109654 
L 726.919556 69.262383 
L 727.116494 70.109654 
L 727.705065 70.109654 
L 728.095591 72.723927 
L 728.290302 72.723927 
L 728.484646 74.530708 
L 728.678625 72.723927 
L 728.872241 74.530708 
L 729.065494 72.723927 
L 729.258387 72.723927 
L 729.45092 74.530708 
L 729.643095 74.530708 
L 730.217483 69.262383 
L 730.598642 69.262383 
L 730.788695 70.109654 
L 730.9784 70.109654 
L 731.167756 69.262383 
L 731.356766 69.262383 
L 731.545431 67.602116 
L 731.733752 70.109654 
L 731.92173 70.109654 
L 732.109366 69.262383 
L 732.296663 65.985545 
L 732.48362 65.192939 
L 732.856523 65.192939 
L 733.042471 63.637763 
L 733.413365 63.637763 
L 733.598314 65.985545 
L 733.967221 62.120991 
L 734.151182 61.376423 
L 734.334816 61.376423 
L 734.518123 59.913827 
L 734.701106 59.913827 
L 734.883766 59.195384 
L 735.611191 59.195384 
L 735.79225 57.783226 
L 736.153418 57.783226 
L 736.333529 56.402806 
L 736.871987 59.913827 
L 737.050851 59.195384 
L 737.229406 57.783226 
L 737.407653 59.195384 
L 737.585592 59.195384 
L 737.763226 59.913827 
L 737.940555 61.376423 
L 738.117579 59.195384 
L 738.646841 59.195384 
L 738.82266 56.402806 
L 739.522961 56.402806 
L 739.697296 57.783226 
L 739.871338 57.783226 
L 740.391712 61.376423 
L 741.253218 61.376423 
L 741.42466 62.120991 
L 741.595818 63.637763 
L 741.937286 61.376423 
L 742.107598 61.376423 
L 742.277629 62.120991 
L 742.616854 62.120991 
L 742.954968 65.192939 
L 743.29198 65.192939 
L 743.460074 63.637763 
L 743.627895 65.192939 
L 743.795444 63.637763 
L 743.962722 63.637763 
L 744.129729 62.120991 
L 744.296467 62.120991 
L 744.462936 63.637763 
L 744.629137 63.637763 
L 744.960739 65.985545 
L 745.126142 65.985545 
L 745.29128 67.602116 
L 745.785116 67.602116 
L 745.949205 65.985545 
L 746.113034 65.985545 
L 746.276603 65.192939 
L 746.765762 65.192939 
L 746.928302 65.985545 
L 747.090586 65.192939 
L 747.252616 65.192939 
L 747.737186 61.376423 
L 748.219493 61.376423 
L 748.379763 59.913827 
L 748.539784 59.913827 
L 748.859086 62.120991 
L 749.018367 61.376423 
L 749.177403 62.120991 
L 749.653048 62.120991 
L 749.81111 61.376423 
L 749.968931 61.376423 
L 750.126512 62.120991 
L 750.75444 62.120991 
L 750.910828 61.376423 
L 751.066979 62.120991 
L 751.222894 63.637763 
L 751.689234 63.637763 
L 751.844213 62.120991 
L 751.998961 63.637763 
L 752.307762 63.637763 
L 752.461817 65.192939 
L 752.615643 65.192939 
L 752.76924 65.985545 
L 752.922609 65.985545 
L 753.07575 69.262383 
L 753.228665 69.262383 
L 753.381354 70.109654 
L 753.686056 72.723927 
L 753.83807 71.840082 
L 753.989862 70.109654 
L 754.14143 71.840082 
L 754.292777 71.840082 
L 754.443902 70.109654 
L 754.594806 71.840082 
L 754.74549 71.840082 
L 754.895955 72.723927 
L 755.0462 74.530708 
L 755.196228 72.723927 
L 755.346038 74.530708 
L 755.495631 72.723927 
L 755.645007 72.723927 
L 755.794168 71.840082 
L 755.943114 69.262383 
L 756.091846 69.262383 
L 756.536759 65.192939 
L 756.684639 65.192939 
L 757.27405 59.195384 
L 757.567498 59.195384 
L 757.713911 56.402806 
L 757.860116 57.783226 
L 758.006114 57.783226 
L 758.297494 61.376423 
L 758.442876 59.913827 
L 758.877798 59.913827 
L 759.022367 59.195384 
L 759.166733 57.783226 
L 759.310897 59.195384 
L 759.454861 59.195384 
L 759.598624 59.913827 
L 759.742188 59.195384 
L 760.028718 59.195384 
L 760.171685 59.913827 
L 760.314455 61.376423 
L 760.599404 61.376423 
L 760.741584 62.120991 
L 760.883569 62.120991 
L 761.025359 63.637763 
L 761.166954 62.120991 
L 761.308356 63.637763 
L 761.449564 63.637763 
L 761.59058 65.192939 
L 761.872035 65.192939 
L 762.012476 65.985545 
L 762.152725 63.637763 
L 762.292785 65.192939 
L 762.432655 63.637763 
L 762.572336 65.192939 
L 762.711828 65.192939 
L 762.851132 62.120991 
L 762.990248 62.120991 
L 763.129178 61.376423 
L 763.26792 62.120991 
L 763.406477 61.376423 
L 763.544848 59.913827 
L 763.683034 59.913827 
L 763.958852 56.402806 
L 764.096486 56.402806 
L 764.233936 57.783226 
L 764.371204 57.783226 
L 764.508289 56.402806 
L 764.918458 59.913827 
L 765.054819 59.913827 
L 765.191001 59.195384 
L 765.327004 59.913827 
L 765.462827 59.195384 
L 765.86923 59.195384 
L 766.004343 59.913827 
L 766.13928 61.376423 
L 766.67727 61.376423 
L 766.811331 62.120991 
L 766.945219 61.376423 
L 767.345842 61.376423 
L 767.479039 59.913827 
L 767.877601 59.913827 
L 768.010114 59.195384 
L 768.670141 53.081665 
L 768.801642 53.081665 
L 768.932976 52.438453 
L 769.064143 52.438453 
L 769.195143 51.17189 
L 769.71749 51.17189 
L 769.847666 52.438453 
L 769.977677 51.17189 
L 770.107525 52.438453 
L 770.496092 52.438453 
L 770.62529 51.17189 
L 770.754327 51.17189 
L 770.883202 50.548269 
L 771.011918 49.319705 
L 771.268868 51.17189 
L 771.397104 50.548269 
L 771.52518 51.17189 
L 771.653099 52.438453 
L 771.780859 51.17189 
L 771.908461 51.17189 
L 772.035906 53.081665 
L 772.163193 53.081665 
L 772.290324 54.388653 
L 772.417299 54.388653 
L 772.544118 53.081665 
L 772.797289 53.081665 
L 772.923643 54.388653 
L 773.049842 53.081665 
L 773.928944 53.081665 
L 774.053922 51.17189 
L 774.303424 51.17189 
L 774.42795 52.438453 
L 774.800628 52.438453 
L 774.924556 51.17189 
L 775.048336 51.17189 
L 775.171967 52.438453 
L 775.295451 52.438453 
L 775.418787 53.081665 
L 775.541976 53.081665 
L 775.910663 56.402806 
L 776.033267 54.388653 
L 776.27804 56.402806 
L 776.522234 56.402806 
L 776.644115 57.783226 
L 776.765852 57.783226 
L 776.887445 56.402806 
L 777.008896 57.783226 
L 777.130205 57.783226 
L 777.25137 56.402806 
L 777.372394 56.402806 
L 777.493277 54.388653 
L 777.855077 54.388653 
L 777.975396 53.081665 
L 778.095575 53.081665 
L 778.215615 52.438453 
L 778.335515 52.438453 
L 778.455276 53.081665 
L 778.694382 53.081665 
L 778.813728 54.388653 
L 778.932937 54.388653 
L 779.289738 51.17189 
L 779.408399 50.548269 
L 779.526923 51.17189 
L 779.645311 51.17189 
L 779.763564 50.548269 
L 779.881682 50.548269 
L 779.999665 49.319705 
L 780.117513 50.548269 
L 780.470253 47.521738 
L 780.587566 48.115232 
L 780.821793 48.115232 
L 780.938707 47.521738 
L 781.055489 47.521738 
L 781.17214 48.115232 
L 781.405046 51.17189 
L 781.521303 52.438453 
L 781.753424 52.438453 
L 781.869289 53.081665 
L 781.985025 54.388653 
L 782.561765 54.388653 
L 782.676728 55.724057 
L 782.791563 54.388653 
L 783.02085 54.388653 
L 783.24963 56.402806 
L 783.36383 56.402806 
L 783.477904 55.724057 
L 783.591852 53.081665 
L 783.705674 54.388653 
L 783.819372 54.388653 
L 783.932944 53.081665 
L 784.272913 56.402806 
L 784.498939 56.402806 
L 784.837054 54.388653 
L 784.949513 55.724057 
L 785.174066 55.724057 
L 785.286159 56.402806 
L 785.621711 54.388653 
L 786.067424 54.388653 
L 786.289562 52.438453 
L 786.400452 53.081665 
L 786.621875 54.388653 
L 786.842825 52.438453 
L 786.953122 52.438453 
L 787.173365 51.17189 
L 787.39314 51.17189 
L 787.502852 50.548269 
L 787.612448 51.17189 
L 787.831291 53.081665 
L 788.049671 53.081665 
L 788.267591 52.438453 
L 788.810388 52.438453 
L 788.918605 51.17189 
L 789.134702 52.438453 
L 789.350347 50.548269 
L 789.458001 51.17189 
L 789.672972 50.548269 
L 789.780291 51.17189 
L 789.887498 50.548269 
L 790.101578 52.438453 
L 790.208453 51.17189 
L 790.42187 52.438453 
L 790.741171 49.319705 
L 790.847386 49.319705 
L 791.059489 51.17189 
L 791.165377 51.17189 
L 791.376828 52.438453 
L 791.587848 51.17189 
L 791.798437 50.548269 
L 792.008598 51.17189 
L 792.218332 51.17189 
L 792.42764 52.438453 
L 792.84499 47.521738 
L 792.949065 47.521738 
L 793.053035 46.351681 
L 793.260661 47.521738 
L 793.364317 47.521738 
L 793.46787 46.351681 
L 793.674665 48.115232 
L 793.881046 47.521738 
L 794.087016 47.521738 
L 794.395203 45.203495 
L 794.497728 45.203495 
L 794.906814 43.520482 
L 795.110751 44.637352 
L 795.212568 44.637352 
L 795.314286 45.203495 
L 795.51742 44.637352 
L 795.821375 46.351681 
L 796.023516 45.203495 
L 796.72791 45.203495 
L 797.028329 48.115232 
L 797.228124 46.351681 
L 797.327876 47.521738 
L 797.427533 46.351681 
L 797.626558 47.521738 
L 797.725927 47.521738 
L 798.023461 43.520482 
L 798.221342 44.637352 
L 798.812721 44.637352 
L 799.009098 45.203495 
L 799.107146 45.203495 
L 799.205101 46.351681 
L 799.302964 44.637352 
L 799.498411 45.203495 
L 799.8882 45.203495 
L 800.082544 44.637352 
L 800.276524 45.203495 
L 800.373377 44.637352 
L 800.566811 45.203495 
L 800.952597 45.203495 
L 801.624273 41.882354 
L 801.815382 41.882354 
L 802.006137 40.814047 
L 802.196541 39.245634 
L 802.386594 40.28678 
L 802.481489 40.28678 
L 802.576298 40.814047 
L 802.765655 40.28678 
L 802.954665 40.28678 
L 803.143329 40.814047 
L 803.33165 40.814047 
L 803.425682 40.28678 
L 803.613489 41.882354 
L 803.988082 38.221842 
L 804.081519 38.221842 
L 804.174871 37.716274 
L 804.361322 38.221842 
L 804.454421 40.28678 
L 804.640369 38.221842 
L 804.733217 39.245634 
L 804.825983 37.716274 
L 805.011263 39.245634 
L 805.288563 35.734613 
L 805.38083 35.249029 
L 805.473016 36.717453 
L 805.657141 35.734613 
L 805.74908 35.734613 
L 805.840938 35.249029 
L 806.299005 38.221842 
L 806.390375 39.245634 
L 806.572873 38.221842 
L 807.118441 38.221842 
L 807.299658 37.716274 
L 807.751316 37.716274 
L 807.931428 40.28678 
L 808.021366 40.28678 
L 808.201007 41.882354 
L 808.380337 44.637352 
L 808.648749 42.423557 
L 808.738065 42.423557 
L 808.916466 41.882354 
L 809.094559 42.423557 
L 809.272346 40.814047 
L 809.449827 41.882354 
L 809.715478 43.520482 
L 809.803876 42.423557 
L 809.980447 45.203495 
L 810.06862 45.203495 
L 810.244739 46.351681 
L 810.332686 46.351681 
L 810.420558 45.203495 
L 810.596079 46.351681 
L 810.858802 46.351681 
L 811.033581 44.637352 
L 811.120859 44.637352 
L 811.208064 43.520482 
L 811.382252 45.203495 
L 811.556148 43.520482 
L 811.642986 43.520482 
L 811.816444 41.882354 
L 811.903063 41.882354 
L 811.98961 42.423557 
L 812.162487 40.28678 
L 812.335075 41.882354 
L 812.507376 40.814047 
L 812.679389 40.28678 
L 812.765288 40.814047 
L 812.851116 39.245634 
L 812.936873 40.28678 
L 813.108173 39.245634 
L 813.193716 40.28678 
L 813.535184 36.717453 
L 813.620375 36.717453 
L 813.705496 35.249029 
L 813.875527 35.734613 
L 813.960438 35.734613 
L 814.045279 36.717453 
L 814.214752 35.734613 
L 814.72151 35.734613 
L 814.805728 36.717453 
L 814.97396 35.734613 
L 815.141917 35.249029 
L 815.225794 35.249029 
L 815.393343 34.289226 
L 815.477015 33.81489 
L 815.644158 34.289226 
L 815.727628 34.289226 
L 815.894365 35.249029 
L 815.977633 35.249029 
L 816.143968 33.81489 
L 816.227035 33.81489 
L 816.310036 32.877068 
L 816.475836 35.249029 
L 816.641372 34.289226 
L 816.889178 32.877068 
L 817.054053 34.289226 
L 817.218665 32.877068 
L 817.465092 30.593305 
L 817.547103 30.593305 
L 817.710932 31.496647 
L 817.792749 31.496647 
L 817.956189 29.262723 
L 818.037812 29.703056 
L 818.11937 30.593305 
L 818.200865 29.703056 
L 818.282295 30.593305 
L 818.5262 28.391416 
L 818.688485 27.960353 
L 818.850514 27.960353 
L 819.01229 28.391416 
L 819.335084 25.024757 
L 819.415625 25.024757 
L 819.576519 23.808358 
L 819.737163 23.808358 
L 819.977661 22.223079 
L 820.057703 23.010605 
L 820.217601 22.223079 
L 820.377251 22.223079 
L 820.456984 23.808358 
L 820.536656 23.010605 
L 820.695814 23.808358 
L 820.854728 23.010605 
L 821.013398 23.010605 
L 821.171824 23.808358 
L 821.487949 23.808358 
L 821.80311 27.107199 
L 822.038852 27.107199 
L 822.117313 26.265732 
L 822.352339 28.391416 
L 822.508726 28.391416 
L 822.586831 29.262723 
L 822.664877 28.391416 
L 822.820793 29.703056 
L 823.209555 27.107199 
L 823.364651 26.265732 
L 823.442112 25.849281 
L 823.596859 26.265732 
L 823.674146 26.265732 
L 823.751375 27.107199 
L 823.982717 25.024757 
L 824.059715 25.849281 
L 824.213541 23.808358 
L 824.290368 23.808358 
L 824.367138 24.211154 
L 824.826563 22.223079 
L 824.979252 23.010605 
L 825.055512 22.223079 
L 825.207863 23.010605 
L 825.359989 23.010605 
L 825.511892 22.223079 
L 825.663572 22.223079 
L 825.739329 21.833071 
L 825.890675 22.223079 
L 826.0418 21.060405 
L 826.192704 21.833071 
L 826.644099 21.833071 
L 826.71914 22.223079 
L 826.794126 21.833071 
L 826.943936 23.010605 
L 827.168245 23.010605 
L 827.317513 22.223079 
L 827.392067 22.223079 
L 827.541013 21.833071 
L 827.615405 21.833071 
L 827.689744 22.223079 
L 827.838262 21.060405 
L 827.91244 22.223079 
L 827.986566 21.833071 
L 828.060638 21.833071 
L 828.282537 20.677686 
L 828.356398 20.677686 
L 828.503961 21.060405 
L 828.577663 21.060405 
L 828.72491 20.677686 
L 828.871948 21.060405 
L 829.018777 21.060405 
L 829.238629 22.223079 
L 829.311809 22.223079 
L 829.604013 24.211154 
L 829.676935 24.211154 
L 829.749805 23.808358 
L 830.185952 25.849281 
L 830.258464 25.849281 
L 830.330926 26.265732 
L 830.475697 25.024757 
L 830.692473 25.024757 
L 830.836738 26.265732 
L 831.052759 25.024757 
L 831.411793 27.960353 
L 831.48345 27.960353 
L 831.769583 25.849281 
L 831.840993 25.849281 
L 832.054926 24.211154 
L 832.126139 24.211154 
L 832.268417 25.024757 
L 832.410499 25.024757 
L 832.552386 25.849281 
L 832.694079 25.024757 
L 832.835578 25.849281 
L 833.117995 23.808358 
L 833.188478 23.808358 
L 833.258914 22.223079 
L 833.329302 23.010605 
L 833.540178 21.833071 
L 833.610374 21.833071 
L 833.750624 21.060405 
L 833.890683 21.060405 
L 834.170234 23.010605 
L 834.309726 23.010605 
L 834.44903 22.223079 
L 834.518612 22.223079 
L 834.588147 21.833071 
L 834.657635 22.223079 
L 834.727076 21.060405 
L 834.93512 22.223079 
L 835.211862 22.223079 
L 835.280932 21.060405 
L 835.418933 21.833071 
L 835.556751 21.833071 
L 835.62559 21.060405 
L 835.763132 21.833071 
L 835.900491 21.833071 
L 836.106188 23.010605 
L 836.379814 21.060405 
L 836.516356 20.677686 
L 836.652718 21.833071 
L 836.7889 21.833071 
L 836.992836 20.677686 
L 837.128571 20.677686 
L 837.467129 23.010605 
L 837.534707 22.223079 
L 837.737178 23.808358 
L 837.804581 23.010605 
L 837.939253 23.808358 
L 838.073751 23.808358 
L 838.140934 23.010605 
L 838.208073 23.808358 
L 838.40923 22.223079 
L 838.810372 25.849281 
L 839.076937 25.849281 
L 839.143471 26.265732 
L 839.409179 25.024757 
L 839.541777 25.849281 
L 839.674205 24.211154 
L 839.938553 26.265732 
L 840.004535 26.265732 
L 840.136371 27.107199 
L 840.202226 27.107199 
L 840.465228 29.262723 
L 840.530874 29.703056 
L 840.793042 28.391416 
L 840.85848 28.391416 
L 840.989232 27.960353 
L 841.054545 27.960353 
L 841.054545 27.960353 
" style="fill:none;stroke:#0000ff;stroke-linecap:square;stroke-width:1.5;"/>
   </g>
   <g id="patch_3">
    <path d="M 42.1 303.709091 
L 42.1 7.2 
" style="fill:none;stroke:#000000;stroke-linecap:square;stroke-linejoin:miter;stroke-width:0.8;"/>
   </g>
   <g id="patch_4">
    <path d="M 879.1 303.709091 
L 879.1 7.2 
" style="fill:none;stroke:#000000;stroke-linecap:square;stroke-linejoin:miter;stroke-width:0.8;"/>
   </g>
   <g id="patch_5">
    <path d="M 42.1 303.709091 
L 879.1 303.709091 
" style="fill:none;stroke:#000000;stroke-linecap:square;stroke-linejoin:miter;stroke-width:0.8;"/>
   </g>
   <g id="patch_6">
    <path d="M 42.1 7.2 
L 879.1 7.2 
" style="fill:none;stroke:#000000;stroke-linecap:square;stroke-linejoin:miter;stroke-width:0.8;"/>
   </g>
  </g>
  <g id="axes_2">
   <g id="patch_7">
    <path d="M 42.1 659.52 
L 879.1 659.52 
L 879.1 363.010909 
L 42.1 363.010909 
z
" style="fill:#ffffff;"/>
   </g>
   <g id="matplotlib.axis_3">
    <g id="xtick_33">
     <g id="line2d_59">
      <path clip-path="url(#pbc05f961c0)" d="M 80.145455 659.52 
L 80.145455 363.010909 
" style="fill:none;stroke:#666666;stroke-linecap:square;stroke-opacity:0.3;stroke-width:0.8;"/>
     </g>
     <g id="line2d_60">
      <g>
       <use style="stroke:#000000;stroke-width:0.8;" x="80.145455" xlink:href="#m8571442e5e" y="659.52"/>
      </g>
     </g>
     <g id="text_7">
      <!-- $\mathdefault{10^{0}}$ -->
      <g transform="translate(71.345455 674.118438)scale(0.1 -0.1)">
       <use transform="translate(0 0.765625)" xlink:href="#DejaVuSans-49"/>
       <use transform="translate(63.623047 0.765625)" xlink:href="#DejaVuSans-48"/>
       <use transform="translate(128.203125 39.046875)scale(0.7)" xlink:href="#DejaVuSans-48"/>
      </g>
     </g>
    </g>
    <g id="xtick_34">
     <g id="line2d_61">
      <path clip-path="url(#pbc05f961c0)" d="M 317.988525 659.52 
L 317.988525 363.010909 
" style="fill:none;stroke:#666666;stroke-linecap:square;stroke-opacity:0.3;stroke-width:0.8;"/>
     </g>
     <g id="line2d_62">
      <g>
       <use style="stroke:#000000;stroke-width:0.8;" x="317.988525" xlink:href="#m8571442e5e" y="659.52"/>
      </g>
     </g>
     <g id="text_8">
      <!-- $\mathdefault{10^{1}}$ -->
      <g transform="translate(309.188525 674.118438)scale(0.1 -0.1)">
       <use transform="translate(0 0.684375)" xlink:href="#DejaVuSans-49"/>
       <use transform="translate(63.623047 0.684375)" xlink:href="#DejaVuSans-48"/>
       <use transform="translate(128.203125 38.965625)scale(0.7)" xlink:href="#DejaVuSans-49"/>
      </g>
     </g>
    </g>
    <g id="xtick_35">
     <g id="line2d_63">
      <path clip-path="url(#pbc05f961c0)" d="M 555.831595 659.52 
L 555.831595 363.010909 
" style="fill:none;stroke:#666666;stroke-linecap:square;stroke-opacity:0.3;stroke-width:0.8;"/>
     </g>
     <g id="line2d_64">
      <g>
       <use style="stroke:#000000;stroke-width:0.8;" x="555.831595" xlink:href="#m8571442e5e" y="659.52"/>
      </g>
     </g>
     <g id="text_9">
      <!-- $\mathdefault{10^{2}}$ -->
      <g transform="translate(547.031595 674.118438)scale(0.1 -0.1)">
       <use transform="translate(0 0.765625)" xlink:href="#DejaVuSans-49"/>
       <use transform="translate(63.623047 0.765625)" xlink:href="#DejaVuSans-48"/>
       <use transform="translate(128.203125 39.046875)scale(0.7)" xlink:href="#DejaVuSans-50"/>
      </g>
     </g>
    </g>
    <g id="xtick_36">
     <g id="line2d_65">
      <path clip-path="url(#pbc05f961c0)" d="M 793.674665 659.52 
L 793.674665 363.010909 
" style="fill:none;stroke:#666666;stroke-linecap:square;stroke-opacity:0.3;stroke-width:0.8;"/>
     </g>
     <g id="line2d_66">
      <g>
       <use style="stroke:#000000;stroke-width:0.8;" x="793.674665" xlink:href="#m8571442e5e" y="659.52"/>
      </g>
     </g>
     <g id="text_10">
      <!-- $\mathdefault{10^{3}}$ -->
      <g transform="translate(784.874665 674.118438)scale(0.1 -0.1)">
       <use transform="translate(0 0.765625)" xlink:href="#DejaVuSans-49"/>
       <use transform="translate(63.623047 0.765625)" xlink:href="#DejaVuSans-48"/>
       <use transform="translate(128.203125 39.046875)scale(0.7)" xlink:href="#DejaVuSans-51"/>
      </g>
     </g>
    </g>
    <g id="xtick_37">
     <g id="line2d_67">
      <g>
       <use style="stroke:#000000;stroke-width:0.6;" x="43.303097" xlink:href="#mc00b781ba1" y="659.52"/>
      </g>
     </g>
    </g>
    <g id="xtick_38">
     <g id="line2d_68">
      <g>
       <use style="stroke:#000000;stroke-width:0.6;" x="57.09608" xlink:href="#mc00b781ba1" y="659.52"/>
      </g>
     </g>
    </g>
    <g id="xtick_39">
     <g id="line2d_69">
      <g>
       <use style="stroke:#000000;stroke-width:0.6;" x="69.262353" xlink:href="#mc00b781ba1" y="659.52"/>
      </g>
     </g>
    </g>
    <g id="xtick_40">
     <g id="line2d_70">
      <g>
       <use style="stroke:#000000;stroke-width:0.6;" x="151.743353" xlink:href="#mc00b781ba1" y="659.52"/>
      </g>
     </g>
    </g>
    <g id="xtick_41">
     <g id="line2d_71">
      <g>
       <use style="stroke:#000000;stroke-width:0.6;" x="193.625439" xlink:href="#mc00b781ba1" y="659.52"/>
      </g>
     </g>
    </g>
    <g id="xtick_42">
     <g id="line2d_72">
      <g>
       <use style="stroke:#000000;stroke-width:0.6;" x="223.341251" xlink:href="#mc00b781ba1" y="659.52"/>
      </g>
     </g>
    </g>
    <g id="xtick_43">
     <g id="line2d_73">
      <g>
       <use style="stroke:#000000;stroke-width:0.6;" x="246.390626" xlink:href="#mc00b781ba1" y="659.52"/>
      </g>
     </g>
    </g>
    <g id="xtick_44">
     <g id="line2d_74">
      <g>
       <use style="stroke:#000000;stroke-width:0.6;" x="265.223337" xlink:href="#mc00b781ba1" y="659.52"/>
      </g>
     </g>
    </g>
    <g id="xtick_45">
     <g id="line2d_75">
      <g>
       <use style="stroke:#000000;stroke-width:0.6;" x="281.146167" xlink:href="#mc00b781ba1" y="659.52"/>
      </g>
     </g>
    </g>
    <g id="xtick_46">
     <g id="line2d_76">
      <g>
       <use style="stroke:#000000;stroke-width:0.6;" x="294.93915" xlink:href="#mc00b781ba1" y="659.52"/>
      </g>
     </g>
    </g>
    <g id="xtick_47">
     <g id="line2d_77">
      <g>
       <use style="stroke:#000000;stroke-width:0.6;" x="307.105423" xlink:href="#mc00b781ba1" y="659.52"/>
      </g>
     </g>
    </g>
    <g id="xtick_48">
     <g id="line2d_78">
      <g>
       <use style="stroke:#000000;stroke-width:0.6;" x="389.586423" xlink:href="#mc00b781ba1" y="659.52"/>
      </g>
     </g>
    </g>
    <g id="xtick_49">
     <g id="line2d_79">
      <g>
       <use style="stroke:#000000;stroke-width:0.6;" x="431.468509" xlink:href="#mc00b781ba1" y="659.52"/>
      </g>
     </g>
    </g>
    <g id="xtick_50">
     <g id="line2d_80">
      <g>
       <use style="stroke:#000000;stroke-width:0.6;" x="461.184321" xlink:href="#mc00b781ba1" y="659.52"/>
      </g>
     </g>
    </g>
    <g id="xtick_51">
     <g id="line2d_81">
      <g>
       <use style="stroke:#000000;stroke-width:0.6;" x="484.233696" xlink:href="#mc00b781ba1" y="659.52"/>
      </g>
     </g>
    </g>
    <g id="xtick_52">
     <g id="line2d_82">
      <g>
       <use style="stroke:#000000;stroke-width:0.6;" x="503.066407" xlink:href="#mc00b781ba1" y="659.52"/>
      </g>
     </g>
    </g>
    <g id="xtick_53">
     <g id="line2d_83">
      <g>
       <use style="stroke:#000000;stroke-width:0.6;" x="518.989237" xlink:href="#mc00b781ba1" y="659.52"/>
      </g>
     </g>
    </g>
    <g id="xtick_54">
     <g id="line2d_84">
      <g>
       <use style="stroke:#000000;stroke-width:0.6;" x="532.78222" xlink:href="#mc00b781ba1" y="659.52"/>
      </g>
     </g>
    </g>
    <g id="xtick_55">
     <g id="line2d_85">
      <g>
       <use style="stroke:#000000;stroke-width:0.6;" x="544.948493" xlink:href="#mc00b781ba1" y="659.52"/>
      </g>
     </g>
    </g>
    <g id="xtick_56">
     <g id="line2d_86">
      <g>
       <use style="stroke:#000000;stroke-width:0.6;" x="627.429493" xlink:href="#mc00b781ba1" y="659.52"/>
      </g>
     </g>
    </g>
    <g id="xtick_57">
     <g id="line2d_87">
      <g>
       <use style="stroke:#000000;stroke-width:0.6;" x="669.311579" xlink:href="#mc00b781ba1" y="659.52"/>
      </g>
     </g>
    </g>
    <g id="xtick_58">
     <g id="line2d_88">
      <g>
       <use style="stroke:#000000;stroke-width:0.6;" x="699.027391" xlink:href="#mc00b781ba1" y="659.52"/>
      </g>
     </g>
    </g>
    <g id="xtick_59">
     <g id="line2d_89">
      <g>
       <use style="stroke:#000000;stroke-width:0.6;" x="722.076767" xlink:href="#mc00b781ba1" y="659.52"/>
      </g>
     </g>
    </g>
    <g id="xtick_60">
     <g id="line2d_90">
      <g>
       <use style="stroke:#000000;stroke-width:0.6;" x="740.909477" xlink:href="#mc00b781ba1" y="659.52"/>
      </g>
     </g>
    </g>
    <g id="xtick_61">
     <g id="line2d_91">
      <g>
       <use style="stroke:#000000;stroke-width:0.6;" x="756.832307" xlink:href="#mc00b781ba1" y="659.52"/>
      </g>
     </g>
    </g>
    <g id="xtick_62">
     <g id="line2d_92">
      <g>
       <use style="stroke:#000000;stroke-width:0.6;" x="770.62529" xlink:href="#mc00b781ba1" y="659.52"/>
      </g>
     </g>
    </g>
    <g id="xtick_63">
     <g id="line2d_93">
      <g>
       <use style="stroke:#000000;stroke-width:0.6;" x="782.791563" xlink:href="#mc00b781ba1" y="659.52"/>
      </g>
     </g>
    </g>
    <g id="xtick_64">
     <g id="line2d_94">
      <g>
       <use style="stroke:#000000;stroke-width:0.6;" x="865.272563" xlink:href="#mc00b781ba1" y="659.52"/>
      </g>
     </g>
    </g>
   </g>
   <g id="matplotlib.axis_4">
    <g id="ytick_20">
     <g id="line2d_95">
      <path clip-path="url(#pbc05f961c0)" d="M 42.1 553.603523 
L 879.1 553.603523 
" style="fill:none;stroke:#666666;stroke-linecap:square;stroke-opacity:0.3;stroke-width:0.8;"/>
     </g>
     <g id="line2d_96">
      <g>
       <use style="stroke:#000000;stroke-width:0.8;" x="42.1" xlink:href="#mca9bc18b12" y="553.603523"/>
      </g>
     </g>
     <g id="text_11">
      <!-- $\mathdefault{10^{-15}}$ -->
      <g transform="translate(7.2 557.402741)scale(0.1 -0.1)">
       <use transform="translate(0 0.684375)" xlink:href="#DejaVuSans-49"/>
       <use transform="translate(63.623047 0.684375)" xlink:href="#DejaVuSans-48"/>
       <use transform="translate(128.203125 38.965625)scale(0.7)" xlink:href="#DejaVuSans-8722"/>
       <use transform="translate(186.855469 38.965625)scale(0.7)" xlink:href="#DejaVuSans-49"/>
       <use transform="translate(231.391602 38.965625)scale(0.7)" xlink:href="#DejaVuSans-53"/>
      </g>
     </g>
    </g>
    <g id="ytick_21">
     <g id="line2d_97">
      <path clip-path="url(#pbc05f961c0)" d="M 42.1 412.164598 
L 879.1 412.164598 
" style="fill:none;stroke:#666666;stroke-linecap:square;stroke-opacity:0.3;stroke-width:0.8;"/>
     </g>
     <g id="line2d_98">
      <g>
       <use style="stroke:#000000;stroke-width:0.8;" x="42.1" xlink:href="#mca9bc18b12" y="412.164598"/>
      </g>
     </g>
     <g id="text_12">
      <!-- $\mathdefault{10^{-14}}$ -->
      <g transform="translate(7.2 415.963817)scale(0.1 -0.1)">
       <use transform="translate(0 0.684375)" xlink:href="#DejaVuSans-49"/>
       <use transform="translate(63.623047 0.684375)" xlink:href="#DejaVuSans-48"/>
       <use transform="translate(128.203125 38.965625)scale(0.7)" xlink:href="#DejaVuSans-8722"/>
       <use transform="translate(186.855469 38.965625)scale(0.7)" xlink:href="#DejaVuSans-49"/>
       <use transform="translate(231.391602 38.965625)scale(0.7)" xlink:href="#DejaVuSans-52"/>
      </g>
     </g>
    </g>
    <g id="ytick_22">
     <g id="line2d_99">
      <g>
       <use style="stroke:#000000;stroke-width:0.6;" x="42.1" xlink:href="#m95148d447e" y="652.465088"/>
      </g>
     </g>
    </g>
    <g id="ytick_23">
     <g id="line2d_100">
      <g>
       <use style="stroke:#000000;stroke-width:0.6;" x="42.1" xlink:href="#m95148d447e" y="627.55893"/>
      </g>
     </g>
    </g>
    <g id="ytick_24">
     <g id="line2d_101">
      <g>
       <use style="stroke:#000000;stroke-width:0.6;" x="42.1" xlink:href="#m95148d447e" y="609.887729"/>
      </g>
     </g>
    </g>
    <g id="ytick_25">
     <g id="line2d_102">
      <g>
       <use style="stroke:#000000;stroke-width:0.6;" x="42.1" xlink:href="#m95148d447e" y="596.180881"/>
      </g>
     </g>
    </g>
    <g id="ytick_26">
     <g id="line2d_103">
      <g>
       <use style="stroke:#000000;stroke-width:0.6;" x="42.1" xlink:href="#m95148d447e" y="584.981571"/>
      </g>
     </g>
    </g>
    <g id="ytick_27">
     <g id="line2d_104">
      <g>
       <use style="stroke:#000000;stroke-width:0.6;" x="42.1" xlink:href="#m95148d447e" y="575.512689"/>
      </g>
     </g>
    </g>
    <g id="ytick_28">
     <g id="line2d_105">
      <g>
       <use style="stroke:#000000;stroke-width:0.6;" x="42.1" xlink:href="#m95148d447e" y="567.310371"/>
      </g>
     </g>
    </g>
    <g id="ytick_29">
     <g id="line2d_106">
      <g>
       <use style="stroke:#000000;stroke-width:0.6;" x="42.1" xlink:href="#m95148d447e" y="560.075413"/>
      </g>
     </g>
    </g>
    <g id="ytick_30">
     <g id="line2d_107">
      <g>
       <use style="stroke:#000000;stroke-width:0.6;" x="42.1" xlink:href="#m95148d447e" y="511.026164"/>
      </g>
     </g>
    </g>
    <g id="ytick_31">
     <g id="line2d_108">
      <g>
       <use style="stroke:#000000;stroke-width:0.6;" x="42.1" xlink:href="#m95148d447e" y="486.120006"/>
      </g>
     </g>
    </g>
    <g id="ytick_32">
     <g id="line2d_109">
      <g>
       <use style="stroke:#000000;stroke-width:0.6;" x="42.1" xlink:href="#m95148d447e" y="468.448805"/>
      </g>
     </g>
    </g>
    <g id="ytick_33">
     <g id="line2d_110">
      <g>
       <use style="stroke:#000000;stroke-width:0.6;" x="42.1" xlink:href="#m95148d447e" y="454.741957"/>
      </g>
     </g>
    </g>
    <g id="ytick_34">
     <g id="line2d_111">
      <g>
       <use style="stroke:#000000;stroke-width:0.6;" x="42.1" xlink:href="#m95148d447e" y="443.542647"/>
      </g>
     </g>
    </g>
    <g id="ytick_35">
     <g id="line2d_112">
      <g>
       <use style="stroke:#000000;stroke-width:0.6;" x="42.1" xlink:href="#m95148d447e" y="434.073765"/>
      </g>
     </g>
    </g>
    <g id="ytick_36">
     <g id="line2d_113">
      <g>
       <use style="stroke:#000000;stroke-width:0.6;" x="42.1" xlink:href="#m95148d447e" y="425.871446"/>
      </g>
     </g>
    </g>
    <g id="ytick_37">
     <g id="line2d_114">
      <g>
       <use style="stroke:#000000;stroke-width:0.6;" x="42.1" xlink:href="#m95148d447e" y="418.636489"/>
      </g>
     </g>
    </g>
    <g id="ytick_38">
     <g id="line2d_115">
      <g>
       <use style="stroke:#000000;stroke-width:0.6;" x="42.1" xlink:href="#m95148d447e" y="369.58724"/>
      </g>
     </g>
    </g>
   </g>
   <g id="line2d_116">
    <path clip-path="url(#pbc05f961c0)" d="M 151.723628 684.398125 
L 151.743353 646.042314 
L 151.754891 684.398125 
M 223.327751 684.398125 
L 223.341251 621.136156 
L 246.390626 603.464955 
L 265.223337 578.558797 
L 281.146167 646.042314 
L 307.105423 646.042314 
L 317.988525 603.464955 
L 336.821235 603.464955 
L 345.089161 589.758107 
L 352.744065 569.089915 
L 378.703321 569.089915 
L 384.288137 589.758107 
L 389.586423 569.089915 
L 399.431386 569.089915 
L 404.022984 560.887597 
L 408.419134 547.180749 
L 416.68706 547.180749 
L 420.585407 560.887597 
L 424.341964 547.180749 
L 427.966684 547.180749 
L 431.468509 560.887597 
L 434.855498 569.089915 
L 438.134946 560.887597 
L 441.313472 569.089915 
L 444.397102 560.887597 
L 447.391339 560.887597 
L 450.301219 547.180749 
L 453.131367 531.064723 
L 455.886035 531.064723 
L 458.569145 535.981438 
L 461.184321 535.981438 
L 463.734918 522.27459 
L 466.224049 514.586301 
L 468.654607 514.586301 
L 471.029285 522.27459 
L 473.350594 514.586301 
L 475.620882 514.586301 
L 477.842343 522.27459 
L 480.017032 514.586301 
L 482.146879 514.586301 
L 484.233696 522.27459 
L 486.279188 522.27459 
L 488.284958 514.586301 
L 492.183305 514.586301 
L 494.07866 531.064723 
L 495.939862 522.27459 
L 497.768121 514.586301 
L 499.564582 522.27459 
L 504.773784 522.27459 
L 506.453397 514.586301 
L 511.334333 514.586301 
L 512.91137 511.07528 
L 514.464692 504.60339 
L 517.502968 504.60339 
L 518.989237 511.07528 
L 520.454424 504.60339 
L 521.899118 504.60339 
L 523.323884 501.606398 
L 524.729266 501.606398 
L 526.115782 504.60339 
L 528.8342 504.60339 
L 530.167044 501.606398 
L 531.482908 501.606398 
L 532.78222 504.60339 
L 534.065391 501.606398 
L 535.332817 504.60339 
L 536.58488 501.606398 
L 537.821948 490.896542 
L 539.044375 488.487365 
L 541.446668 479.697232 
L 542.627183 488.487365 
L 543.794359 496.018353 
L 544.948493 490.896542 
L 547.21878 490.896542 
L 548.335482 496.018353 
L 550.533309 496.018353 
L 551.61493 501.606398 
L 553.744778 501.606398 
L 554.793456 496.018353 
L 559.882856 496.018353 
L 560.871323 490.896542 
L 561.850419 488.487365 
L 562.820323 496.018353 
L 563.781203 490.896542 
L 564.733228 496.018353 
L 565.676558 490.896542 
L 566.611351 490.896542 
L 567.53776 488.487365 
L 568.455935 483.935198 
L 572.928232 483.935198 
L 573.799916 488.487365 
L 574.664305 490.896542 
L 576.371682 490.896542 
L 577.214902 483.935198 
L 578.051295 479.697232 
L 578.88097 477.683079 
L 582.932231 477.683079 
L 583.72376 473.842695 
L 584.509269 472.008942 
L 586.06259 472.008942 
L 586.830578 468.497921 
L 589.100866 468.497921 
L 589.846674 465.17678 
L 590.587135 463.581206 
L 591.322327 463.581206 
L 592.052322 460.509259 
L 592.777195 460.509259 
L 593.497016 463.581206 
L 594.211856 460.509259 
L 594.921783 460.509259 
L 595.626863 457.583652 
L 597.022749 463.581206 
L 597.71368 465.17678 
L 598.400021 463.581206 
L 600.432099 463.581206 
L 601.10067 465.17678 
L 601.764942 465.17678 
L 602.42497 463.581206 
L 603.080806 463.581206 
L 603.732505 465.17678 
L 604.380118 465.17678 
L 605.023696 468.497921 
L 605.663289 463.581206 
L 606.298946 463.581206 
L 606.930715 460.509259 
L 607.558644 463.581206 
L 608.182778 465.17678 
L 608.803164 465.17678 
L 609.419846 463.581206 
L 611.850404 463.581206 
L 612.449211 465.17678 
L 613.044566 465.17678 
L 614.225081 472.008942 
L 614.810318 468.497921 
L 615.392257 472.008942 
L 615.970936 468.497921 
L 616.546391 472.008942 
L 618.253768 472.008942 
L 619.376539 465.17678 
L 619.933381 463.581206 
L 620.487237 463.581206 
L 621.038139 460.509259 
L 621.586119 456.171494 
L 622.131207 456.171494 
L 622.673434 457.583652 
L 623.212829 456.171494 
L 623.749422 453.440994 
L 624.283242 456.171494 
L 624.814317 453.440994 
L 625.342676 452.119951 
L 625.868346 452.119951 
L 626.391354 449.560158 
L 626.911728 449.560158 
L 627.429493 445.910006 
L 628.457302 445.910006 
L 628.967396 447.102784 
L 629.474984 452.119951 
L 629.98009 453.440994 
L 630.982952 453.440994 
L 631.480755 456.171494 
L 631.97617 456.171494 
L 632.469221 452.119951 
L 632.95993 452.119951 
L 633.448318 449.560158 
L 633.934408 452.119951 
L 634.418221 453.440994 
L 634.899779 453.440994 
L 635.379102 457.583652 
L 636.331126 457.583652 
L 636.803868 460.509259 
L 639.135659 460.509259 
L 639.595766 465.17678 
L 640.053833 468.497921 
L 640.509878 465.17678 
L 641.415971 465.17678 
L 641.866054 463.581206 
L 642.314184 463.581206 
L 642.760379 460.509259 
L 643.647028 460.509259 
L 644.087514 457.583652 
L 644.52613 456.171494 
L 644.962892 453.440994 
L 645.397814 453.440994 
L 645.830913 452.119951 
L 646.262204 452.119951 
L 646.691701 453.440994 
L 647.11942 452.119951 
L 647.545375 453.440994 
L 647.96958 456.171494 
L 648.812801 456.171494 
L 649.231844 457.583652 
L 649.649194 456.171494 
L 650.064864 457.583652 
L 650.478868 457.583652 
L 650.89122 456.171494 
L 652.524359 456.171494 
L 652.928641 453.440994 
L 653.331347 452.119951 
L 653.732489 452.119951 
L 654.13208 449.560158 
L 654.53013 449.560158 
L 654.926652 447.102784 
L 655.321658 449.560158 
L 655.715159 449.560158 
L 656.107167 445.910006 
L 656.497693 447.102784 
L 656.886748 447.102784 
L 657.274343 443.591763 
L 658.045196 443.591763 
L 658.428477 441.357839 
L 659.190797 441.357839 
L 659.947533 445.910006 
L 660.323831 443.591763 
L 660.698764 443.591763 
L 661.072341 441.357839 
L 661.444572 443.591763 
L 661.815467 443.591763 
L 662.185034 441.357839 
L 662.553283 440.270622 
L 662.920225 443.591763 
L 663.285868 443.591763 
L 663.65022 441.357839 
L 664.013293 443.591763 
L 664.375093 443.591763 
L 664.735631 445.910006 
L 665.094914 445.910006 
L 665.452953 447.102784 
L 665.809754 449.560158 
L 666.165327 449.560158 
L 666.519681 447.102784 
L 666.872823 445.910006 
L 667.224762 445.910006 
L 667.575505 443.591763 
L 668.27344 443.591763 
L 668.620647 445.910006 
L 669.311579 445.910006 
L 669.655319 447.102784 
L 669.99792 445.910006 
L 670.67973 445.910006 
L 671.018955 447.102784 
L 671.694082 447.102784 
L 672.029997 449.560158 
L 672.364824 449.560158 
L 672.698569 453.440994 
L 673.031239 452.119951 
L 673.362841 452.119951 
L 674.022868 447.102784 
L 674.678705 452.119951 
L 675.330403 447.102784 
L 675.654718 449.560158 
L 675.978016 447.102784 
L 676.300307 449.560158 
L 676.621594 447.102784 
L 676.941886 447.102784 
L 677.261187 449.560158 
L 677.579505 447.102784 
L 677.896844 445.910006 
L 678.528614 445.910006 
L 678.843055 441.357839 
L 679.156542 443.591763 
L 679.469081 441.357839 
L 680.091335 445.910006 
L 680.401062 447.102784 
L 681.32471 447.102784 
L 681.630767 445.910006 
L 682.240172 441.357839 
L 682.543532 441.357839 
L 682.846003 440.270622 
L 683.448302 440.270622 
L 683.748139 441.357839 
L 684.047109 441.357839 
L 684.345216 440.270622 
L 684.642465 440.270622 
L 684.938861 438.152269 
L 685.234409 440.270622 
L 685.529113 440.270622 
L 685.82298 441.357839 
L 686.116012 443.591763 
L 686.408216 441.357839 
L 686.699596 440.270622 
L 686.990155 441.357839 
L 687.568834 441.357839 
L 687.856963 443.591763 
L 688.716556 443.591763 
L 689.001505 441.357839 
L 689.28567 441.357839 
L 689.569056 443.591763 
L 689.851666 443.591763 
L 690.133505 440.270622 
L 690.414577 440.270622 
L 690.694887 441.357839 
L 690.974437 440.270622 
L 691.253233 440.270622 
L 691.531279 438.152269 
L 692.910391 438.152269 
L 693.184017 437.119873 
L 693.456921 433.15552 
L 694.271332 433.15552 
L 694.541382 435.105721 
L 694.810727 435.105721 
L 695.079372 437.119873 
L 695.34732 435.105721 
L 695.88114 435.105721 
L 696.147019 433.15552 
L 696.412216 433.15552 
L 696.676733 432.203158 
L 696.940574 430.341617 
L 697.203744 432.203158 
L 697.466244 430.341617 
L 697.72808 430.341617 
L 697.989253 428.534836 
L 698.249767 428.534836 
L 698.509626 430.341617 
L 698.768833 430.341617 
L 699.027391 428.534836 
L 699.285304 427.650991 
L 699.799205 427.650991 
L 700.310562 423.413025 
L 700.565295 423.413025 
L 700.819401 425.073292 
L 701.072883 425.920563 
L 701.325744 427.650991 
L 701.577989 428.534836 
L 701.829618 427.650991 
L 702.080636 428.534836 
L 703.078653 435.105721 
L 703.326658 435.105721 
L 703.574069 433.15552 
L 703.820888 433.15552 
L 704.067119 432.203158 
L 704.312765 430.341617 
L 704.557828 430.341617 
L 704.802311 432.203158 
L 705.289547 428.534836 
L 705.532306 432.203158 
L 705.774496 430.341617 
L 706.016119 432.203158 
L 706.257179 430.341617 
L 706.497677 430.341617 
L 706.737617 432.203158 
L 707.929025 432.203158 
L 708.165666 430.341617 
L 708.401767 432.203158 
L 708.637329 435.105721 
L 708.872355 435.105721 
L 709.106847 433.15552 
L 709.340809 432.203158 
L 709.574242 433.15552 
L 709.807148 433.15552 
L 710.271391 437.119873 
L 710.502733 433.15552 
L 710.733557 432.203158 
L 710.963867 432.203158 
L 711.422952 428.534836 
L 711.880005 428.534836 
L 712.107776 427.650991 
L 712.78809 427.650991 
L 713.013869 425.920563 
L 713.463952 425.920563 
L 713.68826 427.650991 
L 713.912083 427.650991 
L 714.135421 428.534836 
L 714.358278 427.650991 
L 714.580654 427.650991 
L 714.802553 428.534836 
L 715.244926 428.534836 
L 715.465404 430.341617 
L 715.685413 428.534836 
L 715.904954 432.203158 
L 716.124029 433.15552 
L 716.56079 433.15552 
L 716.995713 437.119873 
L 718.289599 437.119873 
L 718.50368 435.105721 
L 718.717318 435.105721 
L 718.930515 433.15552 
L 719.355594 433.15552 
L 719.567479 432.203158 
L 719.989949 432.203158 
L 720.410699 427.650991 
L 720.620433 427.650991 
L 720.829742 428.534836 
L 721.247092 432.203158 
L 721.662762 428.534836 
L 721.869972 428.534836 
L 722.076767 427.650991 
L 722.283148 428.534836 
L 722.489118 430.341617 
L 722.694678 430.341617 
L 722.89983 428.534836 
L 723.512852 428.534836 
L 723.716387 430.341617 
L 723.919522 430.341617 
L 724.122258 428.534836 
L 724.728089 428.534836 
L 724.929246 430.341617 
L 725.130011 428.534836 
L 725.330388 428.534836 
L 725.530376 427.650991 
L 726.128028 427.650991 
L 726.32648 425.920563 
L 726.722242 425.920563 
L 726.919556 425.073292 
L 727.116494 425.920563 
L 727.705065 425.920563 
L 728.095591 428.534836 
L 728.290302 428.534836 
L 728.484646 430.341617 
L 728.678625 428.534836 
L 728.872241 430.341617 
L 729.065494 428.534836 
L 729.258387 428.534836 
L 729.45092 430.341617 
L 729.643095 430.341617 
L 730.217483 425.073292 
L 730.598642 425.073292 
L 730.788695 425.920563 
L 730.9784 425.920563 
L 731.167756 425.073292 
L 731.356766 425.073292 
L 731.545431 423.413025 
L 731.733752 425.920563 
L 731.92173 425.920563 
L 732.109366 425.073292 
L 732.296663 421.796454 
L 732.48362 421.003848 
L 732.856523 421.003848 
L 733.042471 419.448672 
L 733.413365 419.448672 
L 733.598314 421.796454 
L 733.967221 417.9319 
L 734.151182 417.187332 
L 734.334816 417.187332 
L 734.518123 415.724736 
L 734.701106 415.724736 
L 734.883766 415.006293 
L 735.611191 415.006293 
L 735.79225 413.594136 
L 736.153418 413.594136 
L 736.333529 412.213715 
L 736.871987 415.724736 
L 737.050851 415.006293 
L 737.229406 413.594136 
L 737.407653 415.006293 
L 737.585592 415.006293 
L 737.763226 415.724736 
L 737.940555 417.187332 
L 738.117579 415.006293 
L 738.646841 415.006293 
L 738.82266 412.213715 
L 739.522961 412.213715 
L 739.697296 413.594136 
L 739.871338 413.594136 
L 740.391712 417.187332 
L 741.253218 417.187332 
L 741.42466 417.9319 
L 741.595818 419.448672 
L 741.937286 417.187332 
L 742.107598 417.187332 
L 742.277629 417.9319 
L 742.616854 417.9319 
L 742.954968 421.003848 
L 743.29198 421.003848 
L 743.460074 419.448672 
L 743.627895 421.003848 
L 743.795444 419.448672 
L 743.962722 419.448672 
L 744.129729 417.9319 
L 744.296467 417.9319 
L 744.462936 419.448672 
L 744.629137 419.448672 
L 744.960739 421.796454 
L 745.126142 421.796454 
L 745.29128 423.413025 
L 745.785116 423.413025 
L 745.949205 421.796454 
L 746.113034 421.796454 
L 746.276603 421.003848 
L 746.765762 421.003848 
L 746.928302 421.796454 
L 747.090586 421.003848 
L 747.252616 421.003848 
L 747.737186 417.187332 
L 748.219493 417.187332 
L 748.379763 415.724736 
L 748.539784 415.724736 
L 748.859086 417.9319 
L 749.018367 417.187332 
L 749.177403 417.9319 
L 749.653048 417.9319 
L 749.81111 417.187332 
L 749.968931 417.187332 
L 750.126512 417.9319 
L 750.75444 417.9319 
L 750.910828 417.187332 
L 751.066979 417.9319 
L 751.222894 419.448672 
L 751.689234 419.448672 
L 751.844213 417.9319 
L 751.998961 419.448672 
L 752.307762 419.448672 
L 752.461817 421.003848 
L 752.615643 421.003848 
L 752.76924 421.796454 
L 752.922609 421.796454 
L 753.07575 425.073292 
L 753.228665 425.073292 
L 753.381354 425.920563 
L 753.686056 428.534836 
L 753.83807 427.650991 
L 753.989862 425.920563 
L 754.14143 427.650991 
L 754.292777 427.650991 
L 754.443902 425.920563 
L 754.594806 427.650991 
L 754.74549 427.650991 
L 754.895955 428.534836 
L 755.0462 430.341617 
L 755.196228 428.534836 
L 755.346038 430.341617 
L 755.495631 428.534836 
L 755.645007 428.534836 
L 755.794168 427.650991 
L 755.943114 425.073292 
L 756.091846 425.073292 
L 756.536759 421.003848 
L 756.684639 421.003848 
L 757.27405 415.006293 
L 757.567498 415.006293 
L 757.713911 412.213715 
L 757.860116 413.594136 
L 758.006114 413.594136 
L 758.297494 417.187332 
L 758.442876 415.724736 
L 758.877798 415.724736 
L 759.022367 415.006293 
L 759.166733 413.594136 
L 759.310897 415.006293 
L 759.454861 415.006293 
L 759.598624 415.724736 
L 759.742188 415.006293 
L 760.028718 415.006293 
L 760.171685 415.724736 
L 760.314455 417.187332 
L 760.599404 417.187332 
L 760.741584 417.9319 
L 760.883569 417.9319 
L 761.025359 419.448672 
L 761.166954 417.9319 
L 761.308356 419.448672 
L 761.449564 419.448672 
L 761.59058 421.003848 
L 761.872035 421.003848 
L 762.012476 421.796454 
L 762.152725 419.448672 
L 762.292785 421.003848 
L 762.432655 419.448672 
L 762.572336 421.003848 
L 762.711828 421.003848 
L 762.851132 417.9319 
L 762.990248 417.9319 
L 763.129178 417.187332 
L 763.26792 417.9319 
L 763.406477 417.187332 
L 763.544848 415.724736 
L 763.683034 415.724736 
L 763.958852 412.213715 
L 764.096486 412.213715 
L 764.233936 413.594136 
L 764.371204 413.594136 
L 764.508289 412.213715 
L 764.918458 415.724736 
L 765.054819 415.724736 
L 765.191001 415.006293 
L 765.327004 415.724736 
L 765.462827 415.006293 
L 765.86923 415.006293 
L 766.004343 415.724736 
L 766.13928 417.187332 
L 766.67727 417.187332 
L 766.811331 417.9319 
L 766.945219 417.187332 
L 767.345842 417.187332 
L 767.479039 415.724736 
L 767.877601 415.724736 
L 768.010114 415.006293 
L 768.670141 408.892574 
L 768.801642 408.892574 
L 768.932976 408.249362 
L 769.064143 408.249362 
L 769.195143 406.982799 
L 769.71749 406.982799 
L 769.847666 408.249362 
L 769.977677 406.982799 
L 770.107525 408.249362 
L 770.496092 408.249362 
L 770.62529 406.982799 
L 770.754327 406.982799 
L 770.883202 406.359178 
L 771.011918 405.130614 
L 771.268868 406.982799 
L 771.397104 406.359178 
L 771.52518 406.982799 
L 771.653099 408.249362 
L 771.780859 406.982799 
L 771.908461 406.982799 
L 772.035906 408.892574 
L 772.163193 408.892574 
L 772.290324 410.199562 
L 772.417299 410.199562 
L 772.544118 408.892574 
L 772.797289 408.892574 
L 772.923643 410.199562 
L 773.049842 408.892574 
L 773.928944 408.892574 
L 774.053922 406.982799 
L 774.303424 406.982799 
L 774.42795 408.249362 
L 774.800628 408.249362 
L 774.924556 406.982799 
L 775.048336 406.982799 
L 775.171967 408.249362 
L 775.295451 408.249362 
L 775.418787 408.892574 
L 775.541976 408.892574 
L 775.910663 412.213715 
L 776.033267 410.199562 
L 776.27804 412.213715 
L 776.522234 412.213715 
L 776.644115 413.594136 
L 776.765852 413.594136 
L 776.887445 412.213715 
L 777.008896 413.594136 
L 777.130205 413.594136 
L 777.25137 412.213715 
L 777.372394 412.213715 
L 777.493277 410.199562 
L 777.855077 410.199562 
L 777.975396 408.892574 
L 778.095575 408.892574 
L 778.215615 408.249362 
L 778.335515 408.249362 
L 778.455276 408.892574 
L 778.694382 408.892574 
L 778.813728 410.199562 
L 778.932937 410.199562 
L 779.289738 406.982799 
L 779.408399 406.359178 
L 779.526923 406.982799 
L 779.645311 406.982799 
L 779.763564 406.359178 
L 779.881682 406.359178 
L 779.999665 405.130614 
L 780.117513 406.359178 
L 780.470253 403.332647 
L 780.587566 403.926141 
L 780.821793 403.926141 
L 780.938707 403.332647 
L 781.055489 403.332647 
L 781.17214 403.926141 
L 781.405046 406.982799 
L 781.521303 408.249362 
L 781.753424 408.249362 
L 781.869289 408.892574 
L 781.985025 410.199562 
L 782.561765 410.199562 
L 782.676728 411.534966 
L 782.791563 410.199562 
L 783.02085 410.199562 
L 783.24963 412.213715 
L 783.36383 412.213715 
L 783.477904 411.534966 
L 783.591852 408.892574 
L 783.705674 410.199562 
L 783.819372 410.199562 
L 783.932944 408.892574 
L 784.272913 412.213715 
L 784.498939 412.213715 
L 784.837054 410.199562 
L 784.949513 411.534966 
L 785.174066 411.534966 
L 785.286159 412.213715 
L 785.621711 410.199562 
L 786.067424 410.199562 
L 786.289562 408.249362 
L 786.400452 408.892574 
L 786.621875 410.199562 
L 786.842825 408.249362 
L 786.953122 408.249362 
L 787.173365 406.982799 
L 787.39314 406.982799 
L 787.502852 406.359178 
L 787.612448 406.982799 
L 787.831291 408.892574 
L 788.049671 408.892574 
L 788.267591 408.249362 
L 788.810388 408.249362 
L 788.918605 406.982799 
L 789.134702 408.249362 
L 789.350347 406.359178 
L 789.458001 406.982799 
L 789.672972 406.359178 
L 789.780291 406.982799 
L 789.887498 406.359178 
L 790.101578 408.249362 
L 790.208453 406.982799 
L 790.42187 408.249362 
L 790.741171 405.130614 
L 790.847386 405.130614 
L 791.059489 406.982799 
L 791.165377 406.982799 
L 791.376828 408.249362 
L 791.587848 406.982799 
L 791.798437 406.359178 
L 792.008598 406.982799 
L 792.218332 406.982799 
L 792.42764 408.249362 
L 792.84499 403.332647 
L 792.949065 403.332647 
L 793.053035 402.16259 
L 793.260661 403.332647 
L 793.364317 403.332647 
L 793.46787 402.16259 
L 793.674665 403.926141 
L 793.881046 403.332647 
L 794.087016 403.332647 
L 794.395203 401.014404 
L 794.497728 401.014404 
L 794.906814 399.331391 
L 795.110751 400.448261 
L 795.212568 400.448261 
L 795.314286 401.014404 
L 795.51742 400.448261 
L 795.821375 402.16259 
L 796.023516 401.014404 
L 796.72791 401.014404 
L 797.028329 403.926141 
L 797.228124 402.16259 
L 797.327876 403.332647 
L 797.427533 402.16259 
L 797.626558 403.332647 
L 797.725927 403.332647 
L 798.023461 399.331391 
L 798.221342 400.448261 
L 798.812721 400.448261 
L 799.009098 401.014404 
L 799.107146 401.014404 
L 799.205101 402.16259 
L 799.302964 400.448261 
L 799.498411 401.014404 
L 799.8882 401.014404 
L 800.082544 400.448261 
L 800.276524 401.014404 
L 800.373377 400.448261 
L 800.566811 401.014404 
L 800.952597 401.014404 
L 801.624273 397.693263 
L 801.815382 397.693263 
L 802.006137 396.624956 
L 802.196541 395.056543 
L 802.386594 396.09769 
L 802.481489 396.09769 
L 802.576298 396.624956 
L 802.765655 396.09769 
L 802.954665 396.09769 
L 803.143329 396.624956 
L 803.33165 396.624956 
L 803.425682 396.09769 
L 803.613489 397.693263 
L 803.988082 394.032751 
L 804.081519 394.032751 
L 804.174871 393.527183 
L 804.361322 394.032751 
L 804.454421 396.09769 
L 804.640369 394.032751 
L 804.733217 395.056543 
L 804.825983 393.527183 
L 805.011263 395.056543 
L 805.288563 391.545523 
L 805.38083 391.059938 
L 805.473016 392.528362 
L 805.657141 391.545523 
L 805.74908 391.545523 
L 805.840938 391.059938 
L 806.299005 394.032751 
L 806.390375 395.056543 
L 806.572873 394.032751 
L 807.118441 394.032751 
L 807.299658 393.527183 
L 807.751316 393.527183 
L 807.931428 396.09769 
L 808.021366 396.09769 
L 808.201007 397.693263 
L 808.380337 400.448261 
L 808.648749 398.234466 
L 808.738065 398.234466 
L 808.916466 397.693263 
L 809.094559 398.234466 
L 809.272346 396.624956 
L 809.449827 397.693263 
L 809.715478 399.331391 
L 809.803876 398.234466 
L 809.980447 401.014404 
L 810.06862 401.014404 
L 810.244739 402.16259 
L 810.332686 402.16259 
L 810.420558 401.014404 
L 810.596079 402.16259 
L 810.858802 402.16259 
L 811.033581 400.448261 
L 811.120859 400.448261 
L 811.208064 399.331391 
L 811.382252 401.014404 
L 811.556148 399.331391 
L 811.642986 399.331391 
L 811.816444 397.693263 
L 811.903063 397.693263 
L 811.98961 398.234466 
L 812.162487 396.09769 
L 812.335075 397.693263 
L 812.507376 396.624956 
L 812.679389 396.09769 
L 812.765288 396.624956 
L 812.851116 395.056543 
L 812.936873 396.09769 
L 813.108173 395.056543 
L 813.193716 396.09769 
L 813.535184 392.528362 
L 813.620375 392.528362 
L 813.705496 391.059938 
L 813.875527 391.545523 
L 813.960438 391.545523 
L 814.045279 392.528362 
L 814.214752 391.545523 
L 814.72151 391.545523 
L 814.805728 392.528362 
L 814.97396 391.545523 
L 815.141917 391.059938 
L 815.225794 391.059938 
L 815.393343 390.100135 
L 815.477015 389.625799 
L 815.644158 390.100135 
L 815.727628 390.100135 
L 815.894365 391.059938 
L 815.977633 391.059938 
L 816.143968 389.625799 
L 816.227035 389.625799 
L 816.310036 388.687977 
L 816.475836 391.059938 
L 816.641372 390.100135 
L 816.889178 388.687977 
L 817.054053 390.100135 
L 817.218665 388.687977 
L 817.465092 386.404215 
L 817.547103 386.404215 
L 817.710932 387.307556 
L 817.792749 387.307556 
L 817.956189 385.073632 
L 818.037812 385.513965 
L 818.11937 386.404215 
L 818.200865 385.513965 
L 818.282295 386.404215 
L 818.5262 384.202325 
L 818.688485 383.771262 
L 818.850514 383.771262 
L 819.01229 384.202325 
L 819.335084 380.835666 
L 819.415625 380.835666 
L 819.576519 379.619267 
L 819.737163 379.619267 
L 819.977661 378.033988 
L 820.057703 378.821514 
L 820.217601 378.033988 
L 820.377251 378.033988 
L 820.456984 379.619267 
L 820.536656 378.821514 
L 820.695814 379.619267 
L 820.854728 378.821514 
L 821.013398 378.821514 
L 821.171824 379.619267 
L 821.487949 379.619267 
L 821.80311 382.918108 
L 822.038852 382.918108 
L 822.117313 382.076641 
L 822.352339 384.202325 
L 822.508726 384.202325 
L 822.586831 385.073632 
L 822.664877 384.202325 
L 822.820793 385.513965 
L 823.209555 382.918108 
L 823.364651 382.076641 
L 823.442112 381.660191 
L 823.596859 382.076641 
L 823.674146 382.076641 
L 823.751375 382.918108 
L 823.982717 380.835666 
L 824.059715 381.660191 
L 824.213541 379.619267 
L 824.290368 379.619267 
L 824.367138 380.022063 
L 824.826563 378.033988 
L 824.979252 378.821514 
L 825.055512 378.033988 
L 825.207863 378.821514 
L 825.359989 378.821514 
L 825.511892 378.033988 
L 825.663572 378.033988 
L 825.739329 377.64398 
L 825.890675 378.033988 
L 826.0418 376.871314 
L 826.192704 377.64398 
L 826.644099 377.64398 
L 826.71914 378.033988 
L 826.794126 377.64398 
L 826.943936 378.821514 
L 827.168245 378.821514 
L 827.317513 378.033988 
L 827.392067 378.033988 
L 827.541013 377.64398 
L 827.615405 377.64398 
L 827.689744 378.033988 
L 827.838262 376.871314 
L 827.91244 378.033988 
L 827.986566 377.64398 
L 828.060638 377.64398 
L 828.282537 376.488595 
L 828.356398 376.488595 
L 828.503961 376.871314 
L 828.577663 376.871314 
L 828.72491 376.488595 
L 828.871948 376.871314 
L 829.018777 376.871314 
L 829.238629 378.033988 
L 829.311809 378.033988 
L 829.604013 380.022063 
L 829.676935 380.022063 
L 829.749805 379.619267 
L 830.185952 381.660191 
L 830.258464 381.660191 
L 830.330926 382.076641 
L 830.475697 380.835666 
L 830.692473 380.835666 
L 830.836738 382.076641 
L 831.052759 380.835666 
L 831.411793 383.771262 
L 831.48345 383.771262 
L 831.769583 381.660191 
L 831.840993 381.660191 
L 832.054926 380.022063 
L 832.126139 380.022063 
L 832.268417 380.835666 
L 832.410499 380.835666 
L 832.552386 381.660191 
L 832.694079 380.835666 
L 832.835578 381.660191 
L 833.117995 379.619267 
L 833.188478 379.619267 
L 833.258914 378.033988 
L 833.329302 378.821514 
L 833.540178 377.64398 
L 833.610374 377.64398 
L 833.750624 376.871314 
L 833.890683 376.871314 
L 834.170234 378.821514 
L 834.309726 378.821514 
L 834.44903 378.033988 
L 834.518612 378.033988 
L 834.588147 377.64398 
L 834.657635 378.033988 
L 834.727076 376.871314 
L 834.93512 378.033988 
L 835.211862 378.033988 
L 835.280932 376.871314 
L 835.418933 377.64398 
L 835.556751 377.64398 
L 835.62559 376.871314 
L 835.763132 377.64398 
L 835.900491 377.64398 
L 836.106188 378.821514 
L 836.379814 376.871314 
L 836.516356 376.488595 
L 836.652718 377.64398 
L 836.7889 377.64398 
L 836.992836 376.488595 
L 837.128571 376.488595 
L 837.467129 378.821514 
L 837.534707 378.033988 
L 837.737178 379.619267 
L 837.804581 378.821514 
L 837.939253 379.619267 
L 838.073751 379.619267 
L 838.140934 378.821514 
L 838.208073 379.619267 
L 838.40923 378.033988 
L 838.810372 381.660191 
L 839.076937 381.660191 
L 839.143471 382.076641 
L 839.409179 380.835666 
L 839.541777 381.660191 
L 839.674205 380.022063 
L 839.938553 382.076641 
L 840.004535 382.076641 
L 840.136371 382.918108 
L 840.202226 382.918108 
L 840.465228 385.073632 
L 840.530874 385.513965 
L 840.793042 384.202325 
L 840.85848 384.202325 
L 840.989232 383.771262 
L 841.054545 383.771262 
L 841.054545 383.771262 
" style="fill:none;stroke:#008000;stroke-linecap:square;stroke-width:1.5;"/>
   </g>
   <g id="patch_8">
    <path d="M 42.1 659.52 
L 42.1 363.010909 
" style="fill:none;stroke:#000000;stroke-linecap:square;stroke-linejoin:miter;stroke-width:0.8;"/>
   </g>
   <g id="patch_9">
    <path d="M 879.1 659.52 
L 879.1 363.010909 
" style="fill:none;stroke:#000000;stroke-linecap:square;stroke-linejoin:miter;stroke-width:0.8;"/>
   </g>
   <g id="patch_10">
    <path d="M 42.1 659.52 
L 879.1 659.52 
" style="fill:none;stroke:#000000;stroke-linecap:square;stroke-linejoin:miter;stroke-width:0.8;"/>
   </g>
   <g id="patch_11">
    <path d="M 42.1 363.010909 
L 879.1 363.010909 
" style="fill:none;stroke:#000000;stroke-linecap:square;stroke-linejoin:miter;stroke-width:0.8;"/>
   </g>
  </g>
 </g>
 <defs>
  <clipPath id="pfe87ed96fe">
   <rect height="296.509091" width="837" x="42.1" y="7.2"/>
  </clipPath>
  <clipPath id="pbc05f961c0">
   <rect height="296.509091" width="837" x="42.1" y="363.010909"/>
  </clipPath>
 </defs>
</svg>
