<?xml version="1.0" encoding="utf-8" standalone="no"?>
<!DOCTYPE svg PUBLIC "-//W3C//DTD SVG 1.1//EN"
  "http://www.w3.org/Graphics/SVG/1.1/DTD/svg11.dtd">
<!-- Created with matplotlib (https://matplotlib.org/) -->
<svg height="248.518125pt" version="1.1" viewBox="0 0 384.828125 248.518125" width="384.828125pt" xmlns="http://www.w3.org/2000/svg" xmlns:xlink="http://www.w3.org/1999/xlink">
 <metadata>
  <rdf:RDF xmlns:cc="http://creativecommons.org/ns#" xmlns:dc="http://purl.org/dc/elements/1.1/" xmlns:rdf="http://www.w3.org/1999/02/22-rdf-syntax-ns#">
   <cc:Work>
    <dc:type rdf:resource="http://purl.org/dc/dcmitype/StillImage"/>
    <dc:date>2021-10-10T08:28:21.922149</dc:date>
    <dc:format>image/svg+xml</dc:format>
    <dc:creator>
     <cc:Agent>
      <dc:title>Matplotlib v3.3.4, https://matplotlib.org/</dc:title>
     </cc:Agent>
    </dc:creator>
   </cc:Work>
  </rdf:RDF>
 </metadata>
 <defs>
  <style type="text/css">*{stroke-linecap:butt;stroke-linejoin:round;}</style>
 </defs>
 <g id="figure_1">
  <g id="patch_1">
   <path d="M 0 248.518125 
L 384.828125 248.518125 
L 384.828125 0 
L 0 0 
z
" style="fill:none;"/>
  </g>
  <g id="axes_1">
   <g id="patch_2">
    <path d="M 42.828125 224.64 
L 377.628125 224.64 
L 377.628125 7.2 
L 42.828125 7.2 
z
" style="fill:#ffffff;"/>
   </g>
   <g id="matplotlib.axis_1">
    <g id="xtick_1">
     <g id="line2d_1">
      <path clip-path="url(#pad72f70f8b)" d="M 58.046307 224.64 
L 58.046307 7.2 
" style="fill:none;stroke:#b0b0b0;stroke-linecap:square;stroke-width:0.8;"/>
     </g>
     <g id="line2d_2">
      <defs>
       <path d="M 0 0 
L 0 3.5 
" id="m6d1bfa5fd1" style="stroke:#000000;stroke-width:0.8;"/>
      </defs>
      <g>
       <use style="stroke:#000000;stroke-width:0.8;" x="58.046307" xlink:href="#m6d1bfa5fd1" y="224.64"/>
      </g>
     </g>
     <g id="text_1">
      <!-- 0.0 -->
      <g transform="translate(50.094744 239.238437)scale(0.1 -0.1)">
       <defs>
        <path d="M 31.78125 66.40625 
Q 24.171875 66.40625 20.328125 58.90625 
Q 16.5 51.421875 16.5 36.375 
Q 16.5 21.390625 20.328125 13.890625 
Q 24.171875 6.390625 31.78125 6.390625 
Q 39.453125 6.390625 43.28125 13.890625 
Q 47.125 21.390625 47.125 36.375 
Q 47.125 51.421875 43.28125 58.90625 
Q 39.453125 66.40625 31.78125 66.40625 
z
M 31.78125 74.21875 
Q 44.046875 74.21875 50.515625 64.515625 
Q 56.984375 54.828125 56.984375 36.375 
Q 56.984375 17.96875 50.515625 8.265625 
Q 44.046875 -1.421875 31.78125 -1.421875 
Q 19.53125 -1.421875 13.0625 8.265625 
Q 6.59375 17.96875 6.59375 36.375 
Q 6.59375 54.828125 13.0625 64.515625 
Q 19.53125 74.21875 31.78125 74.21875 
z
" id="DejaVuSans-48"/>
        <path d="M 10.6875 12.40625 
L 21 12.40625 
L 21 0 
L 10.6875 0 
z
" id="DejaVuSans-46"/>
       </defs>
       <use xlink:href="#DejaVuSans-48"/>
       <use x="63.623047" xlink:href="#DejaVuSans-46"/>
       <use x="95.410156" xlink:href="#DejaVuSans-48"/>
      </g>
     </g>
    </g>
    <g id="xtick_2">
     <g id="line2d_3">
      <path clip-path="url(#pad72f70f8b)" d="M 118.604133 224.64 
L 118.604133 7.2 
" style="fill:none;stroke:#b0b0b0;stroke-linecap:square;stroke-width:0.8;"/>
     </g>
     <g id="line2d_4">
      <g>
       <use style="stroke:#000000;stroke-width:0.8;" x="118.604133" xlink:href="#m6d1bfa5fd1" y="224.64"/>
      </g>
     </g>
     <g id="text_2">
      <!-- 0.1 -->
      <g transform="translate(110.652571 239.238437)scale(0.1 -0.1)">
       <defs>
        <path d="M 12.40625 8.296875 
L 28.515625 8.296875 
L 28.515625 63.921875 
L 10.984375 60.40625 
L 10.984375 69.390625 
L 28.421875 72.90625 
L 38.28125 72.90625 
L 38.28125 8.296875 
L 54.390625 8.296875 
L 54.390625 0 
L 12.40625 0 
z
" id="DejaVuSans-49"/>
       </defs>
       <use xlink:href="#DejaVuSans-48"/>
       <use x="63.623047" xlink:href="#DejaVuSans-46"/>
       <use x="95.410156" xlink:href="#DejaVuSans-49"/>
      </g>
     </g>
    </g>
    <g id="xtick_3">
     <g id="line2d_5">
      <path clip-path="url(#pad72f70f8b)" d="M 179.16196 224.64 
L 179.16196 7.2 
" style="fill:none;stroke:#b0b0b0;stroke-linecap:square;stroke-width:0.8;"/>
     </g>
     <g id="line2d_6">
      <g>
       <use style="stroke:#000000;stroke-width:0.8;" x="179.16196" xlink:href="#m6d1bfa5fd1" y="224.64"/>
      </g>
     </g>
     <g id="text_3">
      <!-- 0.2 -->
      <g transform="translate(171.210397 239.238437)scale(0.1 -0.1)">
       <defs>
        <path d="M 19.1875 8.296875 
L 53.609375 8.296875 
L 53.609375 0 
L 7.328125 0 
L 7.328125 8.296875 
Q 12.9375 14.109375 22.625 23.890625 
Q 32.328125 33.6875 34.8125 36.53125 
Q 39.546875 41.84375 41.421875 45.53125 
Q 43.3125 49.21875 43.3125 52.78125 
Q 43.3125 58.59375 39.234375 62.25 
Q 35.15625 65.921875 28.609375 65.921875 
Q 23.96875 65.921875 18.8125 64.3125 
Q 13.671875 62.703125 7.8125 59.421875 
L 7.8125 69.390625 
Q 13.765625 71.78125 18.9375 73 
Q 24.125 74.21875 28.421875 74.21875 
Q 39.75 74.21875 46.484375 68.546875 
Q 53.21875 62.890625 53.21875 53.421875 
Q 53.21875 48.921875 51.53125 44.890625 
Q 49.859375 40.875 45.40625 35.40625 
Q 44.1875 33.984375 37.640625 27.21875 
Q 31.109375 20.453125 19.1875 8.296875 
z
" id="DejaVuSans-50"/>
       </defs>
       <use xlink:href="#DejaVuSans-48"/>
       <use x="63.623047" xlink:href="#DejaVuSans-46"/>
       <use x="95.410156" xlink:href="#DejaVuSans-50"/>
      </g>
     </g>
    </g>
    <g id="xtick_4">
     <g id="line2d_7">
      <path clip-path="url(#pad72f70f8b)" d="M 239.719787 224.64 
L 239.719787 7.2 
" style="fill:none;stroke:#b0b0b0;stroke-linecap:square;stroke-width:0.8;"/>
     </g>
     <g id="line2d_8">
      <g>
       <use style="stroke:#000000;stroke-width:0.8;" x="239.719787" xlink:href="#m6d1bfa5fd1" y="224.64"/>
      </g>
     </g>
     <g id="text_4">
      <!-- 0.3 -->
      <g transform="translate(231.768224 239.238437)scale(0.1 -0.1)">
       <defs>
        <path d="M 40.578125 39.3125 
Q 47.65625 37.796875 51.625 33 
Q 55.609375 28.21875 55.609375 21.1875 
Q 55.609375 10.40625 48.1875 4.484375 
Q 40.765625 -1.421875 27.09375 -1.421875 
Q 22.515625 -1.421875 17.65625 -0.515625 
Q 12.796875 0.390625 7.625 2.203125 
L 7.625 11.71875 
Q 11.71875 9.328125 16.59375 8.109375 
Q 21.484375 6.890625 26.8125 6.890625 
Q 36.078125 6.890625 40.9375 10.546875 
Q 45.796875 14.203125 45.796875 21.1875 
Q 45.796875 27.640625 41.28125 31.265625 
Q 36.765625 34.90625 28.71875 34.90625 
L 20.21875 34.90625 
L 20.21875 43.015625 
L 29.109375 43.015625 
Q 36.375 43.015625 40.234375 45.921875 
Q 44.09375 48.828125 44.09375 54.296875 
Q 44.09375 59.90625 40.109375 62.90625 
Q 36.140625 65.921875 28.71875 65.921875 
Q 24.65625 65.921875 20.015625 65.03125 
Q 15.375 64.15625 9.8125 62.3125 
L 9.8125 71.09375 
Q 15.4375 72.65625 20.34375 73.4375 
Q 25.25 74.21875 29.59375 74.21875 
Q 40.828125 74.21875 47.359375 69.109375 
Q 53.90625 64.015625 53.90625 55.328125 
Q 53.90625 49.265625 50.4375 45.09375 
Q 46.96875 40.921875 40.578125 39.3125 
z
" id="DejaVuSans-51"/>
       </defs>
       <use xlink:href="#DejaVuSans-48"/>
       <use x="63.623047" xlink:href="#DejaVuSans-46"/>
       <use x="95.410156" xlink:href="#DejaVuSans-51"/>
      </g>
     </g>
    </g>
    <g id="xtick_5">
     <g id="line2d_9">
      <path clip-path="url(#pad72f70f8b)" d="M 300.277613 224.64 
L 300.277613 7.2 
" style="fill:none;stroke:#b0b0b0;stroke-linecap:square;stroke-width:0.8;"/>
     </g>
     <g id="line2d_10">
      <g>
       <use style="stroke:#000000;stroke-width:0.8;" x="300.277613" xlink:href="#m6d1bfa5fd1" y="224.64"/>
      </g>
     </g>
     <g id="text_5">
      <!-- 0.4 -->
      <g transform="translate(292.326051 239.238437)scale(0.1 -0.1)">
       <defs>
        <path d="M 37.796875 64.3125 
L 12.890625 25.390625 
L 37.796875 25.390625 
z
M 35.203125 72.90625 
L 47.609375 72.90625 
L 47.609375 25.390625 
L 58.015625 25.390625 
L 58.015625 17.1875 
L 47.609375 17.1875 
L 47.609375 0 
L 37.796875 0 
L 37.796875 17.1875 
L 4.890625 17.1875 
L 4.890625 26.703125 
z
" id="DejaVuSans-52"/>
       </defs>
       <use xlink:href="#DejaVuSans-48"/>
       <use x="63.623047" xlink:href="#DejaVuSans-46"/>
       <use x="95.410156" xlink:href="#DejaVuSans-52"/>
      </g>
     </g>
    </g>
    <g id="xtick_6">
     <g id="line2d_11">
      <path clip-path="url(#pad72f70f8b)" d="M 360.83544 224.64 
L 360.83544 7.2 
" style="fill:none;stroke:#b0b0b0;stroke-linecap:square;stroke-width:0.8;"/>
     </g>
     <g id="line2d_12">
      <g>
       <use style="stroke:#000000;stroke-width:0.8;" x="360.83544" xlink:href="#m6d1bfa5fd1" y="224.64"/>
      </g>
     </g>
     <g id="text_6">
      <!-- 0.5 -->
      <g transform="translate(352.883877 239.238437)scale(0.1 -0.1)">
       <defs>
        <path d="M 10.796875 72.90625 
L 49.515625 72.90625 
L 49.515625 64.59375 
L 19.828125 64.59375 
L 19.828125 46.734375 
Q 21.96875 47.46875 24.109375 47.828125 
Q 26.265625 48.1875 28.421875 48.1875 
Q 40.625 48.1875 47.75 41.5 
Q 54.890625 34.8125 54.890625 23.390625 
Q 54.890625 11.625 47.5625 5.09375 
Q 40.234375 -1.421875 26.90625 -1.421875 
Q 22.3125 -1.421875 17.546875 -0.640625 
Q 12.796875 0.140625 7.71875 1.703125 
L 7.71875 11.625 
Q 12.109375 9.234375 16.796875 8.0625 
Q 21.484375 6.890625 26.703125 6.890625 
Q 35.15625 6.890625 40.078125 11.328125 
Q 45.015625 15.765625 45.015625 23.390625 
Q 45.015625 31 40.078125 35.4375 
Q 35.15625 39.890625 26.703125 39.890625 
Q 22.75 39.890625 18.8125 39.015625 
Q 14.890625 38.140625 10.796875 36.28125 
z
" id="DejaVuSans-53"/>
       </defs>
       <use xlink:href="#DejaVuSans-48"/>
       <use x="63.623047" xlink:href="#DejaVuSans-46"/>
       <use x="95.410156" xlink:href="#DejaVuSans-53"/>
      </g>
     </g>
    </g>
   </g>
   <g id="matplotlib.axis_2">
    <g id="ytick_1">
     <g id="line2d_13">
      <path clip-path="url(#pad72f70f8b)" d="M 42.828125 214.756364 
L 377.628125 214.756364 
" style="fill:none;stroke:#b0b0b0;stroke-linecap:square;stroke-width:0.8;"/>
     </g>
     <g id="line2d_14">
      <defs>
       <path d="M 0 0 
L -3.5 0 
" id="m9f095bb7e7" style="stroke:#000000;stroke-width:0.8;"/>
      </defs>
      <g>
       <use style="stroke:#000000;stroke-width:0.8;" x="42.828125" xlink:href="#m9f095bb7e7" y="214.756364"/>
      </g>
     </g>
     <g id="text_7">
      <!-- 0.000 -->
      <g transform="translate(7.2 218.555582)scale(0.1 -0.1)">
       <use xlink:href="#DejaVuSans-48"/>
       <use x="63.623047" xlink:href="#DejaVuSans-46"/>
       <use x="95.410156" xlink:href="#DejaVuSans-48"/>
       <use x="159.033203" xlink:href="#DejaVuSans-48"/>
       <use x="222.65625" xlink:href="#DejaVuSans-48"/>
      </g>
     </g>
    </g>
    <g id="ytick_2">
     <g id="line2d_15">
      <path clip-path="url(#pad72f70f8b)" d="M 42.828125 186.441831 
L 377.628125 186.441831 
" style="fill:none;stroke:#b0b0b0;stroke-linecap:square;stroke-width:0.8;"/>
     </g>
     <g id="line2d_16">
      <g>
       <use style="stroke:#000000;stroke-width:0.8;" x="42.828125" xlink:href="#m9f095bb7e7" y="186.441831"/>
      </g>
     </g>
     <g id="text_8">
      <!-- 0.025 -->
      <g transform="translate(7.2 190.24105)scale(0.1 -0.1)">
       <use xlink:href="#DejaVuSans-48"/>
       <use x="63.623047" xlink:href="#DejaVuSans-46"/>
       <use x="95.410156" xlink:href="#DejaVuSans-48"/>
       <use x="159.033203" xlink:href="#DejaVuSans-50"/>
       <use x="222.65625" xlink:href="#DejaVuSans-53"/>
      </g>
     </g>
    </g>
    <g id="ytick_3">
     <g id="line2d_17">
      <path clip-path="url(#pad72f70f8b)" d="M 42.828125 158.127299 
L 377.628125 158.127299 
" style="fill:none;stroke:#b0b0b0;stroke-linecap:square;stroke-width:0.8;"/>
     </g>
     <g id="line2d_18">
      <g>
       <use style="stroke:#000000;stroke-width:0.8;" x="42.828125" xlink:href="#m9f095bb7e7" y="158.127299"/>
      </g>
     </g>
     <g id="text_9">
      <!-- 0.050 -->
      <g transform="translate(7.2 161.926517)scale(0.1 -0.1)">
       <use xlink:href="#DejaVuSans-48"/>
       <use x="63.623047" xlink:href="#DejaVuSans-46"/>
       <use x="95.410156" xlink:href="#DejaVuSans-48"/>
       <use x="159.033203" xlink:href="#DejaVuSans-53"/>
       <use x="222.65625" xlink:href="#DejaVuSans-48"/>
      </g>
     </g>
    </g>
    <g id="ytick_4">
     <g id="line2d_19">
      <path clip-path="url(#pad72f70f8b)" d="M 42.828125 129.812766 
L 377.628125 129.812766 
" style="fill:none;stroke:#b0b0b0;stroke-linecap:square;stroke-width:0.8;"/>
     </g>
     <g id="line2d_20">
      <g>
       <use style="stroke:#000000;stroke-width:0.8;" x="42.828125" xlink:href="#m9f095bb7e7" y="129.812766"/>
      </g>
     </g>
     <g id="text_10">
      <!-- 0.075 -->
      <g transform="translate(7.2 133.611985)scale(0.1 -0.1)">
       <defs>
        <path d="M 8.203125 72.90625 
L 55.078125 72.90625 
L 55.078125 68.703125 
L 28.609375 0 
L 18.3125 0 
L 43.21875 64.59375 
L 8.203125 64.59375 
z
" id="DejaVuSans-55"/>
       </defs>
       <use xlink:href="#DejaVuSans-48"/>
       <use x="63.623047" xlink:href="#DejaVuSans-46"/>
       <use x="95.410156" xlink:href="#DejaVuSans-48"/>
       <use x="159.033203" xlink:href="#DejaVuSans-55"/>
       <use x="222.65625" xlink:href="#DejaVuSans-53"/>
      </g>
     </g>
    </g>
    <g id="ytick_5">
     <g id="line2d_21">
      <path clip-path="url(#pad72f70f8b)" d="M 42.828125 101.498234 
L 377.628125 101.498234 
" style="fill:none;stroke:#b0b0b0;stroke-linecap:square;stroke-width:0.8;"/>
     </g>
     <g id="line2d_22">
      <g>
       <use style="stroke:#000000;stroke-width:0.8;" x="42.828125" xlink:href="#m9f095bb7e7" y="101.498234"/>
      </g>
     </g>
     <g id="text_11">
      <!-- 0.100 -->
      <g transform="translate(7.2 105.297452)scale(0.1 -0.1)">
       <use xlink:href="#DejaVuSans-48"/>
       <use x="63.623047" xlink:href="#DejaVuSans-46"/>
       <use x="95.410156" xlink:href="#DejaVuSans-49"/>
       <use x="159.033203" xlink:href="#DejaVuSans-48"/>
       <use x="222.65625" xlink:href="#DejaVuSans-48"/>
      </g>
     </g>
    </g>
    <g id="ytick_6">
     <g id="line2d_23">
      <path clip-path="url(#pad72f70f8b)" d="M 42.828125 73.183701 
L 377.628125 73.183701 
" style="fill:none;stroke:#b0b0b0;stroke-linecap:square;stroke-width:0.8;"/>
     </g>
     <g id="line2d_24">
      <g>
       <use style="stroke:#000000;stroke-width:0.8;" x="42.828125" xlink:href="#m9f095bb7e7" y="73.183701"/>
      </g>
     </g>
     <g id="text_12">
      <!-- 0.125 -->
      <g transform="translate(7.2 76.98292)scale(0.1 -0.1)">
       <use xlink:href="#DejaVuSans-48"/>
       <use x="63.623047" xlink:href="#DejaVuSans-46"/>
       <use x="95.410156" xlink:href="#DejaVuSans-49"/>
       <use x="159.033203" xlink:href="#DejaVuSans-50"/>
       <use x="222.65625" xlink:href="#DejaVuSans-53"/>
      </g>
     </g>
    </g>
    <g id="ytick_7">
     <g id="line2d_25">
      <path clip-path="url(#pad72f70f8b)" d="M 42.828125 44.869169 
L 377.628125 44.869169 
" style="fill:none;stroke:#b0b0b0;stroke-linecap:square;stroke-width:0.8;"/>
     </g>
     <g id="line2d_26">
      <g>
       <use style="stroke:#000000;stroke-width:0.8;" x="42.828125" xlink:href="#m9f095bb7e7" y="44.869169"/>
      </g>
     </g>
     <g id="text_13">
      <!-- 0.150 -->
      <g transform="translate(7.2 48.668387)scale(0.1 -0.1)">
       <use xlink:href="#DejaVuSans-48"/>
       <use x="63.623047" xlink:href="#DejaVuSans-46"/>
       <use x="95.410156" xlink:href="#DejaVuSans-49"/>
       <use x="159.033203" xlink:href="#DejaVuSans-53"/>
       <use x="222.65625" xlink:href="#DejaVuSans-48"/>
      </g>
     </g>
    </g>
    <g id="ytick_8">
     <g id="line2d_27">
      <path clip-path="url(#pad72f70f8b)" d="M 42.828125 16.554636 
L 377.628125 16.554636 
" style="fill:none;stroke:#b0b0b0;stroke-linecap:square;stroke-width:0.8;"/>
     </g>
     <g id="line2d_28">
      <g>
       <use style="stroke:#000000;stroke-width:0.8;" x="42.828125" xlink:href="#m9f095bb7e7" y="16.554636"/>
      </g>
     </g>
     <g id="text_14">
      <!-- 0.175 -->
      <g transform="translate(7.2 20.353855)scale(0.1 -0.1)">
       <use xlink:href="#DejaVuSans-48"/>
       <use x="63.623047" xlink:href="#DejaVuSans-46"/>
       <use x="95.410156" xlink:href="#DejaVuSans-49"/>
       <use x="159.033203" xlink:href="#DejaVuSans-55"/>
       <use x="222.65625" xlink:href="#DejaVuSans-53"/>
      </g>
     </g>
    </g>
   </g>
   <g id="line2d_29">
    <defs>
     <path d="M 0 1.5 
C 0.397805 1.5 0.77937 1.341951 1.06066 1.06066 
C 1.341951 0.77937 1.5 0.397805 1.5 0 
C 1.5 -0.397805 1.341951 -0.77937 1.06066 -1.06066 
C 0.77937 -1.341951 0.397805 -1.5 0 -1.5 
C -0.397805 -1.5 -0.77937 -1.341951 -1.06066 -1.06066 
C -1.341951 -0.77937 -1.5 -0.397805 -1.5 0 
C -1.5 0.397805 -1.341951 0.77937 -1.06066 1.06066 
C -0.77937 1.341951 -0.397805 1.5 0 1.5 
z
" id="mb96721ad8b" style="stroke:#0000ff;"/>
    </defs>
    <g clip-path="url(#pad72f70f8b)">
     <use style="fill:#0000ff;stroke:#0000ff;" x="58.046307" xlink:href="#mb96721ad8b" y="214.756364"/>
     <use style="fill:#0000ff;stroke:#0000ff;" x="64.25781" xlink:href="#mb96721ad8b" y="208.417804"/>
     <use style="fill:#0000ff;stroke:#0000ff;" x="70.469312" xlink:href="#mb96721ad8b" y="202.085932"/>
     <use style="fill:#0000ff;stroke:#0000ff;" x="76.680815" xlink:href="#mb96721ad8b" y="195.767126"/>
     <use style="fill:#0000ff;stroke:#0000ff;" x="82.892318" xlink:href="#mb96721ad8b" y="189.468144"/>
     <use style="fill:#0000ff;stroke:#0000ff;" x="89.103821" xlink:href="#mb96721ad8b" y="183.195234"/>
     <use style="fill:#0000ff;stroke:#0000ff;" x="95.315324" xlink:href="#mb96721ad8b" y="176.95486"/>
     <use style="fill:#0000ff;stroke:#0000ff;" x="101.526826" xlink:href="#mb96721ad8b" y="170.753453"/>
     <use style="fill:#0000ff;stroke:#0000ff;" x="107.738329" xlink:href="#mb96721ad8b" y="164.59704"/>
     <use style="fill:#0000ff;stroke:#0000ff;" x="113.949832" xlink:href="#mb96721ad8b" y="158.492326"/>
     <use style="fill:#0000ff;stroke:#0000ff;" x="120.161335" xlink:href="#mb96721ad8b" y="152.445294"/>
     <use style="fill:#0000ff;stroke:#0000ff;" x="126.372837" xlink:href="#mb96721ad8b" y="146.462475"/>
     <use style="fill:#0000ff;stroke:#0000ff;" x="132.58434" xlink:href="#mb96721ad8b" y="140.550282"/>
     <use style="fill:#0000ff;stroke:#0000ff;" x="138.795843" xlink:href="#mb96721ad8b" y="134.714544"/>
     <use style="fill:#0000ff;stroke:#0000ff;" x="145.007346" xlink:href="#mb96721ad8b" y="128.961916"/>
     <use style="fill:#0000ff;stroke:#0000ff;" x="151.218849" xlink:href="#mb96721ad8b" y="123.297662"/>
     <use style="fill:#0000ff;stroke:#0000ff;" x="157.430351" xlink:href="#mb96721ad8b" y="117.727801"/>
     <use style="fill:#0000ff;stroke:#0000ff;" x="163.641854" xlink:href="#mb96721ad8b" y="112.257859"/>
     <use style="fill:#0000ff;stroke:#0000ff;" x="169.853357" xlink:href="#mb96721ad8b" y="106.892668"/>
     <use style="fill:#0000ff;stroke:#0000ff;" x="176.06486" xlink:href="#mb96721ad8b" y="101.638522"/>
     <use style="fill:#0000ff;stroke:#0000ff;" x="182.276362" xlink:href="#mb96721ad8b" y="96.499854"/>
     <use style="fill:#0000ff;stroke:#0000ff;" x="188.487865" xlink:href="#mb96721ad8b" y="91.482892"/>
     <use style="fill:#0000ff;stroke:#0000ff;" x="194.699368" xlink:href="#mb96721ad8b" y="86.593166"/>
     <use style="fill:#0000ff;stroke:#0000ff;" x="200.910871" xlink:href="#mb96721ad8b" y="81.8353"/>
     <use style="fill:#0000ff;stroke:#0000ff;" x="207.122374" xlink:href="#mb96721ad8b" y="77.215903"/>
     <use style="fill:#0000ff;stroke:#0000ff;" x="213.333876" xlink:href="#mb96721ad8b" y="72.737969"/>
     <use style="fill:#0000ff;stroke:#0000ff;" x="219.545379" xlink:href="#mb96721ad8b" y="68.406817"/>
     <use style="fill:#0000ff;stroke:#0000ff;" x="225.756882" xlink:href="#mb96721ad8b" y="64.226138"/>
     <use style="fill:#0000ff;stroke:#0000ff;" x="231.968385" xlink:href="#mb96721ad8b" y="60.1982"/>
     <use style="fill:#0000ff;stroke:#0000ff;" x="238.179888" xlink:href="#mb96721ad8b" y="56.329124"/>
     <use style="fill:#0000ff;stroke:#0000ff;" x="244.39139" xlink:href="#mb96721ad8b" y="52.620466"/>
     <use style="fill:#0000ff;stroke:#0000ff;" x="250.602893" xlink:href="#mb96721ad8b" y="49.078407"/>
     <use style="fill:#0000ff;stroke:#0000ff;" x="256.814396" xlink:href="#mb96721ad8b" y="45.707774"/>
     <use style="fill:#0000ff;stroke:#0000ff;" x="263.025899" xlink:href="#mb96721ad8b" y="42.510793"/>
     <use style="fill:#0000ff;stroke:#0000ff;" x="269.237401" xlink:href="#mb96721ad8b" y="39.494885"/>
     <use style="fill:#0000ff;stroke:#0000ff;" x="275.448904" xlink:href="#mb96721ad8b" y="36.65896"/>
     <use style="fill:#0000ff;stroke:#0000ff;" x="281.660407" xlink:href="#mb96721ad8b" y="34.006579"/>
     <use style="fill:#0000ff;stroke:#0000ff;" x="287.87191" xlink:href="#mb96721ad8b" y="31.53977"/>
     <use style="fill:#0000ff;stroke:#0000ff;" x="294.083413" xlink:href="#mb96721ad8b" y="29.255438"/>
     <use style="fill:#0000ff;stroke:#0000ff;" x="300.294915" xlink:href="#mb96721ad8b" y="27.161512"/>
     <use style="fill:#0000ff;stroke:#0000ff;" x="306.506418" xlink:href="#mb96721ad8b" y="25.257433"/>
     <use style="fill:#0000ff;stroke:#0000ff;" x="312.717921" xlink:href="#mb96721ad8b" y="23.547826"/>
     <use style="fill:#0000ff;stroke:#0000ff;" x="318.929424" xlink:href="#mb96721ad8b" y="22.040861"/>
     <use style="fill:#0000ff;stroke:#0000ff;" x="325.140926" xlink:href="#mb96721ad8b" y="20.731637"/>
     <use style="fill:#0000ff;stroke:#0000ff;" x="331.352429" xlink:href="#mb96721ad8b" y="19.625047"/>
     <use style="fill:#0000ff;stroke:#0000ff;" x="337.563932" xlink:href="#mb96721ad8b" y="18.714437"/>
     <use style="fill:#0000ff;stroke:#0000ff;" x="343.775435" xlink:href="#mb96721ad8b" y="18.001941"/>
     <use style="fill:#0000ff;stroke:#0000ff;" x="349.986938" xlink:href="#mb96721ad8b" y="17.493376"/>
     <use style="fill:#0000ff;stroke:#0000ff;" x="356.19844" xlink:href="#mb96721ad8b" y="17.18717"/>
     <use style="fill:#0000ff;stroke:#0000ff;" x="362.409943" xlink:href="#mb96721ad8b" y="17.083636"/>
    </g>
   </g>
   <g id="line2d_30">
    <path clip-path="url(#pad72f70f8b)" d="M 58.046307 214.756364 
L 64.25781 208.410196 
L 70.469312 202.07057 
L 76.680815 195.744023 
L 82.892318 189.437078 
L 89.103821 183.156235 
L 95.315324 176.907971 
L 101.526826 170.698727 
L 107.738329 164.534904 
L 113.949832 158.422858 
L 120.161335 152.368889 
L 126.372837 146.37924 
L 132.58434 140.460084 
L 138.795843 134.617525 
L 145.007346 128.857586 
L 151.218849 123.186204 
L 157.430351 117.609228 
L 163.641854 112.132407 
L 169.853357 106.761387 
L 176.06486 101.501705 
L 182.276362 96.358785 
L 188.487865 91.337927 
L 194.699368 86.444309 
L 200.910871 81.682975 
L 207.122374 77.058835 
L 213.333876 72.576655 
L 219.545379 68.241056 
L 225.756882 64.056509 
L 231.968385 60.027328 
L 238.179888 56.157666 
L 244.39139 52.451512 
L 250.602893 48.912688 
L 256.814396 45.544843 
L 263.025899 42.351447 
L 269.237401 39.335794 
L 275.448904 36.500993 
L 281.660407 33.849966 
L 287.87191 31.385445 
L 294.083413 29.109973 
L 300.294915 27.025895 
L 306.506418 25.135359 
L 312.717921 23.440315 
L 318.929424 21.942509 
L 325.140926 20.643487 
L 331.352429 19.544588 
L 337.563932 18.646944 
L 343.775435 17.951481 
L 349.986938 17.458915 
L 356.19844 17.169756 
L 362.409943 17.0843 
" style="fill:none;stroke:#008000;stroke-linecap:square;stroke-width:1.5;"/>
   </g>
   <g id="patch_3">
    <path d="M 42.828125 224.64 
L 42.828125 7.2 
" style="fill:none;stroke:#000000;stroke-linecap:square;stroke-linejoin:miter;stroke-width:0.8;"/>
   </g>
   <g id="patch_4">
    <path d="M 377.628125 224.64 
L 377.628125 7.2 
" style="fill:none;stroke:#000000;stroke-linecap:square;stroke-linejoin:miter;stroke-width:0.8;"/>
   </g>
   <g id="patch_5">
    <path d="M 42.828125 224.64 
L 377.628125 224.64 
" style="fill:none;stroke:#000000;stroke-linecap:square;stroke-linejoin:miter;stroke-width:0.8;"/>
   </g>
   <g id="patch_6">
    <path d="M 42.828125 7.2 
L 377.628125 7.2 
" style="fill:none;stroke:#000000;stroke-linecap:square;stroke-linejoin:miter;stroke-width:0.8;"/>
   </g>
  </g>
 </g>
 <defs>
  <clipPath id="pad72f70f8b">
   <rect height="217.44" width="334.8" x="42.828125" y="7.2"/>
  </clipPath>
 </defs>
</svg>
