<?xml version="1.0" encoding="utf-8" standalone="no"?>
<!DOCTYPE svg PUBLIC "-//W3C//DTD SVG 1.1//EN"
  "http://www.w3.org/Graphics/SVG/1.1/DTD/svg11.dtd">
<!-- Created with matplotlib (https://matplotlib.org/) -->
<svg height="263.63625pt" version="1.1" viewBox="0 0 405.932812 263.63625" width="405.932812pt" xmlns="http://www.w3.org/2000/svg" xmlns:xlink="http://www.w3.org/1999/xlink">
 <metadata>
  <rdf:RDF xmlns:cc="http://creativecommons.org/ns#" xmlns:dc="http://purl.org/dc/elements/1.1/" xmlns:rdf="http://www.w3.org/1999/02/22-rdf-syntax-ns#">
   <cc:Work>
    <dc:type rdf:resource="http://purl.org/dc/dcmitype/StillImage"/>
    <dc:date>2021-10-10T08:28:45.237205</dc:date>
    <dc:format>image/svg+xml</dc:format>
    <dc:creator>
     <cc:Agent>
      <dc:title>Matplotlib v3.3.4, https://matplotlib.org/</dc:title>
     </cc:Agent>
    </dc:creator>
   </cc:Work>
  </rdf:RDF>
 </metadata>
 <defs>
  <style type="text/css">*{stroke-linecap:butt;stroke-linejoin:round;}</style>
 </defs>
 <g id="figure_1">
  <g id="patch_1">
   <path d="M 0 263.63625 
L 405.932812 263.63625 
L 405.932812 0 
L 0 0 
z
" style="fill:none;"/>
  </g>
  <g id="axes_1">
   <g id="patch_2">
    <path d="M 63.932812 239.758125 
L 398.732813 239.758125 
L 398.732813 22.318125 
L 63.932812 22.318125 
z
" style="fill:#ffffff;"/>
   </g>
   <g id="matplotlib.axis_1">
    <g id="xtick_1">
     <g id="line2d_1">
      <path clip-path="url(#p36bd26588c)" d="M 79.150994 239.758125 
L 79.150994 22.318125 
" style="fill:none;stroke:#b0b0b0;stroke-linecap:square;stroke-width:0.8;"/>
     </g>
     <g id="line2d_2">
      <defs>
       <path d="M 0 0 
L 0 3.5 
" id="mc23f7a38a3" style="stroke:#000000;stroke-width:0.8;"/>
      </defs>
      <g>
       <use style="stroke:#000000;stroke-width:0.8;" x="79.150994" xlink:href="#mc23f7a38a3" y="239.758125"/>
      </g>
     </g>
     <g id="text_1">
      <!-- 0.0 -->
      <g transform="translate(71.199432 254.356563)scale(0.1 -0.1)">
       <defs>
        <path d="M 31.78125 66.40625 
Q 24.171875 66.40625 20.328125 58.90625 
Q 16.5 51.421875 16.5 36.375 
Q 16.5 21.390625 20.328125 13.890625 
Q 24.171875 6.390625 31.78125 6.390625 
Q 39.453125 6.390625 43.28125 13.890625 
Q 47.125 21.390625 47.125 36.375 
Q 47.125 51.421875 43.28125 58.90625 
Q 39.453125 66.40625 31.78125 66.40625 
z
M 31.78125 74.21875 
Q 44.046875 74.21875 50.515625 64.515625 
Q 56.984375 54.828125 56.984375 36.375 
Q 56.984375 17.96875 50.515625 8.265625 
Q 44.046875 -1.421875 31.78125 -1.421875 
Q 19.53125 -1.421875 13.0625 8.265625 
Q 6.59375 17.96875 6.59375 36.375 
Q 6.59375 54.828125 13.0625 64.515625 
Q 19.53125 74.21875 31.78125 74.21875 
z
" id="DejaVuSans-48"/>
        <path d="M 10.6875 12.40625 
L 21 12.40625 
L 21 0 
L 10.6875 0 
z
" id="DejaVuSans-46"/>
       </defs>
       <use xlink:href="#DejaVuSans-48"/>
       <use x="63.623047" xlink:href="#DejaVuSans-46"/>
       <use x="95.410156" xlink:href="#DejaVuSans-48"/>
      </g>
     </g>
    </g>
    <g id="xtick_2">
     <g id="line2d_3">
      <path clip-path="url(#p36bd26588c)" d="M 117.196449 239.758125 
L 117.196449 22.318125 
" style="fill:none;stroke:#b0b0b0;stroke-linecap:square;stroke-width:0.8;"/>
     </g>
     <g id="line2d_4">
      <g>
       <use style="stroke:#000000;stroke-width:0.8;" x="117.196449" xlink:href="#mc23f7a38a3" y="239.758125"/>
      </g>
     </g>
     <g id="text_2">
      <!-- 2.5 -->
      <g transform="translate(109.244886 254.356563)scale(0.1 -0.1)">
       <defs>
        <path d="M 19.1875 8.296875 
L 53.609375 8.296875 
L 53.609375 0 
L 7.328125 0 
L 7.328125 8.296875 
Q 12.9375 14.109375 22.625 23.890625 
Q 32.328125 33.6875 34.8125 36.53125 
Q 39.546875 41.84375 41.421875 45.53125 
Q 43.3125 49.21875 43.3125 52.78125 
Q 43.3125 58.59375 39.234375 62.25 
Q 35.15625 65.921875 28.609375 65.921875 
Q 23.96875 65.921875 18.8125 64.3125 
Q 13.671875 62.703125 7.8125 59.421875 
L 7.8125 69.390625 
Q 13.765625 71.78125 18.9375 73 
Q 24.125 74.21875 28.421875 74.21875 
Q 39.75 74.21875 46.484375 68.546875 
Q 53.21875 62.890625 53.21875 53.421875 
Q 53.21875 48.921875 51.53125 44.890625 
Q 49.859375 40.875 45.40625 35.40625 
Q 44.1875 33.984375 37.640625 27.21875 
Q 31.109375 20.453125 19.1875 8.296875 
z
" id="DejaVuSans-50"/>
        <path d="M 10.796875 72.90625 
L 49.515625 72.90625 
L 49.515625 64.59375 
L 19.828125 64.59375 
L 19.828125 46.734375 
Q 21.96875 47.46875 24.109375 47.828125 
Q 26.265625 48.1875 28.421875 48.1875 
Q 40.625 48.1875 47.75 41.5 
Q 54.890625 34.8125 54.890625 23.390625 
Q 54.890625 11.625 47.5625 5.09375 
Q 40.234375 -1.421875 26.90625 -1.421875 
Q 22.3125 -1.421875 17.546875 -0.640625 
Q 12.796875 0.140625 7.71875 1.703125 
L 7.71875 11.625 
Q 12.109375 9.234375 16.796875 8.0625 
Q 21.484375 6.890625 26.703125 6.890625 
Q 35.15625 6.890625 40.078125 11.328125 
Q 45.015625 15.765625 45.015625 23.390625 
Q 45.015625 31 40.078125 35.4375 
Q 35.15625 39.890625 26.703125 39.890625 
Q 22.75 39.890625 18.8125 39.015625 
Q 14.890625 38.140625 10.796875 36.28125 
z
" id="DejaVuSans-53"/>
       </defs>
       <use xlink:href="#DejaVuSans-50"/>
       <use x="63.623047" xlink:href="#DejaVuSans-46"/>
       <use x="95.410156" xlink:href="#DejaVuSans-53"/>
      </g>
     </g>
    </g>
    <g id="xtick_3">
     <g id="line2d_5">
      <path clip-path="url(#p36bd26588c)" d="M 155.241903 239.758125 
L 155.241903 22.318125 
" style="fill:none;stroke:#b0b0b0;stroke-linecap:square;stroke-width:0.8;"/>
     </g>
     <g id="line2d_6">
      <g>
       <use style="stroke:#000000;stroke-width:0.8;" x="155.241903" xlink:href="#mc23f7a38a3" y="239.758125"/>
      </g>
     </g>
     <g id="text_3">
      <!-- 5.0 -->
      <g transform="translate(147.290341 254.356563)scale(0.1 -0.1)">
       <use xlink:href="#DejaVuSans-53"/>
       <use x="63.623047" xlink:href="#DejaVuSans-46"/>
       <use x="95.410156" xlink:href="#DejaVuSans-48"/>
      </g>
     </g>
    </g>
    <g id="xtick_4">
     <g id="line2d_7">
      <path clip-path="url(#p36bd26588c)" d="M 193.287358 239.758125 
L 193.287358 22.318125 
" style="fill:none;stroke:#b0b0b0;stroke-linecap:square;stroke-width:0.8;"/>
     </g>
     <g id="line2d_8">
      <g>
       <use style="stroke:#000000;stroke-width:0.8;" x="193.287358" xlink:href="#mc23f7a38a3" y="239.758125"/>
      </g>
     </g>
     <g id="text_4">
      <!-- 7.5 -->
      <g transform="translate(185.335795 254.356563)scale(0.1 -0.1)">
       <defs>
        <path d="M 8.203125 72.90625 
L 55.078125 72.90625 
L 55.078125 68.703125 
L 28.609375 0 
L 18.3125 0 
L 43.21875 64.59375 
L 8.203125 64.59375 
z
" id="DejaVuSans-55"/>
       </defs>
       <use xlink:href="#DejaVuSans-55"/>
       <use x="63.623047" xlink:href="#DejaVuSans-46"/>
       <use x="95.410156" xlink:href="#DejaVuSans-53"/>
      </g>
     </g>
    </g>
    <g id="xtick_5">
     <g id="line2d_9">
      <path clip-path="url(#p36bd26588c)" d="M 231.332812 239.758125 
L 231.332812 22.318125 
" style="fill:none;stroke:#b0b0b0;stroke-linecap:square;stroke-width:0.8;"/>
     </g>
     <g id="line2d_10">
      <g>
       <use style="stroke:#000000;stroke-width:0.8;" x="231.332812" xlink:href="#mc23f7a38a3" y="239.758125"/>
      </g>
     </g>
     <g id="text_5">
      <!-- 10.0 -->
      <g transform="translate(220.2 254.356563)scale(0.1 -0.1)">
       <defs>
        <path d="M 12.40625 8.296875 
L 28.515625 8.296875 
L 28.515625 63.921875 
L 10.984375 60.40625 
L 10.984375 69.390625 
L 28.421875 72.90625 
L 38.28125 72.90625 
L 38.28125 8.296875 
L 54.390625 8.296875 
L 54.390625 0 
L 12.40625 0 
z
" id="DejaVuSans-49"/>
       </defs>
       <use xlink:href="#DejaVuSans-49"/>
       <use x="63.623047" xlink:href="#DejaVuSans-48"/>
       <use x="127.246094" xlink:href="#DejaVuSans-46"/>
       <use x="159.033203" xlink:href="#DejaVuSans-48"/>
      </g>
     </g>
    </g>
    <g id="xtick_6">
     <g id="line2d_11">
      <path clip-path="url(#p36bd26588c)" d="M 269.378267 239.758125 
L 269.378267 22.318125 
" style="fill:none;stroke:#b0b0b0;stroke-linecap:square;stroke-width:0.8;"/>
     </g>
     <g id="line2d_12">
      <g>
       <use style="stroke:#000000;stroke-width:0.8;" x="269.378267" xlink:href="#mc23f7a38a3" y="239.758125"/>
      </g>
     </g>
     <g id="text_6">
      <!-- 12.5 -->
      <g transform="translate(258.245455 254.356563)scale(0.1 -0.1)">
       <use xlink:href="#DejaVuSans-49"/>
       <use x="63.623047" xlink:href="#DejaVuSans-50"/>
       <use x="127.246094" xlink:href="#DejaVuSans-46"/>
       <use x="159.033203" xlink:href="#DejaVuSans-53"/>
      </g>
     </g>
    </g>
    <g id="xtick_7">
     <g id="line2d_13">
      <path clip-path="url(#p36bd26588c)" d="M 307.423722 239.758125 
L 307.423722 22.318125 
" style="fill:none;stroke:#b0b0b0;stroke-linecap:square;stroke-width:0.8;"/>
     </g>
     <g id="line2d_14">
      <g>
       <use style="stroke:#000000;stroke-width:0.8;" x="307.423722" xlink:href="#mc23f7a38a3" y="239.758125"/>
      </g>
     </g>
     <g id="text_7">
      <!-- 15.0 -->
      <g transform="translate(296.290909 254.356563)scale(0.1 -0.1)">
       <use xlink:href="#DejaVuSans-49"/>
       <use x="63.623047" xlink:href="#DejaVuSans-53"/>
       <use x="127.246094" xlink:href="#DejaVuSans-46"/>
       <use x="159.033203" xlink:href="#DejaVuSans-48"/>
      </g>
     </g>
    </g>
    <g id="xtick_8">
     <g id="line2d_15">
      <path clip-path="url(#p36bd26588c)" d="M 345.469176 239.758125 
L 345.469176 22.318125 
" style="fill:none;stroke:#b0b0b0;stroke-linecap:square;stroke-width:0.8;"/>
     </g>
     <g id="line2d_16">
      <g>
       <use style="stroke:#000000;stroke-width:0.8;" x="345.469176" xlink:href="#mc23f7a38a3" y="239.758125"/>
      </g>
     </g>
     <g id="text_8">
      <!-- 17.5 -->
      <g transform="translate(334.336364 254.356563)scale(0.1 -0.1)">
       <use xlink:href="#DejaVuSans-49"/>
       <use x="63.623047" xlink:href="#DejaVuSans-55"/>
       <use x="127.246094" xlink:href="#DejaVuSans-46"/>
       <use x="159.033203" xlink:href="#DejaVuSans-53"/>
      </g>
     </g>
    </g>
    <g id="xtick_9">
     <g id="line2d_17">
      <path clip-path="url(#p36bd26588c)" d="M 383.514631 239.758125 
L 383.514631 22.318125 
" style="fill:none;stroke:#b0b0b0;stroke-linecap:square;stroke-width:0.8;"/>
     </g>
     <g id="line2d_18">
      <g>
       <use style="stroke:#000000;stroke-width:0.8;" x="383.514631" xlink:href="#mc23f7a38a3" y="239.758125"/>
      </g>
     </g>
     <g id="text_9">
      <!-- 20.0 -->
      <g transform="translate(372.381818 254.356563)scale(0.1 -0.1)">
       <use xlink:href="#DejaVuSans-50"/>
       <use x="63.623047" xlink:href="#DejaVuSans-48"/>
       <use x="127.246094" xlink:href="#DejaVuSans-46"/>
       <use x="159.033203" xlink:href="#DejaVuSans-48"/>
      </g>
     </g>
    </g>
   </g>
   <g id="matplotlib.axis_2">
    <g id="ytick_1">
     <g id="line2d_19">
      <path clip-path="url(#p36bd26588c)" d="M 63.932812 229.874489 
L 398.732813 229.874489 
" style="fill:none;stroke:#b0b0b0;stroke-linecap:square;stroke-width:0.8;"/>
     </g>
     <g id="line2d_20">
      <defs>
       <path d="M 0 0 
L -3.5 0 
" id="m922b6f647e" style="stroke:#000000;stroke-width:0.8;"/>
      </defs>
      <g>
       <use style="stroke:#000000;stroke-width:0.8;" x="63.932812" xlink:href="#m922b6f647e" y="229.874489"/>
      </g>
     </g>
     <g id="text_10">
      <!-- −0.00100 -->
      <g transform="translate(7.2 233.673707)scale(0.1 -0.1)">
       <defs>
        <path d="M 10.59375 35.5 
L 73.1875 35.5 
L 73.1875 27.203125 
L 10.59375 27.203125 
z
" id="DejaVuSans-8722"/>
       </defs>
       <use xlink:href="#DejaVuSans-8722"/>
       <use x="83.789062" xlink:href="#DejaVuSans-48"/>
       <use x="147.412109" xlink:href="#DejaVuSans-46"/>
       <use x="179.199219" xlink:href="#DejaVuSans-48"/>
       <use x="242.822266" xlink:href="#DejaVuSans-48"/>
       <use x="306.445312" xlink:href="#DejaVuSans-49"/>
       <use x="370.068359" xlink:href="#DejaVuSans-48"/>
       <use x="433.691406" xlink:href="#DejaVuSans-48"/>
      </g>
     </g>
    </g>
    <g id="ytick_2">
     <g id="line2d_21">
      <path clip-path="url(#p36bd26588c)" d="M 63.932812 205.165398 
L 398.732813 205.165398 
" style="fill:none;stroke:#b0b0b0;stroke-linecap:square;stroke-width:0.8;"/>
     </g>
     <g id="line2d_22">
      <g>
       <use style="stroke:#000000;stroke-width:0.8;" x="63.932812" xlink:href="#m922b6f647e" y="205.165398"/>
      </g>
     </g>
     <g id="text_11">
      <!-- −0.00075 -->
      <g transform="translate(7.2 208.964616)scale(0.1 -0.1)">
       <use xlink:href="#DejaVuSans-8722"/>
       <use x="83.789062" xlink:href="#DejaVuSans-48"/>
       <use x="147.412109" xlink:href="#DejaVuSans-46"/>
       <use x="179.199219" xlink:href="#DejaVuSans-48"/>
       <use x="242.822266" xlink:href="#DejaVuSans-48"/>
       <use x="306.445312" xlink:href="#DejaVuSans-48"/>
       <use x="370.068359" xlink:href="#DejaVuSans-55"/>
       <use x="433.691406" xlink:href="#DejaVuSans-53"/>
      </g>
     </g>
    </g>
    <g id="ytick_3">
     <g id="line2d_23">
      <path clip-path="url(#p36bd26588c)" d="M 63.932812 180.456307 
L 398.732813 180.456307 
" style="fill:none;stroke:#b0b0b0;stroke-linecap:square;stroke-width:0.8;"/>
     </g>
     <g id="line2d_24">
      <g>
       <use style="stroke:#000000;stroke-width:0.8;" x="63.932812" xlink:href="#m922b6f647e" y="180.456307"/>
      </g>
     </g>
     <g id="text_12">
      <!-- −0.00050 -->
      <g transform="translate(7.2 184.255526)scale(0.1 -0.1)">
       <use xlink:href="#DejaVuSans-8722"/>
       <use x="83.789062" xlink:href="#DejaVuSans-48"/>
       <use x="147.412109" xlink:href="#DejaVuSans-46"/>
       <use x="179.199219" xlink:href="#DejaVuSans-48"/>
       <use x="242.822266" xlink:href="#DejaVuSans-48"/>
       <use x="306.445312" xlink:href="#DejaVuSans-48"/>
       <use x="370.068359" xlink:href="#DejaVuSans-53"/>
       <use x="433.691406" xlink:href="#DejaVuSans-48"/>
      </g>
     </g>
    </g>
    <g id="ytick_4">
     <g id="line2d_25">
      <path clip-path="url(#p36bd26588c)" d="M 63.932812 155.747216 
L 398.732813 155.747216 
" style="fill:none;stroke:#b0b0b0;stroke-linecap:square;stroke-width:0.8;"/>
     </g>
     <g id="line2d_26">
      <g>
       <use style="stroke:#000000;stroke-width:0.8;" x="63.932812" xlink:href="#m922b6f647e" y="155.747216"/>
      </g>
     </g>
     <g id="text_13">
      <!-- −0.00025 -->
      <g transform="translate(7.2 159.546435)scale(0.1 -0.1)">
       <use xlink:href="#DejaVuSans-8722"/>
       <use x="83.789062" xlink:href="#DejaVuSans-48"/>
       <use x="147.412109" xlink:href="#DejaVuSans-46"/>
       <use x="179.199219" xlink:href="#DejaVuSans-48"/>
       <use x="242.822266" xlink:href="#DejaVuSans-48"/>
       <use x="306.445312" xlink:href="#DejaVuSans-48"/>
       <use x="370.068359" xlink:href="#DejaVuSans-50"/>
       <use x="433.691406" xlink:href="#DejaVuSans-53"/>
      </g>
     </g>
    </g>
    <g id="ytick_5">
     <g id="line2d_27">
      <path clip-path="url(#p36bd26588c)" d="M 63.932812 131.038125 
L 398.732813 131.038125 
" style="fill:none;stroke:#b0b0b0;stroke-linecap:square;stroke-width:0.8;"/>
     </g>
     <g id="line2d_28">
      <g>
       <use style="stroke:#000000;stroke-width:0.8;" x="63.932812" xlink:href="#m922b6f647e" y="131.038125"/>
      </g>
     </g>
     <g id="text_14">
      <!-- 0.00000 -->
      <g transform="translate(15.579687 134.837344)scale(0.1 -0.1)">
       <use xlink:href="#DejaVuSans-48"/>
       <use x="63.623047" xlink:href="#DejaVuSans-46"/>
       <use x="95.410156" xlink:href="#DejaVuSans-48"/>
       <use x="159.033203" xlink:href="#DejaVuSans-48"/>
       <use x="222.65625" xlink:href="#DejaVuSans-48"/>
       <use x="286.279297" xlink:href="#DejaVuSans-48"/>
       <use x="349.902344" xlink:href="#DejaVuSans-48"/>
      </g>
     </g>
    </g>
    <g id="ytick_6">
     <g id="line2d_29">
      <path clip-path="url(#p36bd26588c)" d="M 63.932812 106.329034 
L 398.732813 106.329034 
" style="fill:none;stroke:#b0b0b0;stroke-linecap:square;stroke-width:0.8;"/>
     </g>
     <g id="line2d_30">
      <g>
       <use style="stroke:#000000;stroke-width:0.8;" x="63.932812" xlink:href="#m922b6f647e" y="106.329034"/>
      </g>
     </g>
     <g id="text_15">
      <!-- 0.00025 -->
      <g transform="translate(15.579687 110.128253)scale(0.1 -0.1)">
       <use xlink:href="#DejaVuSans-48"/>
       <use x="63.623047" xlink:href="#DejaVuSans-46"/>
       <use x="95.410156" xlink:href="#DejaVuSans-48"/>
       <use x="159.033203" xlink:href="#DejaVuSans-48"/>
       <use x="222.65625" xlink:href="#DejaVuSans-48"/>
       <use x="286.279297" xlink:href="#DejaVuSans-50"/>
       <use x="349.902344" xlink:href="#DejaVuSans-53"/>
      </g>
     </g>
    </g>
    <g id="ytick_7">
     <g id="line2d_31">
      <path clip-path="url(#p36bd26588c)" d="M 63.932812 81.619943 
L 398.732813 81.619943 
" style="fill:none;stroke:#b0b0b0;stroke-linecap:square;stroke-width:0.8;"/>
     </g>
     <g id="line2d_32">
      <g>
       <use style="stroke:#000000;stroke-width:0.8;" x="63.932812" xlink:href="#m922b6f647e" y="81.619943"/>
      </g>
     </g>
     <g id="text_16">
      <!-- 0.00050 -->
      <g transform="translate(15.579687 85.419162)scale(0.1 -0.1)">
       <use xlink:href="#DejaVuSans-48"/>
       <use x="63.623047" xlink:href="#DejaVuSans-46"/>
       <use x="95.410156" xlink:href="#DejaVuSans-48"/>
       <use x="159.033203" xlink:href="#DejaVuSans-48"/>
       <use x="222.65625" xlink:href="#DejaVuSans-48"/>
       <use x="286.279297" xlink:href="#DejaVuSans-53"/>
       <use x="349.902344" xlink:href="#DejaVuSans-48"/>
      </g>
     </g>
    </g>
    <g id="ytick_8">
     <g id="line2d_33">
      <path clip-path="url(#p36bd26588c)" d="M 63.932812 56.910852 
L 398.732813 56.910852 
" style="fill:none;stroke:#b0b0b0;stroke-linecap:square;stroke-width:0.8;"/>
     </g>
     <g id="line2d_34">
      <g>
       <use style="stroke:#000000;stroke-width:0.8;" x="63.932812" xlink:href="#m922b6f647e" y="56.910852"/>
      </g>
     </g>
     <g id="text_17">
      <!-- 0.00075 -->
      <g transform="translate(15.579687 60.710071)scale(0.1 -0.1)">
       <use xlink:href="#DejaVuSans-48"/>
       <use x="63.623047" xlink:href="#DejaVuSans-46"/>
       <use x="95.410156" xlink:href="#DejaVuSans-48"/>
       <use x="159.033203" xlink:href="#DejaVuSans-48"/>
       <use x="222.65625" xlink:href="#DejaVuSans-48"/>
       <use x="286.279297" xlink:href="#DejaVuSans-55"/>
       <use x="349.902344" xlink:href="#DejaVuSans-53"/>
      </g>
     </g>
    </g>
    <g id="ytick_9">
     <g id="line2d_35">
      <path clip-path="url(#p36bd26588c)" d="M 63.932812 32.201761 
L 398.732813 32.201761 
" style="fill:none;stroke:#b0b0b0;stroke-linecap:square;stroke-width:0.8;"/>
     </g>
     <g id="line2d_36">
      <g>
       <use style="stroke:#000000;stroke-width:0.8;" x="63.932812" xlink:href="#m922b6f647e" y="32.201761"/>
      </g>
     </g>
     <g id="text_18">
      <!-- 0.00100 -->
      <g transform="translate(15.579687 36.00098)scale(0.1 -0.1)">
       <use xlink:href="#DejaVuSans-48"/>
       <use x="63.623047" xlink:href="#DejaVuSans-46"/>
       <use x="95.410156" xlink:href="#DejaVuSans-48"/>
       <use x="159.033203" xlink:href="#DejaVuSans-48"/>
       <use x="222.65625" xlink:href="#DejaVuSans-49"/>
       <use x="286.279297" xlink:href="#DejaVuSans-48"/>
       <use x="349.902344" xlink:href="#DejaVuSans-48"/>
      </g>
     </g>
    </g>
   </g>
   <g id="line2d_37">
    <path clip-path="url(#p36bd26588c)" d="M 79.150994 32.201761 
L 79.760331 32.399756 
L 80.369668 32.992843 
L 80.979004 33.978742 
L 81.588341 35.353475 
L 82.502346 38.132322 
L 83.416351 41.748386 
L 84.330355 46.169433 
L 85.549029 53.246033 
L 86.767702 61.568066 
L 88.291043 73.51731 
L 90.119053 89.725525 
L 92.5564 113.539056 
L 98.954434 177.269611 
L 100.782444 192.930054 
L 102.305785 204.301644 
L 103.524459 212.092415 
L 104.743132 218.585427 
L 105.657137 222.540146 
L 106.571142 225.670302 
L 107.485147 227.947721 
L 108.094483 228.981739 
L 108.70382 229.623359 
L 109.313156 229.870002 
L 109.922493 229.720604 
L 110.53183 229.175805 
L 111.141166 228.237865 
L 111.750503 226.910442 
L 112.664508 224.201095 
L 113.578513 220.652325 
L 114.492518 216.295937 
L 115.711191 209.300197 
L 116.929864 201.051367 
L 118.453206 189.181308 
L 120.281215 173.047463 
L 122.718562 149.294136 
L 129.116596 85.490246 
L 130.944606 69.750657 
L 132.467948 58.296342 
L 133.686621 50.429924 
L 134.905294 43.854081 
L 135.819299 39.833379 
L 136.733304 36.634505 
L 137.647309 34.28638 
L 138.256645 33.204363 
L 138.865982 32.51428 
L 139.475319 32.218989 
L 140.084655 32.319671 
L 140.693992 32.815848 
L 141.303328 33.705551 
L 141.912665 34.985286 
L 142.82667 37.624442 
L 143.740675 41.105339 
L 144.65468 45.396708 
L 145.873353 52.311216 
L 147.092026 60.486244 
L 148.615368 72.276364 
L 150.443378 88.334797 
L 152.880724 112.026749 
L 159.583427 178.664216 
L 161.411437 194.155893 
L 162.934778 205.352901 
L 164.153451 212.984818 
L 165.372125 219.3047 
L 166.286129 223.121873 
L 167.200134 226.109253 
L 168.114139 228.239848 
L 168.723476 229.174522 
L 169.332812 229.716046 
L 169.942149 229.862225 
L 170.551486 229.612471 
L 171.160822 228.967753 
L 171.770159 227.930648 
L 172.379496 226.50535 
L 173.2935 223.652438 
L 174.207505 219.964951 
L 175.426179 213.808578 
L 176.644852 206.326999 
L 178.168193 195.295817 
L 179.996203 179.965285 
L 182.128881 159.89821 
L 185.784901 122.795 
L 189.136252 89.687091 
L 191.26893 70.971476 
L 192.792272 59.353303 
L 194.315613 49.52709 
L 195.534287 43.123072 
L 196.448292 39.238993 
L 197.362297 36.182125 
L 198.276301 33.980046 
L 198.885638 32.996971 
L 199.494975 32.406702 
L 200.104311 32.211624 
L 200.713648 32.412514 
L 201.322984 33.008553 
L 201.932321 33.997354 
L 202.541658 35.374967 
L 203.455663 38.157908 
L 204.369668 41.777797 
L 205.283672 46.20202 
L 206.502346 53.282272 
L 207.721019 61.607419 
L 209.24436 73.559703 
L 211.07237 89.770082 
L 213.509717 113.583671 
L 219.907751 177.302732 
L 221.735761 192.956891 
L 223.259102 204.322641 
L 224.477776 212.108345 
L 225.696449 218.596121 
L 226.610454 222.546798 
L 227.524459 225.672912 
L 228.438464 227.94625 
L 229.0478 228.977595 
L 229.657137 229.616539 
L 230.266473 229.860549 
L 230.87581 229.70858 
L 231.485147 229.161277 
L 232.094483 228.220833 
L 232.70382 226.891028 
L 233.617825 224.178315 
L 234.53183 220.626297 
L 235.445835 216.266958 
L 236.664508 209.267561 
L 237.883181 201.015672 
L 239.406523 189.142497 
L 241.234532 173.006181 
L 243.671879 149.251916 
L 250.069913 85.45798 
L 251.897923 69.724128 
L 253.421265 58.275352 
L 254.639938 50.41369 
L 255.858611 43.842955 
L 256.772616 39.826112 
L 257.686621 36.631279 
L 258.600626 34.287106 
L 259.209962 33.207746 
L 259.819299 32.520382 
L 260.428636 32.227717 
L 261.037972 32.3309 
L 261.647309 32.829537 
L 262.256645 33.721639 
L 262.865982 35.003665 
L 263.779987 37.64616 
L 264.693992 41.130181 
L 265.607997 45.424381 
L 266.82667 52.342371 
L 268.045343 60.520323 
L 269.568685 72.313374 
L 271.396695 88.374144 
L 273.834041 112.067001 
L 280.536744 178.694648 
L 282.364754 194.180984 
L 283.888095 205.372922 
L 285.106768 213.00045 
L 286.325441 219.315759 
L 287.239446 223.129376 
L 288.153451 226.113168 
L 289.067456 228.240211 
L 289.676793 229.172476 
L 290.286129 229.711563 
L 290.895466 229.85531 
L 291.504803 229.603124 
L 292.114139 228.956019 
L 292.723476 227.916598 
L 293.332812 226.489026 
L 294.246817 223.6328 
L 295.160822 219.942189 
L 296.379496 213.781979 
L 297.598169 206.297007 
L 299.12151 195.262274 
L 300.94952 179.928601 
L 303.082198 159.85953 
L 306.738218 122.757342 
L 310.089569 89.655322 
L 312.222247 70.945483 
L 313.745589 59.332292 
L 315.26893 49.511558 
L 316.487604 43.112199 
L 317.401609 39.23171 
L 318.315613 36.178554 
L 319.229618 33.980158 
L 319.838955 32.999527 
L 320.448292 32.411718 
L 321.057628 32.219081 
L 321.666965 32.422368 
L 322.276301 33.020707 
L 322.885638 34.011826 
L 323.494975 35.391679 
L 324.40898 38.177838 
L 325.322984 41.800742 
L 326.236989 46.227773 
L 327.455663 53.311407 
L 328.674336 61.639568 
L 330.197677 73.594879 
L 332.025687 89.807802 
L 334.463034 113.622654 
L 340.861068 177.333046 
L 342.689078 192.981906 
L 344.212419 204.342418 
L 345.431093 212.123554 
L 346.649766 218.606459 
L 347.563771 222.553444 
L 348.477776 225.675767 
L 349.391781 227.945306 
L 350.001117 228.974136 
L 350.610454 229.610572 
L 351.21979 229.852069 
L 351.829127 229.697657 
L 352.438464 229.147948 
L 353.0478 228.205145 
L 353.657137 226.873032 
L 354.571142 224.157008 
L 355.485147 220.601869 
L 356.399152 216.239654 
L 357.617825 209.236872 
L 358.836498 200.982116 
L 360.35984 189.106105 
L 362.187849 172.967623 
L 364.625196 149.212507 
L 371.02323 85.427503 
L 372.85124 69.698887 
L 374.374582 58.25515 
L 375.593255 50.397949 
L 376.811928 43.831828 
L 377.725933 39.818563 
L 378.639938 36.627292 
L 379.553943 34.286762 
L 380.163279 33.209786 
L 380.772616 32.524772 
L 381.381953 32.23446 
L 381.991289 32.340017 
L 382.600626 32.841027 
L 383.209962 33.735481 
L 383.514631 34.329187 
L 383.514631 34.329187 
" style="fill:none;stroke:#000000;stroke-linecap:square;stroke-width:1.5;"/>
   </g>
   <g id="line2d_38">
    <path clip-path="url(#p36bd26588c)" d="M 79.150994 229.874489 
L 79.760331 229.676493 
L 80.369668 229.083406 
L 80.979004 228.097506 
L 81.588341 226.722772 
L 82.502346 223.943924 
L 83.416351 220.327859 
L 84.330355 215.906811 
L 85.549029 208.83021 
L 86.767702 200.508177 
L 88.291043 188.558933 
L 90.119053 172.350719 
L 92.5564 148.537189 
L 98.954434 84.806642 
L 100.782444 69.146201 
L 102.305785 57.774612 
L 103.524459 49.983842 
L 104.743132 43.49083 
L 105.657137 39.536111 
L 106.571142 36.405955 
L 107.485147 34.128536 
L 108.094483 33.094517 
L 108.70382 32.452897 
L 109.313156 32.206254 
L 109.922493 32.355651 
L 110.53183 32.900449 
L 111.141166 33.838389 
L 111.750503 35.165811 
L 112.664508 37.875157 
L 113.578513 41.423925 
L 114.492518 45.780313 
L 115.711191 52.776051 
L 116.929864 61.024879 
L 118.453206 72.894937 
L 120.281215 89.028781 
L 122.718562 112.782107 
L 129.116596 176.586001 
L 130.944606 192.325592 
L 132.467948 203.779909 
L 133.686621 211.646329 
L 134.905294 218.222173 
L 135.819299 222.242876 
L 136.733304 225.44175 
L 137.647309 227.789877 
L 138.256645 228.871893 
L 138.865982 229.561977 
L 139.475319 229.857268 
L 140.084655 229.756586 
L 140.693992 229.260409 
L 141.303328 228.370706 
L 141.912665 227.09097 
L 142.82667 224.451815 
L 143.740675 220.970917 
L 144.65468 216.679547 
L 145.873353 209.765038 
L 147.092026 201.590008 
L 148.615368 189.799886 
L 150.443378 173.741452 
L 152.880724 150.049496 
L 159.583427 83.412028 
L 161.411437 67.920352 
L 162.934778 56.723345 
L 164.153451 49.091429 
L 165.372125 42.771548 
L 166.286129 38.954377 
L 167.200134 35.966998 
L 168.114139 33.836404 
L 168.723476 32.901731 
L 169.332812 32.360208 
L 169.942149 32.214029 
L 170.551486 32.463784 
L 171.160822 33.108502 
L 171.770159 34.145608 
L 172.379496 35.570907 
L 173.2935 38.423818 
L 174.207505 42.111306 
L 175.426179 48.267679 
L 176.644852 55.749258 
L 178.168193 66.780439 
L 179.996203 82.110969 
L 182.128881 102.178043 
L 185.784901 139.281247 
L 189.136252 172.389153 
L 191.26893 191.104767 
L 192.792272 202.72294 
L 194.315613 212.549153 
L 195.534287 218.953172 
L 196.448292 222.837252 
L 197.362297 225.894121 
L 198.276301 228.0962 
L 198.885638 229.079276 
L 199.494975 229.669545 
L 200.104311 229.864624 
L 200.713648 229.663736 
L 201.322984 229.067697 
L 201.932321 228.078897 
L 202.541658 226.701284 
L 203.455663 223.918344 
L 204.369668 220.298456 
L 205.283672 215.874234 
L 206.502346 208.793984 
L 207.721019 200.468838 
L 209.24436 188.516554 
L 211.07237 172.306175 
L 213.509717 148.492585 
L 219.907751 84.773516 
L 221.735761 69.119356 
L 223.259102 57.753604 
L 224.477776 49.967899 
L 225.696449 43.480123 
L 226.610454 39.529445 
L 227.524459 36.403331 
L 228.438464 34.129993 
L 229.0478 33.098649 
L 229.657137 32.459705 
L 230.266473 32.215695 
L 230.87581 32.367664 
L 231.485147 32.914968 
L 232.094483 33.855412 
L 232.70382 35.185217 
L 233.617825 37.897932 
L 234.53183 41.449951 
L 235.445835 45.809291 
L 236.664508 52.808689 
L 237.883181 61.06058 
L 239.406523 72.933757 
L 241.234532 89.070075 
L 243.671879 112.824341 
L 250.069913 176.618274 
L 251.897923 192.352124 
L 253.421265 203.800898 
L 254.639938 211.662559 
L 255.858611 218.233292 
L 256.772616 222.250134 
L 257.686621 225.444967 
L 258.600626 227.789139 
L 259.209962 228.868498 
L 259.819299 229.555862 
L 260.428636 229.848526 
L 261.037972 229.745343 
L 261.647309 229.246705 
L 262.256645 228.354604 
L 262.865982 227.072578 
L 263.779987 224.430083 
L 264.693992 220.946063 
L 265.607997 216.651863 
L 266.82667 209.733874 
L 268.045343 201.555923 
L 269.568685 189.762874 
L 271.396695 173.702106 
L 273.834041 150.009253 
L 280.536744 83.381609 
L 282.364754 67.895272 
L 283.888095 56.703333 
L 285.106768 49.075804 
L 286.325441 42.760494 
L 287.239446 38.946876 
L 288.153451 35.963082 
L 289.067456 33.836038 
L 289.676793 32.903773 
L 290.286129 32.364685 
L 290.895466 32.220938 
L 291.504803 32.473123 
L 292.114139 33.120227 
L 292.723476 34.159647 
L 293.332812 35.587219 
L 294.246817 38.443444 
L 295.160822 42.134055 
L 296.379496 48.294264 
L 297.598169 55.779236 
L 299.12151 66.813969 
L 300.94952 82.147643 
L 303.082198 102.216717 
L 306.738218 139.318909 
L 310.089569 172.420933 
L 312.222247 191.130773 
L 313.745589 202.743965 
L 315.26893 212.564699 
L 316.487604 218.964058 
L 317.401609 222.844547 
L 318.315613 225.897701 
L 319.229618 228.096097 
L 319.838955 229.076727 
L 320.448292 229.664535 
L 321.057628 229.857172 
L 321.666965 229.653884 
L 322.276301 229.055545 
L 322.885638 228.064425 
L 323.494975 226.684571 
L 324.40898 223.898411 
L 325.322984 220.275505 
L 326.236989 215.848473 
L 327.455663 208.764838 
L 328.674336 200.436677 
L 330.197677 188.481364 
L 332.025687 172.26844 
L 334.463034 148.45359 
L 340.861068 84.743204 
L 342.689078 69.094346 
L 344.212419 57.733835 
L 345.431093 49.952701 
L 346.649766 43.469797 
L 347.563771 39.522813 
L 348.477776 36.400489 
L 349.391781 34.130951 
L 350.001117 33.102121 
L 350.610454 32.465685 
L 351.21979 32.224188 
L 351.829127 32.378599 
L 352.438464 32.928308 
L 353.0478 33.871111 
L 353.657137 35.203224 
L 354.571142 37.919247 
L 355.485147 41.474385 
L 356.399152 45.836599 
L 357.617825 52.839379 
L 358.836498 61.094133 
L 360.35984 72.970142 
L 362.187849 89.108623 
L 364.625196 112.863736 
L 371.02323 176.648741 
L 372.85124 192.377359 
L 374.374582 203.821098 
L 375.593255 211.6783 
L 376.811928 218.244423 
L 377.725933 222.25769 
L 378.639938 225.448961 
L 379.553943 227.789493 
L 380.163279 228.866469 
L 380.772616 229.551483 
L 381.381953 229.841796 
L 381.991289 229.736239 
L 382.600626 229.235229 
L 383.209962 228.340776 
L 383.514631 227.74707 
L 383.514631 227.74707 
" style="fill:none;stroke:#0000ff;stroke-linecap:square;stroke-width:1.5;"/>
   </g>
   <g id="patch_3">
    <path d="M 63.932812 239.758125 
L 63.932812 22.318125 
" style="fill:none;stroke:#000000;stroke-linecap:square;stroke-linejoin:miter;stroke-width:0.8;"/>
   </g>
   <g id="patch_4">
    <path d="M 398.732813 239.758125 
L 398.732813 22.318125 
" style="fill:none;stroke:#000000;stroke-linecap:square;stroke-linejoin:miter;stroke-width:0.8;"/>
   </g>
   <g id="patch_5">
    <path d="M 63.932812 239.758125 
L 398.732813 239.758125 
" style="fill:none;stroke:#000000;stroke-linecap:square;stroke-linejoin:miter;stroke-width:0.8;"/>
   </g>
   <g id="patch_6">
    <path d="M 63.932812 22.318125 
L 398.732813 22.318125 
" style="fill:none;stroke:#000000;stroke-linecap:square;stroke-linejoin:miter;stroke-width:0.8;"/>
   </g>
   <g id="text_19">
    <!-- Antisymmetric Mode -->
    <g transform="translate(169.30875 16.318125)scale(0.12 -0.12)">
     <defs>
      <path d="M 34.1875 63.1875 
L 20.796875 26.90625 
L 47.609375 26.90625 
z
M 28.609375 72.90625 
L 39.796875 72.90625 
L 67.578125 0 
L 57.328125 0 
L 50.6875 18.703125 
L 17.828125 18.703125 
L 11.1875 0 
L 0.78125 0 
z
" id="DejaVuSans-65"/>
      <path d="M 54.890625 33.015625 
L 54.890625 0 
L 45.90625 0 
L 45.90625 32.71875 
Q 45.90625 40.484375 42.875 44.328125 
Q 39.84375 48.1875 33.796875 48.1875 
Q 26.515625 48.1875 22.3125 43.546875 
Q 18.109375 38.921875 18.109375 30.90625 
L 18.109375 0 
L 9.078125 0 
L 9.078125 54.6875 
L 18.109375 54.6875 
L 18.109375 46.1875 
Q 21.34375 51.125 25.703125 53.5625 
Q 30.078125 56 35.796875 56 
Q 45.21875 56 50.046875 50.171875 
Q 54.890625 44.34375 54.890625 33.015625 
z
" id="DejaVuSans-110"/>
      <path d="M 18.3125 70.21875 
L 18.3125 54.6875 
L 36.8125 54.6875 
L 36.8125 47.703125 
L 18.3125 47.703125 
L 18.3125 18.015625 
Q 18.3125 11.328125 20.140625 9.421875 
Q 21.96875 7.515625 27.59375 7.515625 
L 36.8125 7.515625 
L 36.8125 0 
L 27.59375 0 
Q 17.1875 0 13.234375 3.875 
Q 9.28125 7.765625 9.28125 18.015625 
L 9.28125 47.703125 
L 2.6875 47.703125 
L 2.6875 54.6875 
L 9.28125 54.6875 
L 9.28125 70.21875 
z
" id="DejaVuSans-116"/>
      <path d="M 9.421875 54.6875 
L 18.40625 54.6875 
L 18.40625 0 
L 9.421875 0 
z
M 9.421875 75.984375 
L 18.40625 75.984375 
L 18.40625 64.59375 
L 9.421875 64.59375 
z
" id="DejaVuSans-105"/>
      <path d="M 44.28125 53.078125 
L 44.28125 44.578125 
Q 40.484375 46.53125 36.375 47.5 
Q 32.28125 48.484375 27.875 48.484375 
Q 21.1875 48.484375 17.84375 46.4375 
Q 14.5 44.390625 14.5 40.28125 
Q 14.5 37.15625 16.890625 35.375 
Q 19.28125 33.59375 26.515625 31.984375 
L 29.59375 31.296875 
Q 39.15625 29.25 43.1875 25.515625 
Q 47.21875 21.78125 47.21875 15.09375 
Q 47.21875 7.46875 41.1875 3.015625 
Q 35.15625 -1.421875 24.609375 -1.421875 
Q 20.21875 -1.421875 15.453125 -0.5625 
Q 10.6875 0.296875 5.421875 2 
L 5.421875 11.28125 
Q 10.40625 8.6875 15.234375 7.390625 
Q 20.0625 6.109375 24.8125 6.109375 
Q 31.15625 6.109375 34.5625 8.28125 
Q 37.984375 10.453125 37.984375 14.40625 
Q 37.984375 18.0625 35.515625 20.015625 
Q 33.0625 21.96875 24.703125 23.78125 
L 21.578125 24.515625 
Q 13.234375 26.265625 9.515625 29.90625 
Q 5.8125 33.546875 5.8125 39.890625 
Q 5.8125 47.609375 11.28125 51.796875 
Q 16.75 56 26.8125 56 
Q 31.78125 56 36.171875 55.265625 
Q 40.578125 54.546875 44.28125 53.078125 
z
" id="DejaVuSans-115"/>
      <path d="M 32.171875 -5.078125 
Q 28.375 -14.84375 24.75 -17.8125 
Q 21.140625 -20.796875 15.09375 -20.796875 
L 7.90625 -20.796875 
L 7.90625 -13.28125 
L 13.1875 -13.28125 
Q 16.890625 -13.28125 18.9375 -11.515625 
Q 21 -9.765625 23.484375 -3.21875 
L 25.09375 0.875 
L 2.984375 54.6875 
L 12.5 54.6875 
L 29.59375 11.921875 
L 46.6875 54.6875 
L 56.203125 54.6875 
z
" id="DejaVuSans-121"/>
      <path d="M 52 44.1875 
Q 55.375 50.25 60.0625 53.125 
Q 64.75 56 71.09375 56 
Q 79.640625 56 84.28125 50.015625 
Q 88.921875 44.046875 88.921875 33.015625 
L 88.921875 0 
L 79.890625 0 
L 79.890625 32.71875 
Q 79.890625 40.578125 77.09375 44.375 
Q 74.3125 48.1875 68.609375 48.1875 
Q 61.625 48.1875 57.5625 43.546875 
Q 53.515625 38.921875 53.515625 30.90625 
L 53.515625 0 
L 44.484375 0 
L 44.484375 32.71875 
Q 44.484375 40.625 41.703125 44.40625 
Q 38.921875 48.1875 33.109375 48.1875 
Q 26.21875 48.1875 22.15625 43.53125 
Q 18.109375 38.875 18.109375 30.90625 
L 18.109375 0 
L 9.078125 0 
L 9.078125 54.6875 
L 18.109375 54.6875 
L 18.109375 46.1875 
Q 21.1875 51.21875 25.484375 53.609375 
Q 29.78125 56 35.6875 56 
Q 41.65625 56 45.828125 52.96875 
Q 50 49.953125 52 44.1875 
z
" id="DejaVuSans-109"/>
      <path d="M 56.203125 29.59375 
L 56.203125 25.203125 
L 14.890625 25.203125 
Q 15.484375 15.921875 20.484375 11.0625 
Q 25.484375 6.203125 34.421875 6.203125 
Q 39.59375 6.203125 44.453125 7.46875 
Q 49.3125 8.734375 54.109375 11.28125 
L 54.109375 2.78125 
Q 49.265625 0.734375 44.1875 -0.34375 
Q 39.109375 -1.421875 33.890625 -1.421875 
Q 20.796875 -1.421875 13.15625 6.1875 
Q 5.515625 13.8125 5.515625 26.8125 
Q 5.515625 40.234375 12.765625 48.109375 
Q 20.015625 56 32.328125 56 
Q 43.359375 56 49.78125 48.890625 
Q 56.203125 41.796875 56.203125 29.59375 
z
M 47.21875 32.234375 
Q 47.125 39.59375 43.09375 43.984375 
Q 39.0625 48.390625 32.421875 48.390625 
Q 24.90625 48.390625 20.390625 44.140625 
Q 15.875 39.890625 15.1875 32.171875 
z
" id="DejaVuSans-101"/>
      <path d="M 41.109375 46.296875 
Q 39.59375 47.171875 37.8125 47.578125 
Q 36.03125 48 33.890625 48 
Q 26.265625 48 22.1875 43.046875 
Q 18.109375 38.09375 18.109375 28.8125 
L 18.109375 0 
L 9.078125 0 
L 9.078125 54.6875 
L 18.109375 54.6875 
L 18.109375 46.1875 
Q 20.953125 51.171875 25.484375 53.578125 
Q 30.03125 56 36.53125 56 
Q 37.453125 56 38.578125 55.875 
Q 39.703125 55.765625 41.0625 55.515625 
z
" id="DejaVuSans-114"/>
      <path d="M 48.78125 52.59375 
L 48.78125 44.1875 
Q 44.96875 46.296875 41.140625 47.34375 
Q 37.3125 48.390625 33.40625 48.390625 
Q 24.65625 48.390625 19.8125 42.84375 
Q 14.984375 37.3125 14.984375 27.296875 
Q 14.984375 17.28125 19.8125 11.734375 
Q 24.65625 6.203125 33.40625 6.203125 
Q 37.3125 6.203125 41.140625 7.25 
Q 44.96875 8.296875 48.78125 10.40625 
L 48.78125 2.09375 
Q 45.015625 0.34375 40.984375 -0.53125 
Q 36.96875 -1.421875 32.421875 -1.421875 
Q 20.0625 -1.421875 12.78125 6.34375 
Q 5.515625 14.109375 5.515625 27.296875 
Q 5.515625 40.671875 12.859375 48.328125 
Q 20.21875 56 33.015625 56 
Q 37.15625 56 41.109375 55.140625 
Q 45.0625 54.296875 48.78125 52.59375 
z
" id="DejaVuSans-99"/>
      <path id="DejaVuSans-32"/>
      <path d="M 9.8125 72.90625 
L 24.515625 72.90625 
L 43.109375 23.296875 
L 61.8125 72.90625 
L 76.515625 72.90625 
L 76.515625 0 
L 66.890625 0 
L 66.890625 64.015625 
L 48.09375 14.015625 
L 38.1875 14.015625 
L 19.390625 64.015625 
L 19.390625 0 
L 9.8125 0 
z
" id="DejaVuSans-77"/>
      <path d="M 30.609375 48.390625 
Q 23.390625 48.390625 19.1875 42.75 
Q 14.984375 37.109375 14.984375 27.296875 
Q 14.984375 17.484375 19.15625 11.84375 
Q 23.34375 6.203125 30.609375 6.203125 
Q 37.796875 6.203125 41.984375 11.859375 
Q 46.1875 17.53125 46.1875 27.296875 
Q 46.1875 37.015625 41.984375 42.703125 
Q 37.796875 48.390625 30.609375 48.390625 
z
M 30.609375 56 
Q 42.328125 56 49.015625 48.375 
Q 55.71875 40.765625 55.71875 27.296875 
Q 55.71875 13.875 49.015625 6.21875 
Q 42.328125 -1.421875 30.609375 -1.421875 
Q 18.84375 -1.421875 12.171875 6.21875 
Q 5.515625 13.875 5.515625 27.296875 
Q 5.515625 40.765625 12.171875 48.375 
Q 18.84375 56 30.609375 56 
z
" id="DejaVuSans-111"/>
      <path d="M 45.40625 46.390625 
L 45.40625 75.984375 
L 54.390625 75.984375 
L 54.390625 0 
L 45.40625 0 
L 45.40625 8.203125 
Q 42.578125 3.328125 38.25 0.953125 
Q 33.9375 -1.421875 27.875 -1.421875 
Q 17.96875 -1.421875 11.734375 6.484375 
Q 5.515625 14.40625 5.515625 27.296875 
Q 5.515625 40.1875 11.734375 48.09375 
Q 17.96875 56 27.875 56 
Q 33.9375 56 38.25 53.625 
Q 42.578125 51.265625 45.40625 46.390625 
z
M 14.796875 27.296875 
Q 14.796875 17.390625 18.875 11.75 
Q 22.953125 6.109375 30.078125 6.109375 
Q 37.203125 6.109375 41.296875 11.75 
Q 45.40625 17.390625 45.40625 27.296875 
Q 45.40625 37.203125 41.296875 42.84375 
Q 37.203125 48.484375 30.078125 48.484375 
Q 22.953125 48.484375 18.875 42.84375 
Q 14.796875 37.203125 14.796875 27.296875 
z
" id="DejaVuSans-100"/>
     </defs>
     <use xlink:href="#DejaVuSans-65"/>
     <use x="68.408203" xlink:href="#DejaVuSans-110"/>
     <use x="131.787109" xlink:href="#DejaVuSans-116"/>
     <use x="170.996094" xlink:href="#DejaVuSans-105"/>
     <use x="198.779297" xlink:href="#DejaVuSans-115"/>
     <use x="250.878906" xlink:href="#DejaVuSans-121"/>
     <use x="310.058594" xlink:href="#DejaVuSans-109"/>
     <use x="407.470703" xlink:href="#DejaVuSans-109"/>
     <use x="504.882812" xlink:href="#DejaVuSans-101"/>
     <use x="566.40625" xlink:href="#DejaVuSans-116"/>
     <use x="605.615234" xlink:href="#DejaVuSans-114"/>
     <use x="646.728516" xlink:href="#DejaVuSans-105"/>
     <use x="674.511719" xlink:href="#DejaVuSans-99"/>
     <use x="729.492188" xlink:href="#DejaVuSans-32"/>
     <use x="761.279297" xlink:href="#DejaVuSans-77"/>
     <use x="847.558594" xlink:href="#DejaVuSans-111"/>
     <use x="908.740234" xlink:href="#DejaVuSans-100"/>
     <use x="972.216797" xlink:href="#DejaVuSans-101"/>
    </g>
   </g>
  </g>
 </g>
 <defs>
  <clipPath id="p36bd26588c">
   <rect height="217.44" width="334.8" x="63.932812" y="22.318125"/>
  </clipPath>
 </defs>
</svg>
