<?xml version="1.0" encoding="utf-8" standalone="no"?>
<!DOCTYPE svg PUBLIC "-//W3C//DTD SVG 1.1//EN"
  "http://www.w3.org/Graphics/SVG/1.1/DTD/svg11.dtd">
<!-- Created with matplotlib (https://matplotlib.org/) -->
<svg height="263.63625pt" version="1.1" viewBox="0 0 405.932812 263.63625" width="405.932812pt" xmlns="http://www.w3.org/2000/svg" xmlns:xlink="http://www.w3.org/1999/xlink">
 <metadata>
  <rdf:RDF xmlns:cc="http://creativecommons.org/ns#" xmlns:dc="http://purl.org/dc/elements/1.1/" xmlns:rdf="http://www.w3.org/1999/02/22-rdf-syntax-ns#">
   <cc:Work>
    <dc:type rdf:resource="http://purl.org/dc/dcmitype/StillImage"/>
    <dc:date>2021-10-05T17:11:01.223118</dc:date>
    <dc:format>image/svg+xml</dc:format>
    <dc:creator>
     <cc:Agent>
      <dc:title>Matplotlib v3.3.4, https://matplotlib.org/</dc:title>
     </cc:Agent>
    </dc:creator>
   </cc:Work>
  </rdf:RDF>
 </metadata>
 <defs>
  <style type="text/css">*{stroke-linecap:butt;stroke-linejoin:round;}</style>
 </defs>
 <g id="figure_1">
  <g id="patch_1">
   <path d="M 0 263.63625 
L 405.932812 263.63625 
L 405.932812 0 
L 0 0 
z
" style="fill:none;"/>
  </g>
  <g id="axes_1">
   <g id="patch_2">
    <path d="M 63.932812 239.758125 
L 398.732813 239.758125 
L 398.732813 22.318125 
L 63.932812 22.318125 
z
" style="fill:#ffffff;"/>
   </g>
   <g id="matplotlib.axis_1">
    <g id="xtick_1">
     <g id="line2d_1">
      <path clip-path="url(#p6349ec2d3e)" d="M 79.150994 239.758125 
L 79.150994 22.318125 
" style="fill:none;stroke:#b0b0b0;stroke-linecap:square;stroke-width:0.8;"/>
     </g>
     <g id="line2d_2">
      <defs>
       <path d="M 0 0 
L 0 3.5 
" id="m7d42a41ca8" style="stroke:#000000;stroke-width:0.8;"/>
      </defs>
      <g>
       <use style="stroke:#000000;stroke-width:0.8;" x="79.150994" xlink:href="#m7d42a41ca8" y="239.758125"/>
      </g>
     </g>
     <g id="text_1">
      <!-- 0 -->
      <g transform="translate(75.969744 254.356563)scale(0.1 -0.1)">
       <defs>
        <path d="M 31.78125 66.40625 
Q 24.171875 66.40625 20.328125 58.90625 
Q 16.5 51.421875 16.5 36.375 
Q 16.5 21.390625 20.328125 13.890625 
Q 24.171875 6.390625 31.78125 6.390625 
Q 39.453125 6.390625 43.28125 13.890625 
Q 47.125 21.390625 47.125 36.375 
Q 47.125 51.421875 43.28125 58.90625 
Q 39.453125 66.40625 31.78125 66.40625 
z
M 31.78125 74.21875 
Q 44.046875 74.21875 50.515625 64.515625 
Q 56.984375 54.828125 56.984375 36.375 
Q 56.984375 17.96875 50.515625 8.265625 
Q 44.046875 -1.421875 31.78125 -1.421875 
Q 19.53125 -1.421875 13.0625 8.265625 
Q 6.59375 17.96875 6.59375 36.375 
Q 6.59375 54.828125 13.0625 64.515625 
Q 19.53125 74.21875 31.78125 74.21875 
z
" id="DejaVuSans-48"/>
       </defs>
       <use xlink:href="#DejaVuSans-48"/>
      </g>
     </g>
    </g>
    <g id="xtick_2">
     <g id="line2d_3">
      <path clip-path="url(#p6349ec2d3e)" d="M 140.023722 239.758125 
L 140.023722 22.318125 
" style="fill:none;stroke:#b0b0b0;stroke-linecap:square;stroke-width:0.8;"/>
     </g>
     <g id="line2d_4">
      <g>
       <use style="stroke:#000000;stroke-width:0.8;" x="140.023722" xlink:href="#m7d42a41ca8" y="239.758125"/>
      </g>
     </g>
     <g id="text_2">
      <!-- 10 -->
      <g transform="translate(133.661222 254.356563)scale(0.1 -0.1)">
       <defs>
        <path d="M 12.40625 8.296875 
L 28.515625 8.296875 
L 28.515625 63.921875 
L 10.984375 60.40625 
L 10.984375 69.390625 
L 28.421875 72.90625 
L 38.28125 72.90625 
L 38.28125 8.296875 
L 54.390625 8.296875 
L 54.390625 0 
L 12.40625 0 
z
" id="DejaVuSans-49"/>
       </defs>
       <use xlink:href="#DejaVuSans-49"/>
       <use x="63.623047" xlink:href="#DejaVuSans-48"/>
      </g>
     </g>
    </g>
    <g id="xtick_3">
     <g id="line2d_5">
      <path clip-path="url(#p6349ec2d3e)" d="M 200.896449 239.758125 
L 200.896449 22.318125 
" style="fill:none;stroke:#b0b0b0;stroke-linecap:square;stroke-width:0.8;"/>
     </g>
     <g id="line2d_6">
      <g>
       <use style="stroke:#000000;stroke-width:0.8;" x="200.896449" xlink:href="#m7d42a41ca8" y="239.758125"/>
      </g>
     </g>
     <g id="text_3">
      <!-- 20 -->
      <g transform="translate(194.533949 254.356563)scale(0.1 -0.1)">
       <defs>
        <path d="M 19.1875 8.296875 
L 53.609375 8.296875 
L 53.609375 0 
L 7.328125 0 
L 7.328125 8.296875 
Q 12.9375 14.109375 22.625 23.890625 
Q 32.328125 33.6875 34.8125 36.53125 
Q 39.546875 41.84375 41.421875 45.53125 
Q 43.3125 49.21875 43.3125 52.78125 
Q 43.3125 58.59375 39.234375 62.25 
Q 35.15625 65.921875 28.609375 65.921875 
Q 23.96875 65.921875 18.8125 64.3125 
Q 13.671875 62.703125 7.8125 59.421875 
L 7.8125 69.390625 
Q 13.765625 71.78125 18.9375 73 
Q 24.125 74.21875 28.421875 74.21875 
Q 39.75 74.21875 46.484375 68.546875 
Q 53.21875 62.890625 53.21875 53.421875 
Q 53.21875 48.921875 51.53125 44.890625 
Q 49.859375 40.875 45.40625 35.40625 
Q 44.1875 33.984375 37.640625 27.21875 
Q 31.109375 20.453125 19.1875 8.296875 
z
" id="DejaVuSans-50"/>
       </defs>
       <use xlink:href="#DejaVuSans-50"/>
       <use x="63.623047" xlink:href="#DejaVuSans-48"/>
      </g>
     </g>
    </g>
    <g id="xtick_4">
     <g id="line2d_7">
      <path clip-path="url(#p6349ec2d3e)" d="M 261.769176 239.758125 
L 261.769176 22.318125 
" style="fill:none;stroke:#b0b0b0;stroke-linecap:square;stroke-width:0.8;"/>
     </g>
     <g id="line2d_8">
      <g>
       <use style="stroke:#000000;stroke-width:0.8;" x="261.769176" xlink:href="#m7d42a41ca8" y="239.758125"/>
      </g>
     </g>
     <g id="text_4">
      <!-- 30 -->
      <g transform="translate(255.406676 254.356563)scale(0.1 -0.1)">
       <defs>
        <path d="M 40.578125 39.3125 
Q 47.65625 37.796875 51.625 33 
Q 55.609375 28.21875 55.609375 21.1875 
Q 55.609375 10.40625 48.1875 4.484375 
Q 40.765625 -1.421875 27.09375 -1.421875 
Q 22.515625 -1.421875 17.65625 -0.515625 
Q 12.796875 0.390625 7.625 2.203125 
L 7.625 11.71875 
Q 11.71875 9.328125 16.59375 8.109375 
Q 21.484375 6.890625 26.8125 6.890625 
Q 36.078125 6.890625 40.9375 10.546875 
Q 45.796875 14.203125 45.796875 21.1875 
Q 45.796875 27.640625 41.28125 31.265625 
Q 36.765625 34.90625 28.71875 34.90625 
L 20.21875 34.90625 
L 20.21875 43.015625 
L 29.109375 43.015625 
Q 36.375 43.015625 40.234375 45.921875 
Q 44.09375 48.828125 44.09375 54.296875 
Q 44.09375 59.90625 40.109375 62.90625 
Q 36.140625 65.921875 28.71875 65.921875 
Q 24.65625 65.921875 20.015625 65.03125 
Q 15.375 64.15625 9.8125 62.3125 
L 9.8125 71.09375 
Q 15.4375 72.65625 20.34375 73.4375 
Q 25.25 74.21875 29.59375 74.21875 
Q 40.828125 74.21875 47.359375 69.109375 
Q 53.90625 64.015625 53.90625 55.328125 
Q 53.90625 49.265625 50.4375 45.09375 
Q 46.96875 40.921875 40.578125 39.3125 
z
" id="DejaVuSans-51"/>
       </defs>
       <use xlink:href="#DejaVuSans-51"/>
       <use x="63.623047" xlink:href="#DejaVuSans-48"/>
      </g>
     </g>
    </g>
    <g id="xtick_5">
     <g id="line2d_9">
      <path clip-path="url(#p6349ec2d3e)" d="M 322.641903 239.758125 
L 322.641903 22.318125 
" style="fill:none;stroke:#b0b0b0;stroke-linecap:square;stroke-width:0.8;"/>
     </g>
     <g id="line2d_10">
      <g>
       <use style="stroke:#000000;stroke-width:0.8;" x="322.641903" xlink:href="#m7d42a41ca8" y="239.758125"/>
      </g>
     </g>
     <g id="text_5">
      <!-- 40 -->
      <g transform="translate(316.279403 254.356563)scale(0.1 -0.1)">
       <defs>
        <path d="M 37.796875 64.3125 
L 12.890625 25.390625 
L 37.796875 25.390625 
z
M 35.203125 72.90625 
L 47.609375 72.90625 
L 47.609375 25.390625 
L 58.015625 25.390625 
L 58.015625 17.1875 
L 47.609375 17.1875 
L 47.609375 0 
L 37.796875 0 
L 37.796875 17.1875 
L 4.890625 17.1875 
L 4.890625 26.703125 
z
" id="DejaVuSans-52"/>
       </defs>
       <use xlink:href="#DejaVuSans-52"/>
       <use x="63.623047" xlink:href="#DejaVuSans-48"/>
      </g>
     </g>
    </g>
    <g id="xtick_6">
     <g id="line2d_11">
      <path clip-path="url(#p6349ec2d3e)" d="M 383.514631 239.758125 
L 383.514631 22.318125 
" style="fill:none;stroke:#b0b0b0;stroke-linecap:square;stroke-width:0.8;"/>
     </g>
     <g id="line2d_12">
      <g>
       <use style="stroke:#000000;stroke-width:0.8;" x="383.514631" xlink:href="#m7d42a41ca8" y="239.758125"/>
      </g>
     </g>
     <g id="text_6">
      <!-- 50 -->
      <g transform="translate(377.152131 254.356563)scale(0.1 -0.1)">
       <defs>
        <path d="M 10.796875 72.90625 
L 49.515625 72.90625 
L 49.515625 64.59375 
L 19.828125 64.59375 
L 19.828125 46.734375 
Q 21.96875 47.46875 24.109375 47.828125 
Q 26.265625 48.1875 28.421875 48.1875 
Q 40.625 48.1875 47.75 41.5 
Q 54.890625 34.8125 54.890625 23.390625 
Q 54.890625 11.625 47.5625 5.09375 
Q 40.234375 -1.421875 26.90625 -1.421875 
Q 22.3125 -1.421875 17.546875 -0.640625 
Q 12.796875 0.140625 7.71875 1.703125 
L 7.71875 11.625 
Q 12.109375 9.234375 16.796875 8.0625 
Q 21.484375 6.890625 26.703125 6.890625 
Q 35.15625 6.890625 40.078125 11.328125 
Q 45.015625 15.765625 45.015625 23.390625 
Q 45.015625 31 40.078125 35.4375 
Q 35.15625 39.890625 26.703125 39.890625 
Q 22.75 39.890625 18.8125 39.015625 
Q 14.890625 38.140625 10.796875 36.28125 
z
" id="DejaVuSans-53"/>
       </defs>
       <use xlink:href="#DejaVuSans-53"/>
       <use x="63.623047" xlink:href="#DejaVuSans-48"/>
      </g>
     </g>
    </g>
   </g>
   <g id="matplotlib.axis_2">
    <g id="ytick_1">
     <g id="line2d_13">
      <path clip-path="url(#p6349ec2d3e)" d="M 63.932812 230.091434 
L 398.732813 230.091434 
" style="fill:none;stroke:#b0b0b0;stroke-linecap:square;stroke-width:0.8;"/>
     </g>
     <g id="line2d_14">
      <defs>
       <path d="M 0 0 
L -3.5 0 
" id="m984978a804" style="stroke:#000000;stroke-width:0.8;"/>
      </defs>
      <g>
       <use style="stroke:#000000;stroke-width:0.8;" x="63.932812" xlink:href="#m984978a804" y="230.091434"/>
      </g>
     </g>
     <g id="text_7">
      <!-- −0.00100 -->
      <g transform="translate(7.2 233.890652)scale(0.1 -0.1)">
       <defs>
        <path d="M 10.59375 35.5 
L 73.1875 35.5 
L 73.1875 27.203125 
L 10.59375 27.203125 
z
" id="DejaVuSans-8722"/>
        <path d="M 10.6875 12.40625 
L 21 12.40625 
L 21 0 
L 10.6875 0 
z
" id="DejaVuSans-46"/>
       </defs>
       <use xlink:href="#DejaVuSans-8722"/>
       <use x="83.789062" xlink:href="#DejaVuSans-48"/>
       <use x="147.412109" xlink:href="#DejaVuSans-46"/>
       <use x="179.199219" xlink:href="#DejaVuSans-48"/>
       <use x="242.822266" xlink:href="#DejaVuSans-48"/>
       <use x="306.445312" xlink:href="#DejaVuSans-49"/>
       <use x="370.068359" xlink:href="#DejaVuSans-48"/>
       <use x="433.691406" xlink:href="#DejaVuSans-48"/>
      </g>
     </g>
    </g>
    <g id="ytick_2">
     <g id="line2d_15">
      <path clip-path="url(#p6349ec2d3e)" d="M 63.932812 205.355225 
L 398.732813 205.355225 
" style="fill:none;stroke:#b0b0b0;stroke-linecap:square;stroke-width:0.8;"/>
     </g>
     <g id="line2d_16">
      <g>
       <use style="stroke:#000000;stroke-width:0.8;" x="63.932812" xlink:href="#m984978a804" y="205.355225"/>
      </g>
     </g>
     <g id="text_8">
      <!-- −0.00075 -->
      <g transform="translate(7.2 209.154443)scale(0.1 -0.1)">
       <defs>
        <path d="M 8.203125 72.90625 
L 55.078125 72.90625 
L 55.078125 68.703125 
L 28.609375 0 
L 18.3125 0 
L 43.21875 64.59375 
L 8.203125 64.59375 
z
" id="DejaVuSans-55"/>
       </defs>
       <use xlink:href="#DejaVuSans-8722"/>
       <use x="83.789062" xlink:href="#DejaVuSans-48"/>
       <use x="147.412109" xlink:href="#DejaVuSans-46"/>
       <use x="179.199219" xlink:href="#DejaVuSans-48"/>
       <use x="242.822266" xlink:href="#DejaVuSans-48"/>
       <use x="306.445312" xlink:href="#DejaVuSans-48"/>
       <use x="370.068359" xlink:href="#DejaVuSans-55"/>
       <use x="433.691406" xlink:href="#DejaVuSans-53"/>
      </g>
     </g>
    </g>
    <g id="ytick_3">
     <g id="line2d_17">
      <path clip-path="url(#p6349ec2d3e)" d="M 63.932812 180.619015 
L 398.732813 180.619015 
" style="fill:none;stroke:#b0b0b0;stroke-linecap:square;stroke-width:0.8;"/>
     </g>
     <g id="line2d_18">
      <g>
       <use style="stroke:#000000;stroke-width:0.8;" x="63.932812" xlink:href="#m984978a804" y="180.619015"/>
      </g>
     </g>
     <g id="text_9">
      <!-- −0.00050 -->
      <g transform="translate(7.2 184.418234)scale(0.1 -0.1)">
       <use xlink:href="#DejaVuSans-8722"/>
       <use x="83.789062" xlink:href="#DejaVuSans-48"/>
       <use x="147.412109" xlink:href="#DejaVuSans-46"/>
       <use x="179.199219" xlink:href="#DejaVuSans-48"/>
       <use x="242.822266" xlink:href="#DejaVuSans-48"/>
       <use x="306.445312" xlink:href="#DejaVuSans-48"/>
       <use x="370.068359" xlink:href="#DejaVuSans-53"/>
       <use x="433.691406" xlink:href="#DejaVuSans-48"/>
      </g>
     </g>
    </g>
    <g id="ytick_4">
     <g id="line2d_19">
      <path clip-path="url(#p6349ec2d3e)" d="M 63.932812 155.882806 
L 398.732813 155.882806 
" style="fill:none;stroke:#b0b0b0;stroke-linecap:square;stroke-width:0.8;"/>
     </g>
     <g id="line2d_20">
      <g>
       <use style="stroke:#000000;stroke-width:0.8;" x="63.932812" xlink:href="#m984978a804" y="155.882806"/>
      </g>
     </g>
     <g id="text_10">
      <!-- −0.00025 -->
      <g transform="translate(7.2 159.682025)scale(0.1 -0.1)">
       <use xlink:href="#DejaVuSans-8722"/>
       <use x="83.789062" xlink:href="#DejaVuSans-48"/>
       <use x="147.412109" xlink:href="#DejaVuSans-46"/>
       <use x="179.199219" xlink:href="#DejaVuSans-48"/>
       <use x="242.822266" xlink:href="#DejaVuSans-48"/>
       <use x="306.445312" xlink:href="#DejaVuSans-48"/>
       <use x="370.068359" xlink:href="#DejaVuSans-50"/>
       <use x="433.691406" xlink:href="#DejaVuSans-53"/>
      </g>
     </g>
    </g>
    <g id="ytick_5">
     <g id="line2d_21">
      <path clip-path="url(#p6349ec2d3e)" d="M 63.932812 131.146597 
L 398.732813 131.146597 
" style="fill:none;stroke:#b0b0b0;stroke-linecap:square;stroke-width:0.8;"/>
     </g>
     <g id="line2d_22">
      <g>
       <use style="stroke:#000000;stroke-width:0.8;" x="63.932812" xlink:href="#m984978a804" y="131.146597"/>
      </g>
     </g>
     <g id="text_11">
      <!-- 0.00000 -->
      <g transform="translate(15.579687 134.945816)scale(0.1 -0.1)">
       <use xlink:href="#DejaVuSans-48"/>
       <use x="63.623047" xlink:href="#DejaVuSans-46"/>
       <use x="95.410156" xlink:href="#DejaVuSans-48"/>
       <use x="159.033203" xlink:href="#DejaVuSans-48"/>
       <use x="222.65625" xlink:href="#DejaVuSans-48"/>
       <use x="286.279297" xlink:href="#DejaVuSans-48"/>
       <use x="349.902344" xlink:href="#DejaVuSans-48"/>
      </g>
     </g>
    </g>
    <g id="ytick_6">
     <g id="line2d_23">
      <path clip-path="url(#p6349ec2d3e)" d="M 63.932812 106.410388 
L 398.732813 106.410388 
" style="fill:none;stroke:#b0b0b0;stroke-linecap:square;stroke-width:0.8;"/>
     </g>
     <g id="line2d_24">
      <g>
       <use style="stroke:#000000;stroke-width:0.8;" x="63.932812" xlink:href="#m984978a804" y="106.410388"/>
      </g>
     </g>
     <g id="text_12">
      <!-- 0.00025 -->
      <g transform="translate(15.579687 110.209607)scale(0.1 -0.1)">
       <use xlink:href="#DejaVuSans-48"/>
       <use x="63.623047" xlink:href="#DejaVuSans-46"/>
       <use x="95.410156" xlink:href="#DejaVuSans-48"/>
       <use x="159.033203" xlink:href="#DejaVuSans-48"/>
       <use x="222.65625" xlink:href="#DejaVuSans-48"/>
       <use x="286.279297" xlink:href="#DejaVuSans-50"/>
       <use x="349.902344" xlink:href="#DejaVuSans-53"/>
      </g>
     </g>
    </g>
    <g id="ytick_7">
     <g id="line2d_25">
      <path clip-path="url(#p6349ec2d3e)" d="M 63.932812 81.674179 
L 398.732813 81.674179 
" style="fill:none;stroke:#b0b0b0;stroke-linecap:square;stroke-width:0.8;"/>
     </g>
     <g id="line2d_26">
      <g>
       <use style="stroke:#000000;stroke-width:0.8;" x="63.932812" xlink:href="#m984978a804" y="81.674179"/>
      </g>
     </g>
     <g id="text_13">
      <!-- 0.00050 -->
      <g transform="translate(15.579687 85.473398)scale(0.1 -0.1)">
       <use xlink:href="#DejaVuSans-48"/>
       <use x="63.623047" xlink:href="#DejaVuSans-46"/>
       <use x="95.410156" xlink:href="#DejaVuSans-48"/>
       <use x="159.033203" xlink:href="#DejaVuSans-48"/>
       <use x="222.65625" xlink:href="#DejaVuSans-48"/>
       <use x="286.279297" xlink:href="#DejaVuSans-53"/>
       <use x="349.902344" xlink:href="#DejaVuSans-48"/>
      </g>
     </g>
    </g>
    <g id="ytick_8">
     <g id="line2d_27">
      <path clip-path="url(#p6349ec2d3e)" d="M 63.932812 56.93797 
L 398.732813 56.93797 
" style="fill:none;stroke:#b0b0b0;stroke-linecap:square;stroke-width:0.8;"/>
     </g>
     <g id="line2d_28">
      <g>
       <use style="stroke:#000000;stroke-width:0.8;" x="63.932812" xlink:href="#m984978a804" y="56.93797"/>
      </g>
     </g>
     <g id="text_14">
      <!-- 0.00075 -->
      <g transform="translate(15.579687 60.737189)scale(0.1 -0.1)">
       <use xlink:href="#DejaVuSans-48"/>
       <use x="63.623047" xlink:href="#DejaVuSans-46"/>
       <use x="95.410156" xlink:href="#DejaVuSans-48"/>
       <use x="159.033203" xlink:href="#DejaVuSans-48"/>
       <use x="222.65625" xlink:href="#DejaVuSans-48"/>
       <use x="286.279297" xlink:href="#DejaVuSans-55"/>
       <use x="349.902344" xlink:href="#DejaVuSans-53"/>
      </g>
     </g>
    </g>
    <g id="ytick_9">
     <g id="line2d_29">
      <path clip-path="url(#p6349ec2d3e)" d="M 63.932812 32.201761 
L 398.732813 32.201761 
" style="fill:none;stroke:#b0b0b0;stroke-linecap:square;stroke-width:0.8;"/>
     </g>
     <g id="line2d_30">
      <g>
       <use style="stroke:#000000;stroke-width:0.8;" x="63.932812" xlink:href="#m984978a804" y="32.201761"/>
      </g>
     </g>
     <g id="text_15">
      <!-- 0.00100 -->
      <g transform="translate(15.579687 36.00098)scale(0.1 -0.1)">
       <use xlink:href="#DejaVuSans-48"/>
       <use x="63.623047" xlink:href="#DejaVuSans-46"/>
       <use x="95.410156" xlink:href="#DejaVuSans-48"/>
       <use x="159.033203" xlink:href="#DejaVuSans-48"/>
       <use x="222.65625" xlink:href="#DejaVuSans-49"/>
       <use x="286.279297" xlink:href="#DejaVuSans-48"/>
       <use x="349.902344" xlink:href="#DejaVuSans-48"/>
      </g>
     </g>
    </g>
   </g>
   <g id="line2d_31">
    <path clip-path="url(#p6349ec2d3e)" d="M 79.150994 32.201761 
L 79.455663 32.820484 
L 79.760331 34.667081 
L 80.064999 37.712948 
L 80.674336 47.194488 
L 81.283672 60.678086 
L 82.197677 86.539882 
L 84.939692 170.327389 
L 85.549029 183.41623 
L 86.158365 192.824919 
L 86.767702 198.233794 
L 87.07237 199.415974 
L 87.377039 199.606747 
L 87.681707 198.844827 
L 87.986375 197.184653 
L 88.595712 191.459311 
L 89.205048 183.12809 
L 90.423722 162.104772 
L 91.642395 141.375232 
L 92.5564 129.87198 
L 93.165736 125.133981 
L 93.470405 123.74042 
L 93.775073 123.003724 
L 94.079741 122.909389 
L 94.38441 123.427824 
L 94.689078 124.515054 
L 95.298414 128.154652 
L 96.212419 136.090772 
L 97.431093 147.274559 
L 98.040429 151.321256 
L 98.345098 152.639253 
L 98.649766 153.387234 
L 98.954434 153.504606 
L 99.259102 152.943998 
L 99.563771 151.672287 
L 100.173107 146.940062 
L 100.782444 139.356749 
L 101.696449 123.365141 
L 103.21979 89.928416 
L 104.438464 65.269797 
L 105.0478 56.31215 
L 105.657137 50.722926 
L 105.961805 49.391625 
L 106.266473 49.113411 
L 106.571142 49.925778 
L 106.87581 51.848578 
L 107.485147 59.013399 
L 108.094483 70.399359 
L 109.008488 94.238317 
L 110.227161 134.14848 
L 111.750503 184.607047 
L 112.664508 208.307932 
L 113.273844 219.385318 
L 113.883181 225.953341 
L 114.187849 227.437595 
L 114.492518 227.70172 
L 114.797186 226.754499 
L 115.101854 224.623672 
L 115.711191 217.013152 
L 116.320527 205.441778 
L 117.234532 182.470813 
L 119.976547 106.190984 
L 120.585884 94.172001 
L 121.19522 85.482186 
L 121.804557 80.386452 
L 122.109225 79.194403 
L 122.413894 78.876806 
L 122.718562 79.391693 
L 123.02323 80.682284 
L 123.632567 85.299126 
L 124.241903 92.037703 
L 126.983918 126.246609 
L 127.593255 130.189918 
L 127.897923 131.277444 
L 128.202591 131.746936 
L 128.50726 131.596177 
L 128.811928 130.838357 
L 129.116596 129.501846 
L 129.725933 125.277962 
L 130.639938 116.089399 
L 132.163279 99.319091 
L 132.772616 94.50325 
L 133.077284 92.889657 
L 133.381953 91.913532 
L 133.686621 91.641902 
L 133.991289 92.128772 
L 134.295957 93.413818 
L 134.600626 95.521333 
L 135.209962 102.219782 
L 135.819299 112.089702 
L 136.733304 131.906364 
L 139.779987 207.406392 
L 140.389324 216.724624 
L 140.99866 222.061448 
L 141.303328 223.068506 
L 141.607997 222.91178 
L 141.912665 221.571823 
L 142.217333 219.048011 
L 142.82667 210.541113 
L 143.436007 197.76108 
L 144.350012 172.061586 
L 146.178021 109.580663 
L 147.396695 72.294555 
L 148.006031 58.177914 
L 148.615368 48.110744 
L 149.224704 42.543963 
L 149.529373 41.50916 
L 149.834041 41.634942 
L 150.138709 42.894234 
L 150.443378 45.242126 
L 151.052714 52.940974 
L 151.662051 64.059028 
L 152.576056 85.213685 
L 154.708734 137.638576 
L 155.622739 153.871161 
L 156.232075 161.033122 
L 156.841412 165.008539 
L 157.14608 165.813819 
L 157.450749 165.869399 
L 157.755417 165.222789 
L 158.060085 163.934965 
L 158.669422 159.738322 
L 159.583427 150.757114 
L 161.106768 135.400273 
L 161.716105 131.364425 
L 162.020773 130.103159 
L 162.325441 129.413866 
L 162.63011 129.329755 
L 162.934778 129.868976 
L 163.239446 131.034317 
L 163.848783 135.177628 
L 164.45812 141.477657 
L 165.372125 153.816191 
L 166.895466 175.728087 
L 167.504803 182.432738 
L 168.114139 186.720316 
L 168.418808 187.745754 
L 168.723476 187.936064 
L 169.028144 187.241401 
L 169.332812 185.627473 
L 169.637481 183.076397 
L 170.246817 175.176775 
L 170.856154 163.743866 
L 171.770159 141.069366 
L 175.12151 48.446405 
L 175.730847 39.087949 
L 176.035515 36.03562 
L 176.340184 34.14941 
L 176.644852 33.468226 
L 176.94952 34.012221 
L 177.254188 35.782378 
L 177.558857 38.760392 
L 178.168193 48.172232 
L 178.77753 61.733769 
L 179.691535 88.107207 
L 182.738218 184.020785 
L 183.347555 196.589002 
L 183.956891 205.138111 
L 184.261559 207.804621 
L 184.566228 209.381504 
L 184.870896 209.878551 
L 185.175564 209.323254 
L 185.480233 207.760261 
L 186.089569 201.868466 
L 186.698906 192.855085 
L 187.612911 175.332788 
L 189.745589 132.470592 
L 190.354926 123.590362 
L 190.964262 117.288678 
L 191.573599 113.789057 
L 191.878267 113.090488 
L 192.182935 113.061484 
L 192.487604 113.660345 
L 192.792272 114.831639 
L 193.401609 118.61041 
L 194.315613 126.571182 
L 195.534287 137.321364 
L 196.143623 140.99462 
L 196.448292 142.111378 
L 196.75296 142.662007 
L 197.057628 142.597582 
L 197.362297 141.883204 
L 197.666965 140.498895 
L 198.276301 135.71838 
L 198.885638 128.409104 
L 199.799643 113.631876 
L 202.236989 69.934613 
L 202.846326 62.942869 
L 203.150994 60.620063 
L 203.455663 59.186135 
L 203.760331 58.704085 
L 204.064999 59.221665 
L 204.369668 60.770051 
L 204.674336 63.363064 
L 205.283672 71.648882 
L 205.893009 83.830965 
L 206.807014 108.192006 
L 208.635024 167.580874 
L 209.853697 202.965152 
L 210.463034 216.131315 
L 211.07237 225.164215 
L 211.377039 227.952825 
L 211.681707 229.529972 
L 211.986375 229.874489 
L 212.291043 228.984478 
L 212.595712 226.877352 
L 213.205048 219.175494 
L 213.814385 207.273255 
L 214.72839 183.260779 
L 217.775073 92.9446 
L 218.38441 80.769915 
L 218.993746 72.266758 
L 219.603083 67.684118 
L 219.907751 66.863839 
L 220.212419 66.990155 
L 220.517088 68.017138 
L 220.821756 69.883856 
L 221.431093 75.826381 
L 222.345098 88.826511 
L 224.477776 122.78172 
L 225.087112 129.713745 
L 225.696449 134.347497 
L 226.001117 135.719069 
L 226.305785 136.446615 
L 226.610454 136.539256 
L 226.915122 136.021432 
L 227.21979 134.932123 
L 227.829127 131.262504 
L 228.743132 123.166075 
L 230.266473 109.091657 
L 230.87581 105.586746 
L 231.180478 104.644333 
L 231.485147 104.333361 
L 231.789815 104.70703 
L 232.094483 105.804408 
L 232.399152 107.649724 
L 233.008488 113.601426 
L 233.617825 122.435141 
L 234.53183 140.190207 
L 237.578513 205.765224 
L 238.187849 212.895107 
L 238.492518 215.02683 
L 238.797186 216.113057 
L 239.101854 216.106264 
L 239.406523 214.976427 
L 239.711191 212.711654 
L 240.320527 204.821981 
L 240.929864 192.711843 
L 241.843869 167.923045 
L 243.367211 116.653565 
L 244.585884 76.938733 
L 245.499889 53.839101 
L 246.109225 43.299196 
L 246.718562 37.313366 
L 247.02323 36.117749 
L 247.327898 36.130125 
L 247.632567 37.334104 
L 247.937235 39.694245 
L 248.546572 47.654428 
L 249.155908 59.392382 
L 250.069913 82.201031 
L 252.50726 148.579754 
L 253.421265 166.120324 
L 254.030601 173.766979 
L 254.639938 177.914453 
L 254.944606 178.690282 
L 255.249274 178.641167 
L 255.553943 177.816332 
L 255.858611 176.279133 
L 256.467948 171.380005 
L 257.381953 160.879754 
L 258.905294 141.979672 
L 259.514631 136.261821 
L 260.123967 132.527403 
L 260.428636 131.523863 
L 260.733304 131.13122 
L 261.037972 131.356761 
L 261.342641 132.192163 
L 261.647309 133.614004 
L 262.256645 138.050034 
L 263.17065 147.715367 
L 264.99866 168.795971 
L 265.607997 173.308324 
L 265.912665 174.661575 
L 266.217333 175.311799 
L 266.522002 175.198438 
L 266.82667 174.274771 
L 267.131338 172.509209 
L 267.740675 166.406704 
L 268.350012 156.966934 
L 269.264016 137.368478 
L 270.787358 96.208679 
L 272.006031 64.499554 
L 272.920036 46.942 
L 273.529373 39.867908 
L 273.834041 37.96198 
L 274.138709 37.213762 
L 274.443378 37.653698 
L 274.748046 39.293532 
L 275.052714 42.125974 
L 275.662051 51.24459 
L 276.271387 64.578362 
L 277.185392 90.883069 
L 280.536744 196.970086 
L 281.14608 208.476813 
L 281.755417 215.658409 
L 282.060085 217.540268 
L 282.364754 218.273497 
L 282.669422 217.874511 
L 282.97409 216.377706 
L 283.278758 213.834824 
L 283.888095 205.897109 
L 284.497432 194.771534 
L 285.716105 166.620515 
L 287.239446 130.789774 
L 288.153451 114.390436 
L 288.762788 106.882274 
L 289.372125 102.433694 
L 289.676793 101.361483 
L 289.981461 101.027488 
L 290.286129 101.390833 
L 290.590798 102.396482 
L 291.200134 106.053446 
L 292.114139 114.348286 
L 293.637481 129.0091 
L 294.246817 132.903708 
L 294.551486 134.111726 
L 294.856154 134.753561 
L 295.160822 134.79119 
L 295.465491 134.201277 
L 295.770159 132.975757 
L 296.379496 128.663354 
L 296.988832 122.097333 
L 297.902837 109.111723 
L 299.730847 81.267815 
L 300.340184 74.6461 
L 300.94952 70.724032 
L 301.254188 69.975989 
L 301.558857 70.118078 
L 301.863525 71.192878 
L 302.168193 73.226849 
L 302.77753 80.192726 
L 303.386867 90.881616 
L 304.300871 112.927919 
L 305.519545 149.501482 
L 307.042886 195.055686 
L 307.956891 215.676107 
L 308.566228 224.671174 
L 308.870896 227.493659 
L 309.175564 229.127012 
L 309.480233 229.539717 
L 309.784901 228.719284 
L 310.089569 226.672526 
L 310.698906 219.022909 
L 311.308242 207.020322 
L 312.222247 182.446775 
L 314.050257 122.343676 
L 315.26893 86.521705 
L 315.878267 72.922439 
L 316.487604 63.116658 
L 317.09694 57.466254 
L 317.401609 56.233956 
L 317.706277 56.046023 
L 318.010945 56.867208 
L 318.315613 58.646148 
L 318.92495 64.796577 
L 319.534287 73.808813 
L 320.75296 96.925454 
L 322.276301 125.657366 
L 322.885638 134.417478 
L 323.494975 140.749698 
L 324.104311 144.38624 
L 324.40898 145.178504 
L 324.713648 145.310201 
L 325.018316 144.817474 
L 325.322984 143.750512 
L 325.932321 140.157009 
L 326.846326 132.364726 
L 328.064999 121.577849 
L 328.674336 117.791896 
L 328.979004 116.605745 
L 329.283672 115.982718 
L 329.588341 115.976869 
L 329.893009 116.628392 
L 330.197677 117.962948 
L 330.807014 122.706032 
L 331.416351 130.098255 
L 332.330355 145.311173 
L 335.07237 196.906808 
L 335.681707 203.720214 
L 335.986375 205.860573 
L 336.291043 207.056746 
L 336.595712 207.252038 
L 336.90038 206.405748 
L 337.205048 204.494362 
L 337.814385 197.471632 
L 338.423722 186.356166 
L 339.337727 163.079504 
L 340.5564 124.029784 
L 342.079741 74.5666 
L 342.993746 51.382379 
L 343.603083 40.634954 
L 344.212419 34.407774 
L 344.517088 33.105194 
L 344.821756 33.034236 
L 345.126424 34.189011 
L 345.431093 36.544503 
L 346.040429 44.665133 
L 346.649766 56.839392 
L 347.563771 80.900732 
L 350.305785 161.311283 
L 351.21979 179.374402 
L 351.829127 186.948284 
L 352.133795 189.30215 
L 352.438464 190.700043 
L 352.743132 191.163114 
L 353.0478 190.728774 
L 353.352469 189.450015 
L 353.961805 184.639565 
L 354.571142 177.408056 
L 355.789815 159.027878 
L 357.008488 141.300074 
L 357.617825 134.628648 
L 358.227161 130.148534 
L 358.53183 128.825711 
L 358.836498 128.135099 
L 359.141166 128.072902 
L 359.445835 128.619825 
L 359.750503 129.741847 
L 360.35984 133.504864 
L 361.273844 141.863772 
L 362.797186 156.794033 
L 363.406523 160.760214 
L 363.711191 161.944747 
L 364.015859 162.498612 
L 364.320527 162.362857 
L 364.625196 161.492124 
L 364.929864 159.855791 
L 365.539201 154.242305 
L 366.148537 145.597098 
L 367.062542 127.742487 
L 368.585884 90.773396 
L 369.804557 63.235042 
L 370.413894 52.917395 
L 371.02323 46.064253 
L 371.327898 44.145955 
L 371.632567 43.315012 
L 371.937235 43.611871 
L 372.241903 45.059033 
L 372.546572 47.660514 
L 373.155908 56.248957 
L 373.765245 69.037515 
L 374.67925 94.675321 
L 376.50726 157.008668 
L 377.725933 194.227363 
L 378.33527 208.284455 
L 378.944606 218.243064 
L 379.553943 223.623978 
L 379.858611 224.528011 
L 380.163279 224.241784 
L 380.467948 222.789389 
L 380.772616 220.213161 
L 381.381953 211.944153 
L 381.991289 200.097155 
L 382.905294 177.558083 
L 383.514631 160.854361 
L 383.514631 160.854361 
" style="fill:none;stroke:#000000;stroke-linecap:square;stroke-width:1.5;"/>
   </g>
   <g id="patch_3">
    <path d="M 63.932812 239.758125 
L 63.932812 22.318125 
" style="fill:none;stroke:#000000;stroke-linecap:square;stroke-linejoin:miter;stroke-width:0.8;"/>
   </g>
   <g id="patch_4">
    <path d="M 398.732813 239.758125 
L 398.732813 22.318125 
" style="fill:none;stroke:#000000;stroke-linecap:square;stroke-linejoin:miter;stroke-width:0.8;"/>
   </g>
   <g id="patch_5">
    <path d="M 63.932812 239.758125 
L 398.732812 239.758125 
" style="fill:none;stroke:#000000;stroke-linecap:square;stroke-linejoin:miter;stroke-width:0.8;"/>
   </g>
   <g id="patch_6">
    <path d="M 63.932812 22.318125 
L 398.732812 22.318125 
" style="fill:none;stroke:#000000;stroke-linecap:square;stroke-linejoin:miter;stroke-width:0.8;"/>
   </g>
   <g id="text_16">
    <!-- Unknown mode -->
    <g transform="translate(184.558125 16.318125)scale(0.12 -0.12)">
     <defs>
      <path d="M 8.6875 72.90625 
L 18.609375 72.90625 
L 18.609375 28.609375 
Q 18.609375 16.890625 22.84375 11.734375 
Q 27.09375 6.59375 36.625 6.59375 
Q 46.09375 6.59375 50.34375 11.734375 
Q 54.59375 16.890625 54.59375 28.609375 
L 54.59375 72.90625 
L 64.5 72.90625 
L 64.5 27.390625 
Q 64.5 13.140625 57.4375 5.859375 
Q 50.390625 -1.421875 36.625 -1.421875 
Q 22.796875 -1.421875 15.734375 5.859375 
Q 8.6875 13.140625 8.6875 27.390625 
z
" id="DejaVuSans-85"/>
      <path d="M 54.890625 33.015625 
L 54.890625 0 
L 45.90625 0 
L 45.90625 32.71875 
Q 45.90625 40.484375 42.875 44.328125 
Q 39.84375 48.1875 33.796875 48.1875 
Q 26.515625 48.1875 22.3125 43.546875 
Q 18.109375 38.921875 18.109375 30.90625 
L 18.109375 0 
L 9.078125 0 
L 9.078125 54.6875 
L 18.109375 54.6875 
L 18.109375 46.1875 
Q 21.34375 51.125 25.703125 53.5625 
Q 30.078125 56 35.796875 56 
Q 45.21875 56 50.046875 50.171875 
Q 54.890625 44.34375 54.890625 33.015625 
z
" id="DejaVuSans-110"/>
      <path d="M 9.078125 75.984375 
L 18.109375 75.984375 
L 18.109375 31.109375 
L 44.921875 54.6875 
L 56.390625 54.6875 
L 27.390625 29.109375 
L 57.625 0 
L 45.90625 0 
L 18.109375 26.703125 
L 18.109375 0 
L 9.078125 0 
z
" id="DejaVuSans-107"/>
      <path d="M 30.609375 48.390625 
Q 23.390625 48.390625 19.1875 42.75 
Q 14.984375 37.109375 14.984375 27.296875 
Q 14.984375 17.484375 19.15625 11.84375 
Q 23.34375 6.203125 30.609375 6.203125 
Q 37.796875 6.203125 41.984375 11.859375 
Q 46.1875 17.53125 46.1875 27.296875 
Q 46.1875 37.015625 41.984375 42.703125 
Q 37.796875 48.390625 30.609375 48.390625 
z
M 30.609375 56 
Q 42.328125 56 49.015625 48.375 
Q 55.71875 40.765625 55.71875 27.296875 
Q 55.71875 13.875 49.015625 6.21875 
Q 42.328125 -1.421875 30.609375 -1.421875 
Q 18.84375 -1.421875 12.171875 6.21875 
Q 5.515625 13.875 5.515625 27.296875 
Q 5.515625 40.765625 12.171875 48.375 
Q 18.84375 56 30.609375 56 
z
" id="DejaVuSans-111"/>
      <path d="M 4.203125 54.6875 
L 13.1875 54.6875 
L 24.421875 12.015625 
L 35.59375 54.6875 
L 46.1875 54.6875 
L 57.421875 12.015625 
L 68.609375 54.6875 
L 77.59375 54.6875 
L 63.28125 0 
L 52.6875 0 
L 40.921875 44.828125 
L 29.109375 0 
L 18.5 0 
z
" id="DejaVuSans-119"/>
      <path id="DejaVuSans-32"/>
      <path d="M 52 44.1875 
Q 55.375 50.25 60.0625 53.125 
Q 64.75 56 71.09375 56 
Q 79.640625 56 84.28125 50.015625 
Q 88.921875 44.046875 88.921875 33.015625 
L 88.921875 0 
L 79.890625 0 
L 79.890625 32.71875 
Q 79.890625 40.578125 77.09375 44.375 
Q 74.3125 48.1875 68.609375 48.1875 
Q 61.625 48.1875 57.5625 43.546875 
Q 53.515625 38.921875 53.515625 30.90625 
L 53.515625 0 
L 44.484375 0 
L 44.484375 32.71875 
Q 44.484375 40.625 41.703125 44.40625 
Q 38.921875 48.1875 33.109375 48.1875 
Q 26.21875 48.1875 22.15625 43.53125 
Q 18.109375 38.875 18.109375 30.90625 
L 18.109375 0 
L 9.078125 0 
L 9.078125 54.6875 
L 18.109375 54.6875 
L 18.109375 46.1875 
Q 21.1875 51.21875 25.484375 53.609375 
Q 29.78125 56 35.6875 56 
Q 41.65625 56 45.828125 52.96875 
Q 50 49.953125 52 44.1875 
z
" id="DejaVuSans-109"/>
      <path d="M 45.40625 46.390625 
L 45.40625 75.984375 
L 54.390625 75.984375 
L 54.390625 0 
L 45.40625 0 
L 45.40625 8.203125 
Q 42.578125 3.328125 38.25 0.953125 
Q 33.9375 -1.421875 27.875 -1.421875 
Q 17.96875 -1.421875 11.734375 6.484375 
Q 5.515625 14.40625 5.515625 27.296875 
Q 5.515625 40.1875 11.734375 48.09375 
Q 17.96875 56 27.875 56 
Q 33.9375 56 38.25 53.625 
Q 42.578125 51.265625 45.40625 46.390625 
z
M 14.796875 27.296875 
Q 14.796875 17.390625 18.875 11.75 
Q 22.953125 6.109375 30.078125 6.109375 
Q 37.203125 6.109375 41.296875 11.75 
Q 45.40625 17.390625 45.40625 27.296875 
Q 45.40625 37.203125 41.296875 42.84375 
Q 37.203125 48.484375 30.078125 48.484375 
Q 22.953125 48.484375 18.875 42.84375 
Q 14.796875 37.203125 14.796875 27.296875 
z
" id="DejaVuSans-100"/>
      <path d="M 56.203125 29.59375 
L 56.203125 25.203125 
L 14.890625 25.203125 
Q 15.484375 15.921875 20.484375 11.0625 
Q 25.484375 6.203125 34.421875 6.203125 
Q 39.59375 6.203125 44.453125 7.46875 
Q 49.3125 8.734375 54.109375 11.28125 
L 54.109375 2.78125 
Q 49.265625 0.734375 44.1875 -0.34375 
Q 39.109375 -1.421875 33.890625 -1.421875 
Q 20.796875 -1.421875 13.15625 6.1875 
Q 5.515625 13.8125 5.515625 26.8125 
Q 5.515625 40.234375 12.765625 48.109375 
Q 20.015625 56 32.328125 56 
Q 43.359375 56 49.78125 48.890625 
Q 56.203125 41.796875 56.203125 29.59375 
z
M 47.21875 32.234375 
Q 47.125 39.59375 43.09375 43.984375 
Q 39.0625 48.390625 32.421875 48.390625 
Q 24.90625 48.390625 20.390625 44.140625 
Q 15.875 39.890625 15.1875 32.171875 
z
" id="DejaVuSans-101"/>
     </defs>
     <use xlink:href="#DejaVuSans-85"/>
     <use x="73.193359" xlink:href="#DejaVuSans-110"/>
     <use x="136.572266" xlink:href="#DejaVuSans-107"/>
     <use x="194.482422" xlink:href="#DejaVuSans-110"/>
     <use x="257.861328" xlink:href="#DejaVuSans-111"/>
     <use x="319.042969" xlink:href="#DejaVuSans-119"/>
     <use x="400.830078" xlink:href="#DejaVuSans-110"/>
     <use x="464.208984" xlink:href="#DejaVuSans-32"/>
     <use x="495.996094" xlink:href="#DejaVuSans-109"/>
     <use x="593.408203" xlink:href="#DejaVuSans-111"/>
     <use x="654.589844" xlink:href="#DejaVuSans-100"/>
     <use x="718.066406" xlink:href="#DejaVuSans-101"/>
    </g>
   </g>
  </g>
 </g>
 <defs>
  <clipPath id="p6349ec2d3e">
   <rect height="217.44" width="334.8" x="63.932812" y="22.318125"/>
  </clipPath>
 </defs>
</svg>
