<?xml version="1.0" encoding="utf-8" standalone="no"?>
<!DOCTYPE svg PUBLIC "-//W3C//DTD SVG 1.1//EN"
  "http://www.w3.org/Graphics/SVG/1.1/DTD/svg11.dtd">
<!-- Created with matplotlib (https://matplotlib.org/) -->
<svg height="263.63625pt" version="1.1" viewBox="0 0 405.932812 263.63625" width="405.932812pt" xmlns="http://www.w3.org/2000/svg" xmlns:xlink="http://www.w3.org/1999/xlink">
 <metadata>
  <rdf:RDF xmlns:cc="http://creativecommons.org/ns#" xmlns:dc="http://purl.org/dc/elements/1.1/" xmlns:rdf="http://www.w3.org/1999/02/22-rdf-syntax-ns#">
   <cc:Work>
    <dc:type rdf:resource="http://purl.org/dc/dcmitype/StillImage"/>
    <dc:date>2021-10-05T17:10:09.010039</dc:date>
    <dc:format>image/svg+xml</dc:format>
    <dc:creator>
     <cc:Agent>
      <dc:title>Matplotlib v3.3.4, https://matplotlib.org/</dc:title>
     </cc:Agent>
    </dc:creator>
   </cc:Work>
  </rdf:RDF>
 </metadata>
 <defs>
  <style type="text/css">*{stroke-linecap:butt;stroke-linejoin:round;}</style>
 </defs>
 <g id="figure_1">
  <g id="patch_1">
   <path d="M 0 263.63625 
L 405.932812 263.63625 
L 405.932812 0 
L 0 0 
z
" style="fill:none;"/>
  </g>
  <g id="axes_1">
   <g id="patch_2">
    <path d="M 63.932812 239.758125 
L 398.732813 239.758125 
L 398.732813 22.318125 
L 63.932812 22.318125 
z
" style="fill:#ffffff;"/>
   </g>
   <g id="matplotlib.axis_1">
    <g id="xtick_1">
     <g id="line2d_1">
      <path clip-path="url(#p5c334c8ee2)" d="M 79.150994 239.758125 
L 79.150994 22.318125 
" style="fill:none;stroke:#b0b0b0;stroke-linecap:square;stroke-width:0.8;"/>
     </g>
     <g id="line2d_2">
      <defs>
       <path d="M 0 0 
L 0 3.5 
" id="m301fa5f422" style="stroke:#000000;stroke-width:0.8;"/>
      </defs>
      <g>
       <use style="stroke:#000000;stroke-width:0.8;" x="79.150994" xlink:href="#m301fa5f422" y="239.758125"/>
      </g>
     </g>
     <g id="text_1">
      <!-- 0.0 -->
      <g transform="translate(71.199432 254.356563)scale(0.1 -0.1)">
       <defs>
        <path d="M 31.78125 66.40625 
Q 24.171875 66.40625 20.328125 58.90625 
Q 16.5 51.421875 16.5 36.375 
Q 16.5 21.390625 20.328125 13.890625 
Q 24.171875 6.390625 31.78125 6.390625 
Q 39.453125 6.390625 43.28125 13.890625 
Q 47.125 21.390625 47.125 36.375 
Q 47.125 51.421875 43.28125 58.90625 
Q 39.453125 66.40625 31.78125 66.40625 
z
M 31.78125 74.21875 
Q 44.046875 74.21875 50.515625 64.515625 
Q 56.984375 54.828125 56.984375 36.375 
Q 56.984375 17.96875 50.515625 8.265625 
Q 44.046875 -1.421875 31.78125 -1.421875 
Q 19.53125 -1.421875 13.0625 8.265625 
Q 6.59375 17.96875 6.59375 36.375 
Q 6.59375 54.828125 13.0625 64.515625 
Q 19.53125 74.21875 31.78125 74.21875 
z
" id="DejaVuSans-48"/>
        <path d="M 10.6875 12.40625 
L 21 12.40625 
L 21 0 
L 10.6875 0 
z
" id="DejaVuSans-46"/>
       </defs>
       <use xlink:href="#DejaVuSans-48"/>
       <use x="63.623047" xlink:href="#DejaVuSans-46"/>
       <use x="95.410156" xlink:href="#DejaVuSans-48"/>
      </g>
     </g>
    </g>
    <g id="xtick_2">
     <g id="line2d_3">
      <path clip-path="url(#p5c334c8ee2)" d="M 117.196449 239.758125 
L 117.196449 22.318125 
" style="fill:none;stroke:#b0b0b0;stroke-linecap:square;stroke-width:0.8;"/>
     </g>
     <g id="line2d_4">
      <g>
       <use style="stroke:#000000;stroke-width:0.8;" x="117.196449" xlink:href="#m301fa5f422" y="239.758125"/>
      </g>
     </g>
     <g id="text_2">
      <!-- 2.5 -->
      <g transform="translate(109.244886 254.356563)scale(0.1 -0.1)">
       <defs>
        <path d="M 19.1875 8.296875 
L 53.609375 8.296875 
L 53.609375 0 
L 7.328125 0 
L 7.328125 8.296875 
Q 12.9375 14.109375 22.625 23.890625 
Q 32.328125 33.6875 34.8125 36.53125 
Q 39.546875 41.84375 41.421875 45.53125 
Q 43.3125 49.21875 43.3125 52.78125 
Q 43.3125 58.59375 39.234375 62.25 
Q 35.15625 65.921875 28.609375 65.921875 
Q 23.96875 65.921875 18.8125 64.3125 
Q 13.671875 62.703125 7.8125 59.421875 
L 7.8125 69.390625 
Q 13.765625 71.78125 18.9375 73 
Q 24.125 74.21875 28.421875 74.21875 
Q 39.75 74.21875 46.484375 68.546875 
Q 53.21875 62.890625 53.21875 53.421875 
Q 53.21875 48.921875 51.53125 44.890625 
Q 49.859375 40.875 45.40625 35.40625 
Q 44.1875 33.984375 37.640625 27.21875 
Q 31.109375 20.453125 19.1875 8.296875 
z
" id="DejaVuSans-50"/>
        <path d="M 10.796875 72.90625 
L 49.515625 72.90625 
L 49.515625 64.59375 
L 19.828125 64.59375 
L 19.828125 46.734375 
Q 21.96875 47.46875 24.109375 47.828125 
Q 26.265625 48.1875 28.421875 48.1875 
Q 40.625 48.1875 47.75 41.5 
Q 54.890625 34.8125 54.890625 23.390625 
Q 54.890625 11.625 47.5625 5.09375 
Q 40.234375 -1.421875 26.90625 -1.421875 
Q 22.3125 -1.421875 17.546875 -0.640625 
Q 12.796875 0.140625 7.71875 1.703125 
L 7.71875 11.625 
Q 12.109375 9.234375 16.796875 8.0625 
Q 21.484375 6.890625 26.703125 6.890625 
Q 35.15625 6.890625 40.078125 11.328125 
Q 45.015625 15.765625 45.015625 23.390625 
Q 45.015625 31 40.078125 35.4375 
Q 35.15625 39.890625 26.703125 39.890625 
Q 22.75 39.890625 18.8125 39.015625 
Q 14.890625 38.140625 10.796875 36.28125 
z
" id="DejaVuSans-53"/>
       </defs>
       <use xlink:href="#DejaVuSans-50"/>
       <use x="63.623047" xlink:href="#DejaVuSans-46"/>
       <use x="95.410156" xlink:href="#DejaVuSans-53"/>
      </g>
     </g>
    </g>
    <g id="xtick_3">
     <g id="line2d_5">
      <path clip-path="url(#p5c334c8ee2)" d="M 155.241903 239.758125 
L 155.241903 22.318125 
" style="fill:none;stroke:#b0b0b0;stroke-linecap:square;stroke-width:0.8;"/>
     </g>
     <g id="line2d_6">
      <g>
       <use style="stroke:#000000;stroke-width:0.8;" x="155.241903" xlink:href="#m301fa5f422" y="239.758125"/>
      </g>
     </g>
     <g id="text_3">
      <!-- 5.0 -->
      <g transform="translate(147.290341 254.356563)scale(0.1 -0.1)">
       <use xlink:href="#DejaVuSans-53"/>
       <use x="63.623047" xlink:href="#DejaVuSans-46"/>
       <use x="95.410156" xlink:href="#DejaVuSans-48"/>
      </g>
     </g>
    </g>
    <g id="xtick_4">
     <g id="line2d_7">
      <path clip-path="url(#p5c334c8ee2)" d="M 193.287358 239.758125 
L 193.287358 22.318125 
" style="fill:none;stroke:#b0b0b0;stroke-linecap:square;stroke-width:0.8;"/>
     </g>
     <g id="line2d_8">
      <g>
       <use style="stroke:#000000;stroke-width:0.8;" x="193.287358" xlink:href="#m301fa5f422" y="239.758125"/>
      </g>
     </g>
     <g id="text_4">
      <!-- 7.5 -->
      <g transform="translate(185.335795 254.356563)scale(0.1 -0.1)">
       <defs>
        <path d="M 8.203125 72.90625 
L 55.078125 72.90625 
L 55.078125 68.703125 
L 28.609375 0 
L 18.3125 0 
L 43.21875 64.59375 
L 8.203125 64.59375 
z
" id="DejaVuSans-55"/>
       </defs>
       <use xlink:href="#DejaVuSans-55"/>
       <use x="63.623047" xlink:href="#DejaVuSans-46"/>
       <use x="95.410156" xlink:href="#DejaVuSans-53"/>
      </g>
     </g>
    </g>
    <g id="xtick_5">
     <g id="line2d_9">
      <path clip-path="url(#p5c334c8ee2)" d="M 231.332812 239.758125 
L 231.332812 22.318125 
" style="fill:none;stroke:#b0b0b0;stroke-linecap:square;stroke-width:0.8;"/>
     </g>
     <g id="line2d_10">
      <g>
       <use style="stroke:#000000;stroke-width:0.8;" x="231.332812" xlink:href="#m301fa5f422" y="239.758125"/>
      </g>
     </g>
     <g id="text_5">
      <!-- 10.0 -->
      <g transform="translate(220.2 254.356563)scale(0.1 -0.1)">
       <defs>
        <path d="M 12.40625 8.296875 
L 28.515625 8.296875 
L 28.515625 63.921875 
L 10.984375 60.40625 
L 10.984375 69.390625 
L 28.421875 72.90625 
L 38.28125 72.90625 
L 38.28125 8.296875 
L 54.390625 8.296875 
L 54.390625 0 
L 12.40625 0 
z
" id="DejaVuSans-49"/>
       </defs>
       <use xlink:href="#DejaVuSans-49"/>
       <use x="63.623047" xlink:href="#DejaVuSans-48"/>
       <use x="127.246094" xlink:href="#DejaVuSans-46"/>
       <use x="159.033203" xlink:href="#DejaVuSans-48"/>
      </g>
     </g>
    </g>
    <g id="xtick_6">
     <g id="line2d_11">
      <path clip-path="url(#p5c334c8ee2)" d="M 269.378267 239.758125 
L 269.378267 22.318125 
" style="fill:none;stroke:#b0b0b0;stroke-linecap:square;stroke-width:0.8;"/>
     </g>
     <g id="line2d_12">
      <g>
       <use style="stroke:#000000;stroke-width:0.8;" x="269.378267" xlink:href="#m301fa5f422" y="239.758125"/>
      </g>
     </g>
     <g id="text_6">
      <!-- 12.5 -->
      <g transform="translate(258.245455 254.356563)scale(0.1 -0.1)">
       <use xlink:href="#DejaVuSans-49"/>
       <use x="63.623047" xlink:href="#DejaVuSans-50"/>
       <use x="127.246094" xlink:href="#DejaVuSans-46"/>
       <use x="159.033203" xlink:href="#DejaVuSans-53"/>
      </g>
     </g>
    </g>
    <g id="xtick_7">
     <g id="line2d_13">
      <path clip-path="url(#p5c334c8ee2)" d="M 307.423722 239.758125 
L 307.423722 22.318125 
" style="fill:none;stroke:#b0b0b0;stroke-linecap:square;stroke-width:0.8;"/>
     </g>
     <g id="line2d_14">
      <g>
       <use style="stroke:#000000;stroke-width:0.8;" x="307.423722" xlink:href="#m301fa5f422" y="239.758125"/>
      </g>
     </g>
     <g id="text_7">
      <!-- 15.0 -->
      <g transform="translate(296.290909 254.356563)scale(0.1 -0.1)">
       <use xlink:href="#DejaVuSans-49"/>
       <use x="63.623047" xlink:href="#DejaVuSans-53"/>
       <use x="127.246094" xlink:href="#DejaVuSans-46"/>
       <use x="159.033203" xlink:href="#DejaVuSans-48"/>
      </g>
     </g>
    </g>
    <g id="xtick_8">
     <g id="line2d_15">
      <path clip-path="url(#p5c334c8ee2)" d="M 345.469176 239.758125 
L 345.469176 22.318125 
" style="fill:none;stroke:#b0b0b0;stroke-linecap:square;stroke-width:0.8;"/>
     </g>
     <g id="line2d_16">
      <g>
       <use style="stroke:#000000;stroke-width:0.8;" x="345.469176" xlink:href="#m301fa5f422" y="239.758125"/>
      </g>
     </g>
     <g id="text_8">
      <!-- 17.5 -->
      <g transform="translate(334.336364 254.356563)scale(0.1 -0.1)">
       <use xlink:href="#DejaVuSans-49"/>
       <use x="63.623047" xlink:href="#DejaVuSans-55"/>
       <use x="127.246094" xlink:href="#DejaVuSans-46"/>
       <use x="159.033203" xlink:href="#DejaVuSans-53"/>
      </g>
     </g>
    </g>
    <g id="xtick_9">
     <g id="line2d_17">
      <path clip-path="url(#p5c334c8ee2)" d="M 383.514631 239.758125 
L 383.514631 22.318125 
" style="fill:none;stroke:#b0b0b0;stroke-linecap:square;stroke-width:0.8;"/>
     </g>
     <g id="line2d_18">
      <g>
       <use style="stroke:#000000;stroke-width:0.8;" x="383.514631" xlink:href="#m301fa5f422" y="239.758125"/>
      </g>
     </g>
     <g id="text_9">
      <!-- 20.0 -->
      <g transform="translate(372.381818 254.356563)scale(0.1 -0.1)">
       <use xlink:href="#DejaVuSans-50"/>
       <use x="63.623047" xlink:href="#DejaVuSans-48"/>
       <use x="127.246094" xlink:href="#DejaVuSans-46"/>
       <use x="159.033203" xlink:href="#DejaVuSans-48"/>
      </g>
     </g>
    </g>
   </g>
   <g id="matplotlib.axis_2">
    <g id="ytick_1">
     <g id="line2d_19">
      <path clip-path="url(#p5c334c8ee2)" d="M 63.932812 230.194102 
L 398.732813 230.194102 
" style="fill:none;stroke:#b0b0b0;stroke-linecap:square;stroke-width:0.8;"/>
     </g>
     <g id="line2d_20">
      <defs>
       <path d="M 0 0 
L -3.5 0 
" id="m4ce41d3f02" style="stroke:#000000;stroke-width:0.8;"/>
      </defs>
      <g>
       <use style="stroke:#000000;stroke-width:0.8;" x="63.932812" xlink:href="#m4ce41d3f02" y="230.194102"/>
      </g>
     </g>
     <g id="text_10">
      <!-- −0.00100 -->
      <g transform="translate(7.2 233.993321)scale(0.1 -0.1)">
       <defs>
        <path d="M 10.59375 35.5 
L 73.1875 35.5 
L 73.1875 27.203125 
L 10.59375 27.203125 
z
" id="DejaVuSans-8722"/>
       </defs>
       <use xlink:href="#DejaVuSans-8722"/>
       <use x="83.789062" xlink:href="#DejaVuSans-48"/>
       <use x="147.412109" xlink:href="#DejaVuSans-46"/>
       <use x="179.199219" xlink:href="#DejaVuSans-48"/>
       <use x="242.822266" xlink:href="#DejaVuSans-48"/>
       <use x="306.445312" xlink:href="#DejaVuSans-49"/>
       <use x="370.068359" xlink:href="#DejaVuSans-48"/>
       <use x="433.691406" xlink:href="#DejaVuSans-48"/>
      </g>
     </g>
    </g>
    <g id="ytick_2">
     <g id="line2d_21">
      <path clip-path="url(#p5c334c8ee2)" d="M 63.932812 205.44506 
L 398.732813 205.44506 
" style="fill:none;stroke:#b0b0b0;stroke-linecap:square;stroke-width:0.8;"/>
     </g>
     <g id="line2d_22">
      <g>
       <use style="stroke:#000000;stroke-width:0.8;" x="63.932812" xlink:href="#m4ce41d3f02" y="205.44506"/>
      </g>
     </g>
     <g id="text_11">
      <!-- −0.00075 -->
      <g transform="translate(7.2 209.244278)scale(0.1 -0.1)">
       <use xlink:href="#DejaVuSans-8722"/>
       <use x="83.789062" xlink:href="#DejaVuSans-48"/>
       <use x="147.412109" xlink:href="#DejaVuSans-46"/>
       <use x="179.199219" xlink:href="#DejaVuSans-48"/>
       <use x="242.822266" xlink:href="#DejaVuSans-48"/>
       <use x="306.445312" xlink:href="#DejaVuSans-48"/>
       <use x="370.068359" xlink:href="#DejaVuSans-55"/>
       <use x="433.691406" xlink:href="#DejaVuSans-53"/>
      </g>
     </g>
    </g>
    <g id="ytick_3">
     <g id="line2d_23">
      <path clip-path="url(#p5c334c8ee2)" d="M 63.932812 180.696017 
L 398.732813 180.696017 
" style="fill:none;stroke:#b0b0b0;stroke-linecap:square;stroke-width:0.8;"/>
     </g>
     <g id="line2d_24">
      <g>
       <use style="stroke:#000000;stroke-width:0.8;" x="63.932812" xlink:href="#m4ce41d3f02" y="180.696017"/>
      </g>
     </g>
     <g id="text_12">
      <!-- −0.00050 -->
      <g transform="translate(7.2 184.495236)scale(0.1 -0.1)">
       <use xlink:href="#DejaVuSans-8722"/>
       <use x="83.789062" xlink:href="#DejaVuSans-48"/>
       <use x="147.412109" xlink:href="#DejaVuSans-46"/>
       <use x="179.199219" xlink:href="#DejaVuSans-48"/>
       <use x="242.822266" xlink:href="#DejaVuSans-48"/>
       <use x="306.445312" xlink:href="#DejaVuSans-48"/>
       <use x="370.068359" xlink:href="#DejaVuSans-53"/>
       <use x="433.691406" xlink:href="#DejaVuSans-48"/>
      </g>
     </g>
    </g>
    <g id="ytick_4">
     <g id="line2d_25">
      <path clip-path="url(#p5c334c8ee2)" d="M 63.932812 155.946974 
L 398.732813 155.946974 
" style="fill:none;stroke:#b0b0b0;stroke-linecap:square;stroke-width:0.8;"/>
     </g>
     <g id="line2d_26">
      <g>
       <use style="stroke:#000000;stroke-width:0.8;" x="63.932812" xlink:href="#m4ce41d3f02" y="155.946974"/>
      </g>
     </g>
     <g id="text_13">
      <!-- −0.00025 -->
      <g transform="translate(7.2 159.746193)scale(0.1 -0.1)">
       <use xlink:href="#DejaVuSans-8722"/>
       <use x="83.789062" xlink:href="#DejaVuSans-48"/>
       <use x="147.412109" xlink:href="#DejaVuSans-46"/>
       <use x="179.199219" xlink:href="#DejaVuSans-48"/>
       <use x="242.822266" xlink:href="#DejaVuSans-48"/>
       <use x="306.445312" xlink:href="#DejaVuSans-48"/>
       <use x="370.068359" xlink:href="#DejaVuSans-50"/>
       <use x="433.691406" xlink:href="#DejaVuSans-53"/>
      </g>
     </g>
    </g>
    <g id="ytick_5">
     <g id="line2d_27">
      <path clip-path="url(#p5c334c8ee2)" d="M 63.932812 131.197932 
L 398.732813 131.197932 
" style="fill:none;stroke:#b0b0b0;stroke-linecap:square;stroke-width:0.8;"/>
     </g>
     <g id="line2d_28">
      <g>
       <use style="stroke:#000000;stroke-width:0.8;" x="63.932812" xlink:href="#m4ce41d3f02" y="131.197932"/>
      </g>
     </g>
     <g id="text_14">
      <!-- 0.00000 -->
      <g transform="translate(15.579687 134.997151)scale(0.1 -0.1)">
       <use xlink:href="#DejaVuSans-48"/>
       <use x="63.623047" xlink:href="#DejaVuSans-46"/>
       <use x="95.410156" xlink:href="#DejaVuSans-48"/>
       <use x="159.033203" xlink:href="#DejaVuSans-48"/>
       <use x="222.65625" xlink:href="#DejaVuSans-48"/>
       <use x="286.279297" xlink:href="#DejaVuSans-48"/>
       <use x="349.902344" xlink:href="#DejaVuSans-48"/>
      </g>
     </g>
    </g>
    <g id="ytick_6">
     <g id="line2d_29">
      <path clip-path="url(#p5c334c8ee2)" d="M 63.932812 106.448889 
L 398.732813 106.448889 
" style="fill:none;stroke:#b0b0b0;stroke-linecap:square;stroke-width:0.8;"/>
     </g>
     <g id="line2d_30">
      <g>
       <use style="stroke:#000000;stroke-width:0.8;" x="63.932812" xlink:href="#m4ce41d3f02" y="106.448889"/>
      </g>
     </g>
     <g id="text_15">
      <!-- 0.00025 -->
      <g transform="translate(15.579687 110.248108)scale(0.1 -0.1)">
       <use xlink:href="#DejaVuSans-48"/>
       <use x="63.623047" xlink:href="#DejaVuSans-46"/>
       <use x="95.410156" xlink:href="#DejaVuSans-48"/>
       <use x="159.033203" xlink:href="#DejaVuSans-48"/>
       <use x="222.65625" xlink:href="#DejaVuSans-48"/>
       <use x="286.279297" xlink:href="#DejaVuSans-50"/>
       <use x="349.902344" xlink:href="#DejaVuSans-53"/>
      </g>
     </g>
    </g>
    <g id="ytick_7">
     <g id="line2d_31">
      <path clip-path="url(#p5c334c8ee2)" d="M 63.932812 81.699847 
L 398.732813 81.699847 
" style="fill:none;stroke:#b0b0b0;stroke-linecap:square;stroke-width:0.8;"/>
     </g>
     <g id="line2d_32">
      <g>
       <use style="stroke:#000000;stroke-width:0.8;" x="63.932812" xlink:href="#m4ce41d3f02" y="81.699847"/>
      </g>
     </g>
     <g id="text_16">
      <!-- 0.00050 -->
      <g transform="translate(15.579687 85.499065)scale(0.1 -0.1)">
       <use xlink:href="#DejaVuSans-48"/>
       <use x="63.623047" xlink:href="#DejaVuSans-46"/>
       <use x="95.410156" xlink:href="#DejaVuSans-48"/>
       <use x="159.033203" xlink:href="#DejaVuSans-48"/>
       <use x="222.65625" xlink:href="#DejaVuSans-48"/>
       <use x="286.279297" xlink:href="#DejaVuSans-53"/>
       <use x="349.902344" xlink:href="#DejaVuSans-48"/>
      </g>
     </g>
    </g>
    <g id="ytick_8">
     <g id="line2d_33">
      <path clip-path="url(#p5c334c8ee2)" d="M 63.932812 56.950804 
L 398.732813 56.950804 
" style="fill:none;stroke:#b0b0b0;stroke-linecap:square;stroke-width:0.8;"/>
     </g>
     <g id="line2d_34">
      <g>
       <use style="stroke:#000000;stroke-width:0.8;" x="63.932812" xlink:href="#m4ce41d3f02" y="56.950804"/>
      </g>
     </g>
     <g id="text_17">
      <!-- 0.00075 -->
      <g transform="translate(15.579687 60.750023)scale(0.1 -0.1)">
       <use xlink:href="#DejaVuSans-48"/>
       <use x="63.623047" xlink:href="#DejaVuSans-46"/>
       <use x="95.410156" xlink:href="#DejaVuSans-48"/>
       <use x="159.033203" xlink:href="#DejaVuSans-48"/>
       <use x="222.65625" xlink:href="#DejaVuSans-48"/>
       <use x="286.279297" xlink:href="#DejaVuSans-55"/>
       <use x="349.902344" xlink:href="#DejaVuSans-53"/>
      </g>
     </g>
    </g>
    <g id="ytick_9">
     <g id="line2d_35">
      <path clip-path="url(#p5c334c8ee2)" d="M 63.932812 32.201761 
L 398.732813 32.201761 
" style="fill:none;stroke:#b0b0b0;stroke-linecap:square;stroke-width:0.8;"/>
     </g>
     <g id="line2d_36">
      <g>
       <use style="stroke:#000000;stroke-width:0.8;" x="63.932812" xlink:href="#m4ce41d3f02" y="32.201761"/>
      </g>
     </g>
     <g id="text_18">
      <!-- 0.00100 -->
      <g transform="translate(15.579687 36.00098)scale(0.1 -0.1)">
       <use xlink:href="#DejaVuSans-48"/>
       <use x="63.623047" xlink:href="#DejaVuSans-46"/>
       <use x="95.410156" xlink:href="#DejaVuSans-48"/>
       <use x="159.033203" xlink:href="#DejaVuSans-48"/>
       <use x="222.65625" xlink:href="#DejaVuSans-49"/>
       <use x="286.279297" xlink:href="#DejaVuSans-48"/>
       <use x="349.902344" xlink:href="#DejaVuSans-48"/>
      </g>
     </g>
    </g>
   </g>
   <g id="line2d_37">
    <path clip-path="url(#p5c334c8ee2)" d="M 79.150994 32.201761 
L 79.455663 32.30092 
L 79.760331 32.598152 
L 80.369668 33.7833 
L 80.979004 35.745626 
L 81.588341 38.465384 
L 82.502346 43.903967 
L 83.416351 50.862562 
L 84.635024 62.231979 
L 86.158365 79.160468 
L 88.291043 106.052589 
L 91.947063 152.451543 
L 93.470405 168.907475 
L 94.689078 179.930775 
L 95.603083 186.725341 
L 96.517088 192.143915 
L 97.431093 196.123264 
L 98.040429 197.962106 
L 98.649766 199.150257 
L 99.259102 199.696316 
L 99.563771 199.733158 
L 99.868439 199.615861 
L 100.477776 198.931283 
L 101.087112 197.67122 
L 101.696449 195.870543 
L 102.610454 192.244967 
L 103.524459 187.64993 
L 104.743132 180.320937 
L 106.571142 167.686218 
L 109.922493 144.253527 
L 111.141166 137.076742 
L 112.35984 131.170965 
L 113.273844 127.720324 
L 114.187849 125.182197 
L 114.797186 124.014015 
L 115.406523 123.267378 
L 116.015859 122.937274 
L 116.625196 123.012359 
L 117.234532 123.475154 
L 117.843869 124.302432 
L 118.453206 125.465439 
L 119.367211 127.764355 
L 120.585884 131.652686 
L 122.413894 138.491945 
L 124.546572 146.345136 
L 125.765245 149.965764 
L 126.67925 151.97459 
L 127.288586 152.899155 
L 127.897923 153.450112 
L 128.50726 153.597011 
L 129.116596 153.314863 
L 129.725933 152.584414 
L 130.33527 151.39259 
L 130.944606 149.732601 
L 131.858611 146.36621 
L 132.772616 141.974858 
L 133.991289 134.634117 
L 135.209962 125.813022 
L 137.037972 110.533914 
L 141.607997 70.785463 
L 142.82667 62.28929 
L 143.740675 57.081212 
L 144.65468 53.063834 
L 145.264016 51.120863 
L 145.873353 49.809591 
L 146.48269 49.160271 
L 146.787358 49.091515 
L 147.092026 49.196542 
L 147.396695 49.477232 
L 148.006031 50.570653 
L 148.615368 52.377309 
L 149.224704 54.895165 
L 150.138709 59.982427 
L 151.052714 66.582264 
L 152.271387 77.554545 
L 153.490061 90.695339 
L 155.013402 109.502563 
L 157.755417 146.845248 
L 160.192763 179.13892 
L 161.716105 196.675705 
L 162.934778 208.399305 
L 163.848783 215.563314 
L 164.762788 221.171885 
L 165.372125 223.993263 
L 165.981461 226.053872 
L 166.590798 227.339493 
L 166.895466 227.689407 
L 167.200134 227.843812 
L 167.504803 227.803159 
L 167.809471 227.568377 
L 168.418808 226.522577 
L 169.028144 224.723513 
L 169.637481 222.195689 
L 170.551486 217.109044 
L 171.465491 210.591194 
L 172.684164 199.965079 
L 174.207505 184.235797 
L 176.644852 155.89356 
L 179.386867 124.295911 
L 180.910208 108.991966 
L 182.128881 98.638454 
L 183.347555 90.305785 
L 184.261559 85.509826 
L 185.175564 82.013704 
L 185.784901 80.411441 
L 186.394238 79.386236 
L 187.003574 78.925491 
L 187.308242 78.901005 
L 187.612911 79.00997 
L 188.222247 79.614387 
L 188.831584 80.707413 
L 189.440921 82.252646 
L 190.354926 85.326647 
L 191.573599 90.588357 
L 193.09694 98.444988 
L 197.057628 119.585333 
L 198.276301 124.687954 
L 199.190306 127.715152 
L 200.104311 129.950219 
L 200.713648 130.967174 
L 201.322984 131.591418 
L 201.932321 131.817865 
L 202.541658 131.647754 
L 203.150994 131.08863 
L 203.760331 130.15425 
L 204.369668 128.864493 
L 205.283672 126.320766 
L 206.502346 121.967755 
L 208.025687 115.445211 
L 211.377039 100.522415 
L 212.595712 96.233896 
L 213.509717 93.818084 
L 214.119053 92.672509 
L 214.72839 91.944525 
L 215.337727 91.667934 
L 215.642395 91.707969 
L 216.251731 92.15987 
L 216.861068 93.123153 
L 217.470405 94.611096 
L 218.079741 96.630423 
L 218.993746 100.653726 
L 219.907751 105.84181 
L 221.126424 114.456422 
L 222.345098 124.782365 
L 223.868439 139.571613 
L 227.21979 175.288164 
L 229.0478 193.532897 
L 230.266473 204.02924 
L 231.485147 212.615299 
L 232.399152 217.543927 
L 233.008488 220.025776 
L 233.617825 221.821718 
L 234.227161 222.902503 
L 234.53183 223.16752 
L 234.836498 223.246023 
L 235.141166 223.136431 
L 235.445835 222.837577 
L 236.055171 221.670073 
L 236.664508 219.744129 
L 237.273844 217.068179 
L 238.187849 211.685576 
L 239.101854 204.740405 
L 240.320527 193.267544 
L 241.539201 179.624241 
L 243.367211 156.149921 
L 248.85124 82.446461 
L 250.374582 66.221409 
L 251.593255 55.835707 
L 252.50726 49.784938 
L 253.421265 45.336395 
L 254.030601 43.292071 
L 254.639938 41.995533 
L 254.944606 41.628118 
L 255.249274 41.447211 
L 255.553943 41.451663 
L 255.858611 41.639848 
L 256.163279 42.009674 
L 256.772616 43.283619 
L 257.381953 45.247841 
L 257.991289 47.869855 
L 258.905294 52.949474 
L 259.819299 59.264514 
L 261.037972 69.290335 
L 262.561314 83.714673 
L 268.045343 137.690139 
L 269.264016 147.109904 
L 270.48269 154.789624 
L 271.396695 159.281106 
L 272.310699 162.630284 
L 272.920036 164.220838 
L 273.529373 165.302128 
L 274.138709 165.885414 
L 274.748046 165.988292 
L 275.357383 165.634415 
L 275.966719 164.85306 
L 276.576056 163.67868 
L 277.490061 161.266904 
L 278.404066 158.208643 
L 279.927407 152.127414 
L 283.278758 138.099165 
L 284.497432 134.052572 
L 285.411437 131.733674 
L 286.020773 130.592627 
L 286.63011 129.807011 
L 287.239446 129.397583 
L 287.848783 129.379062 
L 288.45812 129.760023 
L 289.067456 130.54275 
L 289.676793 131.723123 
L 290.590798 134.214736 
L 291.504803 137.514882 
L 292.723476 143.011025 
L 294.246817 151.220529 
L 298.816842 177.299907 
L 300.035515 182.510171 
L 300.94952 185.420488 
L 301.558857 186.800529 
L 302.168193 187.686461 
L 302.77753 188.044827 
L 303.082198 188.017246 
L 303.386867 187.847835 
L 303.996203 187.073812 
L 304.60554 185.707694 
L 305.214876 183.741156 
L 306.128881 179.664593 
L 307.042886 174.261345 
L 307.956891 167.59293 
L 309.175564 156.905573 
L 310.698906 141.126693 
L 312.831584 116.045037 
L 316.487604 72.568712 
L 318.010945 57.301499 
L 319.229618 47.335958 
L 320.143623 41.460654 
L 321.057628 37.121555 
L 321.666965 35.139658 
L 322.276301 33.916185 
L 322.58097 33.59452 
L 322.885638 33.468264 
L 323.190306 33.538372 
L 323.494975 33.80525 
L 324.104311 34.928614 
L 324.713648 36.831978 
L 325.322984 39.501045 
L 326.236989 44.890135 
L 327.150994 51.845013 
L 328.369668 63.305593 
L 329.893009 80.539116 
L 331.721019 104.145583 
L 336.291043 164.516106 
L 337.814385 181.147913 
L 339.033058 192.102385 
L 339.947063 198.721443 
L 340.861068 203.85837 
L 341.470405 206.427273 
L 342.079741 208.29993 
L 342.689078 209.474779 
L 342.993746 209.802084 
L 343.298414 209.957782 
L 343.603083 209.943708 
L 343.907751 209.762183 
L 344.517088 208.908293 
L 345.126424 207.423155 
L 345.735761 205.34026 
L 346.649766 201.182632 
L 347.563771 195.924675 
L 348.782444 187.51184 
L 350.610454 172.850024 
L 354.571142 140.034377 
L 356.094483 129.608136 
L 357.313156 122.884311 
L 358.227161 118.934153 
L 359.141166 115.983518 
L 359.750503 114.583386 
L 360.35984 113.63546 
L 360.969176 113.131319 
L 361.578513 113.056266 
L 362.187849 113.389597 
L 362.797186 114.104939 
L 363.406523 115.170655 
L 364.320527 117.345369 
L 365.539201 121.097333 
L 367.367211 127.770993 
L 369.499889 135.47816 
L 370.718562 139.050608 
L 371.632567 141.051525 
L 372.241903 141.989127 
L 372.85124 142.571259 
L 373.460577 142.770787 
L 374.069913 142.566156 
L 374.67925 141.941733 
L 375.288586 140.888052 
L 375.897923 139.401993 
L 376.811928 136.371351 
L 377.725933 132.415521 
L 378.944606 125.82846 
L 380.163279 117.976268 
L 381.991289 104.579494 
L 383.514631 92.837375 
L 383.514631 92.837375 
" style="fill:none;stroke:#000000;stroke-linecap:square;stroke-width:1.5;"/>
   </g>
   <g id="line2d_38">
    <path clip-path="url(#p5c334c8ee2)" d="M 79.150994 131.197932 
L 79.760331 131.396012 
L 80.369668 131.987031 
L 80.979004 132.961737 
L 81.588341 134.304367 
L 82.502346 136.959389 
L 83.416351 140.295814 
L 84.635024 145.588738 
L 86.767702 156.150262 
L 88.90038 166.442298 
L 90.119053 171.300698 
L 91.033058 174.137498 
L 91.642395 175.556698 
L 92.251731 176.549832 
L 92.861068 177.080677 
L 93.165736 177.162799 
L 93.470405 177.11815 
L 93.775073 176.943689 
L 94.38441 176.195415 
L 94.993746 174.901862 
L 95.603083 173.053545 
L 96.517088 169.236753 
L 97.431093 164.187159 
L 98.345098 157.959888 
L 99.563771 147.984368 
L 101.087112 133.267688 
L 103.21979 109.926863 
L 106.571142 72.900117 
L 108.094483 58.578278 
L 109.313156 49.228208 
L 110.227161 43.735924 
L 111.141166 39.717852 
L 111.750503 37.918746 
L 112.35984 36.855727 
L 112.664508 36.606716 
L 112.969176 36.548509 
L 113.273844 36.682382 
L 113.578513 37.009107 
L 114.187849 38.241913 
L 114.797186 40.243321 
L 115.406523 43.001915 
L 116.320527 48.515749 
L 117.234532 55.592412 
L 118.453206 67.225433 
L 119.976547 84.714262 
L 121.804557 108.713942 
L 126.374582 170.473279 
L 127.897923 187.611864 
L 129.116596 198.936423 
L 130.030601 205.793429 
L 130.944606 211.120094 
L 131.553943 213.782338 
L 132.163279 215.717549 
L 132.772616 216.920557 
L 133.077284 217.247952 
L 133.381953 217.393825 
L 133.686621 217.359687 
L 133.991289 217.147496 
L 134.600626 216.199028 
L 135.209962 214.57299 
L 135.819299 212.300737 
L 136.733304 207.764721 
L 137.647309 202.012121 
L 138.865982 192.757511 
L 140.389324 179.314891 
L 145.873353 128.670251 
L 147.092026 119.868877 
L 148.310699 112.737284 
L 149.224704 108.604374 
L 150.138709 105.564352 
L 150.748046 104.150619 
L 151.357383 103.221741 
L 151.966719 102.765401 
L 152.576056 102.76334 
L 153.185392 103.191323 
L 153.794729 104.019613 
L 154.404066 105.213369 
L 155.31807 107.602034 
L 156.536744 111.667101 
L 158.364754 118.840216 
L 160.497432 127.147492 
L 161.716105 131.074131 
L 162.63011 133.353042 
L 163.239446 134.485224 
L 163.848783 135.271801 
L 164.45812 135.688044 
L 165.067456 135.714949 
L 165.676793 135.339476 
L 166.286129 134.554875 
L 166.895466 133.360729 
L 167.504803 131.763006 
L 168.418808 128.638439 
L 169.332812 124.702817 
L 170.551486 118.366354 
L 172.074827 109.13878 
L 176.340184 82.115041 
L 177.558857 76.041313 
L 178.472862 72.476482 
L 179.386867 69.939687 
L 179.996203 68.888241 
L 180.60554 68.389134 
L 180.910208 68.355715 
L 181.214876 68.470484 
L 181.519545 68.735923 
L 182.128881 69.726962 
L 182.738218 71.340687 
L 183.347555 73.58195 
L 184.261559 78.113314 
L 185.175564 84.011166 
L 186.394238 93.866379 
L 187.612911 105.740926 
L 189.136252 122.846187 
L 191.573599 153.214408 
L 194.315613 186.861099 
L 195.838955 202.990502 
L 197.057628 213.676677 
L 197.971633 220.103648 
L 198.885638 224.999124 
L 199.494975 227.352408 
L 200.104311 228.946132 
L 200.713648 229.761942 
L 201.018316 229.874489 
L 201.322984 229.7892 
L 201.627653 229.505977 
L 202.236989 228.34782 
L 202.846326 226.409197 
L 203.455663 223.707042 
L 204.369668 218.278255 
L 205.283672 211.302762 
L 206.502346 199.857402 
L 208.025687 182.730978 
L 210.158365 155.34893 
L 213.814385 107.587187 
L 215.337727 90.442641 
L 216.5564 78.860871 
L 217.775073 69.56764 
L 218.689078 64.253911 
L 219.603083 60.433232 
L 220.212419 58.729809 
L 220.821756 57.700411 
L 221.126424 57.435939 
L 221.431093 57.336069 
L 221.735761 57.398537 
L 222.040429 57.620614 
L 222.649766 58.530944 
L 223.259102 60.037755 
L 223.868439 62.105447 
L 224.782444 66.167528 
L 225.696449 71.239029 
L 226.915122 79.25857 
L 228.743132 93.025368 
L 232.094483 118.706347 
L 233.617825 128.521057 
L 234.836498 134.871255 
L 235.750503 138.602238 
L 236.664508 141.380337 
L 237.273844 142.688506 
L 237.883181 143.560925 
L 238.492518 144.004187 
L 239.101854 144.031394 
L 239.711191 143.661422 
L 240.320527 142.919064 
L 240.929864 141.83437 
L 241.843869 139.643339 
L 243.062542 135.886091 
L 244.890552 129.226747 
L 247.02323 121.56163 
L 248.241903 118.03049 
L 249.155908 116.073997 
L 249.765245 115.174678 
L 250.374582 114.639304 
L 250.983918 114.496667 
L 251.593255 114.769908 
L 252.202591 115.476371 
L 252.811928 116.627252 
L 253.421265 118.2273 
L 254.33527 121.464219 
L 255.249274 125.673387 
L 256.467948 132.679605 
L 257.686621 141.051862 
L 259.514631 155.429064 
L 263.475319 187.517145 
L 264.693992 195.651337 
L 265.607997 200.691602 
L 266.522002 204.627086 
L 267.131338 206.560941 
L 267.740675 207.897316 
L 268.350012 208.603806 
L 268.65468 208.712438 
L 268.959348 208.654337 
L 269.264016 208.427311 
L 269.873353 207.45994 
L 270.48269 205.801769 
L 271.092026 203.451641 
L 272.006031 198.644944 
L 272.920036 192.350314 
L 273.834041 184.657872 
L 275.052714 172.448756 
L 276.576056 154.609983 
L 278.708734 126.561627 
L 282.060085 82.119983 
L 283.583427 64.633666 
L 284.8021 52.886532 
L 285.716105 45.677271 
L 286.63011 40.008317 
L 287.544115 35.993534 
L 288.153451 34.275373 
L 288.762788 33.340235 
L 289.067456 33.168224 
L 289.372125 33.193284 
L 289.676793 33.414831 
L 289.981461 33.831776 
L 290.590798 35.245077 
L 291.200134 37.414904 
L 291.809471 40.315326 
L 292.723476 45.961739 
L 293.637481 53.036278 
L 294.856154 64.392306 
L 296.379496 80.999019 
L 298.816842 110.615605 
L 301.558857 143.367736 
L 303.082198 159.148395 
L 304.300871 169.785521 
L 305.519545 178.308055 
L 306.43355 183.181972 
L 307.347555 186.69914 
L 307.956891 188.283274 
L 308.566228 189.26449 
L 309.175564 189.655328 
L 309.480233 189.635098 
L 309.784901 189.475042 
L 310.394238 188.749303 
L 311.003574 187.509484 
L 311.612911 185.792621 
L 312.526916 182.415619 
L 313.745589 176.668691 
L 315.26893 168.085934 
L 319.534287 142.987493 
L 320.75296 137.338309 
L 321.666965 133.931249 
L 322.58097 131.338687 
L 323.190306 130.094012 
L 323.799643 129.249091 
L 324.40898 128.807794 
L 325.018316 128.767617 
L 325.627653 129.119659 
L 326.236989 129.849025 
L 326.846326 130.934584 
L 327.760331 133.17129 
L 328.674336 136.036982 
L 329.893009 140.600848 
L 334.463034 158.844436 
L 335.377039 161.416744 
L 336.291043 163.246351 
L 336.90038 163.98644 
L 337.509717 164.302525 
L 337.814385 164.292379 
L 338.423722 163.920325 
L 339.033058 163.063174 
L 339.642395 161.706977 
L 340.251731 159.844319 
L 341.165736 156.100815 
L 342.079741 151.243303 
L 343.298414 143.142031 
L 344.517088 133.403163 
L 346.040429 119.434346 
L 351.829127 63.606321 
L 353.0478 54.776031 
L 353.961805 49.515352 
L 354.87581 45.603644 
L 355.485147 43.812041 
L 356.094483 42.710998 
L 356.399152 42.427374 
L 356.70382 42.325016 
L 357.008488 42.405878 
L 357.313156 42.671439 
L 357.922493 43.76018 
L 358.53183 45.593486 
L 359.141166 48.165912 
L 360.055171 53.379416 
L 360.969176 60.147957 
L 362.187849 71.390313 
L 363.406523 84.827883 
L 364.929864 104.006938 
L 367.976547 146.162501 
L 370.109225 174.543197 
L 371.632567 192.215764 
L 372.85124 204.027937 
L 373.765245 211.258838 
L 374.67925 216.944889 
L 375.593255 220.990723 
L 376.202591 222.746867 
L 376.811928 223.740562 
L 377.116596 223.95135 
L 377.421265 223.972333 
L 377.725933 223.8048 
L 378.030601 223.450505 
L 378.639938 222.190988 
L 379.249274 220.217037 
L 379.858611 217.559019 
L 380.772616 212.372077 
L 381.686621 205.881347 
L 382.905294 195.509527 
L 383.514631 189.72203 
L 383.514631 189.72203 
" style="fill:none;stroke:#0000ff;stroke-linecap:square;stroke-width:1.5;"/>
   </g>
   <g id="patch_3">
    <path d="M 63.932812 239.758125 
L 63.932812 22.318125 
" style="fill:none;stroke:#000000;stroke-linecap:square;stroke-linejoin:miter;stroke-width:0.8;"/>
   </g>
   <g id="patch_4">
    <path d="M 398.732813 239.758125 
L 398.732813 22.318125 
" style="fill:none;stroke:#000000;stroke-linecap:square;stroke-linejoin:miter;stroke-width:0.8;"/>
   </g>
   <g id="patch_5">
    <path d="M 63.932812 239.758125 
L 398.732813 239.758125 
" style="fill:none;stroke:#000000;stroke-linecap:square;stroke-linejoin:miter;stroke-width:0.8;"/>
   </g>
   <g id="patch_6">
    <path d="M 63.932812 22.318125 
L 398.732813 22.318125 
" style="fill:none;stroke:#000000;stroke-linecap:square;stroke-linejoin:miter;stroke-width:0.8;"/>
   </g>
   <g id="text_19">
    <!-- Unknown mode -->
    <g transform="translate(184.558125 16.318125)scale(0.12 -0.12)">
     <defs>
      <path d="M 8.6875 72.90625 
L 18.609375 72.90625 
L 18.609375 28.609375 
Q 18.609375 16.890625 22.84375 11.734375 
Q 27.09375 6.59375 36.625 6.59375 
Q 46.09375 6.59375 50.34375 11.734375 
Q 54.59375 16.890625 54.59375 28.609375 
L 54.59375 72.90625 
L 64.5 72.90625 
L 64.5 27.390625 
Q 64.5 13.140625 57.4375 5.859375 
Q 50.390625 -1.421875 36.625 -1.421875 
Q 22.796875 -1.421875 15.734375 5.859375 
Q 8.6875 13.140625 8.6875 27.390625 
z
" id="DejaVuSans-85"/>
      <path d="M 54.890625 33.015625 
L 54.890625 0 
L 45.90625 0 
L 45.90625 32.71875 
Q 45.90625 40.484375 42.875 44.328125 
Q 39.84375 48.1875 33.796875 48.1875 
Q 26.515625 48.1875 22.3125 43.546875 
Q 18.109375 38.921875 18.109375 30.90625 
L 18.109375 0 
L 9.078125 0 
L 9.078125 54.6875 
L 18.109375 54.6875 
L 18.109375 46.1875 
Q 21.34375 51.125 25.703125 53.5625 
Q 30.078125 56 35.796875 56 
Q 45.21875 56 50.046875 50.171875 
Q 54.890625 44.34375 54.890625 33.015625 
z
" id="DejaVuSans-110"/>
      <path d="M 9.078125 75.984375 
L 18.109375 75.984375 
L 18.109375 31.109375 
L 44.921875 54.6875 
L 56.390625 54.6875 
L 27.390625 29.109375 
L 57.625 0 
L 45.90625 0 
L 18.109375 26.703125 
L 18.109375 0 
L 9.078125 0 
z
" id="DejaVuSans-107"/>
      <path d="M 30.609375 48.390625 
Q 23.390625 48.390625 19.1875 42.75 
Q 14.984375 37.109375 14.984375 27.296875 
Q 14.984375 17.484375 19.15625 11.84375 
Q 23.34375 6.203125 30.609375 6.203125 
Q 37.796875 6.203125 41.984375 11.859375 
Q 46.1875 17.53125 46.1875 27.296875 
Q 46.1875 37.015625 41.984375 42.703125 
Q 37.796875 48.390625 30.609375 48.390625 
z
M 30.609375 56 
Q 42.328125 56 49.015625 48.375 
Q 55.71875 40.765625 55.71875 27.296875 
Q 55.71875 13.875 49.015625 6.21875 
Q 42.328125 -1.421875 30.609375 -1.421875 
Q 18.84375 -1.421875 12.171875 6.21875 
Q 5.515625 13.875 5.515625 27.296875 
Q 5.515625 40.765625 12.171875 48.375 
Q 18.84375 56 30.609375 56 
z
" id="DejaVuSans-111"/>
      <path d="M 4.203125 54.6875 
L 13.1875 54.6875 
L 24.421875 12.015625 
L 35.59375 54.6875 
L 46.1875 54.6875 
L 57.421875 12.015625 
L 68.609375 54.6875 
L 77.59375 54.6875 
L 63.28125 0 
L 52.6875 0 
L 40.921875 44.828125 
L 29.109375 0 
L 18.5 0 
z
" id="DejaVuSans-119"/>
      <path id="DejaVuSans-32"/>
      <path d="M 52 44.1875 
Q 55.375 50.25 60.0625 53.125 
Q 64.75 56 71.09375 56 
Q 79.640625 56 84.28125 50.015625 
Q 88.921875 44.046875 88.921875 33.015625 
L 88.921875 0 
L 79.890625 0 
L 79.890625 32.71875 
Q 79.890625 40.578125 77.09375 44.375 
Q 74.3125 48.1875 68.609375 48.1875 
Q 61.625 48.1875 57.5625 43.546875 
Q 53.515625 38.921875 53.515625 30.90625 
L 53.515625 0 
L 44.484375 0 
L 44.484375 32.71875 
Q 44.484375 40.625 41.703125 44.40625 
Q 38.921875 48.1875 33.109375 48.1875 
Q 26.21875 48.1875 22.15625 43.53125 
Q 18.109375 38.875 18.109375 30.90625 
L 18.109375 0 
L 9.078125 0 
L 9.078125 54.6875 
L 18.109375 54.6875 
L 18.109375 46.1875 
Q 21.1875 51.21875 25.484375 53.609375 
Q 29.78125 56 35.6875 56 
Q 41.65625 56 45.828125 52.96875 
Q 50 49.953125 52 44.1875 
z
" id="DejaVuSans-109"/>
      <path d="M 45.40625 46.390625 
L 45.40625 75.984375 
L 54.390625 75.984375 
L 54.390625 0 
L 45.40625 0 
L 45.40625 8.203125 
Q 42.578125 3.328125 38.25 0.953125 
Q 33.9375 -1.421875 27.875 -1.421875 
Q 17.96875 -1.421875 11.734375 6.484375 
Q 5.515625 14.40625 5.515625 27.296875 
Q 5.515625 40.1875 11.734375 48.09375 
Q 17.96875 56 27.875 56 
Q 33.9375 56 38.25 53.625 
Q 42.578125 51.265625 45.40625 46.390625 
z
M 14.796875 27.296875 
Q 14.796875 17.390625 18.875 11.75 
Q 22.953125 6.109375 30.078125 6.109375 
Q 37.203125 6.109375 41.296875 11.75 
Q 45.40625 17.390625 45.40625 27.296875 
Q 45.40625 37.203125 41.296875 42.84375 
Q 37.203125 48.484375 30.078125 48.484375 
Q 22.953125 48.484375 18.875 42.84375 
Q 14.796875 37.203125 14.796875 27.296875 
z
" id="DejaVuSans-100"/>
      <path d="M 56.203125 29.59375 
L 56.203125 25.203125 
L 14.890625 25.203125 
Q 15.484375 15.921875 20.484375 11.0625 
Q 25.484375 6.203125 34.421875 6.203125 
Q 39.59375 6.203125 44.453125 7.46875 
Q 49.3125 8.734375 54.109375 11.28125 
L 54.109375 2.78125 
Q 49.265625 0.734375 44.1875 -0.34375 
Q 39.109375 -1.421875 33.890625 -1.421875 
Q 20.796875 -1.421875 13.15625 6.1875 
Q 5.515625 13.8125 5.515625 26.8125 
Q 5.515625 40.234375 12.765625 48.109375 
Q 20.015625 56 32.328125 56 
Q 43.359375 56 49.78125 48.890625 
Q 56.203125 41.796875 56.203125 29.59375 
z
M 47.21875 32.234375 
Q 47.125 39.59375 43.09375 43.984375 
Q 39.0625 48.390625 32.421875 48.390625 
Q 24.90625 48.390625 20.390625 44.140625 
Q 15.875 39.890625 15.1875 32.171875 
z
" id="DejaVuSans-101"/>
     </defs>
     <use xlink:href="#DejaVuSans-85"/>
     <use x="73.193359" xlink:href="#DejaVuSans-110"/>
     <use x="136.572266" xlink:href="#DejaVuSans-107"/>
     <use x="194.482422" xlink:href="#DejaVuSans-110"/>
     <use x="257.861328" xlink:href="#DejaVuSans-111"/>
     <use x="319.042969" xlink:href="#DejaVuSans-119"/>
     <use x="400.830078" xlink:href="#DejaVuSans-110"/>
     <use x="464.208984" xlink:href="#DejaVuSans-32"/>
     <use x="495.996094" xlink:href="#DejaVuSans-109"/>
     <use x="593.408203" xlink:href="#DejaVuSans-111"/>
     <use x="654.589844" xlink:href="#DejaVuSans-100"/>
     <use x="718.066406" xlink:href="#DejaVuSans-101"/>
    </g>
   </g>
  </g>
 </g>
 <defs>
  <clipPath id="p5c334c8ee2">
   <rect height="217.44" width="334.8" x="63.932812" y="22.318125"/>
  </clipPath>
 </defs>
</svg>
