<?xml version="1.0" encoding="utf-8" standalone="no"?>
<!DOCTYPE svg PUBLIC "-//W3C//DTD SVG 1.1//EN"
  "http://www.w3.org/Graphics/SVG/1.1/DTD/svg11.dtd">
<!-- Created with matplotlib (https://matplotlib.org/) -->
<svg height="252.20711pt" version="1.1" viewBox="0 0 375.283284 252.20711" width="375.283284pt" xmlns="http://www.w3.org/2000/svg" xmlns:xlink="http://www.w3.org/1999/xlink">
 <metadata>
  <rdf:RDF xmlns:cc="http://creativecommons.org/ns#" xmlns:dc="http://purl.org/dc/elements/1.1/" xmlns:rdf="http://www.w3.org/1999/02/22-rdf-syntax-ns#">
   <cc:Work>
    <dc:type rdf:resource="http://purl.org/dc/dcmitype/StillImage"/>
    <dc:date>2021-09-15T21:14:51.295292</dc:date>
    <dc:format>image/svg+xml</dc:format>
    <dc:creator>
     <cc:Agent>
      <dc:title>Matplotlib v3.3.4, https://matplotlib.org/</dc:title>
     </cc:Agent>
    </dc:creator>
   </cc:Work>
  </rdf:RDF>
 </metadata>
 <defs>
  <style type="text/css">*{stroke-linecap:butt;stroke-linejoin:round;}</style>
 </defs>
 <g id="figure_1">
  <g id="patch_1">
   <path d="M 0 252.20711 
L 375.283284 252.20711 
L 375.283284 0 
L 0 0 
z
" style="fill:none;"/>
  </g>
  <g id="axes_1">
   <g id="patch_2">
    <path d="M 33.283284 224.64 
L 368.083284 224.64 
L 368.083284 7.2 
L 33.283284 7.2 
z
" style="fill:#ffffff;"/>
   </g>
   <g id="matplotlib.axis_1">
    <g id="xtick_1">
     <g id="line2d_1">
      <path clip-path="url(#p289ea67813)" d="M 48.501466 224.64 
L 48.501466 7.2 
" style="fill:none;stroke:#b0b0b0;stroke-linecap:square;stroke-width:0.8;"/>
     </g>
     <g id="line2d_2">
      <defs>
       <path d="M 0 0 
L 0 3.5 
" id="md60b7a6265" style="stroke:#000000;stroke-width:0.8;"/>
      </defs>
      <g>
       <use style="stroke:#000000;stroke-width:0.8;" x="48.501466" xlink:href="#md60b7a6265" y="224.64"/>
      </g>
     </g>
     <g id="text_1">
      <!-- $\mathdefault{−1.5}$ -->
      <g transform="translate(33.154172 241.771866)scale(0.15 -0.15)">
       <defs>
        <path d="M 65.90625 23 
C 67.59375 23 69.40625 23 69.40625 25 
C 69.40625 27 67.59375 27 65.90625 27 
L 11.796875 27 
C 10.09375 27 8.296875 27 8.296875 25 
C 8.296875 23 10.09375 23 11.796875 23 
z
" id="CMSY10-0"/>
        <path d="M 29.09375 68 
L 11.09375 59 
L 11.09375 57.59375 
C 12.296875 58.09375 13.40625 58.484375 13.796875 58.6875 
C 15.59375 59.390625 17.296875 59.78125 18.296875 59.78125 
C 20.40625 59.78125 21.296875 58.296875 21.296875 55.078125 
L 21.296875 9.359375 
C 21.296875 6.03125 20.5 3.71875 18.90625 2.796875 
C 17.40625 1.890625 16 1.59375 11.796875 1.5 
L 11.796875 0 
L 39.40625 0 
L 39.40625 1.5 
C 31.5 1.59375 29.90625 2.609375 29.90625 7.453125 
L 29.90625 67.796875 
z
" id="Nimbus_Roman_No9_L_Regular-49"/>
        <path d="M 19.203125 5.296875 
C 19.203125 8.1875 16.796875 10.59375 13.90625 10.59375 
C 11 10.59375 8.59375 8.1875 8.59375 5.296875 
C 8.59375 2.390625 11 0 13.90625 0 
C 16.796875 0 19.203125 2.390625 19.203125 5.296875 
z
" id="CMMI10-58"/>
        <path d="M 18.09375 58.09375 
L 37.703125 58.09375 
C 39.296875 58.09375 39.703125 58.296875 40 58.984375 
L 43.796875 67.890625 
L 42.90625 68.59375 
C 41.40625 66.5 40.40625 66 38.296875 66 
L 17.40625 66 
L 6.5 42.453125 
C 6.40625 42.265625 6.40625 42.15625 6.40625 41.96875 
C 6.40625 41.46875 6.796875 41.171875 7.59375 41.171875 
C 10.796875 41.171875 14.796875 40.484375 18.90625 39.1875 
C 30.40625 35.53125 35.703125 29.40625 35.703125 19.609375 
C 35.703125 10.109375 29.59375 2.6875 21.796875 2.6875 
C 19.796875 2.6875 18.09375 3.390625 15.09375 5.5625 
C 11.90625 7.84375 9.59375 8.828125 7.5 8.828125 
C 4.59375 8.828125 3.203125 7.640625 3.203125 5.171875 
C 3.203125 1.390625 7.90625 -1 15.40625 -1 
C 23.796875 -1 31 1.6875 36 6.75 
C 40.59375 11.203125 42.703125 16.84375 42.703125 24.359375 
C 42.703125 31.484375 40.796875 36.03125 35.796875 40.96875 
C 31.40625 45.328125 25.703125 47.609375 13.90625 49.6875 
z
" id="Nimbus_Roman_No9_L_Regular-53"/>
       </defs>
       <use transform="scale(0.996264)" xlink:href="#CMSY10-0"/>
       <use transform="translate(77.408707 0)scale(0.996264)" xlink:href="#Nimbus_Roman_No9_L_Regular-49"/>
       <use transform="translate(127.221908 0)scale(0.996264)" xlink:href="#CMMI10-58"/>
       <use transform="translate(154.817414 0)scale(0.996264)" xlink:href="#Nimbus_Roman_No9_L_Regular-53"/>
      </g>
     </g>
    </g>
    <g id="xtick_2">
     <g id="line2d_3">
      <path clip-path="url(#p289ea67813)" d="M 99.228738 224.64 
L 99.228738 7.2 
" style="fill:none;stroke:#b0b0b0;stroke-linecap:square;stroke-width:0.8;"/>
     </g>
     <g id="line2d_4">
      <g>
       <use style="stroke:#000000;stroke-width:0.8;" x="99.228738" xlink:href="#md60b7a6265" y="224.64"/>
      </g>
     </g>
     <g id="text_2">
      <!-- $\mathdefault{−1.0}$ -->
      <g transform="translate(83.881445 241.771866)scale(0.15 -0.15)">
       <defs>
        <path d="M 25.40625 68 
C 19.90625 68 15.703125 66.296875 12 62.796875 
C 6.203125 57.203125 2.40625 45.6875 2.40625 34 
C 2.40625 23.09375 5.703125 11.390625 10.40625 5.796875 
C 14.09375 1.390625 19.203125 -1 25 -1 
C 30.09375 -1 34.40625 0.6875 38 4.1875 
C 43.796875 9.6875 47.59375 21.296875 47.59375 33.390625 
C 47.59375 53.890625 38.5 68 25.40625 68 
z
M 25.09375 65.390625 
C 33.5 65.390625 38 54.09375 38 33.1875 
C 38 12.296875 33.59375 1.59375 25 1.59375 
C 16.40625 1.59375 12 12.296875 12 33.09375 
C 12 54.296875 16.5 65.390625 25.09375 65.390625 
z
" id="Nimbus_Roman_No9_L_Regular-48"/>
       </defs>
       <use transform="scale(0.996264)" xlink:href="#CMSY10-0"/>
       <use transform="translate(77.408707 0)scale(0.996264)" xlink:href="#Nimbus_Roman_No9_L_Regular-49"/>
       <use transform="translate(127.221908 0)scale(0.996264)" xlink:href="#CMMI10-58"/>
       <use transform="translate(154.817414 0)scale(0.996264)" xlink:href="#Nimbus_Roman_No9_L_Regular-48"/>
      </g>
     </g>
    </g>
    <g id="xtick_3">
     <g id="line2d_5">
      <path clip-path="url(#p289ea67813)" d="M 149.956011 224.64 
L 149.956011 7.2 
" style="fill:none;stroke:#b0b0b0;stroke-linecap:square;stroke-width:0.8;"/>
     </g>
     <g id="line2d_6">
      <g>
       <use style="stroke:#000000;stroke-width:0.8;" x="149.956011" xlink:href="#md60b7a6265" y="224.64"/>
      </g>
     </g>
     <g id="text_3">
      <!-- $\mathdefault{−0.5}$ -->
      <g transform="translate(134.608717 241.771866)scale(0.15 -0.15)">
       <use transform="scale(0.996264)" xlink:href="#CMSY10-0"/>
       <use transform="translate(77.408707 0)scale(0.996264)" xlink:href="#Nimbus_Roman_No9_L_Regular-48"/>
       <use transform="translate(127.221908 0)scale(0.996264)" xlink:href="#CMMI10-58"/>
       <use transform="translate(154.817414 0)scale(0.996264)" xlink:href="#Nimbus_Roman_No9_L_Regular-53"/>
      </g>
     </g>
    </g>
    <g id="xtick_4">
     <g id="line2d_7">
      <path clip-path="url(#p289ea67813)" d="M 200.683284 224.64 
L 200.683284 7.2 
" style="fill:none;stroke:#b0b0b0;stroke-linecap:square;stroke-width:0.8;"/>
     </g>
     <g id="line2d_8">
      <g>
       <use style="stroke:#000000;stroke-width:0.8;" x="200.683284" xlink:href="#md60b7a6265" y="224.64"/>
      </g>
     </g>
     <g id="text_4">
      <!-- $\mathdefault{0.0}$ -->
      <g transform="translate(191.141642 241.771866)scale(0.15 -0.15)">
       <use transform="scale(0.996264)" xlink:href="#Nimbus_Roman_No9_L_Regular-48"/>
       <use transform="translate(49.8132 0)scale(0.996264)" xlink:href="#CMMI10-58"/>
       <use transform="translate(77.408707 0)scale(0.996264)" xlink:href="#Nimbus_Roman_No9_L_Regular-48"/>
      </g>
     </g>
    </g>
    <g id="xtick_5">
     <g id="line2d_9">
      <path clip-path="url(#p289ea67813)" d="M 251.410557 224.64 
L 251.410557 7.2 
" style="fill:none;stroke:#b0b0b0;stroke-linecap:square;stroke-width:0.8;"/>
     </g>
     <g id="line2d_10">
      <g>
       <use style="stroke:#000000;stroke-width:0.8;" x="251.410557" xlink:href="#md60b7a6265" y="224.64"/>
      </g>
     </g>
     <g id="text_5">
      <!-- $\mathdefault{0.5}$ -->
      <g transform="translate(241.868915 241.771866)scale(0.15 -0.15)">
       <use transform="scale(0.996264)" xlink:href="#Nimbus_Roman_No9_L_Regular-48"/>
       <use transform="translate(49.8132 0)scale(0.996264)" xlink:href="#CMMI10-58"/>
       <use transform="translate(77.408707 0)scale(0.996264)" xlink:href="#Nimbus_Roman_No9_L_Regular-53"/>
      </g>
     </g>
    </g>
    <g id="xtick_6">
     <g id="line2d_11">
      <path clip-path="url(#p289ea67813)" d="M 302.137829 224.64 
L 302.137829 7.2 
" style="fill:none;stroke:#b0b0b0;stroke-linecap:square;stroke-width:0.8;"/>
     </g>
     <g id="line2d_12">
      <g>
       <use style="stroke:#000000;stroke-width:0.8;" x="302.137829" xlink:href="#md60b7a6265" y="224.64"/>
      </g>
     </g>
     <g id="text_6">
      <!-- $\mathdefault{1.0}$ -->
      <g transform="translate(292.596187 241.771866)scale(0.15 -0.15)">
       <use transform="scale(0.996264)" xlink:href="#Nimbus_Roman_No9_L_Regular-49"/>
       <use transform="translate(49.8132 0)scale(0.996264)" xlink:href="#CMMI10-58"/>
       <use transform="translate(77.408707 0)scale(0.996264)" xlink:href="#Nimbus_Roman_No9_L_Regular-48"/>
      </g>
     </g>
    </g>
    <g id="xtick_7">
     <g id="line2d_13">
      <path clip-path="url(#p289ea67813)" d="M 352.865102 224.64 
L 352.865102 7.2 
" style="fill:none;stroke:#b0b0b0;stroke-linecap:square;stroke-width:0.8;"/>
     </g>
     <g id="line2d_14">
      <g>
       <use style="stroke:#000000;stroke-width:0.8;" x="352.865102" xlink:href="#md60b7a6265" y="224.64"/>
      </g>
     </g>
     <g id="text_7">
      <!-- $\mathdefault{1.5}$ -->
      <g transform="translate(343.32346 241.771866)scale(0.15 -0.15)">
       <use transform="scale(0.996264)" xlink:href="#Nimbus_Roman_No9_L_Regular-49"/>
       <use transform="translate(49.8132 0)scale(0.996264)" xlink:href="#CMMI10-58"/>
       <use transform="translate(77.408707 0)scale(0.996264)" xlink:href="#Nimbus_Roman_No9_L_Regular-53"/>
      </g>
     </g>
    </g>
   </g>
   <g id="matplotlib.axis_2">
    <g id="ytick_1">
     <g id="line2d_15">
      <path clip-path="url(#p289ea67813)" d="M 33.283284 202.896 
L 368.083284 202.896 
" style="fill:none;stroke:#b0b0b0;stroke-linecap:square;stroke-width:0.8;"/>
     </g>
     <g id="line2d_16">
      <defs>
       <path d="M 0 0 
L -3.5 0 
" id="m537821c47c" style="stroke:#000000;stroke-width:0.8;"/>
      </defs>
      <g>
       <use style="stroke:#000000;stroke-width:0.8;" x="33.283284" xlink:href="#m537821c47c" y="202.896"/>
      </g>
     </g>
     <g id="text_8">
      <!-- $\mathdefault{−4}$ -->
      <g transform="translate(7.2 207.961933)scale(0.15 -0.15)">
       <defs>
        <path d="M 47.203125 23.390625 
L 37 23.390625 
L 37 68 
L 32.59375 68 
L 1.203125 23.390625 
L 1.203125 17 
L 29.296875 17 
L 29.296875 0 
L 37 0 
L 37 17 
L 47.203125 17 
z
M 29.203125 23.390625 
L 5.203125 23.390625 
L 29.203125 57.765625 
z
" id="Nimbus_Roman_No9_L_Regular-52"/>
       </defs>
       <use transform="scale(0.996264)" xlink:href="#CMSY10-0"/>
       <use transform="translate(77.408707 0)scale(0.996264)" xlink:href="#Nimbus_Roman_No9_L_Regular-52"/>
      </g>
     </g>
    </g>
    <g id="ytick_2">
     <g id="line2d_17">
      <path clip-path="url(#p289ea67813)" d="M 33.283284 159.408 
L 368.083284 159.408 
" style="fill:none;stroke:#b0b0b0;stroke-linecap:square;stroke-width:0.8;"/>
     </g>
     <g id="line2d_18">
      <g>
       <use style="stroke:#000000;stroke-width:0.8;" x="33.283284" xlink:href="#m537821c47c" y="159.408"/>
      </g>
     </g>
     <g id="text_9">
      <!-- $\mathdefault{−2}$ -->
      <g transform="translate(7.2 164.473933)scale(0.15 -0.15)">
       <defs>
        <path d="M 47.5 13.734375 
L 46.203125 14.25 
C 42.5 8.5 41.203125 7.59375 36.703125 7.59375 
L 12.796875 7.59375 
L 29.59375 25.328125 
C 38.5 34.703125 42.40625 42.359375 42.40625 50.21875 
C 42.40625 60.28125 34.296875 68 23.90625 68 
C 18.40625 68 13.203125 65.796875 9.5 61.796875 
C 6.296875 58.375 4.796875 55.15625 3.09375 48 
L 5.203125 47.484375 
C 9.203125 57.359375 12.796875 60.59375 19.703125 60.59375 
C 28.09375 60.59375 33.796875 54.84375 33.796875 46.390625 
C 33.796875 38.53125 29.203125 29.15625 20.796875 20.1875 
L 3 1.1875 
L 3 0 
L 42 0 
z
" id="Nimbus_Roman_No9_L_Regular-50"/>
       </defs>
       <use transform="scale(0.996264)" xlink:href="#CMSY10-0"/>
       <use transform="translate(77.408707 0)scale(0.996264)" xlink:href="#Nimbus_Roman_No9_L_Regular-50"/>
      </g>
     </g>
    </g>
    <g id="ytick_3">
     <g id="line2d_19">
      <path clip-path="url(#p289ea67813)" d="M 33.283284 115.92 
L 368.083284 115.92 
" style="fill:none;stroke:#b0b0b0;stroke-linecap:square;stroke-width:0.8;"/>
     </g>
     <g id="line2d_20">
      <g>
       <use style="stroke:#000000;stroke-width:0.8;" x="33.283284" xlink:href="#m537821c47c" y="115.92"/>
      </g>
     </g>
     <g id="text_10">
      <!-- $\mathdefault{0}$ -->
      <g transform="translate(18.811304 120.985933)scale(0.15 -0.15)">
       <use transform="scale(0.996264)" xlink:href="#Nimbus_Roman_No9_L_Regular-48"/>
      </g>
     </g>
    </g>
    <g id="ytick_4">
     <g id="line2d_21">
      <path clip-path="url(#p289ea67813)" d="M 33.283284 72.432 
L 368.083284 72.432 
" style="fill:none;stroke:#b0b0b0;stroke-linecap:square;stroke-width:0.8;"/>
     </g>
     <g id="line2d_22">
      <g>
       <use style="stroke:#000000;stroke-width:0.8;" x="33.283284" xlink:href="#m537821c47c" y="72.432"/>
      </g>
     </g>
     <g id="text_11">
      <!-- $\mathdefault{2}$ -->
      <g transform="translate(18.811304 77.497933)scale(0.15 -0.15)">
       <use transform="scale(0.996264)" xlink:href="#Nimbus_Roman_No9_L_Regular-50"/>
      </g>
     </g>
    </g>
    <g id="ytick_5">
     <g id="line2d_23">
      <path clip-path="url(#p289ea67813)" d="M 33.283284 28.944 
L 368.083284 28.944 
" style="fill:none;stroke:#b0b0b0;stroke-linecap:square;stroke-width:0.8;"/>
     </g>
     <g id="line2d_24">
      <g>
       <use style="stroke:#000000;stroke-width:0.8;" x="33.283284" xlink:href="#m537821c47c" y="28.944"/>
      </g>
     </g>
     <g id="text_12">
      <!-- $\mathdefault{4}$ -->
      <g transform="translate(18.811304 34.009933)scale(0.15 -0.15)">
       <use transform="scale(0.996264)" xlink:href="#Nimbus_Roman_No9_L_Regular-52"/>
      </g>
     </g>
    </g>
   </g>
   <g id="line2d_25">
    <path clip-path="url(#p289ea67813)" d="M 48.501466 115.92 
L 99.076404 115.92 
L 99.381073 115.298094 
L 102.123087 104.653778 
L 104.560434 96.038571 
L 106.99778 88.182427 
L 109.435127 81.050149 
L 111.872473 74.607371 
L 114.30982 68.820555 
L 116.747166 63.656994 
L 118.879844 59.625063 
L 121.012522 56.02506 
L 123.1452 52.836637 
L 125.277878 50.039935 
L 127.410557 47.615578 
L 129.543235 45.544679 
L 131.675913 43.808837 
L 133.808591 42.390137 
L 135.941269 41.271151 
L 138.073947 40.434938 
L 140.206625 39.865042 
L 142.339304 39.545496 
L 144.471982 39.460816 
L 146.60466 39.596008 
L 148.737338 39.936562 
L 151.174684 40.559265 
L 153.612031 41.411745 
L 156.354046 42.621413 
L 159.09606 44.071201 
L 162.142743 45.933425 
L 165.494095 48.250305 
L 169.150114 51.052933 
L 173.415471 54.623421 
L 178.290163 59.016667 
L 184.078861 64.547995 
L 192.000237 72.455123 
L 200.53095 81.157463 
L 200.835618 81.157463 
L 215.459697 66.34606 
L 222.162399 59.870417 
L 227.341761 55.156096 
L 231.911785 51.297971 
L 235.872473 48.250305 
L 239.223824 45.933425 
L 242.270507 44.071201 
L 245.317191 42.474679 
L 248.059205 41.293288 
L 250.496552 40.468456 
L 252.933898 39.875875 
L 255.066576 39.563788 
L 257.199254 39.459107 
L 259.331933 39.57641 
L 261.464611 39.930761 
L 263.597289 40.537713 
L 265.729967 41.413304 
L 267.557977 42.390137 
L 269.385987 43.58716 
L 271.213996 45.015327 
L 273.346675 46.988639 
L 275.479353 49.310102 
L 277.612031 51.998464 
L 279.744709 55.072962 
L 281.877387 58.553315 
L 284.010065 62.459734 
L 286.142743 66.812912 
L 288.275421 71.634031 
L 290.712768 77.744688 
L 293.150114 84.527972 
L 295.587461 92.017835 
L 298.024807 100.249059 
L 300.462154 109.257256 
L 302.290163 115.92 
L 352.865102 115.92 
L 352.865102 115.92 
" style="fill:none;stroke:#000000;stroke-linecap:square;stroke-width:1.5;"/>
   </g>
   <g id="line2d_26">
    <path clip-path="url(#p289ea67813)" d="M 48.501466 115.92 
L 99.076404 115.92 
L 99.162635 -1 
M 126.143773 -1 
L 128.933898 20.929079 
L 131.980581 43.173507 
L 135.027264 63.709065 
L 137.769279 80.785754 
L 140.511294 96.582107 
L 143.253308 111.147316 
L 145.995323 124.53057 
L 148.737338 136.781062 
L 151.479353 147.947983 
L 153.916699 157.004236 
L 156.354046 165.277749 
L 158.791392 172.803072 
L 161.228738 179.614751 
L 163.666085 185.747337 
L 166.103431 191.235377 
L 168.236109 195.535843 
L 170.368788 199.392424 
L 172.501466 202.828266 
L 174.634144 205.866514 
L 176.766822 208.530311 
L 178.8995 210.842804 
L 181.032178 212.827136 
L 183.164856 214.506453 
L 185.297534 215.903899 
L 187.430213 217.042619 
L 189.562891 217.945759 
L 192.000237 218.719141 
L 194.437584 219.249605 
L 197.179598 219.599029 
L 200.226281 219.737808 
L 200.53095 219.739717 
L 200.835618 12.100283 
L 203.882301 12.216288 
L 206.624316 12.539447 
L 209.061662 13.041975 
L 211.499009 13.783103 
L 213.631687 14.654477 
L 215.764365 15.758126 
L 217.897043 17.117195 
L 220.029721 18.754827 
L 222.162399 20.694169 
L 224.295077 22.958364 
L 226.427756 25.570558 
L 228.560434 28.553896 
L 230.693112 31.931522 
L 232.82579 35.72658 
L 234.958468 39.962217 
L 237.091146 44.661577 
L 239.223824 49.847803 
L 241.661171 56.400774 
L 244.098517 63.654432 
L 246.535864 71.643325 
L 248.97321 80.402002 
L 251.410557 89.965012 
L 253.847903 100.366903 
L 256.589918 113.114771 
L 259.331933 127.017266 
L 262.073947 142.123577 
L 264.815962 158.482895 
L 267.557977 176.144413 
L 270.299991 195.15732 
L 273.346675 217.927566 
L 276.393358 242.494403 
L 277.654586 253.20711 
M 302.188912 253.20711 
L 302.290163 115.92 
L 352.865102 115.92 
L 352.865102 115.92 
" style="fill:none;stroke:#ff0000;stroke-linecap:square;stroke-width:1.5;"/>
   </g>
   <g id="line2d_27">
    <path clip-path="url(#p289ea67813)" d="M 48.501466 115.92 
L 99.076404 115.92 
L 99.162635 -1 
M 126.143773 -1 
L 128.933898 20.929079 
L 131.980581 43.173507 
L 135.027264 63.709065 
L 137.769279 80.785754 
L 140.511294 96.582107 
L 143.253308 111.147316 
L 145.995323 124.53057 
L 148.737338 136.781062 
L 151.479353 147.947983 
L 153.916699 157.004236 
L 156.354046 165.277749 
L 158.791392 172.803072 
L 161.228738 179.614751 
L 163.666085 185.747337 
L 166.103431 191.235377 
L 168.236109 195.535843 
L 170.368788 199.392424 
L 172.501466 202.828266 
L 174.634144 205.866514 
L 176.766822 208.530311 
L 178.8995 210.842804 
L 181.032178 212.827136 
L 183.164856 214.506453 
L 185.297534 215.903899 
L 187.430213 217.042619 
L 189.562891 217.945759 
L 192.000237 218.719141 
L 194.437584 219.249605 
L 197.179598 219.599029 
L 200.226281 219.737808 
L 200.53095 219.739717 
L 200.835618 12.100283 
L 203.882301 12.216288 
L 206.624316 12.539447 
L 209.061662 13.041975 
L 211.499009 13.783103 
L 213.631687 14.654477 
L 215.764365 15.758126 
L 217.897043 17.117195 
L 220.029721 18.754827 
L 222.162399 20.694169 
L 224.295077 22.958364 
L 226.427756 25.570558 
L 228.560434 28.553896 
L 230.693112 31.931522 
L 232.82579 35.72658 
L 234.958468 39.962217 
L 237.091146 44.661577 
L 239.223824 49.847803 
L 241.661171 56.400774 
L 244.098517 63.654432 
L 246.535864 71.643325 
L 248.97321 80.402002 
L 251.410557 89.965012 
L 253.847903 100.366903 
L 256.589918 113.114772 
L 259.331933 127.017266 
L 262.073947 142.123577 
L 264.815962 158.482895 
L 267.557977 176.144413 
L 270.299991 195.15732 
L 273.346675 217.927566 
L 276.393358 242.494403 
L 277.654586 253.20711 
M 302.188912 253.20711 
L 302.290163 115.92 
L 352.865102 115.92 
L 352.865102 115.92 
" style="fill:none;stroke:#0000ff;stroke-dasharray:5.55,2.4;stroke-dashoffset:0;stroke-width:1.5;"/>
   </g>
   <g id="patch_3">
    <path d="M 33.283284 224.64 
L 33.283284 7.2 
" style="fill:none;stroke:#000000;stroke-linecap:square;stroke-linejoin:miter;stroke-width:0.8;"/>
   </g>
   <g id="patch_4">
    <path d="M 368.083284 224.64 
L 368.083284 7.2 
" style="fill:none;stroke:#000000;stroke-linecap:square;stroke-linejoin:miter;stroke-width:0.8;"/>
   </g>
   <g id="patch_5">
    <path d="M 33.283284 224.64 
L 368.083284 224.64 
" style="fill:none;stroke:#000000;stroke-linecap:square;stroke-linejoin:miter;stroke-width:0.8;"/>
   </g>
   <g id="patch_6">
    <path d="M 33.283284 7.2 
L 368.083284 7.2 
" style="fill:none;stroke:#000000;stroke-linecap:square;stroke-linejoin:miter;stroke-width:0.8;"/>
   </g>
  </g>
 </g>
 <defs>
  <clipPath id="p289ea67813">
   <rect height="217.44" width="334.8" x="33.283284" y="7.2"/>
  </clipPath>
 </defs>
</svg>
