<?xml version="1.0" encoding="utf-8" standalone="no"?>
<!DOCTYPE svg PUBLIC "-//W3C//DTD SVG 1.1//EN"
  "http://www.w3.org/Graphics/SVG/1.1/DTD/svg11.dtd">
<!-- Created with matplotlib (https://matplotlib.org/) -->
<svg height="248.518125pt" version="1.1" viewBox="0 0 379.863764 248.518125" width="379.863764pt" xmlns="http://www.w3.org/2000/svg" xmlns:xlink="http://www.w3.org/1999/xlink">
 <metadata>
  <rdf:RDF xmlns:cc="http://creativecommons.org/ns#" xmlns:dc="http://purl.org/dc/elements/1.1/" xmlns:rdf="http://www.w3.org/1999/02/22-rdf-syntax-ns#">
   <cc:Work>
    <dc:type rdf:resource="http://purl.org/dc/dcmitype/StillImage"/>
    <dc:date>2021-09-15T21:06:31.473911</dc:date>
    <dc:format>image/svg+xml</dc:format>
    <dc:creator>
     <cc:Agent>
      <dc:title>Matplotlib v3.3.4, https://matplotlib.org/</dc:title>
     </cc:Agent>
    </dc:creator>
   </cc:Work>
  </rdf:RDF>
 </metadata>
 <defs>
  <style type="text/css">*{stroke-linecap:butt;stroke-linejoin:round;}</style>
 </defs>
 <g id="figure_1">
  <g id="patch_1">
   <path d="M 0 248.518125 
L 379.863764 248.518125 
L 379.863764 0 
L 0 0 
z
" style="fill:none;"/>
  </g>
  <g id="axes_1">
   <g id="patch_2">
    <path d="M 36.465625 224.64 
L 371.265625 224.64 
L 371.265625 7.2 
L 36.465625 7.2 
z
" style="fill:#ffffff;"/>
   </g>
   <g id="matplotlib.axis_1">
    <g id="xtick_1">
     <g id="line2d_1">
      <path clip-path="url(#p67260d6f9a)" d="M 48.231151 224.64 
L 48.231151 7.2 
" style="fill:none;stroke:#b0b0b0;stroke-linecap:square;stroke-width:0.8;"/>
     </g>
     <g id="line2d_2">
      <defs>
       <path d="M 0 0 
L 0 3.5 
" id="m3f690845eb" style="stroke:#000000;stroke-width:0.8;"/>
      </defs>
      <g>
       <use style="stroke:#000000;stroke-width:0.8;" x="48.231151" xlink:href="#m3f690845eb" y="224.64"/>
      </g>
     </g>
     <g id="text_1">
      <!-- 0.4 -->
      <g transform="translate(40.279588 239.238437)scale(0.1 -0.1)">
       <defs>
        <path d="M 31.78125 66.40625 
Q 24.171875 66.40625 20.328125 58.90625 
Q 16.5 51.421875 16.5 36.375 
Q 16.5 21.390625 20.328125 13.890625 
Q 24.171875 6.390625 31.78125 6.390625 
Q 39.453125 6.390625 43.28125 13.890625 
Q 47.125 21.390625 47.125 36.375 
Q 47.125 51.421875 43.28125 58.90625 
Q 39.453125 66.40625 31.78125 66.40625 
z
M 31.78125 74.21875 
Q 44.046875 74.21875 50.515625 64.515625 
Q 56.984375 54.828125 56.984375 36.375 
Q 56.984375 17.96875 50.515625 8.265625 
Q 44.046875 -1.421875 31.78125 -1.421875 
Q 19.53125 -1.421875 13.0625 8.265625 
Q 6.59375 17.96875 6.59375 36.375 
Q 6.59375 54.828125 13.0625 64.515625 
Q 19.53125 74.21875 31.78125 74.21875 
z
" id="DejaVuSans-48"/>
        <path d="M 10.6875 12.40625 
L 21 12.40625 
L 21 0 
L 10.6875 0 
z
" id="DejaVuSans-46"/>
        <path d="M 37.796875 64.3125 
L 12.890625 25.390625 
L 37.796875 25.390625 
z
M 35.203125 72.90625 
L 47.609375 72.90625 
L 47.609375 25.390625 
L 58.015625 25.390625 
L 58.015625 17.1875 
L 47.609375 17.1875 
L 47.609375 0 
L 37.796875 0 
L 37.796875 17.1875 
L 4.890625 17.1875 
L 4.890625 26.703125 
z
" id="DejaVuSans-52"/>
       </defs>
       <use xlink:href="#DejaVuSans-48"/>
       <use x="63.623047" xlink:href="#DejaVuSans-46"/>
       <use x="95.410156" xlink:href="#DejaVuSans-52"/>
      </g>
     </g>
    </g>
    <g id="xtick_2">
     <g id="line2d_3">
      <path clip-path="url(#p67260d6f9a)" d="M 87.791282 224.64 
L 87.791282 7.2 
" style="fill:none;stroke:#b0b0b0;stroke-linecap:square;stroke-width:0.8;"/>
     </g>
     <g id="line2d_4">
      <g>
       <use style="stroke:#000000;stroke-width:0.8;" x="87.791282" xlink:href="#m3f690845eb" y="224.64"/>
      </g>
     </g>
     <g id="text_2">
      <!-- 0.5 -->
      <g transform="translate(79.83972 239.238437)scale(0.1 -0.1)">
       <defs>
        <path d="M 10.796875 72.90625 
L 49.515625 72.90625 
L 49.515625 64.59375 
L 19.828125 64.59375 
L 19.828125 46.734375 
Q 21.96875 47.46875 24.109375 47.828125 
Q 26.265625 48.1875 28.421875 48.1875 
Q 40.625 48.1875 47.75 41.5 
Q 54.890625 34.8125 54.890625 23.390625 
Q 54.890625 11.625 47.5625 5.09375 
Q 40.234375 -1.421875 26.90625 -1.421875 
Q 22.3125 -1.421875 17.546875 -0.640625 
Q 12.796875 0.140625 7.71875 1.703125 
L 7.71875 11.625 
Q 12.109375 9.234375 16.796875 8.0625 
Q 21.484375 6.890625 26.703125 6.890625 
Q 35.15625 6.890625 40.078125 11.328125 
Q 45.015625 15.765625 45.015625 23.390625 
Q 45.015625 31 40.078125 35.4375 
Q 35.15625 39.890625 26.703125 39.890625 
Q 22.75 39.890625 18.8125 39.015625 
Q 14.890625 38.140625 10.796875 36.28125 
z
" id="DejaVuSans-53"/>
       </defs>
       <use xlink:href="#DejaVuSans-48"/>
       <use x="63.623047" xlink:href="#DejaVuSans-46"/>
       <use x="95.410156" xlink:href="#DejaVuSans-53"/>
      </g>
     </g>
    </g>
    <g id="xtick_3">
     <g id="line2d_5">
      <path clip-path="url(#p67260d6f9a)" d="M 127.351413 224.64 
L 127.351413 7.2 
" style="fill:none;stroke:#b0b0b0;stroke-linecap:square;stroke-width:0.8;"/>
     </g>
     <g id="line2d_6">
      <g>
       <use style="stroke:#000000;stroke-width:0.8;" x="127.351413" xlink:href="#m3f690845eb" y="224.64"/>
      </g>
     </g>
     <g id="text_3">
      <!-- 0.6 -->
      <g transform="translate(119.399851 239.238437)scale(0.1 -0.1)">
       <defs>
        <path d="M 33.015625 40.375 
Q 26.375 40.375 22.484375 35.828125 
Q 18.609375 31.296875 18.609375 23.390625 
Q 18.609375 15.53125 22.484375 10.953125 
Q 26.375 6.390625 33.015625 6.390625 
Q 39.65625 6.390625 43.53125 10.953125 
Q 47.40625 15.53125 47.40625 23.390625 
Q 47.40625 31.296875 43.53125 35.828125 
Q 39.65625 40.375 33.015625 40.375 
z
M 52.59375 71.296875 
L 52.59375 62.3125 
Q 48.875 64.0625 45.09375 64.984375 
Q 41.3125 65.921875 37.59375 65.921875 
Q 27.828125 65.921875 22.671875 59.328125 
Q 17.53125 52.734375 16.796875 39.40625 
Q 19.671875 43.65625 24.015625 45.921875 
Q 28.375 48.1875 33.59375 48.1875 
Q 44.578125 48.1875 50.953125 41.515625 
Q 57.328125 34.859375 57.328125 23.390625 
Q 57.328125 12.15625 50.6875 5.359375 
Q 44.046875 -1.421875 33.015625 -1.421875 
Q 20.359375 -1.421875 13.671875 8.265625 
Q 6.984375 17.96875 6.984375 36.375 
Q 6.984375 53.65625 15.1875 63.9375 
Q 23.390625 74.21875 37.203125 74.21875 
Q 40.921875 74.21875 44.703125 73.484375 
Q 48.484375 72.75 52.59375 71.296875 
z
" id="DejaVuSans-54"/>
       </defs>
       <use xlink:href="#DejaVuSans-48"/>
       <use x="63.623047" xlink:href="#DejaVuSans-46"/>
       <use x="95.410156" xlink:href="#DejaVuSans-54"/>
      </g>
     </g>
    </g>
    <g id="xtick_4">
     <g id="line2d_7">
      <path clip-path="url(#p67260d6f9a)" d="M 166.911545 224.64 
L 166.911545 7.2 
" style="fill:none;stroke:#b0b0b0;stroke-linecap:square;stroke-width:0.8;"/>
     </g>
     <g id="line2d_8">
      <g>
       <use style="stroke:#000000;stroke-width:0.8;" x="166.911545" xlink:href="#m3f690845eb" y="224.64"/>
      </g>
     </g>
     <g id="text_4">
      <!-- 0.7 -->
      <g transform="translate(158.959982 239.238437)scale(0.1 -0.1)">
       <defs>
        <path d="M 8.203125 72.90625 
L 55.078125 72.90625 
L 55.078125 68.703125 
L 28.609375 0 
L 18.3125 0 
L 43.21875 64.59375 
L 8.203125 64.59375 
z
" id="DejaVuSans-55"/>
       </defs>
       <use xlink:href="#DejaVuSans-48"/>
       <use x="63.623047" xlink:href="#DejaVuSans-46"/>
       <use x="95.410156" xlink:href="#DejaVuSans-55"/>
      </g>
     </g>
    </g>
    <g id="xtick_5">
     <g id="line2d_9">
      <path clip-path="url(#p67260d6f9a)" d="M 206.471676 224.64 
L 206.471676 7.2 
" style="fill:none;stroke:#b0b0b0;stroke-linecap:square;stroke-width:0.8;"/>
     </g>
     <g id="line2d_10">
      <g>
       <use style="stroke:#000000;stroke-width:0.8;" x="206.471676" xlink:href="#m3f690845eb" y="224.64"/>
      </g>
     </g>
     <g id="text_5">
      <!-- 0.8 -->
      <g transform="translate(198.520114 239.238437)scale(0.1 -0.1)">
       <defs>
        <path d="M 31.78125 34.625 
Q 24.75 34.625 20.71875 30.859375 
Q 16.703125 27.09375 16.703125 20.515625 
Q 16.703125 13.921875 20.71875 10.15625 
Q 24.75 6.390625 31.78125 6.390625 
Q 38.8125 6.390625 42.859375 10.171875 
Q 46.921875 13.96875 46.921875 20.515625 
Q 46.921875 27.09375 42.890625 30.859375 
Q 38.875 34.625 31.78125 34.625 
z
M 21.921875 38.8125 
Q 15.578125 40.375 12.03125 44.71875 
Q 8.5 49.078125 8.5 55.328125 
Q 8.5 64.0625 14.71875 69.140625 
Q 20.953125 74.21875 31.78125 74.21875 
Q 42.671875 74.21875 48.875 69.140625 
Q 55.078125 64.0625 55.078125 55.328125 
Q 55.078125 49.078125 51.53125 44.71875 
Q 48 40.375 41.703125 38.8125 
Q 48.828125 37.15625 52.796875 32.3125 
Q 56.78125 27.484375 56.78125 20.515625 
Q 56.78125 9.90625 50.3125 4.234375 
Q 43.84375 -1.421875 31.78125 -1.421875 
Q 19.734375 -1.421875 13.25 4.234375 
Q 6.78125 9.90625 6.78125 20.515625 
Q 6.78125 27.484375 10.78125 32.3125 
Q 14.796875 37.15625 21.921875 38.8125 
z
M 18.3125 54.390625 
Q 18.3125 48.734375 21.84375 45.5625 
Q 25.390625 42.390625 31.78125 42.390625 
Q 38.140625 42.390625 41.71875 45.5625 
Q 45.3125 48.734375 45.3125 54.390625 
Q 45.3125 60.0625 41.71875 63.234375 
Q 38.140625 66.40625 31.78125 66.40625 
Q 25.390625 66.40625 21.84375 63.234375 
Q 18.3125 60.0625 18.3125 54.390625 
z
" id="DejaVuSans-56"/>
       </defs>
       <use xlink:href="#DejaVuSans-48"/>
       <use x="63.623047" xlink:href="#DejaVuSans-46"/>
       <use x="95.410156" xlink:href="#DejaVuSans-56"/>
      </g>
     </g>
    </g>
    <g id="xtick_6">
     <g id="line2d_11">
      <path clip-path="url(#p67260d6f9a)" d="M 246.031808 224.64 
L 246.031808 7.2 
" style="fill:none;stroke:#b0b0b0;stroke-linecap:square;stroke-width:0.8;"/>
     </g>
     <g id="line2d_12">
      <g>
       <use style="stroke:#000000;stroke-width:0.8;" x="246.031808" xlink:href="#m3f690845eb" y="224.64"/>
      </g>
     </g>
     <g id="text_6">
      <!-- 0.9 -->
      <g transform="translate(238.080245 239.238437)scale(0.1 -0.1)">
       <defs>
        <path d="M 10.984375 1.515625 
L 10.984375 10.5 
Q 14.703125 8.734375 18.5 7.8125 
Q 22.3125 6.890625 25.984375 6.890625 
Q 35.75 6.890625 40.890625 13.453125 
Q 46.046875 20.015625 46.78125 33.40625 
Q 43.953125 29.203125 39.59375 26.953125 
Q 35.25 24.703125 29.984375 24.703125 
Q 19.046875 24.703125 12.671875 31.3125 
Q 6.296875 37.9375 6.296875 49.421875 
Q 6.296875 60.640625 12.9375 67.421875 
Q 19.578125 74.21875 30.609375 74.21875 
Q 43.265625 74.21875 49.921875 64.515625 
Q 56.59375 54.828125 56.59375 36.375 
Q 56.59375 19.140625 48.40625 8.859375 
Q 40.234375 -1.421875 26.421875 -1.421875 
Q 22.703125 -1.421875 18.890625 -0.6875 
Q 15.09375 0.046875 10.984375 1.515625 
z
M 30.609375 32.421875 
Q 37.25 32.421875 41.125 36.953125 
Q 45.015625 41.5 45.015625 49.421875 
Q 45.015625 57.28125 41.125 61.84375 
Q 37.25 66.40625 30.609375 66.40625 
Q 23.96875 66.40625 20.09375 61.84375 
Q 16.21875 57.28125 16.21875 49.421875 
Q 16.21875 41.5 20.09375 36.953125 
Q 23.96875 32.421875 30.609375 32.421875 
z
" id="DejaVuSans-57"/>
       </defs>
       <use xlink:href="#DejaVuSans-48"/>
       <use x="63.623047" xlink:href="#DejaVuSans-46"/>
       <use x="95.410156" xlink:href="#DejaVuSans-57"/>
      </g>
     </g>
    </g>
    <g id="xtick_7">
     <g id="line2d_13">
      <path clip-path="url(#p67260d6f9a)" d="M 285.591939 224.64 
L 285.591939 7.2 
" style="fill:none;stroke:#b0b0b0;stroke-linecap:square;stroke-width:0.8;"/>
     </g>
     <g id="line2d_14">
      <g>
       <use style="stroke:#000000;stroke-width:0.8;" x="285.591939" xlink:href="#m3f690845eb" y="224.64"/>
      </g>
     </g>
     <g id="text_7">
      <!-- 1.0 -->
      <g transform="translate(277.640377 239.238437)scale(0.1 -0.1)">
       <defs>
        <path d="M 12.40625 8.296875 
L 28.515625 8.296875 
L 28.515625 63.921875 
L 10.984375 60.40625 
L 10.984375 69.390625 
L 28.421875 72.90625 
L 38.28125 72.90625 
L 38.28125 8.296875 
L 54.390625 8.296875 
L 54.390625 0 
L 12.40625 0 
z
" id="DejaVuSans-49"/>
       </defs>
       <use xlink:href="#DejaVuSans-49"/>
       <use x="63.623047" xlink:href="#DejaVuSans-46"/>
       <use x="95.410156" xlink:href="#DejaVuSans-48"/>
      </g>
     </g>
    </g>
    <g id="xtick_8">
     <g id="line2d_15">
      <path clip-path="url(#p67260d6f9a)" d="M 325.15207 224.64 
L 325.15207 7.2 
" style="fill:none;stroke:#b0b0b0;stroke-linecap:square;stroke-width:0.8;"/>
     </g>
     <g id="line2d_16">
      <g>
       <use style="stroke:#000000;stroke-width:0.8;" x="325.15207" xlink:href="#m3f690845eb" y="224.64"/>
      </g>
     </g>
     <g id="text_8">
      <!-- 1.1 -->
      <g transform="translate(317.200508 239.238437)scale(0.1 -0.1)">
       <use xlink:href="#DejaVuSans-49"/>
       <use x="63.623047" xlink:href="#DejaVuSans-46"/>
       <use x="95.410156" xlink:href="#DejaVuSans-49"/>
      </g>
     </g>
    </g>
    <g id="xtick_9">
     <g id="line2d_17">
      <path clip-path="url(#p67260d6f9a)" d="M 364.712202 224.64 
L 364.712202 7.2 
" style="fill:none;stroke:#b0b0b0;stroke-linecap:square;stroke-width:0.8;"/>
     </g>
     <g id="line2d_18">
      <g>
       <use style="stroke:#000000;stroke-width:0.8;" x="364.712202" xlink:href="#m3f690845eb" y="224.64"/>
      </g>
     </g>
     <g id="text_9">
      <!-- 1.2 -->
      <g transform="translate(356.760639 239.238437)scale(0.1 -0.1)">
       <defs>
        <path d="M 19.1875 8.296875 
L 53.609375 8.296875 
L 53.609375 0 
L 7.328125 0 
L 7.328125 8.296875 
Q 12.9375 14.109375 22.625 23.890625 
Q 32.328125 33.6875 34.8125 36.53125 
Q 39.546875 41.84375 41.421875 45.53125 
Q 43.3125 49.21875 43.3125 52.78125 
Q 43.3125 58.59375 39.234375 62.25 
Q 35.15625 65.921875 28.609375 65.921875 
Q 23.96875 65.921875 18.8125 64.3125 
Q 13.671875 62.703125 7.8125 59.421875 
L 7.8125 69.390625 
Q 13.765625 71.78125 18.9375 73 
Q 24.125 74.21875 28.421875 74.21875 
Q 39.75 74.21875 46.484375 68.546875 
Q 53.21875 62.890625 53.21875 53.421875 
Q 53.21875 48.921875 51.53125 44.890625 
Q 49.859375 40.875 45.40625 35.40625 
Q 44.1875 33.984375 37.640625 27.21875 
Q 31.109375 20.453125 19.1875 8.296875 
z
" id="DejaVuSans-50"/>
       </defs>
       <use xlink:href="#DejaVuSans-49"/>
       <use x="63.623047" xlink:href="#DejaVuSans-46"/>
       <use x="95.410156" xlink:href="#DejaVuSans-50"/>
      </g>
     </g>
    </g>
   </g>
   <g id="matplotlib.axis_2">
    <g id="ytick_1">
     <g id="line2d_19">
      <path clip-path="url(#p67260d6f9a)" d="M 36.465625 214.7564 
L 371.265625 214.7564 
" style="fill:none;stroke:#b0b0b0;stroke-linecap:square;stroke-width:0.8;"/>
     </g>
     <g id="line2d_20">
      <defs>
       <path d="M 0 0 
L -3.5 0 
" id="m1e28aa091d" style="stroke:#000000;stroke-width:0.8;"/>
      </defs>
      <g>
       <use style="stroke:#000000;stroke-width:0.8;" x="36.465625" xlink:href="#m1e28aa091d" y="214.7564"/>
      </g>
     </g>
     <g id="text_10">
      <!-- 0.00 -->
      <g transform="translate(7.2 218.555619)scale(0.1 -0.1)">
       <use xlink:href="#DejaVuSans-48"/>
       <use x="63.623047" xlink:href="#DejaVuSans-46"/>
       <use x="95.410156" xlink:href="#DejaVuSans-48"/>
       <use x="159.033203" xlink:href="#DejaVuSans-48"/>
      </g>
     </g>
    </g>
    <g id="ytick_2">
     <g id="line2d_21">
      <path clip-path="url(#p67260d6f9a)" d="M 36.465625 190.561719 
L 371.265625 190.561719 
" style="fill:none;stroke:#b0b0b0;stroke-linecap:square;stroke-width:0.8;"/>
     </g>
     <g id="line2d_22">
      <g>
       <use style="stroke:#000000;stroke-width:0.8;" x="36.465625" xlink:href="#m1e28aa091d" y="190.561719"/>
      </g>
     </g>
     <g id="text_11">
      <!-- 0.05 -->
      <g transform="translate(7.2 194.360938)scale(0.1 -0.1)">
       <use xlink:href="#DejaVuSans-48"/>
       <use x="63.623047" xlink:href="#DejaVuSans-46"/>
       <use x="95.410156" xlink:href="#DejaVuSans-48"/>
       <use x="159.033203" xlink:href="#DejaVuSans-53"/>
      </g>
     </g>
    </g>
    <g id="ytick_3">
     <g id="line2d_23">
      <path clip-path="url(#p67260d6f9a)" d="M 36.465625 166.367039 
L 371.265625 166.367039 
" style="fill:none;stroke:#b0b0b0;stroke-linecap:square;stroke-width:0.8;"/>
     </g>
     <g id="line2d_24">
      <g>
       <use style="stroke:#000000;stroke-width:0.8;" x="36.465625" xlink:href="#m1e28aa091d" y="166.367039"/>
      </g>
     </g>
     <g id="text_12">
      <!-- 0.10 -->
      <g transform="translate(7.2 170.166258)scale(0.1 -0.1)">
       <use xlink:href="#DejaVuSans-48"/>
       <use x="63.623047" xlink:href="#DejaVuSans-46"/>
       <use x="95.410156" xlink:href="#DejaVuSans-49"/>
       <use x="159.033203" xlink:href="#DejaVuSans-48"/>
      </g>
     </g>
    </g>
    <g id="ytick_4">
     <g id="line2d_25">
      <path clip-path="url(#p67260d6f9a)" d="M 36.465625 142.172358 
L 371.265625 142.172358 
" style="fill:none;stroke:#b0b0b0;stroke-linecap:square;stroke-width:0.8;"/>
     </g>
     <g id="line2d_26">
      <g>
       <use style="stroke:#000000;stroke-width:0.8;" x="36.465625" xlink:href="#m1e28aa091d" y="142.172358"/>
      </g>
     </g>
     <g id="text_13">
      <!-- 0.15 -->
      <g transform="translate(7.2 145.971577)scale(0.1 -0.1)">
       <use xlink:href="#DejaVuSans-48"/>
       <use x="63.623047" xlink:href="#DejaVuSans-46"/>
       <use x="95.410156" xlink:href="#DejaVuSans-49"/>
       <use x="159.033203" xlink:href="#DejaVuSans-53"/>
      </g>
     </g>
    </g>
    <g id="ytick_5">
     <g id="line2d_27">
      <path clip-path="url(#p67260d6f9a)" d="M 36.465625 117.977678 
L 371.265625 117.977678 
" style="fill:none;stroke:#b0b0b0;stroke-linecap:square;stroke-width:0.8;"/>
     </g>
     <g id="line2d_28">
      <g>
       <use style="stroke:#000000;stroke-width:0.8;" x="36.465625" xlink:href="#m1e28aa091d" y="117.977678"/>
      </g>
     </g>
     <g id="text_14">
      <!-- 0.20 -->
      <g transform="translate(7.2 121.776897)scale(0.1 -0.1)">
       <use xlink:href="#DejaVuSans-48"/>
       <use x="63.623047" xlink:href="#DejaVuSans-46"/>
       <use x="95.410156" xlink:href="#DejaVuSans-50"/>
       <use x="159.033203" xlink:href="#DejaVuSans-48"/>
      </g>
     </g>
    </g>
    <g id="ytick_6">
     <g id="line2d_29">
      <path clip-path="url(#p67260d6f9a)" d="M 36.465625 93.782997 
L 371.265625 93.782997 
" style="fill:none;stroke:#b0b0b0;stroke-linecap:square;stroke-width:0.8;"/>
     </g>
     <g id="line2d_30">
      <g>
       <use style="stroke:#000000;stroke-width:0.8;" x="36.465625" xlink:href="#m1e28aa091d" y="93.782997"/>
      </g>
     </g>
     <g id="text_15">
      <!-- 0.25 -->
      <g transform="translate(7.2 97.582216)scale(0.1 -0.1)">
       <use xlink:href="#DejaVuSans-48"/>
       <use x="63.623047" xlink:href="#DejaVuSans-46"/>
       <use x="95.410156" xlink:href="#DejaVuSans-50"/>
       <use x="159.033203" xlink:href="#DejaVuSans-53"/>
      </g>
     </g>
    </g>
    <g id="ytick_7">
     <g id="line2d_31">
      <path clip-path="url(#p67260d6f9a)" d="M 36.465625 69.588317 
L 371.265625 69.588317 
" style="fill:none;stroke:#b0b0b0;stroke-linecap:square;stroke-width:0.8;"/>
     </g>
     <g id="line2d_32">
      <g>
       <use style="stroke:#000000;stroke-width:0.8;" x="36.465625" xlink:href="#m1e28aa091d" y="69.588317"/>
      </g>
     </g>
     <g id="text_16">
      <!-- 0.30 -->
      <g transform="translate(7.2 73.387536)scale(0.1 -0.1)">
       <defs>
        <path d="M 40.578125 39.3125 
Q 47.65625 37.796875 51.625 33 
Q 55.609375 28.21875 55.609375 21.1875 
Q 55.609375 10.40625 48.1875 4.484375 
Q 40.765625 -1.421875 27.09375 -1.421875 
Q 22.515625 -1.421875 17.65625 -0.515625 
Q 12.796875 0.390625 7.625 2.203125 
L 7.625 11.71875 
Q 11.71875 9.328125 16.59375 8.109375 
Q 21.484375 6.890625 26.8125 6.890625 
Q 36.078125 6.890625 40.9375 10.546875 
Q 45.796875 14.203125 45.796875 21.1875 
Q 45.796875 27.640625 41.28125 31.265625 
Q 36.765625 34.90625 28.71875 34.90625 
L 20.21875 34.90625 
L 20.21875 43.015625 
L 29.109375 43.015625 
Q 36.375 43.015625 40.234375 45.921875 
Q 44.09375 48.828125 44.09375 54.296875 
Q 44.09375 59.90625 40.109375 62.90625 
Q 36.140625 65.921875 28.71875 65.921875 
Q 24.65625 65.921875 20.015625 65.03125 
Q 15.375 64.15625 9.8125 62.3125 
L 9.8125 71.09375 
Q 15.4375 72.65625 20.34375 73.4375 
Q 25.25 74.21875 29.59375 74.21875 
Q 40.828125 74.21875 47.359375 69.109375 
Q 53.90625 64.015625 53.90625 55.328125 
Q 53.90625 49.265625 50.4375 45.09375 
Q 46.96875 40.921875 40.578125 39.3125 
z
" id="DejaVuSans-51"/>
       </defs>
       <use xlink:href="#DejaVuSans-48"/>
       <use x="63.623047" xlink:href="#DejaVuSans-46"/>
       <use x="95.410156" xlink:href="#DejaVuSans-51"/>
       <use x="159.033203" xlink:href="#DejaVuSans-48"/>
      </g>
     </g>
    </g>
    <g id="ytick_8">
     <g id="line2d_33">
      <path clip-path="url(#p67260d6f9a)" d="M 36.465625 45.393637 
L 371.265625 45.393637 
" style="fill:none;stroke:#b0b0b0;stroke-linecap:square;stroke-width:0.8;"/>
     </g>
     <g id="line2d_34">
      <g>
       <use style="stroke:#000000;stroke-width:0.8;" x="36.465625" xlink:href="#m1e28aa091d" y="45.393637"/>
      </g>
     </g>
     <g id="text_17">
      <!-- 0.35 -->
      <g transform="translate(7.2 49.192855)scale(0.1 -0.1)">
       <use xlink:href="#DejaVuSans-48"/>
       <use x="63.623047" xlink:href="#DejaVuSans-46"/>
       <use x="95.410156" xlink:href="#DejaVuSans-51"/>
       <use x="159.033203" xlink:href="#DejaVuSans-53"/>
      </g>
     </g>
    </g>
    <g id="ytick_9">
     <g id="line2d_35">
      <path clip-path="url(#p67260d6f9a)" d="M 36.465625 21.198956 
L 371.265625 21.198956 
" style="fill:none;stroke:#b0b0b0;stroke-linecap:square;stroke-width:0.8;"/>
     </g>
     <g id="line2d_36">
      <g>
       <use style="stroke:#000000;stroke-width:0.8;" x="36.465625" xlink:href="#m1e28aa091d" y="21.198956"/>
      </g>
     </g>
     <g id="text_18">
      <!-- 0.40 -->
      <g transform="translate(7.2 24.998175)scale(0.1 -0.1)">
       <use xlink:href="#DejaVuSans-48"/>
       <use x="63.623047" xlink:href="#DejaVuSans-46"/>
       <use x="95.410156" xlink:href="#DejaVuSans-52"/>
       <use x="159.033203" xlink:href="#DejaVuSans-48"/>
      </g>
     </g>
    </g>
   </g>
   <g id="line2d_37">
    <defs>
     <path d="M 0 1.5 
C 0.397805 1.5 0.77937 1.341951 1.06066 1.06066 
C 1.341951 0.77937 1.5 0.397805 1.5 0 
C 1.5 -0.397805 1.341951 -0.77937 1.06066 -1.06066 
C 0.77937 -1.341951 0.397805 -1.5 0 -1.5 
C -0.397805 -1.5 -0.77937 -1.341951 -1.06066 -1.06066 
C -1.341951 -0.77937 -1.5 -0.397805 -1.5 0 
C -1.5 0.397805 -1.341951 0.77937 -1.06066 1.06066 
C -0.77937 1.341951 -0.397805 1.5 0 1.5 
z
" id="m61887da866" style="stroke:#ff0000;"/>
    </defs>
    <g clip-path="url(#p67260d6f9a)">
     <use style="fill:#ff0000;stroke:#ff0000;" x="51.683807" xlink:href="#m61887da866" y="17.083636"/>
     <use style="fill:#ff0000;stroke:#ff0000;" x="58.024716" xlink:href="#m61887da866" y="18.669583"/>
     <use style="fill:#ff0000;stroke:#ff0000;" x="64.365625" xlink:href="#m61887da866" y="18.599852"/>
     <use style="fill:#ff0000;stroke:#ff0000;" x="70.706534" xlink:href="#m61887da866" y="18.406541"/>
     <use style="fill:#ff0000;stroke:#ff0000;" x="77.047443" xlink:href="#m61887da866" y="18.388634"/>
     <use style="fill:#ff0000;stroke:#ff0000;" x="83.388352" xlink:href="#m61887da866" y="18.540362"/>
     <use style="fill:#ff0000;stroke:#ff0000;" x="89.729261" xlink:href="#m61887da866" y="18.418831"/>
     <use style="fill:#ff0000;stroke:#ff0000;" x="96.07017" xlink:href="#m61887da866" y="18.577292"/>
     <use style="fill:#ff0000;stroke:#ff0000;" x="102.41108" xlink:href="#m61887da866" y="18.595063"/>
     <use style="fill:#ff0000;stroke:#ff0000;" x="108.751989" xlink:href="#m61887da866" y="18.718966"/>
     <use style="fill:#ff0000;stroke:#ff0000;" x="115.092898" xlink:href="#m61887da866" y="18.831937"/>
     <use style="fill:#ff0000;stroke:#ff0000;" x="121.433807" xlink:href="#m61887da866" y="18.957841"/>
     <use style="fill:#ff0000;stroke:#ff0000;" x="127.774716" xlink:href="#m61887da866" y="19.102878"/>
     <use style="fill:#ff0000;stroke:#ff0000;" x="134.115625" xlink:href="#m61887da866" y="19.248126"/>
     <use style="fill:#ff0000;stroke:#ff0000;" x="140.456534" xlink:href="#m61887da866" y="19.402521"/>
     <use style="fill:#ff0000;stroke:#ff0000;" x="146.797443" xlink:href="#m61887da866" y="19.5665"/>
     <use style="fill:#ff0000;stroke:#ff0000;" x="153.138352" xlink:href="#m61887da866" y="19.729521"/>
     <use style="fill:#ff0000;stroke:#ff0000;" x="159.479261" xlink:href="#m61887da866" y="19.907449"/>
     <use style="fill:#ff0000;stroke:#ff0000;" x="165.82017" xlink:href="#m61887da866" y="20.087387"/>
     <use style="fill:#ff0000;stroke:#ff0000;" x="172.16108" xlink:href="#m61887da866" y="20.275289"/>
     <use style="fill:#ff0000;stroke:#ff0000;" x="178.501989" xlink:href="#m61887da866" y="20.46844"/>
     <use style="fill:#ff0000;stroke:#ff0000;" x="184.842898" xlink:href="#m61887da866" y="20.663056"/>
     <use style="fill:#ff0000;stroke:#ff0000;" x="191.183807" xlink:href="#m61887da866" y="20.855932"/>
     <use style="fill:#ff0000;stroke:#ff0000;" x="197.524716" xlink:href="#m61887da866" y="21.054167"/>
     <use style="fill:#ff0000;stroke:#ff0000;" x="203.865625" xlink:href="#m61887da866" y="21.251207"/>
     <use style="fill:#ff0000;stroke:#ff0000;" x="210.206534" xlink:href="#m61887da866" y="21.449865"/>
     <use style="fill:#ff0000;stroke:#ff0000;" x="216.547443" xlink:href="#m61887da866" y="21.643193"/>
     <use style="fill:#ff0000;stroke:#ff0000;" x="222.888352" xlink:href="#m61887da866" y="21.838984"/>
     <use style="fill:#ff0000;stroke:#ff0000;" x="229.229261" xlink:href="#m61887da866" y="22.029373"/>
     <use style="fill:#ff0000;stroke:#ff0000;" x="235.57017" xlink:href="#m61887da866" y="22.218918"/>
     <use style="fill:#ff0000;stroke:#ff0000;" x="241.91108" xlink:href="#m61887da866" y="22.466609"/>
     <use style="fill:#ff0000;stroke:#ff0000;" x="248.251989" xlink:href="#m61887da866" y="22.647406"/>
     <use style="fill:#ff0000;stroke:#ff0000;" x="254.592898" xlink:href="#m61887da866" y="22.754488"/>
     <use style="fill:#ff0000;stroke:#ff0000;" x="260.933807" xlink:href="#m61887da866" y="22.923086"/>
     <use style="fill:#ff0000;stroke:#ff0000;" x="267.274716" xlink:href="#m61887da866" y="22.880016"/>
     <use style="fill:#ff0000;stroke:#ff0000;" x="273.615625" xlink:href="#m61887da866" y="23.033248"/>
     <use style="fill:#ff0000;stroke:#ff0000;" x="279.956534" xlink:href="#m61887da866" y="23.602347"/>
     <use style="fill:#ff0000;stroke:#ff0000;" x="286.297443" xlink:href="#m61887da866" y="23.738648"/>
     <use style="fill:#ff0000;stroke:#ff0000;" x="292.638352" xlink:href="#m61887da866" y="24.00442"/>
     <use style="fill:#ff0000;stroke:#ff0000;" x="298.979261" xlink:href="#m61887da866" y="24.1213"/>
     <use style="fill:#ff0000;stroke:#ff0000;" x="305.32017" xlink:href="#m61887da866" y="23.084609"/>
     <use style="fill:#ff0000;stroke:#ff0000;" x="311.66108" xlink:href="#m61887da866" y="23.178625"/>
     <use style="fill:#ff0000;stroke:#ff0000;" x="318.001989" xlink:href="#m61887da866" y="23.910797"/>
     <use style="fill:#ff0000;stroke:#ff0000;" x="324.342898" xlink:href="#m61887da866" y="23.982276"/>
     <use style="fill:#ff0000;stroke:#ff0000;" x="330.683807" xlink:href="#m61887da866" y="25.123991"/>
     <use style="fill:#ff0000;stroke:#ff0000;" x="337.024716" xlink:href="#m61887da866" y="25.172387"/>
     <use style="fill:#ff0000;stroke:#ff0000;" x="343.365625" xlink:href="#m61887da866" y="23.386426"/>
     <use style="fill:#ff0000;stroke:#ff0000;" x="349.706534" xlink:href="#m61887da866" y="23.981183"/>
     <use style="fill:#ff0000;stroke:#ff0000;" x="356.047443" xlink:href="#m61887da866" y="23.990429"/>
    </g>
   </g>
   <g id="line2d_38">
    <defs>
     <path d="M 0 1.5 
C 0.397805 1.5 0.77937 1.341951 1.06066 1.06066 
C 1.341951 0.77937 1.5 0.397805 1.5 0 
C 1.5 -0.397805 1.341951 -0.77937 1.06066 -1.06066 
C 0.77937 -1.341951 0.397805 -1.5 0 -1.5 
C -0.397805 -1.5 -0.77937 -1.341951 -1.06066 -1.06066 
C -1.341951 -0.77937 -1.5 -0.397805 -1.5 0 
C -1.5 0.397805 -1.341951 0.77937 -1.06066 1.06066 
C -0.77937 1.341951 -0.397805 1.5 0 1.5 
z
" id="mec843c6ea7" style="stroke:#0000ff;"/>
    </defs>
    <g clip-path="url(#p67260d6f9a)">
     <use style="fill:#0000ff;stroke:#0000ff;" x="51.683807" xlink:href="#mec843c6ea7" y="120.096017"/>
     <use style="fill:#0000ff;stroke:#0000ff;" x="58.024716" xlink:href="#mec843c6ea7" y="127.838011"/>
     <use style="fill:#0000ff;stroke:#0000ff;" x="64.365625" xlink:href="#mec843c6ea7" y="133.875941"/>
     <use style="fill:#0000ff;stroke:#0000ff;" x="70.706534" xlink:href="#mec843c6ea7" y="139.722562"/>
     <use style="fill:#0000ff;stroke:#0000ff;" x="77.047443" xlink:href="#mec843c6ea7" y="145.646292"/>
     <use style="fill:#0000ff;stroke:#0000ff;" x="83.388352" xlink:href="#mec843c6ea7" y="151.610282"/>
     <use style="fill:#0000ff;stroke:#0000ff;" x="89.729261" xlink:href="#mec843c6ea7" y="157.160851"/>
     <use style="fill:#0000ff;stroke:#0000ff;" x="96.07017" xlink:href="#mec843c6ea7" y="162.815373"/>
     <use style="fill:#0000ff;stroke:#0000ff;" x="102.41108" xlink:href="#mec843c6ea7" y="168.138443"/>
     <use style="fill:#0000ff;stroke:#0000ff;" x="108.751989" xlink:href="#mec843c6ea7" y="173.350012"/>
     <use style="fill:#0000ff;stroke:#0000ff;" x="115.092898" xlink:href="#mec843c6ea7" y="178.313363"/>
     <use style="fill:#0000ff;stroke:#0000ff;" x="121.433807" xlink:href="#mec843c6ea7" y="183.032276"/>
     <use style="fill:#0000ff;stroke:#0000ff;" x="127.774716" xlink:href="#mec843c6ea7" y="187.493393"/>
     <use style="fill:#0000ff;stroke:#0000ff;" x="134.115625" xlink:href="#mec843c6ea7" y="191.660701"/>
     <use style="fill:#0000ff;stroke:#0000ff;" x="140.456534" xlink:href="#mec843c6ea7" y="195.526556"/>
     <use style="fill:#0000ff;stroke:#0000ff;" x="146.797443" xlink:href="#mec843c6ea7" y="199.075967"/>
     <use style="fill:#0000ff;stroke:#0000ff;" x="153.138352" xlink:href="#mec843c6ea7" y="202.28534"/>
     <use style="fill:#0000ff;stroke:#0000ff;" x="159.479261" xlink:href="#mec843c6ea7" y="205.157068"/>
     <use style="fill:#0000ff;stroke:#0000ff;" x="165.82017" xlink:href="#mec843c6ea7" y="207.667655"/>
     <use style="fill:#0000ff;stroke:#0000ff;" x="172.16108" xlink:href="#mec843c6ea7" y="209.812999"/>
     <use style="fill:#0000ff;stroke:#0000ff;" x="178.501989" xlink:href="#mec843c6ea7" y="211.58205"/>
     <use style="fill:#0000ff;stroke:#0000ff;" x="184.842898" xlink:href="#mec843c6ea7" y="212.964858"/>
     <use style="fill:#0000ff;stroke:#0000ff;" x="191.183807" xlink:href="#mec843c6ea7" y="213.954652"/>
     <use style="fill:#0000ff;stroke:#0000ff;" x="197.524716" xlink:href="#mec843c6ea7" y="214.553957"/>
     <use style="fill:#0000ff;stroke:#0000ff;" x="203.865625" xlink:href="#mec843c6ea7" y="214.756364"/>
     <use style="fill:#0000ff;stroke:#0000ff;" x="210.206534" xlink:href="#mec843c6ea7" y="214.562868"/>
     <use style="fill:#0000ff;stroke:#0000ff;" x="216.547443" xlink:href="#mec843c6ea7" y="213.963806"/>
     <use style="fill:#0000ff;stroke:#0000ff;" x="222.888352" xlink:href="#mec843c6ea7" y="212.974565"/>
     <use style="fill:#0000ff;stroke:#0000ff;" x="229.229261" xlink:href="#mec843c6ea7" y="211.591241"/>
     <use style="fill:#0000ff;stroke:#0000ff;" x="235.57017" xlink:href="#mec843c6ea7" y="209.825737"/>
     <use style="fill:#0000ff;stroke:#0000ff;" x="241.91108" xlink:href="#mec843c6ea7" y="207.757364"/>
     <use style="fill:#0000ff;stroke:#0000ff;" x="248.251989" xlink:href="#mec843c6ea7" y="205.258243"/>
     <use style="fill:#0000ff;stroke:#0000ff;" x="254.592898" xlink:href="#mec843c6ea7" y="202.32311"/>
     <use style="fill:#0000ff;stroke:#0000ff;" x="260.933807" xlink:href="#mec843c6ea7" y="199.109298"/>
     <use style="fill:#0000ff;stroke:#0000ff;" x="267.274716" xlink:href="#mec843c6ea7" y="195.335846"/>
     <use style="fill:#0000ff;stroke:#0000ff;" x="273.615625" xlink:href="#mec843c6ea7" y="191.448154"/>
     <use style="fill:#0000ff;stroke:#0000ff;" x="279.956534" xlink:href="#mec843c6ea7" y="187.718607"/>
     <use style="fill:#0000ff;stroke:#0000ff;" x="286.297443" xlink:href="#mec843c6ea7" y="183.279087"/>
     <use style="fill:#0000ff;stroke:#0000ff;" x="292.638352" xlink:href="#mec843c6ea7" y="178.720545"/>
     <use style="fill:#0000ff;stroke:#0000ff;" x="298.979261" xlink:href="#mec843c6ea7" y="173.774269"/>
     <use style="fill:#0000ff;stroke:#0000ff;" x="305.32017" xlink:href="#mec843c6ea7" y="167.388167"/>
     <use style="fill:#0000ff;stroke:#0000ff;" x="311.66108" xlink:href="#mec843c6ea7" y="161.93914"/>
     <use style="fill:#0000ff;stroke:#0000ff;" x="318.001989" xlink:href="#mec843c6ea7" y="156.990536"/>
     <use style="fill:#0000ff;stroke:#0000ff;" x="324.342898" xlink:href="#mec843c6ea7" y="151.232365"/>
     <use style="fill:#0000ff;stroke:#0000ff;" x="330.683807" xlink:href="#mec843c6ea7" y="146.46761"/>
     <use style="fill:#0000ff;stroke:#0000ff;" x="337.024716" xlink:href="#mec843c6ea7" y="140.506619"/>
     <use style="fill:#0000ff;stroke:#0000ff;" x="343.365625" xlink:href="#mec843c6ea7" y="132.562717"/>
     <use style="fill:#0000ff;stroke:#0000ff;" x="349.706534" xlink:href="#mec843c6ea7" y="126.971021"/>
     <use style="fill:#0000ff;stroke:#0000ff;" x="356.047443" xlink:href="#mec843c6ea7" y="120.768937"/>
    </g>
   </g>
   <g id="line2d_39">
    <defs>
     <path d="M 0 1.5 
C 0.397805 1.5 0.77937 1.341951 1.06066 1.06066 
C 1.341951 0.77937 1.5 0.397805 1.5 0 
C 1.5 -0.397805 1.341951 -0.77937 1.06066 -1.06066 
C 0.77937 -1.341951 0.397805 -1.5 0 -1.5 
C -0.397805 -1.5 -0.77937 -1.341951 -1.06066 -1.06066 
C -1.341951 -0.77937 -1.5 -0.397805 -1.5 0 
C -1.5 0.397805 -1.341951 0.77937 -1.06066 1.06066 
C -0.77937 1.341951 -0.397805 1.5 0 1.5 
z
" id="mea12966097" style="stroke:#008000;"/>
    </defs>
    <g clip-path="url(#p67260d6f9a)">
     <use style="fill:#008000;stroke:#008000;" x="51.683807" xlink:href="#mea12966097" y="111.74402"/>
     <use style="fill:#008000;stroke:#008000;" x="58.024716" xlink:href="#mea12966097" y="105.587972"/>
     <use style="fill:#008000;stroke:#008000;" x="64.365625" xlink:href="#mea12966097" y="99.480312"/>
     <use style="fill:#008000;stroke:#008000;" x="70.706534" xlink:href="#mea12966097" y="93.440379"/>
     <use style="fill:#008000;stroke:#008000;" x="77.047443" xlink:href="#mea12966097" y="87.498742"/>
     <use style="fill:#008000;stroke:#008000;" x="83.388352" xlink:href="#mea12966097" y="81.68648"/>
     <use style="fill:#008000;stroke:#008000;" x="89.729261" xlink:href="#mea12966097" y="76.01438"/>
     <use style="fill:#008000;stroke:#008000;" x="96.07017" xlink:href="#mea12966097" y="70.518319"/>
     <use style="fill:#008000;stroke:#008000;" x="102.41108" xlink:href="#mea12966097" y="65.21302"/>
     <use style="fill:#008000;stroke:#008000;" x="108.751989" xlink:href="#mea12966097" y="60.125353"/>
     <use style="fill:#008000;stroke:#008000;" x="115.092898" xlink:href="#mea12966097" y="55.274974"/>
     <use style="fill:#008000;stroke:#008000;" x="121.433807" xlink:href="#mea12966097" y="50.681965"/>
     <use style="fill:#008000;stroke:#008000;" x="127.774716" xlink:href="#mea12966097" y="46.365885"/>
     <use style="fill:#008000;stroke:#008000;" x="134.115625" xlink:href="#mea12966097" y="42.343825"/>
     <use style="fill:#008000;stroke:#008000;" x="140.456534" xlink:href="#mea12966097" y="38.632366"/>
     <use style="fill:#008000;stroke:#008000;" x="146.797443" xlink:href="#mea12966097" y="35.246933"/>
     <use style="fill:#008000;stroke:#008000;" x="153.138352" xlink:href="#mea12966097" y="32.200581"/>
     <use style="fill:#008000;stroke:#008000;" x="159.479261" xlink:href="#mea12966097" y="29.50678"/>
     <use style="fill:#008000;stroke:#008000;" x="165.82017" xlink:href="#mea12966097" y="27.176132"/>
     <use style="fill:#008000;stroke:#008000;" x="172.16108" xlink:href="#mea12966097" y="25.21869"/>
     <use style="fill:#008000;stroke:#008000;" x="178.501989" xlink:href="#mea12966097" y="23.642789"/>
     <use style="fill:#008000;stroke:#008000;" x="184.842898" xlink:href="#mea12966097" y="22.454598"/>
     <use style="fill:#008000;stroke:#008000;" x="191.183807" xlink:href="#mea12966097" y="21.65768"/>
     <use style="fill:#008000;stroke:#008000;" x="197.524716" xlink:href="#mea12966097" y="21.25661"/>
     <use style="fill:#008000;stroke:#008000;" x="203.865625" xlink:href="#mea12966097" y="21.251244"/>
     <use style="fill:#008000;stroke:#008000;" x="210.206534" xlink:href="#mea12966097" y="21.643397"/>
     <use style="fill:#008000;stroke:#008000;" x="216.547443" xlink:href="#mea12966097" y="22.435787"/>
     <use style="fill:#008000;stroke:#008000;" x="222.888352" xlink:href="#mea12966097" y="23.620818"/>
     <use style="fill:#008000;stroke:#008000;" x="229.229261" xlink:href="#mea12966097" y="25.194531"/>
     <use style="fill:#008000;stroke:#008000;" x="235.57017" xlink:href="#mea12966097" y="27.149581"/>
     <use style="fill:#008000;stroke:#008000;" x="241.91108" xlink:href="#mea12966097" y="29.465645"/>
     <use style="fill:#008000;stroke:#008000;" x="248.251989" xlink:href="#mea12966097" y="32.145563"/>
     <use style="fill:#008000;stroke:#008000;" x="254.592898" xlink:href="#mea12966097" y="35.187778"/>
     <use style="fill:#008000;stroke:#008000;" x="260.933807" xlink:href="#mea12966097" y="38.570188"/>
     <use style="fill:#008000;stroke:#008000;" x="267.274716" xlink:href="#mea12966097" y="42.300569"/>
     <use style="fill:#008000;stroke:#008000;" x="273.615625" xlink:href="#mea12966097" y="46.341495"/>
     <use style="fill:#008000;stroke:#008000;" x="279.956534" xlink:href="#mea12966097" y="50.640139"/>
     <use style="fill:#008000;stroke:#008000;" x="286.297443" xlink:href="#mea12966097" y="55.215961"/>
     <use style="fill:#008000;stroke:#008000;" x="292.638352" xlink:href="#mea12966097" y="60.040275"/>
     <use style="fill:#008000;stroke:#008000;" x="298.979261" xlink:href="#mea12966097" y="65.103431"/>
     <use style="fill:#008000;stroke:#008000;" x="305.32017" xlink:href="#mea12966097" y="70.452842"/>
     <use style="fill:#008000;stroke:#008000;" x="311.66108" xlink:href="#mea12966097" y="75.995885"/>
     <use style="fill:#008000;stroke:#008000;" x="318.001989" xlink:href="#mea12966097" y="81.67666"/>
     <use style="fill:#008000;stroke:#008000;" x="324.342898" xlink:href="#mea12966097" y="87.506312"/>
     <use style="fill:#008000;stroke:#008000;" x="330.683807" xlink:href="#mea12966097" y="93.412781"/>
     <use style="fill:#008000;stroke:#008000;" x="337.024716" xlink:href="#mea12966097" y="99.422168"/>
     <use style="fill:#008000;stroke:#008000;" x="343.365625" xlink:href="#mea12966097" y="105.580109"/>
     <use style="fill:#008000;stroke:#008000;" x="349.706534" xlink:href="#mea12966097" y="111.766562"/>
     <use style="fill:#008000;stroke:#008000;" x="356.047443" xlink:href="#mea12966097" y="117.977892"/>
    </g>
   </g>
   <g id="patch_3">
    <path d="M 36.465625 224.64 
L 36.465625 7.2 
" style="fill:none;stroke:#000000;stroke-linecap:square;stroke-linejoin:miter;stroke-width:0.8;"/>
   </g>
   <g id="patch_4">
    <path d="M 371.265625 224.64 
L 371.265625 7.2 
" style="fill:none;stroke:#000000;stroke-linecap:square;stroke-linejoin:miter;stroke-width:0.8;"/>
   </g>
   <g id="patch_5">
    <path d="M 36.465625 224.64 
L 371.265625 224.64 
" style="fill:none;stroke:#000000;stroke-linecap:square;stroke-linejoin:miter;stroke-width:0.8;"/>
   </g>
   <g id="patch_6">
    <path d="M 36.465625 7.2 
L 371.265625 7.2 
" style="fill:none;stroke:#000000;stroke-linecap:square;stroke-linejoin:miter;stroke-width:0.8;"/>
   </g>
  </g>
 </g>
 <defs>
  <clipPath id="p67260d6f9a">
   <rect height="217.44" width="334.8" x="36.465625" y="7.2"/>
  </clipPath>
 </defs>
</svg>
